<svg width="74" height="15" viewBox="0 0 74 15" fill="none" xmlns="http://www.w3.org/2000/svg">
<g clip-path="url(#clip0_1_35)">
<path d="M6.38683 3.75V12H5.38781V3.75H6.38683ZM10.5137 12.1074C10.109 12.1074 9.74202 12.0394 9.41259 11.9033C9.08675 11.7637 8.80566 11.5685 8.56933 11.3179C8.33659 11.0672 8.15755 10.77 8.03222 10.4263C7.9069 10.0825 7.84424 9.70654 7.84424 9.29834V9.07275C7.84424 8.6001 7.91406 8.17936 8.05371 7.81055C8.19336 7.43815 8.38314 7.12305 8.62304 6.86523C8.86295 6.60742 9.13509 6.41227 9.43945 6.27979C9.74381 6.1473 10.0589 6.08105 10.3848 6.08105C10.8001 6.08105 11.1582 6.15267 11.459 6.2959C11.7633 6.43913 12.0122 6.63965 12.2056 6.89746C12.3989 7.15169 12.5422 7.45247 12.6353 7.7998C12.7284 8.14355 12.7749 8.51953 12.7749 8.92773V9.37354H8.43506V8.5625H11.7812V8.4873C11.7669 8.22949 11.7132 7.97884 11.6201 7.73535C11.5306 7.49186 11.3874 7.29134 11.1904 7.13379C10.9935 6.97624 10.7249 6.89746 10.3848 6.89746C10.1592 6.89746 9.95149 6.9458 9.76172 7.04248C9.57194 7.13558 9.40901 7.27523 9.27295 7.46143C9.13688 7.64762 9.03125 7.875 8.95605 8.14355C8.88086 8.41211 8.84326 8.72184 8.84326 9.07275V9.29834C8.84326 9.57406 8.88086 9.83366 8.95605 10.0771C9.03483 10.3171 9.14762 10.5283 9.29443 10.7109C9.44482 10.8936 9.62565 11.0368 9.83691 11.1406C10.0518 11.2445 10.2952 11.2964 10.5674 11.2964C10.9183 11.2964 11.2155 11.2248 11.459 11.0815C11.7025 10.9383 11.9155 10.7467 12.0981 10.5068L12.6997 10.9849C12.5744 11.1746 12.415 11.3555 12.2217 11.5273C12.0283 11.6992 11.7902 11.8389 11.5073 11.9463C11.228 12.0537 10.8968 12.1074 10.5137 12.1074ZM15.5267 10.9688L17.0199 6.18848H17.6752L17.5463 7.13916L16.0262 12H15.3871L15.5267 10.9688ZM14.5223 6.18848L15.7953 11.0225L15.8866 12H15.2152L13.5287 6.18848H14.5223ZM19.1039 10.9849L20.3178 6.18848H21.306L19.6195 12H18.9535L19.1039 10.9849ZM17.8202 6.18848L19.2811 10.8882L19.4476 12H18.8138L17.2509 7.12842L17.122 6.18848H17.8202ZM23.5261 6.18848V12H22.5271V6.18848H23.5261ZM22.4519 4.64697C22.4519 4.48584 22.5003 4.34977 22.5969 4.23877C22.6972 4.12777 22.844 4.07227 23.0374 4.07227C23.2271 4.07227 23.3722 4.12777 23.4724 4.23877C23.5763 4.34977 23.6282 4.48584 23.6282 4.64697C23.6282 4.80094 23.5763 4.93343 23.4724 5.04443C23.3722 5.15186 23.2271 5.20557 23.0374 5.20557C22.844 5.20557 22.6972 5.15186 22.5969 5.04443C22.5003 4.93343 22.4519 4.80094 22.4519 4.64697ZM28.6251 10.4585C28.6251 10.3153 28.5929 10.1828 28.5285 10.061C28.4676 9.93571 28.3405 9.82292 28.1471 9.72266C27.9573 9.61882 27.6709 9.5293 27.2877 9.4541C26.9655 9.38607 26.6736 9.3055 26.4122 9.2124C26.1544 9.1193 25.9342 9.00651 25.7516 8.87402C25.5726 8.74154 25.4347 8.58577 25.338 8.40674C25.2413 8.2277 25.193 8.01823 25.193 7.77832C25.193 7.54915 25.2431 7.33252 25.3434 7.12842C25.4472 6.92432 25.5923 6.74349 25.7785 6.58594C25.9682 6.42839 26.1956 6.30485 26.4606 6.21533C26.7256 6.12581 27.021 6.08105 27.3468 6.08105C27.8123 6.08105 28.2098 6.16341 28.5392 6.32812C28.8686 6.49284 29.1211 6.71305 29.2965 6.98877C29.472 7.2609 29.5597 7.56348 29.5597 7.89648H28.5661C28.5661 7.73535 28.5177 7.57959 28.421 7.4292C28.3279 7.27523 28.1901 7.14811 28.0075 7.04785C27.8284 6.94759 27.6082 6.89746 27.3468 6.89746C27.0711 6.89746 26.8473 6.94043 26.6754 7.02637C26.5071 7.10872 26.3836 7.21436 26.3048 7.34326C26.2296 7.47217 26.192 7.60824 26.192 7.75146C26.192 7.85889 26.2099 7.95557 26.2457 8.0415C26.2851 8.12386 26.3532 8.20085 26.4498 8.27246C26.5465 8.34049 26.6826 8.40495 26.858 8.46582C27.0335 8.52669 27.2573 8.58757 27.5294 8.64844C28.0057 8.75586 28.3978 8.88477 28.7057 9.03516C29.0136 9.18555 29.2428 9.36995 29.3932 9.58838C29.5436 9.8068 29.6188 10.0718 29.6188 10.3833C29.6188 10.6375 29.5651 10.8703 29.4577 11.0815C29.3538 11.2928 29.2016 11.4754 29.0011 11.6294C28.8042 11.7798 28.5678 11.8979 28.2921 11.9839C28.02 12.0662 27.7138 12.1074 27.3737 12.1074C26.8616 12.1074 26.4284 12.0161 26.0739 11.8335C25.7194 11.6509 25.4508 11.4146 25.2682 11.1245C25.0856 10.8345 24.9943 10.5283 24.9943 10.2061H25.9933C26.0076 10.4782 26.0864 10.6948 26.2296 10.856C26.3729 11.0135 26.5483 11.1263 26.756 11.1943C26.9637 11.2588 27.1696 11.291 27.3737 11.291C27.6458 11.291 27.8732 11.2552 28.0558 11.1836C28.242 11.112 28.3834 11.0135 28.4801 10.8882C28.5768 10.7629 28.6251 10.6196 28.6251 10.4585ZM32.0376 3.75V12H31.044V3.75H32.0376ZM31.8013 8.87402L31.3877 8.85791C31.3913 8.46045 31.4504 8.09342 31.565 7.75684C31.6795 7.41667 31.8407 7.12126 32.0484 6.87061C32.256 6.61995 32.5031 6.4266 32.7896 6.29053C33.0796 6.15088 33.4001 6.08105 33.751 6.08105C34.0375 6.08105 34.2953 6.12044 34.5244 6.19922C34.7536 6.27441 34.9487 6.39616 35.1099 6.56445C35.2746 6.73275 35.3999 6.95117 35.4859 7.21973C35.5718 7.4847 35.6148 7.80876 35.6148 8.19189V12H34.6157V8.18115C34.6157 7.87679 34.571 7.6333 34.4815 7.45068C34.3919 7.26449 34.2612 7.13021 34.0894 7.04785C33.9175 6.96191 33.7062 6.91895 33.4556 6.91895C33.2085 6.91895 32.9829 6.97087 32.7788 7.07471C32.5783 7.17855 32.4046 7.32178 32.2578 7.50439C32.1146 7.68701 32.0018 7.89648 31.9195 8.13281C31.8407 8.36556 31.8013 8.61263 31.8013 8.87402ZM40.6493 11.0063V8.01465C40.6493 7.78548 40.6028 7.58675 40.5097 7.41846C40.4201 7.24658 40.2841 7.1141 40.1015 7.021C39.9188 6.9279 39.6933 6.88135 39.4247 6.88135C39.1741 6.88135 38.9538 6.92432 38.7641 7.01025C38.5779 7.09619 38.4311 7.20898 38.3236 7.34863C38.2198 7.48828 38.1679 7.63867 38.1679 7.7998H37.1742C37.1742 7.59212 37.2279 7.38623 37.3354 7.18213C37.4428 6.97803 37.5967 6.79362 37.7973 6.62891C38.0014 6.46061 38.2449 6.32812 38.5277 6.23145C38.8142 6.13118 39.1329 6.08105 39.4838 6.08105C39.9063 6.08105 40.2787 6.15267 40.601 6.2959C40.9268 6.43913 41.1811 6.65576 41.3637 6.9458C41.5499 7.23226 41.643 7.59212 41.643 8.02539V10.7324C41.643 10.9258 41.6591 11.1317 41.6913 11.3501C41.7271 11.5685 41.779 11.7565 41.8471 11.9141V12H40.8104C40.7603 11.8854 40.7209 11.7332 40.6923 11.5435C40.6636 11.3501 40.6493 11.1711 40.6493 11.0063ZM40.8212 8.47656L40.8319 9.1748H39.8275C39.5447 9.1748 39.2922 9.19808 39.0702 9.24463C38.8482 9.2876 38.662 9.35384 38.5116 9.44336C38.3612 9.53288 38.2466 9.64567 38.1679 9.78174C38.0891 9.91423 38.0497 10.07 38.0497 10.249C38.0497 10.4316 38.0909 10.5981 38.1732 10.7485C38.2556 10.8989 38.3791 11.0189 38.5438 11.1084C38.7121 11.1943 38.918 11.2373 39.1615 11.2373C39.4659 11.2373 39.7344 11.1729 39.9672 11.0439C40.1999 10.915 40.3843 10.7575 40.5204 10.5713C40.6601 10.3851 40.7353 10.2043 40.746 10.0288L41.1703 10.5068C41.1452 10.6572 41.0772 10.8237 40.9662 11.0063C40.8552 11.189 40.7066 11.3644 40.5204 11.5327C40.3378 11.6974 40.1194 11.8353 39.8651 11.9463C39.6145 12.0537 39.3316 12.1074 39.0165 12.1074C38.6226 12.1074 38.2771 12.0304 37.9799 11.8765C37.6863 11.7225 37.4571 11.5166 37.2924 11.2588C37.1312 10.9974 37.0507 10.7056 37.0507 10.3833C37.0507 10.0718 37.1116 9.79785 37.2333 9.56152C37.355 9.32161 37.5305 9.12288 37.7597 8.96533C37.9888 8.8042 38.2645 8.68245 38.5868 8.6001C38.9091 8.51774 39.2689 8.47656 39.6664 8.47656H40.8212ZM44.3142 7.34326V12H43.3152V6.18848H44.2605L44.3142 7.34326ZM44.1101 8.87402L43.6482 8.85791C43.6518 8.46045 43.7037 8.09342 43.804 7.75684C43.9042 7.41667 44.0528 7.12126 44.2498 6.87061C44.4467 6.61995 44.692 6.4266 44.9856 6.29053C45.2792 6.15088 45.6194 6.08105 46.0061 6.08105C46.2783 6.08105 46.5289 6.12044 46.7581 6.19922C46.9873 6.27441 47.186 6.39437 47.3543 6.55908C47.5226 6.7238 47.6533 6.93506 47.7464 7.19287C47.8395 7.45068 47.886 7.76221 47.886 8.12744V12H46.8924V8.17578C46.8924 7.87142 46.8404 7.62793 46.7366 7.44531C46.6363 7.2627 46.4931 7.13021 46.3069 7.04785C46.1207 6.96191 45.9023 6.91895 45.6516 6.91895C45.358 6.91895 45.1127 6.97087 44.9158 7.07471C44.7189 7.17855 44.5613 7.32178 44.4431 7.50439C44.325 7.68701 44.239 7.89648 44.1853 8.13281C44.1352 8.36556 44.1101 8.61263 44.1101 8.87402ZM47.8753 8.32617L47.2093 8.53027C47.2128 8.21159 47.2648 7.90544 47.365 7.61182C47.4689 7.3182 47.6175 7.0568 47.8108 6.82764C48.0078 6.59847 48.2495 6.41764 48.5359 6.28516C48.8224 6.14909 49.15 6.08105 49.5188 6.08105C49.8303 6.08105 50.1061 6.12223 50.346 6.20459C50.5895 6.28695 50.7936 6.41406 50.9583 6.58594C51.1266 6.75423 51.2537 6.97087 51.3396 7.23584C51.4256 7.50081 51.4685 7.81592 51.4685 8.18115V12H50.4695V8.17041C50.4695 7.84456 50.4176 7.59212 50.3137 7.41309C50.2135 7.23047 50.0703 7.10335 49.8841 7.03174C49.7014 6.95654 49.483 6.91895 49.2288 6.91895C49.0104 6.91895 48.817 6.95654 48.6487 7.03174C48.4804 7.10693 48.339 7.21077 48.2244 7.34326C48.1098 7.47217 48.0221 7.62077 47.9612 7.78906C47.9039 7.95736 47.8753 8.13639 47.8753 8.32617ZM54.172 6.18848V12H53.173V6.18848H54.172ZM53.0978 4.64697C53.0978 4.48584 53.1461 4.34977 53.2428 4.23877C53.3431 4.12777 53.4899 4.07227 53.6833 4.07227C53.873 4.07227 54.0181 4.12777 54.1183 4.23877C54.2222 4.34977 54.2741 4.48584 54.2741 4.64697C54.2741 4.80094 54.2222 4.93343 54.1183 5.04443C54.0181 5.15186 53.873 5.20557 53.6833 5.20557C53.4899 5.20557 53.3431 5.15186 53.2428 5.04443C53.1461 4.93343 53.0978 4.80094 53.0978 4.64697ZM56.9668 3.75V12H55.9678V3.75H56.9668ZM61.1152 6.18848V6.95117H57.9731V6.18848H61.1152ZM59.0365 4.77588H60.0302V10.5605C60.0302 10.7575 60.0606 10.9061 60.1215 11.0063C60.1824 11.1066 60.2612 11.1729 60.3578 11.2051C60.4545 11.2373 60.5584 11.2534 60.6694 11.2534C60.7517 11.2534 60.8376 11.2463 60.9272 11.2319C61.0203 11.214 61.0901 11.1997 61.1366 11.189L61.142 12C61.0632 12.0251 60.9594 12.0483 60.8305 12.0698C60.7052 12.0949 60.553 12.1074 60.3739 12.1074C60.1305 12.1074 59.9067 12.0591 59.7026 11.9624C59.4985 11.8657 59.3355 11.7046 59.2138 11.479C59.0956 11.2498 59.0365 10.9419 59.0365 10.5552V4.77588ZM62.0301 9.15869V9.03516C62.0301 8.61621 62.0909 8.2277 62.2127 7.86963C62.3344 7.50798 62.5099 7.19466 62.7391 6.92969C62.9682 6.66113 63.2457 6.45345 63.5716 6.30664C63.8974 6.15625 64.2627 6.08105 64.6673 6.08105C65.0755 6.08105 65.4425 6.15625 65.7684 6.30664C66.0978 6.45345 66.3771 6.66113 66.6062 6.92969C66.839 7.19466 67.0162 7.50798 67.138 7.86963C67.2597 8.2277 67.3206 8.61621 67.3206 9.03516V9.15869C67.3206 9.57764 67.2597 9.96615 67.138 10.3242C67.0162 10.6823 66.839 10.9956 66.6062 11.2642C66.3771 11.5291 66.0996 11.7368 65.7737 11.8872C65.4515 12.034 65.0862 12.1074 64.678 12.1074C64.2698 12.1074 63.9028 12.034 63.577 11.8872C63.2511 11.7368 62.9718 11.5291 62.7391 11.2642C62.5099 10.9956 62.3344 10.6823 62.2127 10.3242C62.0909 9.96615 62.0301 9.57764 62.0301 9.15869ZM63.0237 9.03516V9.15869C63.0237 9.44873 63.0577 9.72266 63.1258 9.98047C63.1938 10.2347 63.2959 10.4603 63.4319 10.6572C63.5716 10.8542 63.7452 11.0099 63.9529 11.1245C64.1606 11.2355 64.4023 11.291 64.678 11.291C64.9502 11.291 65.1883 11.2355 65.3924 11.1245C65.6001 11.0099 65.7719 10.8542 65.908 10.6572C66.0441 10.4603 66.1461 10.2347 66.2142 9.98047C66.2858 9.72266 66.3216 9.44873 66.3216 9.15869V9.03516C66.3216 8.7487 66.2858 8.47835 66.2142 8.22412C66.1461 7.96631 66.0423 7.73893 65.9026 7.54199C65.7666 7.34147 65.5947 7.18392 65.387 7.06934C65.1829 6.95475 64.943 6.89746 64.6673 6.89746C64.3951 6.89746 64.1552 6.95475 63.9476 7.06934C63.7435 7.18392 63.5716 7.34147 63.4319 7.54199C63.2959 7.73893 63.1938 7.96631 63.1258 8.22412C63.0577 8.47835 63.0237 8.7487 63.0237 9.03516ZM69.6803 7.4292V12H68.6867V6.18848H69.6266L69.6803 7.4292ZM69.444 8.87402L69.0304 8.85791C69.034 8.46045 69.0931 8.09342 69.2077 7.75684C69.3223 7.41667 69.4834 7.12126 69.6911 6.87061C69.8988 6.61995 70.1458 6.4266 70.4323 6.29053C70.7223 6.15088 71.0428 6.08105 71.3937 6.08105C71.6802 6.08105 71.938 6.12044 72.1672 6.19922C72.3963 6.27441 72.5915 6.39616 72.7526 6.56445C72.9173 6.73275 73.0426 6.95117 73.1286 7.21973C73.2145 7.4847 73.2575 7.80876 73.2575 8.19189V12H72.2585V8.18115C72.2585 7.87679 72.2137 7.6333 72.1242 7.45068C72.0347 7.26449 71.904 7.13021 71.7321 7.04785C71.5602 6.96191 71.349 6.91895 71.0983 6.91895C70.8512 6.91895 70.6257 6.97087 70.4216 7.07471C70.221 7.17855 70.0474 7.32178 69.9006 7.50439C69.7573 7.68701 69.6445 7.89648 69.5622 8.13281C69.4834 8.36556 69.444 8.61263 69.444 8.87402Z" fill="#262626"/>
</g>
<defs>
<clipPath id="clip0_1_35">
<rect width="74" height="16" fill="white"/>
</clipPath>
</defs>
</svg>
