<svg width="72" height="15" viewBox="0 0 72 15" fill="none" xmlns="http://www.w3.org/2000/svg">
<g clip-path="url(#clip0_1_19)">
<path d="M2.68859 5.66016V12H1.59875V5.66016H2.68859ZM1.51672 3.97852C1.51672 3.80273 1.56945 3.6543 1.67492 3.5332C1.78429 3.41211 1.94445 3.35156 2.15539 3.35156C2.36242 3.35156 2.52062 3.41211 2.63 3.5332C2.74328 3.6543 2.79992 3.80273 2.79992 3.97852C2.79992 4.14648 2.74328 4.29102 2.63 4.41211C2.52062 4.5293 2.36242 4.58789 2.15539 4.58789C1.94445 4.58789 1.78429 4.5293 1.67492 4.41211C1.56945 4.29102 1.51672 4.14648 1.51672 3.97852ZM7.20312 5.66016V6.49219H3.77539V5.66016H7.20312ZM4.93554 4.11914H6.01953V10.4297C6.01953 10.6445 6.05273 10.8066 6.11914 10.916C6.18554 11.0254 6.27148 11.0977 6.37695 11.1328C6.48242 11.168 6.5957 11.1855 6.71679 11.1855C6.80664 11.1855 6.90039 11.1777 6.99804 11.1621C7.09961 11.1426 7.17578 11.127 7.22656 11.1152L7.23242 12C7.14648 12.0273 7.0332 12.0527 6.89258 12.0762C6.75586 12.1035 6.58984 12.1172 6.39453 12.1172C6.1289 12.1172 5.88476 12.0645 5.66211 11.959C5.43945 11.8535 5.26172 11.6777 5.1289 11.4316C5 11.1816 4.93554 10.8457 4.93554 10.4238V4.11914ZM12.286 10.3184C12.286 10.1621 12.2509 10.0176 12.1805 9.88477C12.1141 9.74805 11.9755 9.625 11.7645 9.51562C11.5575 9.40234 11.245 9.30469 10.827 9.22266C10.4755 9.14844 10.1571 9.06055 9.87195 8.95898C9.5907 8.85742 9.35047 8.73438 9.15125 8.58984C8.95593 8.44531 8.80554 8.27539 8.70008 8.08008C8.59461 7.88477 8.54187 7.65625 8.54187 7.39453C8.54187 7.14453 8.59656 6.9082 8.70593 6.68555C8.81922 6.46289 8.97742 6.26562 9.18054 6.09375C9.38758 5.92188 9.63562 5.78711 9.92468 5.68945C10.2137 5.5918 10.536 5.54297 10.8915 5.54297C11.3993 5.54297 11.8329 5.63281 12.1923 5.8125C12.5516 5.99219 12.827 6.23242 13.0184 6.5332C13.2098 6.83008 13.3055 7.16016 13.3055 7.52344H12.2216C12.2216 7.34766 12.1688 7.17773 12.0634 7.01367C11.9618 6.8457 11.8114 6.70703 11.6122 6.59766C11.4169 6.48828 11.1766 6.43359 10.8915 6.43359C10.5907 6.43359 10.3466 6.48047 10.1591 6.57422C9.97547 6.66406 9.8407 6.7793 9.75476 6.91992C9.67273 7.06055 9.63172 7.20898 9.63172 7.36523C9.63172 7.48242 9.65125 7.58789 9.69031 7.68164C9.73328 7.77148 9.8075 7.85547 9.91297 7.93359C10.0184 8.00781 10.1669 8.07812 10.3583 8.14453C10.5497 8.21094 10.7938 8.27734 11.0907 8.34375C11.6102 8.46094 12.038 8.60156 12.3739 8.76562C12.7098 8.92969 12.9598 9.13086 13.1239 9.36914C13.288 9.60742 13.37 9.89648 13.37 10.2363C13.37 10.5137 13.3114 10.7676 13.1942 10.998C13.0809 11.2285 12.9149 11.4277 12.6962 11.5957C12.4813 11.7598 12.2235 11.8887 11.9227 11.9824C11.6259 12.0723 11.2919 12.1172 10.9208 12.1172C10.3622 12.1172 9.88953 12.0176 9.50281 11.8184C9.11609 11.6191 8.82312 11.3613 8.6239 11.0449C8.42468 10.7285 8.32508 10.3945 8.32508 10.043H9.41492C9.43054 10.3398 9.51648 10.5762 9.67273 10.752C9.82898 10.9238 10.0204 11.0469 10.247 11.1211C10.4735 11.1914 10.6981 11.2266 10.9208 11.2266C11.2177 11.2266 11.4657 11.1875 11.6649 11.1094C11.868 11.0312 12.0223 10.9238 12.1278 10.7871C12.2333 10.6504 12.286 10.4941 12.286 10.3184ZM18.9099 10.7695V3H19.9998V12H19.0037L18.9099 10.7695ZM14.6443 8.90039V8.77734C14.6443 8.29297 14.7029 7.85352 14.8201 7.45898C14.9412 7.06055 15.1111 6.71875 15.3298 6.43359C15.5525 6.14844 15.8162 5.92969 16.1209 5.77734C16.4295 5.62109 16.7732 5.54297 17.1521 5.54297C17.5505 5.54297 17.8982 5.61328 18.1951 5.75391C18.4959 5.89062 18.7498 6.0918 18.9568 6.35742C19.1677 6.61914 19.3337 6.93555 19.4548 7.30664C19.5759 7.67773 19.6599 8.09766 19.7068 8.56641V9.10547C19.6638 9.57031 19.5798 9.98828 19.4548 10.3594C19.3337 10.7305 19.1677 11.0469 18.9568 11.3086C18.7498 11.5703 18.4959 11.7715 18.1951 11.9121C17.8943 12.0488 17.5427 12.1172 17.1404 12.1172C16.7693 12.1172 16.4295 12.0371 16.1209 11.877C15.8162 11.7168 15.5525 11.4922 15.3298 11.2031C15.1111 10.9141 14.9412 10.5742 14.8201 10.1836C14.7029 9.78906 14.6443 9.36133 14.6443 8.90039ZM15.7341 8.77734V8.90039C15.7341 9.2168 15.7654 9.51367 15.8279 9.79102C15.8943 10.0684 15.9959 10.3125 16.1326 10.5234C16.2693 10.7344 16.4431 10.9004 16.6541 11.0215C16.865 11.1387 17.117 11.1973 17.4099 11.1973C17.7693 11.1973 18.0642 11.1211 18.2947 10.9688C18.5291 10.8164 18.7166 10.6152 18.8572 10.3652C18.9978 10.1152 19.1072 9.84375 19.1853 9.55078V8.13867C19.1384 7.92383 19.0701 7.7168 18.9802 7.51758C18.8943 7.31445 18.781 7.13477 18.6404 6.97852C18.5037 6.81836 18.3337 6.69141 18.1306 6.59766C17.9314 6.50391 17.6951 6.45703 17.4216 6.45703C17.1248 6.45703 16.8689 6.51953 16.6541 6.64453C16.4431 6.76562 16.2693 6.93359 16.1326 7.14844C15.9959 7.35938 15.8943 7.60547 15.8279 7.88672C15.7654 8.16406 15.7341 8.46094 15.7341 8.77734ZM21.5202 8.90039V8.76562C21.5202 8.30859 21.5866 7.88477 21.7194 7.49414C21.8522 7.09961 22.0436 6.75781 22.2936 6.46875C22.5436 6.17578 22.8463 5.94922 23.2018 5.78906C23.5573 5.625 23.9557 5.54297 24.3971 5.54297C24.8424 5.54297 25.2428 5.625 25.5983 5.78906C25.9577 5.94922 26.2623 6.17578 26.5123 6.46875C26.7662 6.75781 26.9596 7.09961 27.0924 7.49414C27.2252 7.88477 27.2916 8.30859 27.2916 8.76562V8.90039C27.2916 9.35742 27.2252 9.78125 27.0924 10.1719C26.9596 10.5625 26.7662 10.9043 26.5123 11.1973C26.2623 11.4863 25.9596 11.7129 25.6041 11.877C25.2526 12.0371 24.8541 12.1172 24.4088 12.1172C23.9635 12.1172 23.5631 12.0371 23.2077 11.877C22.8522 11.7129 22.5475 11.4863 22.2936 11.1973C22.0436 10.9043 21.8522 10.5625 21.7194 10.1719C21.5866 9.78125 21.5202 9.35742 21.5202 8.90039ZM22.6041 8.76562V8.90039C22.6041 9.2168 22.6412 9.51562 22.7155 9.79688C22.7897 10.0742 22.901 10.3203 23.0494 10.5352C23.2018 10.75 23.3912 10.9199 23.6178 11.0449C23.8444 11.166 24.108 11.2266 24.4088 11.2266C24.7057 11.2266 24.9655 11.166 25.1881 11.0449C25.4147 10.9199 25.6022 10.75 25.7506 10.5352C25.8991 10.3203 26.0104 10.0742 26.0846 9.79688C26.1627 9.51562 26.2018 9.2168 26.2018 8.90039V8.76562C26.2018 8.45312 26.1627 8.1582 26.0846 7.88086C26.0104 7.59961 25.8971 7.35156 25.7448 7.13672C25.5963 6.91797 25.4088 6.74609 25.1823 6.62109C24.9596 6.49609 24.6979 6.43359 24.3971 6.43359C24.1002 6.43359 23.8385 6.49609 23.6119 6.62109C23.3893 6.74609 23.2018 6.91797 23.0494 7.13672C22.901 7.35156 22.7897 7.59961 22.7155 7.88086C22.6412 8.1582 22.6041 8.45312 22.6041 8.76562ZM32.6499 10.5352V5.66016H33.7398V12H32.7027L32.6499 10.5352ZM32.855 9.19922L33.3062 9.1875C33.3062 9.60938 33.2612 10 33.1714 10.3594C33.0855 10.7148 32.9448 11.0234 32.7495 11.2852C32.5542 11.5469 32.2984 11.752 31.982 11.9004C31.6655 12.0449 31.2808 12.1172 30.8277 12.1172C30.5191 12.1172 30.2359 12.0723 29.978 11.9824C29.7241 11.8926 29.5054 11.7539 29.3218 11.5664C29.1382 11.3789 28.9956 11.1348 28.8941 10.834C28.7964 10.5332 28.7476 10.1719 28.7476 9.75V5.66016H29.8316V9.76172C29.8316 10.0469 29.8628 10.2832 29.9253 10.4707C29.9917 10.6543 30.0796 10.8008 30.189 10.9102C30.3023 11.0156 30.4273 11.0898 30.564 11.1328C30.7046 11.1758 30.8491 11.1973 30.9976 11.1973C31.4585 11.1973 31.8237 11.1094 32.0933 10.9336C32.3628 10.7539 32.5562 10.5137 32.6734 10.2129C32.7945 9.9082 32.855 9.57031 32.855 9.19922ZM39.6195 5.66016H40.6039V11.8652C40.6039 12.4238 40.4906 12.9004 40.2641 13.2949C40.0375 13.6895 39.7211 13.9883 39.3148 14.1914C38.9125 14.3984 38.4477 14.502 37.9203 14.502C37.7016 14.502 37.4437 14.4668 37.1469 14.3965C36.8539 14.3301 36.5648 14.2148 36.2797 14.0508C35.9984 13.8906 35.7621 13.6738 35.5707 13.4004L36.1391 12.7559C36.4047 13.0762 36.682 13.2988 36.9711 13.4238C37.2641 13.5488 37.5531 13.6113 37.8383 13.6113C38.182 13.6113 38.4789 13.5469 38.7289 13.418C38.9789 13.2891 39.1723 13.0977 39.309 12.8438C39.4496 12.5938 39.5199 12.2852 39.5199 11.918V7.05469L39.6195 5.66016ZM35.2543 8.90039V8.77734C35.2543 8.29297 35.3109 7.85352 35.4242 7.45898C35.5414 7.06055 35.7074 6.71875 35.9223 6.43359C36.141 6.14844 36.4047 5.92969 36.7133 5.77734C37.0219 5.62109 37.3695 5.54297 37.7562 5.54297C38.1547 5.54297 38.5023 5.61328 38.7992 5.75391C39.1 5.89062 39.3539 6.0918 39.5609 6.35742C39.7719 6.61914 39.9379 6.93555 40.059 7.30664C40.1801 7.67773 40.2641 8.09766 40.3109 8.56641V9.10547C40.268 9.57031 40.184 9.98828 40.059 10.3594C39.9379 10.7305 39.7719 11.0469 39.5609 11.3086C39.3539 11.5703 39.1 11.7715 38.7992 11.9121C38.4984 12.0488 38.1469 12.1172 37.7445 12.1172C37.3656 12.1172 37.0219 12.0371 36.7133 11.877C36.4086 11.7168 36.1469 11.4922 35.9281 11.2031C35.7094 10.9141 35.5414 10.5742 35.4242 10.1836C35.3109 9.78906 35.2543 9.36133 35.2543 8.90039ZM36.3383 8.77734V8.90039C36.3383 9.2168 36.3695 9.51367 36.432 9.79102C36.4984 10.0684 36.598 10.3125 36.7309 10.5234C36.8676 10.7344 37.0414 10.9004 37.2523 11.0215C37.4633 11.1387 37.7152 11.1973 38.0082 11.1973C38.3676 11.1973 38.6645 11.1211 38.8988 10.9688C39.1332 10.8164 39.3187 10.6152 39.4555 10.3652C39.5961 10.1152 39.7055 9.84375 39.7836 9.55078V8.13867C39.7406 7.92383 39.6742 7.7168 39.5844 7.51758C39.4984 7.31445 39.3852 7.13477 39.2445 6.97852C39.1078 6.81836 38.9379 6.69141 38.7348 6.59766C38.5316 6.50391 38.2934 6.45703 38.0199 6.45703C37.723 6.45703 37.4672 6.51953 37.2523 6.64453C37.0414 6.76562 36.8676 6.93359 36.7309 7.14844C36.598 7.35938 36.4984 7.60547 36.432 7.88672C36.3695 8.16406 36.3383 8.46094 36.3383 8.77734ZM45.0247 5.66016V6.49219H41.597V5.66016H45.0247ZM42.7571 4.11914H43.8411V10.4297C43.8411 10.6445 43.8743 10.8066 43.9407 10.916C44.0071 11.0254 44.093 11.0977 44.1985 11.1328C44.304 11.168 44.4173 11.1855 44.5384 11.1855C44.6282 11.1855 44.722 11.1777 44.8196 11.1621C44.9212 11.1426 44.9973 11.127 45.0481 11.1152L45.054 12C44.968 12.0273 44.8548 12.0527 44.7141 12.0762C44.5774 12.1035 44.4114 12.1172 44.2161 12.1172C43.9505 12.1172 43.7063 12.0645 43.4837 11.959C43.261 11.8535 43.0833 11.6777 42.9505 11.4316C42.8216 11.1816 42.7571 10.8457 42.7571 10.4238V4.11914ZM47.5002 3V12H46.4162V3H47.5002ZM47.2423 8.58984L46.7912 8.57227C46.7951 8.13867 46.8595 7.73828 46.9845 7.37109C47.1095 7 47.2853 6.67773 47.5119 6.4043C47.7384 6.13086 48.008 5.91992 48.3205 5.77148C48.6369 5.61914 48.9865 5.54297 49.3693 5.54297C49.6818 5.54297 49.963 5.58594 50.213 5.67188C50.463 5.75391 50.6759 5.88672 50.8517 6.07031C51.0314 6.25391 51.1681 6.49219 51.2619 6.78516C51.3556 7.07422 51.4025 7.42773 51.4025 7.8457V12H50.3127V7.83398C50.3127 7.50195 50.2638 7.23633 50.1662 7.03711C50.0685 6.83398 49.9259 6.6875 49.7384 6.59766C49.5509 6.50391 49.3205 6.45703 49.047 6.45703C48.7775 6.45703 48.5314 6.51367 48.3087 6.62695C48.09 6.74023 47.9005 6.89648 47.7404 7.0957C47.5841 7.29492 47.4611 7.52344 47.3712 7.78125C47.2853 8.03516 47.2423 8.30469 47.2423 8.58984ZM55.7764 12.1172C55.335 12.1172 54.9346 12.043 54.5752 11.8945C54.2198 11.7422 53.9131 11.5293 53.6553 11.2559C53.4014 10.9824 53.2061 10.6582 53.0694 10.2832C52.9327 9.9082 52.8643 9.49805 52.8643 9.05273V8.80664C52.8643 8.29102 52.9405 7.83203 53.0928 7.42969C53.2452 7.02344 53.4522 6.67969 53.7139 6.39844C53.9756 6.11719 54.2725 5.9043 54.6045 5.75977C54.9366 5.61523 55.2803 5.54297 55.6358 5.54297C56.0889 5.54297 56.4795 5.62109 56.8077 5.77734C57.1397 5.93359 57.4112 6.15234 57.6221 6.43359C57.833 6.71094 57.9893 7.03906 58.0909 7.41797C58.1924 7.79297 58.2432 8.20312 58.2432 8.64844V9.13477H53.5088V8.25H57.1592V8.16797C57.1436 7.88672 57.085 7.61328 56.9834 7.34766C56.8858 7.08203 56.7295 6.86328 56.5147 6.69141C56.2998 6.51953 56.0069 6.43359 55.6358 6.43359C55.3897 6.43359 55.1631 6.48633 54.9561 6.5918C54.7491 6.69336 54.5713 6.8457 54.4229 7.04883C54.2745 7.25195 54.1592 7.5 54.0772 7.79297C53.9952 8.08594 53.9541 8.42383 53.9541 8.80664V9.05273C53.9541 9.35352 53.9952 9.63672 54.0772 9.90234C54.1631 10.1641 54.2862 10.3945 54.4463 10.5938C54.6104 10.793 54.8077 10.9492 55.0381 11.0625C55.2725 11.1758 55.5381 11.2324 55.835 11.2324C56.2178 11.2324 56.542 11.1543 56.8077 10.998C57.0733 10.8418 57.3057 10.6328 57.5049 10.3711L58.1612 10.8926C58.0245 11.0996 57.8506 11.2969 57.6397 11.4844C57.4287 11.6719 57.169 11.8242 56.8604 11.9414C56.5557 12.0586 56.1944 12.1172 55.7764 12.1172ZM60.7128 6.87891V14.4375H59.623V5.66016H60.6191L60.7128 6.87891ZM64.9843 8.77734V8.90039C64.9843 9.36133 64.9296 9.78906 64.8202 10.1836C64.7109 10.5742 64.5507 10.9141 64.3398 11.2031C64.1327 11.4922 63.8769 11.7168 63.5722 11.877C63.2675 12.0371 62.9179 12.1172 62.5234 12.1172C62.121 12.1172 61.7655 12.0508 61.457 11.918C61.1484 11.7852 60.8866 11.5918 60.6718 11.3379C60.457 11.084 60.2851 10.7793 60.1562 10.4238C60.0312 10.0684 59.9452 9.66797 59.8984 9.22266V8.56641C59.9452 8.09766 60.0331 7.67773 60.162 7.30664C60.2909 6.93555 60.4609 6.61914 60.6718 6.35742C60.8866 6.0918 61.1464 5.89062 61.4511 5.75391C61.7558 5.61328 62.1073 5.54297 62.5058 5.54297C62.9042 5.54297 63.2577 5.62109 63.5663 5.77734C63.8749 5.92969 64.1347 6.14844 64.3456 6.43359C64.5566 6.71875 64.7148 7.06055 64.8202 7.45898C64.9296 7.85352 64.9843 8.29297 64.9843 8.77734ZM63.8945 8.90039V8.77734C63.8945 8.46094 63.8612 8.16406 63.7948 7.88672C63.7284 7.60547 63.6249 7.35938 63.4843 7.14844C63.3476 6.93359 63.1718 6.76562 62.957 6.64453C62.7421 6.51953 62.4862 6.45703 62.1894 6.45703C61.9159 6.45703 61.6777 6.50391 61.4745 6.59766C61.2753 6.69141 61.1054 6.81836 60.9648 6.97852C60.8241 7.13477 60.7089 7.31445 60.6191 7.51758C60.5331 7.7168 60.4687 7.92383 60.4257 8.13867V9.65625C60.5038 9.92969 60.6132 10.1875 60.7538 10.4297C60.8945 10.668 61.082 10.8613 61.3163 11.0098C61.5507 11.1543 61.8456 11.2266 62.2011 11.2266C62.4941 11.2266 62.746 11.166 62.957 11.0449C63.1718 10.9199 63.3476 10.75 63.4843 10.5352C63.6249 10.3203 63.7284 10.0742 63.7948 9.79688C63.8612 9.51562 63.8945 9.2168 63.8945 8.90039ZM70.366 10.5352V5.66016H71.4559V12H70.4187L70.366 10.5352ZM70.5711 9.19922L71.0223 9.1875C71.0223 9.60938 70.9773 10 70.8875 10.3594C70.8016 10.7148 70.6609 11.0234 70.4656 11.2852C70.2703 11.5469 70.0145 11.752 69.698 11.9004C69.3816 12.0449 68.9969 12.1172 68.5437 12.1172C68.2352 12.1172 67.952 12.0723 67.6941 11.9824C67.4402 11.8926 67.2215 11.7539 67.0379 11.5664C66.8543 11.3789 66.7117 11.1348 66.6102 10.834C66.5125 10.5332 66.4637 10.1719 66.4637 9.75V5.66016H67.5477V9.76172C67.5477 10.0469 67.5789 10.2832 67.6414 10.4707C67.7078 10.6543 67.7957 10.8008 67.9051 10.9102C68.0184 11.0156 68.1434 11.0898 68.2801 11.1328C68.4207 11.1758 68.5652 11.1973 68.7137 11.1973C69.1746 11.1973 69.5398 11.1094 69.8094 10.9336C70.0789 10.7539 70.2723 10.5137 70.3895 10.2129C70.5105 9.9082 70.5711 9.57031 70.5711 9.19922ZM77.3356 5.66016H78.32V11.8652C78.32 12.4238 78.2067 12.9004 77.9802 13.2949C77.7536 13.6895 77.4372 13.9883 77.0309 14.1914C76.6286 14.3984 76.1637 14.502 75.6364 14.502C75.4177 14.502 75.1598 14.4668 74.863 14.3965C74.57 14.3301 74.2809 14.2148 73.9958 14.0508C73.7145 13.8906 73.4782 13.6738 73.2868 13.4004L73.8552 12.7559C74.1208 13.0762 74.3981 13.2988 74.6872 13.4238C74.9802 13.5488 75.2692 13.6113 75.5544 13.6113C75.8981 13.6113 76.195 13.5469 76.445 13.418C76.695 13.2891 76.8884 13.0977 77.0251 12.8438C77.1657 12.5938 77.236 12.2852 77.236 11.918V7.05469L77.3356 5.66016ZM72.9704 8.90039V8.77734C72.9704 8.29297 73.027 7.85352 73.1403 7.45898C73.2575 7.06055 73.4235 6.71875 73.6384 6.43359C73.8571 6.14844 74.1208 5.92969 74.4294 5.77734C74.738 5.62109 75.0856 5.54297 75.4723 5.54297C75.8708 5.54297 76.2184 5.61328 76.5153 5.75391C76.8161 5.89062 77.07 6.0918 77.277 6.35742C77.488 6.61914 77.654 6.93555 77.7751 7.30664C77.8962 7.67773 77.9802 8.09766 78.027 8.56641V9.10547C77.9841 9.57031 77.9001 9.98828 77.7751 10.3594C77.654 10.7305 77.488 11.0469 77.277 11.3086C77.07 11.5703 76.8161 11.7715 76.5153 11.9121C76.2145 12.0488 75.863 12.1172 75.4606 12.1172C75.0817 12.1172 74.738 12.0371 74.4294 11.877C74.1247 11.7168 73.863 11.4922 73.6442 11.2031C73.4255 10.9141 73.2575 10.5742 73.1403 10.1836C73.027 9.78906 72.9704 9.36133 72.9704 8.90039ZM74.0544 8.77734V8.90039C74.0544 9.2168 74.0856 9.51367 74.1481 9.79102C74.2145 10.0684 74.3141 10.3125 74.447 10.5234C74.5837 10.7344 74.7575 10.9004 74.9684 11.0215C75.1794 11.1387 75.4313 11.1973 75.7243 11.1973C76.0837 11.1973 76.3805 11.1211 76.6149 10.9688C76.8493 10.8164 77.0348 10.6152 77.1716 10.3652C77.3122 10.1152 77.4216 9.84375 77.4997 9.55078V8.13867C77.4567 7.92383 77.3903 7.7168 77.3005 7.51758C77.2145 7.31445 77.1012 7.13477 76.9606 6.97852C76.8239 6.81836 76.654 6.69141 76.4509 6.59766C76.2477 6.50391 76.0095 6.45703 75.736 6.45703C75.4391 6.45703 75.1833 6.51953 74.9684 6.64453C74.7575 6.76562 74.5837 6.93359 74.447 7.14844C74.3141 7.35938 74.2145 7.60547 74.1481 7.88672C74.0856 8.16406 74.0544 8.46094 74.0544 8.77734Z" fill="#262626"/>
</g>
<defs>
<clipPath id="clip0_1_19">
<rect width="74" height="16" fill="white" transform="translate(-2)"/>
</clipPath>
</defs>
</svg>
