<svg width="60" height="15" viewBox="0 0 60 15" fill="none" xmlns="http://www.w3.org/2000/svg">
<path d="M5.92186 10.9688L7.41502 6.18848H8.07029L7.94139 7.13916L6.42137 12H5.78221L5.92186 10.9688ZM4.91746 6.18848L6.19041 11.0225L6.28172 12H5.61033L3.92381 6.18848H4.91746ZM9.499 10.9849L10.7129 6.18848H11.7012L10.0146 12H9.34861L9.499 10.9849ZM8.21531 6.18848L9.67625 10.8882L9.84275 12H9.20897L7.64598 7.12842L7.51707 6.18848H8.21531ZM16.2684 11.0063V8.01465C16.2684 7.78548 16.2219 7.58675 16.1288 7.41846C16.0393 7.24658 15.9032 7.1141 15.7206 7.021C15.5379 6.9279 15.3124 6.88135 15.0438 6.88135C14.7932 6.88135 14.5729 6.92432 14.3832 7.01025C14.197 7.09619 14.0502 7.20898 13.9427 7.34863C13.8389 7.48828 13.787 7.63867 13.787 7.7998H12.7933C12.7933 7.59212 12.847 7.38623 12.9545 7.18213C13.0619 6.97803 13.2158 6.79362 13.4164 6.62891C13.6205 6.46061 13.864 6.32812 14.1468 6.23145C14.4333 6.13118 14.752 6.08105 15.1029 6.08105C15.5254 6.08105 15.8978 6.15267 16.2201 6.2959C16.5459 6.43913 16.8002 6.65576 16.9828 6.9458C17.169 7.23226 17.2621 7.59212 17.2621 8.02539V10.7324C17.2621 10.9258 17.2782 11.1317 17.3104 11.3501C17.3462 11.5685 17.3981 11.7565 17.4662 11.9141V12H16.4296C16.3794 11.8854 16.34 11.7332 16.3114 11.5435C16.2827 11.3501 16.2684 11.1711 16.2684 11.0063ZM16.4403 8.47656L16.451 9.1748H15.4466C15.1638 9.1748 14.9113 9.19808 14.6893 9.24463C14.4673 9.2876 14.2811 9.35384 14.1307 9.44336C13.9803 9.53288 13.8657 9.64567 13.787 9.78174C13.7082 9.91423 13.6688 10.07 13.6688 10.249C13.6688 10.4316 13.71 10.5981 13.7923 10.7485C13.8747 10.8989 13.9982 11.0189 14.1629 11.1084C14.3312 11.1943 14.5371 11.2373 14.7806 11.2373C15.085 11.2373 15.3535 11.1729 15.5863 11.0439C15.819 10.915 16.0034 10.7575 16.1395 10.5713C16.2792 10.3851 16.3544 10.2043 16.3651 10.0288L16.7894 10.5068C16.7643 10.6572 16.6963 10.8237 16.5853 11.0063C16.4743 11.189 16.3257 11.3644 16.1395 11.5327C15.9569 11.6974 15.7385 11.8353 15.4842 11.9463C15.2336 12.0537 14.9507 12.1074 14.6356 12.1074C14.2417 12.1074 13.8962 12.0304 13.599 11.8765C13.3054 11.7225 13.0762 11.5166 12.9115 11.2588C12.7504 10.9974 12.6698 10.7056 12.6698 10.3833C12.6698 10.0718 12.7307 9.79785 12.8524 9.56152C12.9741 9.32161 13.1496 9.12288 13.3788 8.96533C13.6079 8.8042 13.8837 8.68245 14.2059 8.6001C14.5282 8.51774 14.888 8.47656 15.2855 8.47656H16.4403ZM19.9387 3.75V12H18.9451V3.75H19.9387ZM19.7024 8.87402L19.2888 8.85791C19.2924 8.46045 19.3515 8.09342 19.4661 7.75684C19.5806 7.41667 19.7418 7.12126 19.9495 6.87061C20.1571 6.61995 20.4042 6.4266 20.6907 6.29053C20.9807 6.15088 21.3012 6.08105 21.6521 6.08105C21.9385 6.08105 22.1964 6.12044 22.4255 6.19922C22.6547 6.27441 22.8498 6.39616 23.011 6.56445C23.1757 6.73275 23.301 6.95117 23.387 7.21973C23.4729 7.4847 23.5159 7.80876 23.5159 8.19189V12H22.5168V8.18115C22.5168 7.87679 22.4721 7.6333 22.3826 7.45068C22.293 7.26449 22.1623 7.13021 21.9905 7.04785C21.8186 6.96191 21.6073 6.91895 21.3567 6.91895C21.1096 6.91895 20.884 6.97087 20.6799 7.07471C20.4794 7.17855 20.3057 7.32178 20.1589 7.50439C20.0157 7.68701 19.9029 7.89648 19.8205 8.13281C19.7418 8.36556 19.7024 8.61263 19.7024 8.87402ZM28.5504 11.0063V8.01465C28.5504 7.78548 28.5039 7.58675 28.4108 7.41846C28.3212 7.24658 28.1852 7.1141 28.0026 7.021C27.8199 6.9279 27.5944 6.88135 27.3258 6.88135C27.0752 6.88135 26.8549 6.92432 26.6652 7.01025C26.479 7.09619 26.3321 7.20898 26.2247 7.34863C26.1209 7.48828 26.069 7.63867 26.069 7.7998H25.0753C25.0753 7.59212 25.129 7.38623 25.2364 7.18213C25.3439 6.97803 25.4978 6.79362 25.6984 6.62891C25.9025 6.46061 26.146 6.32812 26.4288 6.23145C26.7153 6.13118 27.034 6.08105 27.3849 6.08105C27.8074 6.08105 28.1798 6.15267 28.5021 6.2959C28.8279 6.43913 29.0821 6.65576 29.2648 6.9458C29.451 7.23226 29.5441 7.59212 29.5441 8.02539V10.7324C29.5441 10.9258 29.5602 11.1317 29.5924 11.3501C29.6282 11.5685 29.6801 11.7565 29.7482 11.9141V12H28.7115C28.6614 11.8854 28.622 11.7332 28.5934 11.5435C28.5647 11.3501 28.5504 11.1711 28.5504 11.0063ZM28.7223 8.47656L28.733 9.1748H27.7286C27.4458 9.1748 27.1933 9.19808 26.9713 9.24463C26.7493 9.2876 26.5631 9.35384 26.4127 9.44336C26.2623 9.53288 26.1477 9.64567 26.069 9.78174C25.9902 9.91423 25.9508 10.07 25.9508 10.249C25.9508 10.4316 25.992 10.5981 26.0743 10.7485C26.1567 10.8989 26.2802 11.0189 26.4449 11.1084C26.6132 11.1943 26.8191 11.2373 27.0626 11.2373C27.367 11.2373 27.6355 11.1729 27.8683 11.0439C28.101 10.915 28.2854 10.7575 28.4215 10.5713C28.5612 10.3851 28.6363 10.2043 28.6471 10.0288L29.0714 10.5068C29.0463 10.6572 28.9783 10.8237 28.8673 11.0063C28.7563 11.189 28.6077 11.3644 28.4215 11.5327C28.2389 11.6974 28.0205 11.8353 27.7662 11.9463C27.5156 12.0537 27.2327 12.1074 26.9176 12.1074C26.5237 12.1074 26.1782 12.0304 25.881 11.8765C25.5874 11.7225 25.3582 11.5166 25.1935 11.2588C25.0323 10.9974 24.9518 10.7056 24.9518 10.3833C24.9518 10.0718 25.0127 9.79785 25.1344 9.56152C25.2561 9.32161 25.4316 9.12288 25.6608 8.96533C25.8899 8.8042 26.1656 8.68245 26.4879 8.6001C26.8102 8.51774 27.17 8.47656 27.5675 8.47656H28.7223ZM31.2217 3.75H32.2207V10.8721L32.1348 12H31.2217V3.75ZM36.147 9.0459V9.15869C36.147 9.58122 36.0968 9.97331 35.9966 10.335C35.8963 10.693 35.7495 11.0046 35.5562 11.2695C35.3628 11.5345 35.1265 11.7404 34.8472 11.8872C34.5679 12.034 34.2474 12.1074 33.8857 12.1074C33.5169 12.1074 33.1929 12.0448 32.9136 11.9194C32.6379 11.7905 32.4051 11.6061 32.2153 11.3662C32.0256 11.1263 31.8734 10.8363 31.7588 10.4961C31.6478 10.1559 31.5708 9.77279 31.5278 9.34668V8.85254C31.5708 8.42285 31.6478 8.03792 31.7588 7.69775C31.8734 7.35758 32.0256 7.06755 32.2153 6.82764C32.4051 6.58415 32.6379 6.39974 32.9136 6.27441C33.1893 6.14551 33.5098 6.08105 33.875 6.08105C34.2402 6.08105 34.5643 6.15267 34.8472 6.2959C35.13 6.43555 35.3664 6.63607 35.5562 6.89746C35.7495 7.15885 35.8963 7.47217 35.9966 7.8374C36.0968 8.19906 36.147 8.60189 36.147 9.0459ZM35.1479 9.15869V9.0459C35.1479 8.75586 35.1211 8.48372 35.0674 8.22949C35.0137 7.97168 34.9277 7.74609 34.8096 7.55273C34.6914 7.35579 34.5356 7.20182 34.3423 7.09082C34.1489 6.97624 33.9108 6.91895 33.6279 6.91895C33.3773 6.91895 33.1589 6.96191 32.9727 7.04785C32.79 7.13379 32.6343 7.25016 32.5054 7.39697C32.3765 7.5402 32.2708 7.70492 32.1885 7.89111C32.1097 8.07373 32.0506 8.26351 32.0112 8.46045V9.75488C32.0685 10.0055 32.1616 10.2472 32.2905 10.48C32.423 10.7091 32.5985 10.8971 32.8169 11.0439C33.0389 11.1908 33.3128 11.2642 33.6387 11.2642C33.9072 11.2642 34.1364 11.2104 34.3262 11.103C34.5195 10.992 34.6753 10.8398 34.7935 10.6465C34.9152 10.4531 35.0047 10.2293 35.062 9.9751C35.1193 9.72087 35.1479 9.44873 35.1479 9.15869ZM37.5399 11.4736C37.5399 11.3053 37.5918 11.1639 37.6957 11.0493C37.8031 10.9312 37.9571 10.8721 38.1576 10.8721C38.3581 10.8721 38.5103 10.9312 38.6141 11.0493C38.7216 11.1639 38.7753 11.3053 38.7753 11.4736C38.7753 11.6383 38.7216 11.778 38.6141 11.8926C38.5103 12.0072 38.3581 12.0645 38.1576 12.0645C37.9571 12.0645 37.8031 12.0072 37.6957 11.8926C37.5918 11.778 37.5399 11.6383 37.5399 11.4736ZM41.2156 6.18848L42.4885 8.30469L43.7776 6.18848H44.9431L43.0418 9.05664L45.0022 12H43.8528L42.51 9.81934L41.1672 12H40.0125L41.9675 9.05664L40.0715 6.18848H41.2156ZM47.754 11.3984L49.3707 6.18848H50.4342L48.1032 12.897C48.0495 13.0402 47.9778 13.1942 47.8883 13.3589C47.8024 13.5272 47.6914 13.6865 47.5553 13.8369C47.4192 13.9873 47.2545 14.109 47.0612 14.2021C46.8714 14.2988 46.644 14.3472 46.379 14.3472C46.3003 14.3472 46.2 14.3364 46.0783 14.3149C45.9565 14.2935 45.8706 14.2756 45.8204 14.2612L45.8151 13.4556C45.8437 13.4591 45.8885 13.4627 45.9494 13.4663C46.0138 13.4735 46.0586 13.4771 46.0836 13.4771C46.3092 13.4771 46.5008 13.4466 46.6583 13.3857C46.8159 13.3285 46.9484 13.23 47.0558 13.0903C47.1668 12.9543 47.2617 12.7663 47.3405 12.5264L47.754 11.3984ZM46.567 6.18848L48.0763 10.7002L48.3341 11.7476L47.6198 12.1128L45.4821 6.18848H46.567ZM55.7803 11.1836V12H51.5532V11.1836H55.7803ZM55.6245 6.89209L51.7788 12H51.1719V11.2695L54.9907 6.18848H55.6245V6.89209ZM55.1841 6.18848V7.01025H51.2149V6.18848H55.1841Z" fill="#8E8E8E"/>
</svg>
