<svg width="36" height="10" viewBox="0 0 36 10" fill="none" xmlns="http://www.w3.org/2000/svg">
<path d="M1.37914 3.91992V9H0.289297V2.66016H1.32055L1.37914 3.91992ZM1.15648 5.58984L0.652578 5.57227C0.656485 5.13867 0.713125 4.73828 0.8225 4.37109C0.931875 4 1.09398 3.67773 1.30883 3.4043C1.52367 3.13086 1.79125 2.91992 2.11156 2.77148C2.43188 2.61914 2.80297 2.54297 3.22484 2.54297C3.52172 2.54297 3.79516 2.58594 4.04516 2.67188C4.29516 2.75391 4.51195 2.88477 4.69555 3.06445C4.87914 3.24414 5.02172 3.47461 5.12328 3.75586C5.22484 4.03711 5.27563 4.37695 5.27563 4.77539V9H4.19164V4.82812C4.19164 4.49609 4.135 4.23047 4.02172 4.03125C3.91234 3.83203 3.75609 3.6875 3.55297 3.59766C3.34984 3.50391 3.11156 3.45703 2.83813 3.45703C2.51781 3.45703 2.25023 3.51367 2.03539 3.62695C1.82055 3.74023 1.64867 3.89648 1.51977 4.0957C1.39086 4.29492 1.29711 4.52344 1.23852 4.78125C1.18383 5.03516 1.15648 5.30469 1.15648 5.58984ZM5.26391 4.99219L4.53734 5.21484C4.54125 4.86719 4.59789 4.5332 4.70727 4.21289C4.82055 3.89258 4.98266 3.60742 5.19359 3.35742C5.40844 3.10742 5.67211 2.91016 5.98461 2.76562C6.29711 2.61719 6.65453 2.54297 7.05688 2.54297C7.39672 2.54297 7.6975 2.58789 7.95922 2.67773C8.22484 2.76758 8.4475 2.90625 8.62719 3.09375C8.81078 3.27734 8.94945 3.51367 9.0432 3.80273C9.13695 4.0918 9.18383 4.43555 9.18383 4.83398V9H8.09398V4.82227C8.09398 4.4668 8.03734 4.19141 7.92406 3.99609C7.81469 3.79688 7.65844 3.6582 7.45531 3.58008C7.25609 3.49805 7.01781 3.45703 6.74047 3.45703C6.50219 3.45703 6.29125 3.49805 6.10766 3.58008C5.92406 3.66211 5.76977 3.77539 5.64477 3.91992C5.51977 4.06055 5.42406 4.22266 5.35766 4.40625C5.29516 4.58984 5.26391 4.78516 5.26391 4.99219ZM12.0343 0V9H10.9445V0H12.0343ZM15.9073 2.66016L13.1417 5.61914L11.5948 7.22461L11.507 6.07031L12.6144 4.74609L14.5831 2.66016H15.9073ZM14.9171 9L12.6554 5.97656L13.2179 5.00977L16.1945 9H14.9171ZM17.1406 0H18.2305V7.76953L18.1367 9H17.1406V0ZM22.5137 5.77734V5.90039C22.5137 6.36133 22.459 6.78906 22.3496 7.18359C22.2402 7.57422 22.0801 7.91406 21.8691 8.20312C21.6582 8.49219 21.4004 8.7168 21.0957 8.87695C20.791 9.03711 20.4414 9.11719 20.0469 9.11719C19.6445 9.11719 19.291 9.04883 18.9863 8.91211C18.6855 8.77148 18.4316 8.57031 18.2246 8.30859C18.0176 8.04688 17.8516 7.73047 17.7266 7.35938C17.6055 6.98828 17.5215 6.57031 17.4746 6.10547V5.56641C17.5215 5.09766 17.6055 4.67773 17.7266 4.30664C17.8516 3.93555 18.0176 3.61914 18.2246 3.35742C18.4316 3.0918 18.6855 2.89062 18.9863 2.75391C19.2871 2.61328 19.6367 2.54297 20.0352 2.54297C20.4336 2.54297 20.7871 2.62109 21.0957 2.77734C21.4043 2.92969 21.6621 3.14844 21.8691 3.43359C22.0801 3.71875 22.2402 4.06055 22.3496 4.45898C22.459 4.85352 22.5137 5.29297 22.5137 5.77734ZM21.4238 5.90039V5.77734C21.4238 5.46094 21.3945 5.16406 21.3359 4.88672C21.2773 4.60547 21.1836 4.35938 21.0547 4.14844C20.9258 3.93359 20.7559 3.76562 20.5449 3.64453C20.334 3.51953 20.0742 3.45703 19.7656 3.45703C19.4922 3.45703 19.2539 3.50391 19.0508 3.59766C18.8516 3.69141 18.6816 3.81836 18.541 3.97852C18.4004 4.13477 18.2852 4.31445 18.1953 4.51758C18.1094 4.7168 18.0449 4.92383 18.002 5.13867V6.55078C18.0645 6.82422 18.166 7.08789 18.3066 7.3418C18.4512 7.5918 18.6426 7.79688 18.8809 7.95703C19.123 8.11719 19.4219 8.19727 19.7773 8.19727C20.0703 8.19727 20.3203 8.13867 20.5273 8.02148C20.7383 7.90039 20.9082 7.73438 21.0371 7.52344C21.1699 7.3125 21.2676 7.06836 21.3301 6.79102C21.3926 6.51367 21.4238 6.2168 21.4238 5.90039ZM25.0888 0V9H24.0048V0H25.0888ZM24.8309 5.58984L24.3798 5.57227C24.3837 5.13867 24.4481 4.73828 24.5731 4.37109C24.6981 4 24.8739 3.67773 25.1005 3.4043C25.327 3.13086 25.5966 2.91992 25.9091 2.77148C26.2255 2.61914 26.5751 2.54297 26.9579 2.54297C27.2704 2.54297 27.5516 2.58594 27.8016 2.67188C28.0516 2.75391 28.2645 2.88672 28.4403 3.07031C28.62 3.25391 28.7567 3.49219 28.8505 3.78516C28.9442 4.07422 28.9911 4.42773 28.9911 4.8457V9H27.9013V4.83398C27.9013 4.50195 27.8524 4.23633 27.7548 4.03711C27.6571 3.83398 27.5145 3.6875 27.327 3.59766C27.1395 3.50391 26.9091 3.45703 26.6356 3.45703C26.3661 3.45703 26.12 3.51367 25.8973 3.62695C25.6786 3.74023 25.4891 3.89648 25.329 4.0957C25.1727 4.29492 25.0497 4.52344 24.9598 4.78125C24.8739 5.03516 24.8309 5.30469 24.8309 5.58984ZM34.7302 7.76953V0H35.8201V9H34.824L34.7302 7.76953ZM30.4646 5.90039V5.77734C30.4646 5.29297 30.5232 4.85352 30.6404 4.45898C30.7615 4.06055 30.9314 3.71875 31.1502 3.43359C31.3728 3.14844 31.6365 2.92969 31.9412 2.77734C32.2498 2.62109 32.5935 2.54297 32.9724 2.54297C33.3709 2.54297 33.7185 2.61328 34.0154 2.75391C34.3162 2.89062 34.5701 3.0918 34.7771 3.35742C34.988 3.61914 35.1541 3.93555 35.2752 4.30664C35.3962 4.67773 35.4802 5.09766 35.5271 5.56641V6.10547C35.4841 6.57031 35.4002 6.98828 35.2752 7.35938C35.1541 7.73047 34.988 8.04688 34.7771 8.30859C34.5701 8.57031 34.3162 8.77148 34.0154 8.91211C33.7146 9.04883 33.363 9.11719 32.9607 9.11719C32.5896 9.11719 32.2498 9.03711 31.9412 8.87695C31.6365 8.7168 31.3728 8.49219 31.1502 8.20312C30.9314 7.91406 30.7615 7.57422 30.6404 7.18359C30.5232 6.78906 30.4646 6.36133 30.4646 5.90039ZM31.5545 5.77734V5.90039C31.5545 6.2168 31.5857 6.51367 31.6482 6.79102C31.7146 7.06836 31.8162 7.3125 31.9529 7.52344C32.0896 7.73438 32.2634 7.90039 32.4744 8.02148C32.6853 8.13867 32.9373 8.19727 33.2302 8.19727C33.5896 8.19727 33.8845 8.12109 34.115 7.96875C34.3494 7.81641 34.5369 7.61523 34.6775 7.36523C34.8181 7.11523 34.9275 6.84375 35.0056 6.55078V5.13867C34.9587 4.92383 34.8904 4.7168 34.8005 4.51758C34.7146 4.31445 34.6013 4.13477 34.4607 3.97852C34.324 3.81836 34.1541 3.69141 33.9509 3.59766C33.7517 3.50391 33.5154 3.45703 33.242 3.45703C32.9451 3.45703 32.6892 3.51953 32.4744 3.64453C32.2634 3.76562 32.0896 3.93359 31.9529 4.14844C31.8162 4.35938 31.7146 4.60547 31.6482 4.88672C31.5857 5.16406 31.5545 5.46094 31.5545 5.77734Z" fill="#8E8E8E"/>
</svg>
