<svg width="58" height="15" viewBox="0 0 58 15" fill="none" xmlns="http://www.w3.org/2000/svg">
<path d="M7.99852 10.8721V3.75H8.99754V12H8.08445L7.99852 10.8721ZM4.08836 9.15869V9.0459C4.08836 8.60189 4.14207 8.19906 4.24949 7.8374C4.3605 7.47217 4.51626 7.15885 4.71678 6.89746C4.92088 6.63607 5.16258 6.43555 5.44188 6.2959C5.72475 6.15267 6.03986 6.08105 6.38719 6.08105C6.75242 6.08105 7.07111 6.14551 7.34324 6.27441C7.61896 6.39974 7.85171 6.58415 8.04148 6.82764C8.23484 7.06755 8.38703 7.35758 8.49803 7.69775C8.60903 8.03792 8.68602 8.42285 8.72898 8.85254V9.34668C8.6896 9.77279 8.61261 10.1559 8.49803 10.4961C8.38703 10.8363 8.23484 11.1263 8.04148 11.3662C7.85171 11.6061 7.61896 11.7905 7.34324 11.9194C7.06753 12.0448 6.74526 12.1074 6.37645 12.1074C6.03628 12.1074 5.72475 12.034 5.44188 11.8872C5.16258 11.7404 4.92088 11.5345 4.71678 11.2695C4.51626 11.0046 4.3605 10.693 4.24949 10.335C4.14207 9.97331 4.08836 9.58122 4.08836 9.15869ZM5.08738 9.0459V9.15869C5.08738 9.44873 5.11603 9.72087 5.17332 9.9751C5.23419 10.2293 5.32729 10.4531 5.45262 10.6465C5.57794 10.8398 5.73729 10.992 5.93064 11.103C6.124 11.2104 6.35496 11.2642 6.62352 11.2642C6.95294 11.2642 7.22329 11.1943 7.43455 11.0547C7.64939 10.915 7.82127 10.7306 7.95018 10.5015C8.07908 10.2723 8.17934 10.0234 8.25096 9.75488V8.46045C8.20799 8.26351 8.14533 8.07373 8.06297 7.89111C7.98419 7.70492 7.88035 7.5402 7.75145 7.39697C7.62612 7.25016 7.47036 7.13379 7.28416 7.04785C7.10154 6.96191 6.88491 6.91895 6.63426 6.91895C6.36212 6.91895 6.12759 6.97624 5.93064 7.09082C5.73729 7.20182 5.57794 7.35579 5.45262 7.55273C5.32729 7.74609 5.23419 7.97168 5.17332 8.22949C5.11603 8.48372 5.08738 8.75586 5.08738 9.0459ZM13.076 12.1074C12.6714 12.1074 12.3044 12.0394 11.975 11.9033C11.6491 11.7637 11.368 11.5685 11.1317 11.3179C10.899 11.0672 10.7199 10.77 10.5946 10.4263C10.4693 10.0825 10.4066 9.70654 10.4066 9.29834V9.07275C10.4066 8.6001 10.4764 8.17936 10.6161 7.81055C10.7557 7.43815 10.9455 7.12305 11.1854 6.86523C11.4253 6.60742 11.6975 6.41227 12.0018 6.27979C12.3062 6.1473 12.6213 6.08105 12.9471 6.08105C13.3625 6.08105 13.7206 6.15267 14.0213 6.2959C14.3257 6.43913 14.5746 6.63965 14.7679 6.89746C14.9613 7.15169 15.1045 7.45247 15.1976 7.7998C15.2907 8.14355 15.3373 8.51953 15.3373 8.92773V9.37354H10.9974V8.5625H14.3436V8.4873C14.3293 8.22949 14.2756 7.97884 14.1825 7.73535C14.093 7.49186 13.9497 7.29134 13.7528 7.13379C13.5559 6.97624 13.2873 6.89746 12.9471 6.89746C12.7215 6.89746 12.5139 6.9458 12.3241 7.04248C12.1343 7.13558 11.9714 7.27523 11.8353 7.46143C11.6992 7.64762 11.5936 7.875 11.5184 8.14355C11.4432 8.41211 11.4056 8.72184 11.4056 9.07275V9.29834C11.4056 9.57406 11.4432 9.83366 11.5184 10.0771C11.5972 10.3171 11.71 10.5283 11.8568 10.7109C12.0072 10.8936 12.188 11.0368 12.3993 11.1406C12.6141 11.2445 12.8576 11.2964 13.1297 11.2964C13.4807 11.2964 13.7779 11.2248 14.0213 11.0815C14.2648 10.9383 14.4779 10.7467 14.6605 10.5068L15.2621 10.9849C15.1367 11.1746 14.9774 11.3555 14.784 11.5273C14.5907 11.6992 14.3526 11.8389 14.0697 11.9463C13.7904 12.0537 13.4592 12.1074 13.076 12.1074ZM18.0998 12H17.1062V5.57617C17.1062 5.15723 17.1814 4.80452 17.3318 4.51807C17.4857 4.22803 17.706 4.0096 17.9924 3.86279C18.2789 3.7124 18.619 3.63721 19.0129 3.63721C19.1275 3.63721 19.2421 3.64437 19.3567 3.65869C19.4748 3.67301 19.5894 3.6945 19.7004 3.72314L19.6467 4.53418C19.5715 4.51628 19.4856 4.50374 19.3889 4.49658C19.2958 4.48942 19.2027 4.48584 19.1096 4.48584C18.8983 4.48584 18.7157 4.52881 18.5618 4.61475C18.4114 4.6971 18.2968 4.81885 18.218 4.97998C18.1392 5.14111 18.0998 5.33984 18.0998 5.57617V12ZM19.3352 6.18848V6.95117H16.1877V6.18848H19.3352ZM23.9884 11.0063V8.01465C23.9884 7.78548 23.9419 7.58675 23.8488 7.41846C23.7592 7.24658 23.6232 7.1141 23.4405 7.021C23.2579 6.9279 23.0323 6.88135 22.7638 6.88135C22.5131 6.88135 22.2929 6.92432 22.1031 7.01025C21.9169 7.09619 21.7701 7.20898 21.6627 7.34863C21.5589 7.48828 21.507 7.63867 21.507 7.7998H20.5133C20.5133 7.59212 20.567 7.38623 20.6744 7.18213C20.7819 6.97803 20.9358 6.79362 21.1363 6.62891C21.3405 6.46061 21.5839 6.32812 21.8668 6.23145C22.1533 6.13118 22.472 6.08105 22.8229 6.08105C23.2454 6.08105 23.6178 6.15267 23.9401 6.2959C24.2659 6.43913 24.5201 6.65576 24.7028 6.9458C24.889 7.23226 24.9821 7.59212 24.9821 8.02539V10.7324C24.9821 10.9258 24.9982 11.1317 25.0304 11.3501C25.0662 11.5685 25.1181 11.7565 25.1862 11.9141V12H24.1495C24.0994 11.8854 24.06 11.7332 24.0314 11.5435C24.0027 11.3501 23.9884 11.1711 23.9884 11.0063ZM24.1603 8.47656L24.171 9.1748H23.1666C22.8837 9.1748 22.6313 9.19808 22.4093 9.24463C22.1873 9.2876 22.0011 9.35384 21.8507 9.44336C21.7003 9.53288 21.5857 9.64567 21.507 9.78174C21.4282 9.91423 21.3888 10.07 21.3888 10.249C21.3888 10.4316 21.43 10.5981 21.5123 10.7485C21.5947 10.8989 21.7182 11.0189 21.8829 11.1084C22.0512 11.1943 22.2571 11.2373 22.5006 11.2373C22.805 11.2373 23.0735 11.1729 23.3063 11.0439C23.539 10.915 23.7234 10.7575 23.8595 10.5713C23.9991 10.3851 24.0743 10.2043 24.0851 10.0288L24.5094 10.5068C24.4843 10.6572 24.4163 10.8237 24.3053 11.0063C24.1943 11.189 24.0457 11.3644 23.8595 11.5327C23.6769 11.6974 23.4585 11.8353 23.2042 11.9463C22.9536 12.0537 22.6707 12.1074 22.3556 12.1074C21.9617 12.1074 21.6162 12.0304 21.319 11.8765C21.0253 11.7225 20.7962 11.5166 20.6315 11.2588C20.4703 10.9974 20.3898 10.7056 20.3898 10.3833C20.3898 10.0718 20.4506 9.79785 20.5724 9.56152C20.6941 9.32161 20.8696 9.12288 21.0988 8.96533C21.3279 8.8042 21.6036 8.68245 21.9259 8.6001C22.2482 8.51774 22.608 8.47656 23.0055 8.47656H24.1603ZM28.3462 11.103L29.936 6.18848H30.9512L28.8618 12H28.1958L28.3462 11.103ZM27.0195 6.18848L28.6577 11.1299L28.7705 12H28.1045L25.999 6.18848H27.0195ZM31.6781 9.15869V9.03516C31.6781 8.61621 31.739 8.2277 31.8607 7.86963C31.9825 7.50798 32.1579 7.19466 32.3871 6.92969C32.6163 6.66113 32.8938 6.45345 33.2196 6.30664C33.5455 6.15625 33.9107 6.08105 34.3153 6.08105C34.7235 6.08105 35.0905 6.15625 35.4164 6.30664C35.7458 6.45345 36.0251 6.66113 36.2543 6.92969C36.487 7.19466 36.6643 7.50798 36.786 7.86963C36.9078 8.2277 36.9686 8.61621 36.9686 9.03516V9.15869C36.9686 9.57764 36.9078 9.96615 36.786 10.3242C36.6643 10.6823 36.487 10.9956 36.2543 11.2642C36.0251 11.5291 35.7476 11.7368 35.4218 11.8872C35.0995 12.034 34.7343 12.1074 34.3261 12.1074C33.9179 12.1074 33.5508 12.034 33.225 11.8872C32.8991 11.7368 32.6198 11.5291 32.3871 11.2642C32.1579 10.9956 31.9825 10.6823 31.8607 10.3242C31.739 9.96615 31.6781 9.57764 31.6781 9.15869ZM32.6718 9.03516V9.15869C32.6718 9.44873 32.7058 9.72266 32.7738 9.98047C32.8418 10.2347 32.9439 10.4603 33.08 10.6572C33.2196 10.8542 33.3933 11.0099 33.601 11.1245C33.8086 11.2355 34.0503 11.291 34.3261 11.291C34.5982 11.291 34.8363 11.2355 35.0404 11.1245C35.2481 11.0099 35.42 10.8542 35.556 10.6572C35.6921 10.4603 35.7942 10.2347 35.8622 9.98047C35.9338 9.72266 35.9696 9.44873 35.9696 9.15869V9.03516C35.9696 8.7487 35.9338 8.47835 35.8622 8.22412C35.7942 7.96631 35.6903 7.73893 35.5507 7.54199C35.4146 7.34147 35.2427 7.18392 35.035 7.06934C34.8309 6.95475 34.591 6.89746 34.3153 6.89746C34.0432 6.89746 33.8033 6.95475 33.5956 7.06934C33.3915 7.18392 33.2196 7.34147 33.08 7.54199C32.9439 7.73893 32.8418 7.96631 32.7738 8.22412C32.7058 8.47835 32.6718 8.7487 32.6718 9.03516ZM41.8904 10.6572V6.18848H42.8894V12H41.9387L41.8904 10.6572ZM42.0784 9.43262L42.492 9.42188C42.492 9.80859 42.4508 10.1667 42.3684 10.4961C42.2896 10.8219 42.1607 11.1048 41.9817 11.3447C41.8027 11.5846 41.5681 11.7726 41.2781 11.9087C40.988 12.0412 40.6353 12.1074 40.22 12.1074C39.9371 12.1074 39.6775 12.0662 39.4412 11.9839C39.2084 11.9015 39.0079 11.7744 38.8396 11.6025C38.6713 11.4307 38.5406 11.2069 38.4475 10.9312C38.358 10.6554 38.3132 10.3242 38.3132 9.9375V6.18848H39.3069V9.94824C39.3069 10.2096 39.3355 10.4263 39.3928 10.5981C39.4537 10.7664 39.5343 10.9007 39.6345 11.001C39.7384 11.0977 39.853 11.1657 39.9783 11.2051C40.1072 11.2445 40.2397 11.2642 40.3757 11.2642C40.7983 11.2642 41.1331 11.1836 41.3801 11.0225C41.6272 10.8577 41.8045 10.6375 41.9119 10.3618C42.0229 10.0825 42.0784 9.77279 42.0784 9.43262ZM45.5177 7.10156V12H44.5241V6.18848H45.4909L45.5177 7.10156ZM47.3331 6.15625L47.3278 7.08008C47.2454 7.06217 47.1666 7.05143 47.0914 7.04785C47.0198 7.04069 46.9375 7.03711 46.8444 7.03711C46.6152 7.03711 46.4129 7.07292 46.2374 7.14453C46.062 7.21615 45.9134 7.31641 45.7916 7.44531C45.6699 7.57422 45.5732 7.72819 45.5016 7.90723C45.4336 8.08268 45.3888 8.27604 45.3673 8.4873L45.088 8.64844C45.088 8.29753 45.122 7.9681 45.1901 7.66016C45.2617 7.35221 45.3709 7.08008 45.5177 6.84375C45.6645 6.60384 45.8507 6.41764 46.0763 6.28516C46.3055 6.14909 46.5776 6.08105 46.8927 6.08105C46.9643 6.08105 47.0467 6.09001 47.1398 6.10791C47.2329 6.12223 47.2973 6.13835 47.3331 6.15625ZM51.7554 10.4585C51.7554 10.3153 51.7232 10.1828 51.6587 10.061C51.5978 9.93571 51.4707 9.82292 51.2774 9.72266C51.0876 9.61882 50.8011 9.5293 50.418 9.4541C50.0957 9.38607 49.8039 9.3055 49.5425 9.2124C49.2847 9.1193 49.0645 9.00651 48.8819 8.87402C48.7028 8.74154 48.565 8.58577 48.4683 8.40674C48.3716 8.2277 48.3233 8.01823 48.3233 7.77832C48.3233 7.54915 48.3734 7.33252 48.4737 7.12842C48.5775 6.92432 48.7225 6.74349 48.9087 6.58594C49.0985 6.42839 49.3259 6.30485 49.5908 6.21533C49.8558 6.12581 50.1512 6.08105 50.4771 6.08105C50.9426 6.08105 51.34 6.16341 51.6695 6.32812C51.9989 6.49284 52.2513 6.71305 52.4268 6.98877C52.6022 7.2609 52.69 7.56348 52.69 7.89648H51.6963C51.6963 7.73535 51.648 7.57959 51.5513 7.4292C51.4582 7.27523 51.3203 7.14811 51.1377 7.04785C50.9587 6.94759 50.7385 6.89746 50.4771 6.89746C50.2014 6.89746 49.9776 6.94043 49.8057 7.02637C49.6374 7.10872 49.5139 7.21436 49.4351 7.34326C49.3599 7.47217 49.3223 7.60824 49.3223 7.75146C49.3223 7.85889 49.3402 7.95557 49.376 8.0415C49.4154 8.12386 49.4834 8.20085 49.5801 8.27246C49.6768 8.34049 49.8128 8.40495 49.9883 8.46582C50.1638 8.52669 50.3876 8.58757 50.6597 8.64844C51.1359 8.75586 51.528 8.88477 51.836 9.03516C52.1439 9.18555 52.3731 9.36995 52.5235 9.58838C52.6738 9.8068 52.749 10.0718 52.749 10.3833C52.749 10.6375 52.6953 10.8703 52.5879 11.0815C52.4841 11.2928 52.3319 11.4754 52.1314 11.6294C51.9344 11.7798 51.6981 11.8979 51.4224 11.9839C51.1502 12.0662 50.8441 12.1074 50.5039 12.1074C49.9919 12.1074 49.5586 12.0161 49.2041 11.8335C48.8496 11.6509 48.5811 11.4146 48.3985 11.1245C48.2158 10.8345 48.1245 10.5283 48.1245 10.2061H49.1236C49.1379 10.4782 49.2167 10.6948 49.3599 10.856C49.5031 11.0135 49.6786 11.1263 49.8862 11.1943C50.0939 11.2588 50.2998 11.291 50.5039 11.291C50.7761 11.291 51.0034 11.2552 51.1861 11.1836C51.3723 11.112 51.5137 11.0135 51.6104 10.8882C51.7071 10.7629 51.7554 10.6196 51.7554 10.4585Z" fill="#262626"/>
</svg>
