<svg width="68" height="15" viewBox="0 0 68 15" fill="none" xmlns="http://www.w3.org/2000/svg">
<path d="M3.30234 8.90039V8.76562C3.30234 8.30859 3.36875 7.88477 3.50156 7.49414C3.63437 7.09961 3.82578 6.75781 4.07578 6.46875C4.32578 6.17578 4.62852 5.94922 4.98398 5.78906C5.33945 5.625 5.73789 5.54297 6.1793 5.54297C6.62461 5.54297 7.025 5.625 7.38047 5.78906C7.73984 5.94922 8.04453 6.17578 8.29453 6.46875C8.54844 6.75781 8.7418 7.09961 8.87461 7.49414C9.00742 7.88477 9.07383 8.30859 9.07383 8.76562V8.90039C9.07383 9.35742 9.00742 9.78125 8.87461 10.1719C8.7418 10.5625 8.54844 10.9043 8.29453 11.1973C8.04453 11.4863 7.7418 11.7129 7.38633 11.877C7.03477 12.0371 6.63633 12.1172 6.19102 12.1172C5.7457 12.1172 5.34531 12.0371 4.98984 11.877C4.63437 11.7129 4.32969 11.4863 4.07578 11.1973C3.82578 10.9043 3.63437 10.5625 3.50156 10.1719C3.36875 9.78125 3.30234 9.35742 3.30234 8.90039ZM4.38633 8.76562V8.90039C4.38633 9.2168 4.42344 9.51562 4.49766 9.79688C4.57187 10.0742 4.6832 10.3203 4.83164 10.5352C4.98398 10.75 5.17344 10.9199 5.4 11.0449C5.62656 11.166 5.89023 11.2266 6.19102 11.2266C6.48789 11.2266 6.74766 11.166 6.97031 11.0449C7.19687 10.9199 7.38437 10.75 7.53281 10.5352C7.68125 10.3203 7.79258 10.0742 7.8668 9.79688C7.94492 9.51562 7.98398 9.2168 7.98398 8.90039V8.76562C7.98398 8.45312 7.94492 8.1582 7.8668 7.88086C7.79258 7.59961 7.6793 7.35156 7.52695 7.13672C7.37852 6.91797 7.19102 6.74609 6.96445 6.62109C6.7418 6.49609 6.48008 6.43359 6.1793 6.43359C5.88242 6.43359 5.6207 6.49609 5.39414 6.62109C5.17148 6.74609 4.98398 6.91797 4.83164 7.13672C4.6832 7.35156 4.57187 7.59961 4.49766 7.88086C4.42344 8.1582 4.38633 8.45312 4.38633 8.76562ZM11.6372 6.87891V14.4375H10.5473V5.66016H11.5434L11.6372 6.87891ZM15.9087 8.77734V8.90039C15.9087 9.36133 15.854 9.78906 15.7446 10.1836C15.6352 10.5742 15.4751 10.9141 15.2641 11.2031C15.0571 11.4922 14.8012 11.7168 14.4966 11.877C14.1919 12.0371 13.8423 12.1172 13.4477 12.1172C13.0454 12.1172 12.6899 12.0508 12.3813 11.918C12.0727 11.7852 11.811 11.5918 11.5962 11.3379C11.3813 11.084 11.2095 10.7793 11.0805 10.4238C10.9555 10.0684 10.8696 9.66797 10.8227 9.22266V8.56641C10.8696 8.09766 10.9575 7.67773 11.0864 7.30664C11.2153 6.93555 11.3852 6.61914 11.5962 6.35742C11.811 6.0918 12.0708 5.89062 12.3755 5.75391C12.6802 5.61328 13.0317 5.54297 13.4302 5.54297C13.8286 5.54297 14.1821 5.62109 14.4907 5.77734C14.7993 5.92969 15.0591 6.14844 15.27 6.43359C15.4809 6.71875 15.6391 7.06055 15.7446 7.45898C15.854 7.85352 15.9087 8.29297 15.9087 8.77734ZM14.8188 8.90039V8.77734C14.8188 8.46094 14.7856 8.16406 14.7192 7.88672C14.6528 7.60547 14.5493 7.35938 14.4087 7.14844C14.272 6.93359 14.0962 6.76562 13.8813 6.64453C13.6665 6.51953 13.4106 6.45703 13.1137 6.45703C12.8403 6.45703 12.602 6.50391 12.3989 6.59766C12.1997 6.69141 12.0298 6.81836 11.8891 6.97852C11.7485 7.13477 11.6333 7.31445 11.5434 7.51758C11.4575 7.7168 11.393 7.92383 11.3501 8.13867V9.65625C11.4282 9.92969 11.5376 10.1875 11.6782 10.4297C11.8188 10.668 12.0063 10.8613 12.2407 11.0098C12.4751 11.1543 12.77 11.2266 13.1255 11.2266C13.4184 11.2266 13.6704 11.166 13.8813 11.0449C14.0962 10.9199 14.272 10.75 14.4087 10.5352C14.5493 10.3203 14.6528 10.0742 14.7192 9.79688C14.7856 9.51562 14.8188 9.2168 14.8188 8.90039ZM20.0423 12.1172C19.6009 12.1172 19.2005 12.043 18.8412 11.8945C18.4857 11.7422 18.1791 11.5293 17.9212 11.2559C17.6673 10.9824 17.472 10.6582 17.3353 10.2832C17.1986 9.9082 17.1302 9.49805 17.1302 9.05273V8.80664C17.1302 8.29102 17.2064 7.83203 17.3587 7.42969C17.5111 7.02344 17.7181 6.67969 17.9798 6.39844C18.2416 6.11719 18.5384 5.9043 18.8705 5.75977C19.2025 5.61523 19.5462 5.54297 19.9017 5.54297C20.3548 5.54297 20.7455 5.62109 21.0736 5.77734C21.4056 5.93359 21.6771 6.15234 21.888 6.43359C22.099 6.71094 22.2552 7.03906 22.3568 7.41797C22.4584 7.79297 22.5091 8.20312 22.5091 8.64844V9.13477H17.7748V8.25H21.4252V8.16797C21.4095 7.88672 21.3509 7.61328 21.2494 7.34766C21.1517 7.08203 20.9955 6.86328 20.7806 6.69141C20.5658 6.51953 20.2728 6.43359 19.9017 6.43359C19.6556 6.43359 19.4291 6.48633 19.222 6.5918C19.015 6.69336 18.8373 6.8457 18.6888 7.04883C18.5404 7.25195 18.4252 7.5 18.3431 7.79297C18.2611 8.08594 18.2201 8.42383 18.2201 8.80664V9.05273C18.2201 9.35352 18.2611 9.63672 18.3431 9.90234C18.4291 10.1641 18.5521 10.3945 18.7123 10.5938C18.8763 10.793 19.0736 10.9492 19.3041 11.0625C19.5384 11.1758 19.8041 11.2324 20.1009 11.2324C20.4837 11.2324 20.808 11.1543 21.0736 10.998C21.3392 10.8418 21.5716 10.6328 21.7709 10.3711L22.4271 10.8926C22.2904 11.0996 22.1166 11.2969 21.9056 11.4844C21.6947 11.6719 21.4349 11.8242 21.1263 11.9414C20.8216 12.0586 20.4603 12.1172 20.0423 12.1172ZM24.9788 7.01367V12H23.8948V5.66016H24.9202L24.9788 7.01367ZM24.7209 8.58984L24.2698 8.57227C24.2737 8.13867 24.3381 7.73828 24.4631 7.37109C24.5881 7 24.7639 6.67773 24.9905 6.4043C25.217 6.13086 25.4866 5.91992 25.7991 5.77148C26.1155 5.61914 26.4651 5.54297 26.8479 5.54297C27.1604 5.54297 27.4416 5.58594 27.6916 5.67188C27.9416 5.75391 28.1545 5.88672 28.3303 6.07031C28.51 6.25391 28.6467 6.49219 28.7405 6.78516C28.8342 7.07422 28.8811 7.42773 28.8811 7.8457V12H27.7913V7.83398C27.7913 7.50195 27.7424 7.23633 27.6448 7.03711C27.5471 6.83398 27.4045 6.6875 27.217 6.59766C27.0295 6.50391 26.7991 6.45703 26.5256 6.45703C26.2561 6.45703 26.01 6.51367 25.7873 6.62695C25.5686 6.74023 25.3791 6.89648 25.219 7.0957C25.0627 7.29492 24.9397 7.52344 24.8498 7.78125C24.7639 8.03516 24.7209 8.30469 24.7209 8.58984ZM34.3859 10.916V7.65234C34.3859 7.40234 34.3351 7.18555 34.2335 7.00195C34.1359 6.81445 33.9874 6.66992 33.7882 6.56836C33.589 6.4668 33.3429 6.41602 33.0499 6.41602C32.7765 6.41602 32.5362 6.46289 32.3292 6.55664C32.1261 6.65039 31.9659 6.77344 31.8487 6.92578C31.7355 7.07812 31.6788 7.24219 31.6788 7.41797H30.5948C30.5948 7.19141 30.6534 6.9668 30.7706 6.74414C30.8878 6.52148 31.0558 6.32031 31.2745 6.14062C31.4972 5.95703 31.7628 5.8125 32.0714 5.70703C32.3839 5.59766 32.7316 5.54297 33.1144 5.54297C33.5753 5.54297 33.9816 5.62109 34.3331 5.77734C34.6886 5.93359 34.9659 6.16992 35.1652 6.48633C35.3683 6.79883 35.4698 7.19141 35.4698 7.66406V10.6172C35.4698 10.8281 35.4874 11.0527 35.5226 11.291C35.5616 11.5293 35.6183 11.7344 35.6925 11.9062V12H34.5616C34.507 11.875 34.464 11.709 34.4327 11.502C34.4015 11.291 34.3859 11.0957 34.3859 10.916ZM34.5734 8.15625L34.5851 8.91797H33.4894C33.1808 8.91797 32.9054 8.94336 32.6632 8.99414C32.421 9.04102 32.2179 9.11328 32.0538 9.21094C31.8898 9.30859 31.7648 9.43164 31.6788 9.58008C31.5929 9.72461 31.5499 9.89453 31.5499 10.0898C31.5499 10.2891 31.5948 10.4707 31.6847 10.6348C31.7745 10.7988 31.9093 10.9297 32.089 11.0273C32.2726 11.1211 32.4972 11.168 32.7628 11.168C33.0948 11.168 33.3878 11.0977 33.6417 10.957C33.8956 10.8164 34.0968 10.6445 34.2452 10.4414C34.3976 10.2383 34.4796 10.041 34.4913 9.84961L34.9542 10.3711C34.9269 10.5352 34.8527 10.7168 34.7316 10.916C34.6105 11.1152 34.4484 11.3066 34.2452 11.4902C34.046 11.6699 33.8077 11.8203 33.5304 11.9414C33.257 12.0586 32.9484 12.1172 32.6046 12.1172C32.1749 12.1172 31.798 12.0332 31.4737 11.8652C31.1534 11.6973 30.9034 11.4727 30.7237 11.1914C30.548 10.9062 30.4601 10.5879 30.4601 10.2363C30.4601 9.89648 30.5265 9.59766 30.6593 9.33984C30.7921 9.07812 30.9835 8.86133 31.2335 8.68945C31.4835 8.51367 31.7843 8.38086 32.1359 8.29102C32.4874 8.20117 32.88 8.15625 33.3136 8.15625H34.5734ZM38.4727 5.66016V12H37.3828V5.66016H38.4727ZM37.3008 3.97852C37.3008 3.80273 37.3535 3.6543 37.459 3.5332C37.5684 3.41211 37.7285 3.35156 37.9395 3.35156C38.1465 3.35156 38.3047 3.41211 38.4141 3.5332C38.5273 3.6543 38.584 3.80273 38.584 3.97852C38.584 4.14648 38.5273 4.29102 38.4141 4.41211C38.3047 4.5293 38.1465 4.58789 37.9395 4.58789C37.7285 4.58789 37.5684 4.5293 37.459 4.41211C37.3535 4.29102 37.3008 4.14648 37.3008 3.97852ZM44.329 10.7695V3H45.4188V12H44.4227L44.329 10.7695ZM40.0634 8.90039V8.77734C40.0634 8.29297 40.122 7.85352 40.2391 7.45898C40.3602 7.06055 40.5302 6.71875 40.7489 6.43359C40.9716 6.14844 41.2352 5.92969 41.5399 5.77734C41.8485 5.62109 42.1923 5.54297 42.5712 5.54297C42.9696 5.54297 43.3173 5.61328 43.6141 5.75391C43.9149 5.89062 44.1688 6.0918 44.3759 6.35742C44.5868 6.61914 44.7528 6.93555 44.8739 7.30664C44.995 7.67773 45.079 8.09766 45.1259 8.56641V9.10547C45.0829 9.57031 44.9989 9.98828 44.8739 10.3594C44.7528 10.7305 44.5868 11.0469 44.3759 11.3086C44.1688 11.5703 43.9149 11.7715 43.6141 11.9121C43.3134 12.0488 42.9618 12.1172 42.5595 12.1172C42.1884 12.1172 41.8485 12.0371 41.5399 11.877C41.2352 11.7168 40.9716 11.4922 40.7489 11.2031C40.5302 10.9141 40.3602 10.5742 40.2391 10.1836C40.122 9.78906 40.0634 9.36133 40.0634 8.90039ZM41.1532 8.77734V8.90039C41.1532 9.2168 41.1845 9.51367 41.247 9.79102C41.3134 10.0684 41.4149 10.3125 41.5516 10.5234C41.6884 10.7344 41.8622 10.9004 42.0731 11.0215C42.2841 11.1387 42.536 11.1973 42.829 11.1973C43.1884 11.1973 43.4833 11.1211 43.7138 10.9688C43.9481 10.8164 44.1356 10.6152 44.2763 10.3652C44.4169 10.1152 44.5263 9.84375 44.6044 9.55078V8.13867C44.5575 7.92383 44.4891 7.7168 44.3993 7.51758C44.3134 7.31445 44.2001 7.13477 44.0595 6.97852C43.9227 6.81836 43.7528 6.69141 43.5497 6.59766C43.3505 6.50391 43.1141 6.45703 42.8407 6.45703C42.5438 6.45703 42.288 6.51953 42.0731 6.64453C41.8622 6.76562 41.6884 6.93359 41.5516 7.14844C41.4149 7.35938 41.3134 7.60547 41.247 7.88672C41.1845 8.16406 41.1532 8.46094 41.1532 8.77734ZM50.9646 10.916V7.65234C50.9646 7.40234 50.9138 7.18555 50.8123 7.00195C50.7146 6.81445 50.5662 6.66992 50.367 6.56836C50.1677 6.4668 49.9216 6.41602 49.6287 6.41602C49.3552 6.41602 49.115 6.46289 48.908 6.55664C48.7048 6.65039 48.5447 6.77344 48.4275 6.92578C48.3142 7.07812 48.2576 7.24219 48.2576 7.41797H47.1736C47.1736 7.19141 47.2322 6.9668 47.3494 6.74414C47.4666 6.52148 47.6345 6.32031 47.8533 6.14062C48.0759 5.95703 48.3416 5.8125 48.6502 5.70703C48.9627 5.59766 49.3103 5.54297 49.6931 5.54297C50.1541 5.54297 50.5603 5.62109 50.9119 5.77734C51.2673 5.93359 51.5447 6.16992 51.7439 6.48633C51.947 6.79883 52.0486 7.19141 52.0486 7.66406V10.6172C52.0486 10.8281 52.0662 11.0527 52.1013 11.291C52.1404 11.5293 52.197 11.7344 52.2712 11.9062V12H51.1404C51.0857 11.875 51.0427 11.709 51.0115 11.502C50.9802 11.291 50.9646 11.0957 50.9646 10.916ZM51.1521 8.15625L51.1638 8.91797H50.0681C49.7595 8.91797 49.4841 8.94336 49.242 8.99414C48.9998 9.04102 48.7966 9.11328 48.6326 9.21094C48.4685 9.30859 48.3435 9.43164 48.2576 9.58008C48.1716 9.72461 48.1287 9.89453 48.1287 10.0898C48.1287 10.2891 48.1736 10.4707 48.2634 10.6348C48.3533 10.7988 48.488 10.9297 48.6677 11.0273C48.8513 11.1211 49.0759 11.168 49.3416 11.168C49.6736 11.168 49.9666 11.0977 50.2205 10.957C50.4744 10.8164 50.6755 10.6445 50.824 10.4414C50.9763 10.2383 51.0584 10.041 51.0701 9.84961L51.533 10.3711C51.5056 10.5352 51.4314 10.7168 51.3103 10.916C51.1892 11.1152 51.0271 11.3066 50.824 11.4902C50.6248 11.6699 50.3865 11.8203 50.1091 11.9414C49.8357 12.0586 49.5271 12.1172 49.1834 12.1172C48.7537 12.1172 48.3767 12.0332 48.0525 11.8652C47.7322 11.6973 47.4822 11.4727 47.3025 11.1914C47.1267 10.9062 47.0388 10.5879 47.0388 10.2363C47.0388 9.89648 47.1052 9.59766 47.238 9.33984C47.3709 9.07812 47.5623 8.86133 47.8123 8.68945C48.0623 8.51367 48.363 8.38086 48.7146 8.29102C49.0662 8.20117 49.4587 8.15625 49.8923 8.15625H51.1521ZM55.0514 3V12H53.9616V3H55.0514ZM58.0894 3V12H56.9995V3H58.0894ZM62.5805 12.1172C62.1391 12.1172 61.7387 12.043 61.3793 11.8945C61.0238 11.7422 60.7172 11.5293 60.4594 11.2559C60.2055 10.9824 60.0102 10.6582 59.8734 10.2832C59.7367 9.9082 59.6684 9.49805 59.6684 9.05273V8.80664C59.6684 8.29102 59.7445 7.83203 59.8969 7.42969C60.0492 7.02344 60.2562 6.67969 60.518 6.39844C60.7797 6.11719 61.0766 5.9043 61.4086 5.75977C61.7406 5.61523 62.0844 5.54297 62.4398 5.54297C62.893 5.54297 63.2836 5.62109 63.6117 5.77734C63.9437 5.93359 64.2152 6.15234 64.4262 6.43359C64.6371 6.71094 64.7934 7.03906 64.8949 7.41797C64.9965 7.79297 65.0473 8.20312 65.0473 8.64844V9.13477H60.3129V8.25H63.9633V8.16797C63.9477 7.88672 63.8891 7.61328 63.7875 7.34766C63.6898 7.08203 63.5336 6.86328 63.3187 6.69141C63.1039 6.51953 62.8109 6.43359 62.4398 6.43359C62.1937 6.43359 61.9672 6.48633 61.7602 6.5918C61.5531 6.69336 61.3754 6.8457 61.227 7.04883C61.0785 7.25195 60.9633 7.5 60.8812 7.79297C60.7992 8.08594 60.7582 8.42383 60.7582 8.80664V9.05273C60.7582 9.35352 60.7992 9.63672 60.8812 9.90234C60.9672 10.1641 61.0902 10.3945 61.2504 10.5938C61.4145 10.793 61.6117 10.9492 61.8422 11.0625C62.0766 11.1758 62.3422 11.2324 62.6391 11.2324C63.0219 11.2324 63.3461 11.1543 63.6117 10.998C63.8773 10.8418 64.1098 10.6328 64.309 10.3711L64.9652 10.8926C64.8285 11.0996 64.6547 11.2969 64.4437 11.4844C64.2328 11.6719 63.973 11.8242 63.6645 11.9414C63.3598 12.0586 62.9984 12.1172 62.5805 12.1172Z" fill="#262626"/>
</svg>
