<svg width="210" height="36" viewBox="0 0 210 36" fill="none" xmlns="http://www.w3.org/2000/svg">
<g clip-path="url(#clip0_1_354)">
<g clip-path="url(#clip1_1_354)">
<path d="M17.2158 11.2432V5.60352H19.0342V13H17.3252L17.2158 11.2432ZM17.4482 9.71191L18.0088 9.69824C18.0088 10.195 17.9541 10.653 17.8447 11.0723C17.7354 11.4915 17.5645 11.8561 17.332 12.166C17.1042 12.4714 16.8148 12.7106 16.4639 12.8838C16.113 13.0524 15.6982 13.1367 15.2197 13.1367C14.8551 13.1367 14.5225 13.0866 14.2217 12.9863C13.9209 12.8815 13.6611 12.7197 13.4424 12.501C13.2282 12.2777 13.0618 11.9928 12.9434 11.6465C12.8249 11.2956 12.7656 10.874 12.7656 10.3818V5.60352H14.5703V10.3955C14.5703 10.6416 14.5977 10.8467 14.6523 11.0107C14.7116 11.1748 14.7913 11.3092 14.8916 11.4141C14.9964 11.5143 15.1172 11.5872 15.2539 11.6328C15.3952 11.6738 15.5456 11.6943 15.7051 11.6943C16.1426 11.6943 16.4867 11.6077 16.7373 11.4346C16.9925 11.2568 17.1748 11.0199 17.2842 10.7236C17.3936 10.4229 17.4482 10.0856 17.4482 9.71191ZM22.4385 7.02539V15.8438H20.627V5.60352H22.3018L22.4385 7.02539ZM27.1895 9.22656V9.37012C27.1895 9.90788 27.1257 10.4069 26.998 10.8672C26.875 11.3229 26.6927 11.7217 26.4512 12.0635C26.2096 12.4007 25.9089 12.665 25.5488 12.8564C25.1934 13.0433 24.7832 13.1367 24.3184 13.1367C23.8626 13.1367 23.4661 13.0501 23.1289 12.877C22.7917 12.6992 22.5068 12.4486 22.2744 12.125C22.042 11.8014 21.8551 11.4255 21.7139 10.9971C21.5771 10.5641 21.4746 10.0924 21.4062 9.58203V9.12402C21.4746 8.58171 21.5771 8.08952 21.7139 7.64746C21.8551 7.20085 22.042 6.81576 22.2744 6.49219C22.5068 6.16406 22.7894 5.91113 23.1221 5.7334C23.4593 5.55566 23.8535 5.4668 24.3047 5.4668C24.7741 5.4668 25.1865 5.55566 25.542 5.7334C25.902 5.91113 26.2051 6.16634 26.4512 6.49902C26.6973 6.83171 26.8818 7.22819 27.0049 7.68848C27.1279 8.14876 27.1895 8.66146 27.1895 9.22656ZM25.3779 9.37012V9.22656C25.3779 8.89844 25.3483 8.59538 25.2891 8.31738C25.2298 8.03483 25.1387 7.78874 25.0156 7.5791C24.8926 7.36491 24.7331 7.19857 24.5371 7.08008C24.3411 6.96159 24.1042 6.90234 23.8262 6.90234C23.5482 6.90234 23.3089 6.94792 23.1084 7.03906C22.9079 7.13021 22.7438 7.26009 22.6162 7.42871C22.4886 7.59733 22.3883 7.79785 22.3154 8.03027C22.2471 8.25814 22.2015 8.51107 22.1787 8.78906V9.92383C22.2197 10.2611 22.2995 10.5641 22.418 10.833C22.5365 11.1019 22.7096 11.3161 22.9375 11.4756C23.1699 11.6351 23.4707 11.7148 23.8398 11.7148C24.1178 11.7148 24.3548 11.6533 24.5508 11.5303C24.7467 11.4072 24.9062 11.2386 25.0293 11.0244C25.1523 10.8057 25.2412 10.555 25.2959 10.2725C25.3506 9.98991 25.3779 9.68913 25.3779 9.37012ZM30.8809 11.6328L32.6035 5.60352H34.4902L31.9541 13H30.8057L30.8809 11.6328ZM29.623 5.60352L31.3662 11.6465L31.4277 13H30.2725L27.7295 5.60352H29.623ZM35.0098 9.37695V9.2334C35.0098 8.69108 35.0872 8.19206 35.2422 7.73633C35.3971 7.27604 35.6227 6.87728 35.9189 6.54004C36.2152 6.2028 36.5775 5.94076 37.0059 5.75391C37.4342 5.5625 37.9219 5.4668 38.4688 5.4668C39.0247 5.4668 39.5169 5.5625 39.9453 5.75391C40.3783 5.94076 40.7428 6.2028 41.0391 6.54004C41.3353 6.87728 41.5609 7.27604 41.7158 7.73633C41.8708 8.19206 41.9482 8.69108 41.9482 9.2334V9.37695C41.9482 9.91471 41.8708 10.4137 41.7158 10.874C41.5609 11.3298 41.3353 11.7285 41.0391 12.0703C40.7428 12.4076 40.3805 12.6696 39.9521 12.8564C39.5238 13.0433 39.0339 13.1367 38.4824 13.1367C37.9355 13.1367 37.4456 13.0433 37.0127 12.8564C36.5798 12.6696 36.2152 12.4076 35.9189 12.0703C35.6227 11.7285 35.3971 11.3298 35.2422 10.874C35.0872 10.4137 35.0098 9.91471 35.0098 9.37695ZM36.8145 9.2334V9.37695C36.8145 9.70052 36.8464 10.0036 36.9102 10.2861C36.974 10.5687 37.0719 10.8171 37.2041 11.0312C37.3363 11.2454 37.5072 11.4141 37.7168 11.5371C37.931 11.6556 38.1862 11.7148 38.4824 11.7148C38.7741 11.7148 39.0247 11.6556 39.2344 11.5371C39.444 11.4141 39.6149 11.2454 39.7471 11.0312C39.8838 10.8171 39.984 10.5687 40.0479 10.2861C40.1117 10.0036 40.1436 9.70052 40.1436 9.37695V9.2334C40.1436 8.91439 40.1117 8.61589 40.0479 8.33789C39.984 8.05534 39.8838 7.80697 39.7471 7.59277C39.6149 7.37402 39.4417 7.20312 39.2275 7.08008C39.0179 6.95247 38.765 6.88867 38.4688 6.88867C38.1771 6.88867 37.9264 6.95247 37.7168 7.08008C37.5072 7.20312 37.3363 7.37402 37.2041 7.59277C37.0719 7.80697 36.974 8.05534 36.9102 8.33789C36.8464 8.61589 36.8145 8.91439 36.8145 9.2334ZM44.5254 5.60352L45.8447 7.95508L47.1846 5.60352H49.1465L46.9727 9.22656L49.2354 13H47.2734L45.8584 10.5322L44.4365 13H42.4746L44.7305 9.22656L42.5703 5.60352H44.5254ZM55.6133 13V14.3945H49.3857V13H55.6133Z" fill="#262626"/>
</g>
</g>
<g clip-path="url(#clip2_1_354)">
<path d="M18.8496 21.0469H20.1621V27.7803C20.1621 28.5277 19.9958 29.1497 19.6631 29.6465C19.3304 30.1432 18.8883 30.5169 18.3369 30.7676C17.79 31.0137 17.1953 31.1367 16.5527 31.1367C15.8783 31.1367 15.2676 31.0137 14.7207 30.7676C14.1784 30.5169 13.7477 30.1432 13.4287 29.6465C13.1143 29.1497 12.957 28.5277 12.957 27.7803V21.0469H14.2627V27.7803C14.2627 28.2998 14.3584 28.7282 14.5498 29.0654C14.7412 29.4027 15.0078 29.6533 15.3496 29.8174C15.696 29.9814 16.097 30.0635 16.5527 30.0635C17.013 30.0635 17.4141 29.9814 17.7559 29.8174C18.1022 29.6533 18.3711 29.4027 18.5625 29.0654C18.7539 28.7282 18.8496 28.2998 18.8496 27.7803V21.0469ZM23.3066 25.0254V33.8438H22.0352V23.6035H23.1973L23.3066 25.0254ZM28.29 27.2402V27.3838C28.29 27.9215 28.2262 28.4206 28.0986 28.8809C27.971 29.3366 27.7842 29.7331 27.5381 30.0703C27.2965 30.4076 26.998 30.6696 26.6426 30.8564C26.2871 31.0433 25.8792 31.1367 25.4189 31.1367C24.9495 31.1367 24.5348 31.0592 24.1748 30.9043C23.8148 30.7493 23.5094 30.5238 23.2588 30.2275C23.0081 29.9313 22.8076 29.5758 22.6572 29.1611C22.5114 28.7464 22.4111 28.2793 22.3564 27.7598V26.9941C22.4111 26.4473 22.5137 25.9574 22.6641 25.5244C22.8145 25.0915 23.0127 24.7223 23.2588 24.417C23.5094 24.1071 23.8125 23.8724 24.168 23.7129C24.5234 23.5488 24.9336 23.4668 25.3984 23.4668C25.8633 23.4668 26.2757 23.5579 26.6357 23.7402C26.9958 23.918 27.2988 24.1732 27.5449 24.5059C27.791 24.8385 27.9756 25.2373 28.0986 25.7021C28.2262 26.1624 28.29 26.6751 28.29 27.2402ZM27.0186 27.3838V27.2402C27.0186 26.8711 26.9798 26.5247 26.9023 26.2012C26.8249 25.873 26.7041 25.5859 26.54 25.3398C26.3805 25.0892 26.1755 24.8932 25.9248 24.752C25.6742 24.6061 25.3757 24.5332 25.0293 24.5332C24.7103 24.5332 24.4323 24.5879 24.1953 24.6973C23.9629 24.8066 23.7646 24.9548 23.6006 25.1416C23.4365 25.3239 23.3021 25.5335 23.1973 25.7705C23.097 26.0029 23.0218 26.2445 22.9717 26.4951V28.2656C23.0628 28.5846 23.1904 28.8854 23.3545 29.168C23.5186 29.446 23.7373 29.6715 24.0107 29.8447C24.2842 30.0133 24.6283 30.0977 25.043 30.0977C25.3848 30.0977 25.6787 30.027 25.9248 29.8857C26.1755 29.7399 26.3805 29.5417 26.54 29.291C26.7041 29.0404 26.8249 28.7533 26.9023 28.4297C26.9798 28.1016 27.0186 27.7529 27.0186 27.3838ZM32.0703 29.8584L34.0938 23.6035H35.3857L32.7266 31H31.8789L32.0703 29.8584ZM30.3818 23.6035L32.4668 29.8926L32.6104 31H31.7627L29.083 23.6035H30.3818ZM36.1582 27.3838V27.2266C36.1582 26.6934 36.2357 26.1989 36.3906 25.7432C36.5456 25.2829 36.7689 24.8841 37.0605 24.5469C37.3522 24.2051 37.7054 23.9408 38.1201 23.7539C38.5348 23.5625 38.9997 23.4668 39.5146 23.4668C40.0342 23.4668 40.5013 23.5625 40.916 23.7539C41.3353 23.9408 41.6908 24.2051 41.9824 24.5469C42.2786 24.8841 42.5042 25.2829 42.6592 25.7432C42.8141 26.1989 42.8916 26.6934 42.8916 27.2266V27.3838C42.8916 27.917 42.8141 28.4115 42.6592 28.8672C42.5042 29.3229 42.2786 29.7217 41.9824 30.0635C41.6908 30.4007 41.3376 30.665 40.9229 30.8564C40.5127 31.0433 40.0479 31.1367 39.5283 31.1367C39.0088 31.1367 38.5417 31.0433 38.127 30.8564C37.7122 30.665 37.3568 30.4007 37.0605 30.0635C36.7689 29.7217 36.5456 29.3229 36.3906 28.8672C36.2357 28.4115 36.1582 27.917 36.1582 27.3838ZM37.4229 27.2266V27.3838C37.4229 27.7529 37.4661 28.1016 37.5527 28.4297C37.6393 28.7533 37.7692 29.0404 37.9424 29.291C38.1201 29.5417 38.3411 29.7399 38.6055 29.8857C38.8698 30.027 39.1774 30.0977 39.5283 30.0977C39.8747 30.0977 40.1777 30.027 40.4375 29.8857C40.7018 29.7399 40.9206 29.5417 41.0938 29.291C41.2669 29.0404 41.3968 28.7533 41.4834 28.4297C41.5745 28.1016 41.6201 27.7529 41.6201 27.3838V27.2266C41.6201 26.862 41.5745 26.5179 41.4834 26.1943C41.3968 25.8662 41.2646 25.5768 41.0869 25.3262C40.9137 25.071 40.695 24.8704 40.4307 24.7246C40.1709 24.5788 39.8656 24.5059 39.5146 24.5059C39.1683 24.5059 38.863 24.5788 38.5986 24.7246C38.3389 24.8704 38.1201 25.071 37.9424 25.3262C37.7692 25.5768 37.6393 25.8662 37.5527 26.1943C37.4661 26.5179 37.4229 26.862 37.4229 27.2266ZM45.1816 23.6035L46.8018 26.2969L48.4424 23.6035H49.9258L47.5059 27.2539L50.001 31H48.5381L46.8291 28.2246L45.1201 31H43.6504L46.1387 27.2539L43.7256 23.6035H45.1816Z" fill="#8E8E8E"/>
</g>
<defs>
<clipPath id="clip0_1_354">
<rect width="56.5781" height="18" fill="white"/>
</clipPath>
<clipPath id="clip1_1_354">
<rect width="44.5781" height="18" fill="white" transform="translate(12)"/>
</clipPath>
<clipPath id="clip2_1_354">
<rect width="51.1875" height="18" fill="white" transform="translate(0 18)"/>
</clipPath>
</defs>
</svg>
