<svg width="166" height="9" viewBox="0 0 166 9" fill="none" xmlns="http://www.w3.org/2000/svg">
<path d="M5.23145 4.78809H6.01562C6.01562 5.35026 5.85449 5.77279 5.53223 6.05566C5.21354 6.33496 4.78027 6.47461 4.23242 6.47461C3.85286 6.47461 3.52344 6.38688 3.24414 6.21143C2.96842 6.03597 2.75358 5.79248 2.59961 5.48096C2.44922 5.16943 2.37402 4.80778 2.37402 4.396V3.77832C2.37402 3.36654 2.44922 3.00488 2.59961 2.69336C2.75358 2.38184 2.96842 2.13835 3.24414 1.96289C3.52344 1.78743 3.85286 1.69971 4.23242 1.69971C4.78027 1.69971 5.21533 1.83936 5.5376 2.11865C5.85986 2.39795 6.021 2.81868 6.021 3.38086H5.23682C5.23682 3.02637 5.15088 2.77214 4.979 2.61816C4.81071 2.46419 4.56185 2.38721 4.23242 2.38721C3.99609 2.38721 3.79736 2.44629 3.63623 2.56445C3.4751 2.68262 3.35335 2.84733 3.271 3.05859C3.18864 3.26628 3.14746 3.50439 3.14746 3.77295V4.396C3.14746 4.66813 3.18864 4.90983 3.271 5.12109C3.35335 5.32878 3.4751 5.4917 3.63623 5.60986C3.79736 5.72803 3.99609 5.78711 4.23242 5.78711C4.56185 5.78711 4.81071 5.71012 4.979 5.55615C5.1473 5.40218 5.23145 5.14616 5.23145 4.78809ZM1.11182 4.08447C1.11182 4.56071 1.19417 5.00472 1.35889 5.4165C1.5236 5.82829 1.75277 6.18815 2.04639 6.49609C2.34001 6.80404 2.68018 7.04395 3.06689 7.21582C3.45361 7.3877 3.86719 7.47363 4.30762 7.47363C4.74805 7.47363 5.15983 7.3877 5.54297 7.21582C5.92969 7.04395 6.26807 6.80404 6.55811 6.49609C6.85173 6.18815 7.08089 5.82829 7.24561 5.4165C7.41032 5.00472 7.49268 4.56071 7.49268 4.08447C7.49268 3.60465 7.41032 3.16064 7.24561 2.75244C7.08089 2.34424 6.85173 1.98796 6.55811 1.68359C6.26807 1.37565 5.92969 1.13753 5.54297 0.969238C5.15983 0.797363 4.74805 0.711426 4.30762 0.711426C3.86719 0.711426 3.45361 0.797363 3.06689 0.969238C2.68018 1.13753 2.34001 1.37565 2.04639 1.68359C1.75277 1.98796 1.5236 2.34424 1.35889 2.75244C1.19417 3.16064 1.11182 3.60465 1.11182 4.08447ZM0.494141 4.08447C0.494141 3.51514 0.592611 2.98698 0.789551 2.5C0.986491 2.01302 1.26042 1.5887 1.61133 1.22705C1.96224 0.861816 2.36686 0.578939 2.8252 0.378418C3.28711 0.174316 3.78125 0.0722656 4.30762 0.0722656C4.83398 0.0722656 5.32633 0.174316 5.78467 0.378418C6.24658 0.578939 6.6512 0.861816 6.99854 1.22705C7.34945 1.5887 7.62337 2.01302 7.82031 2.5C8.01725 2.98698 8.11572 3.51514 8.11572 4.08447C8.11572 4.65381 8.01725 5.18197 7.82031 5.66895C7.62337 6.15592 7.34945 6.58382 6.99854 6.95264C6.6512 7.31787 6.24658 7.60254 5.78467 7.80664C5.32633 8.01074 4.83398 8.11279 4.30762 8.11279C3.78125 8.11279 3.28711 8.01074 2.8252 7.80664C2.36686 7.60254 1.96224 7.31787 1.61133 6.95264C1.26042 6.58382 0.986491 6.15592 0.789551 5.66895C0.592611 5.18197 0.494141 4.65381 0.494141 4.08447ZM17.1499 7.18359V8H12.0312V7.28564L14.5933 4.43359C14.9084 4.08268 15.1519 3.78548 15.3237 3.54199C15.4992 3.29492 15.6209 3.07471 15.689 2.88135C15.7606 2.68441 15.7964 2.48389 15.7964 2.27979C15.7964 2.02197 15.7427 1.78923 15.6353 1.58154C15.5314 1.37028 15.3774 1.20199 15.1733 1.07666C14.9692 0.951335 14.7222 0.888672 14.4321 0.888672C14.0848 0.888672 13.7948 0.956706 13.562 1.09277C13.3328 1.22526 13.161 1.41146 13.0464 1.65137C12.9318 1.89128 12.8745 2.16699 12.8745 2.47852H11.8809C11.8809 2.03809 11.9775 1.63525 12.1709 1.27002C12.3643 0.904785 12.6507 0.614746 13.0303 0.399902C13.4098 0.181478 13.8771 0.0722656 14.4321 0.0722656C14.9263 0.0722656 15.3488 0.159993 15.6997 0.335449C16.0506 0.507324 16.3192 0.750814 16.5054 1.06592C16.6951 1.37744 16.79 1.74268 16.79 2.16162C16.79 2.39079 16.7507 2.62354 16.6719 2.85986C16.5967 3.09261 16.491 3.32536 16.355 3.55811C16.2225 3.79085 16.0667 4.02002 15.8877 4.24561C15.7122 4.47119 15.5243 4.6932 15.3237 4.91162L13.229 7.18359H17.1499ZM23.1226 3.4668V4.65918C23.1226 5.30013 23.0653 5.84082 22.9507 6.28125C22.8361 6.72168 22.6714 7.07617 22.4565 7.34473C22.2417 7.61328 21.9821 7.80843 21.6777 7.93018C21.377 8.04834 21.0368 8.10742 20.6572 8.10742C20.3564 8.10742 20.0789 8.06982 19.8247 7.99463C19.5705 7.91943 19.3413 7.79948 19.1372 7.63477C18.9367 7.46647 18.7648 7.24805 18.6216 6.97949C18.4784 6.71094 18.3691 6.38509 18.2939 6.00195C18.2188 5.61882 18.1812 5.17122 18.1812 4.65918V3.4668C18.1812 2.82585 18.2384 2.28874 18.353 1.85547C18.4712 1.4222 18.6377 1.07487 18.8525 0.813477C19.0674 0.548503 19.3252 0.358724 19.626 0.244141C19.9303 0.129557 20.2705 0.0722656 20.6465 0.0722656C20.9508 0.0722656 21.2301 0.109863 21.4844 0.185059C21.7422 0.256673 21.9714 0.373047 22.1719 0.53418C22.3724 0.691732 22.5425 0.902995 22.6821 1.16797C22.8254 1.42936 22.9346 1.74984 23.0098 2.12939C23.085 2.50895 23.1226 2.95475 23.1226 3.4668ZM22.1235 4.82031V3.30029C22.1235 2.94938 22.1021 2.64144 22.0591 2.37646C22.0197 2.10791 21.9606 1.87874 21.8818 1.68896C21.8031 1.49919 21.7028 1.34521 21.5811 1.22705C21.4629 1.10889 21.325 1.02295 21.1675 0.969238C21.0135 0.911947 20.8398 0.883301 20.6465 0.883301C20.4102 0.883301 20.2007 0.92806 20.0181 1.01758C19.8354 1.10352 19.6815 1.24137 19.5562 1.43115C19.4344 1.62093 19.3413 1.86979 19.2769 2.17773C19.2124 2.48568 19.1802 2.85986 19.1802 3.30029V4.82031C19.1802 5.17122 19.1999 5.48096 19.2393 5.74951C19.2822 6.01807 19.3449 6.25081 19.4272 6.44775C19.5096 6.64111 19.6099 6.80046 19.728 6.92578C19.8462 7.05111 19.9823 7.14421 20.1362 7.20508C20.2938 7.26237 20.4674 7.29102 20.6572 7.29102C20.9007 7.29102 21.1138 7.24447 21.2964 7.15137C21.479 7.05827 21.6312 6.91325 21.7529 6.71631C21.8783 6.51579 21.9714 6.25977 22.0322 5.94824C22.0931 5.63314 22.1235 5.25716 22.1235 4.82031ZM29.5249 7.18359V8H24.4062V7.28564L26.9683 4.43359C27.2834 4.08268 27.5269 3.78548 27.6987 3.54199C27.8742 3.29492 27.9959 3.07471 28.064 2.88135C28.1356 2.68441 28.1714 2.48389 28.1714 2.27979C28.1714 2.02197 28.1177 1.78923 28.0103 1.58154C27.9064 1.37028 27.7524 1.20199 27.5483 1.07666C27.3442 0.951335 27.0972 0.888672 26.8071 0.888672C26.4598 0.888672 26.1698 0.956706 25.937 1.09277C25.7078 1.22526 25.536 1.41146 25.4214 1.65137C25.3068 1.89128 25.2495 2.16699 25.2495 2.47852H24.2559C24.2559 2.03809 24.3525 1.63525 24.5459 1.27002C24.7393 0.904785 25.0257 0.614746 25.4053 0.399902C25.7848 0.181478 26.2521 0.0722656 26.8071 0.0722656C27.3013 0.0722656 27.7238 0.159993 28.0747 0.335449C28.4256 0.507324 28.6942 0.750814 28.8804 1.06592C29.0701 1.37744 29.165 1.74268 29.165 2.16162C29.165 2.39079 29.1257 2.62354 29.0469 2.85986C28.9717 3.09261 28.866 3.32536 28.73 3.55811C28.5975 3.79085 28.4417 4.02002 28.2627 4.24561C28.0872 4.47119 27.8993 4.6932 27.6987 4.91162L25.604 7.18359H29.5249ZM32.0386 3.60107H32.7476C33.0949 3.60107 33.3813 3.54378 33.6069 3.4292C33.8361 3.31104 34.0062 3.15169 34.1172 2.95117C34.2318 2.74707 34.2891 2.5179 34.2891 2.26367C34.2891 1.96289 34.2389 1.71045 34.1387 1.50635C34.0384 1.30225 33.888 1.14827 33.6875 1.04443C33.487 0.940592 33.2327 0.888672 32.9248 0.888672C32.6455 0.888672 32.3984 0.944173 32.1836 1.05518C31.9723 1.1626 31.8058 1.31657 31.6841 1.51709C31.5659 1.71761 31.5068 1.95394 31.5068 2.22607H30.5132C30.5132 1.82861 30.6134 1.46696 30.814 1.14111C31.0145 0.815267 31.2956 0.555664 31.6572 0.362305C32.0225 0.168945 32.445 0.0722656 32.9248 0.0722656C33.3975 0.0722656 33.811 0.156413 34.1655 0.324707C34.52 0.489421 34.7957 0.736491 34.9927 1.06592C35.1896 1.39176 35.2881 1.79818 35.2881 2.28516C35.2881 2.4821 35.2415 2.69336 35.1484 2.91895C35.0589 3.14095 34.9175 3.34863 34.7241 3.54199C34.5343 3.73535 34.2873 3.89469 33.9829 4.02002C33.6785 4.14176 33.3133 4.20264 32.8872 4.20264H32.0386V3.60107ZM32.0386 4.41748V3.82129H32.8872C33.3849 3.82129 33.7967 3.88037 34.1226 3.99854C34.4484 4.1167 34.7044 4.27425 34.8906 4.47119C35.0804 4.66813 35.2129 4.88477 35.2881 5.12109C35.3669 5.35384 35.4062 5.58659 35.4062 5.81934C35.4062 6.18457 35.3436 6.50863 35.2183 6.7915C35.0965 7.07438 34.9229 7.31429 34.6973 7.51123C34.4753 7.70817 34.2139 7.85677 33.9131 7.95703C33.6123 8.05729 33.2847 8.10742 32.9302 8.10742C32.59 8.10742 32.2695 8.05908 31.9688 7.9624C31.6715 7.86572 31.4084 7.72607 31.1792 7.54346C30.95 7.35726 30.771 7.12988 30.6421 6.86133C30.5132 6.58919 30.4487 6.27946 30.4487 5.93213H31.4424C31.4424 6.20426 31.5015 6.44238 31.6196 6.64648C31.7414 6.85059 31.9132 7.00993 32.1353 7.12451C32.3608 7.23551 32.6258 7.29102 32.9302 7.29102C33.2345 7.29102 33.4959 7.2391 33.7144 7.13525C33.9364 7.02783 34.1064 6.8667 34.2246 6.65186C34.3464 6.43701 34.4072 6.16667 34.4072 5.84082C34.4072 5.51497 34.3392 5.24821 34.2031 5.04053C34.0671 4.82926 33.8737 4.6735 33.623 4.57324C33.376 4.4694 33.0841 4.41748 32.7476 4.41748H32.0386ZM40.874 0.179688V8H39.8374V0.179688H40.874ZM48.7749 0.179688V8H47.7329L43.7959 1.96826V8H42.7593V0.179688H43.7959L47.749 6.22754V0.179688H48.7749ZM54.7798 6.02344C54.7798 5.84082 54.7511 5.67969 54.6938 5.54004C54.6401 5.39681 54.5435 5.2679 54.4038 5.15332C54.2677 5.03874 54.078 4.92952 53.8345 4.82568C53.5946 4.72184 53.2902 4.61621 52.9214 4.50879C52.5347 4.39421 52.1855 4.26709 51.874 4.12744C51.5625 3.98421 51.2957 3.82129 51.0737 3.63867C50.8517 3.45605 50.6816 3.24658 50.5635 3.01025C50.4453 2.77393 50.3862 2.50358 50.3862 2.19922C50.3862 1.89486 50.4489 1.61377 50.5742 1.35596C50.6995 1.09814 50.8786 0.874349 51.1113 0.68457C51.3477 0.491211 51.6287 0.34082 51.9546 0.233398C52.2804 0.125977 52.6439 0.0722656 53.0449 0.0722656C53.6322 0.0722656 54.1299 0.185059 54.5381 0.410645C54.9499 0.63265 55.2632 0.924479 55.478 1.28613C55.6929 1.64421 55.8003 2.02734 55.8003 2.43555H54.769C54.769 2.14193 54.7064 1.88232 54.5811 1.65674C54.4557 1.42757 54.266 1.24854 54.0117 1.11963C53.7575 0.987142 53.4352 0.920898 53.0449 0.920898C52.6761 0.920898 52.3717 0.9764 52.1318 1.0874C51.8919 1.1984 51.7129 1.3488 51.5947 1.53857C51.4801 1.72835 51.4229 1.94499 51.4229 2.18848C51.4229 2.35319 51.4569 2.50358 51.5249 2.63965C51.5965 2.77214 51.7057 2.89567 51.8525 3.01025C52.0029 3.12484 52.1927 3.23047 52.4219 3.32715C52.6546 3.42383 52.9321 3.51693 53.2544 3.60645C53.6984 3.73177 54.0815 3.87142 54.4038 4.02539C54.7261 4.17936 54.991 4.35303 55.1987 4.54639C55.41 4.73617 55.5658 4.9528 55.666 5.19629C55.7699 5.4362 55.8218 5.70833 55.8218 6.0127C55.8218 6.33138 55.7573 6.61963 55.6284 6.87744C55.4995 7.13525 55.3151 7.35547 55.0752 7.53809C54.8353 7.7207 54.547 7.86214 54.2104 7.9624C53.8774 8.05908 53.505 8.10742 53.0933 8.10742C52.7316 8.10742 52.3753 8.05729 52.0244 7.95703C51.6771 7.85677 51.3602 7.70638 51.0737 7.50586C50.7909 7.30534 50.5635 7.05827 50.3916 6.76465C50.2233 6.46745 50.1392 6.1237 50.1392 5.7334H51.1704C51.1704 6.00195 51.2223 6.23291 51.3262 6.42627C51.43 6.61605 51.5715 6.7736 51.7505 6.89893C51.9331 7.02425 52.139 7.11735 52.3682 7.17822C52.6009 7.23551 52.8426 7.26416 53.0933 7.26416C53.4549 7.26416 53.7611 7.21403 54.0117 7.11377C54.2624 7.01351 54.4521 6.87028 54.5811 6.68408C54.7135 6.49788 54.7798 6.27767 54.7798 6.02344ZM60.0327 0.179688V8H59.0122V0.179688H60.0327ZM62.5464 0.179688V1.02832H56.5039V0.179688H62.5464ZM66.1719 0.872559L63.583 8H62.5249L65.5059 0.179688H66.188L66.1719 0.872559ZM68.3418 8L65.7476 0.872559L65.7314 0.179688H66.4136L69.4053 8H68.3418ZM68.2075 5.10498V5.95361H63.814V5.10498H68.2075ZM76.1675 4.10596V6.96875C76.0708 7.11198 75.9168 7.27311 75.7056 7.45215C75.4943 7.6276 75.2025 7.78158 74.8301 7.91406C74.4613 8.04297 73.985 8.10742 73.4014 8.10742C72.9251 8.10742 72.4865 8.02507 72.0854 7.86035C71.688 7.69206 71.3424 7.44857 71.0488 7.12988C70.7588 6.80762 70.5332 6.41732 70.3721 5.95898C70.2145 5.49707 70.1357 4.97428 70.1357 4.39062V3.78369C70.1357 3.20003 70.2038 2.67904 70.3398 2.2207C70.4795 1.76237 70.6836 1.37386 70.9521 1.05518C71.2207 0.73291 71.5501 0.489421 71.9404 0.324707C72.3307 0.156413 72.7783 0.0722656 73.2832 0.0722656C73.8812 0.0722656 74.3807 0.176107 74.7817 0.383789C75.1864 0.587891 75.5015 0.870768 75.7271 1.23242C75.9562 1.59408 76.103 2.00586 76.1675 2.46777H75.1309C75.0843 2.1849 74.9912 1.92708 74.8516 1.69434C74.7155 1.46159 74.5203 1.27539 74.2661 1.13574C74.0119 0.992513 73.6842 0.920898 73.2832 0.920898C72.9215 0.920898 72.6082 0.987142 72.3433 1.11963C72.0783 1.25212 71.8599 1.44189 71.688 1.68896C71.5161 1.93604 71.3872 2.23503 71.3013 2.58594C71.2189 2.93685 71.1777 3.33252 71.1777 3.77295V4.39062C71.1777 4.8418 71.2297 5.24463 71.3335 5.59912C71.4409 5.95361 71.5931 6.25618 71.79 6.50684C71.987 6.75391 72.2215 6.94189 72.4937 7.0708C72.7694 7.19971 73.0737 7.26416 73.4067 7.26416C73.7756 7.26416 74.0745 7.23372 74.3037 7.17285C74.5329 7.1084 74.7119 7.0332 74.8408 6.94727C74.9697 6.85775 75.0682 6.7736 75.1362 6.69482V4.94385H73.3262V4.10596H76.1675ZM77.8862 0.179688H80.4751C81.0623 0.179688 81.5583 0.269206 81.9629 0.448242C82.3711 0.627279 82.6808 0.892253 82.8921 1.24316C83.1069 1.59049 83.2144 2.01839 83.2144 2.52686C83.2144 2.88493 83.141 3.21257 82.9941 3.50977C82.8509 3.80339 82.6432 4.05404 82.3711 4.26172C82.1025 4.46582 81.7803 4.618 81.4043 4.71826L81.1143 4.83105H78.6812L78.6704 3.98779H80.5073C80.8797 3.98779 81.1895 3.92334 81.4365 3.79443C81.6836 3.66195 81.8698 3.4847 81.9951 3.2627C82.1204 3.04069 82.1831 2.79541 82.1831 2.52686C82.1831 2.22607 82.124 1.96289 82.0059 1.7373C81.8877 1.51172 81.7015 1.33805 81.4473 1.21631C81.1966 1.09098 80.8726 1.02832 80.4751 1.02832H78.9229V8H77.8862V0.179688ZM82.457 8L80.5557 4.45508L81.6353 4.44971L83.5635 7.93555V8H82.457ZM87.5596 0.872559L84.9707 8H83.9126L86.8936 0.179688H87.5757L87.5596 0.872559ZM89.7295 8L87.1353 0.872559L87.1191 0.179688H87.8013L90.793 8H89.7295ZM89.5952 5.10498V5.95361H85.2017V5.10498H89.5952ZM92.168 0.179688H93.1724L95.7344 6.55518L98.291 0.179688H99.3008L96.1211 8H95.3369L92.168 0.179688ZM91.8403 0.179688H92.7266L92.8716 4.94922V8H91.8403V0.179688ZM98.7368 0.179688H99.623V8H98.5918V4.94922L98.7368 0.179688ZM105.209 0.179688V8H104.172V0.179688H105.209ZM108.485 3.69775V4.54639H104.983V3.69775H108.485ZM109.017 0.179688V1.02832H104.983V0.179688H109.017ZM110.252 0.179688H112.841C113.429 0.179688 113.924 0.269206 114.329 0.448242C114.737 0.627279 115.047 0.892253 115.258 1.24316C115.473 1.59049 115.581 2.01839 115.581 2.52686C115.581 2.88493 115.507 3.21257 115.36 3.50977C115.217 3.80339 115.009 4.05404 114.737 4.26172C114.469 4.46582 114.146 4.618 113.771 4.71826L113.48 4.83105H111.047L111.037 3.98779H112.874C113.246 3.98779 113.556 3.92334 113.803 3.79443C114.05 3.66195 114.236 3.4847 114.361 3.2627C114.487 3.04069 114.549 2.79541 114.549 2.52686C114.549 2.22607 114.49 1.96289 114.372 1.7373C114.254 1.51172 114.068 1.33805 113.813 1.21631C113.563 1.09098 113.239 1.02832 112.841 1.02832H111.289V8H110.252V0.179688ZM114.823 8L112.922 4.45508L114.001 4.44971L115.93 7.93555V8H114.823ZM123.052 3.84277V4.33691C123.052 4.92415 122.978 5.45052 122.832 5.91602C122.685 6.38151 122.473 6.77718 122.198 7.10303C121.922 7.42887 121.591 7.67773 121.204 7.84961C120.821 8.02148 120.391 8.10742 119.915 8.10742C119.453 8.10742 119.029 8.02148 118.642 7.84961C118.259 7.67773 117.926 7.42887 117.643 7.10303C117.364 6.77718 117.147 6.38151 116.993 5.91602C116.839 5.45052 116.762 4.92415 116.762 4.33691V3.84277C116.762 3.25553 116.837 2.73096 116.988 2.26904C117.142 1.80355 117.358 1.40788 117.638 1.08203C117.917 0.752604 118.248 0.501953 118.631 0.330078C119.018 0.158203 119.442 0.0722656 119.904 0.0722656C120.381 0.0722656 120.81 0.158203 121.193 0.330078C121.58 0.501953 121.911 0.752604 122.187 1.08203C122.466 1.40788 122.679 1.80355 122.826 2.26904C122.977 2.73096 123.052 3.25553 123.052 3.84277ZM122.026 4.33691V3.83203C122.026 3.36654 121.978 2.95475 121.881 2.59668C121.788 2.23861 121.65 1.93783 121.467 1.69434C121.285 1.45085 121.061 1.26644 120.796 1.14111C120.535 1.01579 120.237 0.953125 119.904 0.953125C119.582 0.953125 119.29 1.01579 119.029 1.14111C118.771 1.26644 118.549 1.45085 118.363 1.69434C118.18 1.93783 118.039 2.23861 117.938 2.59668C117.838 2.95475 117.788 3.36654 117.788 3.83203V4.33691C117.788 4.80599 117.838 5.22135 117.938 5.58301C118.039 5.94108 118.182 6.24365 118.368 6.49072C118.558 6.73421 118.782 6.91862 119.04 7.04395C119.301 7.16927 119.593 7.23193 119.915 7.23193C120.252 7.23193 120.551 7.16927 120.812 7.04395C121.073 6.91862 121.294 6.73421 121.473 6.49072C121.655 6.24365 121.793 5.94108 121.886 5.58301C121.979 5.22135 122.026 4.80599 122.026 4.33691ZM124.932 0.179688H125.936L128.498 6.55518L131.055 0.179688H132.064L128.885 8H128.101L124.932 0.179688ZM124.604 0.179688H125.49L125.635 4.94922V8H124.604V0.179688ZM131.5 0.179688H132.387V8H131.355V4.94922L131.5 0.179688ZM137.264 0.179688H138.268L140.83 6.55518L143.387 0.179688H144.396L141.217 8H140.433L137.264 0.179688ZM136.936 0.179688H137.822L137.967 4.94922V8H136.936V0.179688ZM143.833 0.179688H144.719V8H143.688V4.94922L143.833 0.179688ZM151.508 7.15674V8H147.367V7.15674H151.508ZM147.576 0.179688V8H146.54V0.179688H147.576ZM150.96 3.54199V4.38525H147.367V3.54199H150.96ZM151.454 0.179688V1.02832H147.367V0.179688H151.454ZM155.789 0.179688V8H154.768V0.179688H155.789ZM158.302 0.179688V1.02832H152.26V0.179688H158.302ZM161.928 0.872559L159.339 8H158.281L161.262 0.179688H161.944L161.928 0.872559ZM164.098 8L161.503 0.872559L161.487 0.179688H162.169L165.161 8H164.098ZM163.963 5.10498V5.95361H159.57V5.10498H163.963Z" fill="#C7C7C7"/>
</svg>
