<svg width="35" height="10" viewBox="0 0 35 10" fill="none" xmlns="http://www.w3.org/2000/svg">
<path d="M2.12891 0.96875V9.5H0.517578V0.96875H2.12891ZM5.56836 4.6543V5.92578H1.70703V4.6543H5.56836ZM6.01953 0.96875V2.24023H1.70703V0.96875H6.01953ZM6.59375 6.39453V6.27148C6.59375 5.80664 6.66016 5.37891 6.79297 4.98828C6.92578 4.59375 7.11914 4.25195 7.37305 3.96289C7.62695 3.67383 7.9375 3.44922 8.30469 3.28906C8.67188 3.125 9.08984 3.04297 9.55859 3.04297C10.0352 3.04297 10.457 3.125 10.8242 3.28906C11.1953 3.44922 11.5078 3.67383 11.7617 3.96289C12.0156 4.25195 12.209 4.59375 12.3418 4.98828C12.4746 5.37891 12.541 5.80664 12.541 6.27148V6.39453C12.541 6.85547 12.4746 7.2832 12.3418 7.67773C12.209 8.06836 12.0156 8.41016 11.7617 8.70312C11.5078 8.99219 11.1973 9.2168 10.8301 9.37695C10.4629 9.53711 10.043 9.61719 9.57031 9.61719C9.10156 9.61719 8.68164 9.53711 8.31055 9.37695C7.93945 9.2168 7.62695 8.99219 7.37305 8.70312C7.11914 8.41016 6.92578 8.06836 6.79297 7.67773C6.66016 7.2832 6.59375 6.85547 6.59375 6.39453ZM8.14062 6.27148V6.39453C8.14062 6.67188 8.16797 6.93164 8.22266 7.17383C8.27734 7.41602 8.36133 7.62891 8.47461 7.8125C8.58789 7.99609 8.73438 8.14062 8.91406 8.24609C9.09766 8.34766 9.31641 8.39844 9.57031 8.39844C9.82031 8.39844 10.0352 8.34766 10.2148 8.24609C10.3945 8.14062 10.541 7.99609 10.6543 7.8125C10.7715 7.62891 10.8574 7.41602 10.9121 7.17383C10.9668 6.93164 10.9941 6.67188 10.9941 6.39453V6.27148C10.9941 5.99805 10.9668 5.74219 10.9121 5.50391C10.8574 5.26172 10.7715 5.04883 10.6543 4.86523C10.541 4.67773 10.3926 4.53125 10.209 4.42578C10.0293 4.31641 9.8125 4.26172 9.55859 4.26172C9.30859 4.26172 9.09375 4.31641 8.91406 4.42578C8.73438 4.53125 8.58789 4.67773 8.47461 4.86523C8.36133 5.04883 8.27734 5.26172 8.22266 5.50391C8.16797 5.74219 8.14062 5.99805 8.14062 6.27148ZM15.3066 0.5V9.5H13.7539V0.5H15.3066ZM18.4238 0.5V9.5H16.8711V0.5H18.4238ZM19.625 6.39453V6.27148C19.625 5.80664 19.6914 5.37891 19.8242 4.98828C19.957 4.59375 20.1504 4.25195 20.4043 3.96289C20.6582 3.67383 20.9688 3.44922 21.3359 3.28906C21.7031 3.125 22.1211 3.04297 22.5898 3.04297C23.0664 3.04297 23.4883 3.125 23.8555 3.28906C24.2266 3.44922 24.5391 3.67383 24.793 3.96289C25.0469 4.25195 25.2402 4.59375 25.373 4.98828C25.5059 5.37891 25.5723 5.80664 25.5723 6.27148V6.39453C25.5723 6.85547 25.5059 7.2832 25.373 7.67773C25.2402 8.06836 25.0469 8.41016 24.793 8.70312C24.5391 8.99219 24.2285 9.2168 23.8613 9.37695C23.4941 9.53711 23.0742 9.61719 22.6016 9.61719C22.1328 9.61719 21.7129 9.53711 21.3418 9.37695C20.9707 9.2168 20.6582 8.99219 20.4043 8.70312C20.1504 8.41016 19.957 8.06836 19.8242 7.67773C19.6914 7.2832 19.625 6.85547 19.625 6.39453ZM21.1719 6.27148V6.39453C21.1719 6.67188 21.1992 6.93164 21.2539 7.17383C21.3086 7.41602 21.3926 7.62891 21.5059 7.8125C21.6191 7.99609 21.7656 8.14062 21.9453 8.24609C22.1289 8.34766 22.3477 8.39844 22.6016 8.39844C22.8516 8.39844 23.0664 8.34766 23.2461 8.24609C23.4258 8.14062 23.5723 7.99609 23.6855 7.8125C23.8027 7.62891 23.8887 7.41602 23.9434 7.17383C23.998 6.93164 24.0254 6.67188 24.0254 6.39453V6.27148C24.0254 5.99805 23.998 5.74219 23.9434 5.50391C23.8887 5.26172 23.8027 5.04883 23.6855 4.86523C23.5723 4.67773 23.4238 4.53125 23.2402 4.42578C23.0605 4.31641 22.8438 4.26172 22.5898 4.26172C22.3398 4.26172 22.125 4.31641 21.9453 4.42578C21.7656 4.53125 21.6191 4.67773 21.5059 4.86523C21.3926 5.04883 21.3086 5.26172 21.2539 5.50391C21.1992 5.74219 21.1719 5.99805 21.1719 6.27148ZM28.4609 7.97656L29.8496 3.16016H30.834L30.541 4.82422L29.1406 9.5H28.291L28.4609 7.97656ZM27.6934 3.16016L28.7363 7.98828L28.8301 9.5H27.8516L26.1875 3.16016H27.6934ZM32.123 7.91797L33.1426 3.16016H34.6426L32.9902 9.5H32.0117L32.123 7.91797ZM30.9863 3.16016L32.3633 7.92969L32.5449 9.5H31.6953L30.2832 4.82422L29.9961 3.16016H30.9863Z" fill="#0095F6"/>
</svg>
