<svg width="319" height="36" viewBox="0 0 319 36" fill="none" xmlns="http://www.w3.org/2000/svg">
<path d="M4.14844 5.22461L1.32422 13H0.169922L3.42188 4.46875H4.16602L4.14844 5.22461ZM6.51562 13L3.68555 5.22461L3.66797 4.46875H4.41211L7.67578 13H6.51562ZM6.36914 9.8418V10.7676H1.57617V9.8418H6.36914ZM8.64844 4H9.73828V11.7695L9.64453 13H8.64844V4ZM14.0215 9.77734V9.90039C14.0215 10.3613 13.9668 10.7891 13.8574 11.1836C13.748 11.5742 13.5879 11.9141 13.377 12.2031C13.166 12.4922 12.9082 12.7168 12.6035 12.877C12.2988 13.0371 11.9492 13.1172 11.5547 13.1172C11.1523 13.1172 10.7988 13.0488 10.4941 12.9121C10.1934 12.7715 9.93945 12.5703 9.73242 12.3086C9.52539 12.0469 9.35938 11.7305 9.23438 11.3594C9.11328 10.9883 9.0293 10.5703 8.98242 10.1055V9.56641C9.0293 9.09766 9.11328 8.67773 9.23438 8.30664C9.35938 7.93555 9.52539 7.61914 9.73242 7.35742C9.93945 7.0918 10.1934 6.89062 10.4941 6.75391C10.7949 6.61328 11.1445 6.54297 11.543 6.54297C11.9414 6.54297 12.2949 6.62109 12.6035 6.77734C12.9121 6.92969 13.1699 7.14844 13.377 7.43359C13.5879 7.71875 13.748 8.06055 13.8574 8.45898C13.9668 8.85352 14.0215 9.29297 14.0215 9.77734ZM12.9316 9.90039V9.77734C12.9316 9.46094 12.9023 9.16406 12.8438 8.88672C12.7852 8.60547 12.6914 8.35938 12.5625 8.14844C12.4336 7.93359 12.2637 7.76562 12.0527 7.64453C11.8418 7.51953 11.582 7.45703 11.2734 7.45703C11 7.45703 10.7617 7.50391 10.5586 7.59766C10.3594 7.69141 10.1895 7.81836 10.0488 7.97852C9.9082 8.13477 9.79297 8.31445 9.70312 8.51758C9.61719 8.7168 9.55273 8.92383 9.50977 9.13867V10.5508C9.57227 10.8242 9.67383 11.0879 9.81445 11.3418C9.95898 11.5918 10.1504 11.7969 10.3887 11.957C10.6309 12.1172 10.9297 12.1973 11.2852 12.1973C11.5781 12.1973 11.8281 12.1387 12.0352 12.0215C12.2461 11.9004 12.416 11.7344 12.5449 11.5234C12.6777 11.3125 12.7754 11.0684 12.8379 10.791C12.9004 10.5137 12.9316 10.2168 12.9316 9.90039ZM15.1055 9.90039V9.76562C15.1055 9.30859 15.1719 8.88477 15.3047 8.49414C15.4375 8.09961 15.6289 7.75781 15.8789 7.46875C16.1289 7.17578 16.4316 6.94922 16.7871 6.78906C17.1426 6.625 17.541 6.54297 17.9824 6.54297C18.4277 6.54297 18.8281 6.625 19.1836 6.78906C19.543 6.94922 19.8477 7.17578 20.0977 7.46875C20.3516 7.75781 20.5449 8.09961 20.6777 8.49414C20.8105 8.88477 20.877 9.30859 20.877 9.76562V9.90039C20.877 10.3574 20.8105 10.7812 20.6777 11.1719C20.5449 11.5625 20.3516 11.9043 20.0977 12.1973C19.8477 12.4863 19.5449 12.7129 19.1895 12.877C18.8379 13.0371 18.4395 13.1172 17.9941 13.1172C17.5488 13.1172 17.1484 13.0371 16.793 12.877C16.4375 12.7129 16.1328 12.4863 15.8789 12.1973C15.6289 11.9043 15.4375 11.5625 15.3047 11.1719C15.1719 10.7812 15.1055 10.3574 15.1055 9.90039ZM16.1895 9.76562V9.90039C16.1895 10.2168 16.2266 10.5156 16.3008 10.7969C16.375 11.0742 16.4863 11.3203 16.6348 11.5352C16.7871 11.75 16.9766 11.9199 17.2031 12.0449C17.4297 12.166 17.6934 12.2266 17.9941 12.2266C18.291 12.2266 18.5508 12.166 18.7734 12.0449C19 11.9199 19.1875 11.75 19.3359 11.5352C19.4844 11.3203 19.5957 11.0742 19.6699 10.7969C19.748 10.5156 19.7871 10.2168 19.7871 9.90039V9.76562C19.7871 9.45312 19.748 9.1582 19.6699 8.88086C19.5957 8.59961 19.4824 8.35156 19.3301 8.13672C19.1816 7.91797 18.9941 7.74609 18.7676 7.62109C18.5449 7.49609 18.2832 7.43359 17.9824 7.43359C17.6855 7.43359 17.4238 7.49609 17.1973 7.62109C16.9746 7.74609 16.7871 7.91797 16.6348 8.13672C16.4863 8.35156 16.375 8.59961 16.3008 8.88086C16.2266 9.1582 16.1895 9.45312 16.1895 9.76562ZM26.1152 11.5352V6.66016H27.2051V13H26.168L26.1152 11.5352ZM26.3203 10.1992L26.7715 10.1875C26.7715 10.6094 26.7266 11 26.6367 11.3594C26.5508 11.7148 26.4102 12.0234 26.2148 12.2852C26.0195 12.5469 25.7637 12.752 25.4473 12.9004C25.1309 13.0449 24.7461 13.1172 24.293 13.1172C23.9844 13.1172 23.7012 13.0723 23.4434 12.9824C23.1895 12.8926 22.9707 12.7539 22.7871 12.5664C22.6035 12.3789 22.4609 12.1348 22.3594 11.834C22.2617 11.5332 22.2129 11.1719 22.2129 10.75V6.66016H23.2969V10.7617C23.2969 11.0469 23.3281 11.2832 23.3906 11.4707C23.457 11.6543 23.5449 11.8008 23.6543 11.9102C23.7676 12.0156 23.8926 12.0898 24.0293 12.1328C24.1699 12.1758 24.3145 12.1973 24.4629 12.1973C24.9238 12.1973 25.2891 12.1094 25.5586 11.9336C25.8281 11.7539 26.0215 11.5137 26.1387 11.2129C26.2598 10.9082 26.3203 10.5703 26.3203 10.1992ZM31.5117 6.66016V7.49219H28.084V6.66016H31.5117ZM29.2441 5.11914H30.3281V11.4297C30.3281 11.6445 30.3613 11.8066 30.4277 11.916C30.4941 12.0254 30.5801 12.0977 30.6855 12.1328C30.791 12.168 30.9043 12.1855 31.0254 12.1855C31.1152 12.1855 31.209 12.1777 31.3066 12.1621C31.4082 12.1426 31.4844 12.127 31.5352 12.1152L31.541 13C31.4551 13.0273 31.3418 13.0527 31.2012 13.0762C31.0645 13.1035 30.8984 13.1172 30.7031 13.1172C30.4375 13.1172 30.1934 13.0645 29.9707 12.959C29.748 12.8535 29.5703 12.6777 29.4375 12.4316C29.3086 12.1816 29.2441 11.8457 29.2441 11.4238V5.11914ZM35.8008 8.72852C35.8008 8.54492 35.8574 8.39062 35.9707 8.26562C36.084 8.13672 36.25 8.07227 36.4688 8.07227C36.6875 8.07227 36.8535 8.13672 36.9668 8.26562C37.084 8.39062 37.1426 8.54492 37.1426 8.72852C37.1426 8.9082 37.084 9.06055 36.9668 9.18555C36.8535 9.30664 36.6875 9.36719 36.4688 9.36719C36.25 9.36719 36.084 9.30664 35.9707 9.18555C35.8574 9.06055 35.8008 8.9082 35.8008 8.72852Z" fill="#C7C7C7"/>
<path d="M47.3125 8.54199V9.38525H43.0801V8.54199H47.3125ZM43.2412 5.17969V13H42.2046V5.17969H43.2412ZM48.2148 5.17969V13H47.1836V5.17969H48.2148ZM52.3184 13.1074C51.9137 13.1074 51.5467 13.0394 51.2173 12.9033C50.8914 12.7637 50.6104 12.5685 50.374 12.3179C50.1413 12.0672 49.9622 11.77 49.8369 11.4263C49.7116 11.0825 49.6489 10.7065 49.6489 10.2983V10.0728C49.6489 9.6001 49.7188 9.17936 49.8584 8.81055C49.998 8.43815 50.1878 8.12305 50.4277 7.86523C50.6676 7.60742 50.9398 7.41227 51.2441 7.27979C51.5485 7.1473 51.8636 7.08105 52.1895 7.08105C52.6048 7.08105 52.9629 7.15267 53.2637 7.2959C53.568 7.43913 53.8169 7.63965 54.0103 7.89746C54.2036 8.15169 54.3468 8.45247 54.4399 8.7998C54.533 9.14355 54.5796 9.51953 54.5796 9.92773V10.3735H50.2397V9.5625H53.5859V9.4873C53.5716 9.22949 53.5179 8.97884 53.4248 8.73535C53.3353 8.49186 53.1921 8.29134 52.9951 8.13379C52.7982 7.97624 52.5296 7.89746 52.1895 7.89746C51.9639 7.89746 51.7562 7.9458 51.5664 8.04248C51.3766 8.13558 51.2137 8.27523 51.0776 8.46143C50.9416 8.64762 50.8359 8.875 50.7607 9.14355C50.6855 9.41211 50.6479 9.72184 50.6479 10.0728V10.2983C50.6479 10.5741 50.6855 10.8337 50.7607 11.0771C50.8395 11.3171 50.9523 11.5283 51.0991 11.7109C51.2495 11.8936 51.4303 12.0368 51.6416 12.1406C51.8564 12.2445 52.0999 12.2964 52.3721 12.2964C52.723 12.2964 53.0202 12.2248 53.2637 12.0815C53.5072 11.9383 53.7202 11.7467 53.9028 11.5068L54.5044 11.9849C54.3791 12.1746 54.2197 12.3555 54.0264 12.5273C53.833 12.6992 53.5949 12.8389 53.312 12.9463C53.0327 13.0537 52.7015 13.1074 52.3184 13.1074ZM56.8193 4.75V13H55.8203V4.75H56.8193ZM59.4082 8.30566V15.2344H58.4092V7.18848H59.3223L59.4082 8.30566ZM63.3237 10.0459V10.1587C63.3237 10.5812 63.2736 10.9733 63.1733 11.335C63.0731 11.693 62.9263 12.0046 62.7329 12.2695C62.5431 12.5345 62.3086 12.7404 62.0293 12.8872C61.75 13.034 61.4295 13.1074 61.0679 13.1074C60.6991 13.1074 60.3732 13.0465 60.0903 12.9248C59.8075 12.8031 59.5675 12.6258 59.3706 12.3931C59.1737 12.1603 59.0161 11.881 58.8979 11.5552C58.7834 11.2293 58.7046 10.8623 58.6616 10.4541V9.85254C58.7046 9.42285 58.7852 9.03792 58.9033 8.69775C59.0215 8.35758 59.1772 8.06755 59.3706 7.82764C59.5675 7.58415 59.8057 7.39974 60.085 7.27441C60.3643 7.14551 60.6865 7.08105 61.0518 7.08105C61.417 7.08105 61.741 7.15267 62.0239 7.2959C62.3068 7.43555 62.5449 7.63607 62.7383 7.89746C62.9316 8.15885 63.0767 8.47217 63.1733 8.8374C63.2736 9.19906 63.3237 9.60189 63.3237 10.0459ZM62.3247 10.1587V10.0459C62.3247 9.75586 62.2943 9.48372 62.2334 9.22949C62.1725 8.97168 62.0776 8.74609 61.9487 8.55273C61.8234 8.35579 61.6623 8.20182 61.4653 8.09082C61.2684 7.97624 61.0339 7.91895 60.7617 7.91895C60.5111 7.91895 60.2926 7.96191 60.1064 8.04785C59.9238 8.13379 59.7681 8.25016 59.6392 8.39697C59.5103 8.5402 59.4046 8.70492 59.3223 8.89111C59.2435 9.07373 59.1844 9.26351 59.145 9.46045V10.8516C59.2166 11.1022 59.3169 11.3385 59.4458 11.5605C59.5747 11.779 59.7466 11.9562 59.9614 12.0923C60.1763 12.2248 60.4466 12.291 60.7725 12.291C61.041 12.291 61.272 12.2355 61.4653 12.1245C61.6623 12.0099 61.8234 11.8542 61.9487 11.6572C62.0776 11.4603 62.1725 11.2347 62.2334 10.9805C62.2943 10.7227 62.3247 10.4487 62.3247 10.1587ZM67.3574 9.08447C67.3574 8.91618 67.4093 8.77474 67.5132 8.66016C67.617 8.54199 67.7692 8.48291 67.9697 8.48291C68.1702 8.48291 68.3224 8.54199 68.4263 8.66016C68.5337 8.77474 68.5874 8.91618 68.5874 9.08447C68.5874 9.24919 68.5337 9.38883 68.4263 9.50342C68.3224 9.61442 68.1702 9.66992 67.9697 9.66992C67.7692 9.66992 67.617 9.61442 67.5132 9.50342C67.4093 9.38883 67.3574 9.24919 67.3574 9.08447Z" fill="#C7C7C7"/>
<path d="M78.1191 9.21191H76.2197V8.44531H78.1191C78.487 8.44531 78.7848 8.38672 79.0127 8.26953C79.2406 8.15234 79.4066 7.98958 79.5107 7.78125C79.6182 7.57292 79.6719 7.33529 79.6719 7.06836C79.6719 6.82422 79.6182 6.59473 79.5107 6.37988C79.4066 6.16504 79.2406 5.99251 79.0127 5.8623C78.7848 5.72884 78.487 5.66211 78.1191 5.66211H76.4395V12H75.4971V4.89062H78.1191C78.6562 4.89062 79.1104 4.9834 79.4814 5.16895C79.8525 5.35449 80.1341 5.61165 80.3262 5.94043C80.5182 6.26595 80.6143 6.63867 80.6143 7.05859C80.6143 7.51432 80.5182 7.90332 80.3262 8.22559C80.1341 8.54785 79.8525 8.79362 79.4814 8.96289C79.1104 9.12891 78.6562 9.21191 78.1191 9.21191ZM82.5723 7.54688V12H81.6689V6.7168H82.5479L82.5723 7.54688ZM84.2227 6.6875L84.2178 7.52734C84.1429 7.51107 84.0713 7.5013 84.0029 7.49805C83.9378 7.49154 83.863 7.48828 83.7783 7.48828C83.57 7.48828 83.3861 7.52083 83.2266 7.58594C83.0671 7.65104 82.932 7.74219 82.8213 7.85938C82.7106 7.97656 82.6227 8.11654 82.5576 8.2793C82.4958 8.4388 82.4551 8.61458 82.4355 8.80664L82.1816 8.95312C82.1816 8.63411 82.2126 8.33464 82.2744 8.05469C82.3395 7.77474 82.4388 7.52734 82.5723 7.3125C82.7057 7.0944 82.875 6.92513 83.0801 6.80469C83.2884 6.68099 83.5358 6.61914 83.8223 6.61914C83.8874 6.61914 83.9622 6.62728 84.0469 6.64355C84.1315 6.65658 84.1901 6.67122 84.2227 6.6875ZM87.1523 12.0977C86.7845 12.0977 86.4508 12.0358 86.1514 11.9121C85.8551 11.7852 85.5996 11.6077 85.3848 11.3799C85.1732 11.152 85.0104 10.8818 84.8965 10.5693C84.7826 10.2568 84.7256 9.91504 84.7256 9.54395V9.33887C84.7256 8.90918 84.7891 8.52669 84.916 8.19141C85.043 7.85286 85.2155 7.56641 85.4336 7.33203C85.6517 7.09766 85.8991 6.92025 86.1758 6.7998C86.4525 6.67936 86.7389 6.61914 87.0352 6.61914C87.4128 6.61914 87.7383 6.68424 88.0117 6.81445C88.2884 6.94466 88.5146 7.12695 88.6904 7.36133C88.8662 7.59245 88.9964 7.86589 89.0811 8.18164C89.1657 8.49414 89.208 8.83594 89.208 9.20703V9.6123H85.2627V8.875H88.3047V8.80664C88.2917 8.57227 88.2428 8.3444 88.1582 8.12305C88.0768 7.90169 87.9466 7.7194 87.7676 7.57617C87.5885 7.43294 87.3444 7.36133 87.0352 7.36133C86.8301 7.36133 86.6413 7.40527 86.4688 7.49316C86.2962 7.5778 86.1481 7.70475 86.0244 7.87402C85.9007 8.04329 85.8047 8.25 85.7363 8.49414C85.668 8.73828 85.6338 9.01986 85.6338 9.33887V9.54395C85.6338 9.7946 85.668 10.0306 85.7363 10.252C85.8079 10.4701 85.9105 10.6621 86.0439 10.8281C86.1807 10.9941 86.3451 11.1243 86.5371 11.2188C86.7324 11.3132 86.9538 11.3604 87.2012 11.3604C87.5202 11.3604 87.7904 11.2952 88.0117 11.165C88.2331 11.0348 88.4268 10.8607 88.5928 10.6426L89.1396 11.0771C89.0257 11.2497 88.8809 11.4141 88.7051 11.5703C88.5293 11.7266 88.3128 11.8535 88.0557 11.9512C87.8018 12.0488 87.5007 12.0977 87.1523 12.0977ZM93.3389 10.5986C93.3389 10.4684 93.3096 10.348 93.251 10.2373C93.1956 10.1234 93.0801 10.0208 92.9043 9.92969C92.7318 9.83529 92.4714 9.75391 92.123 9.68555C91.8301 9.6237 91.5648 9.55046 91.3271 9.46582C91.0928 9.38118 90.8926 9.27865 90.7266 9.1582C90.5638 9.03776 90.4385 8.89616 90.3506 8.7334C90.2627 8.57064 90.2188 8.38021 90.2188 8.16211C90.2188 7.95378 90.2643 7.75684 90.3555 7.57129C90.4499 7.38574 90.5817 7.22135 90.751 7.07812C90.9235 6.9349 91.1302 6.82259 91.3711 6.74121C91.612 6.65983 91.8805 6.61914 92.1768 6.61914C92.5999 6.61914 92.9613 6.69401 93.2607 6.84375C93.5602 6.99349 93.7897 7.19368 93.9492 7.44434C94.1087 7.69173 94.1885 7.9668 94.1885 8.26953H93.2852C93.2852 8.12305 93.2412 7.98145 93.1533 7.84473C93.0687 7.70475 92.9434 7.58919 92.7773 7.49805C92.6146 7.4069 92.4144 7.36133 92.1768 7.36133C91.9261 7.36133 91.7227 7.40039 91.5664 7.47852C91.4134 7.55339 91.3011 7.64941 91.2295 7.7666C91.1611 7.88379 91.127 8.00749 91.127 8.1377C91.127 8.23535 91.1432 8.32324 91.1758 8.40137C91.2116 8.47624 91.2734 8.54622 91.3613 8.61133C91.4492 8.67318 91.5729 8.73177 91.7324 8.78711C91.8919 8.84245 92.0954 8.89779 92.3428 8.95312C92.7757 9.05078 93.1322 9.16797 93.4121 9.30469C93.6921 9.44141 93.9004 9.60905 94.0371 9.80762C94.1738 10.0062 94.2422 10.2471 94.2422 10.5303C94.2422 10.7614 94.1934 10.973 94.0957 11.165C94.0013 11.3571 93.863 11.5231 93.6807 11.6631C93.5016 11.7998 93.2868 11.9072 93.0361 11.9854C92.7887 12.0602 92.5104 12.0977 92.2012 12.0977C91.7357 12.0977 91.3418 12.0146 91.0195 11.8486C90.6973 11.6826 90.4531 11.4678 90.2871 11.2041C90.1211 10.9404 90.0381 10.6621 90.0381 10.3691H90.9463C90.9593 10.6165 91.0309 10.8135 91.1611 10.96C91.2913 11.1032 91.4508 11.2057 91.6396 11.2676C91.8285 11.3262 92.0156 11.3555 92.2012 11.3555C92.4486 11.3555 92.6553 11.3229 92.8213 11.2578C92.9906 11.1927 93.1191 11.1032 93.207 10.9893C93.2949 10.8753 93.3389 10.7451 93.3389 10.5986ZM98.5049 10.5986C98.5049 10.4684 98.4756 10.348 98.417 10.2373C98.3617 10.1234 98.2461 10.0208 98.0703 9.92969C97.8978 9.83529 97.6374 9.75391 97.2891 9.68555C96.9961 9.6237 96.7308 9.55046 96.4932 9.46582C96.2588 9.38118 96.0586 9.27865 95.8926 9.1582C95.7298 9.03776 95.6045 8.89616 95.5166 8.7334C95.4287 8.57064 95.3848 8.38021 95.3848 8.16211C95.3848 7.95378 95.4303 7.75684 95.5215 7.57129C95.6159 7.38574 95.7477 7.22135 95.917 7.07812C96.0895 6.9349 96.2962 6.82259 96.5371 6.74121C96.778 6.65983 97.0465 6.61914 97.3428 6.61914C97.766 6.61914 98.1273 6.69401 98.4268 6.84375C98.7262 6.99349 98.9557 7.19368 99.1152 7.44434C99.2747 7.69173 99.3545 7.9668 99.3545 8.26953H98.4512C98.4512 8.12305 98.4072 7.98145 98.3193 7.84473C98.2347 7.70475 98.1094 7.58919 97.9434 7.49805C97.7806 7.4069 97.5804 7.36133 97.3428 7.36133C97.0921 7.36133 96.8887 7.40039 96.7324 7.47852C96.5794 7.55339 96.4671 7.64941 96.3955 7.7666C96.3271 7.88379 96.293 8.00749 96.293 8.1377C96.293 8.23535 96.3092 8.32324 96.3418 8.40137C96.3776 8.47624 96.4395 8.54622 96.5273 8.61133C96.6152 8.67318 96.7389 8.73177 96.8984 8.78711C97.0579 8.84245 97.2614 8.89779 97.5088 8.95312C97.9417 9.05078 98.2982 9.16797 98.5781 9.30469C98.8581 9.44141 99.0664 9.60905 99.2031 9.80762C99.3398 10.0062 99.4082 10.2471 99.4082 10.5303C99.4082 10.7614 99.3594 10.973 99.2617 11.165C99.1673 11.3571 99.029 11.5231 98.8467 11.6631C98.6676 11.7998 98.4528 11.9072 98.2021 11.9854C97.9548 12.0602 97.6764 12.0977 97.3672 12.0977C96.9017 12.0977 96.5078 12.0146 96.1855 11.8486C95.8633 11.6826 95.6191 11.4678 95.4531 11.2041C95.2871 10.9404 95.2041 10.6621 95.2041 10.3691H96.1123C96.1253 10.6165 96.1969 10.8135 96.3271 10.96C96.4574 11.1032 96.6169 11.2057 96.8057 11.2676C96.9945 11.3262 97.1816 11.3555 97.3672 11.3555C97.6146 11.3555 97.8213 11.3229 97.9873 11.2578C98.1566 11.1927 98.2852 11.1032 98.373 10.9893C98.4609 10.8753 98.5049 10.7451 98.5049 10.5986ZM103.109 8.44043C103.109 8.28743 103.157 8.15885 103.251 8.05469C103.345 7.94727 103.484 7.89355 103.666 7.89355C103.848 7.89355 103.987 7.94727 104.081 8.05469C104.179 8.15885 104.228 8.28743 104.228 8.44043C104.228 8.59017 104.179 8.71712 104.081 8.82129C103.987 8.9222 103.848 8.97266 103.666 8.97266C103.484 8.97266 103.345 8.9222 103.251 8.82129C103.157 8.71712 103.109 8.59017 103.109 8.44043Z" fill="#C7C7C7"/>
<path d="M114.443 5.87256L111.854 13H110.796L113.777 5.17969H114.459L114.443 5.87256ZM116.613 13L114.019 5.87256L114.003 5.17969H114.685L117.677 13H116.613ZM116.479 10.105V10.9536H112.085V10.105H116.479ZM121.608 9.93311H119.519V9.08984H121.608C122.013 9.08984 122.341 9.02539 122.591 8.89648C122.842 8.76758 123.025 8.58854 123.139 8.35938C123.257 8.13021 123.316 7.86882 123.316 7.5752C123.316 7.30664 123.257 7.0542 123.139 6.81787C123.025 6.58154 122.842 6.39176 122.591 6.24854C122.341 6.10173 122.013 6.02832 121.608 6.02832H119.761V13H118.724V5.17969H121.608C122.199 5.17969 122.699 5.28174 123.107 5.48584C123.515 5.68994 123.825 5.97282 124.036 6.33447C124.247 6.69255 124.353 7.10254 124.353 7.56445C124.353 8.06576 124.247 8.49365 124.036 8.84814C123.825 9.20264 123.515 9.47298 123.107 9.65918C122.699 9.8418 122.199 9.93311 121.608 9.93311ZM126.775 5.17969V13H125.739V5.17969H126.775ZM131.276 9.08447C131.276 8.91618 131.328 8.77474 131.432 8.66016C131.536 8.54199 131.688 8.48291 131.889 8.48291C132.089 8.48291 132.241 8.54199 132.345 8.66016C132.453 8.77474 132.506 8.91618 132.506 9.08447C132.506 9.24919 132.453 9.38883 132.345 9.50342C132.241 9.61442 132.089 9.66992 131.889 9.66992C131.688 9.66992 131.536 9.61442 131.432 9.50342C131.328 9.38883 131.276 9.24919 131.276 9.08447Z" fill="#C7C7C7"/>
<path d="M140.715 9.9248V4.89062H141.652V9.9248C141.652 10.3936 141.556 10.7891 141.364 11.1113C141.172 11.4336 140.907 11.6794 140.568 11.8486C140.233 12.0146 139.847 12.0977 139.411 12.0977C138.975 12.0977 138.588 12.0228 138.249 11.873C137.91 11.7233 137.645 11.4954 137.453 11.1895C137.261 10.8835 137.165 10.4977 137.165 10.0322H138.107C138.107 10.3317 138.163 10.5775 138.273 10.7695C138.384 10.9616 138.537 11.1032 138.732 11.1943C138.931 11.2855 139.157 11.3311 139.411 11.3311C139.659 11.3311 139.88 11.279 140.075 11.1748C140.274 11.0674 140.43 10.9095 140.544 10.7012C140.658 10.4896 140.715 10.2308 140.715 9.9248ZM142.873 9.41699V9.30469C142.873 8.92383 142.928 8.57064 143.039 8.24512C143.15 7.91634 143.309 7.63151 143.518 7.39062C143.726 7.14648 143.978 6.95768 144.274 6.82422C144.571 6.6875 144.903 6.61914 145.271 6.61914C145.642 6.61914 145.975 6.6875 146.271 6.82422C146.571 6.95768 146.825 7.14648 147.033 7.39062C147.245 7.63151 147.406 7.91634 147.517 8.24512C147.627 8.57064 147.683 8.92383 147.683 9.30469V9.41699C147.683 9.79785 147.627 10.151 147.517 10.4766C147.406 10.8021 147.245 11.0869 147.033 11.3311C146.825 11.5719 146.573 11.7607 146.276 11.8975C145.983 12.0309 145.651 12.0977 145.28 12.0977C144.909 12.0977 144.576 12.0309 144.279 11.8975C143.983 11.7607 143.729 11.5719 143.518 11.3311C143.309 11.0869 143.15 10.8021 143.039 10.4766C142.928 10.151 142.873 9.79785 142.873 9.41699ZM143.776 9.30469V9.41699C143.776 9.68066 143.807 9.92969 143.869 10.1641C143.931 10.3952 144.024 10.6003 144.147 10.7793C144.274 10.9583 144.432 11.0999 144.621 11.2041C144.81 11.305 145.03 11.3555 145.28 11.3555C145.528 11.3555 145.744 11.305 145.93 11.2041C146.118 11.0999 146.275 10.9583 146.398 10.7793C146.522 10.6003 146.615 10.3952 146.677 10.1641C146.742 9.92969 146.774 9.68066 146.774 9.41699V9.30469C146.774 9.04427 146.742 8.7985 146.677 8.56738C146.615 8.33301 146.521 8.1263 146.394 7.94727C146.27 7.76497 146.114 7.62174 145.925 7.51758C145.739 7.41341 145.521 7.36133 145.271 7.36133C145.023 7.36133 144.805 7.41341 144.616 7.51758C144.431 7.62174 144.274 7.76497 144.147 7.94727C144.024 8.1263 143.931 8.33301 143.869 8.56738C143.807 8.7985 143.776 9.04427 143.776 9.30469ZM148.811 4.5H149.719V10.9746L149.641 12H148.811V4.5ZM153.288 9.31445V9.41699C153.288 9.80111 153.243 10.1576 153.151 10.4863C153.06 10.8118 152.927 11.0951 152.751 11.3359C152.575 11.5768 152.36 11.764 152.106 11.8975C151.853 12.0309 151.561 12.0977 151.232 12.0977C150.897 12.0977 150.603 12.0407 150.349 11.9268C150.098 11.8096 149.886 11.6419 149.714 11.4238C149.541 11.2057 149.403 10.9421 149.299 10.6328C149.198 10.3236 149.128 9.97526 149.089 9.58789V9.13867C149.128 8.74805 149.198 8.39811 149.299 8.08887C149.403 7.77962 149.541 7.51595 149.714 7.29785C149.886 7.0765 150.098 6.90885 150.349 6.79492C150.599 6.67773 150.891 6.61914 151.223 6.61914C151.555 6.61914 151.849 6.68424 152.106 6.81445C152.364 6.94141 152.578 7.1237 152.751 7.36133C152.927 7.59896 153.06 7.88379 153.151 8.21582C153.243 8.5446 153.288 8.91081 153.288 9.31445ZM152.38 9.41699V9.31445C152.38 9.05078 152.355 8.80339 152.307 8.57227C152.258 8.33789 152.18 8.13281 152.072 7.95703C151.965 7.77799 151.823 7.63802 151.647 7.53711C151.472 7.43294 151.255 7.38086 150.998 7.38086C150.77 7.38086 150.572 7.41992 150.402 7.49805C150.236 7.57617 150.095 7.68197 149.978 7.81543C149.86 7.94564 149.764 8.09538 149.689 8.26465C149.618 8.43066 149.564 8.60319 149.528 8.78223V9.95898C149.58 10.1868 149.665 10.4066 149.782 10.6182C149.903 10.8265 150.062 10.9974 150.261 11.1309C150.463 11.2643 150.712 11.3311 151.008 11.3311C151.252 11.3311 151.46 11.2822 151.633 11.1846C151.809 11.0837 151.95 10.9453 152.058 10.7695C152.168 10.5938 152.25 10.3903 152.302 10.1592C152.354 9.92806 152.38 9.68066 152.38 9.41699ZM157.507 10.5986C157.507 10.4684 157.478 10.348 157.419 10.2373C157.364 10.1234 157.248 10.0208 157.072 9.92969C156.9 9.83529 156.639 9.75391 156.291 9.68555C155.998 9.6237 155.733 9.55046 155.495 9.46582C155.261 9.38118 155.061 9.27865 154.895 9.1582C154.732 9.03776 154.606 8.89616 154.519 8.7334C154.431 8.57064 154.387 8.38021 154.387 8.16211C154.387 7.95378 154.432 7.75684 154.523 7.57129C154.618 7.38574 154.75 7.22135 154.919 7.07812C155.091 6.9349 155.298 6.82259 155.539 6.74121C155.78 6.65983 156.049 6.61914 156.345 6.61914C156.768 6.61914 157.129 6.69401 157.429 6.84375C157.728 6.99349 157.958 7.19368 158.117 7.44434C158.277 7.69173 158.356 7.9668 158.356 8.26953H157.453C157.453 8.12305 157.409 7.98145 157.321 7.84473C157.237 7.70475 157.111 7.58919 156.945 7.49805C156.783 7.4069 156.582 7.36133 156.345 7.36133C156.094 7.36133 155.891 7.40039 155.734 7.47852C155.581 7.55339 155.469 7.64941 155.397 7.7666C155.329 7.88379 155.295 8.00749 155.295 8.1377C155.295 8.23535 155.311 8.32324 155.344 8.40137C155.38 8.47624 155.441 8.54622 155.529 8.61133C155.617 8.67318 155.741 8.73177 155.9 8.78711C156.06 8.84245 156.263 8.89779 156.511 8.95312C156.944 9.05078 157.3 9.16797 157.58 9.30469C157.86 9.44141 158.068 9.60905 158.205 9.80762C158.342 10.0062 158.41 10.2471 158.41 10.5303C158.41 10.7614 158.361 10.973 158.264 11.165C158.169 11.3571 158.031 11.5231 157.849 11.6631C157.67 11.7998 157.455 11.9072 157.204 11.9854C156.957 12.0602 156.678 12.0977 156.369 12.0977C155.904 12.0977 155.51 12.0146 155.188 11.8486C154.865 11.6826 154.621 11.4678 154.455 11.2041C154.289 10.9404 154.206 10.6621 154.206 10.3691H155.114C155.127 10.6165 155.199 10.8135 155.329 10.96C155.459 11.1032 155.619 11.2057 155.808 11.2676C155.996 11.3262 156.184 11.3555 156.369 11.3555C156.617 11.3555 156.823 11.3229 156.989 11.2578C157.159 11.1927 157.287 11.1032 157.375 10.9893C157.463 10.8753 157.507 10.7451 157.507 10.5986ZM162.111 8.44043C162.111 8.28743 162.159 8.15885 162.253 8.05469C162.347 7.94727 162.486 7.89355 162.668 7.89355C162.85 7.89355 162.989 7.94727 163.083 8.05469C163.181 8.15885 163.229 8.28743 163.229 8.44043C163.229 8.59017 163.181 8.71712 163.083 8.82129C162.989 8.9222 162.85 8.97266 162.668 8.97266C162.486 8.97266 162.347 8.9222 162.253 8.82129C162.159 8.71712 162.111 8.59017 162.111 8.44043Z" fill="#C7C7C7"/>
<path d="M172.776 9.93311H170.687V9.08984H172.776C173.181 9.08984 173.509 9.02539 173.759 8.89648C174.01 8.76758 174.193 8.58854 174.307 8.35938C174.425 8.13021 174.484 7.86882 174.484 7.5752C174.484 7.30664 174.425 7.0542 174.307 6.81787C174.193 6.58154 174.01 6.39176 173.759 6.24854C173.509 6.10173 173.181 6.02832 172.776 6.02832H170.929V13H169.892V5.17969H172.776C173.367 5.17969 173.867 5.28174 174.275 5.48584C174.683 5.68994 174.993 5.97282 175.204 6.33447C175.415 6.69255 175.521 7.10254 175.521 7.56445C175.521 8.06576 175.415 8.49365 175.204 8.84814C174.993 9.20264 174.683 9.47298 174.275 9.65918C173.867 9.8418 173.367 9.93311 172.776 9.93311ZM177.675 8.10156V13H176.681V7.18848H177.648L177.675 8.10156ZM179.49 7.15625L179.485 8.08008C179.403 8.06217 179.324 8.05143 179.249 8.04785C179.177 8.04069 179.095 8.03711 179.001 8.03711C178.772 8.03711 178.57 8.07292 178.395 8.14453C178.219 8.21615 178.07 8.31641 177.949 8.44531C177.827 8.57422 177.73 8.72819 177.659 8.90723C177.591 9.08268 177.546 9.27604 177.524 9.4873L177.245 9.64844C177.245 9.29753 177.279 8.9681 177.347 8.66016C177.419 8.35221 177.528 8.08008 177.675 7.84375C177.822 7.60384 178.008 7.41764 178.233 7.28516C178.463 7.14909 178.735 7.08105 179.05 7.08105C179.121 7.08105 179.204 7.09001 179.297 7.10791C179.39 7.12223 179.454 7.13835 179.49 7.15625ZM181.488 7.18848V13H180.489V7.18848H181.488ZM180.414 5.64697C180.414 5.48584 180.462 5.34977 180.559 5.23877C180.659 5.12777 180.806 5.07227 181 5.07227C181.189 5.07227 181.334 5.12777 181.435 5.23877C181.538 5.34977 181.59 5.48584 181.59 5.64697C181.59 5.80094 181.538 5.93343 181.435 6.04443C181.334 6.15186 181.189 6.20557 181 6.20557C180.806 6.20557 180.659 6.15186 180.559 6.04443C180.462 5.93343 180.414 5.80094 180.414 5.64697ZM184.851 12.103L186.44 7.18848H187.456L185.366 13H184.7L184.851 12.103ZM183.524 7.18848L185.162 12.1299L185.275 13H184.609L182.503 7.18848H183.524ZM191.752 12.0063V9.01465C191.752 8.78548 191.706 8.58675 191.613 8.41846C191.523 8.24658 191.387 8.1141 191.205 8.021C191.022 7.9279 190.796 7.88135 190.528 7.88135C190.277 7.88135 190.057 7.92432 189.867 8.01025C189.681 8.09619 189.534 8.20898 189.427 8.34863C189.323 8.48828 189.271 8.63867 189.271 8.7998H188.277C188.277 8.59212 188.331 8.38623 188.438 8.18213C188.546 7.97803 188.7 7.79362 188.9 7.62891C189.104 7.46061 189.348 7.32812 189.631 7.23145C189.917 7.13118 190.236 7.08105 190.587 7.08105C191.009 7.08105 191.382 7.15267 191.704 7.2959C192.03 7.43913 192.284 7.65576 192.467 7.9458C192.653 8.23226 192.746 8.59212 192.746 9.02539V11.7324C192.746 11.9258 192.762 12.1317 192.794 12.3501C192.83 12.5685 192.882 12.7565 192.95 12.9141V13H191.914C191.863 12.8854 191.824 12.7332 191.795 12.5435C191.767 12.3501 191.752 12.1711 191.752 12.0063ZM191.924 9.47656L191.935 10.1748H190.931C190.648 10.1748 190.395 10.1981 190.173 10.2446C189.951 10.2876 189.765 10.3538 189.615 10.4434C189.464 10.5329 189.35 10.6457 189.271 10.7817C189.192 10.9142 189.153 11.07 189.153 11.249C189.153 11.4316 189.194 11.5981 189.276 11.7485C189.359 11.8989 189.482 12.0189 189.647 12.1084C189.815 12.1943 190.021 12.2373 190.265 12.2373C190.569 12.2373 190.838 12.1729 191.07 12.0439C191.303 11.915 191.487 11.7575 191.624 11.5713C191.763 11.3851 191.838 11.2043 191.849 11.0288L192.273 11.5068C192.248 11.6572 192.18 11.8237 192.069 12.0063C191.958 12.189 191.81 12.3644 191.624 12.5327C191.441 12.6974 191.222 12.8353 190.968 12.9463C190.718 13.0537 190.435 13.1074 190.12 13.1074C189.726 13.1074 189.38 13.0304 189.083 12.8765C188.789 12.7225 188.56 12.5166 188.396 12.2588C188.234 11.9974 188.154 11.7056 188.154 11.3833C188.154 11.0718 188.215 10.7979 188.336 10.5615C188.458 10.3216 188.634 10.1229 188.863 9.96533C189.092 9.8042 189.368 9.68245 189.69 9.6001C190.012 9.51774 190.372 9.47656 190.77 9.47656H191.924ZM196.635 12.291C196.871 12.291 197.09 12.2427 197.29 12.146C197.491 12.0493 197.655 11.9168 197.784 11.7485C197.913 11.5767 197.986 11.3815 198.004 11.1631H198.95C198.932 11.5068 198.815 11.8273 198.601 12.1245C198.389 12.4181 198.112 12.6562 197.768 12.8389C197.424 13.0179 197.047 13.1074 196.635 13.1074C196.198 13.1074 195.817 13.0304 195.491 12.8765C195.168 12.7225 194.9 12.5112 194.685 12.2427C194.474 11.9741 194.314 11.6662 194.207 11.3188C194.103 10.9679 194.051 10.5973 194.051 10.207V9.98145C194.051 9.59115 194.103 9.22233 194.207 8.875C194.314 8.52409 194.474 8.21436 194.685 7.9458C194.9 7.67725 195.168 7.46598 195.491 7.31201C195.817 7.15804 196.198 7.08105 196.635 7.08105C197.09 7.08105 197.487 7.17415 197.827 7.36035C198.167 7.54297 198.434 7.79362 198.627 8.1123C198.824 8.42741 198.932 8.78548 198.95 9.18652H198.004C197.986 8.94661 197.918 8.72998 197.8 8.53662C197.686 8.34326 197.528 8.18929 197.328 8.07471C197.131 7.95654 196.9 7.89746 196.635 7.89746C196.33 7.89746 196.074 7.95833 195.867 8.08008C195.663 8.19824 195.5 8.35938 195.378 8.56348C195.26 8.764 195.174 8.98779 195.12 9.23486C195.07 9.47835 195.045 9.72721 195.045 9.98145V10.207C195.045 10.4613 195.07 10.7119 195.12 10.959C195.17 11.2061 195.254 11.4299 195.373 11.6304C195.494 11.8309 195.657 11.992 195.861 12.1138C196.069 12.2319 196.327 12.291 196.635 12.291ZM201.7 12.3984L203.316 7.18848H204.38L202.049 13.897C201.995 14.0402 201.924 14.1942 201.834 14.3589C201.748 14.5272 201.637 14.6865 201.501 14.8369C201.365 14.9873 201.2 15.109 201.007 15.2021C200.817 15.2988 200.59 15.3472 200.325 15.3472C200.246 15.3472 200.146 15.3364 200.024 15.3149C199.902 15.2935 199.816 15.2756 199.766 15.2612L199.761 14.4556C199.789 14.4591 199.834 14.4627 199.895 14.4663C199.959 14.4735 200.004 14.4771 200.029 14.4771C200.255 14.4771 200.446 14.4466 200.604 14.3857C200.762 14.3285 200.894 14.23 201.001 14.0903C201.112 13.9543 201.207 13.7663 201.286 13.5264L201.7 12.3984ZM200.513 7.18848L202.022 11.7002L202.28 12.7476L201.565 13.1128L199.428 7.18848H200.513ZM208.043 9.08447C208.043 8.91618 208.095 8.77474 208.199 8.66016C208.303 8.54199 208.455 8.48291 208.655 8.48291C208.856 8.48291 209.008 8.54199 209.112 8.66016C209.219 8.77474 209.273 8.91618 209.273 9.08447C209.273 9.24919 209.219 9.38883 209.112 9.50342C209.008 9.61442 208.856 9.66992 208.655 9.66992C208.455 9.66992 208.303 9.61442 208.199 9.50342C208.095 9.38883 208.043 9.24919 208.043 9.08447Z" fill="#C7C7C7"/>
<path d="M218.407 5.17969V13H217.386V5.17969H218.407ZM220.92 5.17969V6.02832H214.878V5.17969H220.92ZM223.805 13.1074C223.4 13.1074 223.033 13.0394 222.704 12.9033C222.378 12.7637 222.097 12.5685 221.86 12.3179C221.628 12.0672 221.449 11.77 221.323 11.4263C221.198 11.0825 221.135 10.7065 221.135 10.2983V10.0728C221.135 9.6001 221.205 9.17936 221.345 8.81055C221.484 8.43815 221.674 8.12305 221.914 7.86523C222.154 7.60742 222.426 7.41227 222.73 7.27979C223.035 7.1473 223.35 7.08105 223.676 7.08105C224.091 7.08105 224.449 7.15267 224.75 7.2959C225.054 7.43913 225.303 7.63965 225.497 7.89746C225.69 8.15169 225.833 8.45247 225.926 8.7998C226.019 9.14355 226.066 9.51953 226.066 9.92773V10.3735H221.726V9.5625H225.072V9.4873C225.058 9.22949 225.004 8.97884 224.911 8.73535C224.822 8.49186 224.678 8.29134 224.481 8.13379C224.285 7.97624 224.016 7.89746 223.676 7.89746C223.45 7.89746 223.243 7.9458 223.053 8.04248C222.863 8.13558 222.7 8.27523 222.564 8.46143C222.428 8.64762 222.322 8.875 222.247 9.14355C222.172 9.41211 222.134 9.72184 222.134 10.0728V10.2983C222.134 10.5741 222.172 10.8337 222.247 11.0771C222.326 11.3171 222.439 11.5283 222.585 11.7109C222.736 11.8936 222.917 12.0368 223.128 12.1406C223.343 12.2445 223.586 12.2964 223.858 12.2964C224.209 12.2964 224.507 12.2248 224.75 12.0815C224.993 11.9383 225.207 11.7467 225.389 11.5068L225.991 11.9849C225.865 12.1746 225.706 12.3555 225.513 12.5273C225.319 12.6992 225.081 12.8389 224.798 12.9463C224.519 13.0537 224.188 13.1074 223.805 13.1074ZM228.22 8.10156V13H227.226V7.18848H228.193L228.22 8.10156ZM230.035 7.15625L230.03 8.08008C229.947 8.06217 229.869 8.05143 229.793 8.04785C229.722 8.04069 229.639 8.03711 229.546 8.03711C229.317 8.03711 229.115 8.07292 228.939 8.14453C228.764 8.21615 228.615 8.31641 228.494 8.44531C228.372 8.57422 228.275 8.72819 228.204 8.90723C228.136 9.08268 228.091 9.27604 228.069 9.4873L227.79 9.64844C227.79 9.29753 227.824 8.9681 227.892 8.66016C227.964 8.35221 228.073 8.08008 228.22 7.84375C228.367 7.60384 228.553 7.41764 228.778 7.28516C229.007 7.14909 229.28 7.08105 229.595 7.08105C229.666 7.08105 229.749 7.09001 229.842 7.10791C229.935 7.12223 229.999 7.13835 230.035 7.15625ZM231.942 8.34326V13H230.943V7.18848H231.888L231.942 8.34326ZM231.738 9.87402L231.276 9.85791C231.279 9.46045 231.331 9.09342 231.432 8.75684C231.532 8.41667 231.681 8.12126 231.877 7.87061C232.074 7.61995 232.32 7.4266 232.613 7.29053C232.907 7.15088 233.247 7.08105 233.634 7.08105C233.906 7.08105 234.157 7.12044 234.386 7.19922C234.615 7.27441 234.814 7.39437 234.982 7.55908C235.15 7.7238 235.281 7.93506 235.374 8.19287C235.467 8.45068 235.514 8.76221 235.514 9.12744V13H234.52V9.17578C234.52 8.87142 234.468 8.62793 234.364 8.44531C234.264 8.2627 234.121 8.13021 233.935 8.04785C233.748 7.96191 233.53 7.91895 233.279 7.91895C232.986 7.91895 232.74 7.97087 232.543 8.07471C232.347 8.17855 232.189 8.32178 232.071 8.50439C231.953 8.68701 231.867 8.89648 231.813 9.13281C231.763 9.36556 231.738 9.61263 231.738 9.87402ZM235.503 9.32617L234.837 9.53027C234.84 9.21159 234.892 8.90544 234.993 8.61182C235.097 8.3182 235.245 8.0568 235.438 7.82764C235.635 7.59847 235.877 7.41764 236.164 7.28516C236.45 7.14909 236.778 7.08105 237.146 7.08105C237.458 7.08105 237.734 7.12223 237.974 7.20459C238.217 7.28695 238.421 7.41406 238.586 7.58594C238.754 7.75423 238.881 7.97087 238.967 8.23584C239.053 8.50081 239.096 8.81592 239.096 9.18115V13H238.097V9.17041C238.097 8.84456 238.045 8.59212 237.941 8.41309C237.841 8.23047 237.698 8.10335 237.512 8.03174C237.329 7.95654 237.111 7.91895 236.856 7.91895C236.638 7.91895 236.445 7.95654 236.276 8.03174C236.108 8.10693 235.967 8.21077 235.852 8.34326C235.737 8.47217 235.65 8.62077 235.589 8.78906C235.532 8.95736 235.503 9.13639 235.503 9.32617ZM243.984 11.4585C243.984 11.3153 243.952 11.1828 243.887 11.061C243.826 10.9357 243.699 10.8229 243.506 10.7227C243.316 10.6188 243.03 10.5293 242.646 10.4541C242.324 10.3861 242.032 10.3055 241.771 10.2124C241.513 10.1193 241.293 10.0065 241.11 9.87402C240.931 9.74154 240.793 9.58577 240.697 9.40674C240.6 9.2277 240.552 9.01823 240.552 8.77832C240.552 8.54915 240.602 8.33252 240.702 8.12842C240.806 7.92432 240.951 7.74349 241.137 7.58594C241.327 7.42839 241.554 7.30485 241.819 7.21533C242.084 7.12581 242.38 7.08105 242.706 7.08105C243.171 7.08105 243.569 7.16341 243.898 7.32812C244.227 7.49284 244.48 7.71305 244.655 7.98877C244.831 8.2609 244.918 8.56348 244.918 8.89648H243.925C243.925 8.73535 243.876 8.57959 243.78 8.4292C243.687 8.27523 243.549 8.14811 243.366 8.04785C243.187 7.94759 242.967 7.89746 242.706 7.89746C242.43 7.89746 242.206 7.94043 242.034 8.02637C241.866 8.10872 241.742 8.21436 241.664 8.34326C241.588 8.47217 241.551 8.60824 241.551 8.75146C241.551 8.85889 241.569 8.95557 241.604 9.0415C241.644 9.12386 241.712 9.20085 241.809 9.27246C241.905 9.34049 242.041 9.40495 242.217 9.46582C242.392 9.52669 242.616 9.58757 242.888 9.64844C243.364 9.75586 243.757 9.88477 244.064 10.0352C244.372 10.1855 244.602 10.37 244.752 10.5884C244.902 10.8068 244.978 11.0718 244.978 11.3833C244.978 11.6375 244.924 11.8703 244.816 12.0815C244.713 12.2928 244.56 12.4754 244.36 12.6294C244.163 12.7798 243.927 12.8979 243.651 12.9839C243.379 13.0662 243.073 13.1074 242.732 13.1074C242.22 13.1074 241.787 13.0161 241.433 12.8335C241.078 12.6509 240.81 12.4146 240.627 12.1245C240.444 11.8345 240.353 11.5283 240.353 11.2061H241.352C241.366 11.4782 241.445 11.6948 241.588 11.856C241.732 12.0135 241.907 12.1263 242.115 12.1943C242.322 12.2588 242.528 12.291 242.732 12.291C243.005 12.291 243.232 12.2552 243.415 12.1836C243.601 12.112 243.742 12.0135 243.839 11.8882C243.936 11.7629 243.984 11.6196 243.984 11.4585ZM249.049 9.08447C249.049 8.91618 249.101 8.77474 249.205 8.66016C249.308 8.54199 249.461 8.48291 249.661 8.48291C249.862 8.48291 250.014 8.54199 250.118 8.66016C250.225 8.77474 250.279 8.91618 250.279 9.08447C250.279 9.24919 250.225 9.38883 250.118 9.50342C250.014 9.61442 249.862 9.66992 249.661 9.66992C249.461 9.66992 249.308 9.61442 249.205 9.50342C249.101 9.38883 249.049 9.24919 249.049 9.08447Z" fill="#C7C7C7"/>
<path d="M259.869 12.1567V13H255.959V12.1567H259.869ZM256.163 5.17969V13H255.126V5.17969H256.163ZM260.643 10.1587V10.0352C260.643 9.61621 260.703 9.2277 260.825 8.86963C260.947 8.50798 261.122 8.19466 261.352 7.92969C261.581 7.66113 261.858 7.45345 262.184 7.30664C262.51 7.15625 262.875 7.08105 263.28 7.08105C263.688 7.08105 264.055 7.15625 264.381 7.30664C264.71 7.45345 264.99 7.66113 265.219 7.92969C265.451 8.19466 265.629 8.50798 265.75 8.86963C265.872 9.2277 265.933 9.61621 265.933 10.0352V10.1587C265.933 10.5776 265.872 10.9661 265.75 11.3242C265.629 11.6823 265.451 11.9956 265.219 12.2642C264.99 12.5291 264.712 12.7368 264.386 12.8872C264.064 13.034 263.699 13.1074 263.291 13.1074C262.882 13.1074 262.515 13.034 262.189 12.8872C261.864 12.7368 261.584 12.5291 261.352 12.2642C261.122 11.9956 260.947 11.6823 260.825 11.3242C260.703 10.9661 260.643 10.5776 260.643 10.1587ZM261.636 10.0352V10.1587C261.636 10.4487 261.67 10.7227 261.738 10.9805C261.806 11.2347 261.908 11.4603 262.044 11.6572C262.184 11.8542 262.358 12.0099 262.565 12.1245C262.773 12.2355 263.015 12.291 263.291 12.291C263.563 12.291 263.801 12.2355 264.005 12.1245C264.213 12.0099 264.384 11.8542 264.521 11.6572C264.657 11.4603 264.759 11.2347 264.827 10.9805C264.898 10.7227 264.934 10.4487 264.934 10.1587V10.0352C264.934 9.7487 264.898 9.47835 264.827 9.22412C264.759 8.96631 264.655 8.73893 264.515 8.54199C264.379 8.34147 264.207 8.18392 264 8.06934C263.795 7.95475 263.556 7.89746 263.28 7.89746C263.008 7.89746 262.768 7.95475 262.56 8.06934C262.356 8.18392 262.184 8.34147 262.044 8.54199C261.908 8.73893 261.806 8.96631 261.738 9.22412C261.67 9.47835 261.636 9.7487 261.636 10.0352ZM269.505 12.291C269.741 12.291 269.96 12.2427 270.16 12.146C270.361 12.0493 270.525 11.9168 270.654 11.7485C270.783 11.5767 270.857 11.3815 270.875 11.1631H271.82C271.802 11.5068 271.686 11.8273 271.471 12.1245C271.259 12.4181 270.982 12.6562 270.638 12.8389C270.294 13.0179 269.917 13.1074 269.505 13.1074C269.068 13.1074 268.687 13.0304 268.361 12.8765C268.039 12.7225 267.77 12.5112 267.555 12.2427C267.344 11.9741 267.185 11.6662 267.077 11.3188C266.973 10.9679 266.921 10.5973 266.921 10.207V9.98145C266.921 9.59115 266.973 9.22233 267.077 8.875C267.185 8.52409 267.344 8.21436 267.555 7.9458C267.77 7.67725 268.039 7.46598 268.361 7.31201C268.687 7.15804 269.068 7.08105 269.505 7.08105C269.96 7.08105 270.357 7.17415 270.697 7.36035C271.037 7.54297 271.304 7.79362 271.498 8.1123C271.694 8.42741 271.802 8.78548 271.82 9.18652H270.875C270.857 8.94661 270.789 8.72998 270.67 8.53662C270.556 8.34326 270.398 8.18929 270.198 8.07471C270.001 7.95654 269.77 7.89746 269.505 7.89746C269.201 7.89746 268.944 7.95833 268.737 8.08008C268.533 8.19824 268.37 8.35938 268.248 8.56348C268.13 8.764 268.044 8.98779 267.99 9.23486C267.94 9.47835 267.915 9.72721 267.915 9.98145V10.207C267.915 10.4613 267.94 10.7119 267.99 10.959C268.04 11.2061 268.125 11.4299 268.243 11.6304C268.364 11.8309 268.527 11.992 268.731 12.1138C268.939 12.2319 269.197 12.291 269.505 12.291ZM276.364 12.0063V9.01465C276.364 8.78548 276.317 8.58675 276.224 8.41846C276.135 8.24658 275.999 8.1141 275.816 8.021C275.633 7.9279 275.408 7.88135 275.139 7.88135C274.889 7.88135 274.668 7.92432 274.479 8.01025C274.292 8.09619 274.146 8.20898 274.038 8.34863C273.934 8.48828 273.882 8.63867 273.882 8.7998H272.889C272.889 8.59212 272.942 8.38623 273.05 8.18213C273.157 7.97803 273.311 7.79362 273.512 7.62891C273.716 7.46061 273.959 7.32812 274.242 7.23145C274.529 7.13118 274.847 7.08105 275.198 7.08105C275.621 7.08105 275.993 7.15267 276.315 7.2959C276.641 7.43913 276.896 7.65576 277.078 7.9458C277.264 8.23226 277.357 8.59212 277.357 9.02539V11.7324C277.357 11.9258 277.374 12.1317 277.406 12.3501C277.442 12.5685 277.493 12.7565 277.562 12.9141V13H276.525C276.475 12.8854 276.435 12.7332 276.407 12.5435C276.378 12.3501 276.364 12.1711 276.364 12.0063ZM276.536 9.47656L276.546 10.1748H275.542C275.259 10.1748 275.007 10.1981 274.785 10.2446C274.563 10.2876 274.376 10.3538 274.226 10.4434C274.076 10.5329 273.961 10.6457 273.882 10.7817C273.804 10.9142 273.764 11.07 273.764 11.249C273.764 11.4316 273.805 11.5981 273.888 11.7485C273.97 11.8989 274.094 12.0189 274.258 12.1084C274.427 12.1943 274.632 12.2373 274.876 12.2373C275.18 12.2373 275.449 12.1729 275.682 12.0439C275.914 11.915 276.099 11.7575 276.235 11.5713C276.375 11.3851 276.45 11.2043 276.46 11.0288L276.885 11.5068C276.86 11.6572 276.792 11.8237 276.681 12.0063C276.57 12.189 276.421 12.3644 276.235 12.5327C276.052 12.6974 275.834 12.8353 275.58 12.9463C275.329 13.0537 275.046 13.1074 274.731 13.1074C274.337 13.1074 273.992 13.0304 273.694 12.8765C273.401 12.7225 273.172 12.5166 273.007 12.2588C272.846 11.9974 272.765 11.7056 272.765 11.3833C272.765 11.0718 272.826 10.7979 272.948 10.5615C273.069 10.3216 273.245 10.1229 273.474 9.96533C273.703 9.8042 273.979 9.68245 274.301 9.6001C274.624 9.51774 274.983 9.47656 275.381 9.47656H276.536ZM281.354 7.18848V7.95117H278.211V7.18848H281.354ZM279.275 5.77588H280.269V11.5605C280.269 11.7575 280.299 11.9061 280.36 12.0063C280.421 12.1066 280.5 12.1729 280.596 12.2051C280.693 12.2373 280.797 12.2534 280.908 12.2534C280.99 12.2534 281.076 12.2463 281.166 12.2319C281.259 12.214 281.328 12.1997 281.375 12.189L281.38 13C281.302 13.0251 281.198 13.0483 281.069 13.0698C280.944 13.0949 280.791 13.1074 280.612 13.1074C280.369 13.1074 280.145 13.0591 279.941 12.9624C279.737 12.8657 279.574 12.7046 279.452 12.479C279.334 12.2498 279.275 11.9419 279.275 11.5552V5.77588ZM283.599 7.18848V13H282.6V7.18848H283.599ZM282.524 5.64697C282.524 5.48584 282.573 5.34977 282.669 5.23877C282.77 5.12777 282.917 5.07227 283.11 5.07227C283.3 5.07227 283.445 5.12777 283.545 5.23877C283.649 5.34977 283.701 5.48584 283.701 5.64697C283.701 5.80094 283.649 5.93343 283.545 6.04443C283.445 6.15186 283.3 6.20557 283.11 6.20557C282.917 6.20557 282.77 6.15186 282.669 6.04443C282.573 5.93343 282.524 5.80094 282.524 5.64697ZM284.931 10.1587V10.0352C284.931 9.61621 284.992 9.2277 285.113 8.86963C285.235 8.50798 285.41 8.19466 285.64 7.92969C285.869 7.66113 286.146 7.45345 286.472 7.30664C286.798 7.15625 287.163 7.08105 287.568 7.08105C287.976 7.08105 288.343 7.15625 288.669 7.30664C288.998 7.45345 289.278 7.66113 289.507 7.92969C289.74 8.19466 289.917 8.50798 290.039 8.86963C290.16 9.2277 290.221 9.61621 290.221 10.0352V10.1587C290.221 10.5776 290.16 10.9661 290.039 11.3242C289.917 11.6823 289.74 11.9956 289.507 12.2642C289.278 12.5291 289 12.7368 288.674 12.8872C288.352 13.034 287.987 13.1074 287.579 13.1074C287.17 13.1074 286.803 13.034 286.478 12.8872C286.152 12.7368 285.872 12.5291 285.64 12.2642C285.41 11.9956 285.235 11.6823 285.113 11.3242C284.992 10.9661 284.931 10.5776 284.931 10.1587ZM285.924 10.0352V10.1587C285.924 10.4487 285.958 10.7227 286.026 10.9805C286.094 11.2347 286.196 11.4603 286.333 11.6572C286.472 11.8542 286.646 12.0099 286.854 12.1245C287.061 12.2355 287.303 12.291 287.579 12.291C287.851 12.291 288.089 12.2355 288.293 12.1245C288.501 12.0099 288.673 11.8542 288.809 11.6572C288.945 11.4603 289.047 11.2347 289.115 10.9805C289.186 10.7227 289.222 10.4487 289.222 10.1587V10.0352C289.222 9.7487 289.186 9.47835 289.115 9.22412C289.047 8.96631 288.943 8.73893 288.803 8.54199C288.667 8.34147 288.495 8.18392 288.288 8.06934C288.083 7.95475 287.844 7.89746 287.568 7.89746C287.296 7.89746 287.056 7.95475 286.848 8.06934C286.644 8.18392 286.472 8.34147 286.333 8.54199C286.196 8.73893 286.094 8.96631 286.026 9.22412C285.958 9.47835 285.924 9.7487 285.924 10.0352ZM292.461 8.4292V13H291.467V7.18848H292.407L292.461 8.4292ZM292.225 9.87402L291.811 9.85791C291.815 9.46045 291.874 9.09342 291.988 8.75684C292.103 8.41667 292.264 8.12126 292.472 7.87061C292.679 7.61995 292.926 7.4266 293.213 7.29053C293.503 7.15088 293.823 7.08105 294.174 7.08105C294.461 7.08105 294.719 7.12044 294.948 7.19922C295.177 7.27441 295.372 7.39616 295.533 7.56445C295.698 7.73275 295.823 7.95117 295.909 8.21973C295.995 8.4847 296.038 8.80876 296.038 9.19189V13H295.039V9.18115C295.039 8.87679 294.994 8.6333 294.905 8.45068C294.815 8.26449 294.685 8.13021 294.513 8.04785C294.341 7.96191 294.13 7.91895 293.879 7.91895C293.632 7.91895 293.406 7.97087 293.202 8.07471C293.002 8.17855 292.828 8.32178 292.681 8.50439C292.538 8.68701 292.425 8.89648 292.343 9.13281C292.264 9.36556 292.225 9.61263 292.225 9.87402ZM300.931 11.4585C300.931 11.3153 300.899 11.1828 300.834 11.061C300.774 10.9357 300.646 10.8229 300.453 10.7227C300.263 10.6188 299.977 10.5293 299.594 10.4541C299.271 10.3861 298.98 10.3055 298.718 10.2124C298.46 10.1193 298.24 10.0065 298.058 9.87402C297.879 9.74154 297.741 9.58577 297.644 9.40674C297.547 9.2277 297.499 9.01823 297.499 8.77832C297.499 8.54915 297.549 8.33252 297.649 8.12842C297.753 7.92432 297.898 7.74349 298.084 7.58594C298.274 7.42839 298.502 7.30485 298.767 7.21533C299.032 7.12581 299.327 7.08105 299.653 7.08105C300.118 7.08105 300.516 7.16341 300.845 7.32812C301.175 7.49284 301.427 7.71305 301.603 7.98877C301.778 8.2609 301.866 8.56348 301.866 8.89648H300.872C300.872 8.73535 300.824 8.57959 300.727 8.4292C300.634 8.27523 300.496 8.14811 300.313 8.04785C300.134 7.94759 299.914 7.89746 299.653 7.89746C299.377 7.89746 299.153 7.94043 298.981 8.02637C298.813 8.10872 298.69 8.21436 298.611 8.34326C298.536 8.47217 298.498 8.60824 298.498 8.75146C298.498 8.85889 298.516 8.95557 298.552 9.0415C298.591 9.12386 298.659 9.20085 298.756 9.27246C298.853 9.34049 298.989 9.40495 299.164 9.46582C299.34 9.52669 299.563 9.58757 299.835 9.64844C300.312 9.75586 300.704 9.88477 301.012 10.0352C301.32 10.1855 301.549 10.37 301.699 10.5884C301.85 10.8068 301.925 11.0718 301.925 11.3833C301.925 11.6375 301.871 11.8703 301.764 12.0815C301.66 12.2928 301.508 12.4754 301.307 12.6294C301.11 12.7798 300.874 12.8979 300.598 12.9839C300.326 13.0662 300.02 13.1074 299.68 13.1074C299.168 13.1074 298.734 13.0161 298.38 12.8335C298.025 12.6509 297.757 12.4146 297.574 12.1245C297.392 11.8345 297.3 11.5283 297.3 11.2061H298.299C298.314 11.4782 298.392 11.6948 298.536 11.856C298.679 12.0135 298.854 12.1263 299.062 12.1943C299.27 12.2588 299.476 12.291 299.68 12.291C299.952 12.291 300.179 12.2552 300.362 12.1836C300.548 12.112 300.689 12.0135 300.786 11.8882C300.883 11.7629 300.931 11.6196 300.931 11.4585ZM305.996 9.08447C305.996 8.91618 306.048 8.77474 306.152 8.66016C306.256 8.54199 306.408 8.48291 306.608 8.48291C306.809 8.48291 306.961 8.54199 307.065 8.66016C307.172 8.77474 307.226 8.91618 307.226 9.08447C307.226 9.24919 307.172 9.38883 307.065 9.50342C306.961 9.61442 306.809 9.66992 306.608 9.66992C306.408 9.66992 306.256 9.61442 306.152 9.50342C306.048 9.38883 305.996 9.24919 305.996 9.08447Z" fill="#C7C7C7"/>
<path d="M55.7266 26.7285C55.7266 26.5449 55.7832 26.3906 55.8965 26.2656C56.0098 26.1367 56.1758 26.0723 56.3945 26.0723C56.6133 26.0723 56.7793 26.1367 56.8926 26.2656C57.0098 26.3906 57.0684 26.5449 57.0684 26.7285C57.0684 26.9082 57.0098 27.0605 56.8926 27.1855C56.7793 27.3066 56.6133 27.3672 56.3945 27.3672C56.1758 27.3672 56.0098 27.3066 55.8965 27.1855C55.7832 27.0605 55.7266 26.9082 55.7266 26.7285Z" fill="#C7C7C7"/>
<path d="M5.65039 30.1567V31H1.74023V30.1567H5.65039ZM1.94434 23.1797V31H0.907715V23.1797H1.94434ZM10.1138 30.0063V27.0146C10.1138 26.7855 10.0672 26.5868 9.97412 26.4185C9.8846 26.2466 9.74854 26.1141 9.56592 26.021C9.3833 25.9279 9.15771 25.8813 8.88916 25.8813C8.63851 25.8813 8.41829 25.9243 8.22852 26.0103C8.04232 26.0962 7.89551 26.209 7.78809 26.3486C7.68424 26.4883 7.63232 26.6387 7.63232 26.7998H6.63867C6.63867 26.5921 6.69238 26.3862 6.7998 26.1821C6.90723 25.978 7.0612 25.7936 7.26172 25.6289C7.46582 25.4606 7.70931 25.3281 7.99219 25.2314C8.27865 25.1312 8.59733 25.0811 8.94824 25.0811C9.37077 25.0811 9.74316 25.1527 10.0654 25.2959C10.3913 25.4391 10.6455 25.6558 10.8281 25.9458C11.0143 26.2323 11.1074 26.5921 11.1074 27.0254V29.7324C11.1074 29.9258 11.1235 30.1317 11.1558 30.3501C11.1916 30.5685 11.2435 30.7565 11.3115 30.9141V31H10.2749C10.2248 30.8854 10.1854 30.7332 10.1567 30.5435C10.1281 30.3501 10.1138 30.1711 10.1138 30.0063ZM10.2856 27.4766L10.2964 28.1748H9.29199C9.00911 28.1748 8.75667 28.1981 8.53467 28.2446C8.31266 28.2876 8.12646 28.3538 7.97607 28.4434C7.82568 28.5329 7.7111 28.6457 7.63232 28.7817C7.55355 28.9142 7.51416 29.07 7.51416 29.249C7.51416 29.4316 7.55534 29.5981 7.6377 29.7485C7.72005 29.8989 7.84359 30.0189 8.0083 30.1084C8.1766 30.1943 8.38249 30.2373 8.62598 30.2373C8.93034 30.2373 9.19889 30.1729 9.43164 30.0439C9.66439 29.915 9.8488 29.7575 9.98486 29.5713C10.1245 29.3851 10.1997 29.2043 10.2104 29.0288L10.6348 29.5068C10.6097 29.6572 10.5417 29.8237 10.4307 30.0063C10.3197 30.189 10.1711 30.3644 9.98486 30.5327C9.80225 30.6974 9.58382 30.8353 9.32959 30.9463C9.07894 31.0537 8.79606 31.1074 8.48096 31.1074C8.08708 31.1074 7.74154 31.0304 7.44434 30.8765C7.15072 30.7225 6.92155 30.5166 6.75684 30.2588C6.5957 29.9974 6.51514 29.7056 6.51514 29.3833C6.51514 29.0718 6.57601 28.7979 6.69775 28.5615C6.8195 28.3216 6.99495 28.1229 7.22412 27.9653C7.45329 27.8042 7.729 27.6825 8.05127 27.6001C8.37354 27.5177 8.7334 27.4766 9.13086 27.4766H10.2856ZM13.6641 26.4292V31H12.6704V25.1885H13.6104L13.6641 26.4292ZM13.4277 27.874L13.0142 27.8579C13.0177 27.4604 13.0768 27.0934 13.1914 26.7568C13.306 26.4167 13.4671 26.1213 13.6748 25.8706C13.8825 25.62 14.1296 25.4266 14.416 25.2905C14.7061 25.1509 15.0265 25.0811 15.3774 25.0811C15.6639 25.0811 15.9217 25.1204 16.1509 25.1992C16.38 25.2744 16.5752 25.3962 16.7363 25.5645C16.901 25.7327 17.0264 25.9512 17.1123 26.2197C17.1982 26.4847 17.2412 26.8088 17.2412 27.1919V31H16.2422V27.1812C16.2422 26.8768 16.1974 26.6333 16.1079 26.4507C16.0184 26.2645 15.8877 26.1302 15.7158 26.0479C15.5439 25.9619 15.3327 25.9189 15.082 25.9189C14.835 25.9189 14.6094 25.9709 14.4053 26.0747C14.2048 26.1785 14.0311 26.3218 13.8843 26.5044C13.741 26.687 13.6283 26.8965 13.5459 27.1328C13.4671 27.3656 13.4277 27.6126 13.4277 27.874ZM22.5156 25.1885H23.418V30.8765C23.418 31.3885 23.3141 31.8254 23.1064 32.187C22.8988 32.5487 22.6087 32.8226 22.2363 33.0088C21.8675 33.1986 21.4414 33.2935 20.958 33.2935C20.7575 33.2935 20.5212 33.2612 20.249 33.1968C19.9805 33.1359 19.7155 33.0303 19.4541 32.8799C19.1963 32.7331 18.9797 32.5343 18.8042 32.2837L19.3252 31.6929C19.5687 31.9865 19.8229 32.1906 20.0879 32.3052C20.3564 32.4198 20.6214 32.4771 20.8828 32.4771C21.1979 32.4771 21.4701 32.418 21.6992 32.2998C21.9284 32.1816 22.1056 32.0062 22.231 31.7734C22.3599 31.5443 22.4243 31.2614 22.4243 30.9248V26.4668L22.5156 25.1885ZM18.5142 28.1587V28.0459C18.5142 27.6019 18.5661 27.1991 18.6699 26.8374C18.7773 26.4722 18.9295 26.1589 19.1265 25.8975C19.327 25.6361 19.5687 25.4355 19.8516 25.2959C20.1344 25.1527 20.4531 25.0811 20.8076 25.0811C21.1729 25.0811 21.4915 25.1455 21.7637 25.2744C22.0394 25.3997 22.2721 25.5841 22.4619 25.8276C22.6553 26.0675 22.8075 26.3576 22.9185 26.6978C23.0295 27.0379 23.1064 27.4229 23.1494 27.8525V28.3467C23.11 28.7728 23.033 29.1559 22.9185 29.4961C22.8075 29.8363 22.6553 30.1263 22.4619 30.3662C22.2721 30.6061 22.0394 30.7905 21.7637 30.9194C21.488 31.0448 21.1657 31.1074 20.7969 31.1074C20.4495 31.1074 20.1344 31.034 19.8516 30.8872C19.5723 30.7404 19.3324 30.5345 19.1318 30.2695C18.9313 30.0046 18.7773 29.693 18.6699 29.335C18.5661 28.9733 18.5142 28.5812 18.5142 28.1587ZM19.5078 28.0459V28.1587C19.5078 28.4487 19.5365 28.7209 19.5938 28.9751C19.6546 29.2293 19.7459 29.4531 19.8677 29.6465C19.993 29.8398 20.1523 29.992 20.3457 30.103C20.5391 30.2104 20.77 30.2642 21.0386 30.2642C21.368 30.2642 21.6401 30.1943 21.855 30.0547C22.0698 29.915 22.2399 29.7306 22.3652 29.5015C22.4941 29.2723 22.5944 29.0234 22.666 28.7549V27.4604C22.6266 27.2635 22.5658 27.0737 22.4834 26.8911C22.4046 26.7049 22.3008 26.5402 22.1719 26.397C22.0465 26.2502 21.8908 26.1338 21.7046 26.0479C21.5184 25.9619 21.3 25.9189 21.0493 25.9189C20.7772 25.9189 20.5426 25.9762 20.3457 26.0908C20.1523 26.2018 19.993 26.3558 19.8677 26.5527C19.7459 26.7461 19.6546 26.9717 19.5938 27.2295C19.5365 27.4837 19.5078 27.7559 19.5078 28.0459ZM28.4829 29.6572V25.1885H29.4819V31H28.5312L28.4829 29.6572ZM28.6709 28.4326L29.0845 28.4219C29.0845 28.8086 29.0433 29.1667 28.9609 29.4961C28.8822 29.8219 28.7533 30.1048 28.5742 30.3447C28.3952 30.5846 28.1606 30.7726 27.8706 30.9087C27.5806 31.0412 27.2279 31.1074 26.8125 31.1074C26.5296 31.1074 26.27 31.0662 26.0337 30.9839C25.8009 30.9015 25.6004 30.7744 25.4321 30.6025C25.2638 30.4307 25.1331 30.2069 25.04 29.9312C24.9505 29.6554 24.9058 29.3242 24.9058 28.9375V25.1885H25.8994V28.9482C25.8994 29.2096 25.9281 29.4263 25.9854 29.5981C26.0462 29.7664 26.1268 29.9007 26.2271 30.001C26.3309 30.0977 26.4455 30.1657 26.5708 30.2051C26.6997 30.2445 26.8322 30.2642 26.9683 30.2642C27.3908 30.2642 27.7256 30.1836 27.9727 30.0225C28.2197 29.8577 28.397 29.6375 28.5044 29.3618C28.6154 29.0825 28.6709 28.7728 28.6709 28.4326ZM34.4233 30.0063V27.0146C34.4233 26.7855 34.3768 26.5868 34.2837 26.4185C34.1942 26.2466 34.0581 26.1141 33.8755 26.021C33.6929 25.9279 33.4673 25.8813 33.1987 25.8813C32.9481 25.8813 32.7279 25.9243 32.5381 26.0103C32.3519 26.0962 32.2051 26.209 32.0977 26.3486C31.9938 26.4883 31.9419 26.6387 31.9419 26.7998H30.9482C30.9482 26.5921 31.002 26.3862 31.1094 26.1821C31.2168 25.978 31.3708 25.7936 31.5713 25.6289C31.7754 25.4606 32.0189 25.3281 32.3018 25.2314C32.5882 25.1312 32.9069 25.0811 33.2578 25.0811C33.6803 25.0811 34.0527 25.1527 34.375 25.2959C34.7008 25.4391 34.9551 25.6558 35.1377 25.9458C35.3239 26.2323 35.417 26.5921 35.417 27.0254V29.7324C35.417 29.9258 35.4331 30.1317 35.4653 30.3501C35.5011 30.5685 35.5531 30.7565 35.6211 30.9141V31H34.5845C34.5343 30.8854 34.495 30.7332 34.4663 30.5435C34.4377 30.3501 34.4233 30.1711 34.4233 30.0063ZM34.5952 27.4766L34.606 28.1748H33.6016C33.3187 28.1748 33.0662 28.1981 32.8442 28.2446C32.6222 28.2876 32.436 28.3538 32.2856 28.4434C32.1353 28.5329 32.0207 28.6457 31.9419 28.7817C31.8631 28.9142 31.8237 29.07 31.8237 29.249C31.8237 29.4316 31.8649 29.5981 31.9473 29.7485C32.0296 29.8989 32.1532 30.0189 32.3179 30.1084C32.4862 30.1943 32.6921 30.2373 32.9355 30.2373C33.2399 30.2373 33.5085 30.1729 33.7412 30.0439C33.974 29.915 34.1584 29.7575 34.2944 29.5713C34.4341 29.3851 34.5093 29.2043 34.52 29.0288L34.9443 29.5068C34.9193 29.6572 34.8512 29.8237 34.7402 30.0063C34.6292 30.189 34.4806 30.3644 34.2944 30.5327C34.1118 30.6974 33.8934 30.8353 33.6392 30.9463C33.3885 31.0537 33.1056 31.1074 32.7905 31.1074C32.3966 31.1074 32.0511 31.0304 31.7539 30.8765C31.4603 30.7225 31.2311 30.5166 31.0664 30.2588C30.9053 29.9974 30.8247 29.7056 30.8247 29.3833C30.8247 29.0718 30.8856 28.7979 31.0073 28.5615C31.1291 28.3216 31.3045 28.1229 31.5337 27.9653C31.7629 27.8042 32.0386 27.6825 32.3608 27.6001C32.6831 27.5177 33.043 27.4766 33.4404 27.4766H34.5952ZM40.7451 25.1885H41.6475V30.8765C41.6475 31.3885 41.5436 31.8254 41.3359 32.187C41.1283 32.5487 40.8382 32.8226 40.4658 33.0088C40.097 33.1986 39.6709 33.2935 39.1875 33.2935C38.987 33.2935 38.7507 33.2612 38.4785 33.1968C38.21 33.1359 37.945 33.0303 37.6836 32.8799C37.4258 32.7331 37.2091 32.5343 37.0337 32.2837L37.5547 31.6929C37.7982 31.9865 38.0524 32.1906 38.3174 32.3052C38.5859 32.4198 38.8509 32.4771 39.1123 32.4771C39.4274 32.4771 39.6995 32.418 39.9287 32.2998C40.1579 32.1816 40.3351 32.0062 40.4604 31.7734C40.5894 31.5443 40.6538 31.2614 40.6538 30.9248V26.4668L40.7451 25.1885ZM36.7437 28.1587V28.0459C36.7437 27.6019 36.7956 27.1991 36.8994 26.8374C37.0068 26.4722 37.159 26.1589 37.356 25.8975C37.5565 25.6361 37.7982 25.4355 38.0811 25.2959C38.3639 25.1527 38.6826 25.0811 39.0371 25.0811C39.4023 25.0811 39.721 25.1455 39.9932 25.2744C40.2689 25.3997 40.5016 25.5841 40.6914 25.8276C40.8848 26.0675 41.0369 26.3576 41.1479 26.6978C41.259 27.0379 41.3359 27.4229 41.3789 27.8525V28.3467C41.3395 28.7728 41.2625 29.1559 41.1479 29.4961C41.0369 29.8363 40.8848 30.1263 40.6914 30.3662C40.5016 30.6061 40.2689 30.7905 39.9932 30.9194C39.7174 31.0448 39.3952 31.1074 39.0264 31.1074C38.679 31.1074 38.3639 31.034 38.0811 30.8872C37.8018 30.7404 37.5618 30.5345 37.3613 30.2695C37.1608 30.0046 37.0068 29.693 36.8994 29.335C36.7956 28.9733 36.7437 28.5812 36.7437 28.1587ZM37.7373 28.0459V28.1587C37.7373 28.4487 37.766 28.7209 37.8232 28.9751C37.8841 29.2293 37.9754 29.4531 38.0972 29.6465C38.2225 29.8398 38.3818 29.992 38.5752 30.103C38.7686 30.2104 38.9995 30.2642 39.2681 30.2642C39.5975 30.2642 39.8696 30.1943 40.0845 30.0547C40.2993 29.915 40.4694 29.7306 40.5947 29.5015C40.7236 29.2723 40.8239 29.0234 40.8955 28.7549V27.4604C40.8561 27.2635 40.7952 27.0737 40.7129 26.8911C40.6341 26.7049 40.5303 26.5402 40.4014 26.397C40.276 26.2502 40.1203 26.1338 39.9341 26.0479C39.7479 25.9619 39.5295 25.9189 39.2788 25.9189C39.0067 25.9189 38.7721 25.9762 38.5752 26.0908C38.3818 26.2018 38.2225 26.3558 38.0972 26.5527C37.9754 26.7461 37.8841 26.9717 37.8232 27.2295C37.766 27.4837 37.7373 27.7559 37.7373 28.0459ZM45.5684 31.1074C45.1637 31.1074 44.7967 31.0394 44.4673 30.9033C44.1414 30.7637 43.8604 30.5685 43.624 30.3179C43.3913 30.0672 43.2122 29.77 43.0869 29.4263C42.9616 29.0825 42.8989 28.7065 42.8989 28.2983V28.0728C42.8989 27.6001 42.9688 27.1794 43.1084 26.8105C43.248 26.4382 43.4378 26.123 43.6777 25.8652C43.9176 25.6074 44.1898 25.4123 44.4941 25.2798C44.7985 25.1473 45.1136 25.0811 45.4395 25.0811C45.8548 25.0811 46.2129 25.1527 46.5137 25.2959C46.818 25.4391 47.0669 25.6396 47.2603 25.8975C47.4536 26.1517 47.5968 26.4525 47.6899 26.7998C47.783 27.1436 47.8296 27.5195 47.8296 27.9277V28.3735H43.4897V27.5625H46.8359V27.4873C46.8216 27.2295 46.7679 26.9788 46.6748 26.7354C46.5853 26.4919 46.4421 26.2913 46.2451 26.1338C46.0482 25.9762 45.7796 25.8975 45.4395 25.8975C45.2139 25.8975 45.0062 25.9458 44.8164 26.0425C44.6266 26.1356 44.4637 26.2752 44.3276 26.4614C44.1916 26.6476 44.0859 26.875 44.0107 27.1436C43.9355 27.4121 43.8979 27.7218 43.8979 28.0728V28.2983C43.8979 28.5741 43.9355 28.8337 44.0107 29.0771C44.0895 29.3171 44.2023 29.5283 44.3491 29.7109C44.4995 29.8936 44.6803 30.0368 44.8916 30.1406C45.1064 30.2445 45.3499 30.2964 45.6221 30.2964C45.973 30.2964 46.2702 30.2248 46.5137 30.0815C46.7572 29.9383 46.9702 29.7467 47.1528 29.5068L47.7544 29.9849C47.6291 30.1746 47.4697 30.3555 47.2764 30.5273C47.083 30.6992 46.8449 30.8389 46.562 30.9463C46.2827 31.0537 45.9515 31.1074 45.5684 31.1074Z" fill="#C7C7C7"/>
<path d="M61.7041 23.1797H62.7085L65.2705 29.5552L67.8271 23.1797H68.8369L65.6572 31H64.873L61.7041 23.1797ZM61.3765 23.1797H62.2627L62.4077 27.9492V31H61.3765V23.1797ZM68.2729 23.1797H69.1592V31H68.1279V27.9492L68.2729 23.1797ZM73.2412 31.1074C72.8366 31.1074 72.4696 31.0394 72.1401 30.9033C71.8143 30.7637 71.5332 30.5685 71.2969 30.3179C71.0641 30.0672 70.8851 29.77 70.7598 29.4263C70.6344 29.0825 70.5718 28.7065 70.5718 28.2983V28.0728C70.5718 27.6001 70.6416 27.1794 70.7812 26.8105C70.9209 26.4382 71.1107 26.123 71.3506 25.8652C71.5905 25.6074 71.8626 25.4123 72.167 25.2798C72.4714 25.1473 72.7865 25.0811 73.1123 25.0811C73.5277 25.0811 73.8857 25.1527 74.1865 25.2959C74.4909 25.4391 74.7397 25.6396 74.9331 25.8975C75.1265 26.1517 75.2697 26.4525 75.3628 26.7998C75.4559 27.1436 75.5024 27.5195 75.5024 27.9277V28.3735H71.1626V27.5625H74.5088V27.4873C74.4945 27.2295 74.4408 26.9788 74.3477 26.7354C74.2581 26.4919 74.1149 26.2913 73.918 26.1338C73.721 25.9762 73.4525 25.8975 73.1123 25.8975C72.8867 25.8975 72.679 25.9458 72.4893 26.0425C72.2995 26.1356 72.1366 26.2752 72.0005 26.4614C71.8644 26.6476 71.7588 26.875 71.6836 27.1436C71.6084 27.4121 71.5708 27.7218 71.5708 28.0728V28.2983C71.5708 28.5741 71.6084 28.8337 71.6836 29.0771C71.7624 29.3171 71.8752 29.5283 72.022 29.7109C72.1724 29.8936 72.3532 30.0368 72.5645 30.1406C72.7793 30.2445 73.0228 30.2964 73.2949 30.2964C73.6458 30.2964 73.943 30.2248 74.1865 30.0815C74.43 29.9383 74.6431 29.7467 74.8257 29.5068L75.4272 29.9849C75.3019 30.1746 75.1426 30.3555 74.9492 30.5273C74.7559 30.6992 74.5177 30.8389 74.2349 30.9463C73.9556 31.0537 73.6243 31.1074 73.2412 31.1074ZM79.0957 25.1885V25.9512H75.9536V25.1885H79.0957ZM77.0171 23.7759H78.0107V29.5605C78.0107 29.7575 78.0412 29.9061 78.1021 30.0063C78.1629 30.1066 78.2417 30.1729 78.3384 30.2051C78.4351 30.2373 78.5389 30.2534 78.6499 30.2534C78.7323 30.2534 78.8182 30.2463 78.9077 30.2319C79.0008 30.214 79.0706 30.1997 79.1172 30.189L79.1226 31C79.0438 31.0251 78.9399 31.0483 78.811 31.0698C78.6857 31.0949 78.5335 31.1074 78.3545 31.1074C78.111 31.1074 77.8872 31.0591 77.6831 30.9624C77.479 30.8657 77.3161 30.7046 77.1943 30.479C77.0762 30.2498 77.0171 29.9419 77.0171 29.5552V23.7759ZM83.688 30.0063V27.0146C83.688 26.7855 83.6414 26.5868 83.5483 26.4185C83.4588 26.2466 83.3228 26.1141 83.1401 26.021C82.9575 25.9279 82.7319 25.8813 82.4634 25.8813C82.2127 25.8813 81.9925 25.9243 81.8027 26.0103C81.6165 26.0962 81.4697 26.209 81.3623 26.3486C81.2585 26.4883 81.2065 26.6387 81.2065 26.7998H80.2129C80.2129 26.5921 80.2666 26.3862 80.374 26.1821C80.4814 25.978 80.6354 25.7936 80.8359 25.6289C81.04 25.4606 81.2835 25.3281 81.5664 25.2314C81.8529 25.1312 82.1715 25.0811 82.5225 25.0811C82.945 25.0811 83.3174 25.1527 83.6396 25.2959C83.9655 25.4391 84.2197 25.6558 84.4023 25.9458C84.5885 26.2323 84.6816 26.5921 84.6816 27.0254V29.7324C84.6816 29.9258 84.6978 30.1317 84.73 30.3501C84.7658 30.5685 84.8177 30.7565 84.8857 30.9141V31H83.8491C83.799 30.8854 83.7596 30.7332 83.731 30.5435C83.7023 30.3501 83.688 30.1711 83.688 30.0063ZM83.8599 27.4766L83.8706 28.1748H82.8662C82.5833 28.1748 82.3309 28.1981 82.1089 28.2446C81.8869 28.2876 81.7007 28.3538 81.5503 28.4434C81.3999 28.5329 81.2853 28.6457 81.2065 28.7817C81.1278 28.9142 81.0884 29.07 81.0884 29.249C81.0884 29.4316 81.1296 29.5981 81.2119 29.7485C81.2943 29.8989 81.4178 30.0189 81.5825 30.1084C81.7508 30.1943 81.9567 30.2373 82.2002 30.2373C82.5046 30.2373 82.7731 30.1729 83.0059 30.0439C83.2386 29.915 83.423 29.7575 83.5591 29.5713C83.6987 29.3851 83.7739 29.2043 83.7847 29.0288L84.209 29.5068C84.1839 29.6572 84.1159 29.8237 84.0049 30.0063C83.8939 30.189 83.7453 30.3644 83.5591 30.5327C83.3765 30.6974 83.158 30.8353 82.9038 30.9463C82.6532 31.0537 82.3703 31.1074 82.0552 31.1074C81.6613 31.1074 81.3158 31.0304 81.0186 30.8765C80.7249 30.7225 80.4958 30.5166 80.3311 30.2588C80.1699 29.9974 80.0894 29.7056 80.0894 29.3833C80.0894 29.0718 80.1502 28.7979 80.272 28.5615C80.3937 28.3216 80.5692 28.1229 80.7983 27.9653C81.0275 27.8042 81.3032 27.6825 81.6255 27.6001C81.9478 27.5177 82.3076 27.4766 82.7051 27.4766H83.8599ZM91.6479 29.813L93.9521 23.1797H95.0747L92.1797 31H91.3794L91.6479 29.813ZM89.4941 23.1797L91.7769 29.813L92.0615 31H91.2612L88.3716 23.1797H89.4941ZM98.1523 31.1074C97.7477 31.1074 97.3807 31.0394 97.0513 30.9033C96.7254 30.7637 96.4443 30.5685 96.208 30.3179C95.9753 30.0672 95.7962 29.77 95.6709 29.4263C95.5456 29.0825 95.4829 28.7065 95.4829 28.2983V28.0728C95.4829 27.6001 95.5527 27.1794 95.6924 26.8105C95.832 26.4382 96.0218 26.123 96.2617 25.8652C96.5016 25.6074 96.7738 25.4123 97.0781 25.2798C97.3825 25.1473 97.6976 25.0811 98.0234 25.0811C98.4388 25.0811 98.7969 25.1527 99.0977 25.2959C99.402 25.4391 99.6509 25.6396 99.8442 25.8975C100.038 26.1517 100.181 26.4525 100.274 26.7998C100.367 27.1436 100.414 27.5195 100.414 27.9277V28.3735H96.0737V27.5625H99.4199V27.4873C99.4056 27.2295 99.3519 26.9788 99.2588 26.7354C99.1693 26.4919 99.026 26.2913 98.8291 26.1338C98.6322 25.9762 98.3636 25.8975 98.0234 25.8975C97.7979 25.8975 97.5902 25.9458 97.4004 26.0425C97.2106 26.1356 97.0477 26.2752 96.9116 26.4614C96.7756 26.6476 96.6699 26.875 96.5947 27.1436C96.5195 27.4121 96.4819 27.7218 96.4819 28.0728V28.2983C96.4819 28.5741 96.5195 28.8337 96.5947 29.0771C96.6735 29.3171 96.7863 29.5283 96.9331 29.7109C97.0835 29.8936 97.2643 30.0368 97.4756 30.1406C97.6904 30.2445 97.9339 30.2964 98.2061 30.2964C98.557 30.2964 98.8542 30.2248 99.0977 30.0815C99.3411 29.9383 99.5542 29.7467 99.7368 29.5068L100.338 29.9849C100.213 30.1746 100.054 30.3555 99.8604 30.5273C99.667 30.6992 99.4289 30.8389 99.146 30.9463C98.8667 31.0537 98.5355 31.1074 98.1523 31.1074ZM102.567 26.1016V31H101.574V25.1885H102.541L102.567 26.1016ZM104.383 25.1562L104.377 26.0801C104.295 26.0622 104.216 26.0514 104.141 26.0479C104.069 26.0407 103.987 26.0371 103.894 26.0371C103.665 26.0371 103.463 26.0729 103.287 26.1445C103.112 26.2161 102.963 26.3164 102.841 26.4453C102.72 26.5742 102.623 26.7282 102.551 26.9072C102.483 27.0827 102.438 27.276 102.417 27.4873L102.138 27.6484C102.138 27.2975 102.172 26.9681 102.24 26.6602C102.311 26.3522 102.421 26.0801 102.567 25.8438C102.714 25.6038 102.9 25.4176 103.126 25.2852C103.355 25.1491 103.627 25.0811 103.942 25.0811C104.014 25.0811 104.096 25.09 104.189 25.1079C104.283 25.1222 104.347 25.1383 104.383 25.1562ZM106.381 25.1885V31H105.382V25.1885H106.381ZM105.307 23.647C105.307 23.4858 105.355 23.3498 105.452 23.2388C105.552 23.1278 105.699 23.0723 105.892 23.0723C106.082 23.0723 106.227 23.1278 106.327 23.2388C106.431 23.3498 106.483 23.4858 106.483 23.647C106.483 23.8009 106.431 23.9334 106.327 24.0444C106.227 24.1519 106.082 24.2056 105.892 24.2056C105.699 24.2056 105.552 24.1519 105.452 24.0444C105.355 23.9334 105.307 23.8009 105.307 23.647ZM109.303 31H108.309V24.6836C108.309 24.2432 108.395 23.8708 108.567 23.5664C108.739 23.262 108.984 23.0311 109.303 22.8735C109.621 22.716 109.999 22.6372 110.436 22.6372C110.694 22.6372 110.946 22.6694 111.193 22.7339C111.44 22.7948 111.695 22.8717 111.956 22.9648L111.79 23.8027C111.625 23.7383 111.433 23.6774 111.215 23.6201C111 23.5592 110.764 23.5288 110.506 23.5288C110.08 23.5288 109.772 23.6255 109.582 23.8188C109.396 24.0086 109.303 24.2969 109.303 24.6836V31ZM110.49 25.1885V25.9512H107.391V25.1885H110.49ZM112.445 25.1885V31H111.451V25.1885H112.445ZM116.489 31.1074C116.085 31.1074 115.718 31.0394 115.388 30.9033C115.062 30.7637 114.781 30.5685 114.545 30.3179C114.312 30.0672 114.133 29.77 114.008 29.4263C113.882 29.0825 113.82 28.7065 113.82 28.2983V28.0728C113.82 27.6001 113.89 27.1794 114.029 26.8105C114.169 26.4382 114.359 26.123 114.599 25.8652C114.839 25.6074 115.111 25.4123 115.415 25.2798C115.719 25.1473 116.035 25.0811 116.36 25.0811C116.776 25.0811 117.134 25.1527 117.435 25.2959C117.739 25.4391 117.988 25.6396 118.181 25.8975C118.375 26.1517 118.518 26.4525 118.611 26.7998C118.704 27.1436 118.75 27.5195 118.75 27.9277V28.3735H114.411V27.5625H117.757V27.4873C117.743 27.2295 117.689 26.9788 117.596 26.7354C117.506 26.4919 117.363 26.2913 117.166 26.1338C116.969 25.9762 116.701 25.8975 116.36 25.8975C116.135 25.8975 115.927 25.9458 115.737 26.0425C115.548 26.1356 115.385 26.2752 115.249 26.4614C115.112 26.6476 115.007 26.875 114.932 27.1436C114.856 27.4121 114.819 27.7218 114.819 28.0728V28.2983C114.819 28.5741 114.856 28.8337 114.932 29.0771C115.01 29.3171 115.123 29.5283 115.27 29.7109C115.42 29.8936 115.601 30.0368 115.812 30.1406C116.027 30.2445 116.271 30.2964 116.543 30.2964C116.894 30.2964 117.191 30.2248 117.435 30.0815C117.678 29.9383 117.891 29.7467 118.074 29.5068L118.675 29.9849C118.55 30.1746 118.391 30.3555 118.197 30.5273C118.004 30.6992 117.766 30.8389 117.483 30.9463C117.204 31.0537 116.872 31.1074 116.489 31.1074ZM123.574 29.8721V22.75H124.573V31H123.66L123.574 29.8721ZM119.664 28.1587V28.0459C119.664 27.6019 119.717 27.1991 119.825 26.8374C119.936 26.4722 120.091 26.1589 120.292 25.8975C120.496 25.6361 120.738 25.4355 121.017 25.2959C121.3 25.1527 121.615 25.0811 121.962 25.0811C122.328 25.0811 122.646 25.1455 122.918 25.2744C123.194 25.3997 123.427 25.5841 123.617 25.8276C123.81 26.0675 123.962 26.3576 124.073 26.6978C124.184 27.0379 124.261 27.4229 124.304 27.8525V28.3467C124.265 28.7728 124.188 29.1559 124.073 29.4961C123.962 29.8363 123.81 30.1263 123.617 30.3662C123.427 30.6061 123.194 30.7905 122.918 30.9194C122.643 31.0448 122.32 31.1074 121.952 31.1074C121.611 31.1074 121.3 31.034 121.017 30.8872C120.738 30.7404 120.496 30.5345 120.292 30.2695C120.091 30.0046 119.936 29.693 119.825 29.335C119.717 28.9733 119.664 28.5812 119.664 28.1587ZM120.663 28.0459V28.1587C120.663 28.4487 120.691 28.7209 120.749 28.9751C120.809 29.2293 120.903 29.4531 121.028 29.6465C121.153 29.8398 121.312 29.992 121.506 30.103C121.699 30.2104 121.93 30.2642 122.199 30.2642C122.528 30.2642 122.799 30.1943 123.01 30.0547C123.225 29.915 123.396 29.7306 123.525 29.5015C123.654 29.2723 123.755 29.0234 123.826 28.7549V27.4604C123.783 27.2635 123.721 27.0737 123.638 26.8911C123.559 26.7049 123.456 26.5402 123.327 26.397C123.201 26.2502 123.046 26.1338 122.859 26.0479C122.677 25.9619 122.46 25.9189 122.209 25.9189C121.937 25.9189 121.703 25.9762 121.506 26.0908C121.312 26.2018 121.153 26.3558 121.028 26.5527C120.903 26.7461 120.809 26.9717 120.749 27.2295C120.691 27.4837 120.663 27.7559 120.663 28.0459Z" fill="#C7C7C7"/>
</svg>
