<svg width="35" height="10" viewBox="0 0 35 10" fill="none" xmlns="http://www.w3.org/2000/svg">
<path d="M5.24072 6.96973C5.24072 6.81934 5.21745 6.68506 5.1709 6.56689C5.12793 6.44515 5.04736 6.33594 4.9292 6.23926C4.81462 6.139 4.65169 6.04232 4.44043 5.94922C4.23275 5.85254 3.96419 5.75228 3.63477 5.64844C3.26953 5.53385 2.92936 5.40495 2.61426 5.26172C2.29915 5.11849 2.02165 4.95199 1.78174 4.76221C1.54541 4.57243 1.361 4.354 1.22852 4.10693C1.09603 3.85628 1.02979 3.56624 1.02979 3.23682C1.02979 2.91455 1.09782 2.62093 1.23389 2.35596C1.37354 2.09098 1.57048 1.86361 1.82471 1.67383C2.07894 1.48047 2.37793 1.33187 2.72168 1.22803C3.06901 1.12419 3.45215 1.07227 3.87109 1.07227C4.45117 1.07227 4.95247 1.1779 5.375 1.38916C5.80111 1.60042 6.13053 1.88688 6.36328 2.24854C6.59603 2.61019 6.7124 3.0166 6.7124 3.46777H5.24072C5.24072 3.22428 5.1888 3.00944 5.08496 2.82324C4.9847 2.63704 4.83073 2.49023 4.62305 2.38281C4.41895 2.27539 4.16113 2.22168 3.84961 2.22168C3.54883 2.22168 3.29818 2.26644 3.09766 2.35596C2.90072 2.44548 2.75212 2.56722 2.65186 2.72119C2.55518 2.87516 2.50684 3.04704 2.50684 3.23682C2.50684 3.38005 2.54085 3.50895 2.60889 3.62354C2.67692 3.73454 2.77897 3.84017 2.91504 3.94043C3.05111 4.03711 3.2194 4.12842 3.41992 4.21436C3.62402 4.29671 3.86035 4.37907 4.12891 4.46143C4.55859 4.59033 4.93457 4.73356 5.25684 4.89111C5.58268 5.04867 5.85303 5.2277 6.06787 5.42822C6.2863 5.62874 6.44922 5.85433 6.55664 6.10498C6.66764 6.35563 6.72314 6.6403 6.72314 6.95898C6.72314 7.29557 6.6569 7.59635 6.52441 7.86133C6.39193 8.1263 6.20215 8.35189 5.95508 8.53809C5.70801 8.72428 5.41081 8.86572 5.06348 8.9624C4.71973 9.05908 4.3348 9.10742 3.90869 9.10742C3.52913 9.10742 3.15316 9.05729 2.78076 8.95703C2.41195 8.85319 2.07715 8.69922 1.77637 8.49512C1.47559 8.28743 1.23568 8.02604 1.05664 7.71094C0.877604 7.39225 0.788086 7.01986 0.788086 6.59375H2.27051C2.27051 6.84082 2.3099 7.05208 2.38867 7.22754C2.47103 7.39941 2.58561 7.54085 2.73242 7.65186C2.88281 7.75928 3.05827 7.83805 3.25879 7.88818C3.45931 7.93831 3.67594 7.96338 3.90869 7.96338C4.20947 7.96338 4.45654 7.9222 4.6499 7.83984C4.84684 7.75391 4.99365 7.63574 5.09033 7.48535C5.19059 7.33496 5.24072 7.16309 5.24072 6.96973ZM10.3647 9.10742C9.92432 9.10742 9.52865 9.03581 9.17773 8.89258C8.82682 8.74935 8.52783 8.55062 8.28076 8.29639C8.03727 8.03857 7.84928 7.73958 7.7168 7.39941C7.58789 7.05566 7.52344 6.68685 7.52344 6.29297V6.07812C7.52344 5.63053 7.58789 5.22412 7.7168 4.85889C7.8457 4.49007 8.02832 4.17318 8.26465 3.9082C8.50098 3.64323 8.78385 3.43913 9.11328 3.2959C9.44271 3.15267 9.80615 3.08105 10.2036 3.08105C10.6154 3.08105 10.9788 3.15088 11.2939 3.29053C11.609 3.4266 11.8722 3.61995 12.0835 3.87061C12.2948 4.12126 12.4541 4.42204 12.5615 4.77295C12.6689 5.12028 12.7227 5.50521 12.7227 5.92773V6.52393H8.16797V5.54639H11.3262V5.43896C11.319 5.21338 11.276 5.00749 11.1973 4.82129C11.1185 4.63151 10.9967 4.48112 10.832 4.37012C10.6673 4.25553 10.4543 4.19824 10.1929 4.19824C9.98161 4.19824 9.7972 4.24479 9.63965 4.33789C9.48568 4.42741 9.35677 4.55632 9.25293 4.72461C9.15267 4.88932 9.07747 5.08626 9.02734 5.31543C8.97721 5.5446 8.95215 5.79883 8.95215 6.07812V6.29297C8.95215 6.53646 8.98438 6.76204 9.04883 6.96973C9.11686 7.17741 9.21533 7.35824 9.34424 7.51221C9.47673 7.6626 9.63428 7.78076 9.81689 7.8667C10.0031 7.94906 10.2144 7.99023 10.4507 7.99023C10.7479 7.99023 11.0164 7.93294 11.2563 7.81836C11.4998 7.7002 11.7111 7.52653 11.8901 7.29736L12.6045 8.03857C12.4827 8.21761 12.318 8.38949 12.1104 8.5542C11.9062 8.71891 11.6592 8.85319 11.3691 8.95703C11.0791 9.05729 10.7443 9.10742 10.3647 9.10742ZM16.2837 9.10742C15.8433 9.10742 15.4476 9.03581 15.0967 8.89258C14.7458 8.74935 14.4468 8.55062 14.1997 8.29639C13.9562 8.03857 13.7682 7.73958 13.6357 7.39941C13.5068 7.05566 13.4424 6.68685 13.4424 6.29297V6.07812C13.4424 5.63053 13.5068 5.22412 13.6357 4.85889C13.7646 4.49007 13.9473 4.17318 14.1836 3.9082C14.4199 3.64323 14.7028 3.43913 15.0322 3.2959C15.3617 3.15267 15.7251 3.08105 16.1226 3.08105C16.5343 3.08105 16.8978 3.15088 17.2129 3.29053C17.528 3.4266 17.7912 3.61995 18.0024 3.87061C18.2137 4.12126 18.373 4.42204 18.4805 4.77295C18.5879 5.12028 18.6416 5.50521 18.6416 5.92773V6.52393H14.0869V5.54639H17.2451V5.43896C17.238 5.21338 17.195 5.00749 17.1162 4.82129C17.0374 4.63151 16.9157 4.48112 16.751 4.37012C16.5863 4.25553 16.3732 4.19824 16.1118 4.19824C15.9006 4.19824 15.7161 4.24479 15.5586 4.33789C15.4046 4.42741 15.2757 4.55632 15.1719 4.72461C15.0716 4.88932 14.9964 5.08626 14.9463 5.31543C14.8962 5.5446 14.8711 5.79883 14.8711 6.07812V6.29297C14.8711 6.53646 14.9033 6.76204 14.9678 6.96973C15.0358 7.17741 15.1343 7.35824 15.2632 7.51221C15.3957 7.6626 15.5532 7.78076 15.7358 7.8667C15.922 7.94906 16.1333 7.99023 16.3696 7.99023C16.6668 7.99023 16.9354 7.93294 17.1753 7.81836C17.4188 7.7002 17.63 7.52653 17.8091 7.29736L18.5234 8.03857C18.4017 8.21761 18.237 8.38949 18.0293 8.5542C17.8252 8.71891 17.5781 8.85319 17.2881 8.95703C16.998 9.05729 16.6632 9.10742 16.2837 9.10742ZM25.5488 2.3667L23.3198 9H21.7568L24.6787 1.17969H25.6777L25.5488 2.3667ZM27.4126 9L25.1729 2.3667L25.0386 1.17969H26.043L28.981 9H27.4126ZM27.3105 6.09424V7.25977H23.1157V6.09424H27.3105ZM31.1831 0.75V9H29.7598V0.75H31.1831ZM34.0405 0.75V9H32.6172V0.75H34.0405Z" fill="#262626"/>
</svg>
