<svg width="351" height="19" viewBox="0 0 351 19" fill="none" xmlns="http://www.w3.org/2000/svg">
<path d="M22.1592 12.416C22.1592 12.2246 22.1296 12.0537 22.0703 11.9033C22.0156 11.7484 21.9131 11.6094 21.7627 11.4863C21.6169 11.3587 21.4095 11.2357 21.1406 11.1172C20.8763 10.9941 20.5345 10.8665 20.1152 10.7344C19.6504 10.5885 19.2174 10.4245 18.8164 10.2422C18.4154 10.0599 18.0622 9.84798 17.7568 9.60645C17.4561 9.36491 17.2214 9.08691 17.0527 8.77246C16.8841 8.45345 16.7998 8.08431 16.7998 7.66504C16.7998 7.25488 16.8864 6.88118 17.0596 6.54395C17.2373 6.20671 17.488 5.91732 17.8115 5.67578C18.1351 5.42969 18.5156 5.24056 18.9531 5.1084C19.3952 4.97624 19.8828 4.91016 20.416 4.91016C21.1543 4.91016 21.7923 5.0446 22.3301 5.31348C22.8724 5.58236 23.2917 5.94694 23.5879 6.40723C23.8841 6.86751 24.0322 7.38477 24.0322 7.95898H22.1592C22.1592 7.64909 22.0931 7.37565 21.9609 7.13867C21.8333 6.90169 21.6374 6.71484 21.373 6.57812C21.1133 6.44141 20.7852 6.37305 20.3887 6.37305C20.0059 6.37305 19.6868 6.43001 19.4316 6.54395C19.181 6.65788 18.9919 6.81283 18.8643 7.00879C18.7412 7.20475 18.6797 7.4235 18.6797 7.66504C18.6797 7.84733 18.723 8.01139 18.8096 8.15723C18.8962 8.2985 19.026 8.43294 19.1992 8.56055C19.3724 8.68359 19.5866 8.7998 19.8418 8.90918C20.1016 9.014 20.4023 9.11882 20.7441 9.22363C21.291 9.3877 21.7695 9.56999 22.1797 9.77051C22.5944 9.97103 22.9385 10.1989 23.2119 10.4541C23.4899 10.7093 23.6973 10.9964 23.834 11.3154C23.9753 11.6344 24.0459 11.9967 24.0459 12.4023C24.0459 12.8307 23.9616 13.2135 23.793 13.5508C23.6243 13.888 23.3828 14.1751 23.0684 14.4121C22.7539 14.6491 22.3757 14.8291 21.9336 14.9521C21.4961 15.0752 21.0062 15.1367 20.4639 15.1367C19.9808 15.1367 19.5023 15.0729 19.0283 14.9453C18.5589 14.8132 18.1328 14.6172 17.75 14.3574C17.3672 14.0931 17.0618 13.7604 16.834 13.3594C16.6061 12.9538 16.4922 12.4798 16.4922 11.9375H18.3789C18.3789 12.252 18.429 12.5208 18.5293 12.7441C18.6341 12.9629 18.7799 13.1429 18.9668 13.2842C19.1582 13.4209 19.3815 13.5212 19.6367 13.585C19.8919 13.6488 20.1676 13.6807 20.4639 13.6807C20.8467 13.6807 21.1611 13.6283 21.4072 13.5234C21.6579 13.4141 21.8447 13.2637 21.9678 13.0723C22.0954 12.8809 22.1592 12.6621 22.1592 12.416ZM29.7607 13.2432V7.60352H31.5791V15H29.8701L29.7607 13.2432ZM29.9932 11.7119L30.5537 11.6982C30.5537 12.195 30.499 12.653 30.3896 13.0723C30.2803 13.4915 30.1094 13.8561 29.877 14.166C29.6491 14.4714 29.3597 14.7106 29.0088 14.8838C28.6579 15.0524 28.2432 15.1367 27.7646 15.1367C27.4001 15.1367 27.0674 15.0866 26.7666 14.9863C26.4658 14.8815 26.2061 14.7197 25.9873 14.501C25.7731 14.2777 25.6068 13.9928 25.4883 13.6465C25.3698 13.2956 25.3105 12.874 25.3105 12.3818V7.60352H27.1152V12.3955C27.1152 12.6416 27.1426 12.8467 27.1973 13.0107C27.2565 13.1748 27.3363 13.3092 27.4365 13.4141C27.5413 13.5143 27.6621 13.5872 27.7988 13.6328C27.9401 13.6738 28.0905 13.6943 28.25 13.6943C28.6875 13.6943 29.0316 13.6077 29.2822 13.4346C29.5374 13.2568 29.7197 13.0199 29.8291 12.7236C29.9385 12.4229 29.9932 12.0856 29.9932 11.7119ZM37.8818 7.60352H39.5225V14.7744C39.5225 15.4443 39.3766 16.0117 39.085 16.4766C38.7979 16.946 38.3945 17.3014 37.875 17.543C37.3555 17.7891 36.7516 17.9121 36.0635 17.9121C35.7673 17.9121 35.446 17.8711 35.0996 17.7891C34.7578 17.707 34.4274 17.5771 34.1084 17.3994C33.7939 17.2262 33.5319 17.0007 33.3223 16.7227L34.1357 15.6562C34.3818 15.9434 34.6598 16.1598 34.9697 16.3057C35.2796 16.4561 35.6146 16.5312 35.9746 16.5312C36.3392 16.5312 36.6491 16.4629 36.9043 16.3262C37.1641 16.194 37.3623 15.998 37.499 15.7383C37.6403 15.4831 37.7109 15.1686 37.7109 14.7949V9.29199L37.8818 7.60352ZM32.8848 11.3906V11.2471C32.8848 10.682 32.9531 10.1693 33.0898 9.70898C33.2266 9.24414 33.4225 8.84538 33.6777 8.5127C33.9375 8.18001 34.2497 7.92253 34.6143 7.74023C34.9834 7.55794 35.3981 7.4668 35.8584 7.4668C36.346 7.4668 36.7562 7.55566 37.0889 7.7334C37.4261 7.91113 37.7041 8.16406 37.9229 8.49219C38.1462 8.82031 38.3193 9.20996 38.4424 9.66113C38.57 10.1077 38.668 10.5999 38.7363 11.1377V11.5273C38.6725 12.0514 38.57 12.5322 38.4287 12.9697C38.292 13.4072 38.1097 13.79 37.8818 14.1182C37.654 14.4417 37.3714 14.6924 37.0342 14.8701C36.6969 15.0479 36.3005 15.1367 35.8447 15.1367C35.389 15.1367 34.9788 15.0433 34.6143 14.8564C34.2497 14.6696 33.9375 14.4076 33.6777 14.0703C33.4225 13.7331 33.2266 13.3366 33.0898 12.8809C32.9531 12.4251 32.8848 11.9284 32.8848 11.3906ZM34.6895 11.2471V11.3906C34.6895 11.7096 34.7214 12.0081 34.7852 12.2861C34.849 12.5641 34.9469 12.8102 35.0791 13.0244C35.2113 13.234 35.3776 13.3981 35.5781 13.5166C35.7786 13.6351 36.0179 13.6943 36.2959 13.6943C36.6696 13.6943 36.9749 13.6169 37.2119 13.4619C37.4535 13.3024 37.6357 13.0859 37.7588 12.8125C37.8864 12.5345 37.9684 12.2223 38.0049 11.876V10.8027C37.9821 10.5293 37.932 10.2764 37.8545 10.0439C37.7816 9.81152 37.679 9.611 37.5469 9.44238C37.4147 9.27376 37.2461 9.1416 37.041 9.0459C36.8359 8.9502 36.5921 8.90234 36.3096 8.90234C36.0361 8.90234 35.7969 8.96387 35.5918 9.08691C35.3867 9.2054 35.2181 9.37174 35.0859 9.58594C34.9538 9.80013 34.8535 10.0485 34.7852 10.3311C34.7214 10.6136 34.6895 10.9189 34.6895 11.2471ZM45.8525 7.60352H47.4932V14.7744C47.4932 15.4443 47.3473 16.0117 47.0557 16.4766C46.7686 16.946 46.3652 17.3014 45.8457 17.543C45.3262 17.7891 44.7223 17.9121 44.0342 17.9121C43.738 17.9121 43.4167 17.8711 43.0703 17.7891C42.7285 17.707 42.3981 17.5771 42.0791 17.3994C41.7646 17.2262 41.5026 17.0007 41.293 16.7227L42.1064 15.6562C42.3525 15.9434 42.6305 16.1598 42.9404 16.3057C43.2503 16.4561 43.5853 16.5312 43.9453 16.5312C44.3099 16.5312 44.6198 16.4629 44.875 16.3262C45.1348 16.194 45.333 15.998 45.4697 15.7383C45.611 15.4831 45.6816 15.1686 45.6816 14.7949V9.29199L45.8525 7.60352ZM40.8555 11.3906V11.2471C40.8555 10.682 40.9238 10.1693 41.0605 9.70898C41.1973 9.24414 41.3932 8.84538 41.6484 8.5127C41.9082 8.18001 42.2204 7.92253 42.585 7.74023C42.9541 7.55794 43.3688 7.4668 43.8291 7.4668C44.3167 7.4668 44.7269 7.55566 45.0596 7.7334C45.3968 7.91113 45.6748 8.16406 45.8936 8.49219C46.1169 8.82031 46.29 9.20996 46.4131 9.66113C46.5407 10.1077 46.6387 10.5999 46.707 11.1377V11.5273C46.6432 12.0514 46.5407 12.5322 46.3994 12.9697C46.2627 13.4072 46.0804 13.79 45.8525 14.1182C45.6247 14.4417 45.3421 14.6924 45.0049 14.8701C44.6676 15.0479 44.2712 15.1367 43.8154 15.1367C43.3597 15.1367 42.9495 15.0433 42.585 14.8564C42.2204 14.6696 41.9082 14.4076 41.6484 14.0703C41.3932 13.7331 41.1973 13.3366 41.0605 12.8809C40.9238 12.4251 40.8555 11.9284 40.8555 11.3906ZM42.6602 11.2471V11.3906C42.6602 11.7096 42.6921 12.0081 42.7559 12.2861C42.8197 12.5641 42.9176 12.8102 43.0498 13.0244C43.182 13.234 43.3483 13.3981 43.5488 13.5166C43.7493 13.6351 43.9886 13.6943 44.2666 13.6943C44.6403 13.6943 44.9456 13.6169 45.1826 13.4619C45.4242 13.3024 45.6064 13.0859 45.7295 12.8125C45.8571 12.5345 45.9391 12.2223 45.9756 11.876V10.8027C45.9528 10.5293 45.9027 10.2764 45.8252 10.0439C45.7523 9.81152 45.6497 9.611 45.5176 9.44238C45.3854 9.27376 45.2168 9.1416 45.0117 9.0459C44.8066 8.9502 44.5628 8.90234 44.2803 8.90234C44.0068 8.90234 43.7676 8.96387 43.5625 9.08691C43.3574 9.2054 43.1888 9.37174 43.0566 9.58594C42.9245 9.80013 42.8242 10.0485 42.7559 10.3311C42.6921 10.6136 42.6602 10.9189 42.6602 11.2471ZM52.4424 15.1367C51.8818 15.1367 51.3783 15.0456 50.9316 14.8633C50.485 14.681 50.1045 14.4281 49.79 14.1045C49.4801 13.7764 49.2409 13.3958 49.0723 12.9629C48.9082 12.5254 48.8262 12.056 48.8262 11.5547V11.2812C48.8262 10.7116 48.9082 10.1943 49.0723 9.72949C49.2363 9.26009 49.4688 8.85677 49.7695 8.51953C50.0703 8.18229 50.4303 7.92253 50.8496 7.74023C51.2689 7.55794 51.7314 7.4668 52.2373 7.4668C52.7614 7.4668 53.224 7.55566 53.625 7.7334C54.026 7.90658 54.361 8.15267 54.6299 8.47168C54.8988 8.79069 55.1016 9.1735 55.2383 9.62012C55.375 10.0622 55.4434 10.5521 55.4434 11.0898V11.8486H49.6465V10.6045H53.666V10.4678C53.6569 10.1807 53.6022 9.91862 53.502 9.68164C53.4017 9.4401 53.2467 9.2487 53.0371 9.10742C52.8275 8.96159 52.5563 8.88867 52.2236 8.88867C51.9548 8.88867 51.7201 8.94792 51.5195 9.06641C51.3236 9.18034 51.1595 9.3444 51.0273 9.55859C50.8997 9.76823 50.804 10.0189 50.7402 10.3105C50.6764 10.6022 50.6445 10.9258 50.6445 11.2812V11.5547C50.6445 11.8646 50.6855 12.1517 50.7676 12.416C50.8542 12.6803 50.9795 12.9105 51.1436 13.1064C51.3122 13.2979 51.5127 13.4482 51.7451 13.5576C51.9821 13.6624 52.251 13.7148 52.5518 13.7148C52.93 13.7148 53.2718 13.6419 53.5771 13.4961C53.887 13.3457 54.1559 13.1247 54.3838 12.833L55.293 13.7764C55.138 14.0042 54.9284 14.223 54.6641 14.4326C54.4043 14.6423 54.0898 14.8132 53.7207 14.9453C53.3516 15.0729 52.9255 15.1367 52.4424 15.1367ZM60.7207 12.9766C60.7207 12.8216 60.6797 12.6826 60.5977 12.5596C60.5156 12.4365 60.3607 12.3249 60.1328 12.2246C59.9095 12.1198 59.5814 12.0218 59.1484 11.9307C58.7656 11.8486 58.4124 11.7461 58.0889 11.623C57.7653 11.5 57.4873 11.3519 57.2549 11.1787C57.0225 11.001 56.8402 10.7936 56.708 10.5566C56.5804 10.3151 56.5166 10.0371 56.5166 9.72266C56.5166 9.41732 56.5827 9.13021 56.7148 8.86133C56.847 8.58789 57.0384 8.34863 57.2891 8.14355C57.5397 7.93392 57.8451 7.76986 58.2051 7.65137C58.5651 7.52832 58.9707 7.4668 59.4219 7.4668C60.0508 7.4668 60.5908 7.56934 61.042 7.77441C61.4977 7.97949 61.8464 8.26204 62.0879 8.62207C62.3294 8.97754 62.4502 9.37858 62.4502 9.8252H60.6455C60.6455 9.62923 60.5999 9.4515 60.5088 9.29199C60.4222 9.13249 60.2878 9.00488 60.1055 8.90918C59.9232 8.80892 59.693 8.75879 59.415 8.75879C59.1644 8.75879 58.9525 8.7998 58.7793 8.88184C58.6107 8.96387 58.4831 9.07096 58.3965 9.20312C58.3099 9.33529 58.2666 9.48112 58.2666 9.64062C58.2666 9.75911 58.2894 9.86621 58.335 9.96191C58.3851 10.0531 58.4648 10.1374 58.5742 10.2148C58.6836 10.2923 58.8317 10.363 59.0186 10.4268C59.21 10.4906 59.4447 10.5521 59.7227 10.6113C60.2741 10.7207 60.7549 10.8665 61.165 11.0488C61.5798 11.2266 61.9033 11.4635 62.1357 11.7598C62.3682 12.056 62.4844 12.4342 62.4844 12.8945C62.4844 13.2227 62.4137 13.5234 62.2725 13.7969C62.1312 14.0658 61.9261 14.3005 61.6572 14.501C61.3883 14.7015 61.0671 14.8587 60.6934 14.9727C60.3197 15.082 59.8981 15.1367 59.4287 15.1367C58.7497 15.1367 58.1755 15.016 57.7061 14.7744C57.2367 14.5283 56.8812 14.2184 56.6396 13.8447C56.3981 13.4665 56.2773 13.0745 56.2773 12.6689H58.0068C58.0205 12.9561 58.098 13.1862 58.2393 13.3594C58.3805 13.5326 58.5583 13.6579 58.7725 13.7354C58.9912 13.8083 59.2214 13.8447 59.4629 13.8447C59.7363 13.8447 59.9665 13.8083 60.1533 13.7354C60.3402 13.6579 60.4814 13.5553 60.5771 13.4277C60.6729 13.2956 60.7207 13.1452 60.7207 12.9766ZM67.3584 7.60352V8.90234H63.1201V7.60352H67.3584ZM64.2549 5.78516H66.0664V12.8672C66.0664 13.0859 66.096 13.2546 66.1553 13.373C66.2145 13.4915 66.3034 13.5713 66.4219 13.6123C66.5404 13.6533 66.6816 13.6738 66.8457 13.6738C66.9642 13.6738 67.0736 13.667 67.1738 13.6533C67.2741 13.6396 67.3584 13.626 67.4268 13.6123L67.4336 14.9658C67.2832 15.016 67.1123 15.057 66.9209 15.0889C66.734 15.1208 66.5221 15.1367 66.2852 15.1367C65.8796 15.1367 65.5241 15.0684 65.2188 14.9316C64.9134 14.7904 64.6764 14.5648 64.5078 14.2549C64.3392 13.9404 64.2549 13.5257 64.2549 13.0107V5.78516ZM70.4756 7.60352V15H68.6641V7.60352H70.4756ZM68.541 5.66895C68.541 5.40007 68.6322 5.17676 68.8145 4.99902C69.0013 4.82129 69.252 4.73242 69.5664 4.73242C69.8809 4.73242 70.1292 4.82129 70.3115 4.99902C70.4984 5.17676 70.5918 5.40007 70.5918 5.66895C70.5918 5.93327 70.4984 6.1543 70.3115 6.33203C70.1292 6.50977 69.8809 6.59863 69.5664 6.59863C69.252 6.59863 69.0013 6.50977 68.8145 6.33203C68.6322 6.1543 68.541 5.93327 68.541 5.66895ZM71.877 11.377V11.2334C71.877 10.6911 71.9544 10.1921 72.1094 9.73633C72.2643 9.27604 72.4899 8.87728 72.7861 8.54004C73.0824 8.2028 73.4447 7.94076 73.873 7.75391C74.3014 7.5625 74.7891 7.4668 75.3359 7.4668C75.8919 7.4668 76.3841 7.5625 76.8125 7.75391C77.2454 7.94076 77.61 8.2028 77.9062 8.54004C78.2025 8.87728 78.4281 9.27604 78.583 9.73633C78.738 10.1921 78.8154 10.6911 78.8154 11.2334V11.377C78.8154 11.9147 78.738 12.4137 78.583 12.874C78.4281 13.3298 78.2025 13.7285 77.9062 14.0703C77.61 14.4076 77.2477 14.6696 76.8193 14.8564C76.391 15.0433 75.901 15.1367 75.3496 15.1367C74.8027 15.1367 74.3128 15.0433 73.8799 14.8564C73.4469 14.6696 73.0824 14.4076 72.7861 14.0703C72.4899 13.7285 72.2643 13.3298 72.1094 12.874C71.9544 12.4137 71.877 11.9147 71.877 11.377ZM73.6816 11.2334V11.377C73.6816 11.7005 73.7135 12.0036 73.7773 12.2861C73.8411 12.5687 73.9391 12.8171 74.0713 13.0312C74.2035 13.2454 74.3743 13.4141 74.584 13.5371C74.7982 13.6556 75.0534 13.7148 75.3496 13.7148C75.6413 13.7148 75.8919 13.6556 76.1016 13.5371C76.3112 13.4141 76.4821 13.2454 76.6143 13.0312C76.751 12.8171 76.8512 12.5687 76.915 12.2861C76.9788 12.0036 77.0107 11.7005 77.0107 11.377V11.2334C77.0107 10.9144 76.9788 10.6159 76.915 10.3379C76.8512 10.0553 76.751 9.80697 76.6143 9.59277C76.4821 9.37402 76.3089 9.20312 76.0947 9.08008C75.8851 8.95247 75.6322 8.88867 75.3359 8.88867C75.0443 8.88867 74.7936 8.95247 74.584 9.08008C74.3743 9.20312 74.2035 9.37402 74.0713 9.59277C73.9391 9.80697 73.8411 10.0553 73.7773 10.3379C73.7135 10.6159 73.6816 10.9144 73.6816 11.2334ZM81.8984 9.18262V15H80.0938V7.60352H81.7891L81.8984 9.18262ZM81.6113 11.0352H81.0781C81.0827 10.4974 81.1556 10.0098 81.2969 9.57227C81.4382 9.13477 81.6364 8.75879 81.8916 8.44434C82.1514 8.12988 82.459 7.88835 82.8145 7.71973C83.1699 7.55111 83.5664 7.4668 84.0039 7.4668C84.3594 7.4668 84.6807 7.51693 84.9678 7.61719C85.2549 7.71745 85.501 7.87695 85.7061 8.0957C85.9157 8.31445 86.0752 8.60156 86.1846 8.95703C86.2985 9.30794 86.3555 9.74089 86.3555 10.2559V15H84.5371V10.2422C84.5371 9.90495 84.487 9.63835 84.3867 9.44238C84.291 9.24642 84.1497 9.10742 83.9629 9.02539C83.7806 8.94336 83.555 8.90234 83.2861 8.90234C83.0081 8.90234 82.7643 8.95931 82.5547 9.07324C82.3496 9.18262 82.1764 9.33529 82.0352 9.53125C81.8984 9.72721 81.7936 9.9528 81.7207 10.208C81.6478 10.4632 81.6113 10.7389 81.6113 11.0352ZM92.0156 12.9766C92.0156 12.8216 91.9746 12.6826 91.8926 12.5596C91.8105 12.4365 91.6556 12.3249 91.4277 12.2246C91.2044 12.1198 90.8763 12.0218 90.4434 11.9307C90.0605 11.8486 89.7074 11.7461 89.3838 11.623C89.0602 11.5 88.7822 11.3519 88.5498 11.1787C88.3174 11.001 88.1351 10.7936 88.0029 10.5566C87.8753 10.3151 87.8115 10.0371 87.8115 9.72266C87.8115 9.41732 87.8776 9.13021 88.0098 8.86133C88.1419 8.58789 88.3333 8.34863 88.584 8.14355C88.8346 7.93392 89.14 7.76986 89.5 7.65137C89.86 7.52832 90.2656 7.4668 90.7168 7.4668C91.3457 7.4668 91.8857 7.56934 92.3369 7.77441C92.7926 7.97949 93.1413 8.26204 93.3828 8.62207C93.6243 8.97754 93.7451 9.37858 93.7451 9.8252H91.9404C91.9404 9.62923 91.8949 9.4515 91.8037 9.29199C91.7171 9.13249 91.5827 9.00488 91.4004 8.90918C91.2181 8.80892 90.988 8.75879 90.71 8.75879C90.4593 8.75879 90.2474 8.7998 90.0742 8.88184C89.9056 8.96387 89.778 9.07096 89.6914 9.20312C89.6048 9.33529 89.5615 9.48112 89.5615 9.64062C89.5615 9.75911 89.5843 9.86621 89.6299 9.96191C89.68 10.0531 89.7598 10.1374 89.8691 10.2148C89.9785 10.2923 90.1266 10.363 90.3135 10.4268C90.5049 10.4906 90.7396 10.5521 91.0176 10.6113C91.569 10.7207 92.0498 10.8665 92.46 11.0488C92.8747 11.2266 93.1982 11.4635 93.4307 11.7598C93.6631 12.056 93.7793 12.4342 93.7793 12.8945C93.7793 13.2227 93.7087 13.5234 93.5674 13.7969C93.4261 14.0658 93.221 14.3005 92.9521 14.501C92.6833 14.7015 92.362 14.8587 91.9883 14.9727C91.6146 15.082 91.193 15.1367 90.7236 15.1367C90.0446 15.1367 89.4704 15.016 89.001 14.7744C88.5316 14.5283 88.1761 14.2184 87.9346 13.8447C87.693 13.4665 87.5723 13.0745 87.5723 12.6689H89.3018C89.3154 12.9561 89.3929 13.1862 89.5342 13.3594C89.6755 13.5326 89.8532 13.6579 90.0674 13.7354C90.2861 13.8083 90.5163 13.8447 90.7578 13.8447C91.0312 13.8447 91.2614 13.8083 91.4482 13.7354C91.6351 13.6579 91.7764 13.5553 91.8721 13.4277C91.9678 13.2956 92.0156 13.1452 92.0156 12.9766ZM101.005 15H99.1865V6.91992C99.1865 6.36393 99.2936 5.89681 99.5078 5.51855C99.722 5.13574 100.027 4.84635 100.424 4.65039C100.82 4.45443 101.287 4.35645 101.825 4.35645C102.003 4.35645 102.172 4.36784 102.331 4.39062C102.495 4.41341 102.657 4.44531 102.816 4.48633L102.782 5.86035C102.696 5.83757 102.6 5.82161 102.495 5.8125C102.395 5.80339 102.283 5.79883 102.16 5.79883C101.914 5.79883 101.704 5.84212 101.531 5.92871C101.358 6.0153 101.226 6.1429 101.135 6.31152C101.048 6.47559 101.005 6.67839 101.005 6.91992V15ZM102.502 7.60352V8.90234H98.0723V7.60352H102.502ZM103.295 11.377V11.2334C103.295 10.6911 103.372 10.1921 103.527 9.73633C103.682 9.27604 103.908 8.87728 104.204 8.54004C104.5 8.2028 104.863 7.94076 105.291 7.75391C105.719 7.5625 106.207 7.4668 106.754 7.4668C107.31 7.4668 107.802 7.5625 108.23 7.75391C108.663 7.94076 109.028 8.2028 109.324 8.54004C109.62 8.87728 109.846 9.27604 110.001 9.73633C110.156 10.1921 110.233 10.6911 110.233 11.2334V11.377C110.233 11.9147 110.156 12.4137 110.001 12.874C109.846 13.3298 109.62 13.7285 109.324 14.0703C109.028 14.4076 108.666 14.6696 108.237 14.8564C107.809 15.0433 107.319 15.1367 106.768 15.1367C106.221 15.1367 105.731 15.0433 105.298 14.8564C104.865 14.6696 104.5 14.4076 104.204 14.0703C103.908 13.7285 103.682 13.3298 103.527 12.874C103.372 12.4137 103.295 11.9147 103.295 11.377ZM105.1 11.2334V11.377C105.1 11.7005 105.132 12.0036 105.195 12.2861C105.259 12.5687 105.357 12.8171 105.489 13.0312C105.621 13.2454 105.792 13.4141 106.002 13.5371C106.216 13.6556 106.471 13.7148 106.768 13.7148C107.059 13.7148 107.31 13.6556 107.52 13.5371C107.729 13.4141 107.9 13.2454 108.032 13.0312C108.169 12.8171 108.269 12.5687 108.333 12.2861C108.397 12.0036 108.429 11.7005 108.429 11.377V11.2334C108.429 10.9144 108.397 10.6159 108.333 10.3379C108.269 10.0553 108.169 9.80697 108.032 9.59277C107.9 9.37402 107.727 9.20312 107.513 9.08008C107.303 8.95247 107.05 8.88867 106.754 8.88867C106.462 8.88867 106.212 8.95247 106.002 9.08008C105.792 9.20312 105.621 9.37402 105.489 9.59277C105.357 9.80697 105.259 10.0553 105.195 10.3379C105.132 10.6159 105.1 10.9144 105.1 11.2334ZM113.351 9.11426V15H111.546V7.60352H113.255L113.351 9.11426ZM115.6 7.55566L115.572 9.2373C115.472 9.21908 115.358 9.2054 115.23 9.19629C115.107 9.18717 114.991 9.18262 114.882 9.18262C114.604 9.18262 114.36 9.22135 114.15 9.29883C113.941 9.37174 113.765 9.47884 113.624 9.62012C113.487 9.76139 113.382 9.93457 113.31 10.1396C113.237 10.3402 113.196 10.568 113.187 10.8232L112.797 10.7754C112.797 10.306 112.845 9.87077 112.94 9.46973C113.036 9.06868 113.175 8.71777 113.357 8.41699C113.54 8.11621 113.768 7.88379 114.041 7.71973C114.319 7.55111 114.638 7.4668 114.998 7.4668C115.098 7.4668 115.205 7.47591 115.319 7.49414C115.438 7.50781 115.531 7.52832 115.6 7.55566ZM122.244 14.1797L124.227 7.60352H126.161L123.194 16.1211C123.126 16.3034 123.037 16.5016 122.928 16.7158C122.823 16.93 122.682 17.1328 122.504 17.3242C122.326 17.5202 122.103 17.6797 121.834 17.8027C121.57 17.9258 121.248 17.9873 120.87 17.9873C120.706 17.9873 120.56 17.9759 120.433 17.9531C120.305 17.9303 120.171 17.9007 120.029 17.8643V16.5107C120.075 16.5153 120.127 16.5176 120.187 16.5176C120.25 16.5221 120.305 16.5244 120.351 16.5244C120.615 16.5244 120.834 16.4925 121.007 16.4287C121.18 16.3695 121.319 16.2715 121.424 16.1348C121.533 16.0026 121.624 15.8294 121.697 15.6152L122.244 14.1797ZM121.267 7.60352L122.941 13.0518L123.235 14.959L121.991 15.1846L119.318 7.60352H121.267ZM126.605 11.377V11.2334C126.605 10.6911 126.683 10.1921 126.838 9.73633C126.993 9.27604 127.218 8.87728 127.515 8.54004C127.811 8.2028 128.173 7.94076 128.602 7.75391C129.03 7.5625 129.518 7.4668 130.064 7.4668C130.62 7.4668 131.113 7.5625 131.541 7.75391C131.974 7.94076 132.339 8.2028 132.635 8.54004C132.931 8.87728 133.157 9.27604 133.312 9.73633C133.466 10.1921 133.544 10.6911 133.544 11.2334V11.377C133.544 11.9147 133.466 12.4137 133.312 12.874C133.157 13.3298 132.931 13.7285 132.635 14.0703C132.339 14.4076 131.976 14.6696 131.548 14.8564C131.119 15.0433 130.63 15.1367 130.078 15.1367C129.531 15.1367 129.041 15.0433 128.608 14.8564C128.175 14.6696 127.811 14.4076 127.515 14.0703C127.218 13.7285 126.993 13.3298 126.838 12.874C126.683 12.4137 126.605 11.9147 126.605 11.377ZM128.41 11.2334V11.377C128.41 11.7005 128.442 12.0036 128.506 12.2861C128.57 12.5687 128.668 12.8171 128.8 13.0312C128.932 13.2454 129.103 13.4141 129.312 13.5371C129.527 13.6556 129.782 13.7148 130.078 13.7148C130.37 13.7148 130.62 13.6556 130.83 13.5371C131.04 13.4141 131.211 13.2454 131.343 13.0312C131.479 12.8171 131.58 12.5687 131.644 12.2861C131.707 12.0036 131.739 11.7005 131.739 11.377V11.2334C131.739 10.9144 131.707 10.6159 131.644 10.3379C131.58 10.0553 131.479 9.80697 131.343 9.59277C131.211 9.37402 131.037 9.20312 130.823 9.08008C130.614 8.95247 130.361 8.88867 130.064 8.88867C129.773 8.88867 129.522 8.95247 129.312 9.08008C129.103 9.20312 128.932 9.37402 128.8 9.59277C128.668 9.80697 128.57 10.0553 128.506 10.3379C128.442 10.6159 128.41 10.9144 128.41 11.2334ZM139.259 13.2432V7.60352H141.077V15H139.368L139.259 13.2432ZM139.491 11.7119L140.052 11.6982C140.052 12.195 139.997 12.653 139.888 13.0723C139.778 13.4915 139.607 13.8561 139.375 14.166C139.147 14.4714 138.858 14.7106 138.507 14.8838C138.156 15.0524 137.741 15.1367 137.263 15.1367C136.898 15.1367 136.565 15.0866 136.265 14.9863C135.964 14.8815 135.704 14.7197 135.485 14.501C135.271 14.2777 135.105 13.9928 134.986 13.6465C134.868 13.2956 134.809 12.874 134.809 12.3818V7.60352H136.613V12.3955C136.613 12.6416 136.641 12.8467 136.695 13.0107C136.755 13.1748 136.834 13.3092 136.935 13.4141C137.039 13.5143 137.16 13.5872 137.297 13.6328C137.438 13.6738 137.589 13.6943 137.748 13.6943C138.186 13.6943 138.53 13.6077 138.78 13.4346C139.035 13.2568 139.218 13.0199 139.327 12.7236C139.437 12.4229 139.491 12.0856 139.491 11.7119Z" fill="#8E8E8E"/>
<path d="M304.241 11.9697C304.241 11.8193 304.217 11.6851 304.171 11.5669C304.128 11.4451 304.047 11.3359 303.929 11.2393C303.815 11.139 303.652 11.0423 303.44 10.9492C303.233 10.8525 302.964 10.7523 302.635 10.6484C302.27 10.5339 301.929 10.4049 301.614 10.2617C301.299 10.1185 301.022 9.95199 300.782 9.76221C300.545 9.57243 300.361 9.354 300.229 9.10693C300.096 8.85628 300.03 8.56624 300.03 8.23682C300.03 7.91455 300.098 7.62093 300.234 7.35596C300.374 7.09098 300.57 6.86361 300.825 6.67383C301.079 6.48047 301.378 6.33187 301.722 6.22803C302.069 6.12419 302.452 6.07227 302.871 6.07227C303.451 6.07227 303.952 6.1779 304.375 6.38916C304.801 6.60042 305.131 6.88688 305.363 7.24854C305.596 7.61019 305.712 8.0166 305.712 8.46777H304.241C304.241 8.22428 304.189 8.00944 304.085 7.82324C303.985 7.63704 303.831 7.49023 303.623 7.38281C303.419 7.27539 303.161 7.22168 302.85 7.22168C302.549 7.22168 302.298 7.26644 302.098 7.35596C301.901 7.44548 301.752 7.56722 301.652 7.72119C301.555 7.87516 301.507 8.04704 301.507 8.23682C301.507 8.38005 301.541 8.50895 301.609 8.62354C301.677 8.73454 301.779 8.84017 301.915 8.94043C302.051 9.03711 302.219 9.12842 302.42 9.21436C302.624 9.29671 302.86 9.37907 303.129 9.46143C303.559 9.59033 303.935 9.73356 304.257 9.89111C304.583 10.0487 304.853 10.2277 305.068 10.4282C305.286 10.6287 305.449 10.8543 305.557 11.105C305.668 11.3556 305.723 11.6403 305.723 11.959C305.723 12.2956 305.657 12.5964 305.524 12.8613C305.392 13.1263 305.202 13.3519 304.955 13.5381C304.708 13.7243 304.411 13.8657 304.063 13.9624C303.72 14.0591 303.335 14.1074 302.909 14.1074C302.529 14.1074 302.153 14.0573 301.781 13.957C301.412 13.8532 301.077 13.6992 300.776 13.4951C300.476 13.2874 300.236 13.026 300.057 12.7109C299.878 12.3923 299.788 12.0199 299.788 11.5938H301.271C301.271 11.8408 301.31 12.0521 301.389 12.2275C301.471 12.3994 301.586 12.5409 301.732 12.6519C301.883 12.7593 302.058 12.8381 302.259 12.8882C302.459 12.9383 302.676 12.9634 302.909 12.9634C303.209 12.9634 303.457 12.9222 303.65 12.8398C303.847 12.7539 303.994 12.6357 304.09 12.4854C304.191 12.335 304.241 12.1631 304.241 11.9697ZM309.365 14.1074C308.924 14.1074 308.529 14.0358 308.178 13.8926C307.827 13.7493 307.528 13.5506 307.281 13.2964C307.037 13.0386 306.849 12.7396 306.717 12.3994C306.588 12.0557 306.523 11.6868 306.523 11.293V11.0781C306.523 10.6305 306.588 10.2241 306.717 9.85889C306.846 9.49007 307.028 9.17318 307.265 8.9082C307.501 8.64323 307.784 8.43913 308.113 8.2959C308.443 8.15267 308.806 8.08105 309.204 8.08105C309.615 8.08105 309.979 8.15088 310.294 8.29053C310.609 8.4266 310.872 8.61995 311.083 8.87061C311.295 9.12126 311.454 9.42204 311.562 9.77295C311.669 10.1203 311.723 10.5052 311.723 10.9277V11.5239H307.168V10.5464H310.326V10.439C310.319 10.2134 310.276 10.0075 310.197 9.82129C310.118 9.63151 309.997 9.48112 309.832 9.37012C309.667 9.25553 309.454 9.19824 309.193 9.19824C308.982 9.19824 308.797 9.24479 308.64 9.33789C308.486 9.42741 308.357 9.55632 308.253 9.72461C308.153 9.88932 308.077 10.0863 308.027 10.3154C307.977 10.5446 307.952 10.7988 307.952 11.0781V11.293C307.952 11.5365 307.984 11.762 308.049 11.9697C308.117 12.1774 308.215 12.3582 308.344 12.5122C308.477 12.6626 308.634 12.7808 308.817 12.8667C309.003 12.9491 309.214 12.9902 309.451 12.9902C309.748 12.9902 310.016 12.9329 310.256 12.8184C310.5 12.7002 310.711 12.5265 310.89 12.2974L311.604 13.0386C311.483 13.2176 311.318 13.3895 311.11 13.5542C310.906 13.7189 310.659 13.8532 310.369 13.957C310.079 14.0573 309.744 14.1074 309.365 14.1074ZM315.284 14.1074C314.843 14.1074 314.448 14.0358 314.097 13.8926C313.746 13.7493 313.447 13.5506 313.2 13.2964C312.956 13.0386 312.768 12.7396 312.636 12.3994C312.507 12.0557 312.442 11.6868 312.442 11.293V11.0781C312.442 10.6305 312.507 10.2241 312.636 9.85889C312.765 9.49007 312.947 9.17318 313.184 8.9082C313.42 8.64323 313.703 8.43913 314.032 8.2959C314.362 8.15267 314.725 8.08105 315.123 8.08105C315.534 8.08105 315.898 8.15088 316.213 8.29053C316.528 8.4266 316.791 8.61995 317.002 8.87061C317.214 9.12126 317.373 9.42204 317.48 9.77295C317.588 10.1203 317.642 10.5052 317.642 10.9277V11.5239H313.087V10.5464H316.245V10.439C316.238 10.2134 316.195 10.0075 316.116 9.82129C316.037 9.63151 315.916 9.48112 315.751 9.37012C315.586 9.25553 315.373 9.19824 315.112 9.19824C314.901 9.19824 314.716 9.24479 314.559 9.33789C314.405 9.42741 314.276 9.55632 314.172 9.72461C314.072 9.88932 313.996 10.0863 313.946 10.3154C313.896 10.5446 313.871 10.7988 313.871 11.0781V11.293C313.871 11.5365 313.903 11.762 313.968 11.9697C314.036 12.1774 314.134 12.3582 314.263 12.5122C314.396 12.6626 314.553 12.7808 314.736 12.8667C314.922 12.9491 315.133 12.9902 315.37 12.9902C315.667 12.9902 315.935 12.9329 316.175 12.8184C316.419 12.7002 316.63 12.5265 316.809 12.2974L317.523 13.0386C317.402 13.2176 317.237 13.3895 317.029 13.5542C316.825 13.7189 316.578 13.8532 316.288 13.957C315.998 14.0573 315.663 14.1074 315.284 14.1074ZM324.549 7.3667L322.32 14H320.757L323.679 6.17969H324.678L324.549 7.3667ZM326.413 14L324.173 7.3667L324.039 6.17969H325.043L327.981 14H326.413ZM326.311 11.0942V12.2598H322.116V11.0942H326.311ZM330.183 5.75V14H328.76V5.75H330.183ZM333.041 5.75V14H331.617V5.75H333.041Z" fill="#262626"/>
</svg>
