<svg width="126" height="14" viewBox="0 0 126 14" fill="none" xmlns="http://www.w3.org/2000/svg">
<path d="M6.15918 8.41602C6.15918 8.22461 6.12956 8.05371 6.07031 7.90332C6.01562 7.74837 5.91309 7.60938 5.7627 7.48633C5.61686 7.35872 5.40951 7.23568 5.14062 7.11719C4.8763 6.99414 4.53451 6.86654 4.11523 6.73438C3.65039 6.58854 3.21745 6.42448 2.81641 6.24219C2.41536 6.0599 2.06217 5.84798 1.75684 5.60645C1.45605 5.36491 1.22135 5.08691 1.05273 4.77246C0.884115 4.45345 0.799805 4.08431 0.799805 3.66504C0.799805 3.25488 0.886393 2.88118 1.05957 2.54395C1.2373 2.20671 1.48796 1.91732 1.81152 1.67578C2.13509 1.42969 2.51562 1.24056 2.95312 1.1084C3.39518 0.976237 3.88281 0.910156 4.41602 0.910156C5.1543 0.910156 5.79232 1.0446 6.33008 1.31348C6.8724 1.58236 7.29167 1.94694 7.58789 2.40723C7.88411 2.86751 8.03223 3.38477 8.03223 3.95898H6.15918C6.15918 3.64909 6.0931 3.37565 5.96094 3.13867C5.83333 2.90169 5.63737 2.71484 5.37305 2.57812C5.11328 2.44141 4.78516 2.37305 4.38867 2.37305C4.00586 2.37305 3.68685 2.43001 3.43164 2.54395C3.18099 2.65788 2.99186 2.81283 2.86426 3.00879C2.74121 3.20475 2.67969 3.4235 2.67969 3.66504C2.67969 3.84733 2.72298 4.01139 2.80957 4.15723C2.89616 4.2985 3.02604 4.43294 3.19922 4.56055C3.3724 4.68359 3.58659 4.7998 3.8418 4.90918C4.10156 5.014 4.40234 5.11882 4.74414 5.22363C5.29102 5.3877 5.76953 5.56999 6.17969 5.77051C6.5944 5.97103 6.93848 6.19889 7.21191 6.4541C7.48991 6.70931 7.69727 6.99642 7.83398 7.31543C7.97526 7.63444 8.0459 7.99674 8.0459 8.40234C8.0459 8.83073 7.96159 9.21354 7.79297 9.55078C7.62435 9.88802 7.38281 10.1751 7.06836 10.4121C6.75391 10.6491 6.37565 10.8291 5.93359 10.9521C5.49609 11.0752 5.00618 11.1367 4.46387 11.1367C3.98079 11.1367 3.50228 11.0729 3.02832 10.9453C2.55892 10.8132 2.13281 10.6172 1.75 10.3574C1.36719 10.0931 1.06185 9.76042 0.833984 9.35938C0.60612 8.95378 0.492188 8.47982 0.492188 7.9375H2.37891C2.37891 8.25195 2.42904 8.52083 2.5293 8.74414C2.63411 8.96289 2.77995 9.1429 2.9668 9.28418C3.1582 9.4209 3.38151 9.52116 3.63672 9.58496C3.89193 9.64876 4.16764 9.68066 4.46387 9.68066C4.84668 9.68066 5.16113 9.62826 5.40723 9.52344C5.65788 9.41406 5.84473 9.26367 5.96777 9.07227C6.09538 8.88086 6.15918 8.66211 6.15918 8.41602ZM13.7607 9.24316V3.60352H15.5791V11H13.8701L13.7607 9.24316ZM13.9932 7.71191L14.5537 7.69824C14.5537 8.19499 14.499 8.65299 14.3896 9.07227C14.2803 9.49154 14.1094 9.85612 13.877 10.166C13.6491 10.4714 13.3597 10.7106 13.0088 10.8838C12.6579 11.0524 12.2432 11.1367 11.7646 11.1367C11.4001 11.1367 11.0674 11.0866 10.7666 10.9863C10.4658 10.8815 10.2061 10.7197 9.9873 10.501C9.77311 10.2777 9.60677 9.99284 9.48828 9.64648C9.36979 9.29557 9.31055 8.87402 9.31055 8.38184V3.60352H11.1152V8.39551C11.1152 8.6416 11.1426 8.84668 11.1973 9.01074C11.2565 9.1748 11.3363 9.30924 11.4365 9.41406C11.5413 9.51432 11.6621 9.58724 11.7988 9.63281C11.9401 9.67383 12.0905 9.69434 12.25 9.69434C12.6875 9.69434 13.0316 9.60775 13.2822 9.43457C13.5374 9.25684 13.7197 9.01986 13.8291 8.72363C13.9385 8.42285 13.9932 8.08561 13.9932 7.71191ZM21.8818 3.60352H23.5225V10.7744C23.5225 11.4443 23.3766 12.0117 23.085 12.4766C22.7979 12.946 22.3945 13.3014 21.875 13.543C21.3555 13.7891 20.7516 13.9121 20.0635 13.9121C19.7673 13.9121 19.446 13.8711 19.0996 13.7891C18.7578 13.707 18.4274 13.5771 18.1084 13.3994C17.7939 13.2262 17.5319 13.0007 17.3223 12.7227L18.1357 11.6562C18.3818 11.9434 18.6598 12.1598 18.9697 12.3057C19.2796 12.4561 19.6146 12.5312 19.9746 12.5312C20.3392 12.5312 20.6491 12.4629 20.9043 12.3262C21.1641 12.194 21.3623 11.998 21.499 11.7383C21.6403 11.4831 21.7109 11.1686 21.7109 10.7949V5.29199L21.8818 3.60352ZM16.8848 7.39062V7.24707C16.8848 6.68197 16.9531 6.16927 17.0898 5.70898C17.2266 5.24414 17.4225 4.84538 17.6777 4.5127C17.9375 4.18001 18.2497 3.92253 18.6143 3.74023C18.9834 3.55794 19.3981 3.4668 19.8584 3.4668C20.346 3.4668 20.7562 3.55566 21.0889 3.7334C21.4261 3.91113 21.7041 4.16406 21.9229 4.49219C22.1462 4.82031 22.3193 5.20996 22.4424 5.66113C22.57 6.10775 22.668 6.59993 22.7363 7.1377V7.52734C22.6725 8.05143 22.57 8.53223 22.4287 8.96973C22.292 9.40723 22.1097 9.79004 21.8818 10.1182C21.654 10.4417 21.3714 10.6924 21.0342 10.8701C20.6969 11.0479 20.3005 11.1367 19.8447 11.1367C19.389 11.1367 18.9788 11.0433 18.6143 10.8564C18.2497 10.6696 17.9375 10.4076 17.6777 10.0703C17.4225 9.73307 17.2266 9.33659 17.0898 8.88086C16.9531 8.42513 16.8848 7.92839 16.8848 7.39062ZM18.6895 7.24707V7.39062C18.6895 7.70964 18.7214 8.00814 18.7852 8.28613C18.849 8.56413 18.9469 8.81022 19.0791 9.02441C19.2113 9.23405 19.3776 9.39811 19.5781 9.5166C19.7786 9.63509 20.0179 9.69434 20.2959 9.69434C20.6696 9.69434 20.9749 9.61686 21.2119 9.46191C21.4535 9.30241 21.6357 9.08594 21.7588 8.8125C21.8864 8.53451 21.9684 8.22233 22.0049 7.87598V6.80273C21.9821 6.5293 21.932 6.27637 21.8545 6.04395C21.7816 5.81152 21.679 5.611 21.5469 5.44238C21.4147 5.27376 21.2461 5.1416 21.041 5.0459C20.8359 4.9502 20.5921 4.90234 20.3096 4.90234C20.0361 4.90234 19.7969 4.96387 19.5918 5.08691C19.3867 5.2054 19.2181 5.37174 19.0859 5.58594C18.9538 5.80013 18.8535 6.0485 18.7852 6.33105C18.7214 6.61361 18.6895 6.91895 18.6895 7.24707ZM29.8525 3.60352H31.4932V10.7744C31.4932 11.4443 31.3473 12.0117 31.0557 12.4766C30.7686 12.946 30.3652 13.3014 29.8457 13.543C29.3262 13.7891 28.7223 13.9121 28.0342 13.9121C27.738 13.9121 27.4167 13.8711 27.0703 13.7891C26.7285 13.707 26.3981 13.5771 26.0791 13.3994C25.7646 13.2262 25.5026 13.0007 25.293 12.7227L26.1064 11.6562C26.3525 11.9434 26.6305 12.1598 26.9404 12.3057C27.2503 12.4561 27.5853 12.5312 27.9453 12.5312C28.3099 12.5312 28.6198 12.4629 28.875 12.3262C29.1348 12.194 29.333 11.998 29.4697 11.7383C29.611 11.4831 29.6816 11.1686 29.6816 10.7949V5.29199L29.8525 3.60352ZM24.8555 7.39062V7.24707C24.8555 6.68197 24.9238 6.16927 25.0605 5.70898C25.1973 5.24414 25.3932 4.84538 25.6484 4.5127C25.9082 4.18001 26.2204 3.92253 26.585 3.74023C26.9541 3.55794 27.3688 3.4668 27.8291 3.4668C28.3167 3.4668 28.7269 3.55566 29.0596 3.7334C29.3968 3.91113 29.6748 4.16406 29.8936 4.49219C30.1169 4.82031 30.29 5.20996 30.4131 5.66113C30.5407 6.10775 30.6387 6.59993 30.707 7.1377V7.52734C30.6432 8.05143 30.5407 8.53223 30.3994 8.96973C30.2627 9.40723 30.0804 9.79004 29.8525 10.1182C29.6247 10.4417 29.3421 10.6924 29.0049 10.8701C28.6676 11.0479 28.2712 11.1367 27.8154 11.1367C27.3597 11.1367 26.9495 11.0433 26.585 10.8564C26.2204 10.6696 25.9082 10.4076 25.6484 10.0703C25.3932 9.73307 25.1973 9.33659 25.0605 8.88086C24.9238 8.42513 24.8555 7.92839 24.8555 7.39062ZM26.6602 7.24707V7.39062C26.6602 7.70964 26.6921 8.00814 26.7559 8.28613C26.8197 8.56413 26.9176 8.81022 27.0498 9.02441C27.182 9.23405 27.3483 9.39811 27.5488 9.5166C27.7493 9.63509 27.9886 9.69434 28.2666 9.69434C28.6403 9.69434 28.9456 9.61686 29.1826 9.46191C29.4242 9.30241 29.6064 9.08594 29.7295 8.8125C29.8571 8.53451 29.9391 8.22233 29.9756 7.87598V6.80273C29.9528 6.5293 29.9027 6.27637 29.8252 6.04395C29.7523 5.81152 29.6497 5.611 29.5176 5.44238C29.3854 5.27376 29.2168 5.1416 29.0117 5.0459C28.8066 4.9502 28.5628 4.90234 28.2803 4.90234C28.0068 4.90234 27.7676 4.96387 27.5625 5.08691C27.3574 5.2054 27.1888 5.37174 27.0566 5.58594C26.9245 5.80013 26.8242 6.0485 26.7559 6.33105C26.6921 6.61361 26.6602 6.91895 26.6602 7.24707ZM36.4424 11.1367C35.8818 11.1367 35.3783 11.0456 34.9316 10.8633C34.485 10.681 34.1045 10.4281 33.79 10.1045C33.4801 9.77637 33.2409 9.39583 33.0723 8.96289C32.9082 8.52539 32.8262 8.05599 32.8262 7.55469V7.28125C32.8262 6.71159 32.9082 6.19434 33.0723 5.72949C33.2363 5.26009 33.4688 4.85677 33.7695 4.51953C34.0703 4.18229 34.4303 3.92253 34.8496 3.74023C35.2689 3.55794 35.7314 3.4668 36.2373 3.4668C36.7614 3.4668 37.224 3.55566 37.625 3.7334C38.026 3.90658 38.361 4.15267 38.6299 4.47168C38.8988 4.79069 39.1016 5.1735 39.2383 5.62012C39.375 6.06217 39.4434 6.55208 39.4434 7.08984V7.84863H33.6465V6.60449H37.666V6.46777C37.6569 6.18066 37.6022 5.91862 37.502 5.68164C37.4017 5.4401 37.2467 5.2487 37.0371 5.10742C36.8275 4.96159 36.5563 4.88867 36.2236 4.88867C35.9548 4.88867 35.7201 4.94792 35.5195 5.06641C35.3236 5.18034 35.1595 5.3444 35.0273 5.55859C34.8997 5.76823 34.804 6.01888 34.7402 6.31055C34.6764 6.60221 34.6445 6.92578 34.6445 7.28125V7.55469C34.6445 7.86458 34.6855 8.15169 34.7676 8.41602C34.8542 8.68034 34.9795 8.91048 35.1436 9.10645C35.3122 9.29785 35.5127 9.44824 35.7451 9.55762C35.9821 9.66243 36.251 9.71484 36.5518 9.71484C36.93 9.71484 37.2718 9.64193 37.5771 9.49609C37.887 9.3457 38.1559 9.12467 38.3838 8.83301L39.293 9.77637C39.138 10.0042 38.9284 10.223 38.6641 10.4326C38.4043 10.6423 38.0898 10.8132 37.7207 10.9453C37.3516 11.0729 36.9255 11.1367 36.4424 11.1367ZM44.7207 8.97656C44.7207 8.82161 44.6797 8.68262 44.5977 8.55957C44.5156 8.43652 44.3607 8.32487 44.1328 8.22461C43.9095 8.11979 43.5814 8.02181 43.1484 7.93066C42.7656 7.84863 42.4124 7.74609 42.0889 7.62305C41.7653 7.5 41.4873 7.35189 41.2549 7.17871C41.0225 7.00098 40.8402 6.79362 40.708 6.55664C40.5804 6.3151 40.5166 6.03711 40.5166 5.72266C40.5166 5.41732 40.5827 5.13021 40.7148 4.86133C40.847 4.58789 41.0384 4.34863 41.2891 4.14355C41.5397 3.93392 41.8451 3.76986 42.2051 3.65137C42.5651 3.52832 42.9707 3.4668 43.4219 3.4668C44.0508 3.4668 44.5908 3.56934 45.042 3.77441C45.4977 3.97949 45.8464 4.26204 46.0879 4.62207C46.3294 4.97754 46.4502 5.37858 46.4502 5.8252H44.6455C44.6455 5.62923 44.5999 5.4515 44.5088 5.29199C44.4222 5.13249 44.2878 5.00488 44.1055 4.90918C43.9232 4.80892 43.693 4.75879 43.415 4.75879C43.1644 4.75879 42.9525 4.7998 42.7793 4.88184C42.6107 4.96387 42.4831 5.07096 42.3965 5.20312C42.3099 5.33529 42.2666 5.48112 42.2666 5.64062C42.2666 5.75911 42.2894 5.86621 42.335 5.96191C42.3851 6.05306 42.4648 6.13737 42.5742 6.21484C42.6836 6.29232 42.8317 6.36296 43.0186 6.42676C43.21 6.49056 43.4447 6.55208 43.7227 6.61133C44.2741 6.7207 44.7549 6.86654 45.165 7.04883C45.5798 7.22656 45.9033 7.46354 46.1357 7.75977C46.3682 8.05599 46.4844 8.43424 46.4844 8.89453C46.4844 9.22266 46.4137 9.52344 46.2725 9.79688C46.1312 10.0658 45.9261 10.3005 45.6572 10.501C45.3883 10.7015 45.0671 10.8587 44.6934 10.9727C44.3197 11.082 43.8981 11.1367 43.4287 11.1367C42.7497 11.1367 42.1755 11.016 41.7061 10.7744C41.2367 10.5283 40.8812 10.2184 40.6396 9.84473C40.3981 9.46647 40.2773 9.07454 40.2773 8.66895H42.0068C42.0205 8.95605 42.098 9.1862 42.2393 9.35938C42.3805 9.53255 42.5583 9.65788 42.7725 9.73535C42.9912 9.80827 43.2214 9.84473 43.4629 9.84473C43.7363 9.84473 43.9665 9.80827 44.1533 9.73535C44.3402 9.65788 44.4814 9.55534 44.5771 9.42773C44.6729 9.29557 44.7207 9.14518 44.7207 8.97656ZM51.3584 3.60352V4.90234H47.1201V3.60352H51.3584ZM48.2549 1.78516H50.0664V8.86719C50.0664 9.08594 50.096 9.25456 50.1553 9.37305C50.2145 9.49154 50.3034 9.57129 50.4219 9.6123C50.5404 9.65332 50.6816 9.67383 50.8457 9.67383C50.9642 9.67383 51.0736 9.66699 51.1738 9.65332C51.2741 9.63965 51.3584 9.62598 51.4268 9.6123L51.4336 10.9658C51.2832 11.016 51.1123 11.057 50.9209 11.0889C50.734 11.1208 50.5221 11.1367 50.2852 11.1367C49.8796 11.1367 49.5241 11.0684 49.2188 10.9316C48.9134 10.7904 48.6764 10.5648 48.5078 10.2549C48.3392 9.94043 48.2549 9.52572 48.2549 9.01074V1.78516ZM54.4756 3.60352V11H52.6641V3.60352H54.4756ZM52.541 1.66895C52.541 1.40007 52.6322 1.17676 52.8145 0.999023C53.0013 0.821289 53.252 0.732422 53.5664 0.732422C53.8809 0.732422 54.1292 0.821289 54.3115 0.999023C54.4984 1.17676 54.5918 1.40007 54.5918 1.66895C54.5918 1.93327 54.4984 2.1543 54.3115 2.33203C54.1292 2.50977 53.8809 2.59863 53.5664 2.59863C53.252 2.59863 53.0013 2.50977 52.8145 2.33203C52.6322 2.1543 52.541 1.93327 52.541 1.66895ZM55.877 7.37695V7.2334C55.877 6.69108 55.9544 6.19206 56.1094 5.73633C56.2643 5.27604 56.4899 4.87728 56.7861 4.54004C57.0824 4.2028 57.4447 3.94076 57.873 3.75391C58.3014 3.5625 58.7891 3.4668 59.3359 3.4668C59.8919 3.4668 60.3841 3.5625 60.8125 3.75391C61.2454 3.94076 61.61 4.2028 61.9062 4.54004C62.2025 4.87728 62.4281 5.27604 62.583 5.73633C62.738 6.19206 62.8154 6.69108 62.8154 7.2334V7.37695C62.8154 7.91471 62.738 8.41374 62.583 8.87402C62.4281 9.32975 62.2025 9.72852 61.9062 10.0703C61.61 10.4076 61.2477 10.6696 60.8193 10.8564C60.391 11.0433 59.901 11.1367 59.3496 11.1367C58.8027 11.1367 58.3128 11.0433 57.8799 10.8564C57.4469 10.6696 57.0824 10.4076 56.7861 10.0703C56.4899 9.72852 56.2643 9.32975 56.1094 8.87402C55.9544 8.41374 55.877 7.91471 55.877 7.37695ZM57.6816 7.2334V7.37695C57.6816 7.70052 57.7135 8.00358 57.7773 8.28613C57.8411 8.56868 57.9391 8.81706 58.0713 9.03125C58.2035 9.24544 58.3743 9.41406 58.584 9.53711C58.7982 9.6556 59.0534 9.71484 59.3496 9.71484C59.6413 9.71484 59.8919 9.6556 60.1016 9.53711C60.3112 9.41406 60.4821 9.24544 60.6143 9.03125C60.751 8.81706 60.8512 8.56868 60.915 8.28613C60.9788 8.00358 61.0107 7.70052 61.0107 7.37695V7.2334C61.0107 6.91439 60.9788 6.61589 60.915 6.33789C60.8512 6.05534 60.751 5.80697 60.6143 5.59277C60.4821 5.37402 60.3089 5.20312 60.0947 5.08008C59.8851 4.95247 59.6322 4.88867 59.3359 4.88867C59.0443 4.88867 58.7936 4.95247 58.584 5.08008C58.3743 5.20312 58.2035 5.37402 58.0713 5.59277C57.9391 5.80697 57.8411 6.05534 57.7773 6.33789C57.7135 6.61589 57.6816 6.91439 57.6816 7.2334ZM65.8984 5.18262V11H64.0938V3.60352H65.7891L65.8984 5.18262ZM65.6113 7.03516H65.0781C65.0827 6.4974 65.1556 6.00977 65.2969 5.57227C65.4382 5.13477 65.6364 4.75879 65.8916 4.44434C66.1514 4.12988 66.459 3.88835 66.8145 3.71973C67.1699 3.55111 67.5664 3.4668 68.0039 3.4668C68.3594 3.4668 68.6807 3.51693 68.9678 3.61719C69.2549 3.71745 69.501 3.87695 69.7061 4.0957C69.9157 4.31445 70.0752 4.60156 70.1846 4.95703C70.2985 5.30794 70.3555 5.74089 70.3555 6.25586V11H68.5371V6.24219C68.5371 5.90495 68.487 5.63835 68.3867 5.44238C68.291 5.24642 68.1497 5.10742 67.9629 5.02539C67.7806 4.94336 67.555 4.90234 67.2861 4.90234C67.0081 4.90234 66.7643 4.95931 66.5547 5.07324C66.3496 5.18262 66.1764 5.33529 66.0352 5.53125C65.8984 5.72721 65.7936 5.9528 65.7207 6.20801C65.6478 6.46322 65.6113 6.73893 65.6113 7.03516ZM76.0156 8.97656C76.0156 8.82161 75.9746 8.68262 75.8926 8.55957C75.8105 8.43652 75.6556 8.32487 75.4277 8.22461C75.2044 8.11979 74.8763 8.02181 74.4434 7.93066C74.0605 7.84863 73.7074 7.74609 73.3838 7.62305C73.0602 7.5 72.7822 7.35189 72.5498 7.17871C72.3174 7.00098 72.1351 6.79362 72.0029 6.55664C71.8753 6.3151 71.8115 6.03711 71.8115 5.72266C71.8115 5.41732 71.8776 5.13021 72.0098 4.86133C72.1419 4.58789 72.3333 4.34863 72.584 4.14355C72.8346 3.93392 73.14 3.76986 73.5 3.65137C73.86 3.52832 74.2656 3.4668 74.7168 3.4668C75.3457 3.4668 75.8857 3.56934 76.3369 3.77441C76.7926 3.97949 77.1413 4.26204 77.3828 4.62207C77.6243 4.97754 77.7451 5.37858 77.7451 5.8252H75.9404C75.9404 5.62923 75.8949 5.4515 75.8037 5.29199C75.7171 5.13249 75.5827 5.00488 75.4004 4.90918C75.2181 4.80892 74.988 4.75879 74.71 4.75879C74.4593 4.75879 74.2474 4.7998 74.0742 4.88184C73.9056 4.96387 73.778 5.07096 73.6914 5.20312C73.6048 5.33529 73.5615 5.48112 73.5615 5.64062C73.5615 5.75911 73.5843 5.86621 73.6299 5.96191C73.68 6.05306 73.7598 6.13737 73.8691 6.21484C73.9785 6.29232 74.1266 6.36296 74.3135 6.42676C74.5049 6.49056 74.7396 6.55208 75.0176 6.61133C75.569 6.7207 76.0498 6.86654 76.46 7.04883C76.8747 7.22656 77.1982 7.46354 77.4307 7.75977C77.6631 8.05599 77.7793 8.43424 77.7793 8.89453C77.7793 9.22266 77.7087 9.52344 77.5674 9.79688C77.4261 10.0658 77.221 10.3005 76.9521 10.501C76.6833 10.7015 76.362 10.8587 75.9883 10.9727C75.6146 11.082 75.193 11.1367 74.7236 11.1367C74.0446 11.1367 73.4704 11.016 73.001 10.7744C72.5316 10.5283 72.1761 10.2184 71.9346 9.84473C71.693 9.46647 71.5723 9.07454 71.5723 8.66895H73.3018C73.3154 8.95605 73.3929 9.1862 73.5342 9.35938C73.6755 9.53255 73.8532 9.65788 74.0674 9.73535C74.2861 9.80827 74.5163 9.84473 74.7578 9.84473C75.0312 9.84473 75.2614 9.80827 75.4482 9.73535C75.6351 9.65788 75.7764 9.55534 75.8721 9.42773C75.9678 9.29557 76.0156 9.14518 76.0156 8.97656ZM85.0049 11H83.1865V2.91992C83.1865 2.36393 83.2936 1.89681 83.5078 1.51855C83.722 1.13574 84.0273 0.846354 84.4238 0.650391C84.8203 0.454427 85.2874 0.356445 85.8252 0.356445C86.0029 0.356445 86.1715 0.367839 86.3311 0.390625C86.4951 0.413411 86.6569 0.445312 86.8164 0.486328L86.7822 1.86035C86.6956 1.83757 86.5999 1.82161 86.4951 1.8125C86.3949 1.80339 86.2832 1.79883 86.1602 1.79883C85.9141 1.79883 85.7044 1.84212 85.5312 1.92871C85.3581 2.0153 85.2259 2.1429 85.1348 2.31152C85.0482 2.47559 85.0049 2.67839 85.0049 2.91992V11ZM86.502 3.60352V4.90234H82.0723V3.60352H86.502ZM87.2949 7.37695V7.2334C87.2949 6.69108 87.3724 6.19206 87.5273 5.73633C87.6823 5.27604 87.9079 4.87728 88.2041 4.54004C88.5003 4.2028 88.8626 3.94076 89.291 3.75391C89.7194 3.5625 90.207 3.4668 90.7539 3.4668C91.3099 3.4668 91.8021 3.5625 92.2305 3.75391C92.6634 3.94076 93.028 4.2028 93.3242 4.54004C93.6204 4.87728 93.846 5.27604 94.001 5.73633C94.1559 6.19206 94.2334 6.69108 94.2334 7.2334V7.37695C94.2334 7.91471 94.1559 8.41374 94.001 8.87402C93.846 9.32975 93.6204 9.72852 93.3242 10.0703C93.028 10.4076 92.6657 10.6696 92.2373 10.8564C91.8089 11.0433 91.319 11.1367 90.7676 11.1367C90.2207 11.1367 89.7308 11.0433 89.2979 10.8564C88.8649 10.6696 88.5003 10.4076 88.2041 10.0703C87.9079 9.72852 87.6823 9.32975 87.5273 8.87402C87.3724 8.41374 87.2949 7.91471 87.2949 7.37695ZM89.0996 7.2334V7.37695C89.0996 7.70052 89.1315 8.00358 89.1953 8.28613C89.2591 8.56868 89.3571 8.81706 89.4893 9.03125C89.6214 9.24544 89.7923 9.41406 90.002 9.53711C90.2161 9.6556 90.4714 9.71484 90.7676 9.71484C91.0592 9.71484 91.3099 9.6556 91.5195 9.53711C91.7292 9.41406 91.9001 9.24544 92.0322 9.03125C92.1689 8.81706 92.2692 8.56868 92.333 8.28613C92.3968 8.00358 92.4287 7.70052 92.4287 7.37695V7.2334C92.4287 6.91439 92.3968 6.61589 92.333 6.33789C92.2692 6.05534 92.1689 5.80697 92.0322 5.59277C91.9001 5.37402 91.7269 5.20312 91.5127 5.08008C91.3031 4.95247 91.0501 4.88867 90.7539 4.88867C90.4622 4.88867 90.2116 4.95247 90.002 5.08008C89.7923 5.20312 89.6214 5.37402 89.4893 5.59277C89.3571 5.80697 89.2591 6.05534 89.1953 6.33789C89.1315 6.61589 89.0996 6.91439 89.0996 7.2334ZM97.3506 5.11426V11H95.5459V3.60352H97.2549L97.3506 5.11426ZM99.5996 3.55566L99.5723 5.2373C99.472 5.21908 99.3581 5.2054 99.2305 5.19629C99.1074 5.18717 98.9912 5.18262 98.8818 5.18262C98.6038 5.18262 98.36 5.22135 98.1504 5.29883C97.9408 5.37174 97.7653 5.47884 97.624 5.62012C97.4873 5.76139 97.3825 5.93457 97.3096 6.13965C97.2367 6.34017 97.1956 6.56803 97.1865 6.82324L96.7969 6.77539C96.7969 6.30599 96.8447 5.87077 96.9404 5.46973C97.0361 5.06868 97.1751 4.71777 97.3574 4.41699C97.5397 4.11621 97.7676 3.88379 98.041 3.71973C98.319 3.55111 98.638 3.4668 98.998 3.4668C99.0983 3.4668 99.2054 3.47591 99.3193 3.49414C99.4378 3.50781 99.5312 3.52832 99.5996 3.55566ZM106.244 10.1797L108.227 3.60352H110.161L107.194 12.1211C107.126 12.3034 107.037 12.5016 106.928 12.7158C106.823 12.93 106.682 13.1328 106.504 13.3242C106.326 13.5202 106.103 13.6797 105.834 13.8027C105.57 13.9258 105.248 13.9873 104.87 13.9873C104.706 13.9873 104.56 13.9759 104.433 13.9531C104.305 13.9303 104.171 13.9007 104.029 13.8643V12.5107C104.075 12.5153 104.127 12.5176 104.187 12.5176C104.25 12.5221 104.305 12.5244 104.351 12.5244C104.615 12.5244 104.834 12.4925 105.007 12.4287C105.18 12.3695 105.319 12.2715 105.424 12.1348C105.533 12.0026 105.624 11.8294 105.697 11.6152L106.244 10.1797ZM105.267 3.60352L106.941 9.05176L107.235 10.959L105.991 11.1846L103.318 3.60352H105.267ZM110.605 7.37695V7.2334C110.605 6.69108 110.683 6.19206 110.838 5.73633C110.993 5.27604 111.218 4.87728 111.515 4.54004C111.811 4.2028 112.173 3.94076 112.602 3.75391C113.03 3.5625 113.518 3.4668 114.064 3.4668C114.62 3.4668 115.113 3.5625 115.541 3.75391C115.974 3.94076 116.339 4.2028 116.635 4.54004C116.931 4.87728 117.157 5.27604 117.312 5.73633C117.466 6.19206 117.544 6.69108 117.544 7.2334V7.37695C117.544 7.91471 117.466 8.41374 117.312 8.87402C117.157 9.32975 116.931 9.72852 116.635 10.0703C116.339 10.4076 115.976 10.6696 115.548 10.8564C115.119 11.0433 114.63 11.1367 114.078 11.1367C113.531 11.1367 113.041 11.0433 112.608 10.8564C112.175 10.6696 111.811 10.4076 111.515 10.0703C111.218 9.72852 110.993 9.32975 110.838 8.87402C110.683 8.41374 110.605 7.91471 110.605 7.37695ZM112.41 7.2334V7.37695C112.41 7.70052 112.442 8.00358 112.506 8.28613C112.57 8.56868 112.668 8.81706 112.8 9.03125C112.932 9.24544 113.103 9.41406 113.312 9.53711C113.527 9.6556 113.782 9.71484 114.078 9.71484C114.37 9.71484 114.62 9.6556 114.83 9.53711C115.04 9.41406 115.211 9.24544 115.343 9.03125C115.479 8.81706 115.58 8.56868 115.644 8.28613C115.707 8.00358 115.739 7.70052 115.739 7.37695V7.2334C115.739 6.91439 115.707 6.61589 115.644 6.33789C115.58 6.05534 115.479 5.80697 115.343 5.59277C115.211 5.37402 115.037 5.20312 114.823 5.08008C114.614 4.95247 114.361 4.88867 114.064 4.88867C113.773 4.88867 113.522 4.95247 113.312 5.08008C113.103 5.20312 112.932 5.37402 112.8 5.59277C112.668 5.80697 112.57 6.05534 112.506 6.33789C112.442 6.61589 112.41 6.91439 112.41 7.2334ZM123.259 9.24316V3.60352H125.077V11H123.368L123.259 9.24316ZM123.491 7.71191L124.052 7.69824C124.052 8.19499 123.997 8.65299 123.888 9.07227C123.778 9.49154 123.607 9.85612 123.375 10.166C123.147 10.4714 122.858 10.7106 122.507 10.8838C122.156 11.0524 121.741 11.1367 121.263 11.1367C120.898 11.1367 120.565 11.0866 120.265 10.9863C119.964 10.8815 119.704 10.7197 119.485 10.501C119.271 10.2777 119.105 9.99284 118.986 9.64648C118.868 9.29557 118.809 8.87402 118.809 8.38184V3.60352H120.613V8.39551C120.613 8.6416 120.641 8.84668 120.695 9.01074C120.755 9.1748 120.834 9.30924 120.935 9.41406C121.039 9.51432 121.16 9.58724 121.297 9.63281C121.438 9.67383 121.589 9.69434 121.748 9.69434C122.186 9.69434 122.53 9.60775 122.78 9.43457C123.035 9.25684 123.218 9.01986 123.327 8.72363C123.437 8.42285 123.491 8.08561 123.491 7.71191Z" fill="#8E8E8E"/>
</svg>
