<svg width="33" height="9" viewBox="0 0 33 9" fill="none" xmlns="http://www.w3.org/2000/svg">
<path d="M4.73633 6.46973C4.73633 6.31934 4.71305 6.18506 4.6665 6.06689C4.62354 5.94515 4.54297 5.83594 4.4248 5.73926C4.31022 5.639 4.1473 5.54232 3.93604 5.44922C3.72835 5.35254 3.4598 5.25228 3.13037 5.14844C2.76514 5.03385 2.42497 4.90495 2.10986 4.76172C1.79476 4.61849 1.51725 4.45199 1.27734 4.26221C1.04102 4.07243 0.856608 3.854 0.724121 3.60693C0.591634 3.35628 0.525391 3.06624 0.525391 2.73682C0.525391 2.41455 0.593424 2.12093 0.729492 1.85596C0.869141 1.59098 1.06608 1.36361 1.32031 1.17383C1.57454 0.980469 1.87354 0.831868 2.21729 0.728027C2.56462 0.624186 2.94775 0.572266 3.3667 0.572266C3.94678 0.572266 4.44808 0.677897 4.87061 0.88916C5.29671 1.10042 5.62614 1.38688 5.85889 1.74854C6.09163 2.11019 6.20801 2.5166 6.20801 2.96777H4.73633C4.73633 2.72428 4.68441 2.50944 4.58057 2.32324C4.48031 2.13704 4.32633 1.99023 4.11865 1.88281C3.91455 1.77539 3.65674 1.72168 3.34521 1.72168C3.04443 1.72168 2.79378 1.76644 2.59326 1.85596C2.39632 1.94548 2.24772 2.06722 2.14746 2.22119C2.05078 2.37516 2.00244 2.54704 2.00244 2.73682C2.00244 2.88005 2.03646 3.00895 2.10449 3.12354C2.17253 3.23454 2.27458 3.34017 2.41064 3.44043C2.54671 3.53711 2.71501 3.62842 2.91553 3.71436C3.11963 3.79671 3.35596 3.87907 3.62451 3.96143C4.0542 4.09033 4.43018 4.23356 4.75244 4.39111C5.07829 4.54867 5.34863 4.7277 5.56348 4.92822C5.7819 5.12874 5.94482 5.35433 6.05225 5.60498C6.16325 5.85563 6.21875 6.1403 6.21875 6.45898C6.21875 6.79557 6.15251 7.09635 6.02002 7.36133C5.88753 7.6263 5.69775 7.85189 5.45068 8.03809C5.20361 8.22428 4.90641 8.36572 4.55908 8.4624C4.21533 8.55908 3.8304 8.60742 3.4043 8.60742C3.02474 8.60742 2.64876 8.55729 2.27637 8.45703C1.90755 8.35319 1.57275 8.19922 1.27197 7.99512C0.971191 7.78743 0.731283 7.52604 0.552246 7.21094C0.37321 6.89225 0.283691 6.51986 0.283691 6.09375H1.76611C1.76611 6.34082 1.8055 6.55208 1.88428 6.72754C1.96663 6.89941 2.08122 7.04085 2.22803 7.15186C2.37842 7.25928 2.55387 7.33805 2.75439 7.38818C2.95492 7.43831 3.17155 7.46338 3.4043 7.46338C3.70508 7.46338 3.95215 7.4222 4.14551 7.33984C4.34245 7.25391 4.48926 7.13574 4.58594 6.98535C4.6862 6.83496 4.73633 6.66309 4.73633 6.46973ZM8.8667 7.10352L10.1396 2.68848H11.042L10.7734 4.21387L9.48975 8.5H8.71094L8.8667 7.10352ZM8.16309 2.68848L9.11914 7.11426L9.20508 8.5H8.30811L6.78271 2.68848H8.16309ZM12.2236 7.0498L13.1582 2.68848H14.5332L13.0186 8.5H12.1216L12.2236 7.0498ZM11.1816 2.68848L12.4438 7.06055L12.6104 8.5H11.8315L10.5371 4.21387L10.2739 2.68848H11.1816ZM16.875 2.68848V8.5H15.4517V2.68848H16.875ZM15.355 1.16846C15.355 0.957194 15.4266 0.781738 15.5698 0.64209C15.7166 0.502441 15.9136 0.432617 16.1606 0.432617C16.4077 0.432617 16.6029 0.502441 16.7461 0.64209C16.8929 0.781738 16.9663 0.957194 16.9663 1.16846C16.9663 1.37614 16.8929 1.5498 16.7461 1.68945C16.6029 1.8291 16.4077 1.89893 16.1606 1.89893C15.9136 1.89893 15.7166 1.8291 15.5698 1.68945C15.4266 1.5498 15.355 1.37614 15.355 1.16846ZM20.9785 2.68848V3.70898H17.6484V2.68848H20.9785ZM18.54 1.25977H19.9634V6.82422C19.9634 6.99609 19.9867 7.12858 20.0332 7.22168C20.0798 7.31478 20.1496 7.37744 20.2427 7.40967C20.3358 7.44189 20.4468 7.45801 20.5757 7.45801C20.6688 7.45801 20.7547 7.45264 20.8335 7.44189C20.9123 7.43115 20.9785 7.42041 21.0322 7.40967L21.0376 8.47314C20.9194 8.51253 20.7852 8.54476 20.6348 8.56982C20.488 8.59489 20.3215 8.60742 20.1353 8.60742C19.8166 8.60742 19.5373 8.55371 19.2974 8.44629C19.0575 8.33529 18.8713 8.15804 18.7388 7.91455C18.6063 7.66748 18.54 7.34163 18.54 6.93701V1.25977ZM24.3086 7.49023C24.5091 7.49023 24.6882 7.45085 24.8457 7.37207C25.0033 7.29329 25.1286 7.18229 25.2217 7.03906C25.3184 6.89583 25.3703 6.72933 25.3774 6.53955H26.7148C26.7077 6.93343 26.5967 7.28613 26.3818 7.59766C26.167 7.90918 25.8805 8.15625 25.5225 8.33887C25.168 8.5179 24.7705 8.60742 24.3301 8.60742C23.8825 8.60742 23.4922 8.53223 23.1592 8.38184C22.8262 8.23145 22.5487 8.02197 22.3267 7.75342C22.1082 7.48486 21.9435 7.17334 21.8325 6.81885C21.7251 6.46436 21.6714 6.0848 21.6714 5.68018V5.5083C21.6714 5.10368 21.7251 4.72412 21.8325 4.36963C21.9435 4.01514 22.1082 3.70361 22.3267 3.43506C22.5487 3.1665 22.8262 2.95703 23.1592 2.80664C23.4922 2.65625 23.8807 2.58105 24.3247 2.58105C24.7938 2.58105 25.2056 2.67236 25.5601 2.85498C25.9181 3.0376 26.1974 3.29541 26.3979 3.62842C26.6021 3.96143 26.7077 4.35352 26.7148 4.80469H25.3774C25.3703 4.59701 25.3237 4.41081 25.2378 4.24609C25.1519 4.08138 25.0301 3.94889 24.8726 3.84863C24.715 3.74837 24.5234 3.69824 24.2979 3.69824C24.0579 3.69824 23.8574 3.74837 23.6963 3.84863C23.5387 3.94889 23.4152 4.08675 23.3257 4.26221C23.2397 4.43408 23.1789 4.62744 23.1431 4.84229C23.1108 5.05355 23.0947 5.27555 23.0947 5.5083V5.68018C23.0947 5.9165 23.1108 6.14209 23.1431 6.35693C23.1789 6.57178 23.2397 6.76514 23.3257 6.93701C23.4152 7.10531 23.5387 7.23958 23.6963 7.33984C23.8574 7.4401 24.0615 7.49023 24.3086 7.49023ZM29.0513 0.25V8.5H27.6279V0.25H29.0513ZM28.8257 5.38477H28.4067C28.4067 4.98014 28.4604 4.60775 28.5679 4.26758C28.6753 3.92741 28.8275 3.632 29.0244 3.38135C29.2214 3.12712 29.4559 2.93018 29.728 2.79053C30.0037 2.65088 30.3081 2.58105 30.6411 2.58105C30.9276 2.58105 31.1872 2.62223 31.4199 2.70459C31.6562 2.78337 31.8586 2.91048 32.0269 3.08594C32.1951 3.26139 32.3241 3.49056 32.4136 3.77344C32.5067 4.05273 32.5532 4.3929 32.5532 4.79395V8.5H31.1245V4.7832C31.1245 4.51465 31.0851 4.30339 31.0063 4.14941C30.9276 3.99186 30.8148 3.87907 30.668 3.81104C30.5247 3.743 30.3475 3.70898 30.1362 3.70898C29.9071 3.70898 29.7101 3.75374 29.5454 3.84326C29.3807 3.9292 29.2446 4.04915 29.1372 4.20312C29.0334 4.3571 28.9546 4.53434 28.9009 4.73486C28.8507 4.93538 28.8257 5.15202 28.8257 5.38477Z" fill="#0095F6"/>
</svg>
