<svg width="57" height="18" viewBox="0 0 57 18" fill="none" xmlns="http://www.w3.org/2000/svg">
<g clip-path="url(#clip0_1_355)">
<g clip-path="url(#clip1_1_355)">
<path d="M17.2158 11.2432V5.60352H19.0342V13H17.3252L17.2158 11.2432ZM17.4482 9.71191L18.0088 9.69824C18.0088 10.195 17.9541 10.653 17.8447 11.0723C17.7354 11.4915 17.5645 11.8561 17.332 12.166C17.1042 12.4714 16.8148 12.7106 16.4639 12.8838C16.113 13.0524 15.6982 13.1367 15.2197 13.1367C14.8551 13.1367 14.5225 13.0866 14.2217 12.9863C13.9209 12.8815 13.6611 12.7197 13.4424 12.501C13.2282 12.2777 13.0618 11.9928 12.9434 11.6465C12.8249 11.2956 12.7656 10.874 12.7656 10.3818V5.60352H14.5703V10.3955C14.5703 10.6416 14.5977 10.8467 14.6523 11.0107C14.7116 11.1748 14.7913 11.3092 14.8916 11.4141C14.9964 11.5143 15.1172 11.5872 15.2539 11.6328C15.3952 11.6738 15.5456 11.6943 15.7051 11.6943C16.1426 11.6943 16.4867 11.6077 16.7373 11.4346C16.9925 11.2568 17.1748 11.0199 17.2842 10.7236C17.3936 10.4229 17.4482 10.0856 17.4482 9.71191ZM22.4385 7.02539V15.8438H20.627V5.60352H22.3018L22.4385 7.02539ZM27.1895 9.22656V9.37012C27.1895 9.90788 27.1257 10.4069 26.998 10.8672C26.875 11.3229 26.6927 11.7217 26.4512 12.0635C26.2096 12.4007 25.9089 12.665 25.5488 12.8564C25.1934 13.0433 24.7832 13.1367 24.3184 13.1367C23.8626 13.1367 23.4661 13.0501 23.1289 12.877C22.7917 12.6992 22.5068 12.4486 22.2744 12.125C22.042 11.8014 21.8551 11.4255 21.7139 10.9971C21.5771 10.5641 21.4746 10.0924 21.4062 9.58203V9.12402C21.4746 8.58171 21.5771 8.08952 21.7139 7.64746C21.8551 7.20085 22.042 6.81576 22.2744 6.49219C22.5068 6.16406 22.7894 5.91113 23.1221 5.7334C23.4593 5.55566 23.8535 5.4668 24.3047 5.4668C24.7741 5.4668 25.1865 5.55566 25.542 5.7334C25.902 5.91113 26.2051 6.16634 26.4512 6.49902C26.6973 6.83171 26.8818 7.22819 27.0049 7.68848C27.1279 8.14876 27.1895 8.66146 27.1895 9.22656ZM25.3779 9.37012V9.22656C25.3779 8.89844 25.3483 8.59538 25.2891 8.31738C25.2298 8.03483 25.1387 7.78874 25.0156 7.5791C24.8926 7.36491 24.7331 7.19857 24.5371 7.08008C24.3411 6.96159 24.1042 6.90234 23.8262 6.90234C23.5482 6.90234 23.3089 6.94792 23.1084 7.03906C22.9079 7.13021 22.7438 7.26009 22.6162 7.42871C22.4886 7.59733 22.3883 7.79785 22.3154 8.03027C22.2471 8.25814 22.2015 8.51107 22.1787 8.78906V9.92383C22.2197 10.2611 22.2995 10.5641 22.418 10.833C22.5365 11.1019 22.7096 11.3161 22.9375 11.4756C23.1699 11.6351 23.4707 11.7148 23.8398 11.7148C24.1178 11.7148 24.3548 11.6533 24.5508 11.5303C24.7467 11.4072 24.9062 11.2386 25.0293 11.0244C25.1523 10.8057 25.2412 10.555 25.2959 10.2725C25.3506 9.98991 25.3779 9.68913 25.3779 9.37012ZM30.8809 11.6328L32.6035 5.60352H34.4902L31.9541 13H30.8057L30.8809 11.6328ZM29.623 5.60352L31.3662 11.6465L31.4277 13H30.2725L27.7295 5.60352H29.623ZM35.0098 9.37695V9.2334C35.0098 8.69108 35.0872 8.19206 35.2422 7.73633C35.3971 7.27604 35.6227 6.87728 35.9189 6.54004C36.2152 6.2028 36.5775 5.94076 37.0059 5.75391C37.4342 5.5625 37.9219 5.4668 38.4688 5.4668C39.0247 5.4668 39.5169 5.5625 39.9453 5.75391C40.3783 5.94076 40.7428 6.2028 41.0391 6.54004C41.3353 6.87728 41.5609 7.27604 41.7158 7.73633C41.8708 8.19206 41.9482 8.69108 41.9482 9.2334V9.37695C41.9482 9.91471 41.8708 10.4137 41.7158 10.874C41.5609 11.3298 41.3353 11.7285 41.0391 12.0703C40.7428 12.4076 40.3805 12.6696 39.9521 12.8564C39.5238 13.0433 39.0339 13.1367 38.4824 13.1367C37.9355 13.1367 37.4456 13.0433 37.0127 12.8564C36.5798 12.6696 36.2152 12.4076 35.9189 12.0703C35.6227 11.7285 35.3971 11.3298 35.2422 10.874C35.0872 10.4137 35.0098 9.91471 35.0098 9.37695ZM36.8145 9.2334V9.37695C36.8145 9.70052 36.8464 10.0036 36.9102 10.2861C36.974 10.5687 37.0719 10.8171 37.2041 11.0312C37.3363 11.2454 37.5072 11.4141 37.7168 11.5371C37.931 11.6556 38.1862 11.7148 38.4824 11.7148C38.7741 11.7148 39.0247 11.6556 39.2344 11.5371C39.444 11.4141 39.6149 11.2454 39.7471 11.0312C39.8838 10.8171 39.984 10.5687 40.0479 10.2861C40.1117 10.0036 40.1436 9.70052 40.1436 9.37695V9.2334C40.1436 8.91439 40.1117 8.61589 40.0479 8.33789C39.984 8.05534 39.8838 7.80697 39.7471 7.59277C39.6149 7.37402 39.4417 7.20312 39.2275 7.08008C39.0179 6.95247 38.765 6.88867 38.4688 6.88867C38.1771 6.88867 37.9264 6.95247 37.7168 7.08008C37.5072 7.20312 37.3363 7.37402 37.2041 7.59277C37.0719 7.80697 36.974 8.05534 36.9102 8.33789C36.8464 8.61589 36.8145 8.91439 36.8145 9.2334ZM44.5254 5.60352L45.8447 7.95508L47.1846 5.60352H49.1465L46.9727 9.22656L49.2354 13H47.2734L45.8584 10.5322L44.4365 13H42.4746L44.7305 9.22656L42.5703 5.60352H44.5254ZM55.6133 13V14.3945H49.3857V13H55.6133Z" fill="#262626"/>
</g>
</g>
<defs>
<clipPath id="clip0_1_355">
<rect width="56.5781" height="18" fill="white"/>
</clipPath>
<clipPath id="clip1_1_355">
<rect width="44.5781" height="18" fill="white" transform="translate(12)"/>
</clipPath>
</defs>
</svg>
