<svg width="38" height="13" viewBox="0 0 38 13" fill="none" xmlns="http://www.w3.org/2000/svg">
<path d="M6.84961 0.046875H8.16211V6.78027C8.16211 7.52767 7.99577 8.14974 7.66309 8.64648C7.3304 9.14323 6.88835 9.51693 6.33691 9.76758C5.79004 10.0137 5.19531 10.1367 4.55273 10.1367C3.87826 10.1367 3.26758 10.0137 2.7207 9.76758C2.17839 9.51693 1.74772 9.14323 1.42871 8.64648C1.11426 8.14974 0.957031 7.52767 0.957031 6.78027V0.046875H2.2627V6.78027C2.2627 7.2998 2.3584 7.72819 2.5498 8.06543C2.74121 8.40267 3.00781 8.65332 3.34961 8.81738C3.69596 8.98145 4.09701 9.06348 4.55273 9.06348C5.01302 9.06348 5.41406 8.98145 5.75586 8.81738C6.10221 8.65332 6.37109 8.40267 6.5625 8.06543C6.75391 7.72819 6.84961 7.2998 6.84961 6.78027V0.046875ZM11.3066 4.02539V12.8438H10.0352V2.60352H11.1973L11.3066 4.02539ZM16.29 6.24023V6.38379C16.29 6.92155 16.2262 7.42057 16.0986 7.88086C15.971 8.33659 15.7842 8.73307 15.5381 9.07031C15.2965 9.40755 14.998 9.6696 14.6426 9.85645C14.2871 10.0433 13.8792 10.1367 13.4189 10.1367C12.9495 10.1367 12.5348 10.0592 12.1748 9.9043C11.8148 9.74935 11.5094 9.52376 11.2588 9.22754C11.0081 8.93132 10.8076 8.57585 10.6572 8.16113C10.5114 7.74642 10.4111 7.2793 10.3564 6.75977V5.99414C10.4111 5.44727 10.5137 4.95736 10.6641 4.52441C10.8145 4.09147 11.0127 3.72233 11.2588 3.41699C11.5094 3.1071 11.8125 2.8724 12.168 2.71289C12.5234 2.54883 12.9336 2.4668 13.3984 2.4668C13.8633 2.4668 14.2757 2.55794 14.6357 2.74023C14.9958 2.91797 15.2988 3.17318 15.5449 3.50586C15.791 3.83854 15.9756 4.2373 16.0986 4.70215C16.2262 5.16243 16.29 5.67513 16.29 6.24023ZM15.0186 6.38379V6.24023C15.0186 5.87109 14.9798 5.52474 14.9023 5.20117C14.8249 4.87305 14.7041 4.58594 14.54 4.33984C14.3805 4.08919 14.1755 3.89323 13.9248 3.75195C13.6742 3.60612 13.3757 3.5332 13.0293 3.5332C12.7103 3.5332 12.4323 3.58789 12.1953 3.69727C11.9629 3.80664 11.7646 3.95475 11.6006 4.1416C11.4365 4.32389 11.3021 4.53353 11.1973 4.77051C11.097 5.00293 11.0218 5.24447 10.9717 5.49512V7.26562C11.0628 7.58464 11.1904 7.88542 11.3545 8.16797C11.5186 8.44596 11.7373 8.67155 12.0107 8.84473C12.2842 9.01335 12.6283 9.09766 13.043 9.09766C13.3848 9.09766 13.6787 9.02702 13.9248 8.88574C14.1755 8.73991 14.3805 8.54167 14.54 8.29102C14.7041 8.04036 14.8249 7.75326 14.9023 7.42969C14.9798 7.10156 15.0186 6.75293 15.0186 6.38379ZM20.0703 8.8584L22.0938 2.60352H23.3857L20.7266 10H19.8789L20.0703 8.8584ZM18.3818 2.60352L20.4668 8.89258L20.6104 10H19.7627L17.083 2.60352H18.3818ZM24.1582 6.38379V6.22656C24.1582 5.69336 24.2357 5.19889 24.3906 4.74316C24.5456 4.28288 24.7689 3.88411 25.0605 3.54688C25.3522 3.20508 25.7054 2.94076 26.1201 2.75391C26.5348 2.5625 26.9997 2.4668 27.5146 2.4668C28.0342 2.4668 28.5013 2.5625 28.916 2.75391C29.3353 2.94076 29.6908 3.20508 29.9824 3.54688C30.2786 3.88411 30.5042 4.28288 30.6592 4.74316C30.8141 5.19889 30.8916 5.69336 30.8916 6.22656V6.38379C30.8916 6.91699 30.8141 7.41146 30.6592 7.86719C30.5042 8.32292 30.2786 8.72168 29.9824 9.06348C29.6908 9.40072 29.3376 9.66504 28.9229 9.85645C28.5127 10.0433 28.0479 10.1367 27.5283 10.1367C27.0088 10.1367 26.5417 10.0433 26.127 9.85645C25.7122 9.66504 25.3568 9.40072 25.0605 9.06348C24.7689 8.72168 24.5456 8.32292 24.3906 7.86719C24.2357 7.41146 24.1582 6.91699 24.1582 6.38379ZM25.4229 6.22656V6.38379C25.4229 6.75293 25.4661 7.10156 25.5527 7.42969C25.6393 7.75326 25.7692 8.04036 25.9424 8.29102C26.1201 8.54167 26.3411 8.73991 26.6055 8.88574C26.8698 9.02702 27.1774 9.09766 27.5283 9.09766C27.8747 9.09766 28.1777 9.02702 28.4375 8.88574C28.7018 8.73991 28.9206 8.54167 29.0938 8.29102C29.2669 8.04036 29.3968 7.75326 29.4834 7.42969C29.5745 7.10156 29.6201 6.75293 29.6201 6.38379V6.22656C29.6201 5.86198 29.5745 5.5179 29.4834 5.19434C29.3968 4.86621 29.2646 4.57682 29.0869 4.32617C28.9137 4.07096 28.695 3.87044 28.4307 3.72461C28.1709 3.57878 27.8656 3.50586 27.5146 3.50586C27.1683 3.50586 26.863 3.57878 26.5986 3.72461C26.3389 3.87044 26.1201 4.07096 25.9424 4.32617C25.7692 4.57682 25.6393 4.86621 25.5527 5.19434C25.4661 5.5179 25.4229 5.86198 25.4229 6.22656ZM33.1816 2.60352L34.8018 5.29688L36.4424 2.60352H37.9258L35.5059 6.25391L38.001 10H36.5381L34.8291 7.22461L33.1201 10H31.6504L34.1387 6.25391L31.7256 2.60352H33.1816Z" fill="#8E8E8E"/>
</svg>
