<svg width="224" height="34" viewBox="0 0 224 34" fill="none" xmlns="http://www.w3.org/2000/svg">
<g clip-path="url(#clip0_1_397)">
<path d="M2.72754 5.60352V13H0.916016V5.60352H2.72754ZM0.792969 3.66895C0.792969 3.40007 0.884115 3.17676 1.06641 2.99902C1.25326 2.82129 1.50391 2.73242 1.81836 2.73242C2.13281 2.73242 2.38118 2.82129 2.56348 2.99902C2.75033 3.17676 2.84375 3.40007 2.84375 3.66895C2.84375 3.93327 2.75033 4.1543 2.56348 4.33203C2.38118 4.50977 2.13281 4.59863 1.81836 4.59863C1.50391 4.59863 1.25326 4.50977 1.06641 4.33203C0.884115 4.1543 0.792969 3.93327 0.792969 3.66895ZM6.24805 7.12109V13H4.44336V5.60352H6.14551L6.24805 7.12109ZM5.98145 9.03516H5.42773C5.42773 8.52018 5.48926 8.04622 5.6123 7.61328C5.73991 7.18034 5.92676 6.80436 6.17285 6.48535C6.41895 6.16178 6.72201 5.91113 7.08203 5.7334C7.44661 5.55566 7.86816 5.4668 8.34668 5.4668C8.67936 5.4668 8.9847 5.51693 9.2627 5.61719C9.54069 5.71289 9.77995 5.86556 9.98047 6.0752C10.1855 6.28027 10.3428 6.54915 10.4521 6.88184C10.5615 7.20996 10.6162 7.60417 10.6162 8.06445V13H8.81152V8.24902C8.81152 7.90267 8.76139 7.63151 8.66113 7.43555C8.56543 7.23958 8.42643 7.10286 8.24414 7.02539C8.06185 6.94336 7.8431 6.90234 7.58789 6.90234C7.30534 6.90234 7.06152 6.95931 6.85645 7.07324C6.65592 7.18262 6.48958 7.33529 6.35742 7.53125C6.22982 7.72721 6.13411 7.9528 6.07031 8.20801C6.01107 8.46322 5.98145 8.73893 5.98145 9.03516ZM10.4795 8.7002L9.73438 8.83691C9.73893 8.37207 9.80273 7.93685 9.92578 7.53125C10.0488 7.12109 10.2288 6.76335 10.4658 6.45801C10.7074 6.14811 11.0059 5.90658 11.3613 5.7334C11.7214 5.55566 12.1361 5.4668 12.6055 5.4668C12.9701 5.4668 13.2982 5.51921 13.5898 5.62402C13.8861 5.72428 14.139 5.88607 14.3486 6.10938C14.5583 6.32812 14.7178 6.61296 14.8271 6.96387C14.9411 7.31478 14.998 7.74316 14.998 8.24902V13H13.1797V8.24219C13.1797 7.88216 13.1296 7.60645 13.0293 7.41504C12.9336 7.22363 12.7946 7.09147 12.6123 7.01855C12.43 6.94108 12.2158 6.90234 11.9697 6.90234C11.7191 6.90234 11.5003 6.9502 11.3135 7.0459C11.1312 7.13704 10.9762 7.26465 10.8486 7.42871C10.7256 7.59277 10.6322 7.78418 10.5684 8.00293C10.5091 8.21712 10.4795 8.44954 10.4795 8.7002ZM22.0391 13V14.3945H15.8115V13H22.0391ZM27.5693 5.60352H29.21V12.7744C29.21 13.4443 29.0641 14.0117 28.7725 14.4766C28.4854 14.946 28.082 15.3014 27.5625 15.543C27.043 15.7891 26.4391 15.9121 25.751 15.9121C25.4548 15.9121 25.1335 15.8711 24.7871 15.7891C24.4453 15.707 24.1149 15.5771 23.7959 15.3994C23.4814 15.2262 23.2194 15.0007 23.0098 14.7227L23.8232 13.6562C24.0693 13.9434 24.3473 14.1598 24.6572 14.3057C24.9671 14.4561 25.3021 14.5312 25.6621 14.5312C26.0267 14.5312 26.3366 14.4629 26.5918 14.3262C26.8516 14.194 27.0498 13.998 27.1865 13.7383C27.3278 13.4831 27.3984 13.1686 27.3984 12.7949V7.29199L27.5693 5.60352ZM22.5723 9.39062V9.24707C22.5723 8.68197 22.6406 8.16927 22.7773 7.70898C22.9141 7.24414 23.11 6.84538 23.3652 6.5127C23.625 6.18001 23.9372 5.92253 24.3018 5.74023C24.6709 5.55794 25.0856 5.4668 25.5459 5.4668C26.0335 5.4668 26.4437 5.55566 26.7764 5.7334C27.1136 5.91113 27.3916 6.16406 27.6104 6.49219C27.8337 6.82031 28.0068 7.20996 28.1299 7.66113C28.2575 8.10775 28.3555 8.59993 28.4238 9.1377V9.52734C28.36 10.0514 28.2575 10.5322 28.1162 10.9697C27.9795 11.4072 27.7972 11.79 27.5693 12.1182C27.3415 12.4417 27.0589 12.6924 26.7217 12.8701C26.3844 13.0479 25.988 13.1367 25.5322 13.1367C25.0765 13.1367 24.6663 13.0433 24.3018 12.8564C23.9372 12.6696 23.625 12.4076 23.3652 12.0703C23.11 11.7331 22.9141 11.3366 22.7773 10.8809C22.6406 10.4251 22.5723 9.92839 22.5723 9.39062ZM24.377 9.24707V9.39062C24.377 9.70964 24.4089 10.0081 24.4727 10.2861C24.5365 10.5641 24.6344 10.8102 24.7666 11.0244C24.8988 11.234 25.0651 11.3981 25.2656 11.5166C25.4661 11.6351 25.7054 11.6943 25.9834 11.6943C26.3571 11.6943 26.6624 11.6169 26.8994 11.4619C27.141 11.3024 27.3232 11.0859 27.4463 10.8125C27.5739 10.5345 27.6559 10.2223 27.6924 9.87598V8.80273C27.6696 8.5293 27.6195 8.27637 27.542 8.04395C27.4691 7.81152 27.3665 7.611 27.2344 7.44238C27.1022 7.27376 26.9336 7.1416 26.7285 7.0459C26.5234 6.9502 26.2796 6.90234 25.9971 6.90234C25.7236 6.90234 25.4844 6.96387 25.2793 7.08691C25.0742 7.2054 24.9056 7.37174 24.7734 7.58594C24.6413 7.80013 24.541 8.0485 24.4727 8.33105C24.4089 8.61361 24.377 8.91895 24.377 9.24707ZM32.6416 7.11426V13H30.8369V5.60352H32.5459L32.6416 7.11426ZM34.8906 5.55566L34.8633 7.2373C34.763 7.21908 34.6491 7.2054 34.5215 7.19629C34.3984 7.18717 34.2822 7.18262 34.1729 7.18262C33.8949 7.18262 33.651 7.22135 33.4414 7.29883C33.2318 7.37174 33.0563 7.47884 32.915 7.62012C32.7783 7.76139 32.6735 7.93457 32.6006 8.13965C32.5277 8.34017 32.4867 8.56803 32.4775 8.82324L32.0879 8.77539C32.0879 8.30599 32.1357 7.87077 32.2314 7.46973C32.3271 7.06868 32.4661 6.71777 32.6484 6.41699C32.8307 6.11621 33.0586 5.88379 33.332 5.71973C33.61 5.55111 33.929 5.4668 34.2891 5.4668C34.3893 5.4668 34.4964 5.47591 34.6104 5.49414C34.7288 5.50781 34.8223 5.52832 34.8906 5.55566Z" fill="#262626"/>
</g>
<path d="M1.94434 22.1797V30H0.907715V22.1797H1.94434ZM5.2207 25.6978V26.5464H1.71875V25.6978H5.2207ZM5.75244 22.1797V23.0283H1.71875V22.1797H5.75244ZM6.45605 27.1587V27.0352C6.45605 26.6162 6.51693 26.2277 6.63867 25.8696C6.76042 25.508 6.93587 25.1947 7.16504 24.9297C7.39421 24.6611 7.67171 24.4535 7.99756 24.3066C8.3234 24.1562 8.68864 24.0811 9.09326 24.0811C9.50146 24.0811 9.86849 24.1562 10.1943 24.3066C10.5238 24.4535 10.8031 24.6611 11.0322 24.9297C11.265 25.1947 11.4422 25.508 11.564 25.8696C11.6857 26.2277 11.7466 26.6162 11.7466 27.0352V27.1587C11.7466 27.5776 11.6857 27.9661 11.564 28.3242C11.4422 28.6823 11.265 28.9956 11.0322 29.2642C10.8031 29.5291 10.5256 29.7368 10.1997 29.8872C9.87744 30.034 9.51221 30.1074 9.104 30.1074C8.6958 30.1074 8.32878 30.034 8.00293 29.8872C7.67708 29.7368 7.39779 29.5291 7.16504 29.2642C6.93587 28.9956 6.76042 28.6823 6.63867 28.3242C6.51693 27.9661 6.45605 27.5776 6.45605 27.1587ZM7.44971 27.0352V27.1587C7.44971 27.4487 7.48372 27.7227 7.55176 27.9805C7.61979 28.2347 7.72184 28.4603 7.85791 28.6572C7.99756 28.8542 8.17122 29.0099 8.37891 29.1245C8.58659 29.2355 8.82829 29.291 9.104 29.291C9.37614 29.291 9.61426 29.2355 9.81836 29.1245C10.026 29.0099 10.1979 28.8542 10.334 28.6572C10.4701 28.4603 10.5721 28.2347 10.6401 27.9805C10.7118 27.7227 10.7476 27.4487 10.7476 27.1587V27.0352C10.7476 26.7487 10.7118 26.4784 10.6401 26.2241C10.5721 25.9663 10.4683 25.7389 10.3286 25.542C10.1925 25.3415 10.0207 25.1839 9.81299 25.0693C9.60889 24.9548 9.36898 24.8975 9.09326 24.8975C8.82113 24.8975 8.58122 24.9548 8.37354 25.0693C8.16943 25.1839 7.99756 25.3415 7.85791 25.542C7.72184 25.7389 7.61979 25.9663 7.55176 26.2241C7.48372 26.4784 7.44971 26.7487 7.44971 27.0352ZM14.0723 21.75V30H13.0732V21.75H14.0723ZM16.7471 21.75V30H15.748V21.75H16.7471ZM18.0791 27.1587V27.0352C18.0791 26.6162 18.14 26.2277 18.2617 25.8696C18.3835 25.508 18.5589 25.1947 18.7881 24.9297C19.0173 24.6611 19.2948 24.4535 19.6206 24.3066C19.9465 24.1562 20.3117 24.0811 20.7163 24.0811C21.1245 24.0811 21.4915 24.1562 21.8174 24.3066C22.1468 24.4535 22.4261 24.6611 22.6553 24.9297C22.888 25.1947 23.0653 25.508 23.187 25.8696C23.3088 26.2277 23.3696 26.6162 23.3696 27.0352V27.1587C23.3696 27.5776 23.3088 27.9661 23.187 28.3242C23.0653 28.6823 22.888 28.9956 22.6553 29.2642C22.4261 29.5291 22.1486 29.7368 21.8228 29.8872C21.5005 30.034 21.1353 30.1074 20.7271 30.1074C20.3188 30.1074 19.9518 30.034 19.626 29.8872C19.3001 29.7368 19.0208 29.5291 18.7881 29.2642C18.5589 28.9956 18.3835 28.6823 18.2617 28.3242C18.14 27.9661 18.0791 27.5776 18.0791 27.1587ZM19.0728 27.0352V27.1587C19.0728 27.4487 19.1068 27.7227 19.1748 27.9805C19.2428 28.2347 19.3449 28.4603 19.481 28.6572C19.6206 28.8542 19.7943 29.0099 20.002 29.1245C20.2096 29.2355 20.4513 29.291 20.7271 29.291C20.9992 29.291 21.2373 29.2355 21.4414 29.1245C21.6491 29.0099 21.821 28.8542 21.957 28.6572C22.0931 28.4603 22.1951 28.2347 22.2632 27.9805C22.3348 27.7227 22.3706 27.4487 22.3706 27.1587V27.0352C22.3706 26.7487 22.3348 26.4784 22.2632 26.2241C22.1951 25.9663 22.0913 25.7389 21.9517 25.542C21.8156 25.3415 21.6437 25.1839 21.436 25.0693C21.2319 24.9548 20.992 24.8975 20.7163 24.8975C20.4442 24.8975 20.2043 24.9548 19.9966 25.0693C19.7925 25.1839 19.6206 25.3415 19.481 25.542C19.3449 25.7389 19.2428 25.9663 19.1748 26.2241C19.1068 26.4784 19.0728 26.7487 19.0728 27.0352ZM26.0874 28.9688L27.5806 24.1885H28.2358L28.1069 25.1392L26.5869 30H25.9478L26.0874 28.9688ZM25.083 24.1885L26.356 29.0225L26.4473 30H25.7759L24.0894 24.1885H25.083ZM29.6646 28.9849L30.8784 24.1885H31.8667L30.1802 30H29.5142L29.6646 28.9849ZM28.3809 24.1885L29.8418 28.8882L30.0083 30H29.3745L27.8115 25.1284L27.6826 24.1885H28.3809ZM35.2988 30.1074C34.8942 30.1074 34.5272 30.0394 34.1978 29.9033C33.8719 29.7637 33.5908 29.5685 33.3545 29.3179C33.1217 29.0672 32.9427 28.77 32.8174 28.4263C32.6921 28.0825 32.6294 27.7065 32.6294 27.2983V27.0728C32.6294 26.6001 32.6992 26.1794 32.8389 25.8105C32.9785 25.4382 33.1683 25.123 33.4082 24.8652C33.6481 24.6074 33.9202 24.4123 34.2246 24.2798C34.529 24.1473 34.8441 24.0811 35.1699 24.0811C35.5853 24.0811 35.9434 24.1527 36.2441 24.2959C36.5485 24.4391 36.7974 24.6396 36.9907 24.8975C37.1841 25.1517 37.3273 25.4525 37.4204 25.7998C37.5135 26.1436 37.5601 26.5195 37.5601 26.9277V27.3735H33.2202V26.5625H36.5664V26.4873C36.5521 26.2295 36.4984 25.9788 36.4053 25.7354C36.3158 25.4919 36.1725 25.2913 35.9756 25.1338C35.7786 24.9762 35.5101 24.8975 35.1699 24.8975C34.9443 24.8975 34.7367 24.9458 34.5469 25.0425C34.3571 25.1356 34.1942 25.2752 34.0581 25.4614C33.922 25.6476 33.8164 25.875 33.7412 26.1436C33.666 26.4121 33.6284 26.7218 33.6284 27.0728V27.2983C33.6284 27.5741 33.666 27.8337 33.7412 28.0771C33.82 28.3171 33.9328 28.5283 34.0796 28.7109C34.23 28.8936 34.4108 29.0368 34.6221 29.1406C34.8369 29.2445 35.0804 29.2964 35.3525 29.2964C35.7035 29.2964 36.0007 29.2248 36.2441 29.0815C36.4876 28.9383 36.7007 28.7467 36.8833 28.5068L37.4849 28.9849C37.3595 29.1746 37.2002 29.3555 37.0068 29.5273C36.8135 29.6992 36.5754 29.8389 36.2925 29.9463C36.0132 30.0537 35.682 30.1074 35.2988 30.1074ZM42.3833 28.8721V21.75H43.3823V30H42.4692L42.3833 28.8721ZM38.4731 27.1587V27.0459C38.4731 26.6019 38.5269 26.1991 38.6343 25.8374C38.7453 25.4722 38.901 25.1589 39.1016 24.8975C39.3057 24.6361 39.5474 24.4355 39.8267 24.2959C40.1095 24.1527 40.4246 24.0811 40.772 24.0811C41.1372 24.0811 41.4559 24.1455 41.728 24.2744C42.0037 24.3997 42.2365 24.5841 42.4263 24.8276C42.6196 25.0675 42.7718 25.3576 42.8828 25.6978C42.9938 26.0379 43.0708 26.4229 43.1138 26.8525V27.3467C43.0744 27.7728 42.9974 28.1559 42.8828 28.4961C42.7718 28.8363 42.6196 29.1263 42.4263 29.3662C42.2365 29.6061 42.0037 29.7905 41.728 29.9194C41.4523 30.0448 41.13 30.1074 40.7612 30.1074C40.4211 30.1074 40.1095 30.034 39.8267 29.8872C39.5474 29.7404 39.3057 29.5345 39.1016 29.2695C38.901 29.0046 38.7453 28.693 38.6343 28.335C38.5269 27.9733 38.4731 27.5812 38.4731 27.1587ZM39.4722 27.0459V27.1587C39.4722 27.4487 39.5008 27.7209 39.5581 27.9751C39.619 28.2293 39.7121 28.4531 39.8374 28.6465C39.9627 28.8398 40.1221 28.992 40.3154 29.103C40.5088 29.2104 40.7397 29.2642 41.0083 29.2642C41.3377 29.2642 41.6081 29.1943 41.8193 29.0547C42.0342 28.915 42.2061 28.7306 42.335 28.5015C42.4639 28.2723 42.5641 28.0234 42.6357 27.7549V26.4604C42.5928 26.2635 42.5301 26.0737 42.4478 25.8911C42.369 25.7049 42.2651 25.5402 42.1362 25.397C42.0109 25.2502 41.8551 25.1338 41.6689 25.0479C41.4863 24.9619 41.2697 24.9189 41.019 24.9189C40.7469 24.9189 40.5124 24.9762 40.3154 25.0908C40.1221 25.2018 39.9627 25.3558 39.8374 25.5527C39.7121 25.7461 39.619 25.9717 39.5581 26.2295C39.5008 26.4837 39.4722 26.7559 39.4722 27.0459ZM47.6523 21.75H48.6514V28.8721L48.5654 30H47.6523V21.75ZM52.5776 27.0459V27.1587C52.5776 27.5812 52.5275 27.9733 52.4272 28.335C52.327 28.693 52.1802 29.0046 51.9868 29.2695C51.7935 29.5345 51.5571 29.7404 51.2778 29.8872C50.9985 30.034 50.6781 30.1074 50.3164 30.1074C49.9476 30.1074 49.6235 30.0448 49.3442 29.9194C49.0685 29.7905 48.8358 29.6061 48.646 29.3662C48.4562 29.1263 48.304 28.8363 48.1895 28.4961C48.0785 28.1559 48.0015 27.7728 47.9585 27.3467V26.8525C48.0015 26.4229 48.0785 26.0379 48.1895 25.6978C48.304 25.3576 48.4562 25.0675 48.646 24.8276C48.8358 24.5841 49.0685 24.3997 49.3442 24.2744C49.62 24.1455 49.9404 24.0811 50.3057 24.0811C50.6709 24.0811 50.995 24.1527 51.2778 24.2959C51.5607 24.4355 51.797 24.6361 51.9868 24.8975C52.1802 25.1589 52.327 25.4722 52.4272 25.8374C52.5275 26.1991 52.5776 26.6019 52.5776 27.0459ZM51.5786 27.1587V27.0459C51.5786 26.7559 51.5518 26.4837 51.498 26.2295C51.4443 25.9717 51.3584 25.7461 51.2402 25.5527C51.1221 25.3558 50.9663 25.2018 50.7729 25.0908C50.5796 24.9762 50.3415 24.9189 50.0586 24.9189C49.8079 24.9189 49.5895 24.9619 49.4033 25.0479C49.2207 25.1338 49.0649 25.2502 48.936 25.397C48.8071 25.5402 48.7015 25.7049 48.6191 25.8911C48.5404 26.0737 48.4813 26.2635 48.4419 26.4604V27.7549C48.4992 28.0055 48.5923 28.2472 48.7212 28.48C48.8537 28.7091 49.0291 28.8971 49.2476 29.0439C49.4696 29.1908 49.7435 29.2642 50.0693 29.2642C50.3379 29.2642 50.5671 29.2104 50.7568 29.103C50.9502 28.992 51.106 28.8398 51.2241 28.6465C51.3459 28.4531 51.4354 28.2293 51.4927 27.9751C51.55 27.7209 51.5786 27.4487 51.5786 27.1587ZM55.4028 29.3984L57.0195 24.1885H58.083L55.752 30.897C55.6982 31.0402 55.6266 31.1942 55.5371 31.3589C55.4512 31.5272 55.3402 31.6865 55.2041 31.8369C55.068 31.9873 54.9033 32.109 54.71 32.2021C54.5202 32.2988 54.2928 32.3472 54.0278 32.3472C53.9491 32.3472 53.8488 32.3364 53.7271 32.3149C53.6053 32.2935 53.5194 32.2756 53.4692 32.2612L53.4639 31.4556C53.4925 31.4591 53.5373 31.4627 53.5981 31.4663C53.6626 31.4735 53.7074 31.4771 53.7324 31.4771C53.958 31.4771 54.1496 31.4466 54.3071 31.3857C54.4647 31.3285 54.5972 31.23 54.7046 31.0903C54.8156 30.9543 54.9105 30.7663 54.9893 30.5264L55.4028 29.3984ZM54.2158 24.1885L55.7251 28.7002L55.9829 29.7476L55.2686 30.1128L53.1309 24.1885H54.2158ZM64.0342 29.291C64.2705 29.291 64.4889 29.2427 64.6895 29.146C64.89 29.0493 65.0547 28.9168 65.1836 28.7485C65.3125 28.5767 65.3859 28.3815 65.4038 28.1631H66.3491C66.3312 28.5068 66.2148 28.8273 66 29.1245C65.7887 29.4181 65.5112 29.6562 65.1675 29.8389C64.8237 30.0179 64.446 30.1074 64.0342 30.1074C63.5973 30.1074 63.216 30.0304 62.8901 29.8765C62.5679 29.7225 62.2993 29.5112 62.0845 29.2427C61.8732 28.9741 61.7139 28.6662 61.6064 28.3188C61.5026 27.9679 61.4507 27.5973 61.4507 27.207V26.9814C61.4507 26.5911 61.5026 26.2223 61.6064 25.875C61.7139 25.5241 61.8732 25.2144 62.0845 24.9458C62.2993 24.6772 62.5679 24.466 62.8901 24.312C63.216 24.158 63.5973 24.0811 64.0342 24.0811C64.4889 24.0811 64.8864 24.1742 65.2266 24.3604C65.5667 24.543 65.8335 24.7936 66.0269 25.1123C66.2238 25.4274 66.3312 25.7855 66.3491 26.1865H65.4038C65.3859 25.9466 65.3179 25.73 65.1997 25.5366C65.0851 25.3433 64.9276 25.1893 64.7271 25.0747C64.5301 24.9565 64.2992 24.8975 64.0342 24.8975C63.7298 24.8975 63.4738 24.9583 63.2661 25.0801C63.062 25.1982 62.8991 25.3594 62.7773 25.5635C62.6592 25.764 62.5732 25.9878 62.5195 26.2349C62.4694 26.4784 62.4443 26.7272 62.4443 26.9814V27.207C62.4443 27.4613 62.4694 27.7119 62.5195 27.959C62.5697 28.2061 62.6538 28.4299 62.772 28.6304C62.8937 28.8309 63.0566 28.992 63.2607 29.1138C63.4684 29.2319 63.7262 29.291 64.0342 29.291ZM68.46 21.75V30H67.4663V21.75H68.46ZM68.2236 26.874L67.8101 26.8579C67.8136 26.4604 67.8727 26.0934 67.9873 25.7568C68.1019 25.4167 68.263 25.1213 68.4707 24.8706C68.6784 24.62 68.9255 24.4266 69.2119 24.2905C69.502 24.1509 69.8224 24.0811 70.1733 24.0811C70.4598 24.0811 70.7176 24.1204 70.9468 24.1992C71.1759 24.2744 71.3711 24.3962 71.5322 24.5645C71.6969 24.7327 71.8223 24.9512 71.9082 25.2197C71.9941 25.4847 72.0371 25.8088 72.0371 26.1919V30H71.0381V26.1812C71.0381 25.8768 70.9933 25.6333 70.9038 25.4507C70.8143 25.2645 70.6836 25.1302 70.5117 25.0479C70.3398 24.9619 70.1286 24.9189 69.8779 24.9189C69.6309 24.9189 69.4053 24.9709 69.2012 25.0747C69.0007 25.1785 68.827 25.3218 68.6802 25.5044C68.5369 25.687 68.4242 25.8965 68.3418 26.1328C68.263 26.3656 68.2236 26.6126 68.2236 26.874ZM74.6045 24.1885V30H73.6055V24.1885H74.6045ZM73.5303 22.647C73.5303 22.4858 73.5786 22.3498 73.6753 22.2388C73.7756 22.1278 73.9224 22.0723 74.1157 22.0723C74.3055 22.0723 74.4505 22.1278 74.5508 22.2388C74.6546 22.3498 74.7065 22.4858 74.7065 22.647C74.7065 22.8009 74.6546 22.9334 74.5508 23.0444C74.4505 23.1519 74.3055 23.2056 74.1157 23.2056C73.9224 23.2056 73.7756 23.1519 73.6753 23.0444C73.5786 22.9334 73.5303 22.8009 73.5303 22.647ZM77.1934 25.1016V30H76.1997V24.1885H77.1665L77.1934 25.1016ZM79.0088 24.1562L79.0034 25.0801C78.9211 25.0622 78.8423 25.0514 78.7671 25.0479C78.6955 25.0407 78.6131 25.0371 78.52 25.0371C78.2909 25.0371 78.0885 25.0729 77.9131 25.1445C77.7376 25.2161 77.589 25.3164 77.4673 25.4453C77.3455 25.5742 77.2489 25.7282 77.1772 25.9072C77.1092 26.0827 77.0645 26.276 77.043 26.4873L76.7637 26.6484C76.7637 26.2975 76.7977 25.9681 76.8657 25.6602C76.9373 25.3522 77.0465 25.0801 77.1934 24.8438C77.3402 24.6038 77.5264 24.4176 77.752 24.2852C77.9811 24.1491 78.2533 24.0811 78.5684 24.0811C78.64 24.0811 78.7223 24.09 78.8154 24.1079C78.9085 24.1222 78.973 24.1383 79.0088 24.1562ZM83.1392 29.0063V26.0146C83.1392 25.7855 83.0926 25.5868 82.9995 25.4185C82.91 25.2466 82.7739 25.1141 82.5913 25.021C82.4087 24.9279 82.1831 24.8813 81.9146 24.8813C81.6639 24.8813 81.4437 24.9243 81.2539 25.0103C81.0677 25.0962 80.9209 25.209 80.8135 25.3486C80.7096 25.4883 80.6577 25.6387 80.6577 25.7998H79.6641C79.6641 25.5921 79.7178 25.3862 79.8252 25.1821C79.9326 24.978 80.0866 24.7936 80.2871 24.6289C80.4912 24.4606 80.7347 24.3281 81.0176 24.2314C81.304 24.1312 81.6227 24.0811 81.9736 24.0811C82.3962 24.0811 82.7686 24.1527 83.0908 24.2959C83.4167 24.4391 83.6709 24.6558 83.8535 24.9458C84.0397 25.2323 84.1328 25.5921 84.1328 26.0254V28.7324C84.1328 28.9258 84.1489 29.1317 84.1812 29.3501C84.217 29.5685 84.2689 29.7565 84.3369 29.9141V30H83.3003C83.2502 29.8854 83.2108 29.7332 83.1821 29.5435C83.1535 29.3501 83.1392 29.1711 83.1392 29.0063ZM83.311 26.4766L83.3218 27.1748H82.3174C82.0345 27.1748 81.7821 27.1981 81.5601 27.2446C81.3381 27.2876 81.1519 27.3538 81.0015 27.4434C80.8511 27.5329 80.7365 27.6457 80.6577 27.7817C80.5789 27.9142 80.5396 28.07 80.5396 28.249C80.5396 28.4316 80.5807 28.5981 80.6631 28.7485C80.7454 28.8989 80.869 29.0189 81.0337 29.1084C81.202 29.1943 81.4079 29.2373 81.6514 29.2373C81.9557 29.2373 82.2243 29.1729 82.457 29.0439C82.6898 28.915 82.8742 28.7575 83.0103 28.5713C83.1499 28.3851 83.2251 28.2043 83.2358 28.0288L83.6602 28.5068C83.6351 28.6572 83.5671 28.8237 83.4561 29.0063C83.3451 29.189 83.1965 29.3644 83.0103 29.5327C82.8276 29.6974 82.6092 29.8353 82.355 29.9463C82.1043 30.0537 81.8215 30.1074 81.5063 30.1074C81.1125 30.1074 80.7669 30.0304 80.4697 29.8765C80.1761 29.7225 79.9469 29.5166 79.7822 29.2588C79.6211 28.9974 79.5405 28.7056 79.5405 28.3833C79.5405 28.0718 79.6014 27.7979 79.7231 27.5615C79.8449 27.3216 80.0203 27.1229 80.2495 26.9653C80.4787 26.8042 80.7544 26.6825 81.0767 26.6001C81.3989 26.5177 81.7588 26.4766 82.1562 26.4766H83.311ZM89.4609 24.1885H90.3633V29.8765C90.3633 30.3885 90.2594 30.8254 90.0518 31.187C89.8441 31.5487 89.554 31.8226 89.1816 32.0088C88.8128 32.1986 88.3867 32.2935 87.9033 32.2935C87.7028 32.2935 87.4665 32.2612 87.1943 32.1968C86.9258 32.1359 86.6608 32.0303 86.3994 31.8799C86.1416 31.7331 85.925 31.5343 85.7495 31.2837L86.2705 30.6929C86.514 30.9865 86.7682 31.1906 87.0332 31.3052C87.3018 31.4198 87.5667 31.4771 87.8281 31.4771C88.1432 31.4771 88.4154 31.418 88.6445 31.2998C88.8737 31.1816 89.0509 31.0062 89.1763 30.7734C89.3052 30.5443 89.3696 30.2614 89.3696 29.9248V25.4668L89.4609 24.1885ZM85.4595 27.1587V27.0459C85.4595 26.6019 85.5114 26.1991 85.6152 25.8374C85.7227 25.4722 85.8748 25.1589 86.0718 24.8975C86.2723 24.6361 86.514 24.4355 86.7969 24.2959C87.0798 24.1527 87.3984 24.0811 87.7529 24.0811C88.1182 24.0811 88.4368 24.1455 88.709 24.2744C88.9847 24.3997 89.2174 24.5841 89.4072 24.8276C89.6006 25.0675 89.7528 25.3576 89.8638 25.6978C89.9748 26.0379 90.0518 26.4229 90.0947 26.8525V27.3467C90.0553 27.7728 89.9784 28.1559 89.8638 28.4961C89.7528 28.8363 89.6006 29.1263 89.4072 29.3662C89.2174 29.6061 88.9847 29.7905 88.709 29.9194C88.4333 30.0448 88.111 30.1074 87.7422 30.1074C87.3949 30.1074 87.0798 30.034 86.7969 29.8872C86.5176 29.7404 86.2777 29.5345 86.0771 29.2695C85.8766 29.0046 85.7227 28.693 85.6152 28.335C85.5114 27.9733 85.4595 27.5812 85.4595 27.1587ZM86.4531 27.0459V27.1587C86.4531 27.4487 86.4818 27.7209 86.5391 27.9751C86.5999 28.2293 86.6912 28.4531 86.813 28.6465C86.9383 28.8398 87.0977 28.992 87.291 29.103C87.4844 29.2104 87.7153 29.2642 87.9839 29.2642C88.3133 29.2642 88.5854 29.1943 88.8003 29.0547C89.0151 28.915 89.1852 28.7306 89.3105 28.5015C89.4395 28.2723 89.5397 28.0234 89.6113 27.7549V26.4604C89.5719 26.2635 89.5111 26.0737 89.4287 25.8911C89.3499 25.7049 89.2461 25.5402 89.1172 25.397C88.9919 25.2502 88.8361 25.1338 88.6499 25.0479C88.4637 24.9619 88.2453 24.9189 87.9946 24.9189C87.7225 24.9189 87.488 24.9762 87.291 25.0908C87.0977 25.2018 86.9383 25.3558 86.813 25.5527C86.6912 25.7461 86.5999 25.9717 86.5391 26.2295C86.4818 26.4837 86.4531 26.7559 86.4531 27.0459ZM96.062 30V30.8164H91.1367V30H96.062ZM100.219 28.4585C100.219 28.3153 100.187 28.1828 100.123 28.061C100.062 27.9357 99.9346 27.8229 99.7412 27.7227C99.5514 27.6188 99.265 27.5293 98.8818 27.4541C98.5596 27.3861 98.2677 27.3055 98.0063 27.2124C97.7485 27.1193 97.5283 27.0065 97.3457 26.874C97.1667 26.7415 97.0288 26.5858 96.9321 26.4067C96.8354 26.2277 96.7871 26.0182 96.7871 25.7783C96.7871 25.5492 96.8372 25.3325 96.9375 25.1284C97.0413 24.9243 97.1864 24.7435 97.3726 24.5859C97.5623 24.4284 97.7897 24.3049 98.0547 24.2153C98.3197 24.1258 98.6151 24.0811 98.9409 24.0811C99.4064 24.0811 99.8039 24.1634 100.133 24.3281C100.463 24.4928 100.715 24.7131 100.891 24.9888C101.066 25.2609 101.154 25.5635 101.154 25.8965H100.16C100.16 25.7354 100.112 25.5796 100.015 25.4292C99.922 25.2752 99.7842 25.1481 99.6016 25.0479C99.4225 24.9476 99.2023 24.8975 98.9409 24.8975C98.6652 24.8975 98.4414 24.9404 98.2695 25.0264C98.1012 25.1087 97.9777 25.2144 97.8989 25.3433C97.8237 25.4722 97.7861 25.6082 97.7861 25.7515C97.7861 25.8589 97.804 25.9556 97.8398 26.0415C97.8792 26.1239 97.9473 26.2008 98.0439 26.2725C98.1406 26.3405 98.2767 26.4049 98.4521 26.4658C98.6276 26.5267 98.8514 26.5876 99.1235 26.6484C99.5998 26.7559 99.9919 26.8848 100.3 27.0352C100.608 27.1855 100.837 27.37 100.987 27.5884C101.138 27.8068 101.213 28.0718 101.213 28.3833C101.213 28.6375 101.159 28.8703 101.052 29.0815C100.948 29.2928 100.796 29.4754 100.595 29.6294C100.398 29.7798 100.162 29.8979 99.8862 29.9839C99.6141 30.0662 99.3079 30.1074 98.9678 30.1074C98.4557 30.1074 98.0225 30.0161 97.668 29.8335C97.3135 29.6509 97.0449 29.4146 96.8623 29.1245C96.6797 28.8345 96.5884 28.5283 96.5884 28.2061H97.5874C97.6017 28.4782 97.6805 28.6948 97.8237 28.856C97.967 29.0135 98.1424 29.1263 98.3501 29.1943C98.5578 29.2588 98.7637 29.291 98.9678 29.291C99.2399 29.291 99.4673 29.2552 99.6499 29.1836C99.8361 29.112 99.9775 29.0135 100.074 28.8882C100.171 28.7629 100.219 28.6196 100.219 28.4585ZM103.598 24.1885V30H102.599V24.1885H103.598ZM102.523 22.647C102.523 22.4858 102.572 22.3498 102.668 22.2388C102.769 22.1278 102.916 22.0723 103.109 22.0723C103.299 22.0723 103.444 22.1278 103.544 22.2388C103.648 22.3498 103.7 22.4858 103.7 22.647C103.7 22.8009 103.648 22.9334 103.544 23.0444C103.444 23.1519 103.299 23.2056 103.109 23.2056C102.916 23.2056 102.769 23.1519 102.668 23.0444C102.572 22.9334 102.523 22.8009 102.523 22.647ZM106.187 25.4292V30H105.193V24.1885H106.133L106.187 25.4292ZM105.95 26.874L105.537 26.8579C105.54 26.4604 105.599 26.0934 105.714 25.7568C105.828 25.4167 105.99 25.1213 106.197 24.8706C106.405 24.62 106.652 24.4266 106.938 24.2905C107.229 24.1509 107.549 24.0811 107.9 24.0811C108.186 24.0811 108.444 24.1204 108.673 24.1992C108.903 24.2744 109.098 24.3962 109.259 24.5645C109.424 24.7327 109.549 24.9512 109.635 25.2197C109.721 25.4847 109.764 25.8088 109.764 26.1919V30H108.765V26.1812C108.765 25.8768 108.72 25.6333 108.63 25.4507C108.541 25.2645 108.41 25.1302 108.238 25.0479C108.066 24.9619 107.855 24.9189 107.604 24.9189C107.357 24.9189 107.132 24.9709 106.928 25.0747C106.727 25.1785 106.554 25.3218 106.407 25.5044C106.264 25.687 106.151 25.8965 106.068 26.1328C105.99 26.3656 105.95 26.6126 105.95 26.874ZM115.038 24.1885H115.94V29.8765C115.94 30.3885 115.837 30.8254 115.629 31.187C115.421 31.5487 115.131 31.8226 114.759 32.0088C114.39 32.1986 113.964 32.2935 113.48 32.2935C113.28 32.2935 113.044 32.2612 112.771 32.1968C112.503 32.1359 112.238 32.0303 111.977 31.8799C111.719 31.7331 111.502 31.5343 111.327 31.2837L111.848 30.6929C112.091 30.9865 112.345 31.1906 112.61 31.3052C112.879 31.4198 113.144 31.4771 113.405 31.4771C113.72 31.4771 113.993 31.418 114.222 31.2998C114.451 31.1816 114.628 31.0062 114.753 30.7734C114.882 30.5443 114.947 30.2614 114.947 29.9248V25.4668L115.038 24.1885ZM111.037 27.1587V27.0459C111.037 26.6019 111.089 26.1991 111.192 25.8374C111.3 25.4722 111.452 25.1589 111.649 24.8975C111.849 24.6361 112.091 24.4355 112.374 24.2959C112.657 24.1527 112.976 24.0811 113.33 24.0811C113.695 24.0811 114.014 24.1455 114.286 24.2744C114.562 24.3997 114.795 24.5841 114.984 24.8276C115.178 25.0675 115.33 25.3576 115.441 25.6978C115.552 26.0379 115.629 26.4229 115.672 26.8525V27.3467C115.632 27.7728 115.556 28.1559 115.441 28.4961C115.33 28.8363 115.178 29.1263 114.984 29.3662C114.795 29.6061 114.562 29.7905 114.286 29.9194C114.01 30.0448 113.688 30.1074 113.319 30.1074C112.972 30.1074 112.657 30.034 112.374 29.8872C112.095 29.7404 111.855 29.5345 111.654 29.2695C111.454 29.0046 111.3 28.693 111.192 28.335C111.089 27.9733 111.037 27.5812 111.037 27.1587ZM112.03 27.0459V27.1587C112.03 27.4487 112.059 27.7209 112.116 27.9751C112.177 28.2293 112.268 28.4531 112.39 28.6465C112.515 28.8398 112.675 28.992 112.868 29.103C113.062 29.2104 113.292 29.2642 113.561 29.2642C113.89 29.2642 114.163 29.1943 114.377 29.0547C114.592 28.915 114.762 28.7306 114.888 28.5015C115.017 28.2723 115.117 28.0234 115.188 27.7549V26.4604C115.149 26.2635 115.088 26.0737 115.006 25.8911C114.927 25.7049 114.823 25.5402 114.694 25.397C114.569 25.2502 114.413 25.1338 114.227 25.0479C114.041 24.9619 113.822 24.9189 113.572 24.9189C113.3 24.9189 113.065 24.9762 112.868 25.0908C112.675 25.2018 112.515 25.3558 112.39 25.5527C112.268 25.7461 112.177 25.9717 112.116 26.2295C112.059 26.4837 112.03 26.7559 112.03 27.0459ZM118.529 21.75V30H117.53V21.75H118.529ZM123.551 29.0063V26.0146C123.551 25.7855 123.505 25.5868 123.412 25.4185C123.322 25.2466 123.186 25.1141 123.003 25.021C122.821 24.9279 122.595 24.8813 122.327 24.8813C122.076 24.8813 121.856 24.9243 121.666 25.0103C121.48 25.0962 121.333 25.209 121.226 25.3486C121.122 25.4883 121.07 25.6387 121.07 25.7998H120.076C120.076 25.5921 120.13 25.3862 120.237 25.1821C120.345 24.978 120.499 24.7936 120.699 24.6289C120.903 24.4606 121.147 24.3281 121.43 24.2314C121.716 24.1312 122.035 24.0811 122.386 24.0811C122.808 24.0811 123.181 24.1527 123.503 24.2959C123.829 24.4391 124.083 24.6558 124.266 24.9458C124.452 25.2323 124.545 25.5921 124.545 26.0254V28.7324C124.545 28.9258 124.561 29.1317 124.593 29.3501C124.629 29.5685 124.681 29.7565 124.749 29.9141V30H123.712C123.662 29.8854 123.623 29.7332 123.594 29.5435C123.566 29.3501 123.551 29.1711 123.551 29.0063ZM123.723 26.4766L123.734 27.1748H122.729C122.447 27.1748 122.194 27.1981 121.972 27.2446C121.75 27.2876 121.564 27.3538 121.414 27.4434C121.263 27.5329 121.149 27.6457 121.07 27.7817C120.991 27.9142 120.952 28.07 120.952 28.249C120.952 28.4316 120.993 28.5981 121.075 28.7485C121.158 28.8989 121.281 29.0189 121.446 29.1084C121.614 29.1943 121.82 29.2373 122.063 29.2373C122.368 29.2373 122.636 29.1729 122.869 29.0439C123.102 28.915 123.286 28.7575 123.422 28.5713C123.562 28.3851 123.637 28.2043 123.648 28.0288L124.072 28.5068C124.047 28.6572 123.979 28.8237 123.868 29.0063C123.757 29.189 123.609 29.3644 123.422 29.5327C123.24 29.6974 123.021 29.8353 122.767 29.9463C122.516 30.0537 122.234 30.1074 121.918 30.1074C121.525 30.1074 121.179 30.0304 120.882 29.8765C120.588 29.7225 120.359 29.5166 120.194 29.2588C120.033 28.9974 119.953 28.7056 119.953 28.3833C119.953 28.0718 120.014 27.7979 120.135 27.5615C120.257 27.3216 120.432 27.1229 120.662 26.9653C120.891 26.8042 121.167 26.6825 121.489 26.6001C121.811 26.5177 122.171 26.4766 122.568 26.4766H123.723ZM129.266 22.1367V30H128.272V23.3774L126.269 24.1079V23.2109L129.11 22.1367H129.266ZM137.242 22.1797V22.7383L134.003 30H132.956L136.189 22.9961H131.957V22.1797H137.242Z" fill="#8E8E8E"/>
<defs>
<clipPath id="clip0_1_397">
<rect width="60.5938" height="18" fill="white"/>
</clipPath>
</defs>
</svg>
