<svg width="224" height="34" viewBox="0 0 224 34" fill="none" xmlns="http://www.w3.org/2000/svg">
<g clip-path="url(#clip0_1_421)">
<path d="M4.88086 10.9766C4.88086 10.8216 4.83984 10.6826 4.75781 10.5596C4.67578 10.4365 4.52083 10.3249 4.29297 10.2246C4.06966 10.1198 3.74154 10.0218 3.30859 9.93066C2.92578 9.84863 2.57259 9.74609 2.24902 9.62305C1.92546 9.5 1.64746 9.35189 1.41504 9.17871C1.18262 9.00098 1.00033 8.79362 0.868164 8.55664C0.74056 8.3151 0.676758 8.03711 0.676758 7.72266C0.676758 7.41732 0.742839 7.13021 0.875 6.86133C1.00716 6.58789 1.19857 6.34863 1.44922 6.14355C1.69987 5.93392 2.00521 5.76986 2.36523 5.65137C2.72526 5.52832 3.13086 5.4668 3.58203 5.4668C4.21094 5.4668 4.75098 5.56934 5.20215 5.77441C5.65788 5.97949 6.00651 6.26204 6.24805 6.62207C6.48958 6.97754 6.61035 7.37858 6.61035 7.8252H4.80566C4.80566 7.62923 4.76009 7.4515 4.66895 7.29199C4.58236 7.13249 4.44792 7.00488 4.26562 6.90918C4.08333 6.80892 3.85319 6.75879 3.5752 6.75879C3.32454 6.75879 3.11263 6.7998 2.93945 6.88184C2.77083 6.96387 2.64323 7.07096 2.55664 7.20312C2.47005 7.33529 2.42676 7.48112 2.42676 7.64062C2.42676 7.75911 2.44954 7.86621 2.49512 7.96191C2.54525 8.05306 2.625 8.13737 2.73438 8.21484C2.84375 8.29232 2.99186 8.36296 3.17871 8.42676C3.37012 8.49056 3.60482 8.55208 3.88281 8.61133C4.43424 8.7207 4.91504 8.86654 5.3252 9.04883C5.73991 9.22656 6.06348 9.46354 6.2959 9.75977C6.52832 10.056 6.64453 10.4342 6.64453 10.8945C6.64453 11.2227 6.57389 11.5234 6.43262 11.7969C6.29134 12.0658 6.08626 12.3005 5.81738 12.501C5.5485 12.7015 5.22721 12.8587 4.85352 12.9727C4.47982 13.082 4.05827 13.1367 3.58887 13.1367C2.90983 13.1367 2.33561 13.016 1.86621 12.7744C1.39681 12.5283 1.04134 12.2184 0.799805 11.8447C0.558268 11.4665 0.4375 11.0745 0.4375 10.6689H2.16699C2.18066 10.9561 2.25814 11.1862 2.39941 11.3594C2.54069 11.5326 2.71842 11.6579 2.93262 11.7354C3.15137 11.8083 3.38151 11.8447 3.62305 11.8447C3.89648 11.8447 4.12663 11.8083 4.31348 11.7354C4.50033 11.6579 4.6416 11.5553 4.7373 11.4277C4.83301 11.2956 4.88086 11.1452 4.88086 10.9766ZM12.0928 11.4277V8.0166C12.0928 7.76595 12.0495 7.54948 11.9629 7.36719C11.8763 7.1849 11.7441 7.04362 11.5664 6.94336C11.3887 6.8431 11.1631 6.79297 10.8896 6.79297C10.6481 6.79297 10.4362 6.83398 10.2539 6.91602C10.0762 6.99805 9.93945 7.11426 9.84375 7.26465C9.74805 7.41048 9.7002 7.5791 9.7002 7.77051H7.88867C7.88867 7.46517 7.96159 7.17578 8.10742 6.90234C8.25326 6.62435 8.46061 6.37826 8.72949 6.16406C9.00293 5.94531 9.32878 5.77441 9.70703 5.65137C10.0898 5.52832 10.5182 5.4668 10.9922 5.4668C11.5527 5.4668 12.0518 5.5625 12.4893 5.75391C12.9313 5.94076 13.2777 6.22331 13.5283 6.60156C13.7835 6.97982 13.9111 7.45605 13.9111 8.03027V11.2568C13.9111 11.626 13.9339 11.9427 13.9795 12.207C14.0296 12.4668 14.1025 12.6924 14.1982 12.8838V13H12.3594C12.2728 12.8132 12.2067 12.5762 12.1611 12.2891C12.1156 11.9974 12.0928 11.7103 12.0928 11.4277ZM12.3457 8.49512L12.3594 9.56836H11.2178C10.9352 9.56836 10.6868 9.59798 10.4727 9.65723C10.2585 9.71191 10.083 9.79395 9.94629 9.90332C9.80957 10.0081 9.70703 10.1357 9.63867 10.2861C9.57031 10.432 9.53613 10.5983 9.53613 10.7852C9.53613 10.9674 9.57715 11.1315 9.65918 11.2773C9.74577 11.4232 9.86882 11.5394 10.0283 11.626C10.1924 11.708 10.3838 11.749 10.6025 11.749C10.9215 11.749 11.1995 11.6852 11.4365 11.5576C11.6735 11.4255 11.8581 11.266 11.9902 11.0791C12.1224 10.8923 12.193 10.7145 12.2021 10.5459L12.7217 11.3252C12.6579 11.512 12.5622 11.7103 12.4346 11.9199C12.307 12.1296 12.1429 12.3255 11.9424 12.5078C11.7419 12.6901 11.5003 12.8405 11.2178 12.959C10.9352 13.0775 10.6071 13.1367 10.2334 13.1367C9.75488 13.1367 9.3265 13.041 8.94824 12.8496C8.56999 12.6582 8.27148 12.3962 8.05273 12.0635C7.83398 11.7308 7.72461 11.3525 7.72461 10.9287C7.72461 10.5368 7.79753 10.1904 7.94336 9.88965C8.08919 9.58887 8.30566 9.33594 8.59277 9.13086C8.87988 8.92122 9.23535 8.764 9.65918 8.65918C10.0876 8.5498 10.5775 8.49512 11.1289 8.49512H12.3457ZM17.3428 2.49316V13H15.5381V2.49316H17.3428ZM21.9775 5.60352L18.7578 9.21973L17.0146 10.9902L16.4404 9.58887L17.7871 7.89355L19.7969 5.60352H21.9775ZM20.1318 13L17.8418 9.55469L19.0449 8.38574L22.2236 13H20.1318ZM22.9277 2.5H24.7393V11.3662L24.5615 13H22.9277V2.5ZM29.4971 9.22656V9.37012C29.4971 9.92155 29.4355 10.4274 29.3125 10.8877C29.194 11.348 29.014 11.7467 28.7725 12.084C28.5309 12.4167 28.2301 12.6764 27.8701 12.8633C27.5146 13.0456 27.0977 13.1367 26.6191 13.1367C26.1634 13.1367 25.7669 13.0479 25.4297 12.8701C25.097 12.6924 24.8167 12.4417 24.5889 12.1182C24.361 11.79 24.1787 11.4049 24.042 10.9629C23.9053 10.5163 23.8027 10.0286 23.7344 9.5V9.11035C23.8027 8.57715 23.9053 8.08952 24.042 7.64746C24.1787 7.2054 24.361 6.82031 24.5889 6.49219C24.8167 6.16406 25.097 5.91113 25.4297 5.7334C25.7624 5.55566 26.1543 5.4668 26.6055 5.4668C27.0885 5.4668 27.5101 5.56022 27.8701 5.74707C28.2347 5.92936 28.5355 6.18913 28.7725 6.52637C29.014 6.85905 29.194 7.25553 29.3125 7.71582C29.4355 8.17155 29.4971 8.67513 29.4971 9.22656ZM27.6855 9.37012V9.22656C27.6855 8.91211 27.6605 8.61589 27.6104 8.33789C27.5602 8.05534 27.4782 7.80697 27.3643 7.59277C27.2503 7.37858 27.0954 7.20996 26.8994 7.08691C26.7035 6.96387 26.4574 6.90234 26.1611 6.90234C25.8786 6.90234 25.637 6.9502 25.4365 7.0459C25.2406 7.1416 25.0765 7.27376 24.9443 7.44238C24.8167 7.611 24.7165 7.80924 24.6436 8.03711C24.5752 8.26497 24.5296 8.51107 24.5068 8.77539V9.8418C24.5387 10.1927 24.6139 10.5094 24.7324 10.792C24.8509 11.07 25.0264 11.291 25.2588 11.4551C25.4958 11.6191 25.8011 11.7012 26.1748 11.7012C26.4665 11.7012 26.7103 11.6442 26.9062 11.5303C27.1022 11.4118 27.2572 11.2477 27.3711 11.0381C27.485 10.8239 27.5648 10.5755 27.6104 10.293C27.6605 10.0104 27.6855 9.7028 27.6855 9.37012ZM32.6143 7.11426V13H30.8096V5.60352H32.5186L32.6143 7.11426ZM34.8633 5.55566L34.8359 7.2373C34.7357 7.21908 34.6217 7.2054 34.4941 7.19629C34.3711 7.18717 34.2549 7.18262 34.1455 7.18262C33.8675 7.18262 33.6237 7.22135 33.4141 7.29883C33.2044 7.37174 33.029 7.47884 32.8877 7.62012C32.751 7.76139 32.6462 7.93457 32.5732 8.13965C32.5003 8.34017 32.4593 8.56803 32.4502 8.82324L32.0605 8.77539C32.0605 8.30599 32.1084 7.87077 32.2041 7.46973C32.2998 7.06868 32.4388 6.71777 32.6211 6.41699C32.8034 6.11621 33.0312 5.88379 33.3047 5.71973C33.5827 5.55111 33.9017 5.4668 34.2617 5.4668C34.362 5.4668 34.4691 5.47591 34.583 5.49414C34.7015 5.50781 34.7949 5.52832 34.8633 5.55566ZM37.7686 2.5V13H35.957V2.5H37.7686Z" fill="#262626"/>
</g>
<path d="M1.94434 22.1797V30H0.907715V22.1797H1.94434ZM5.2207 25.6978V26.5464H1.71875V25.6978H5.2207ZM5.75244 22.1797V23.0283H1.71875V22.1797H5.75244ZM6.45605 27.1587V27.0352C6.45605 26.6162 6.51693 26.2277 6.63867 25.8696C6.76042 25.508 6.93587 25.1947 7.16504 24.9297C7.39421 24.6611 7.67171 24.4535 7.99756 24.3066C8.3234 24.1562 8.68864 24.0811 9.09326 24.0811C9.50146 24.0811 9.86849 24.1562 10.1943 24.3066C10.5238 24.4535 10.8031 24.6611 11.0322 24.9297C11.265 25.1947 11.4422 25.508 11.564 25.8696C11.6857 26.2277 11.7466 26.6162 11.7466 27.0352V27.1587C11.7466 27.5776 11.6857 27.9661 11.564 28.3242C11.4422 28.6823 11.265 28.9956 11.0322 29.2642C10.8031 29.5291 10.5256 29.7368 10.1997 29.8872C9.87744 30.034 9.51221 30.1074 9.104 30.1074C8.6958 30.1074 8.32878 30.034 8.00293 29.8872C7.67708 29.7368 7.39779 29.5291 7.16504 29.2642C6.93587 28.9956 6.76042 28.6823 6.63867 28.3242C6.51693 27.9661 6.45605 27.5776 6.45605 27.1587ZM7.44971 27.0352V27.1587C7.44971 27.4487 7.48372 27.7227 7.55176 27.9805C7.61979 28.2347 7.72184 28.4603 7.85791 28.6572C7.99756 28.8542 8.17122 29.0099 8.37891 29.1245C8.58659 29.2355 8.82829 29.291 9.104 29.291C9.37614 29.291 9.61426 29.2355 9.81836 29.1245C10.026 29.0099 10.1979 28.8542 10.334 28.6572C10.4701 28.4603 10.5721 28.2347 10.6401 27.9805C10.7118 27.7227 10.7476 27.4487 10.7476 27.1587V27.0352C10.7476 26.7487 10.7118 26.4784 10.6401 26.2241C10.5721 25.9663 10.4683 25.7389 10.3286 25.542C10.1925 25.3415 10.0207 25.1839 9.81299 25.0693C9.60889 24.9548 9.36898 24.8975 9.09326 24.8975C8.82113 24.8975 8.58122 24.9548 8.37354 25.0693C8.16943 25.1839 7.99756 25.3415 7.85791 25.542C7.72184 25.7389 7.61979 25.9663 7.55176 26.2241C7.48372 26.4784 7.44971 26.7487 7.44971 27.0352ZM14.0723 21.75V30H13.0732V21.75H14.0723ZM16.7471 21.75V30H15.748V21.75H16.7471ZM18.0791 27.1587V27.0352C18.0791 26.6162 18.14 26.2277 18.2617 25.8696C18.3835 25.508 18.5589 25.1947 18.7881 24.9297C19.0173 24.6611 19.2948 24.4535 19.6206 24.3066C19.9465 24.1562 20.3117 24.0811 20.7163 24.0811C21.1245 24.0811 21.4915 24.1562 21.8174 24.3066C22.1468 24.4535 22.4261 24.6611 22.6553 24.9297C22.888 25.1947 23.0653 25.508 23.187 25.8696C23.3088 26.2277 23.3696 26.6162 23.3696 27.0352V27.1587C23.3696 27.5776 23.3088 27.9661 23.187 28.3242C23.0653 28.6823 22.888 28.9956 22.6553 29.2642C22.4261 29.5291 22.1486 29.7368 21.8228 29.8872C21.5005 30.034 21.1353 30.1074 20.7271 30.1074C20.3188 30.1074 19.9518 30.034 19.626 29.8872C19.3001 29.7368 19.0208 29.5291 18.7881 29.2642C18.5589 28.9956 18.3835 28.6823 18.2617 28.3242C18.14 27.9661 18.0791 27.5776 18.0791 27.1587ZM19.0728 27.0352V27.1587C19.0728 27.4487 19.1068 27.7227 19.1748 27.9805C19.2428 28.2347 19.3449 28.4603 19.481 28.6572C19.6206 28.8542 19.7943 29.0099 20.002 29.1245C20.2096 29.2355 20.4513 29.291 20.7271 29.291C20.9992 29.291 21.2373 29.2355 21.4414 29.1245C21.6491 29.0099 21.821 28.8542 21.957 28.6572C22.0931 28.4603 22.1951 28.2347 22.2632 27.9805C22.3348 27.7227 22.3706 27.4487 22.3706 27.1587V27.0352C22.3706 26.7487 22.3348 26.4784 22.2632 26.2241C22.1951 25.9663 22.0913 25.7389 21.9517 25.542C21.8156 25.3415 21.6437 25.1839 21.436 25.0693C21.2319 24.9548 20.992 24.8975 20.7163 24.8975C20.4442 24.8975 20.2043 24.9548 19.9966 25.0693C19.7925 25.1839 19.6206 25.3415 19.481 25.542C19.3449 25.7389 19.2428 25.9663 19.1748 26.2241C19.1068 26.4784 19.0728 26.7487 19.0728 27.0352ZM26.0874 28.9688L27.5806 24.1885H28.2358L28.1069 25.1392L26.5869 30H25.9478L26.0874 28.9688ZM25.083 24.1885L26.356 29.0225L26.4473 30H25.7759L24.0894 24.1885H25.083ZM29.6646 28.9849L30.8784 24.1885H31.8667L30.1802 30H29.5142L29.6646 28.9849ZM28.3809 24.1885L29.8418 28.8882L30.0083 30H29.3745L27.8115 25.1284L27.6826 24.1885H28.3809ZM36.271 28.4585C36.271 28.3153 36.2388 28.1828 36.1743 28.061C36.1134 27.9357 35.9863 27.8229 35.793 27.7227C35.6032 27.6188 35.3167 27.5293 34.9336 27.4541C34.6113 27.3861 34.3195 27.3055 34.0581 27.2124C33.8003 27.1193 33.5801 27.0065 33.3975 26.874C33.2184 26.7415 33.0806 26.5858 32.9839 26.4067C32.8872 26.2277 32.8389 26.0182 32.8389 25.7783C32.8389 25.5492 32.889 25.3325 32.9893 25.1284C33.0931 24.9243 33.2381 24.7435 33.4243 24.5859C33.6141 24.4284 33.8415 24.3049 34.1064 24.2153C34.3714 24.1258 34.6668 24.0811 34.9927 24.0811C35.4582 24.0811 35.8556 24.1634 36.1851 24.3281C36.5145 24.4928 36.7669 24.7131 36.9424 24.9888C37.1178 25.2609 37.2056 25.5635 37.2056 25.8965H36.2119C36.2119 25.7354 36.1636 25.5796 36.0669 25.4292C35.9738 25.2752 35.8359 25.1481 35.6533 25.0479C35.4743 24.9476 35.2541 24.8975 34.9927 24.8975C34.717 24.8975 34.4932 24.9404 34.3213 25.0264C34.153 25.1087 34.0295 25.2144 33.9507 25.3433C33.8755 25.4722 33.8379 25.6082 33.8379 25.7515C33.8379 25.8589 33.8558 25.9556 33.8916 26.0415C33.931 26.1239 33.999 26.2008 34.0957 26.2725C34.1924 26.3405 34.3285 26.4049 34.5039 26.4658C34.6794 26.5267 34.9032 26.5876 35.1753 26.6484C35.6515 26.7559 36.0436 26.8848 36.3516 27.0352C36.6595 27.1855 36.8887 27.37 37.0391 27.5884C37.1895 27.8068 37.2646 28.0718 37.2646 28.3833C37.2646 28.6375 37.2109 28.8703 37.1035 29.0815C36.9997 29.2928 36.8475 29.4754 36.647 29.6294C36.45 29.7798 36.2137 29.8979 35.938 29.9839C35.6659 30.0662 35.3597 30.1074 35.0195 30.1074C34.5075 30.1074 34.0742 30.0161 33.7197 29.8335C33.3652 29.6509 33.0967 29.4146 32.9141 29.1245C32.7314 28.8345 32.6401 28.5283 32.6401 28.2061H33.6392C33.6535 28.4782 33.7323 28.6948 33.8755 28.856C34.0187 29.0135 34.1942 29.1263 34.4019 29.1943C34.6095 29.2588 34.8154 29.291 35.0195 29.291C35.2917 29.291 35.519 29.2552 35.7017 29.1836C35.8879 29.112 36.0293 29.0135 36.126 28.8882C36.2227 28.7629 36.271 28.6196 36.271 28.4585ZM42.9312 29.3984L44.5479 24.1885H45.6113L43.2803 30.897C43.2266 31.0402 43.1549 31.1942 43.0654 31.3589C42.9795 31.5272 42.8685 31.6865 42.7324 31.8369C42.5964 31.9873 42.4316 32.109 42.2383 32.2021C42.0485 32.2988 41.8211 32.3472 41.5562 32.3472C41.4774 32.3472 41.3771 32.3364 41.2554 32.3149C41.1336 32.2935 41.0477 32.2756 40.9976 32.2612L40.9922 31.4556C41.0208 31.4591 41.0656 31.4627 41.1265 31.4663C41.1909 31.4735 41.2357 31.4771 41.2607 31.4771C41.4863 31.4771 41.6779 31.4466 41.8354 31.3857C41.993 31.3285 42.1255 31.23 42.2329 31.0903C42.3439 30.9543 42.4388 30.7663 42.5176 30.5264L42.9312 29.3984ZM41.7441 24.1885L43.2534 28.7002L43.5112 29.7476L42.7969 30.1128L40.6592 24.1885H41.7441ZM46.1592 27.1587V27.0352C46.1592 26.6162 46.2201 26.2277 46.3418 25.8696C46.4635 25.508 46.639 25.1947 46.8682 24.9297C47.0973 24.6611 47.3748 24.4535 47.7007 24.3066C48.0265 24.1562 48.3918 24.0811 48.7964 24.0811C49.2046 24.0811 49.5716 24.1562 49.8975 24.3066C50.2269 24.4535 50.5062 24.6611 50.7354 24.9297C50.9681 25.1947 51.1453 25.508 51.2671 25.8696C51.3888 26.2277 51.4497 26.6162 51.4497 27.0352V27.1587C51.4497 27.5776 51.3888 27.9661 51.2671 28.3242C51.1453 28.6823 50.9681 28.9956 50.7354 29.2642C50.5062 29.5291 50.2287 29.7368 49.9028 29.8872C49.5806 30.034 49.2153 30.1074 48.8071 30.1074C48.3989 30.1074 48.0319 30.034 47.7061 29.8872C47.3802 29.7368 47.1009 29.5291 46.8682 29.2642C46.639 28.9956 46.4635 28.6823 46.3418 28.3242C46.2201 27.9661 46.1592 27.5776 46.1592 27.1587ZM47.1528 27.0352V27.1587C47.1528 27.4487 47.1868 27.7227 47.2549 27.9805C47.3229 28.2347 47.425 28.4603 47.561 28.6572C47.7007 28.8542 47.8743 29.0099 48.082 29.1245C48.2897 29.2355 48.5314 29.291 48.8071 29.291C49.0793 29.291 49.3174 29.2355 49.5215 29.1245C49.7292 29.0099 49.901 28.8542 50.0371 28.6572C50.1732 28.4603 50.2752 28.2347 50.3433 27.9805C50.4149 27.7227 50.4507 27.4487 50.4507 27.1587V27.0352C50.4507 26.7487 50.4149 26.4784 50.3433 26.2241C50.2752 25.9663 50.1714 25.7389 50.0317 25.542C49.8957 25.3415 49.7238 25.1839 49.5161 25.0693C49.312 24.9548 49.0721 24.8975 48.7964 24.8975C48.5243 24.8975 48.2843 24.9548 48.0767 25.0693C47.8726 25.1839 47.7007 25.3415 47.561 25.542C47.425 25.7389 47.3229 25.9663 47.2549 26.2241C47.1868 26.4784 47.1528 26.7487 47.1528 27.0352ZM56.2515 28.6572V24.1885H57.2505V30H56.2998L56.2515 28.6572ZM56.4395 27.4326L56.853 27.4219C56.853 27.8086 56.8118 28.1667 56.7295 28.4961C56.6507 28.8219 56.5218 29.1048 56.3428 29.3447C56.1637 29.5846 55.9292 29.7726 55.6392 29.9087C55.3491 30.0412 54.9964 30.1074 54.5811 30.1074C54.2982 30.1074 54.0386 30.0662 53.8022 29.9839C53.5695 29.9015 53.369 29.7744 53.2007 29.6025C53.0324 29.4307 52.9017 29.2069 52.8086 28.9312C52.7191 28.6554 52.6743 28.3242 52.6743 27.9375V24.1885H53.668V27.9482C53.668 28.2096 53.6966 28.4263 53.7539 28.5981C53.8148 28.7664 53.8953 28.9007 53.9956 29.001C54.0994 29.0977 54.214 29.1657 54.3394 29.2051C54.4683 29.2445 54.6007 29.2642 54.7368 29.2642C55.1593 29.2642 55.4941 29.1836 55.7412 29.0225C55.9883 28.8577 56.1655 28.6375 56.2729 28.3618C56.384 28.0825 56.4395 27.7728 56.4395 27.4326Z" fill="#8E8E8E"/>
<defs>
<clipPath id="clip0_1_421">
<rect width="64.0781" height="18" fill="white"/>
</clipPath>
</defs>
</svg>
