<svg width="224" height="34" viewBox="0 0 224 34" fill="none" xmlns="http://www.w3.org/2000/svg">
<g clip-path="url(#clip0_1_373)">
<path d="M2.72754 5.60352V13H0.916016V5.60352H2.72754ZM0.792969 3.66895C0.792969 3.40007 0.884115 3.17676 1.06641 2.99902C1.25326 2.82129 1.50391 2.73242 1.81836 2.73242C2.13281 2.73242 2.38118 2.82129 2.56348 2.99902C2.75033 3.17676 2.84375 3.40007 2.84375 3.66895C2.84375 3.93327 2.75033 4.1543 2.56348 4.33203C2.38118 4.50977 2.13281 4.59863 1.81836 4.59863C1.50391 4.59863 1.25326 4.50977 1.06641 4.33203C0.884115 4.1543 0.792969 3.93327 0.792969 3.66895ZM6.24805 7.12109V13H4.44336V5.60352H6.14551L6.24805 7.12109ZM5.98145 9.03516H5.42773C5.42773 8.52018 5.48926 8.04622 5.6123 7.61328C5.73991 7.18034 5.92676 6.80436 6.17285 6.48535C6.41895 6.16178 6.72201 5.91113 7.08203 5.7334C7.44661 5.55566 7.86816 5.4668 8.34668 5.4668C8.67936 5.4668 8.9847 5.51693 9.2627 5.61719C9.54069 5.71289 9.77995 5.86556 9.98047 6.0752C10.1855 6.28027 10.3428 6.54915 10.4521 6.88184C10.5615 7.20996 10.6162 7.60417 10.6162 8.06445V13H8.81152V8.24902C8.81152 7.90267 8.76139 7.63151 8.66113 7.43555C8.56543 7.23958 8.42643 7.10286 8.24414 7.02539C8.06185 6.94336 7.8431 6.90234 7.58789 6.90234C7.30534 6.90234 7.06152 6.95931 6.85645 7.07324C6.65592 7.18262 6.48958 7.33529 6.35742 7.53125C6.22982 7.72721 6.13411 7.9528 6.07031 8.20801C6.01107 8.46322 5.98145 8.73893 5.98145 9.03516ZM10.4795 8.7002L9.73438 8.83691C9.73893 8.37207 9.80273 7.93685 9.92578 7.53125C10.0488 7.12109 10.2288 6.76335 10.4658 6.45801C10.7074 6.14811 11.0059 5.90658 11.3613 5.7334C11.7214 5.55566 12.1361 5.4668 12.6055 5.4668C12.9701 5.4668 13.2982 5.51921 13.5898 5.62402C13.8861 5.72428 14.139 5.88607 14.3486 6.10938C14.5583 6.32812 14.7178 6.61296 14.8271 6.96387C14.9411 7.31478 14.998 7.74316 14.998 8.24902V13H13.1797V8.24219C13.1797 7.88216 13.1296 7.60645 13.0293 7.41504C12.9336 7.22363 12.7946 7.09147 12.6123 7.01855C12.43 6.94108 12.2158 6.90234 11.9697 6.90234C11.7191 6.90234 11.5003 6.9502 11.3135 7.0459C11.1312 7.13704 10.9762 7.26465 10.8486 7.42871C10.7256 7.59277 10.6322 7.78418 10.5684 8.00293C10.5091 8.21712 10.4795 8.44954 10.4795 8.7002ZM18.4229 2.49316V13H16.6182V2.49316H18.4229ZM23.0576 5.60352L19.8379 9.21973L18.0947 10.9902L17.5205 9.58887L18.8672 7.89355L20.877 5.60352H23.0576ZM21.2119 13L18.9219 9.55469L20.125 8.38574L23.3037 13H21.2119ZM25.9287 5.60352V13H24.1172V5.60352H25.9287ZM23.9941 3.66895C23.9941 3.40007 24.0853 3.17676 24.2676 2.99902C24.4544 2.82129 24.7051 2.73242 25.0195 2.73242C25.334 2.73242 25.5824 2.82129 25.7646 2.99902C25.9515 3.17676 26.0449 3.40007 26.0449 3.66895C26.0449 3.93327 25.9515 4.1543 25.7646 4.33203C25.5824 4.50977 25.334 4.59863 25.0195 4.59863C24.7051 4.59863 24.4544 4.50977 24.2676 4.33203C24.0853 4.1543 23.9941 3.93327 23.9941 3.66895ZM29.4561 7.11426V13H27.6514V5.60352H29.3604L29.4561 7.11426ZM31.7051 5.55566L31.6777 7.2373C31.5775 7.21908 31.4635 7.2054 31.3359 7.19629C31.2129 7.18717 31.0967 7.18262 30.9873 7.18262C30.7093 7.18262 30.4655 7.22135 30.2559 7.29883C30.0462 7.37174 29.8708 7.47884 29.7295 7.62012C29.5928 7.76139 29.488 7.93457 29.415 8.13965C29.3421 8.34017 29.3011 8.56803 29.292 8.82324L28.9023 8.77539C28.9023 8.30599 28.9502 7.87077 29.0459 7.46973C29.1416 7.06868 29.2806 6.71777 29.4629 6.41699C29.6452 6.11621 29.873 5.88379 30.1465 5.71973C30.4245 5.55111 30.7435 5.4668 31.1035 5.4668C31.2038 5.4668 31.3109 5.47591 31.4248 5.49414C31.5433 5.50781 31.6367 5.52832 31.7051 5.55566Z" fill="#262626"/>
</g>
<path d="M1.94434 22.1797V30H0.907715V22.1797H1.94434ZM5.2207 25.6978V26.5464H1.71875V25.6978H5.2207ZM5.75244 22.1797V23.0283H1.71875V22.1797H5.75244ZM6.45605 27.1587V27.0352C6.45605 26.6162 6.51693 26.2277 6.63867 25.8696C6.76042 25.508 6.93587 25.1947 7.16504 24.9297C7.39421 24.6611 7.67171 24.4535 7.99756 24.3066C8.3234 24.1562 8.68864 24.0811 9.09326 24.0811C9.50146 24.0811 9.86849 24.1562 10.1943 24.3066C10.5238 24.4535 10.8031 24.6611 11.0322 24.9297C11.265 25.1947 11.4422 25.508 11.564 25.8696C11.6857 26.2277 11.7466 26.6162 11.7466 27.0352V27.1587C11.7466 27.5776 11.6857 27.9661 11.564 28.3242C11.4422 28.6823 11.265 28.9956 11.0322 29.2642C10.8031 29.5291 10.5256 29.7368 10.1997 29.8872C9.87744 30.034 9.51221 30.1074 9.104 30.1074C8.6958 30.1074 8.32878 30.034 8.00293 29.8872C7.67708 29.7368 7.39779 29.5291 7.16504 29.2642C6.93587 28.9956 6.76042 28.6823 6.63867 28.3242C6.51693 27.9661 6.45605 27.5776 6.45605 27.1587ZM7.44971 27.0352V27.1587C7.44971 27.4487 7.48372 27.7227 7.55176 27.9805C7.61979 28.2347 7.72184 28.4603 7.85791 28.6572C7.99756 28.8542 8.17122 29.0099 8.37891 29.1245C8.58659 29.2355 8.82829 29.291 9.104 29.291C9.37614 29.291 9.61426 29.2355 9.81836 29.1245C10.026 29.0099 10.1979 28.8542 10.334 28.6572C10.4701 28.4603 10.5721 28.2347 10.6401 27.9805C10.7118 27.7227 10.7476 27.4487 10.7476 27.1587V27.0352C10.7476 26.7487 10.7118 26.4784 10.6401 26.2241C10.5721 25.9663 10.4683 25.7389 10.3286 25.542C10.1925 25.3415 10.0207 25.1839 9.81299 25.0693C9.60889 24.9548 9.36898 24.8975 9.09326 24.8975C8.82113 24.8975 8.58122 24.9548 8.37354 25.0693C8.16943 25.1839 7.99756 25.3415 7.85791 25.542C7.72184 25.7389 7.61979 25.9663 7.55176 26.2241C7.48372 26.4784 7.44971 26.7487 7.44971 27.0352ZM14.0723 21.75V30H13.0732V21.75H14.0723ZM16.7471 21.75V30H15.748V21.75H16.7471ZM18.0791 27.1587V27.0352C18.0791 26.6162 18.14 26.2277 18.2617 25.8696C18.3835 25.508 18.5589 25.1947 18.7881 24.9297C19.0173 24.6611 19.2948 24.4535 19.6206 24.3066C19.9465 24.1562 20.3117 24.0811 20.7163 24.0811C21.1245 24.0811 21.4915 24.1562 21.8174 24.3066C22.1468 24.4535 22.4261 24.6611 22.6553 24.9297C22.888 25.1947 23.0653 25.508 23.187 25.8696C23.3088 26.2277 23.3696 26.6162 23.3696 27.0352V27.1587C23.3696 27.5776 23.3088 27.9661 23.187 28.3242C23.0653 28.6823 22.888 28.9956 22.6553 29.2642C22.4261 29.5291 22.1486 29.7368 21.8228 29.8872C21.5005 30.034 21.1353 30.1074 20.7271 30.1074C20.3188 30.1074 19.9518 30.034 19.626 29.8872C19.3001 29.7368 19.0208 29.5291 18.7881 29.2642C18.5589 28.9956 18.3835 28.6823 18.2617 28.3242C18.14 27.9661 18.0791 27.5776 18.0791 27.1587ZM19.0728 27.0352V27.1587C19.0728 27.4487 19.1068 27.7227 19.1748 27.9805C19.2428 28.2347 19.3449 28.4603 19.481 28.6572C19.6206 28.8542 19.7943 29.0099 20.002 29.1245C20.2096 29.2355 20.4513 29.291 20.7271 29.291C20.9992 29.291 21.2373 29.2355 21.4414 29.1245C21.6491 29.0099 21.821 28.8542 21.957 28.6572C22.0931 28.4603 22.1951 28.2347 22.2632 27.9805C22.3348 27.7227 22.3706 27.4487 22.3706 27.1587V27.0352C22.3706 26.7487 22.3348 26.4784 22.2632 26.2241C22.1951 25.9663 22.0913 25.7389 21.9517 25.542C21.8156 25.3415 21.6437 25.1839 21.436 25.0693C21.2319 24.9548 20.992 24.8975 20.7163 24.8975C20.4442 24.8975 20.2043 24.9548 19.9966 25.0693C19.7925 25.1839 19.6206 25.3415 19.481 25.542C19.3449 25.7389 19.2428 25.9663 19.1748 26.2241C19.1068 26.4784 19.0728 26.7487 19.0728 27.0352ZM26.0874 28.9688L27.5806 24.1885H28.2358L28.1069 25.1392L26.5869 30H25.9478L26.0874 28.9688ZM25.083 24.1885L26.356 29.0225L26.4473 30H25.7759L24.0894 24.1885H25.083ZM29.6646 28.9849L30.8784 24.1885H31.8667L30.1802 30H29.5142L29.6646 28.9849ZM28.3809 24.1885L29.8418 28.8882L30.0083 30H29.3745L27.8115 25.1284L27.6826 24.1885H28.3809ZM36.271 28.4585C36.271 28.3153 36.2388 28.1828 36.1743 28.061C36.1134 27.9357 35.9863 27.8229 35.793 27.7227C35.6032 27.6188 35.3167 27.5293 34.9336 27.4541C34.6113 27.3861 34.3195 27.3055 34.0581 27.2124C33.8003 27.1193 33.5801 27.0065 33.3975 26.874C33.2184 26.7415 33.0806 26.5858 32.9839 26.4067C32.8872 26.2277 32.8389 26.0182 32.8389 25.7783C32.8389 25.5492 32.889 25.3325 32.9893 25.1284C33.0931 24.9243 33.2381 24.7435 33.4243 24.5859C33.6141 24.4284 33.8415 24.3049 34.1064 24.2153C34.3714 24.1258 34.6668 24.0811 34.9927 24.0811C35.4582 24.0811 35.8556 24.1634 36.1851 24.3281C36.5145 24.4928 36.7669 24.7131 36.9424 24.9888C37.1178 25.2609 37.2056 25.5635 37.2056 25.8965H36.2119C36.2119 25.7354 36.1636 25.5796 36.0669 25.4292C35.9738 25.2752 35.8359 25.1481 35.6533 25.0479C35.4743 24.9476 35.2541 24.8975 34.9927 24.8975C34.717 24.8975 34.4932 24.9404 34.3213 25.0264C34.153 25.1087 34.0295 25.2144 33.9507 25.3433C33.8755 25.4722 33.8379 25.6082 33.8379 25.7515C33.8379 25.8589 33.8558 25.9556 33.8916 26.0415C33.931 26.1239 33.999 26.2008 34.0957 26.2725C34.1924 26.3405 34.3285 26.4049 34.5039 26.4658C34.6794 26.5267 34.9032 26.5876 35.1753 26.6484C35.6515 26.7559 36.0436 26.8848 36.3516 27.0352C36.6595 27.1855 36.8887 27.37 37.0391 27.5884C37.1895 27.8068 37.2646 28.0718 37.2646 28.3833C37.2646 28.6375 37.2109 28.8703 37.1035 29.0815C36.9997 29.2928 36.8475 29.4754 36.647 29.6294C36.45 29.7798 36.2137 29.8979 35.938 29.9839C35.6659 30.0662 35.3597 30.1074 35.0195 30.1074C34.5075 30.1074 34.0742 30.0161 33.7197 29.8335C33.3652 29.6509 33.0967 29.4146 32.9141 29.1245C32.7314 28.8345 32.6401 28.5283 32.6401 28.2061H33.6392C33.6535 28.4782 33.7323 28.6948 33.8755 28.856C34.0187 29.0135 34.1942 29.1263 34.4019 29.1943C34.6095 29.2588 34.8154 29.291 35.0195 29.291C35.2917 29.291 35.519 29.2552 35.7017 29.1836C35.8879 29.112 36.0293 29.0135 36.126 28.8882C36.2227 28.7629 36.271 28.6196 36.271 28.4585ZM42.9312 29.3984L44.5479 24.1885H45.6113L43.2803 30.897C43.2266 31.0402 43.1549 31.1942 43.0654 31.3589C42.9795 31.5272 42.8685 31.6865 42.7324 31.8369C42.5964 31.9873 42.4316 32.109 42.2383 32.2021C42.0485 32.2988 41.8211 32.3472 41.5562 32.3472C41.4774 32.3472 41.3771 32.3364 41.2554 32.3149C41.1336 32.2935 41.0477 32.2756 40.9976 32.2612L40.9922 31.4556C41.0208 31.4591 41.0656 31.4627 41.1265 31.4663C41.1909 31.4735 41.2357 31.4771 41.2607 31.4771C41.4863 31.4771 41.6779 31.4466 41.8354 31.3857C41.993 31.3285 42.1255 31.23 42.2329 31.0903C42.3439 30.9543 42.4388 30.7663 42.5176 30.5264L42.9312 29.3984ZM41.7441 24.1885L43.2534 28.7002L43.5112 29.7476L42.7969 30.1128L40.6592 24.1885H41.7441ZM46.1592 27.1587V27.0352C46.1592 26.6162 46.2201 26.2277 46.3418 25.8696C46.4635 25.508 46.639 25.1947 46.8682 24.9297C47.0973 24.6611 47.3748 24.4535 47.7007 24.3066C48.0265 24.1562 48.3918 24.0811 48.7964 24.0811C49.2046 24.0811 49.5716 24.1562 49.8975 24.3066C50.2269 24.4535 50.5062 24.6611 50.7354 24.9297C50.9681 25.1947 51.1453 25.508 51.2671 25.8696C51.3888 26.2277 51.4497 26.6162 51.4497 27.0352V27.1587C51.4497 27.5776 51.3888 27.9661 51.2671 28.3242C51.1453 28.6823 50.9681 28.9956 50.7354 29.2642C50.5062 29.5291 50.2287 29.7368 49.9028 29.8872C49.5806 30.034 49.2153 30.1074 48.8071 30.1074C48.3989 30.1074 48.0319 30.034 47.7061 29.8872C47.3802 29.7368 47.1009 29.5291 46.8682 29.2642C46.639 28.9956 46.4635 28.6823 46.3418 28.3242C46.2201 27.9661 46.1592 27.5776 46.1592 27.1587ZM47.1528 27.0352V27.1587C47.1528 27.4487 47.1868 27.7227 47.2549 27.9805C47.3229 28.2347 47.425 28.4603 47.561 28.6572C47.7007 28.8542 47.8743 29.0099 48.082 29.1245C48.2897 29.2355 48.5314 29.291 48.8071 29.291C49.0793 29.291 49.3174 29.2355 49.5215 29.1245C49.7292 29.0099 49.901 28.8542 50.0371 28.6572C50.1732 28.4603 50.2752 28.2347 50.3433 27.9805C50.4149 27.7227 50.4507 27.4487 50.4507 27.1587V27.0352C50.4507 26.7487 50.4149 26.4784 50.3433 26.2241C50.2752 25.9663 50.1714 25.7389 50.0317 25.542C49.8957 25.3415 49.7238 25.1839 49.5161 25.0693C49.312 24.9548 49.0721 24.8975 48.7964 24.8975C48.5243 24.8975 48.2843 24.9548 48.0767 25.0693C47.8726 25.1839 47.7007 25.3415 47.561 25.542C47.425 25.7389 47.3229 25.9663 47.2549 26.2241C47.1868 26.4784 47.1528 26.7487 47.1528 27.0352ZM56.2515 28.6572V24.1885H57.2505V30H56.2998L56.2515 28.6572ZM56.4395 27.4326L56.853 27.4219C56.853 27.8086 56.8118 28.1667 56.7295 28.4961C56.6507 28.8219 56.5218 29.1048 56.3428 29.3447C56.1637 29.5846 55.9292 29.7726 55.6392 29.9087C55.3491 30.0412 54.9964 30.1074 54.5811 30.1074C54.2982 30.1074 54.0386 30.0662 53.8022 29.9839C53.5695 29.9015 53.369 29.7744 53.2007 29.6025C53.0324 29.4307 52.9017 29.2069 52.8086 28.9312C52.7191 28.6554 52.6743 28.3242 52.6743 27.9375V24.1885H53.668V27.9482C53.668 28.2096 53.6966 28.4263 53.7539 28.5981C53.8148 28.7664 53.8953 28.9007 53.9956 29.001C54.0994 29.0977 54.214 29.1657 54.3394 29.2051C54.4683 29.2445 54.6007 29.2642 54.7368 29.2642C55.1593 29.2642 55.4941 29.1836 55.7412 29.0225C55.9883 28.8577 56.1655 28.6375 56.2729 28.3618C56.384 28.0825 56.4395 27.7728 56.4395 27.4326Z" fill="#8E8E8E"/>
<defs>
<clipPath id="clip0_1_373">
<rect width="87.2969" height="18" fill="white"/>
</clipPath>
</defs>
</svg>
