<svg width="224" height="34" viewBox="0 0 224 34" fill="none" xmlns="http://www.w3.org/2000/svg">
<g clip-path="url(#clip0_1_409)">
<path d="M4.53857 11.54V8.37256C4.53857 8.13981 4.49837 7.9388 4.41797 7.76953C4.33757 7.60026 4.21484 7.46908 4.0498 7.37598C3.88477 7.28288 3.67529 7.23633 3.42139 7.23633C3.1971 7.23633 3.00033 7.27441 2.83105 7.35059C2.66602 7.42676 2.53906 7.53467 2.4502 7.67432C2.36133 7.80973 2.31689 7.96631 2.31689 8.14404H0.634766C0.634766 7.86051 0.702474 7.5918 0.837891 7.33789C0.973307 7.07975 1.16585 6.85124 1.41553 6.65234C1.66943 6.44922 1.97201 6.29053 2.32324 6.17627C2.67871 6.06201 3.0765 6.00488 3.5166 6.00488C4.03711 6.00488 4.50049 6.09375 4.90674 6.27148C5.31722 6.44499 5.63883 6.70736 5.87158 7.05859C6.10856 7.40983 6.22705 7.85205 6.22705 8.38525V11.3813C6.22705 11.7241 6.24821 12.0182 6.29053 12.2637C6.33708 12.5049 6.40479 12.7144 6.49365 12.8921V13H4.78613C4.70573 12.8265 4.64437 12.6064 4.60205 12.3398C4.55973 12.069 4.53857 11.8024 4.53857 11.54ZM4.77344 8.81689L4.78613 9.81348H3.72607C3.4637 9.81348 3.23307 9.84098 3.03418 9.896C2.83529 9.94678 2.67236 10.0229 2.54541 10.1245C2.41846 10.2218 2.32324 10.3403 2.25977 10.48C2.19629 10.6154 2.16455 10.7699 2.16455 10.9434C2.16455 11.1126 2.20264 11.265 2.27881 11.4004C2.35921 11.5358 2.47347 11.6437 2.62158 11.7241C2.77393 11.8003 2.95166 11.8384 3.15479 11.8384C3.45101 11.8384 3.70915 11.7791 3.9292 11.6606C4.14925 11.5379 4.32064 11.3898 4.44336 11.2163C4.56608 11.0428 4.63167 10.8778 4.64014 10.7212L5.12256 11.4448C5.06331 11.6183 4.97445 11.8024 4.85596 11.9971C4.73747 12.1917 4.58512 12.3737 4.39893 12.543C4.21273 12.7122 3.98844 12.8519 3.72607 12.9619C3.4637 13.0719 3.15902 13.127 2.81201 13.127C2.36768 13.127 1.96989 13.0381 1.61865 12.8604C1.26742 12.6826 0.990234 12.4393 0.787109 12.1304C0.583984 11.8215 0.482422 11.4702 0.482422 11.0767C0.482422 10.7127 0.55013 10.3911 0.685547 10.1118C0.820964 9.83252 1.02197 9.59766 1.28857 9.40723C1.55518 9.21257 1.88525 9.06657 2.27881 8.96924C2.6766 8.86768 3.13151 8.81689 3.64355 8.81689H4.77344ZM7.73145 3.25H9.41357V11.4829L9.24854 13H7.73145V3.25ZM13.8315 9.49609V9.62939C13.8315 10.1414 13.7744 10.6112 13.6602 11.0386C13.5501 11.466 13.383 11.8363 13.1587 12.1494C12.9344 12.4583 12.6551 12.6995 12.3208 12.873C11.9907 13.0423 11.6035 13.127 11.1592 13.127C10.736 13.127 10.3678 13.0444 10.0547 12.8794C9.74577 12.7144 9.48551 12.4816 9.27393 12.1812C9.06234 11.8765 8.89307 11.5189 8.76611 11.1084C8.63916 10.6937 8.54395 10.2409 8.48047 9.75V9.38818C8.54395 8.89307 8.63916 8.44027 8.76611 8.02979C8.89307 7.6193 9.06234 7.26172 9.27393 6.95703C9.48551 6.65234 9.74577 6.41748 10.0547 6.25244C10.3636 6.0874 10.7275 6.00488 11.1465 6.00488C11.5951 6.00488 11.9865 6.09163 12.3208 6.26514C12.6593 6.43441 12.9386 6.67562 13.1587 6.98877C13.383 7.29769 13.5501 7.66585 13.6602 8.09326C13.7744 8.51644 13.8315 8.98405 13.8315 9.49609ZM12.1494 9.62939V9.49609C12.1494 9.2041 12.1261 8.92904 12.0796 8.6709C12.033 8.40853 11.9569 8.1779 11.8511 7.979C11.7453 7.78011 11.6014 7.62354 11.4194 7.50928C11.2375 7.39502 11.009 7.33789 10.7339 7.33789C10.4715 7.33789 10.2472 7.38232 10.061 7.47119C9.87907 7.56006 9.72673 7.68278 9.604 7.83936C9.48551 7.99593 9.39242 8.18001 9.32471 8.3916C9.26123 8.60319 9.21891 8.83171 9.19775 9.07715V10.0674C9.22738 10.3932 9.2972 10.6873 9.40723 10.9497C9.51725 11.2078 9.68018 11.4131 9.896 11.5654C10.116 11.7178 10.3996 11.7939 10.7466 11.7939C11.0174 11.7939 11.2438 11.741 11.4258 11.6353C11.6077 11.5252 11.7516 11.3729 11.8574 11.1782C11.9632 10.9793 12.0373 10.7487 12.0796 10.4863C12.1261 10.224 12.1494 9.93831 12.1494 9.62939ZM16.6943 3.25V13H15.0122V3.25H16.6943ZM16.4277 9.31836H15.9326C15.9326 8.84017 15.9961 8.40007 16.123 7.99805C16.25 7.59603 16.4299 7.24691 16.6626 6.95068C16.8953 6.65023 17.1725 6.41748 17.4941 6.25244C17.82 6.0874 18.1797 6.00488 18.5732 6.00488C18.9118 6.00488 19.2186 6.05355 19.4937 6.15088C19.7729 6.24398 20.012 6.39421 20.2109 6.60156C20.4098 6.80892 20.5622 7.07975 20.668 7.41406C20.778 7.74414 20.833 8.14616 20.833 8.62012V13H19.1445V8.60742C19.1445 8.29004 19.098 8.04036 19.0049 7.8584C18.9118 7.6722 18.7785 7.5389 18.605 7.4585C18.4357 7.37809 18.2262 7.33789 17.9766 7.33789C17.7057 7.33789 17.473 7.39079 17.2783 7.49658C17.0837 7.59814 16.9229 7.73991 16.7959 7.92188C16.6732 8.10384 16.5801 8.31331 16.5166 8.55029C16.4574 8.78727 16.4277 9.04329 16.4277 9.31836ZM23.4863 11.6987H23.6069C24.1528 11.6987 24.6141 11.6289 24.9907 11.4893C25.3716 11.3496 25.6784 11.1528 25.9111 10.8989C26.1481 10.6408 26.3195 10.334 26.4253 9.97852C26.5353 9.61882 26.5903 9.22103 26.5903 8.78516V7.10938C26.5903 6.75391 26.5544 6.44287 26.4824 6.17627C26.4105 5.90544 26.3089 5.67904 26.1777 5.49707C26.0508 5.3151 25.9006 5.17969 25.7271 5.09082C25.5535 4.99772 25.3674 4.95117 25.1685 4.95117C24.9484 4.95117 24.7537 5.00195 24.5845 5.10352C24.4152 5.20508 24.2713 5.34473 24.1528 5.52246C24.0386 5.69596 23.9497 5.89697 23.8862 6.12549C23.827 6.354 23.7974 6.59521 23.7974 6.84912C23.7974 7.09456 23.8249 7.32943 23.8799 7.55371C23.9391 7.77799 24.0259 7.97689 24.1401 8.15039C24.2586 8.32389 24.4067 8.46143 24.5845 8.56299C24.7622 8.66032 24.9696 8.70898 25.2065 8.70898C25.4308 8.70898 25.634 8.66667 25.8159 8.58203C26.0021 8.49316 26.1629 8.37679 26.2983 8.23291C26.4338 8.0848 26.5374 7.92188 26.6094 7.74414C26.6855 7.56217 26.7279 7.37809 26.7363 7.19189L27.3267 7.4458C27.3267 7.75472 27.2611 8.05941 27.1299 8.35986C27.0029 8.66032 26.8231 8.93327 26.5903 9.17871C26.3618 9.41992 26.0952 9.61458 25.7905 9.7627C25.4858 9.90658 25.1579 9.97852 24.8066 9.97852C24.3708 9.97852 23.9857 9.89811 23.6514 9.7373C23.3171 9.5765 23.0356 9.35433 22.8071 9.0708C22.5828 8.78304 22.4136 8.45296 22.2993 8.08057C22.1851 7.70394 22.1279 7.30192 22.1279 6.87451C22.1279 6.43018 22.1978 6.01335 22.3374 5.62402C22.4771 5.23047 22.6781 4.88558 22.9404 4.58936C23.207 4.2889 23.5286 4.05404 23.9053 3.88477C24.2819 3.71126 24.7051 3.62451 25.1748 3.62451C25.6615 3.62451 26.0952 3.71973 26.4761 3.91016C26.8569 4.10059 27.1807 4.36507 27.4473 4.70361C27.7139 5.03792 27.917 5.43359 28.0566 5.89062C28.2005 6.34766 28.2725 6.84701 28.2725 7.38867V7.979C28.2725 8.55029 28.2153 9.09196 28.1011 9.604C27.9868 10.116 27.8112 10.5837 27.5742 11.0068C27.3372 11.43 27.0347 11.7961 26.6665 12.105C26.3026 12.4139 25.8667 12.653 25.3589 12.8223C24.8553 12.9873 24.2798 13.0698 23.6323 13.0698H23.4863V11.6987ZM31.313 8.74707L29.9736 8.42334L30.4878 3.75781H35.5723V5.14795H31.8779L31.6367 7.30615C31.7679 7.22575 31.9583 7.14535 32.208 7.06494C32.4619 6.98031 32.7476 6.93799 33.0649 6.93799C33.505 6.93799 33.8986 7.00993 34.2456 7.15381C34.5926 7.29346 34.8867 7.49658 35.1279 7.76318C35.3734 8.02979 35.5575 8.35563 35.6802 8.74072C35.8071 9.12158 35.8706 9.55322 35.8706 10.0356C35.8706 10.4588 35.8071 10.8566 35.6802 11.229C35.5575 11.5972 35.3691 11.9251 35.1152 12.2129C34.8613 12.4964 34.5418 12.7207 34.1567 12.8857C33.7716 13.0465 33.3188 13.127 32.7983 13.127C32.4048 13.127 32.026 13.0698 31.6621 12.9556C31.3024 12.8371 30.9787 12.6657 30.6909 12.4414C30.4032 12.2129 30.1725 11.9336 29.999 11.6035C29.8298 11.2734 29.7367 10.8947 29.7197 10.4673H31.3765C31.4061 10.7508 31.4823 10.992 31.605 11.1909C31.7277 11.3898 31.8885 11.5422 32.0874 11.6479C32.2905 11.7537 32.5254 11.8066 32.792 11.8066C33.0332 11.8066 33.2406 11.7622 33.4141 11.6733C33.5918 11.5802 33.7378 11.4512 33.8521 11.2861C33.9663 11.1211 34.0509 10.9264 34.106 10.7021C34.161 10.4779 34.1885 10.2324 34.1885 9.96582C34.1885 9.70768 34.1567 9.47282 34.0933 9.26123C34.0298 9.04541 33.9325 8.85921 33.8013 8.70264C33.6701 8.54606 33.505 8.42546 33.3062 8.34082C33.1115 8.25618 32.883 8.21387 32.6206 8.21387C32.2694 8.21387 31.9985 8.26676 31.8081 8.37256C31.6219 8.47835 31.4569 8.60319 31.313 8.74707ZM43.3354 11.6797V13H37.0767V11.8701L40.0791 8.62646C40.3923 8.271 40.6398 7.96208 40.8218 7.69971C41.0037 7.43734 41.1328 7.20036 41.209 6.98877C41.2894 6.77295 41.3296 6.56771 41.3296 6.37305C41.3296 6.08952 41.2788 5.84196 41.1772 5.63037C41.0757 5.41455 40.9276 5.2474 40.7329 5.12891C40.5425 5.01042 40.3076 4.95117 40.0283 4.95117C39.7194 4.95117 39.4549 5.02311 39.2349 5.16699C39.019 5.30664 38.854 5.5013 38.7397 5.75098C38.6297 6.00065 38.5747 6.2863 38.5747 6.60791H36.8926C36.8926 6.06201 37.0195 5.56478 37.2734 5.11621C37.5273 4.66341 37.8913 4.3016 38.3652 4.03076C38.8392 3.75993 39.402 3.62451 40.0537 3.62451C40.6885 3.62451 41.2259 3.73031 41.666 3.94189C42.1061 4.14925 42.4404 4.44548 42.6689 4.83057C42.8975 5.21566 43.0117 5.6748 43.0117 6.20801C43.0117 6.50423 42.9631 6.79622 42.8657 7.08398C42.7684 7.37174 42.6309 7.65739 42.4531 7.94092C42.2796 8.22021 42.0723 8.50374 41.8311 8.7915C41.5898 9.07926 41.3211 9.37337 41.0249 9.67383L39.2222 11.6797H43.3354Z" fill="#262626"/>
</g>
<path d="M1.94434 22.1797V30H0.907715V22.1797H1.94434ZM5.2207 25.6978V26.5464H1.71875V25.6978H5.2207ZM5.75244 22.1797V23.0283H1.71875V22.1797H5.75244ZM6.45605 27.1587V27.0352C6.45605 26.6162 6.51693 26.2277 6.63867 25.8696C6.76042 25.508 6.93587 25.1947 7.16504 24.9297C7.39421 24.6611 7.67171 24.4535 7.99756 24.3066C8.3234 24.1562 8.68864 24.0811 9.09326 24.0811C9.50146 24.0811 9.86849 24.1562 10.1943 24.3066C10.5238 24.4535 10.8031 24.6611 11.0322 24.9297C11.265 25.1947 11.4422 25.508 11.564 25.8696C11.6857 26.2277 11.7466 26.6162 11.7466 27.0352V27.1587C11.7466 27.5776 11.6857 27.9661 11.564 28.3242C11.4422 28.6823 11.265 28.9956 11.0322 29.2642C10.8031 29.5291 10.5256 29.7368 10.1997 29.8872C9.87744 30.034 9.51221 30.1074 9.104 30.1074C8.6958 30.1074 8.32878 30.034 8.00293 29.8872C7.67708 29.7368 7.39779 29.5291 7.16504 29.2642C6.93587 28.9956 6.76042 28.6823 6.63867 28.3242C6.51693 27.9661 6.45605 27.5776 6.45605 27.1587ZM7.44971 27.0352V27.1587C7.44971 27.4487 7.48372 27.7227 7.55176 27.9805C7.61979 28.2347 7.72184 28.4603 7.85791 28.6572C7.99756 28.8542 8.17122 29.0099 8.37891 29.1245C8.58659 29.2355 8.82829 29.291 9.104 29.291C9.37614 29.291 9.61426 29.2355 9.81836 29.1245C10.026 29.0099 10.1979 28.8542 10.334 28.6572C10.4701 28.4603 10.5721 28.2347 10.6401 27.9805C10.7118 27.7227 10.7476 27.4487 10.7476 27.1587V27.0352C10.7476 26.7487 10.7118 26.4784 10.6401 26.2241C10.5721 25.9663 10.4683 25.7389 10.3286 25.542C10.1925 25.3415 10.0207 25.1839 9.81299 25.0693C9.60889 24.9548 9.36898 24.8975 9.09326 24.8975C8.82113 24.8975 8.58122 24.9548 8.37354 25.0693C8.16943 25.1839 7.99756 25.3415 7.85791 25.542C7.72184 25.7389 7.61979 25.9663 7.55176 26.2241C7.48372 26.4784 7.44971 26.7487 7.44971 27.0352ZM14.0723 21.75V30H13.0732V21.75H14.0723ZM16.7471 21.75V30H15.748V21.75H16.7471ZM18.0791 27.1587V27.0352C18.0791 26.6162 18.14 26.2277 18.2617 25.8696C18.3835 25.508 18.5589 25.1947 18.7881 24.9297C19.0173 24.6611 19.2948 24.4535 19.6206 24.3066C19.9465 24.1562 20.3117 24.0811 20.7163 24.0811C21.1245 24.0811 21.4915 24.1562 21.8174 24.3066C22.1468 24.4535 22.4261 24.6611 22.6553 24.9297C22.888 25.1947 23.0653 25.508 23.187 25.8696C23.3088 26.2277 23.3696 26.6162 23.3696 27.0352V27.1587C23.3696 27.5776 23.3088 27.9661 23.187 28.3242C23.0653 28.6823 22.888 28.9956 22.6553 29.2642C22.4261 29.5291 22.1486 29.7368 21.8228 29.8872C21.5005 30.034 21.1353 30.1074 20.7271 30.1074C20.3188 30.1074 19.9518 30.034 19.626 29.8872C19.3001 29.7368 19.0208 29.5291 18.7881 29.2642C18.5589 28.9956 18.3835 28.6823 18.2617 28.3242C18.14 27.9661 18.0791 27.5776 18.0791 27.1587ZM19.0728 27.0352V27.1587C19.0728 27.4487 19.1068 27.7227 19.1748 27.9805C19.2428 28.2347 19.3449 28.4603 19.481 28.6572C19.6206 28.8542 19.7943 29.0099 20.002 29.1245C20.2096 29.2355 20.4513 29.291 20.7271 29.291C20.9992 29.291 21.2373 29.2355 21.4414 29.1245C21.6491 29.0099 21.821 28.8542 21.957 28.6572C22.0931 28.4603 22.1951 28.2347 22.2632 27.9805C22.3348 27.7227 22.3706 27.4487 22.3706 27.1587V27.0352C22.3706 26.7487 22.3348 26.4784 22.2632 26.2241C22.1951 25.9663 22.0913 25.7389 21.9517 25.542C21.8156 25.3415 21.6437 25.1839 21.436 25.0693C21.2319 24.9548 20.992 24.8975 20.7163 24.8975C20.4442 24.8975 20.2043 24.9548 19.9966 25.0693C19.7925 25.1839 19.6206 25.3415 19.481 25.542C19.3449 25.7389 19.2428 25.9663 19.1748 26.2241C19.1068 26.4784 19.0728 26.7487 19.0728 27.0352ZM26.0874 28.9688L27.5806 24.1885H28.2358L28.1069 25.1392L26.5869 30H25.9478L26.0874 28.9688ZM25.083 24.1885L26.356 29.0225L26.4473 30H25.7759L24.0894 24.1885H25.083ZM29.6646 28.9849L30.8784 24.1885H31.8667L30.1802 30H29.5142L29.6646 28.9849ZM28.3809 24.1885L29.8418 28.8882L30.0083 30H29.3745L27.8115 25.1284L27.6826 24.1885H28.3809ZM36.271 28.4585C36.271 28.3153 36.2388 28.1828 36.1743 28.061C36.1134 27.9357 35.9863 27.8229 35.793 27.7227C35.6032 27.6188 35.3167 27.5293 34.9336 27.4541C34.6113 27.3861 34.3195 27.3055 34.0581 27.2124C33.8003 27.1193 33.5801 27.0065 33.3975 26.874C33.2184 26.7415 33.0806 26.5858 32.9839 26.4067C32.8872 26.2277 32.8389 26.0182 32.8389 25.7783C32.8389 25.5492 32.889 25.3325 32.9893 25.1284C33.0931 24.9243 33.2381 24.7435 33.4243 24.5859C33.6141 24.4284 33.8415 24.3049 34.1064 24.2153C34.3714 24.1258 34.6668 24.0811 34.9927 24.0811C35.4582 24.0811 35.8556 24.1634 36.1851 24.3281C36.5145 24.4928 36.7669 24.7131 36.9424 24.9888C37.1178 25.2609 37.2056 25.5635 37.2056 25.8965H36.2119C36.2119 25.7354 36.1636 25.5796 36.0669 25.4292C35.9738 25.2752 35.8359 25.1481 35.6533 25.0479C35.4743 24.9476 35.2541 24.8975 34.9927 24.8975C34.717 24.8975 34.4932 24.9404 34.3213 25.0264C34.153 25.1087 34.0295 25.2144 33.9507 25.3433C33.8755 25.4722 33.8379 25.6082 33.8379 25.7515C33.8379 25.8589 33.8558 25.9556 33.8916 26.0415C33.931 26.1239 33.999 26.2008 34.0957 26.2725C34.1924 26.3405 34.3285 26.4049 34.5039 26.4658C34.6794 26.5267 34.9032 26.5876 35.1753 26.6484C35.6515 26.7559 36.0436 26.8848 36.3516 27.0352C36.6595 27.1855 36.8887 27.37 37.0391 27.5884C37.1895 27.8068 37.2646 28.0718 37.2646 28.3833C37.2646 28.6375 37.2109 28.8703 37.1035 29.0815C36.9997 29.2928 36.8475 29.4754 36.647 29.6294C36.45 29.7798 36.2137 29.8979 35.938 29.9839C35.6659 30.0662 35.3597 30.1074 35.0195 30.1074C34.5075 30.1074 34.0742 30.0161 33.7197 29.8335C33.3652 29.6509 33.0967 29.4146 32.9141 29.1245C32.7314 28.8345 32.6401 28.5283 32.6401 28.2061H33.6392C33.6535 28.4782 33.7323 28.6948 33.8755 28.856C34.0187 29.0135 34.1942 29.1263 34.4019 29.1943C34.6095 29.2588 34.8154 29.291 35.0195 29.291C35.2917 29.291 35.519 29.2552 35.7017 29.1836C35.8879 29.112 36.0293 29.0135 36.126 28.8882C36.2227 28.7629 36.271 28.6196 36.271 28.4585ZM42.9312 29.3984L44.5479 24.1885H45.6113L43.2803 30.897C43.2266 31.0402 43.1549 31.1942 43.0654 31.3589C42.9795 31.5272 42.8685 31.6865 42.7324 31.8369C42.5964 31.9873 42.4316 32.109 42.2383 32.2021C42.0485 32.2988 41.8211 32.3472 41.5562 32.3472C41.4774 32.3472 41.3771 32.3364 41.2554 32.3149C41.1336 32.2935 41.0477 32.2756 40.9976 32.2612L40.9922 31.4556C41.0208 31.4591 41.0656 31.4627 41.1265 31.4663C41.1909 31.4735 41.2357 31.4771 41.2607 31.4771C41.4863 31.4771 41.6779 31.4466 41.8354 31.3857C41.993 31.3285 42.1255 31.23 42.2329 31.0903C42.3439 30.9543 42.4388 30.7663 42.5176 30.5264L42.9312 29.3984ZM41.7441 24.1885L43.2534 28.7002L43.5112 29.7476L42.7969 30.1128L40.6592 24.1885H41.7441ZM46.1592 27.1587V27.0352C46.1592 26.6162 46.2201 26.2277 46.3418 25.8696C46.4635 25.508 46.639 25.1947 46.8682 24.9297C47.0973 24.6611 47.3748 24.4535 47.7007 24.3066C48.0265 24.1562 48.3918 24.0811 48.7964 24.0811C49.2046 24.0811 49.5716 24.1562 49.8975 24.3066C50.2269 24.4535 50.5062 24.6611 50.7354 24.9297C50.9681 25.1947 51.1453 25.508 51.2671 25.8696C51.3888 26.2277 51.4497 26.6162 51.4497 27.0352V27.1587C51.4497 27.5776 51.3888 27.9661 51.2671 28.3242C51.1453 28.6823 50.9681 28.9956 50.7354 29.2642C50.5062 29.5291 50.2287 29.7368 49.9028 29.8872C49.5806 30.034 49.2153 30.1074 48.8071 30.1074C48.3989 30.1074 48.0319 30.034 47.7061 29.8872C47.3802 29.7368 47.1009 29.5291 46.8682 29.2642C46.639 28.9956 46.4635 28.6823 46.3418 28.3242C46.2201 27.9661 46.1592 27.5776 46.1592 27.1587ZM47.1528 27.0352V27.1587C47.1528 27.4487 47.1868 27.7227 47.2549 27.9805C47.3229 28.2347 47.425 28.4603 47.561 28.6572C47.7007 28.8542 47.8743 29.0099 48.082 29.1245C48.2897 29.2355 48.5314 29.291 48.8071 29.291C49.0793 29.291 49.3174 29.2355 49.5215 29.1245C49.7292 29.0099 49.901 28.8542 50.0371 28.6572C50.1732 28.4603 50.2752 28.2347 50.3433 27.9805C50.4149 27.7227 50.4507 27.4487 50.4507 27.1587V27.0352C50.4507 26.7487 50.4149 26.4784 50.3433 26.2241C50.2752 25.9663 50.1714 25.7389 50.0317 25.542C49.8957 25.3415 49.7238 25.1839 49.5161 25.0693C49.312 24.9548 49.0721 24.8975 48.7964 24.8975C48.5243 24.8975 48.2843 24.9548 48.0767 25.0693C47.8726 25.1839 47.7007 25.3415 47.561 25.542C47.425 25.7389 47.3229 25.9663 47.2549 26.2241C47.1868 26.4784 47.1528 26.7487 47.1528 27.0352ZM56.2515 28.6572V24.1885H57.2505V30H56.2998L56.2515 28.6572ZM56.4395 27.4326L56.853 27.4219C56.853 27.8086 56.8118 28.1667 56.7295 28.4961C56.6507 28.8219 56.5218 29.1048 56.3428 29.3447C56.1637 29.5846 55.9292 29.7726 55.6392 29.9087C55.3491 30.0412 54.9964 30.1074 54.5811 30.1074C54.2982 30.1074 54.0386 30.0662 53.8022 29.9839C53.5695 29.9015 53.369 29.7744 53.2007 29.6025C53.0324 29.4307 52.9017 29.2069 52.8086 28.9312C52.7191 28.6554 52.6743 28.3242 52.6743 27.9375V24.1885H53.668V27.9482C53.668 28.2096 53.6966 28.4263 53.7539 28.5981C53.8148 28.7664 53.8953 28.9007 53.9956 29.001C54.0994 29.0977 54.214 29.1657 54.3394 29.2051C54.4683 29.2445 54.6007 29.2642 54.7368 29.2642C55.1593 29.2642 55.4941 29.1836 55.7412 29.0225C55.9883 28.8577 56.1655 28.6375 56.2729 28.3618C56.384 28.0825 56.4395 27.7728 56.4395 27.4326Z" fill="#8E8E8E"/>
<defs>
<clipPath id="clip0_1_409">
<rect width="73.9531" height="18" fill="white"/>
</clipPath>
</defs>
</svg>
