<svg width="470" height="18" viewBox="0 0 470 18" fill="none" xmlns="http://www.w3.org/2000/svg">
<g clip-path="url(#clip0_1_126)">
<rect width="457" height="18" fill="white"/>
<path d="M4.83984 4.92871L1.54492 14H0.198242L3.99219 4.04688H4.86035L4.83984 4.92871ZM7.60156 14L4.2998 4.92871L4.2793 4.04688H5.14746L8.95508 14H7.60156ZM7.43066 10.3154V11.3955H1.83887V10.3154H7.43066ZM14.7588 12.5645V3.5H16.0303V14H14.8682L14.7588 12.5645ZM9.78223 10.3838V10.2402C9.78223 9.67513 9.85059 9.16243 9.9873 8.70215C10.1286 8.2373 10.3268 7.83854 10.582 7.50586C10.8418 7.17318 11.1494 6.91797 11.5049 6.74023C11.8649 6.55794 12.266 6.4668 12.708 6.4668C13.1729 6.4668 13.5785 6.54883 13.9248 6.71289C14.2757 6.8724 14.5719 7.1071 14.8135 7.41699C15.0596 7.72233 15.2533 8.09147 15.3945 8.52441C15.5358 8.95736 15.6338 9.44727 15.6885 9.99414V10.623C15.6383 11.1654 15.5404 11.653 15.3945 12.0859C15.2533 12.5189 15.0596 12.888 14.8135 13.1934C14.5719 13.4987 14.2757 13.7334 13.9248 13.8975C13.5739 14.057 13.1637 14.1367 12.6943 14.1367C12.2614 14.1367 11.8649 14.0433 11.5049 13.8564C11.1494 13.6696 10.8418 13.4076 10.582 13.0703C10.3268 12.7331 10.1286 12.3366 9.9873 11.8809C9.85059 11.4206 9.78223 10.9215 9.78223 10.3838ZM11.0537 10.2402V10.3838C11.0537 10.7529 11.0902 11.0993 11.1631 11.4229C11.2406 11.7464 11.359 12.0312 11.5186 12.2773C11.6781 12.5234 11.8809 12.7171 12.127 12.8584C12.373 12.9951 12.667 13.0635 13.0088 13.0635C13.4281 13.0635 13.7721 12.9746 14.041 12.7969C14.3145 12.6191 14.5332 12.3844 14.6973 12.0928C14.8613 11.8011 14.9889 11.4844 15.0801 11.1426V9.49512C15.0254 9.24447 14.9456 9.00293 14.8408 8.77051C14.7406 8.53353 14.6084 8.32389 14.4443 8.1416C14.2848 7.95475 14.0866 7.80664 13.8496 7.69727C13.6172 7.58789 13.3415 7.5332 13.0225 7.5332C12.6761 7.5332 12.3776 7.60612 12.127 7.75195C11.8809 7.89323 11.6781 8.08919 11.5186 8.33984C11.359 8.58594 11.2406 8.87305 11.1631 9.20117C11.0902 9.52474 11.0537 9.87109 11.0537 10.2402ZM22.6611 12.5645V3.5H23.9326V14H22.7705L22.6611 12.5645ZM17.6846 10.3838V10.2402C17.6846 9.67513 17.7529 9.16243 17.8896 8.70215C18.0309 8.2373 18.2292 7.83854 18.4844 7.50586C18.7441 7.17318 19.0518 6.91797 19.4072 6.74023C19.7673 6.55794 20.1683 6.4668 20.6104 6.4668C21.0752 6.4668 21.4808 6.54883 21.8271 6.71289C22.1781 6.8724 22.4743 7.1071 22.7158 7.41699C22.9619 7.72233 23.1556 8.09147 23.2969 8.52441C23.4382 8.95736 23.5361 9.44727 23.5908 9.99414V10.623C23.5407 11.1654 23.4427 11.653 23.2969 12.0859C23.1556 12.5189 22.9619 12.888 22.7158 13.1934C22.4743 13.4987 22.1781 13.7334 21.8271 13.8975C21.4762 14.057 21.0661 14.1367 20.5967 14.1367C20.1637 14.1367 19.7673 14.0433 19.4072 13.8564C19.0518 13.6696 18.7441 13.4076 18.4844 13.0703C18.2292 12.7331 18.0309 12.3366 17.8896 11.8809C17.7529 11.4206 17.6846 10.9215 17.6846 10.3838ZM18.9561 10.2402V10.3838C18.9561 10.7529 18.9925 11.0993 19.0654 11.4229C19.1429 11.7464 19.2614 12.0312 19.4209 12.2773C19.5804 12.5234 19.7832 12.7171 20.0293 12.8584C20.2754 12.9951 20.5693 13.0635 20.9111 13.0635C21.3304 13.0635 21.6745 12.9746 21.9434 12.7969C22.2168 12.6191 22.4355 12.3844 22.5996 12.0928C22.7637 11.8011 22.8913 11.4844 22.9824 11.1426V9.49512C22.9277 9.24447 22.848 9.00293 22.7432 8.77051C22.6429 8.53353 22.5107 8.32389 22.3467 8.1416C22.1872 7.95475 21.9889 7.80664 21.752 7.69727C21.5195 7.58789 21.2438 7.5332 20.9248 7.5332C20.5785 7.5332 20.2799 7.60612 20.0293 7.75195C19.7832 7.89323 19.5804 8.08919 19.4209 8.33984C19.2614 8.58594 19.1429 8.87305 19.0654 9.20117C18.9925 9.52474 18.9561 9.87109 18.9561 10.2402ZM33.7354 12.7354V8.92773C33.7354 8.63607 33.6761 8.38314 33.5576 8.16895C33.4437 7.9502 33.2705 7.78158 33.0381 7.66309C32.8057 7.5446 32.5186 7.48535 32.1768 7.48535C31.8577 7.48535 31.5775 7.54004 31.3359 7.64941C31.099 7.75879 30.9121 7.90234 30.7754 8.08008C30.6432 8.25781 30.5771 8.44922 30.5771 8.6543H29.3125C29.3125 8.38997 29.3809 8.12793 29.5176 7.86816C29.6543 7.6084 29.8503 7.3737 30.1055 7.16406C30.3652 6.94987 30.6751 6.78125 31.0352 6.6582C31.3997 6.5306 31.8053 6.4668 32.252 6.4668C32.7897 6.4668 33.2637 6.55794 33.6738 6.74023C34.0885 6.92253 34.4121 7.19824 34.6445 7.56738C34.8815 7.93197 35 8.38997 35 8.94141V12.3867C35 12.6328 35.0205 12.8949 35.0615 13.1729C35.1071 13.4508 35.1732 13.6901 35.2598 13.8906V14H33.9404C33.8766 13.8542 33.8265 13.6605 33.79 13.4189C33.7536 13.1729 33.7354 12.945 33.7354 12.7354ZM33.9541 9.51562L33.9678 10.4043H32.6895C32.3294 10.4043 32.0081 10.4339 31.7256 10.4932C31.443 10.5479 31.2061 10.6322 31.0146 10.7461C30.8232 10.86 30.6774 11.0036 30.5771 11.1768C30.4769 11.3454 30.4268 11.5436 30.4268 11.7715C30.4268 12.0039 30.4792 12.2158 30.584 12.4072C30.6888 12.5986 30.846 12.7513 31.0557 12.8652C31.2699 12.9746 31.5319 13.0293 31.8418 13.0293C32.2292 13.0293 32.571 12.9473 32.8672 12.7832C33.1634 12.6191 33.3981 12.4186 33.5713 12.1816C33.749 11.9447 33.8447 11.7145 33.8584 11.4912L34.3984 12.0996C34.3665 12.291 34.2799 12.5029 34.1387 12.7354C33.9974 12.9678 33.8083 13.1911 33.5713 13.4053C33.3389 13.6149 33.0609 13.7904 32.7373 13.9316C32.4183 14.0684 32.0583 14.1367 31.6572 14.1367C31.1559 14.1367 30.7161 14.0387 30.3379 13.8428C29.9642 13.6468 29.6725 13.3848 29.4629 13.0566C29.2578 12.724 29.1553 12.3525 29.1553 11.9424C29.1553 11.5459 29.2327 11.1973 29.3877 10.8965C29.5426 10.5911 29.766 10.3382 30.0576 10.1377C30.3493 9.93262 30.7002 9.77767 31.1104 9.67285C31.5205 9.56803 31.9785 9.51562 32.4844 9.51562H33.9541ZM43.4219 13.0977C43.7227 13.0977 44.0007 13.0361 44.2559 12.9131C44.5111 12.79 44.7207 12.6214 44.8848 12.4072C45.0488 12.1885 45.1423 11.9401 45.165 11.6621H46.3682C46.3454 12.0996 46.1973 12.5075 45.9238 12.8857C45.6549 13.2594 45.3018 13.5625 44.8643 13.7949C44.4268 14.0228 43.946 14.1367 43.4219 14.1367C42.8659 14.1367 42.3805 14.0387 41.9658 13.8428C41.5557 13.6468 41.2139 13.3779 40.9404 13.0361C40.6715 12.6943 40.4688 12.3024 40.332 11.8604C40.1999 11.4137 40.1338 10.9421 40.1338 10.4453V10.1582C40.1338 9.66146 40.1999 9.19206 40.332 8.75C40.4688 8.30339 40.6715 7.90918 40.9404 7.56738C41.2139 7.22559 41.5557 6.95671 41.9658 6.76074C42.3805 6.56478 42.8659 6.4668 43.4219 6.4668C44.0007 6.4668 44.5065 6.58529 44.9395 6.82227C45.3724 7.05469 45.7119 7.3737 45.958 7.7793C46.2087 8.18034 46.3454 8.63607 46.3682 9.14648H45.165C45.1423 8.84115 45.0557 8.56543 44.9053 8.31934C44.7594 8.07324 44.5589 7.87728 44.3037 7.73145C44.0531 7.58105 43.7591 7.50586 43.4219 7.50586C43.0345 7.50586 42.7087 7.58333 42.4443 7.73828C42.1846 7.88867 41.9772 8.09375 41.8223 8.35352C41.6719 8.60872 41.5625 8.89355 41.4941 9.20801C41.4303 9.5179 41.3984 9.83464 41.3984 10.1582V10.4453C41.3984 10.7689 41.4303 11.0879 41.4941 11.4023C41.5579 11.7168 41.665 12.0016 41.8154 12.2568C41.9704 12.512 42.1777 12.7171 42.4375 12.8721C42.7018 13.0225 43.0299 13.0977 43.4219 13.0977ZM47.4551 10.3838V10.2266C47.4551 9.69336 47.5326 9.19889 47.6875 8.74316C47.8424 8.28288 48.0658 7.88411 48.3574 7.54688C48.6491 7.20508 49.0023 6.94076 49.417 6.75391C49.8317 6.5625 50.2965 6.4668 50.8115 6.4668C51.3311 6.4668 51.7982 6.5625 52.2129 6.75391C52.6322 6.94076 52.9876 7.20508 53.2793 7.54688C53.5755 7.88411 53.8011 8.28288 53.9561 8.74316C54.111 9.19889 54.1885 9.69336 54.1885 10.2266V10.3838C54.1885 10.917 54.111 11.4115 53.9561 11.8672C53.8011 12.3229 53.5755 12.7217 53.2793 13.0635C52.9876 13.4007 52.6344 13.665 52.2197 13.8564C51.8096 14.0433 51.3447 14.1367 50.8252 14.1367C50.3057 14.1367 49.8385 14.0433 49.4238 13.8564C49.0091 13.665 48.6536 13.4007 48.3574 13.0635C48.0658 12.7217 47.8424 12.3229 47.6875 11.8672C47.5326 11.4115 47.4551 10.917 47.4551 10.3838ZM48.7197 10.2266V10.3838C48.7197 10.7529 48.763 11.1016 48.8496 11.4297C48.9362 11.7533 49.0661 12.0404 49.2393 12.291C49.417 12.5417 49.638 12.7399 49.9023 12.8857C50.1667 13.027 50.4743 13.0977 50.8252 13.0977C51.1715 13.0977 51.4746 13.027 51.7344 12.8857C51.9987 12.7399 52.2174 12.5417 52.3906 12.291C52.5638 12.0404 52.6937 11.7533 52.7803 11.4297C52.8714 11.1016 52.917 10.7529 52.917 10.3838V10.2266C52.917 9.86198 52.8714 9.5179 52.7803 9.19434C52.6937 8.86621 52.5615 8.57682 52.3838 8.32617C52.2106 8.07096 51.9919 7.87044 51.7275 7.72461C51.4678 7.57878 51.1624 7.50586 50.8115 7.50586C50.4652 7.50586 50.1598 7.57878 49.8955 7.72461C49.6357 7.87044 49.417 8.07096 49.2393 8.32617C49.0661 8.57682 48.9362 8.86621 48.8496 9.19434C48.763 9.5179 48.7197 9.86198 48.7197 10.2266ZM57.0322 8.07324V14H55.7607V6.60352H56.9639L57.0322 8.07324ZM56.7725 10.0215L56.1846 10.001C56.1891 9.49512 56.2552 9.02799 56.3828 8.59961C56.5104 8.16667 56.6995 7.79069 56.9502 7.47168C57.2008 7.15267 57.513 6.90658 57.8867 6.7334C58.2604 6.55566 58.6934 6.4668 59.1855 6.4668C59.5319 6.4668 59.8509 6.51693 60.1426 6.61719C60.4342 6.71289 60.6872 6.86556 60.9014 7.0752C61.1156 7.28483 61.2819 7.55371 61.4004 7.88184C61.5189 8.20996 61.5781 8.60645 61.5781 9.07129V14H60.3135V9.13281C60.3135 8.74544 60.2474 8.43555 60.1152 8.20312C59.9876 7.9707 59.8053 7.80208 59.5684 7.69727C59.3314 7.58789 59.0534 7.5332 58.7344 7.5332C58.3607 7.5332 58.0485 7.59928 57.7979 7.73145C57.5472 7.86361 57.3467 8.0459 57.1963 8.27832C57.0459 8.51074 56.9365 8.77734 56.8682 9.07812C56.8044 9.37435 56.7725 9.6888 56.7725 10.0215ZM61.5645 9.32422L60.7168 9.58398C60.7214 9.17839 60.7874 8.78874 60.915 8.41504C61.0472 8.04134 61.2363 7.70866 61.4824 7.41699C61.7331 7.12533 62.0407 6.89518 62.4053 6.72656C62.7699 6.55339 63.1868 6.4668 63.6562 6.4668C64.0527 6.4668 64.4036 6.51921 64.709 6.62402C65.0189 6.72884 65.2786 6.89062 65.4883 7.10938C65.7025 7.32357 65.8643 7.59928 65.9736 7.93652C66.083 8.27376 66.1377 8.6748 66.1377 9.13965V14H64.8662V9.12598C64.8662 8.71126 64.8001 8.38997 64.668 8.16211C64.5404 7.92969 64.3581 7.7679 64.1211 7.67676C63.8887 7.58105 63.6107 7.5332 63.2871 7.5332C63.0091 7.5332 62.763 7.58105 62.5488 7.67676C62.3346 7.77246 62.1546 7.90462 62.0088 8.07324C61.863 8.2373 61.7513 8.42643 61.6738 8.64062C61.6009 8.85482 61.5645 9.08268 61.5645 9.32422ZM69.3096 8.07324V14H68.0381V6.60352H69.2412L69.3096 8.07324ZM69.0498 10.0215L68.4619 10.001C68.4665 9.49512 68.5326 9.02799 68.6602 8.59961C68.7878 8.16667 68.9769 7.79069 69.2275 7.47168C69.4782 7.15267 69.7904 6.90658 70.1641 6.7334C70.5378 6.55566 70.9707 6.4668 71.4629 6.4668C71.8092 6.4668 72.1283 6.51693 72.4199 6.61719C72.7116 6.71289 72.9645 6.86556 73.1787 7.0752C73.3929 7.28483 73.5592 7.55371 73.6777 7.88184C73.7962 8.20996 73.8555 8.60645 73.8555 9.07129V14H72.5908V9.13281C72.5908 8.74544 72.5247 8.43555 72.3926 8.20312C72.265 7.9707 72.0827 7.80208 71.8457 7.69727C71.6087 7.58789 71.3307 7.5332 71.0117 7.5332C70.638 7.5332 70.3258 7.59928 70.0752 7.73145C69.8245 7.86361 69.624 8.0459 69.4736 8.27832C69.3232 8.51074 69.2139 8.77734 69.1455 9.07812C69.0817 9.37435 69.0498 9.6888 69.0498 10.0215ZM73.8418 9.32422L72.9941 9.58398C72.9987 9.17839 73.0648 8.78874 73.1924 8.41504C73.3245 8.04134 73.5137 7.70866 73.7598 7.41699C74.0104 7.12533 74.318 6.89518 74.6826 6.72656C75.0472 6.55339 75.4642 6.4668 75.9336 6.4668C76.3301 6.4668 76.681 6.51921 76.9863 6.62402C77.2962 6.72884 77.556 6.89062 77.7656 7.10938C77.9798 7.32357 78.1416 7.59928 78.251 7.93652C78.3604 8.27376 78.415 8.6748 78.415 9.13965V14H77.1436V9.12598C77.1436 8.71126 77.0775 8.38997 76.9453 8.16211C76.8177 7.92969 76.6354 7.7679 76.3984 7.67676C76.166 7.58105 75.888 7.5332 75.5645 7.5332C75.2865 7.5332 75.0404 7.58105 74.8262 7.67676C74.612 7.77246 74.432 7.90462 74.2861 8.07324C74.1403 8.2373 74.0286 8.42643 73.9512 8.64062C73.8783 8.85482 73.8418 9.08268 73.8418 9.32422ZM83.3984 14.1367C82.8835 14.1367 82.4163 14.0501 81.9971 13.877C81.5824 13.6992 81.2246 13.4508 80.9238 13.1318C80.6276 12.8128 80.3997 12.4346 80.2402 11.9971C80.0807 11.5596 80.001 11.0811 80.001 10.5615V10.2744C80.001 9.67285 80.0898 9.13737 80.2676 8.66797C80.4453 8.19401 80.6868 7.79297 80.9922 7.46484C81.2975 7.13672 81.6439 6.88835 82.0312 6.71973C82.4186 6.55111 82.8197 6.4668 83.2344 6.4668C83.763 6.4668 84.2188 6.55794 84.6016 6.74023C84.9889 6.92253 85.3057 7.17773 85.5518 7.50586C85.7979 7.82943 85.9801 8.21224 86.0986 8.6543C86.2171 9.0918 86.2764 9.57031 86.2764 10.0898V10.6572H80.7529V9.625H85.0117V9.5293C84.9935 9.20117 84.9251 8.88216 84.8066 8.57227C84.6927 8.26237 84.5104 8.00716 84.2598 7.80664C84.0091 7.60612 83.6673 7.50586 83.2344 7.50586C82.9473 7.50586 82.6829 7.56738 82.4414 7.69043C82.1999 7.80892 81.9925 7.98665 81.8193 8.22363C81.6462 8.46061 81.5117 8.75 81.416 9.0918C81.3203 9.43359 81.2725 9.8278 81.2725 10.2744V10.5615C81.2725 10.9124 81.3203 11.2428 81.416 11.5527C81.5163 11.8581 81.6598 12.127 81.8467 12.3594C82.0381 12.5918 82.2682 12.7741 82.5371 12.9062C82.8105 13.0384 83.1204 13.1045 83.4668 13.1045C83.9134 13.1045 84.2917 13.0133 84.6016 12.8311C84.9115 12.6488 85.1826 12.4049 85.415 12.0996L86.1807 12.708C86.0212 12.9495 85.8184 13.1797 85.5723 13.3984C85.3262 13.6172 85.0231 13.7949 84.6631 13.9316C84.3076 14.0684 83.8861 14.1367 83.3984 14.1367ZM89.0176 8.18262V14H87.7529V6.60352H88.9492L89.0176 8.18262ZM88.7168 10.0215L88.1904 10.001C88.195 9.49512 88.2702 9.02799 88.416 8.59961C88.5618 8.16667 88.7669 7.79069 89.0312 7.47168C89.2956 7.15267 89.61 6.90658 89.9746 6.7334C90.3438 6.55566 90.7516 6.4668 91.1982 6.4668C91.5628 6.4668 91.891 6.51693 92.1826 6.61719C92.4743 6.71289 92.7227 6.86784 92.9277 7.08203C93.1374 7.29622 93.2969 7.57422 93.4062 7.91602C93.5156 8.25326 93.5703 8.66569 93.5703 9.15332V14H92.2988V9.13965C92.2988 8.75228 92.2419 8.44238 92.1279 8.20996C92.014 7.97298 91.8477 7.80208 91.6289 7.69727C91.4102 7.58789 91.1413 7.5332 90.8223 7.5332C90.5078 7.5332 90.2207 7.59928 89.9609 7.73145C89.7057 7.86361 89.4847 8.0459 89.2979 8.27832C89.1156 8.51074 88.972 8.77734 88.8672 9.07812C88.7669 9.37435 88.7168 9.6888 88.7168 10.0215ZM98.5879 6.60352V7.57422H94.5889V6.60352H98.5879ZM95.9424 4.80566H97.207V12.168C97.207 12.4186 97.2458 12.6077 97.3232 12.7354C97.4007 12.863 97.501 12.9473 97.624 12.9883C97.7471 13.0293 97.8792 13.0498 98.0205 13.0498C98.1253 13.0498 98.2347 13.0407 98.3486 13.0225C98.4671 12.9997 98.556 12.9814 98.6152 12.9678L98.6221 14C98.5218 14.0319 98.3896 14.0615 98.2256 14.0889C98.0661 14.1208 97.8724 14.1367 97.6445 14.1367C97.3346 14.1367 97.0498 14.0752 96.79 13.9521C96.5303 13.8291 96.3229 13.624 96.168 13.3369C96.0176 13.0452 95.9424 12.6533 95.9424 12.1611V4.80566ZM100.119 13.3301C100.119 13.1159 100.185 12.9359 100.317 12.79C100.454 12.6396 100.65 12.5645 100.905 12.5645C101.16 12.5645 101.354 12.6396 101.486 12.79C101.623 12.9359 101.691 13.1159 101.691 13.3301C101.691 13.5397 101.623 13.7174 101.486 13.8633C101.354 14.0091 101.16 14.082 100.905 14.082C100.65 14.082 100.454 14.0091 100.317 13.8633C100.185 13.7174 100.119 13.5397 100.119 13.3301ZM103.106 13.3301C103.106 13.1159 103.173 12.9359 103.305 12.79C103.441 12.6396 103.637 12.5645 103.893 12.5645C104.148 12.5645 104.341 12.6396 104.474 12.79C104.61 12.9359 104.679 13.1159 104.679 13.3301C104.679 13.5397 104.61 13.7174 104.474 13.8633C104.341 14.0091 104.148 14.082 103.893 14.082C103.637 14.082 103.441 14.0091 103.305 13.8633C103.173 13.7174 103.106 13.5397 103.106 13.3301ZM105.943 13.3301C105.943 13.1159 106.009 12.9359 106.142 12.79C106.278 12.6396 106.474 12.5645 106.729 12.5645C106.985 12.5645 107.178 12.6396 107.311 12.79C107.447 12.9359 107.516 13.1159 107.516 13.3301C107.516 13.5397 107.447 13.7174 107.311 13.8633C107.178 14.0091 106.985 14.082 106.729 14.082C106.474 14.082 106.278 14.0091 106.142 13.8633C106.009 13.7174 105.943 13.5397 105.943 13.3301Z" fill="#262626"/>
</g>
<g clip-path="url(#clip1_1_126)">
<path d="M465.575 8.45671C465.45 8.45671 465.328 8.49378 465.224 8.56324C465.12 8.6327 465.039 8.73143 464.991 8.84693C464.943 8.96244 464.93 9.08954 464.955 9.21216C464.979 9.33478 465.039 9.44741 465.128 9.53582C465.216 9.62422 465.329 9.68442 465.451 9.70882C465.574 9.73321 465.701 9.72069 465.817 9.67284C465.932 9.625 466.031 9.54398 466.1 9.44003C466.17 9.33607 466.207 9.21386 466.207 9.08884C466.207 8.92119 466.14 8.7604 466.022 8.64186C465.903 8.52331 465.742 8.45671 465.575 8.45671ZM462.054 9.08884C462.054 8.96379 462.017 8.84155 461.947 8.73759C461.878 8.63363 461.779 8.55261 461.664 8.50478C461.548 8.45695 461.421 8.44446 461.298 8.4689C461.176 8.49333 461.063 8.55359 460.975 8.64205C460.886 8.73051 460.826 8.84319 460.802 8.96585C460.777 9.0885 460.79 9.21562 460.838 9.33112C460.886 9.44661 460.967 9.5453 461.071 9.61469C461.175 9.68409 461.297 9.72107 461.422 9.72096C461.59 9.72082 461.751 9.65416 461.869 9.53562C461.987 9.41709 462.054 9.25639 462.054 9.08884ZM464.851 10.8438C464.678 11.0292 464.47 11.1771 464.238 11.2784C464.006 11.3796 463.755 11.4321 463.502 11.4324C463.249 11.4328 462.998 11.381 462.766 11.2804C462.534 11.1798 462.325 11.0325 462.152 10.8476C462.062 10.7358 461.931 10.6644 461.788 10.6491C461.645 10.6338 461.502 10.6759 461.39 10.7661C461.278 10.8563 461.207 10.9873 461.192 11.1301C461.176 11.273 461.218 11.4161 461.309 11.528C461.583 11.8385 461.92 12.0872 462.298 12.2576C462.676 12.4279 463.085 12.516 463.5 12.516C463.914 12.516 464.324 12.4279 464.701 12.2576C465.079 12.0872 465.416 11.8385 465.691 11.528C465.777 11.4162 465.817 11.275 465.801 11.1346C465.785 10.9941 465.714 10.8654 465.605 10.7761C465.495 10.6868 465.355 10.6439 465.214 10.6565C465.073 10.6692 464.943 10.7364 464.851 10.8438H464.851ZM463.5 2.77246C462.268 2.77246 461.064 3.1378 460.039 3.82226C459.015 4.50673 458.217 5.4796 457.745 6.61783C457.274 7.75606 457.15 9.00854 457.391 10.2169C457.631 11.4252 458.224 12.5351 459.095 13.4063C459.967 14.2775 461.077 14.8707 462.285 15.1111C463.493 15.3515 464.746 15.2281 465.884 14.7566C467.022 14.2852 467.995 13.4867 468.68 12.4624C469.364 11.438 469.729 10.2336 469.729 9.00163C469.727 7.35012 469.071 5.76679 467.903 4.599C466.735 3.43121 465.152 2.77432 463.5 2.77246ZM463.5 14.1475C462.482 14.1475 461.488 13.8457 460.641 13.2802C459.795 12.7148 459.136 11.9111 458.746 10.9709C458.357 10.0306 458.255 8.99592 458.453 7.99773C458.652 6.99953 459.142 6.08263 459.862 5.36297C460.581 4.64332 461.498 4.15322 462.496 3.95467C463.494 3.75612 464.529 3.85802 465.469 4.2475C466.41 4.63697 467.213 5.29653 467.779 6.14276C468.344 6.98898 468.646 7.98388 468.646 9.00163C468.645 10.3659 468.102 11.674 467.137 12.6387C466.173 13.6034 464.864 14.146 463.5 14.1475Z" fill="#8E8E8E"/>
</g>
<defs>
<clipPath id="clip0_1_126">
<rect width="457" height="18" fill="white"/>
</clipPath>
<clipPath id="clip1_1_126">
<rect width="13" height="13" fill="white" transform="translate(457 2.5)"/>
</clipPath>
</defs>
</svg>
