<svg width="470" height="20" viewBox="0 0 470 20" fill="none" xmlns="http://www.w3.org/2000/svg">
<path d="M2.61816 4.91504V15.4219H0.813477V4.91504H2.61816ZM7.25293 8.02539L4.0332 11.6416L2.29004 13.4121L1.71582 12.0107L3.0625 10.3154L5.07227 8.02539H7.25293ZM5.40723 15.4219L3.11719 11.9766L4.32031 10.8076L7.49902 15.4219H5.40723ZM12.6123 13.665V8.02539H14.4307V15.4219H12.7217L12.6123 13.665ZM12.8447 12.1338L13.4053 12.1201C13.4053 12.6169 13.3506 13.0749 13.2412 13.4941C13.1318 13.9134 12.9609 14.278 12.7285 14.5879C12.5007 14.8932 12.2113 15.1325 11.8604 15.3057C11.5094 15.4743 11.0947 15.5586 10.6162 15.5586C10.2516 15.5586 9.91895 15.5085 9.61816 15.4082C9.31738 15.3034 9.05762 15.1416 8.83887 14.9229C8.62467 14.6995 8.45833 14.4147 8.33984 14.0684C8.22135 13.7174 8.16211 13.2959 8.16211 12.8037V8.02539H9.9668V12.8174C9.9668 13.0635 9.99414 13.2686 10.0488 13.4326C10.1081 13.5967 10.1878 13.7311 10.2881 13.8359C10.3929 13.9362 10.5137 14.0091 10.6504 14.0547C10.7917 14.0957 10.9421 14.1162 11.1016 14.1162C11.5391 14.1162 11.8831 14.0296 12.1338 13.8564C12.389 13.6787 12.5713 13.4417 12.6807 13.1455C12.79 12.8447 12.8447 12.5075 12.8447 12.1338ZM17.835 9.53613V15.4219H16.0303V8.02539H17.7393L17.835 9.53613ZM20.084 7.97754L20.0566 9.65918C19.9564 9.64095 19.8424 9.62728 19.7148 9.61816C19.5918 9.60905 19.4756 9.60449 19.3662 9.60449C19.0882 9.60449 18.8444 9.64323 18.6348 9.7207C18.4251 9.79362 18.2497 9.90072 18.1084 10.042C17.9717 10.1833 17.8669 10.3564 17.7939 10.5615C17.721 10.762 17.68 10.9899 17.6709 11.2451L17.2812 11.1973C17.2812 10.7279 17.3291 10.2926 17.4248 9.8916C17.5205 9.49056 17.6595 9.13965 17.8418 8.83887C18.0241 8.53809 18.252 8.30566 18.5254 8.1416C18.8034 7.97298 19.1224 7.88867 19.4824 7.88867C19.5827 7.88867 19.6898 7.89779 19.8037 7.91602C19.9222 7.92969 20.0156 7.9502 20.084 7.97754ZM26.8721 14V15.4219H21.3076V14H26.8721ZM26.7422 9.10547L21.9844 15.4219H20.7949V14.3076L25.5254 8.02539H26.7422V9.10547ZM26.0791 8.02539V9.4541H20.8906V8.02539H26.0791ZM32.751 8.02539H34.3916V15.1963C34.3916 15.8662 34.2458 16.4336 33.9541 16.8984C33.667 17.3678 33.2637 17.7233 32.7441 17.9648C32.2246 18.2109 31.6208 18.334 30.9326 18.334C30.6364 18.334 30.3151 18.293 29.9688 18.2109C29.627 18.1289 29.2965 17.999 28.9775 17.8213C28.6631 17.6481 28.401 17.4225 28.1914 17.1445L29.0049 16.0781C29.251 16.3652 29.529 16.5817 29.8389 16.7275C30.1488 16.8779 30.4837 16.9531 30.8438 16.9531C31.2083 16.9531 31.5182 16.8848 31.7734 16.748C32.0332 16.6159 32.2314 16.4199 32.3682 16.1602C32.5094 15.9049 32.5801 15.5905 32.5801 15.2168V9.71387L32.751 8.02539ZM27.7539 11.8125V11.6689C27.7539 11.1038 27.8223 10.5911 27.959 10.1309C28.0957 9.66602 28.2917 9.26725 28.5469 8.93457C28.8066 8.60189 29.1188 8.3444 29.4834 8.16211C29.8525 7.97982 30.2673 7.88867 30.7275 7.88867C31.2152 7.88867 31.6253 7.97754 31.958 8.15527C32.2952 8.33301 32.5732 8.58594 32.792 8.91406C33.0153 9.24219 33.1885 9.63184 33.3115 10.083C33.4391 10.5296 33.5371 11.0218 33.6055 11.5596V11.9492C33.5417 12.4733 33.4391 12.9541 33.2979 13.3916C33.1611 13.8291 32.9788 14.2119 32.751 14.54C32.5231 14.8636 32.2406 15.1143 31.9033 15.292C31.5661 15.4697 31.1696 15.5586 30.7139 15.5586C30.2581 15.5586 29.848 15.4652 29.4834 15.2783C29.1188 15.0915 28.8066 14.8294 28.5469 14.4922C28.2917 14.1549 28.0957 13.7585 27.959 13.3027C27.8223 12.847 27.7539 12.3503 27.7539 11.8125ZM29.5586 11.6689V11.8125C29.5586 12.1315 29.5905 12.43 29.6543 12.708C29.7181 12.986 29.8161 13.2321 29.9482 13.4463C30.0804 13.6559 30.2467 13.82 30.4473 13.9385C30.6478 14.057 30.887 14.1162 31.165 14.1162C31.5387 14.1162 31.8441 14.0387 32.0811 13.8838C32.3226 13.7243 32.5049 13.5078 32.6279 13.2344C32.7555 12.9564 32.8376 12.6442 32.874 12.2979V11.2246C32.8512 10.9512 32.8011 10.6982 32.7236 10.4658C32.6507 10.2334 32.5482 10.0329 32.416 9.86426C32.2839 9.69564 32.1152 9.56348 31.9102 9.46777C31.7051 9.37207 31.4613 9.32422 31.1787 9.32422C30.9053 9.32422 30.666 9.38574 30.4609 9.50879C30.2559 9.62728 30.0872 9.79362 29.9551 10.0078C29.8229 10.222 29.7227 10.4704 29.6543 10.7529C29.5905 11.0355 29.5586 11.3408 29.5586 11.6689ZM39.3408 15.5586C38.7803 15.5586 38.2767 15.4674 37.8301 15.2852C37.3835 15.1029 37.0029 14.8499 36.6885 14.5264C36.3786 14.1982 36.1393 13.8177 35.9707 13.3848C35.8066 12.9473 35.7246 12.4779 35.7246 11.9766V11.7031C35.7246 11.1335 35.8066 10.6162 35.9707 10.1514C36.1348 9.68197 36.3672 9.27865 36.668 8.94141C36.9688 8.60417 37.3288 8.3444 37.748 8.16211C38.1673 7.97982 38.6299 7.88867 39.1357 7.88867C39.6598 7.88867 40.1224 7.97754 40.5234 8.15527C40.9245 8.32845 41.2594 8.57454 41.5283 8.89355C41.7972 9.21257 42 9.59538 42.1367 10.042C42.2734 10.484 42.3418 10.974 42.3418 11.5117V12.2705H36.5449V11.0264H40.5645V10.8896C40.5553 10.6025 40.5007 10.3405 40.4004 10.1035C40.3001 9.86198 40.1452 9.67057 39.9355 9.5293C39.7259 9.38346 39.4548 9.31055 39.1221 9.31055C38.8532 9.31055 38.6185 9.36979 38.418 9.48828C38.222 9.60221 38.0579 9.76628 37.9258 9.98047C37.7982 10.1901 37.7025 10.4408 37.6387 10.7324C37.5749 11.0241 37.543 11.3477 37.543 11.7031V11.9766C37.543 12.2865 37.584 12.5736 37.666 12.8379C37.7526 13.1022 37.8779 13.3324 38.042 13.5283C38.2106 13.7197 38.4111 13.8701 38.6436 13.9795C38.8805 14.0843 39.1494 14.1367 39.4502 14.1367C39.8285 14.1367 40.1702 14.0638 40.4756 13.918C40.7855 13.7676 41.0544 13.5465 41.2822 13.2549L42.1914 14.1982C42.0365 14.4261 41.8268 14.6449 41.5625 14.8545C41.3027 15.0641 40.9883 15.235 40.6191 15.3672C40.25 15.4948 39.8239 15.5586 39.3408 15.5586ZM47.6191 13.3984C47.6191 13.2435 47.5781 13.1045 47.4961 12.9814C47.4141 12.8584 47.2591 12.7467 47.0312 12.6465C46.8079 12.5417 46.4798 12.4437 46.0469 12.3525C45.6641 12.2705 45.3109 12.168 44.9873 12.0449C44.6637 11.9219 44.3857 11.7738 44.1533 11.6006C43.9209 11.4229 43.7386 11.2155 43.6064 10.9785C43.4788 10.737 43.415 10.459 43.415 10.1445C43.415 9.83919 43.4811 9.55208 43.6133 9.2832C43.7454 9.00977 43.9368 8.77051 44.1875 8.56543C44.4382 8.35579 44.7435 8.19173 45.1035 8.07324C45.4635 7.9502 45.8691 7.88867 46.3203 7.88867C46.9492 7.88867 47.4893 7.99121 47.9404 8.19629C48.3962 8.40137 48.7448 8.68392 48.9863 9.04395C49.2279 9.39941 49.3486 9.80046 49.3486 10.2471H47.5439C47.5439 10.0511 47.4984 9.87337 47.4072 9.71387C47.3206 9.55436 47.1862 9.42676 47.0039 9.33105C46.8216 9.23079 46.5915 9.18066 46.3135 9.18066C46.0628 9.18066 45.8509 9.22168 45.6777 9.30371C45.5091 9.38574 45.3815 9.49284 45.2949 9.625C45.2083 9.75716 45.165 9.90299 45.165 10.0625C45.165 10.181 45.1878 10.2881 45.2334 10.3838C45.2835 10.4749 45.3633 10.5592 45.4727 10.6367C45.582 10.7142 45.7301 10.7848 45.917 10.8486C46.1084 10.9124 46.3431 10.974 46.6211 11.0332C47.1725 11.1426 47.6533 11.2884 48.0635 11.4707C48.4782 11.6484 48.8018 11.8854 49.0342 12.1816C49.2666 12.4779 49.3828 12.8561 49.3828 13.3164C49.3828 13.6445 49.3122 13.9453 49.1709 14.2188C49.0296 14.4876 48.8245 14.7223 48.5557 14.9229C48.2868 15.1234 47.9655 15.2806 47.5918 15.3945C47.2181 15.5039 46.7965 15.5586 46.3271 15.5586C45.6481 15.5586 45.0739 15.4378 44.6045 15.1963C44.1351 14.9502 43.7796 14.6403 43.5381 14.2666C43.2965 13.8883 43.1758 13.4964 43.1758 13.0908H44.9053C44.9189 13.3779 44.9964 13.6081 45.1377 13.7812C45.279 13.9544 45.4567 14.0798 45.6709 14.1572C45.8896 14.2301 46.1198 14.2666 46.3613 14.2666C46.6348 14.2666 46.8649 14.2301 47.0518 14.1572C47.2386 14.0798 47.3799 13.9772 47.4756 13.8496C47.5713 13.7174 47.6191 13.5671 47.6191 13.3984ZM54.8311 13.8496V10.4385C54.8311 10.1878 54.7878 9.97135 54.7012 9.78906C54.6146 9.60677 54.4824 9.46549 54.3047 9.36523C54.127 9.26497 53.9014 9.21484 53.6279 9.21484C53.3864 9.21484 53.1745 9.25586 52.9922 9.33789C52.8145 9.41992 52.6777 9.53613 52.582 9.68652C52.4863 9.83236 52.4385 10.001 52.4385 10.1924H50.627C50.627 9.88704 50.6999 9.59766 50.8457 9.32422C50.9915 9.04622 51.1989 8.80013 51.4678 8.58594C51.7412 8.36719 52.0671 8.19629 52.4453 8.07324C52.8281 7.9502 53.2565 7.88867 53.7305 7.88867C54.291 7.88867 54.79 7.98438 55.2275 8.17578C55.6696 8.36263 56.016 8.64518 56.2666 9.02344C56.5218 9.40169 56.6494 9.87793 56.6494 10.4521V13.6787C56.6494 14.0479 56.6722 14.3646 56.7178 14.6289C56.7679 14.8887 56.8408 15.1143 56.9365 15.3057V15.4219H55.0977C55.0111 15.235 54.945 14.998 54.8994 14.7109C54.8538 14.4193 54.8311 14.1322 54.8311 13.8496ZM55.084 10.917L55.0977 11.9902H53.9561C53.6735 11.9902 53.4251 12.0199 53.2109 12.0791C52.9967 12.1338 52.8213 12.2158 52.6846 12.3252C52.5479 12.43 52.4453 12.5576 52.377 12.708C52.3086 12.8538 52.2744 13.0202 52.2744 13.207C52.2744 13.3893 52.3154 13.5534 52.3975 13.6992C52.484 13.8451 52.6071 13.9613 52.7666 14.0479C52.9307 14.1299 53.1221 14.1709 53.3408 14.1709C53.6598 14.1709 53.9378 14.1071 54.1748 13.9795C54.4118 13.8473 54.5964 13.6878 54.7285 13.501C54.8607 13.3141 54.9313 13.1364 54.9404 12.9678L55.46 13.7471C55.3962 13.9339 55.3005 14.1322 55.1729 14.3418C55.0452 14.5514 54.8812 14.7474 54.6807 14.9297C54.4801 15.112 54.2386 15.2624 53.9561 15.3809C53.6735 15.4993 53.3454 15.5586 52.9717 15.5586C52.4932 15.5586 52.0648 15.4629 51.6865 15.2715C51.3083 15.0801 51.0098 14.818 50.791 14.4854C50.5723 14.1527 50.4629 13.7744 50.4629 13.3506C50.4629 12.9587 50.5358 12.6123 50.6816 12.3115C50.8275 12.0107 51.0439 11.7578 51.3311 11.5527C51.6182 11.3431 51.9736 11.1859 52.3975 11.0811C52.8258 10.9717 53.3158 10.917 53.8672 10.917H55.084ZM62.9795 8.02539H64.6201V15.1963C64.6201 15.8662 64.4743 16.4336 64.1826 16.8984C63.8955 17.3678 63.4922 17.7233 62.9727 17.9648C62.4531 18.2109 61.8493 18.334 61.1611 18.334C60.8649 18.334 60.5436 18.293 60.1973 18.2109C59.8555 18.1289 59.5251 17.999 59.2061 17.8213C58.8916 17.6481 58.6296 17.4225 58.4199 17.1445L59.2334 16.0781C59.4795 16.3652 59.7575 16.5817 60.0674 16.7275C60.3773 16.8779 60.7122 16.9531 61.0723 16.9531C61.4368 16.9531 61.7467 16.8848 62.002 16.748C62.2617 16.6159 62.46 16.4199 62.5967 16.1602C62.738 15.9049 62.8086 15.5905 62.8086 15.2168V9.71387L62.9795 8.02539ZM57.9824 11.8125V11.6689C57.9824 11.1038 58.0508 10.5911 58.1875 10.1309C58.3242 9.66602 58.5202 9.26725 58.7754 8.93457C59.0352 8.60189 59.3473 8.3444 59.7119 8.16211C60.0811 7.97982 60.4958 7.88867 60.9561 7.88867C61.4437 7.88867 61.8538 7.97754 62.1865 8.15527C62.5238 8.33301 62.8018 8.58594 63.0205 8.91406C63.2438 9.24219 63.417 9.63184 63.54 10.083C63.6676 10.5296 63.7656 11.0218 63.834 11.5596V11.9492C63.7702 12.4733 63.6676 12.9541 63.5264 13.3916C63.3896 13.8291 63.2074 14.2119 62.9795 14.54C62.7516 14.8636 62.4691 15.1143 62.1318 15.292C61.7946 15.4697 61.3981 15.5586 60.9424 15.5586C60.4867 15.5586 60.0765 15.4652 59.7119 15.2783C59.3473 15.0915 59.0352 14.8294 58.7754 14.4922C58.5202 14.1549 58.3242 13.7585 58.1875 13.3027C58.0508 12.847 57.9824 12.3503 57.9824 11.8125ZM59.7871 11.6689V11.8125C59.7871 12.1315 59.819 12.43 59.8828 12.708C59.9466 12.986 60.0446 13.2321 60.1768 13.4463C60.3089 13.6559 60.4753 13.82 60.6758 13.9385C60.8763 14.057 61.1156 14.1162 61.3936 14.1162C61.7673 14.1162 62.0726 14.0387 62.3096 13.8838C62.5511 13.7243 62.7334 13.5078 62.8564 13.2344C62.984 12.9564 63.0661 12.6442 63.1025 12.2979V11.2246C63.0798 10.9512 63.0296 10.6982 62.9521 10.4658C62.8792 10.2334 62.7767 10.0329 62.6445 9.86426C62.5124 9.69564 62.3438 9.56348 62.1387 9.46777C61.9336 9.37207 61.6898 9.32422 61.4072 9.32422C61.1338 9.32422 60.8945 9.38574 60.6895 9.50879C60.4844 9.62728 60.3158 9.79362 60.1836 10.0078C60.0514 10.222 59.9512 10.4704 59.8828 10.7529C59.819 11.0355 59.7871 11.3408 59.7871 11.6689ZM69.7471 8.02539V9.32422H65.5088V8.02539H69.7471ZM66.6436 6.20703H68.4551V13.2891C68.4551 13.5078 68.4847 13.6764 68.5439 13.7949C68.6032 13.9134 68.6921 13.9932 68.8105 14.0342C68.929 14.0752 69.0703 14.0957 69.2344 14.0957C69.3529 14.0957 69.4622 14.0889 69.5625 14.0752C69.6628 14.0615 69.7471 14.0479 69.8154 14.0342L69.8223 15.3877C69.6719 15.4378 69.501 15.4788 69.3096 15.5107C69.1227 15.5426 68.9108 15.5586 68.6738 15.5586C68.2682 15.5586 67.9128 15.4902 67.6074 15.3535C67.3021 15.2122 67.0651 14.9867 66.8965 14.6768C66.7279 14.3623 66.6436 13.9476 66.6436 13.4326V6.20703Z" fill="#262626"/>
<path d="M85.8984 11.9834C85.8802 12.4027 85.8164 12.8242 85.707 13.248C85.5977 13.6673 85.4336 14.0524 85.2148 14.4033C84.9961 14.7542 84.7113 15.0368 84.3604 15.251C84.014 15.4606 83.5947 15.5654 83.1025 15.5654C82.7881 15.5654 82.5124 15.5107 82.2754 15.4014C82.043 15.2874 81.8516 15.1257 81.7012 14.916C81.5553 14.7064 81.4528 14.4535 81.3936 14.1572C81.3389 13.861 81.3298 13.5306 81.3662 13.166L81.7148 9.37891H82.7197L82.3711 13.166C82.3438 13.4987 82.3506 13.7699 82.3916 13.9795C82.4372 14.1891 82.5055 14.3509 82.5967 14.4648C82.6878 14.5742 82.7904 14.6494 82.9043 14.6904C83.0228 14.7314 83.1367 14.752 83.2461 14.752C83.5195 14.752 83.7633 14.6813 83.9775 14.54C84.1917 14.3942 84.3717 14.196 84.5176 13.9453C84.668 13.6901 84.7842 13.3962 84.8662 13.0635C84.9482 12.7262 84.9984 12.3662 85.0166 11.9834C85.0485 11.3044 85.0166 10.68 84.9209 10.1104C84.8298 9.54069 84.6725 9.03483 84.4492 8.59277C84.2305 8.15072 83.9434 7.77702 83.5879 7.47168C83.2324 7.16634 82.8086 6.93392 82.3164 6.77441C81.8242 6.61491 81.2614 6.53516 80.6279 6.53516C80.0537 6.53516 79.5228 6.62402 79.0352 6.80176C78.5521 6.97493 78.1169 7.22559 77.7295 7.55371C77.3467 7.88184 77.0163 8.27604 76.7383 8.73633C76.4648 9.19661 76.2484 9.71615 76.0889 10.2949C75.9339 10.8691 75.8428 11.4889 75.8154 12.1543C75.7835 12.8379 75.82 13.4668 75.9248 14.041C76.0296 14.6107 76.1982 15.1188 76.4307 15.5654C76.6676 16.0166 76.9661 16.3971 77.3262 16.707C77.6862 17.0215 78.1032 17.2585 78.5771 17.418C79.0511 17.582 79.5798 17.6641 80.1631 17.6641C80.5641 17.6641 80.9697 17.6162 81.3799 17.5205C81.7946 17.4248 82.141 17.2949 82.4189 17.1309L82.6787 17.9102C82.3597 18.1152 81.9609 18.2679 81.4824 18.3682C81.0085 18.4684 80.5596 18.5186 80.1357 18.5186C79.443 18.5186 78.8096 18.4229 78.2354 18.2314C77.6657 18.0446 77.1598 17.7689 76.7178 17.4043C76.2803 17.0443 75.9157 16.6045 75.624 16.085C75.3324 15.57 75.1182 14.9821 74.9814 14.3213C74.8447 13.6605 74.7923 12.9382 74.8242 12.1543C74.8561 11.4069 74.9678 10.7028 75.1592 10.042C75.3551 9.38118 75.6217 8.7819 75.959 8.24414C76.2962 7.70638 76.6973 7.24382 77.1621 6.85645C77.6315 6.46452 78.1579 6.16374 78.7412 5.9541C79.3291 5.74447 79.9671 5.63965 80.6553 5.63965C81.3571 5.63965 81.9928 5.73535 82.5625 5.92676C83.1322 6.11816 83.6312 6.39388 84.0596 6.75391C84.4925 7.11393 84.8503 7.55371 85.1328 8.07324C85.4154 8.59277 85.6204 9.18066 85.748 9.83691C85.8802 10.4932 85.9303 11.2087 85.8984 11.9834ZM78.8779 12.5645C78.846 12.8835 78.846 13.1683 78.8779 13.4189C78.9098 13.6696 78.9714 13.8815 79.0625 14.0547C79.1536 14.2279 79.2721 14.36 79.418 14.4512C79.5684 14.5378 79.7438 14.5811 79.9443 14.5811C80.0765 14.5811 80.2155 14.5492 80.3613 14.4854C80.5072 14.417 80.6507 14.3122 80.792 14.1709C80.9333 14.0296 81.0654 13.8451 81.1885 13.6172C81.3115 13.3893 81.4141 13.1159 81.4961 12.7969L81.9473 13.2891C81.8424 13.6628 81.7057 13.9909 81.5371 14.2734C81.373 14.556 81.1885 14.793 80.9834 14.9844C80.7783 15.1758 80.5596 15.3216 80.3271 15.4219C80.0993 15.5176 79.8669 15.5654 79.6299 15.5654C79.2972 15.5654 79.0055 15.4948 78.7549 15.3535C78.5042 15.2077 78.3014 15.0026 78.1465 14.7383C77.9915 14.474 77.8822 14.1595 77.8184 13.7949C77.7591 13.4258 77.75 13.0156 77.791 12.5645C77.832 12.0859 77.9163 11.6439 78.0439 11.2383C78.1715 10.8327 78.3288 10.4704 78.5156 10.1514C78.707 9.83236 78.9212 9.5612 79.1582 9.33789C79.3997 9.11458 79.6549 8.94596 79.9238 8.83203C80.1927 8.71354 80.4684 8.6543 80.751 8.6543C81.2432 8.6543 81.6305 8.72721 81.9131 8.87305C82.1956 9.01432 82.4645 9.18294 82.7197 9.37891L82.1387 10.0557C82.0065 9.92806 81.8333 9.80957 81.6191 9.7002C81.4049 9.59082 81.152 9.53613 80.8604 9.53613C80.6097 9.53613 80.375 9.59993 80.1562 9.72754C79.9375 9.85514 79.7393 10.0465 79.5615 10.3018C79.3883 10.557 79.2425 10.8737 79.124 11.252C79.0055 11.6257 78.9235 12.0632 78.8779 12.5645ZM88.4277 8.02539L90.0479 10.7188L91.6885 8.02539H93.1719L90.752 11.6758L93.2471 15.4219H91.7842L90.0752 12.6465L88.3662 15.4219H86.8965L89.3848 11.6758L86.9717 8.02539H88.4277ZM98.8799 14.1572V10.3496C98.8799 10.0579 98.8206 9.80501 98.7021 9.59082C98.5882 9.37207 98.415 9.20345 98.1826 9.08496C97.9502 8.96647 97.6631 8.90723 97.3213 8.90723C97.0023 8.90723 96.722 8.96191 96.4805 9.07129C96.2435 9.18066 96.0566 9.32422 95.9199 9.50195C95.7878 9.67969 95.7217 9.87109 95.7217 10.0762H94.457C94.457 9.81185 94.5254 9.5498 94.6621 9.29004C94.7988 9.03027 94.9948 8.79557 95.25 8.58594C95.5098 8.37174 95.8197 8.20312 96.1797 8.08008C96.5443 7.95247 96.9499 7.88867 97.3965 7.88867C97.9342 7.88867 98.4082 7.97982 98.8184 8.16211C99.2331 8.3444 99.5566 8.62012 99.7891 8.98926C100.026 9.35384 100.145 9.81185 100.145 10.3633V13.8086C100.145 14.0547 100.165 14.3167 100.206 14.5947C100.252 14.8727 100.318 15.112 100.404 15.3125V15.4219H99.085C99.0212 15.276 98.971 15.0824 98.9346 14.8408C98.8981 14.5947 98.8799 14.3669 98.8799 14.1572ZM99.0986 10.9375L99.1123 11.8262H97.834C97.474 11.8262 97.1527 11.8558 96.8701 11.915C96.5876 11.9697 96.3506 12.054 96.1592 12.168C95.9678 12.2819 95.8219 12.4255 95.7217 12.5986C95.6214 12.7673 95.5713 12.9655 95.5713 13.1934C95.5713 13.4258 95.6237 13.6377 95.7285 13.8291C95.8333 14.0205 95.9906 14.1732 96.2002 14.2871C96.4144 14.3965 96.6764 14.4512 96.9863 14.4512C97.3737 14.4512 97.7155 14.3691 98.0117 14.2051C98.3079 14.041 98.5426 13.8405 98.7158 13.6035C98.8936 13.3665 98.9893 13.1364 99.0029 12.9131L99.543 13.5215C99.5111 13.7129 99.4245 13.9248 99.2832 14.1572C99.1419 14.3896 98.9528 14.613 98.7158 14.8271C98.4834 15.0368 98.2054 15.2122 97.8818 15.3535C97.5628 15.4902 97.2028 15.5586 96.8018 15.5586C96.3005 15.5586 95.8607 15.4606 95.4824 15.2646C95.1087 15.0687 94.8171 14.8066 94.6074 14.4785C94.4023 14.1458 94.2998 13.7744 94.2998 13.3643C94.2998 12.9678 94.3773 12.6191 94.5322 12.3184C94.6872 12.013 94.9105 11.7601 95.2021 11.5596C95.4938 11.3545 95.8447 11.1995 96.2549 11.0947C96.665 10.9899 97.123 10.9375 97.6289 10.9375H99.0986ZM103.398 9.60449V15.4219H102.134V8.02539H103.33L103.398 9.60449ZM103.098 11.4434L102.571 11.4229C102.576 10.917 102.651 10.4499 102.797 10.0215C102.943 9.58854 103.148 9.21257 103.412 8.89355C103.676 8.57454 103.991 8.32845 104.355 8.15527C104.725 7.97754 105.132 7.88867 105.579 7.88867C105.944 7.88867 106.272 7.9388 106.563 8.03906C106.855 8.13477 107.104 8.28971 107.309 8.50391C107.518 8.7181 107.678 8.99609 107.787 9.33789C107.896 9.67513 107.951 10.0876 107.951 10.5752V15.4219H106.68V10.5615C106.68 10.1742 106.623 9.86426 106.509 9.63184C106.395 9.39486 106.229 9.22396 106.01 9.11914C105.791 9.00977 105.522 8.95508 105.203 8.95508C104.889 8.95508 104.602 9.02116 104.342 9.15332C104.087 9.28548 103.866 9.46777 103.679 9.7002C103.496 9.93262 103.353 10.1992 103.248 10.5C103.148 10.7962 103.098 11.1107 103.098 11.4434ZM114.534 13.9863V4.92188H115.806V15.4219H114.644L114.534 13.9863ZM109.558 11.8057V11.6621C109.558 11.097 109.626 10.5843 109.763 10.124C109.904 9.65918 110.102 9.26042 110.357 8.92773C110.617 8.59505 110.925 8.33984 111.28 8.16211C111.64 7.97982 112.041 7.88867 112.483 7.88867C112.948 7.88867 113.354 7.9707 113.7 8.13477C114.051 8.29427 114.347 8.52897 114.589 8.83887C114.835 9.14421 115.029 9.51335 115.17 9.94629C115.311 10.3792 115.409 10.8691 115.464 11.416V12.0449C115.414 12.5872 115.316 13.0749 115.17 13.5078C115.029 13.9408 114.835 14.3099 114.589 14.6152C114.347 14.9206 114.051 15.1553 113.7 15.3193C113.349 15.4788 112.939 15.5586 112.47 15.5586C112.037 15.5586 111.64 15.4652 111.28 15.2783C110.925 15.0915 110.617 14.8294 110.357 14.4922C110.102 14.1549 109.904 13.7585 109.763 13.3027C109.626 12.8424 109.558 12.3434 109.558 11.8057ZM110.829 11.6621V11.8057C110.829 12.1748 110.866 12.5212 110.938 12.8447C111.016 13.1683 111.134 13.4531 111.294 13.6992C111.453 13.9453 111.656 14.139 111.902 14.2803C112.148 14.417 112.442 14.4854 112.784 14.4854C113.203 14.4854 113.548 14.3965 113.816 14.2188C114.09 14.041 114.309 13.8063 114.473 13.5146C114.637 13.223 114.764 12.9062 114.855 12.5645V10.917C114.801 10.6663 114.721 10.4248 114.616 10.1924C114.516 9.9554 114.384 9.74577 114.22 9.56348C114.06 9.37663 113.862 9.22852 113.625 9.11914C113.393 9.00977 113.117 8.95508 112.798 8.95508C112.451 8.95508 112.153 9.02799 111.902 9.17383C111.656 9.3151 111.453 9.51107 111.294 9.76172C111.134 10.0078 111.016 10.2949 110.938 10.623C110.866 10.9466 110.829 11.293 110.829 11.6621ZM119.039 9.1875V15.4219H117.774V8.02539H119.005L119.039 9.1875ZM121.35 7.98438L121.343 9.16016C121.238 9.13737 121.138 9.1237 121.042 9.11914C120.951 9.11003 120.846 9.10547 120.728 9.10547C120.436 9.10547 120.178 9.15104 119.955 9.24219C119.732 9.33333 119.543 9.46094 119.388 9.625C119.233 9.78906 119.11 9.98503 119.019 10.2129C118.932 10.4362 118.875 10.6823 118.848 10.9512L118.492 11.1562C118.492 10.7096 118.535 10.2904 118.622 9.89844C118.713 9.50651 118.852 9.16016 119.039 8.85938C119.226 8.55404 119.463 8.31706 119.75 8.14844C120.042 7.97526 120.388 7.88867 120.789 7.88867C120.88 7.88867 120.985 7.90007 121.104 7.92285C121.222 7.94108 121.304 7.96159 121.35 7.98438ZM126.606 14.1572V10.3496C126.606 10.0579 126.547 9.80501 126.429 9.59082C126.315 9.37207 126.142 9.20345 125.909 9.08496C125.677 8.96647 125.39 8.90723 125.048 8.90723C124.729 8.90723 124.449 8.96191 124.207 9.07129C123.97 9.18066 123.783 9.32422 123.646 9.50195C123.514 9.67969 123.448 9.87109 123.448 10.0762H122.184C122.184 9.81185 122.252 9.5498 122.389 9.29004C122.525 9.03027 122.721 8.79557 122.977 8.58594C123.236 8.37174 123.546 8.20312 123.906 8.08008C124.271 7.95247 124.676 7.88867 125.123 7.88867C125.661 7.88867 126.135 7.97982 126.545 8.16211C126.96 8.3444 127.283 8.62012 127.516 8.98926C127.753 9.35384 127.871 9.81185 127.871 10.3633V13.8086C127.871 14.0547 127.892 14.3167 127.933 14.5947C127.978 14.8727 128.044 15.112 128.131 15.3125V15.4219H126.812C126.748 15.276 126.698 15.0824 126.661 14.8408C126.625 14.5947 126.606 14.3669 126.606 14.1572ZM126.825 10.9375L126.839 11.8262H125.561C125.201 11.8262 124.879 11.8558 124.597 11.915C124.314 11.9697 124.077 12.054 123.886 12.168C123.694 12.2819 123.549 12.4255 123.448 12.5986C123.348 12.7673 123.298 12.9655 123.298 13.1934C123.298 13.4258 123.35 13.6377 123.455 13.8291C123.56 14.0205 123.717 14.1732 123.927 14.2871C124.141 14.3965 124.403 14.4512 124.713 14.4512C125.1 14.4512 125.442 14.3691 125.738 14.2051C126.035 14.041 126.269 13.8405 126.442 13.6035C126.62 13.3665 126.716 13.1364 126.729 12.9131L127.27 13.5215C127.238 13.7129 127.151 13.9248 127.01 14.1572C126.868 14.3896 126.679 14.613 126.442 14.8271C126.21 15.0368 125.932 15.2122 125.608 15.3535C125.289 15.4902 124.929 15.5586 124.528 15.5586C124.027 15.5586 123.587 15.4606 123.209 15.2646C122.835 15.0687 122.544 14.8066 122.334 14.4785C122.129 14.1458 122.026 13.7744 122.026 13.3643C122.026 12.9678 122.104 12.6191 122.259 12.3184C122.414 12.013 122.637 11.7601 122.929 11.5596C123.22 11.3545 123.571 11.1995 123.981 11.0947C124.392 10.9899 124.85 10.9375 125.355 10.9375H126.825ZM131.118 9.49512V15.4219H129.847V8.02539H131.05L131.118 9.49512ZM130.858 11.4434L130.271 11.4229C130.275 10.917 130.341 10.4499 130.469 10.0215C130.596 9.58854 130.785 9.21257 131.036 8.89355C131.287 8.57454 131.599 8.32845 131.973 8.15527C132.346 7.97754 132.779 7.88867 133.271 7.88867C133.618 7.88867 133.937 7.9388 134.229 8.03906C134.52 8.13477 134.773 8.28743 134.987 8.49707C135.201 8.70671 135.368 8.97559 135.486 9.30371C135.605 9.63184 135.664 10.0283 135.664 10.4932V15.4219H134.399V10.5547C134.399 10.1673 134.333 9.85742 134.201 9.625C134.074 9.39258 133.891 9.22396 133.654 9.11914C133.417 9.00977 133.139 8.95508 132.82 8.95508C132.447 8.95508 132.134 9.02116 131.884 9.15332C131.633 9.28548 131.433 9.46777 131.282 9.7002C131.132 9.93262 131.022 10.1992 130.954 10.5C130.89 10.7962 130.858 11.1107 130.858 11.4434ZM135.65 10.7461L134.803 11.0059C134.807 10.6003 134.873 10.2106 135.001 9.83691C135.133 9.46322 135.322 9.13053 135.568 8.83887C135.819 8.5472 136.127 8.31706 136.491 8.14844C136.856 7.97526 137.273 7.88867 137.742 7.88867C138.139 7.88867 138.49 7.94108 138.795 8.0459C139.105 8.15072 139.365 8.3125 139.574 8.53125C139.788 8.74544 139.95 9.02116 140.06 9.3584C140.169 9.69564 140.224 10.0967 140.224 10.5615V15.4219H138.952V10.5479C138.952 10.1331 138.886 9.81185 138.754 9.58398C138.626 9.35156 138.444 9.18978 138.207 9.09863C137.975 9.00293 137.697 8.95508 137.373 8.95508C137.095 8.95508 136.849 9.00293 136.635 9.09863C136.421 9.19434 136.241 9.3265 136.095 9.49512C135.949 9.65918 135.837 9.84831 135.76 10.0625C135.687 10.2767 135.65 10.5046 135.65 10.7461ZM145.207 15.5586C144.692 15.5586 144.225 15.472 143.806 15.2988C143.391 15.1211 143.033 14.8727 142.732 14.5537C142.436 14.2347 142.208 13.8564 142.049 13.4189C141.889 12.9814 141.81 12.5029 141.81 11.9834V11.6963C141.81 11.0947 141.898 10.5592 142.076 10.0898C142.254 9.61589 142.495 9.21484 142.801 8.88672C143.106 8.55859 143.452 8.31022 143.84 8.1416C144.227 7.97298 144.628 7.88867 145.043 7.88867C145.572 7.88867 146.027 7.97982 146.41 8.16211C146.798 8.3444 147.114 8.59961 147.36 8.92773C147.606 9.2513 147.789 9.63411 147.907 10.0762C148.026 10.5137 148.085 10.9922 148.085 11.5117V12.0791H142.562V11.0469H146.82V10.9512C146.802 10.623 146.734 10.304 146.615 9.99414C146.501 9.68424 146.319 9.42904 146.068 9.22852C145.818 9.02799 145.476 8.92773 145.043 8.92773C144.756 8.92773 144.492 8.98926 144.25 9.1123C144.008 9.23079 143.801 9.40853 143.628 9.64551C143.455 9.88249 143.32 10.1719 143.225 10.5137C143.129 10.8555 143.081 11.2497 143.081 11.6963V11.9834C143.081 12.3343 143.129 12.6647 143.225 12.9746C143.325 13.2799 143.468 13.5488 143.655 13.7812C143.847 14.0137 144.077 14.196 144.346 14.3281C144.619 14.4603 144.929 14.5264 145.275 14.5264C145.722 14.5264 146.1 14.4352 146.41 14.2529C146.72 14.0706 146.991 13.8268 147.224 13.5215L147.989 14.1299C147.83 14.3714 147.627 14.6016 147.381 14.8203C147.135 15.0391 146.832 15.2168 146.472 15.3535C146.116 15.4902 145.695 15.5586 145.207 15.5586ZM153.868 13.46C153.868 13.2777 153.827 13.109 153.745 12.9541C153.668 12.7946 153.506 12.651 153.26 12.5234C153.018 12.3913 152.654 12.2773 152.166 12.1816C151.756 12.0951 151.384 11.9925 151.052 11.874C150.724 11.7555 150.443 11.612 150.211 11.4434C149.983 11.2747 149.808 11.0765 149.685 10.8486C149.562 10.6208 149.5 10.3542 149.5 10.0488C149.5 9.75716 149.564 9.48145 149.691 9.22168C149.824 8.96191 150.008 8.73177 150.245 8.53125C150.487 8.33073 150.776 8.1735 151.113 8.05957C151.451 7.94564 151.826 7.88867 152.241 7.88867C152.834 7.88867 153.34 7.99349 153.759 8.20312C154.178 8.41276 154.499 8.69303 154.723 9.04395C154.946 9.3903 155.058 9.77539 155.058 10.1992H153.793C153.793 9.99414 153.731 9.7959 153.608 9.60449C153.49 9.40853 153.314 9.24674 153.082 9.11914C152.854 8.99154 152.574 8.92773 152.241 8.92773C151.89 8.92773 151.605 8.98242 151.387 9.0918C151.173 9.19661 151.015 9.33105 150.915 9.49512C150.819 9.65918 150.771 9.83236 150.771 10.0146C150.771 10.1514 150.794 10.2744 150.84 10.3838C150.89 10.4886 150.977 10.5866 151.1 10.6777C151.223 10.7643 151.396 10.8464 151.619 10.9238C151.842 11.0013 152.127 11.0788 152.474 11.1562C153.08 11.293 153.579 11.457 153.971 11.6484C154.363 11.8398 154.654 12.0745 154.846 12.3525C155.037 12.6305 155.133 12.9678 155.133 13.3643C155.133 13.6878 155.064 13.984 154.928 14.2529C154.796 14.5218 154.602 14.7542 154.347 14.9502C154.096 15.1416 153.795 15.292 153.444 15.4014C153.098 15.5062 152.708 15.5586 152.275 15.5586C151.624 15.5586 151.072 15.4424 150.621 15.21C150.17 14.9775 149.828 14.6768 149.596 14.3076C149.363 13.9385 149.247 13.5488 149.247 13.1387H150.519C150.537 13.485 150.637 13.7607 150.819 13.9658C151.002 14.1663 151.225 14.3099 151.489 14.3965C151.754 14.4785 152.016 14.5195 152.275 14.5195C152.622 14.5195 152.911 14.474 153.144 14.3828C153.381 14.2917 153.561 14.1663 153.684 14.0068C153.807 13.8473 153.868 13.665 153.868 13.46ZM163.179 14.3828V15.4219H156.664V14.5127L159.925 10.8828C160.326 10.4362 160.636 10.0579 160.854 9.74805C161.078 9.43359 161.233 9.15332 161.319 8.90723C161.41 8.65658 161.456 8.40137 161.456 8.1416C161.456 7.81348 161.388 7.51725 161.251 7.25293C161.119 6.98405 160.923 6.76986 160.663 6.61035C160.403 6.45085 160.089 6.37109 159.72 6.37109C159.278 6.37109 158.909 6.45768 158.612 6.63086C158.321 6.79948 158.102 7.03646 157.956 7.3418C157.81 7.64714 157.737 7.99805 157.737 8.39453H156.473C156.473 7.83398 156.596 7.32129 156.842 6.85645C157.088 6.3916 157.452 6.02246 157.936 5.74902C158.419 5.47103 159.013 5.33203 159.72 5.33203C160.349 5.33203 160.886 5.44368 161.333 5.66699C161.78 5.88574 162.121 6.19564 162.358 6.59668C162.6 6.99316 162.721 7.45801 162.721 7.99121C162.721 8.28288 162.671 8.5791 162.57 8.87988C162.475 9.17611 162.34 9.47233 162.167 9.76855C161.998 10.0648 161.8 10.3564 161.572 10.6436C161.349 10.9307 161.11 11.2132 160.854 11.4912L158.188 14.3828H163.179Z" fill="#00376B"/>
<path d="M167.178 16.4019H181.178V2.40187H167.178V16.4019ZM181.178 16.4019H195.178V2.40187H181.178V16.4019Z" fill="#262626"/>
<g clip-path="url(#clip0_1_206)">
<path d="M466.396 6.37388C467.053 6.41021 467.67 6.70483 468.11 7.19353C468.551 7.68223 468.781 8.3254 468.75 8.98288C468.75 10.5189 467.424 11.4624 466.152 12.5939C464.896 13.7154 464.219 14.3284 464 14.4699C463.762 14.3154 462.929 13.5584 461.849 12.5939C460.571 11.4579 459.25 10.5054 459.25 8.98288C459.219 8.3254 459.449 7.68223 459.89 7.19353C460.331 6.70483 460.947 6.41021 461.604 6.37388C461.968 6.36284 462.329 6.44647 462.651 6.61658C462.973 6.78669 463.245 7.03746 463.442 7.34438C463.862 7.93188 463.932 8.22588 464.002 8.22588C464.072 8.22588 464.141 7.93188 464.557 7.34288C464.752 7.03454 465.024 6.78277 465.347 6.61273C465.67 6.44269 466.031 6.36033 466.396 6.37388ZM466.396 5.37388C465.942 5.35934 465.491 5.44742 465.075 5.63155C464.66 5.81569 464.292 6.09113 463.998 6.43738C463.704 6.09214 463.336 5.81733 462.922 5.63325C462.508 5.44917 462.057 5.36053 461.604 5.37388C460.682 5.40995 459.811 5.80987 459.182 6.48617C458.554 7.16248 458.219 8.06014 458.25 8.98288C458.25 10.7879 459.525 11.8964 460.758 12.9679C460.899 13.0909 461.042 13.2149 461.184 13.3414L461.698 13.8004C462.258 14.3333 462.845 14.8369 463.457 15.3094C463.618 15.4142 463.807 15.47 464 15.47C464.193 15.47 464.382 15.4142 464.544 15.3094C465.175 14.8225 465.78 14.3026 466.357 13.7519L466.818 13.3399C466.964 13.2099 467.113 13.0804 467.26 12.9529C468.427 11.9404 469.75 10.7929 469.75 8.98288C469.782 8.06014 469.446 7.16248 468.818 6.48617C468.189 5.80987 467.319 5.40995 466.396 5.37388Z" fill="#8E8E8E"/>
</g>
<defs>
<clipPath id="clip0_1_206">
<rect width="12" height="12" fill="white" transform="translate(458 4.42188)"/>
</clipPath>
</defs>
</svg>
