<svg width="470" height="71" viewBox="0 0 470 71" fill="none" xmlns="http://www.w3.org/2000/svg">
<path d="M5.2793 33.7852C5.2793 33.6211 5.25391 33.4746 5.20312 33.3457C5.15625 33.2129 5.06836 33.0938 4.93945 32.9883C4.81445 32.8789 4.63672 32.7734 4.40625 32.6719C4.17969 32.5664 3.88672 32.457 3.52734 32.3438C3.12891 32.2188 2.75781 32.0781 2.41406 31.9219C2.07031 31.7656 1.76758 31.584 1.50586 31.377C1.24805 31.1699 1.04688 30.9316 0.902344 30.6621C0.757812 30.3887 0.685547 30.0723 0.685547 29.7129C0.685547 29.3613 0.759766 29.041 0.908203 28.752C1.06055 28.4629 1.27539 28.2148 1.55273 28.0078C1.83008 27.7969 2.15625 27.6348 2.53125 27.5215C2.91016 27.4082 3.32812 27.3516 3.78516 27.3516C4.41797 27.3516 4.96484 27.4668 5.42578 27.6973C5.89062 27.9277 6.25 28.2402 6.50391 28.6348C6.75781 29.0293 6.88477 29.4727 6.88477 29.9648H5.2793C5.2793 29.6992 5.22266 29.4648 5.10938 29.2617C5 29.0586 4.83203 28.8984 4.60547 28.7812C4.38281 28.6641 4.10156 28.6055 3.76172 28.6055C3.43359 28.6055 3.16016 28.6543 2.94141 28.752C2.72656 28.8496 2.56445 28.9824 2.45508 29.1504C2.34961 29.3184 2.29688 29.5059 2.29688 29.7129C2.29688 29.8691 2.33398 30.0098 2.4082 30.1348C2.48242 30.2559 2.59375 30.3711 2.74219 30.4805C2.89062 30.5859 3.07422 30.6855 3.29297 30.7793C3.51562 30.8691 3.77344 30.959 4.06641 31.0488C4.53516 31.1895 4.94531 31.3457 5.29688 31.5176C5.65234 31.6895 5.94727 31.8848 6.18164 32.1035C6.41992 32.3223 6.59766 32.5684 6.71484 32.8418C6.83594 33.1152 6.89648 33.4258 6.89648 33.7734C6.89648 34.1406 6.82422 34.4688 6.67969 34.7578C6.53516 35.0469 6.32812 35.293 6.05859 35.4961C5.78906 35.6992 5.46484 35.8535 5.08594 35.959C4.71094 36.0645 4.29102 36.1172 3.82617 36.1172C3.41211 36.1172 3.00195 36.0625 2.5957 35.9531C2.19336 35.8398 1.82812 35.6719 1.5 35.4492C1.17188 35.2227 0.910156 34.9375 0.714844 34.5938C0.519531 34.2461 0.421875 33.8398 0.421875 33.375H2.03906C2.03906 33.6445 2.08203 33.875 2.16797 34.0664C2.25781 34.2539 2.38281 34.4082 2.54297 34.5293C2.70703 34.6465 2.89844 34.7324 3.11719 34.7871C3.33594 34.8418 3.57227 34.8691 3.82617 34.8691C4.1543 34.8691 4.42383 34.8242 4.63477 34.7344C4.84961 34.6406 5.00977 34.5117 5.11523 34.3477C5.22461 34.1836 5.2793 33.9961 5.2793 33.7852ZM10.8691 36.1172C10.3887 36.1172 9.95703 36.0391 9.57422 35.8828C9.19141 35.7266 8.86523 35.5098 8.5957 35.2324C8.33008 34.9512 8.125 34.625 7.98047 34.2539C7.83984 33.8789 7.76953 33.4766 7.76953 33.0469V32.8125C7.76953 32.3242 7.83984 31.8809 7.98047 31.4824C8.12109 31.0801 8.32031 30.7344 8.57812 30.4453C8.83594 30.1562 9.14453 29.9336 9.50391 29.7773C9.86328 29.6211 10.2598 29.543 10.6934 29.543C11.1426 29.543 11.5391 29.6191 11.8828 29.7715C12.2266 29.9199 12.5137 30.1309 12.7441 30.4043C12.9746 30.6777 13.1484 31.0059 13.2656 31.3887C13.3828 31.7676 13.4414 32.1875 13.4414 32.6484V33.2988H8.47266V32.2324H11.918V32.1152C11.9102 31.8691 11.8633 31.6445 11.7773 31.4414C11.6914 31.2344 11.5586 31.0703 11.3789 30.9492C11.1992 30.8242 10.9668 30.7617 10.6816 30.7617C10.4512 30.7617 10.25 30.8125 10.0781 30.9141C9.91016 31.0117 9.76953 31.1523 9.65625 31.3359C9.54688 31.5156 9.46484 31.7305 9.41016 31.9805C9.35547 32.2305 9.32812 32.5078 9.32812 32.8125V33.0469C9.32812 33.3125 9.36328 33.5586 9.43359 33.7852C9.50781 34.0117 9.61523 34.209 9.75586 34.377C9.90039 34.541 10.0723 34.6699 10.2715 34.7637C10.4746 34.8535 10.7051 34.8984 10.9629 34.8984C11.2871 34.8984 11.5801 34.8359 11.8418 34.7109C12.1074 34.582 12.3379 34.3926 12.5332 34.1426L13.3125 34.9512C13.1797 35.1465 13 35.334 12.7734 35.5137C12.5508 35.6934 12.2812 35.8398 11.9648 35.9531C11.6484 36.0625 11.2832 36.1172 10.8691 36.1172ZM17.3262 36.1172C16.8457 36.1172 16.4141 36.0391 16.0312 35.8828C15.6484 35.7266 15.3223 35.5098 15.0527 35.2324C14.7871 34.9512 14.582 34.625 14.4375 34.2539C14.2969 33.8789 14.2266 33.4766 14.2266 33.0469V32.8125C14.2266 32.3242 14.2969 31.8809 14.4375 31.4824C14.5781 31.0801 14.7773 30.7344 15.0352 30.4453C15.293 30.1562 15.6016 29.9336 15.9609 29.7773C16.3203 29.6211 16.7168 29.543 17.1504 29.543C17.5996 29.543 17.9961 29.6191 18.3398 29.7715C18.6836 29.9199 18.9707 30.1309 19.2012 30.4043C19.4316 30.6777 19.6055 31.0059 19.7227 31.3887C19.8398 31.7676 19.8984 32.1875 19.8984 32.6484V33.2988H14.9297V32.2324H18.375V32.1152C18.3672 31.8691 18.3203 31.6445 18.2344 31.4414C18.1484 31.2344 18.0156 31.0703 17.8359 30.9492C17.6562 30.8242 17.4238 30.7617 17.1387 30.7617C16.9082 30.7617 16.707 30.8125 16.5352 30.9141C16.3672 31.0117 16.2266 31.1523 16.1133 31.3359C16.0039 31.5156 15.9219 31.7305 15.8672 31.9805C15.8125 32.2305 15.7852 32.5078 15.7852 32.8125V33.0469C15.7852 33.3125 15.8203 33.5586 15.8906 33.7852C15.9648 34.0117 16.0723 34.209 16.2129 34.377C16.3574 34.541 16.5293 34.6699 16.7285 34.7637C16.9316 34.8535 17.1621 34.8984 17.4199 34.8984C17.7441 34.8984 18.0371 34.8359 18.2988 34.7109C18.5645 34.582 18.7949 34.3926 18.9902 34.1426L19.7695 34.9512C19.6367 35.1465 19.457 35.334 19.2305 35.5137C19.0078 35.6934 18.7383 35.8398 18.4219 35.9531C18.1055 36.0625 17.7402 36.1172 17.3262 36.1172ZM26.9238 29.6602V30.7734H23.291V29.6602H26.9238ZM24.2637 28.1016H25.8164V34.1719C25.8164 34.3594 25.8418 34.5039 25.8926 34.6055C25.9434 34.707 26.0195 34.7754 26.1211 34.8105C26.2227 34.8457 26.3438 34.8633 26.4844 34.8633C26.5859 34.8633 26.6797 34.8574 26.7656 34.8457C26.8516 34.834 26.9238 34.8223 26.9824 34.8105L26.9883 35.9707C26.8594 36.0137 26.7129 36.0488 26.5488 36.0762C26.3887 36.1035 26.207 36.1172 26.0039 36.1172C25.6562 36.1172 25.3516 36.0586 25.0898 35.9414C24.8281 35.8203 24.625 35.627 24.4805 35.3613C24.3359 35.0918 24.2637 34.7363 24.2637 34.2949V28.1016ZM29.502 30.9551V36H27.9551V29.6602H29.4199L29.502 30.9551ZM31.4297 29.6191L31.4062 31.0605C31.3203 31.0449 31.2227 31.0332 31.1133 31.0254C31.0078 31.0176 30.9082 31.0137 30.8145 31.0137C30.5762 31.0137 30.3672 31.0469 30.1875 31.1133C30.0078 31.1758 29.8574 31.2676 29.7363 31.3887C29.6191 31.5098 29.5293 31.6582 29.4668 31.834C29.4043 32.0059 29.3691 32.2012 29.3613 32.4199L29.0273 32.3789C29.0273 31.9766 29.0684 31.6035 29.1504 31.2598C29.2324 30.916 29.3516 30.6152 29.5078 30.3574C29.6641 30.0996 29.8594 29.9004 30.0938 29.7598C30.332 29.6152 30.6055 29.543 30.9141 29.543C31 29.543 31.0918 29.5508 31.1895 29.5664C31.291 29.5781 31.3711 29.5957 31.4297 29.6191ZM35.5723 34.6523V31.7285C35.5723 31.5137 35.5352 31.3281 35.4609 31.1719C35.3867 31.0156 35.2734 30.8945 35.1211 30.8086C34.9688 30.7227 34.7754 30.6797 34.541 30.6797C34.334 30.6797 34.1523 30.7148 33.9961 30.7852C33.8438 30.8555 33.7266 30.9551 33.6445 31.084C33.5625 31.209 33.5215 31.3535 33.5215 31.5176H31.9688C31.9688 31.2559 32.0312 31.0078 32.1562 30.7734C32.2812 30.5352 32.459 30.3242 32.6895 30.1406C32.9238 29.9531 33.2031 29.8066 33.5273 29.7012C33.8555 29.5957 34.2227 29.543 34.6289 29.543C35.1094 29.543 35.5371 29.625 35.9121 29.7891C36.291 29.9492 36.5879 30.1914 36.8027 30.5156C37.0215 30.8398 37.1309 31.248 37.1309 31.7402V34.5059C37.1309 34.8223 37.1504 35.0938 37.1895 35.3203C37.2324 35.543 37.2949 35.7363 37.377 35.9004V36H35.8008C35.7266 35.8398 35.6699 35.6367 35.6309 35.3906C35.5918 35.1406 35.5723 34.8945 35.5723 34.6523ZM35.7891 32.1387L35.8008 33.0586H34.8223C34.5801 33.0586 34.3672 33.084 34.1836 33.1348C34 33.1816 33.8496 33.252 33.7324 33.3457C33.6152 33.4355 33.5273 33.5449 33.4688 33.6738C33.4102 33.7988 33.3809 33.9414 33.3809 34.1016C33.3809 34.2578 33.416 34.3984 33.4863 34.5234C33.5605 34.6484 33.666 34.748 33.8027 34.8223C33.9434 34.8926 34.1074 34.9277 34.2949 34.9277C34.5684 34.9277 34.8066 34.873 35.0098 34.7637C35.2129 34.6504 35.3711 34.5137 35.4844 34.3535C35.5977 34.1934 35.6582 34.041 35.666 33.8965L36.1113 34.5645C36.0566 34.7246 35.9746 34.8945 35.8652 35.0742C35.7559 35.2539 35.6152 35.4219 35.4434 35.5781C35.2715 35.7344 35.0645 35.8633 34.8223 35.9648C34.5801 36.0664 34.2988 36.1172 33.9785 36.1172C33.5684 36.1172 33.2012 36.0352 32.877 35.8711C32.5527 35.707 32.2969 35.4824 32.1094 35.1973C31.9219 34.9121 31.8281 34.5879 31.8281 34.2246C31.8281 33.8887 31.8906 33.5918 32.0156 33.334C32.1406 33.0762 32.3262 32.8594 32.5723 32.6836C32.8184 32.5039 33.123 32.3691 33.4863 32.2793C33.8535 32.1855 34.2734 32.1387 34.7461 32.1387H35.7891ZM40.043 31.0137V36H38.4961V29.6602H39.9492L40.043 31.0137ZM39.7969 32.6016H39.3398C39.3438 32.1406 39.4062 31.7227 39.5273 31.3477C39.6484 30.9727 39.8184 30.6504 40.0371 30.3809C40.2598 30.1113 40.5234 29.9043 40.8281 29.7598C41.1328 29.6152 41.4727 29.543 41.8477 29.543C42.1523 29.543 42.4277 29.5859 42.6738 29.6719C42.9199 29.7578 43.1309 29.8945 43.3066 30.082C43.4863 30.2695 43.623 30.5156 43.7168 30.8203C43.8145 31.1211 43.8633 31.4922 43.8633 31.9336V36H42.3047V31.9219C42.3047 31.6328 42.2617 31.4043 42.1758 31.2363C42.0938 31.0684 41.9727 30.9492 41.8125 30.8789C41.6562 30.8086 41.4629 30.7734 41.2324 30.7734C40.9941 30.7734 40.7852 30.8223 40.6055 30.9199C40.4297 31.0137 40.2812 31.1445 40.1602 31.3125C40.043 31.4805 39.9531 31.6738 39.8906 31.8926C39.8281 32.1113 39.7969 32.3477 39.7969 32.6016ZM48.7148 34.2656C48.7148 34.1328 48.6797 34.0137 48.6094 33.9082C48.5391 33.8027 48.4062 33.707 48.2109 33.6211C48.0195 33.5312 47.7383 33.4473 47.3672 33.3691C47.0391 33.2988 46.7363 33.2109 46.459 33.1055C46.1816 33 45.9434 32.873 45.7441 32.7246C45.5449 32.5723 45.3887 32.3945 45.2754 32.1914C45.166 31.9844 45.1113 31.7461 45.1113 31.4766C45.1113 31.2148 45.168 30.9688 45.2812 30.7383C45.3945 30.5039 45.5586 30.2988 45.7734 30.123C45.9883 29.9434 46.25 29.8027 46.5586 29.7012C46.8672 29.5957 47.2148 29.543 47.6016 29.543C48.1406 29.543 48.6035 29.6309 48.9902 29.8066C49.3809 29.9824 49.6797 30.2246 49.8867 30.5332C50.0938 30.8379 50.1973 31.1816 50.1973 31.5645H48.6504C48.6504 31.3965 48.6113 31.2441 48.5332 31.1074C48.459 30.9707 48.3438 30.8613 48.1875 30.7793C48.0312 30.6934 47.834 30.6504 47.5957 30.6504C47.3809 30.6504 47.1992 30.6855 47.0508 30.7559C46.9062 30.8262 46.7969 30.918 46.7227 31.0312C46.6484 31.1445 46.6113 31.2695 46.6113 31.4062C46.6113 31.5078 46.6309 31.5996 46.6699 31.6816C46.7129 31.7598 46.7812 31.832 46.875 31.8984C46.9688 31.9648 47.0957 32.0254 47.2559 32.0801C47.4199 32.1348 47.6211 32.1875 47.8594 32.2383C48.332 32.332 48.7441 32.457 49.0957 32.6133C49.4512 32.7656 49.7285 32.9688 49.9277 33.2227C50.127 33.4766 50.2266 33.8008 50.2266 34.1953C50.2266 34.4766 50.166 34.7344 50.0449 34.9688C49.9238 35.1992 49.748 35.4004 49.5176 35.5723C49.2871 35.7441 49.0117 35.8789 48.6914 35.9766C48.3711 36.0703 48.0098 36.1172 47.6074 36.1172C47.0254 36.1172 46.5332 36.0137 46.1309 35.8066C45.7285 35.5957 45.4238 35.3301 45.2168 35.0098C45.0098 34.6855 44.9062 34.3496 44.9062 34.002H46.3887C46.4004 34.248 46.4668 34.4453 46.5879 34.5938C46.709 34.7422 46.8613 34.8496 47.0449 34.916C47.2324 34.9785 47.4297 35.0098 47.6367 35.0098C47.8711 35.0098 48.0684 34.9785 48.2285 34.916C48.3887 34.8496 48.5098 34.7617 48.5918 34.6523C48.6738 34.5391 48.7148 34.4102 48.7148 34.2656ZM53.0449 27V36H51.4922V27H53.0449ZM58.0137 34.6523V31.7285C58.0137 31.5137 57.9766 31.3281 57.9023 31.1719C57.8281 31.0156 57.7148 30.8945 57.5625 30.8086C57.4102 30.7227 57.2168 30.6797 56.9824 30.6797C56.7754 30.6797 56.5938 30.7148 56.4375 30.7852C56.2852 30.8555 56.168 30.9551 56.0859 31.084C56.0039 31.209 55.9629 31.3535 55.9629 31.5176H54.4102C54.4102 31.2559 54.4727 31.0078 54.5977 30.7734C54.7227 30.5352 54.9004 30.3242 55.1309 30.1406C55.3652 29.9531 55.6445 29.8066 55.9688 29.7012C56.2969 29.5957 56.6641 29.543 57.0703 29.543C57.5508 29.543 57.9785 29.625 58.3535 29.7891C58.7324 29.9492 59.0293 30.1914 59.2441 30.5156C59.4629 30.8398 59.5723 31.248 59.5723 31.7402V34.5059C59.5723 34.8223 59.5918 35.0938 59.6309 35.3203C59.6738 35.543 59.7363 35.7363 59.8184 35.9004V36H58.2422C58.168 35.8398 58.1113 35.6367 58.0723 35.3906C58.0332 35.1406 58.0137 34.8945 58.0137 34.6523ZM58.2305 32.1387L58.2422 33.0586H57.2637C57.0215 33.0586 56.8086 33.084 56.625 33.1348C56.4414 33.1816 56.291 33.252 56.1738 33.3457C56.0566 33.4355 55.9688 33.5449 55.9102 33.6738C55.8516 33.7988 55.8223 33.9414 55.8223 34.1016C55.8223 34.2578 55.8574 34.3984 55.9277 34.5234C56.002 34.6484 56.1074 34.748 56.2441 34.8223C56.3848 34.8926 56.5488 34.9277 56.7363 34.9277C57.0098 34.9277 57.248 34.873 57.4512 34.7637C57.6543 34.6504 57.8125 34.5137 57.9258 34.3535C58.0391 34.1934 58.0996 34.041 58.1074 33.8965L58.5527 34.5645C58.498 34.7246 58.416 34.8945 58.3066 35.0742C58.1973 35.2539 58.0566 35.4219 57.8848 35.5781C57.7129 35.7344 57.5059 35.8633 57.2637 35.9648C57.0215 36.0664 56.7402 36.1172 56.4199 36.1172C56.0098 36.1172 55.6426 36.0352 55.3184 35.8711C54.9941 35.707 54.7383 35.4824 54.5508 35.1973C54.3633 34.9121 54.2695 34.5879 54.2695 34.2246C54.2695 33.8887 54.332 33.5918 54.457 33.334C54.582 33.0762 54.7676 32.8594 55.0137 32.6836C55.2598 32.5039 55.5645 32.3691 55.9277 32.2793C56.2949 32.1855 56.7148 32.1387 57.1875 32.1387H58.2305ZM63.9668 29.6602V30.7734H60.334V29.6602H63.9668ZM61.3066 28.1016H62.8594V34.1719C62.8594 34.3594 62.8848 34.5039 62.9355 34.6055C62.9863 34.707 63.0625 34.7754 63.1641 34.8105C63.2656 34.8457 63.3867 34.8633 63.5273 34.8633C63.6289 34.8633 63.7227 34.8574 63.8086 34.8457C63.8945 34.834 63.9668 34.8223 64.0254 34.8105L64.0312 35.9707C63.9023 36.0137 63.7559 36.0488 63.5918 36.0762C63.4316 36.1035 63.25 36.1172 63.0469 36.1172C62.6992 36.1172 62.3945 36.0586 62.1328 35.9414C61.8711 35.8203 61.668 35.627 61.5234 35.3613C61.3789 35.0918 61.3066 34.7363 61.3066 34.2949V28.1016ZM66.6387 29.6602V36H65.0859V29.6602H66.6387ZM64.9805 28.002C64.9805 27.7715 65.0586 27.5801 65.2148 27.4277C65.375 27.2754 65.5898 27.1992 65.8594 27.1992C66.1289 27.1992 66.3418 27.2754 66.498 27.4277C66.6582 27.5801 66.7383 27.7715 66.7383 28.002C66.7383 28.2285 66.6582 28.418 66.498 28.5703C66.3418 28.7227 66.1289 28.7988 65.8594 28.7988C65.5898 28.7988 65.375 28.7227 65.2148 28.5703C65.0586 28.418 64.9805 28.2285 64.9805 28.002ZM67.8398 32.8945V32.7715C67.8398 32.3066 67.9062 31.8789 68.0391 31.4883C68.1719 31.0938 68.3652 30.752 68.6191 30.4629C68.873 30.1738 69.1836 29.9492 69.5508 29.7891C69.918 29.625 70.3359 29.543 70.8047 29.543C71.2812 29.543 71.7031 29.625 72.0703 29.7891C72.4414 29.9492 72.7539 30.1738 73.0078 30.4629C73.2617 30.752 73.4551 31.0938 73.5879 31.4883C73.7207 31.8789 73.7871 32.3066 73.7871 32.7715V32.8945C73.7871 33.3555 73.7207 33.7832 73.5879 34.1777C73.4551 34.5684 73.2617 34.9102 73.0078 35.2031C72.7539 35.4922 72.4434 35.7168 72.0762 35.877C71.709 36.0371 71.2891 36.1172 70.8164 36.1172C70.3477 36.1172 69.9277 36.0371 69.5566 35.877C69.1855 35.7168 68.873 35.4922 68.6191 35.2031C68.3652 34.9102 68.1719 34.5684 68.0391 34.1777C67.9062 33.7832 67.8398 33.3555 67.8398 32.8945ZM69.3867 32.7715V32.8945C69.3867 33.1719 69.4141 33.4316 69.4688 33.6738C69.5234 33.916 69.6074 34.1289 69.7207 34.3125C69.834 34.4961 69.9805 34.6406 70.1602 34.7461C70.3438 34.8477 70.5625 34.8984 70.8164 34.8984C71.0664 34.8984 71.2812 34.8477 71.4609 34.7461C71.6406 34.6406 71.7871 34.4961 71.9004 34.3125C72.0176 34.1289 72.1035 33.916 72.1582 33.6738C72.2129 33.4316 72.2402 33.1719 72.2402 32.8945V32.7715C72.2402 32.498 72.2129 32.2422 72.1582 32.0039C72.1035 31.7617 72.0176 31.5488 71.9004 31.3652C71.7871 31.1777 71.6387 31.0312 71.4551 30.9258C71.2754 30.8164 71.0586 30.7617 70.8047 30.7617C70.5547 30.7617 70.3398 30.8164 70.1602 30.9258C69.9805 31.0312 69.834 31.1777 69.7207 31.3652C69.6074 31.5488 69.5234 31.7617 69.4688 32.0039C69.4141 32.2422 69.3867 32.498 69.3867 32.7715ZM76.4297 31.0137V36H74.8828V29.6602H76.3359L76.4297 31.0137ZM76.1836 32.6016H75.7266C75.7305 32.1406 75.793 31.7227 75.9141 31.3477C76.0352 30.9727 76.2051 30.6504 76.4238 30.3809C76.6465 30.1113 76.9102 29.9043 77.2148 29.7598C77.5195 29.6152 77.8594 29.543 78.2344 29.543C78.5391 29.543 78.8145 29.5859 79.0605 29.6719C79.3066 29.7578 79.5176 29.8945 79.6934 30.082C79.873 30.2695 80.0098 30.5156 80.1035 30.8203C80.2012 31.1211 80.25 31.4922 80.25 31.9336V36H78.6914V31.9219C78.6914 31.6328 78.6484 31.4043 78.5625 31.2363C78.4805 31.0684 78.3594 30.9492 78.1992 30.8789C78.043 30.8086 77.8496 30.7734 77.6191 30.7734C77.3809 30.7734 77.1719 30.8223 76.9922 30.9199C76.8164 31.0137 76.668 31.1445 76.5469 31.3125C76.4297 31.4805 76.3398 31.6738 76.2773 31.8926C76.2148 32.1113 76.1836 32.3477 76.1836 32.6016Z" fill="#262626"/>
<path d="M2.72754 3.5V14H0.916016V3.5H2.72754ZM7.77246 14.1367C7.21191 14.1367 6.70833 14.0456 6.26172 13.8633C5.8151 13.681 5.43457 13.4281 5.12012 13.1045C4.81022 12.7764 4.57096 12.3958 4.40234 11.9629C4.23828 11.5254 4.15625 11.056 4.15625 10.5547V10.2812C4.15625 9.71159 4.23828 9.19434 4.40234 8.72949C4.56641 8.26009 4.79883 7.85677 5.09961 7.51953C5.40039 7.18229 5.76042 6.92253 6.17969 6.74023C6.59896 6.55794 7.06152 6.4668 7.56738 6.4668C8.09147 6.4668 8.55404 6.55566 8.95508 6.7334C9.35612 6.90658 9.69108 7.15267 9.95996 7.47168C10.2288 7.79069 10.4316 8.1735 10.5684 8.62012C10.7051 9.06217 10.7734 9.55208 10.7734 10.0898V10.8486H4.97656V9.60449H8.99609V9.46777C8.98698 9.18066 8.93229 8.91862 8.83203 8.68164C8.73177 8.4401 8.57682 8.2487 8.36719 8.10742C8.15755 7.96159 7.88639 7.88867 7.55371 7.88867C7.28483 7.88867 7.05013 7.94792 6.84961 8.06641C6.65365 8.18034 6.48958 8.3444 6.35742 8.55859C6.22982 8.76823 6.13411 9.01888 6.07031 9.31055C6.00651 9.60221 5.97461 9.92578 5.97461 10.2812V10.5547C5.97461 10.8646 6.01562 11.1517 6.09766 11.416C6.18424 11.6803 6.30957 11.9105 6.47363 12.1064C6.64225 12.2979 6.84277 12.4482 7.0752 12.5576C7.31217 12.6624 7.58105 12.7148 7.88184 12.7148C8.26009 12.7148 8.60189 12.6419 8.90723 12.4961C9.21712 12.3457 9.486 12.1247 9.71387 11.833L10.623 12.7764C10.4681 13.0042 10.2585 13.223 9.99414 13.4326C9.73438 13.6423 9.41992 13.8132 9.05078 13.9453C8.68164 14.0729 8.25553 14.1367 7.77246 14.1367ZM14.041 12.2227L15.6611 6.60352H16.8096L16.4678 8.54492L14.834 14H13.8428L14.041 12.2227ZM13.1455 6.60352L14.3623 12.2363L14.4717 14H13.3301L11.3887 6.60352H13.1455ZM18.3135 12.1543L19.5029 6.60352H21.2529L19.3252 14H18.1836L18.3135 12.1543ZM16.9873 6.60352L18.5938 12.168L18.8057 14H17.8145L16.167 8.54492L15.832 6.60352H16.9873ZM24.2334 6.60352V14H22.4219V6.60352H24.2334ZM22.2988 4.66895C22.2988 4.40007 22.39 4.17676 22.5723 3.99902C22.7591 3.82129 23.0098 3.73242 23.3242 3.73242C23.6387 3.73242 23.887 3.82129 24.0693 3.99902C24.2562 4.17676 24.3496 4.40007 24.3496 4.66895C24.3496 4.93327 24.2562 5.1543 24.0693 5.33203C23.887 5.50977 23.6387 5.59863 23.3242 5.59863C23.0098 5.59863 22.7591 5.50977 22.5723 5.33203C22.39 5.1543 22.2988 4.93327 22.2988 4.66895ZM30.0234 11.9766C30.0234 11.8216 29.9824 11.6826 29.9004 11.5596C29.8184 11.4365 29.6634 11.3249 29.4355 11.2246C29.2122 11.1198 28.8841 11.0218 28.4512 10.9307C28.0684 10.8486 27.7152 10.7461 27.3916 10.623C27.068 10.5 26.79 10.3519 26.5576 10.1787C26.3252 10.001 26.1429 9.79362 26.0107 9.55664C25.8831 9.3151 25.8193 9.03711 25.8193 8.72266C25.8193 8.41732 25.8854 8.13021 26.0176 7.86133C26.1497 7.58789 26.3411 7.34863 26.5918 7.14355C26.8424 6.93392 27.1478 6.76986 27.5078 6.65137C27.8678 6.52832 28.2734 6.4668 28.7246 6.4668C29.3535 6.4668 29.8936 6.56934 30.3447 6.77441C30.8005 6.97949 31.1491 7.26204 31.3906 7.62207C31.6322 7.97754 31.7529 8.37858 31.7529 8.8252H29.9482C29.9482 8.62923 29.9027 8.4515 29.8115 8.29199C29.7249 8.13249 29.5905 8.00488 29.4082 7.90918C29.2259 7.80892 28.9958 7.75879 28.7178 7.75879C28.4671 7.75879 28.2552 7.7998 28.082 7.88184C27.9134 7.96387 27.7858 8.07096 27.6992 8.20312C27.6126 8.33529 27.5693 8.48112 27.5693 8.64062C27.5693 8.75911 27.5921 8.86621 27.6377 8.96191C27.6878 9.05306 27.7676 9.13737 27.877 9.21484C27.9863 9.29232 28.1344 9.36296 28.3213 9.42676C28.5127 9.49056 28.7474 9.55208 29.0254 9.61133C29.5768 9.7207 30.0576 9.86654 30.4678 10.0488C30.8825 10.2266 31.2061 10.4635 31.4385 10.7598C31.6709 11.056 31.7871 11.4342 31.7871 11.8945C31.7871 12.2227 31.7165 12.5234 31.5752 12.7969C31.4339 13.0658 31.2288 13.3005 30.96 13.501C30.6911 13.7015 30.3698 13.8587 29.9961 13.9727C29.6224 14.082 29.2008 14.1367 28.7314 14.1367C28.0524 14.1367 27.4782 14.016 27.0088 13.7744C26.5394 13.5283 26.1839 13.2184 25.9424 12.8447C25.7008 12.4665 25.5801 12.0745 25.5801 11.6689H27.3096C27.3232 11.9561 27.4007 12.1862 27.542 12.3594C27.6833 12.5326 27.861 12.6579 28.0752 12.7354C28.2939 12.8083 28.5241 12.8447 28.7656 12.8447C29.0391 12.8447 29.2692 12.8083 29.4561 12.7354C29.6429 12.6579 29.7842 12.5553 29.8799 12.4277C29.9756 12.2956 30.0234 12.1452 30.0234 11.9766ZM34.9316 3.5V14H33.1201V3.5H34.9316ZM34.6445 10.0352H34.1113C34.1113 9.52018 34.1797 9.04622 34.3164 8.61328C34.4531 8.18034 34.6468 7.80436 34.8975 7.48535C35.1481 7.16178 35.4466 6.91113 35.793 6.7334C36.1439 6.55566 36.5312 6.4668 36.9551 6.4668C37.3197 6.4668 37.6501 6.51921 37.9463 6.62402C38.2471 6.72428 38.5046 6.88607 38.7188 7.10938C38.9329 7.33268 39.097 7.62435 39.2109 7.98438C39.3294 8.33984 39.3887 8.77279 39.3887 9.2832V14H37.5703V9.26953C37.5703 8.92773 37.5202 8.65885 37.4199 8.46289C37.3197 8.26237 37.1761 8.11882 36.9893 8.03223C36.807 7.94564 36.5814 7.90234 36.3125 7.90234C36.0208 7.90234 35.7702 7.95931 35.5605 8.07324C35.3509 8.18262 35.1777 8.33529 35.041 8.53125C34.9089 8.72721 34.8086 8.9528 34.7402 9.20801C34.6764 9.46322 34.6445 9.73893 34.6445 10.0352ZM45.0557 12.4277V9.0166C45.0557 8.76595 45.0124 8.54948 44.9258 8.36719C44.8392 8.1849 44.707 8.04362 44.5293 7.94336C44.3516 7.8431 44.126 7.79297 43.8525 7.79297C43.611 7.79297 43.3991 7.83398 43.2168 7.91602C43.0391 7.99805 42.9023 8.11426 42.8066 8.26465C42.7109 8.41048 42.6631 8.5791 42.6631 8.77051H40.8516C40.8516 8.46517 40.9245 8.17578 41.0703 7.90234C41.2161 7.62435 41.4235 7.37826 41.6924 7.16406C41.9658 6.94531 42.2917 6.77441 42.6699 6.65137C43.0527 6.52832 43.4811 6.4668 43.9551 6.4668C44.5156 6.4668 45.0146 6.5625 45.4521 6.75391C45.8942 6.94076 46.2406 7.22331 46.4912 7.60156C46.7464 7.97982 46.874 8.45605 46.874 9.03027V12.2568C46.874 12.626 46.8968 12.9427 46.9424 13.207C46.9925 13.4668 47.0654 13.6924 47.1611 13.8838V14H45.3223C45.2357 13.8132 45.1696 13.5762 45.124 13.2891C45.0785 12.9974 45.0557 12.7103 45.0557 12.4277ZM45.3086 9.49512L45.3223 10.5684H44.1807C43.8981 10.5684 43.6497 10.598 43.4355 10.6572C43.2214 10.7119 43.0459 10.7939 42.9092 10.9033C42.7725 11.0081 42.6699 11.1357 42.6016 11.2861C42.5332 11.432 42.499 11.5983 42.499 11.7852C42.499 11.9674 42.54 12.1315 42.6221 12.2773C42.7087 12.4232 42.8317 12.5394 42.9912 12.626C43.1553 12.708 43.3467 12.749 43.5654 12.749C43.8844 12.749 44.1624 12.6852 44.3994 12.5576C44.6364 12.4255 44.821 12.266 44.9531 12.0791C45.0853 11.8923 45.1559 11.7145 45.165 11.5459L45.6846 12.3252C45.6208 12.512 45.5251 12.7103 45.3975 12.9199C45.2699 13.1296 45.1058 13.3255 44.9053 13.5078C44.7048 13.6901 44.4632 13.8405 44.1807 13.959C43.8981 14.0775 43.57 14.1367 43.1963 14.1367C42.7178 14.1367 42.2894 14.041 41.9111 13.8496C41.5329 13.6582 41.2344 13.3962 41.0156 13.0635C40.7969 12.7308 40.6875 12.3525 40.6875 11.9287C40.6875 11.5368 40.7604 11.1904 40.9062 10.8896C41.0521 10.5889 41.2686 10.3359 41.5557 10.1309C41.8428 9.92122 42.1982 9.764 42.6221 9.65918C43.0505 9.5498 43.5404 9.49512 44.0918 9.49512H45.3086ZM50.2988 8.12109V14H48.4941V6.60352H50.1963L50.2988 8.12109ZM50.0322 10.0352H49.4785C49.4785 9.52018 49.54 9.04622 49.6631 8.61328C49.7907 8.18034 49.9775 7.80436 50.2236 7.48535C50.4697 7.16178 50.7728 6.91113 51.1328 6.7334C51.4974 6.55566 51.9189 6.4668 52.3975 6.4668C52.7301 6.4668 53.0355 6.51693 53.3135 6.61719C53.5915 6.71289 53.8307 6.86556 54.0312 7.0752C54.2363 7.28027 54.3936 7.54915 54.5029 7.88184C54.6123 8.20996 54.667 8.60417 54.667 9.06445V14H52.8623V9.24902C52.8623 8.90267 52.8122 8.63151 52.7119 8.43555C52.6162 8.23958 52.4772 8.10286 52.2949 8.02539C52.1126 7.94336 51.8939 7.90234 51.6387 7.90234C51.3561 7.90234 51.1123 7.95931 50.9072 8.07324C50.7067 8.18262 50.5404 8.33529 50.4082 8.53125C50.2806 8.72721 50.1849 8.9528 50.1211 9.20801C50.0618 9.46322 50.0322 9.73893 50.0322 10.0352ZM54.5303 9.7002L53.7852 9.83691C53.7897 9.37207 53.8535 8.93685 53.9766 8.53125C54.0996 8.12109 54.2796 7.76335 54.5166 7.45801C54.7581 7.14811 55.0566 6.90658 55.4121 6.7334C55.7721 6.55566 56.1868 6.4668 56.6562 6.4668C57.0208 6.4668 57.349 6.51921 57.6406 6.62402C57.9368 6.72428 58.1898 6.88607 58.3994 7.10938C58.609 7.32812 58.7686 7.61296 58.8779 7.96387C58.9919 8.31478 59.0488 8.74316 59.0488 9.24902V14H57.2305V9.24219C57.2305 8.88216 57.1803 8.60645 57.0801 8.41504C56.9844 8.22363 56.8454 8.09147 56.6631 8.01855C56.4808 7.94108 56.2666 7.90234 56.0205 7.90234C55.7699 7.90234 55.5511 7.9502 55.3643 8.0459C55.182 8.13704 55.027 8.26465 54.8994 8.42871C54.7764 8.59277 54.6829 8.78418 54.6191 9.00293C54.5599 9.21712 54.5303 9.44954 54.5303 9.7002ZM62.583 6.60352V14H60.7715V6.60352H62.583ZM60.6484 4.66895C60.6484 4.40007 60.7396 4.17676 60.9219 3.99902C61.1087 3.82129 61.3594 3.73242 61.6738 3.73242C61.9883 3.73242 62.2367 3.82129 62.4189 3.99902C62.6058 4.17676 62.6992 4.40007 62.6992 4.66895C62.6992 4.93327 62.6058 5.1543 62.4189 5.33203C62.2367 5.50977 61.9883 5.59863 61.6738 5.59863C61.3594 5.59863 61.1087 5.50977 60.9219 5.33203C60.7396 5.1543 60.6484 4.93327 60.6484 4.66895ZM66.2197 3.5V14H64.4082V3.5H66.2197ZM71.4424 6.60352V7.90234H67.2041V6.60352H71.4424ZM68.3389 4.78516H70.1504V11.8672C70.1504 12.0859 70.18 12.2546 70.2393 12.373C70.2985 12.4915 70.3874 12.5713 70.5059 12.6123C70.6243 12.6533 70.7656 12.6738 70.9297 12.6738C71.0482 12.6738 71.1576 12.667 71.2578 12.6533C71.3581 12.6396 71.4424 12.626 71.5107 12.6123L71.5176 13.9658C71.3672 14.016 71.1963 14.057 71.0049 14.0889C70.818 14.1208 70.6061 14.1367 70.3691 14.1367C69.9635 14.1367 69.6081 14.0684 69.3027 13.9316C68.9974 13.7904 68.7604 13.5648 68.5918 13.2549C68.4232 12.9404 68.3389 12.5257 68.3389 12.0107V4.78516ZM72.1465 10.377V10.2334C72.1465 9.69108 72.224 9.19206 72.3789 8.73633C72.5339 8.27604 72.7594 7.87728 73.0557 7.54004C73.3519 7.2028 73.7142 6.94076 74.1426 6.75391C74.571 6.5625 75.0586 6.4668 75.6055 6.4668C76.1615 6.4668 76.6536 6.5625 77.082 6.75391C77.515 6.94076 77.8796 7.2028 78.1758 7.54004C78.472 7.87728 78.6976 8.27604 78.8525 8.73633C79.0075 9.19206 79.085 9.69108 79.085 10.2334V10.377C79.085 10.9147 79.0075 11.4137 78.8525 11.874C78.6976 12.3298 78.472 12.7285 78.1758 13.0703C77.8796 13.4076 77.5173 13.6696 77.0889 13.8564C76.6605 14.0433 76.1706 14.1367 75.6191 14.1367C75.0723 14.1367 74.5824 14.0433 74.1494 13.8564C73.7165 13.6696 73.3519 13.4076 73.0557 13.0703C72.7594 12.7285 72.5339 12.3298 72.3789 11.874C72.224 11.4137 72.1465 10.9147 72.1465 10.377ZM73.9512 10.2334V10.377C73.9512 10.7005 73.9831 11.0036 74.0469 11.2861C74.1107 11.5687 74.2087 11.8171 74.3408 12.0312C74.473 12.2454 74.6439 12.4141 74.8535 12.5371C75.0677 12.6556 75.3229 12.7148 75.6191 12.7148C75.9108 12.7148 76.1615 12.6556 76.3711 12.5371C76.5807 12.4141 76.7516 12.2454 76.8838 12.0312C77.0205 11.8171 77.1208 11.5687 77.1846 11.2861C77.2484 11.0036 77.2803 10.7005 77.2803 10.377V10.2334C77.2803 9.91439 77.2484 9.61589 77.1846 9.33789C77.1208 9.05534 77.0205 8.80697 76.8838 8.59277C76.7516 8.37402 76.5785 8.20312 76.3643 8.08008C76.1546 7.95247 75.9017 7.88867 75.6055 7.88867C75.3138 7.88867 75.0632 7.95247 74.8535 8.08008C74.6439 8.20312 74.473 8.37402 74.3408 8.59277C74.2087 8.80697 74.1107 9.05534 74.0469 9.33789C73.9831 9.61589 73.9512 9.91439 73.9512 10.2334ZM82.168 8.18262V14H80.3633V6.60352H82.0586L82.168 8.18262ZM81.8809 10.0352H81.3477C81.3522 9.4974 81.4251 9.00977 81.5664 8.57227C81.7077 8.13477 81.9059 7.75879 82.1611 7.44434C82.4209 7.12988 82.7285 6.88835 83.084 6.71973C83.4395 6.55111 83.8359 6.4668 84.2734 6.4668C84.6289 6.4668 84.9502 6.51693 85.2373 6.61719C85.5244 6.71745 85.7705 6.87695 85.9756 7.0957C86.1852 7.31445 86.3447 7.60156 86.4541 7.95703C86.568 8.30794 86.625 8.74089 86.625 9.25586V14H84.8066V9.24219C84.8066 8.90495 84.7565 8.63835 84.6562 8.44238C84.5605 8.24642 84.4193 8.10742 84.2324 8.02539C84.0501 7.94336 83.8245 7.90234 83.5557 7.90234C83.2777 7.90234 83.0339 7.95931 82.8242 8.07324C82.6191 8.18262 82.446 8.33529 82.3047 8.53125C82.168 8.72721 82.0632 8.9528 81.9902 9.20801C81.9173 9.46322 81.8809 9.73893 81.8809 10.0352Z" fill="#262626"/>
<path d="M96.7324 10.0967H94.0732V9.02344H96.7324C97.2474 9.02344 97.6644 8.94141 97.9834 8.77734C98.3024 8.61328 98.5348 8.38542 98.6807 8.09375C98.8311 7.80208 98.9062 7.4694 98.9062 7.0957C98.9062 6.75391 98.8311 6.43262 98.6807 6.13184C98.5348 5.83105 98.3024 5.58952 97.9834 5.40723C97.6644 5.22038 97.2474 5.12695 96.7324 5.12695H94.3809V14H93.0615V4.04688H96.7324C97.4844 4.04688 98.1201 4.17676 98.6396 4.43652C99.1592 4.69629 99.5534 5.05632 99.8223 5.5166C100.091 5.97233 100.226 6.49414 100.226 7.08203C100.226 7.72005 100.091 8.26465 99.8223 8.71582C99.5534 9.16699 99.1592 9.51107 98.6396 9.74805C98.1201 9.98047 97.4844 10.0967 96.7324 10.0967ZM105.981 12.7354V8.92773C105.981 8.63607 105.922 8.38314 105.804 8.16895C105.69 7.9502 105.517 7.78158 105.284 7.66309C105.052 7.5446 104.765 7.48535 104.423 7.48535C104.104 7.48535 103.824 7.54004 103.582 7.64941C103.345 7.75879 103.158 7.90234 103.021 8.08008C102.889 8.25781 102.823 8.44922 102.823 8.6543H101.559C101.559 8.38997 101.627 8.12793 101.764 7.86816C101.9 7.6084 102.096 7.3737 102.352 7.16406C102.611 6.94987 102.921 6.78125 103.281 6.6582C103.646 6.5306 104.051 6.4668 104.498 6.4668C105.036 6.4668 105.51 6.55794 105.92 6.74023C106.335 6.92253 106.658 7.19824 106.891 7.56738C107.128 7.93197 107.246 8.38997 107.246 8.94141V12.3867C107.246 12.6328 107.267 12.8949 107.308 13.1729C107.353 13.4508 107.419 13.6901 107.506 13.8906V14H106.187C106.123 13.8542 106.073 13.6605 106.036 13.4189C106 13.1729 105.981 12.945 105.981 12.7354ZM106.2 9.51562L106.214 10.4043H104.936C104.576 10.4043 104.254 10.4339 103.972 10.4932C103.689 10.5479 103.452 10.6322 103.261 10.7461C103.069 10.86 102.924 11.0036 102.823 11.1768C102.723 11.3454 102.673 11.5436 102.673 11.7715C102.673 12.0039 102.725 12.2158 102.83 12.4072C102.935 12.5986 103.092 12.7513 103.302 12.8652C103.516 12.9746 103.778 13.0293 104.088 13.0293C104.475 13.0293 104.817 12.9473 105.113 12.7832C105.41 12.6191 105.644 12.4186 105.817 12.1816C105.995 11.9447 106.091 11.7145 106.104 11.4912L106.645 12.0996C106.613 12.291 106.526 12.5029 106.385 12.7354C106.243 12.9678 106.054 13.1911 105.817 13.4053C105.585 13.6149 105.307 13.7904 104.983 13.9316C104.664 14.0684 104.304 14.1367 103.903 14.1367C103.402 14.1367 102.962 14.0387 102.584 13.8428C102.21 13.6468 101.919 13.3848 101.709 13.0566C101.504 12.724 101.401 12.3525 101.401 11.9424C101.401 11.5459 101.479 11.1973 101.634 10.8965C101.789 10.5911 102.012 10.3382 102.304 10.1377C102.595 9.93262 102.946 9.77767 103.356 9.67285C103.767 9.56803 104.225 9.51562 104.73 9.51562H106.2ZM110.5 7.76562V14H109.235V6.60352H110.466L110.5 7.76562ZM112.811 6.5625L112.804 7.73828C112.699 7.71549 112.599 7.70182 112.503 7.69727C112.412 7.68815 112.307 7.68359 112.188 7.68359C111.897 7.68359 111.639 7.72917 111.416 7.82031C111.193 7.91146 111.004 8.03906 110.849 8.20312C110.694 8.36719 110.571 8.56315 110.479 8.79102C110.393 9.01432 110.336 9.26042 110.309 9.5293L109.953 9.73438C109.953 9.28776 109.996 8.86849 110.083 8.47656C110.174 8.08464 110.313 7.73828 110.5 7.4375C110.687 7.13216 110.924 6.89518 111.211 6.72656C111.503 6.55339 111.849 6.4668 112.25 6.4668C112.341 6.4668 112.446 6.47819 112.564 6.50098C112.683 6.51921 112.765 6.53971 112.811 6.5625ZM118.067 12.7354V8.92773C118.067 8.63607 118.008 8.38314 117.89 8.16895C117.776 7.9502 117.603 7.78158 117.37 7.66309C117.138 7.5446 116.851 7.48535 116.509 7.48535C116.19 7.48535 115.91 7.54004 115.668 7.64941C115.431 7.75879 115.244 7.90234 115.107 8.08008C114.975 8.25781 114.909 8.44922 114.909 8.6543H113.645C113.645 8.38997 113.713 8.12793 113.85 7.86816C113.986 7.6084 114.182 7.3737 114.438 7.16406C114.697 6.94987 115.007 6.78125 115.367 6.6582C115.732 6.5306 116.137 6.4668 116.584 6.4668C117.122 6.4668 117.596 6.55794 118.006 6.74023C118.421 6.92253 118.744 7.19824 118.977 7.56738C119.214 7.93197 119.332 8.38997 119.332 8.94141V12.3867C119.332 12.6328 119.353 12.8949 119.394 13.1729C119.439 13.4508 119.505 13.6901 119.592 13.8906V14H118.272C118.209 13.8542 118.159 13.6605 118.122 13.4189C118.086 13.1729 118.067 12.945 118.067 12.7354ZM118.286 9.51562L118.3 10.4043H117.021C116.661 10.4043 116.34 10.4339 116.058 10.4932C115.775 10.5479 115.538 10.6322 115.347 10.7461C115.155 10.86 115.009 11.0036 114.909 11.1768C114.809 11.3454 114.759 11.5436 114.759 11.7715C114.759 12.0039 114.811 12.2158 114.916 12.4072C115.021 12.5986 115.178 12.7513 115.388 12.8652C115.602 12.9746 115.864 13.0293 116.174 13.0293C116.561 13.0293 116.903 12.9473 117.199 12.7832C117.495 12.6191 117.73 12.4186 117.903 12.1816C118.081 11.9447 118.177 11.7145 118.19 11.4912L118.73 12.0996C118.699 12.291 118.612 12.5029 118.471 12.7354C118.329 12.9678 118.14 13.1911 117.903 13.4053C117.671 13.6149 117.393 13.7904 117.069 13.9316C116.75 14.0684 116.39 14.1367 115.989 14.1367C115.488 14.1367 115.048 14.0387 114.67 13.8428C114.296 13.6468 114.005 13.3848 113.795 13.0566C113.59 12.724 113.487 12.3525 113.487 11.9424C113.487 11.5459 113.565 11.1973 113.72 10.8965C113.875 10.5911 114.098 10.3382 114.39 10.1377C114.681 9.93262 115.032 9.77767 115.442 9.67285C115.853 9.56803 116.311 9.51562 116.816 9.51562H118.286ZM121.314 3.5H122.586V12.5645L122.477 14H121.314V3.5ZM127.583 10.2402V10.3838C127.583 10.9215 127.519 11.4206 127.392 11.8809C127.264 12.3366 127.077 12.7331 126.831 13.0703C126.585 13.4076 126.284 13.6696 125.929 13.8564C125.573 14.0433 125.165 14.1367 124.705 14.1367C124.236 14.1367 123.823 14.057 123.468 13.8975C123.117 13.7334 122.821 13.4987 122.579 13.1934C122.338 12.888 122.144 12.5189 121.998 12.0859C121.857 11.653 121.759 11.1654 121.704 10.623V9.99414C121.759 9.44727 121.857 8.95736 121.998 8.52441C122.144 8.09147 122.338 7.72233 122.579 7.41699C122.821 7.1071 123.117 6.8724 123.468 6.71289C123.819 6.54883 124.227 6.4668 124.691 6.4668C125.156 6.4668 125.569 6.55794 125.929 6.74023C126.289 6.91797 126.59 7.17318 126.831 7.50586C127.077 7.83854 127.264 8.2373 127.392 8.70215C127.519 9.16243 127.583 9.67513 127.583 10.2402ZM126.312 10.3838V10.2402C126.312 9.87109 126.277 9.52474 126.209 9.20117C126.141 8.87305 126.031 8.58594 125.881 8.33984C125.73 8.08919 125.532 7.89323 125.286 7.75195C125.04 7.60612 124.737 7.5332 124.377 7.5332C124.058 7.5332 123.78 7.58789 123.543 7.69727C123.311 7.80664 123.112 7.95475 122.948 8.1416C122.784 8.32389 122.65 8.53353 122.545 8.77051C122.445 9.00293 122.369 9.24447 122.319 9.49512V11.1426C122.392 11.4616 122.511 11.7692 122.675 12.0654C122.843 12.3571 123.067 12.5964 123.345 12.7832C123.627 12.9701 123.976 13.0635 124.391 13.0635C124.732 13.0635 125.024 12.9951 125.266 12.8584C125.512 12.7171 125.71 12.5234 125.86 12.2773C126.015 12.0312 126.129 11.7464 126.202 11.4229C126.275 11.0993 126.312 10.7529 126.312 10.3838ZM132.252 14.1367C131.737 14.1367 131.27 14.0501 130.851 13.877C130.436 13.6992 130.078 13.4508 129.777 13.1318C129.481 12.8128 129.253 12.4346 129.094 11.9971C128.934 11.5596 128.854 11.0811 128.854 10.5615V10.2744C128.854 9.67285 128.943 9.13737 129.121 8.66797C129.299 8.19401 129.54 7.79297 129.846 7.46484C130.151 7.13672 130.497 6.88835 130.885 6.71973C131.272 6.55111 131.673 6.4668 132.088 6.4668C132.617 6.4668 133.072 6.55794 133.455 6.74023C133.842 6.92253 134.159 7.17773 134.405 7.50586C134.651 7.82943 134.834 8.21224 134.952 8.6543C135.071 9.0918 135.13 9.57031 135.13 10.0898V10.6572H129.606V9.625H133.865V9.5293C133.847 9.20117 133.779 8.88216 133.66 8.57227C133.546 8.26237 133.364 8.00716 133.113 7.80664C132.863 7.60612 132.521 7.50586 132.088 7.50586C131.801 7.50586 131.536 7.56738 131.295 7.69043C131.053 7.80892 130.846 7.98665 130.673 8.22363C130.5 8.46061 130.365 8.75 130.27 9.0918C130.174 9.43359 130.126 9.8278 130.126 10.2744V10.5615C130.126 10.9124 130.174 11.2428 130.27 11.5527C130.37 11.8581 130.513 12.127 130.7 12.3594C130.892 12.5918 131.122 12.7741 131.391 12.9062C131.664 13.0384 131.974 13.1045 132.32 13.1045C132.767 13.1045 133.145 13.0133 133.455 12.8311C133.765 12.6488 134.036 12.4049 134.269 12.0996L135.034 12.708C134.875 12.9495 134.672 13.1797 134.426 13.3984C134.18 13.6172 133.877 13.7949 133.517 13.9316C133.161 14.0684 132.74 14.1367 132.252 14.1367ZM131.384 5.50977L132.71 3.5H134.234L132.402 5.50977H131.384ZM137.871 8.18262V14H136.606V6.60352H137.803L137.871 8.18262ZM137.57 10.0215L137.044 10.001C137.049 9.49512 137.124 9.02799 137.27 8.59961C137.415 8.16667 137.62 7.79069 137.885 7.47168C138.149 7.15267 138.464 6.90658 138.828 6.7334C139.197 6.55566 139.605 6.4668 140.052 6.4668C140.416 6.4668 140.744 6.51693 141.036 6.61719C141.328 6.71289 141.576 6.86784 141.781 7.08203C141.991 7.29622 142.15 7.57422 142.26 7.91602C142.369 8.25326 142.424 8.66569 142.424 9.15332V14H141.152V9.13965C141.152 8.75228 141.095 8.44238 140.981 8.20996C140.868 7.97298 140.701 7.80208 140.482 7.69727C140.264 7.58789 139.995 7.5332 139.676 7.5332C139.361 7.5332 139.074 7.59928 138.814 7.73145C138.559 7.86361 138.338 8.0459 138.151 8.27832C137.969 8.51074 137.826 8.77734 137.721 9.07812C137.62 9.37435 137.57 9.6888 137.57 10.0215ZM148.651 12.0381C148.651 11.8558 148.61 11.6872 148.528 11.5322C148.451 11.3727 148.289 11.2292 148.043 11.1016C147.801 10.9694 147.437 10.8555 146.949 10.7598C146.539 10.6732 146.168 10.5706 145.835 10.4521C145.507 10.3337 145.227 10.1901 144.994 10.0215C144.766 9.85286 144.591 9.65462 144.468 9.42676C144.345 9.19889 144.283 8.93229 144.283 8.62695C144.283 8.33529 144.347 8.05957 144.475 7.7998C144.607 7.54004 144.791 7.3099 145.028 7.10938C145.27 6.90885 145.559 6.75163 145.896 6.6377C146.234 6.52376 146.61 6.4668 147.024 6.4668C147.617 6.4668 148.123 6.57161 148.542 6.78125C148.961 6.99089 149.283 7.27116 149.506 7.62207C149.729 7.96842 149.841 8.35352 149.841 8.77734H148.576C148.576 8.57227 148.515 8.37402 148.392 8.18262C148.273 7.98665 148.098 7.82487 147.865 7.69727C147.637 7.56966 147.357 7.50586 147.024 7.50586C146.674 7.50586 146.389 7.56055 146.17 7.66992C145.956 7.77474 145.799 7.90918 145.698 8.07324C145.603 8.2373 145.555 8.41048 145.555 8.59277C145.555 8.72949 145.577 8.85254 145.623 8.96191C145.673 9.06673 145.76 9.16471 145.883 9.25586C146.006 9.34245 146.179 9.42448 146.402 9.50195C146.626 9.57943 146.91 9.6569 147.257 9.73438C147.863 9.87109 148.362 10.0352 148.754 10.2266C149.146 10.418 149.438 10.6527 149.629 10.9307C149.82 11.2087 149.916 11.5459 149.916 11.9424C149.916 12.266 149.848 12.5622 149.711 12.8311C149.579 13.0999 149.385 13.3324 149.13 13.5283C148.879 13.7197 148.578 13.8701 148.228 13.9795C147.881 14.0843 147.492 14.1367 147.059 14.1367C146.407 14.1367 145.855 14.0205 145.404 13.7881C144.953 13.5557 144.611 13.2549 144.379 12.8857C144.146 12.5166 144.03 12.127 144.03 11.7168H145.302C145.32 12.0632 145.42 12.3389 145.603 12.5439C145.785 12.7445 146.008 12.888 146.272 12.9746C146.537 13.0566 146.799 13.0977 147.059 13.0977C147.405 13.0977 147.694 13.0521 147.927 12.9609C148.164 12.8698 148.344 12.7445 148.467 12.585C148.59 12.4255 148.651 12.2432 148.651 12.0381ZM158.926 4.92871L155.631 14H154.284L158.078 4.04688H158.946L158.926 4.92871ZM161.688 14L158.386 4.92871L158.365 4.04688H159.233L163.041 14H161.688ZM161.517 10.3154V11.3955H155.925V10.3154H161.517ZM165.919 13.2344L167.977 6.60352H169.33L166.363 15.1416C166.295 15.3239 166.204 15.5199 166.09 15.7295C165.98 15.9437 165.839 16.1465 165.666 16.3379C165.493 16.5293 165.283 16.6842 165.037 16.8027C164.796 16.9258 164.506 16.9873 164.169 16.9873C164.069 16.9873 163.941 16.9736 163.786 16.9463C163.631 16.9189 163.522 16.8962 163.458 16.8779L163.451 15.8525C163.488 15.8571 163.545 15.8617 163.622 15.8662C163.704 15.8753 163.761 15.8799 163.793 15.8799C164.08 15.8799 164.324 15.8411 164.524 15.7637C164.725 15.6908 164.894 15.5654 165.03 15.3877C165.172 15.2145 165.292 14.9753 165.393 14.6699L165.919 13.2344ZM164.408 6.60352L166.329 12.3457L166.657 13.6787L165.748 14.1436L163.027 6.60352H164.408ZM171.736 7.76562V14H170.472V6.60352H171.702L171.736 7.76562ZM174.047 6.5625L174.04 7.73828C173.935 7.71549 173.835 7.70182 173.739 7.69727C173.648 7.68815 173.543 7.68359 173.425 7.68359C173.133 7.68359 172.876 7.72917 172.652 7.82031C172.429 7.91146 172.24 8.03906 172.085 8.20312C171.93 8.36719 171.807 8.56315 171.716 8.79102C171.629 9.01432 171.572 9.26042 171.545 9.5293L171.189 9.73438C171.189 9.28776 171.233 8.86849 171.319 8.47656C171.41 8.08464 171.549 7.73828 171.736 7.4375C171.923 7.13216 172.16 6.89518 172.447 6.72656C172.739 6.55339 173.085 6.4668 173.486 6.4668C173.577 6.4668 173.682 6.47819 173.801 6.50098C173.919 6.51921 174.001 6.53971 174.047 6.5625ZM178.654 6.60352V7.57422H174.655V6.60352H178.654ZM176.009 4.80566H177.273V12.168C177.273 12.4186 177.312 12.6077 177.39 12.7354C177.467 12.863 177.567 12.9473 177.69 12.9883C177.813 13.0293 177.946 13.0498 178.087 13.0498C178.192 13.0498 178.301 13.0407 178.415 13.0225C178.534 12.9997 178.622 12.9814 178.682 12.9678L178.688 14C178.588 14.0319 178.456 14.0615 178.292 14.0889C178.132 14.1208 177.939 14.1367 177.711 14.1367C177.401 14.1367 177.116 14.0752 176.856 13.9521C176.597 13.8291 176.389 13.624 176.234 13.3369C176.084 13.0452 176.009 12.6533 176.009 12.1611V4.80566ZM179.666 10.3838V10.2266C179.666 9.69336 179.743 9.19889 179.898 8.74316C180.053 8.28288 180.277 7.88411 180.568 7.54688C180.86 7.20508 181.213 6.94076 181.628 6.75391C182.043 6.5625 182.507 6.4668 183.022 6.4668C183.542 6.4668 184.009 6.5625 184.424 6.75391C184.843 6.94076 185.199 7.20508 185.49 7.54688C185.786 7.88411 186.012 8.28288 186.167 8.74316C186.322 9.19889 186.399 9.69336 186.399 10.2266V10.3838C186.399 10.917 186.322 11.4115 186.167 11.8672C186.012 12.3229 185.786 12.7217 185.49 13.0635C185.199 13.4007 184.845 13.665 184.431 13.8564C184.021 14.0433 183.556 14.1367 183.036 14.1367C182.517 14.1367 182.049 14.0433 181.635 13.8564C181.22 13.665 180.865 13.4007 180.568 13.0635C180.277 12.7217 180.053 12.3229 179.898 11.8672C179.743 11.4115 179.666 10.917 179.666 10.3838ZM180.931 10.2266V10.3838C180.931 10.7529 180.974 11.1016 181.061 11.4297C181.147 11.7533 181.277 12.0404 181.45 12.291C181.628 12.5417 181.849 12.7399 182.113 12.8857C182.378 13.027 182.685 13.0977 183.036 13.0977C183.382 13.0977 183.686 13.027 183.945 12.8857C184.21 12.7399 184.428 12.5417 184.602 12.291C184.775 12.0404 184.905 11.7533 184.991 11.4297C185.082 11.1016 185.128 10.7529 185.128 10.3838V10.2266C185.128 9.86198 185.082 9.5179 184.991 9.19434C184.905 8.86621 184.772 8.57682 184.595 8.32617C184.422 8.07096 184.203 7.87044 183.938 7.72461C183.679 7.57878 183.373 7.50586 183.022 7.50586C182.676 7.50586 182.371 7.57878 182.106 7.72461C181.847 7.87044 181.628 8.07096 181.45 8.32617C181.277 8.57682 181.147 8.86621 181.061 9.19434C180.974 9.5179 180.931 9.86198 180.931 10.2266ZM189.25 8.18262V14H187.985V6.60352H189.182L189.25 8.18262ZM188.949 10.0215L188.423 10.001C188.427 9.49512 188.503 9.02799 188.648 8.59961C188.794 8.16667 188.999 7.79069 189.264 7.47168C189.528 7.15267 189.842 6.90658 190.207 6.7334C190.576 6.55566 190.984 6.4668 191.431 6.4668C191.795 6.4668 192.123 6.51693 192.415 6.61719C192.707 6.71289 192.955 6.86784 193.16 7.08203C193.37 7.29622 193.529 7.57422 193.639 7.91602C193.748 8.25326 193.803 8.66569 193.803 9.15332V14H192.531V9.13965C192.531 8.75228 192.474 8.44238 192.36 8.20996C192.246 7.97298 192.08 7.80208 191.861 7.69727C191.643 7.58789 191.374 7.5332 191.055 7.5332C190.74 7.5332 190.453 7.59928 190.193 7.73145C189.938 7.86361 189.717 8.0459 189.53 8.27832C189.348 8.51074 189.204 8.77734 189.1 9.07812C188.999 9.37435 188.949 9.6888 188.949 10.0215ZM196.872 12.4961V13.5146C196.872 13.9294 196.767 14.3669 196.558 14.8271C196.348 15.292 196.054 15.6794 195.676 15.9893L194.958 15.4902C195.104 15.2897 195.227 15.0846 195.327 14.875C195.427 14.6699 195.503 14.4557 195.553 14.2324C195.607 14.0137 195.635 13.7812 195.635 13.5352V12.4961H196.872ZM203.216 8.07324V14H201.944V6.60352H203.147L203.216 8.07324ZM202.956 10.0215L202.368 10.001C202.373 9.49512 202.439 9.02799 202.566 8.59961C202.694 8.16667 202.883 7.79069 203.134 7.47168C203.384 7.15267 203.697 6.90658 204.07 6.7334C204.444 6.55566 204.877 6.4668 205.369 6.4668C205.715 6.4668 206.035 6.51693 206.326 6.61719C206.618 6.71289 206.871 6.86556 207.085 7.0752C207.299 7.28483 207.465 7.55371 207.584 7.88184C207.702 8.20996 207.762 8.60645 207.762 9.07129V14H206.497V9.13281C206.497 8.74544 206.431 8.43555 206.299 8.20312C206.171 7.9707 205.989 7.80208 205.752 7.69727C205.515 7.58789 205.237 7.5332 204.918 7.5332C204.544 7.5332 204.232 7.59928 203.981 7.73145C203.731 7.86361 203.53 8.0459 203.38 8.27832C203.229 8.51074 203.12 8.77734 203.052 9.07812C202.988 9.37435 202.956 9.6888 202.956 10.0215ZM207.748 9.32422L206.9 9.58398C206.905 9.17839 206.971 8.78874 207.099 8.41504C207.231 8.04134 207.42 7.70866 207.666 7.41699C207.917 7.12533 208.224 6.89518 208.589 6.72656C208.953 6.55339 209.37 6.4668 209.84 6.4668C210.236 6.4668 210.587 6.51921 210.893 6.62402C211.202 6.72884 211.462 6.89062 211.672 7.10938C211.886 7.32357 212.048 7.59928 212.157 7.93652C212.267 8.27376 212.321 8.6748 212.321 9.13965V14H211.05V9.12598C211.05 8.71126 210.984 8.38997 210.852 8.16211C210.724 7.92969 210.542 7.7679 210.305 7.67676C210.072 7.58105 209.794 7.5332 209.471 7.5332C209.193 7.5332 208.947 7.58105 208.732 7.67676C208.518 7.77246 208.338 7.90462 208.192 8.07324C208.047 8.2373 207.935 8.42643 207.857 8.64062C207.785 8.85482 207.748 9.08268 207.748 9.32422ZM215.609 6.60352V14H214.338V6.60352H215.609ZM214.242 4.6416C214.242 4.43652 214.304 4.26335 214.427 4.12207C214.554 3.98079 214.741 3.91016 214.987 3.91016C215.229 3.91016 215.413 3.98079 215.541 4.12207C215.673 4.26335 215.739 4.43652 215.739 4.6416C215.739 4.83757 215.673 5.00618 215.541 5.14746C215.413 5.28418 215.229 5.35254 214.987 5.35254C214.741 5.35254 214.554 5.28418 214.427 5.14746C214.304 5.00618 214.242 4.83757 214.242 4.6416ZM218.904 8.18262V14H217.64V6.60352H218.836L218.904 8.18262ZM218.604 10.0215L218.077 10.001C218.082 9.49512 218.157 9.02799 218.303 8.59961C218.449 8.16667 218.654 7.79069 218.918 7.47168C219.182 7.15267 219.497 6.90658 219.861 6.7334C220.23 6.55566 220.638 6.4668 221.085 6.4668C221.45 6.4668 221.778 6.51693 222.069 6.61719C222.361 6.71289 222.609 6.86784 222.814 7.08203C223.024 7.29622 223.184 7.57422 223.293 7.91602C223.402 8.25326 223.457 8.66569 223.457 9.15332V14H222.186V9.13965C222.186 8.75228 222.129 8.44238 222.015 8.20996C221.901 7.97298 221.734 7.80208 221.516 7.69727C221.297 7.58789 221.028 7.5332 220.709 7.5332C220.395 7.5332 220.107 7.59928 219.848 7.73145C219.592 7.86361 219.371 8.0459 219.185 8.27832C219.002 8.51074 218.859 8.77734 218.754 9.07812C218.654 9.37435 218.604 9.6888 218.604 10.0215ZM226.643 3.5V14H225.378V3.5H226.643ZM226.342 10.0215L225.815 10.001C225.82 9.49512 225.895 9.02799 226.041 8.59961C226.187 8.16667 226.392 7.79069 226.656 7.47168C226.921 7.15267 227.235 6.90658 227.6 6.7334C227.969 6.55566 228.377 6.4668 228.823 6.4668C229.188 6.4668 229.516 6.51693 229.808 6.61719C230.099 6.71289 230.348 6.86784 230.553 7.08203C230.762 7.29622 230.922 7.57422 231.031 7.91602C231.141 8.25326 231.195 8.66569 231.195 9.15332V14H229.924V9.13965C229.924 8.75228 229.867 8.44238 229.753 8.20996C229.639 7.97298 229.473 7.80208 229.254 7.69727C229.035 7.58789 228.766 7.5332 228.447 7.5332C228.133 7.5332 227.846 7.59928 227.586 7.73145C227.331 7.86361 227.11 8.0459 226.923 8.27832C226.741 8.51074 226.597 8.77734 226.492 9.07812C226.392 9.37435 226.342 9.6888 226.342 10.0215ZM237.45 12.7354V8.92773C237.45 8.63607 237.391 8.38314 237.272 8.16895C237.159 7.9502 236.985 7.78158 236.753 7.66309C236.521 7.5446 236.233 7.48535 235.892 7.48535C235.573 7.48535 235.292 7.54004 235.051 7.64941C234.814 7.75879 234.627 7.90234 234.49 8.08008C234.358 8.25781 234.292 8.44922 234.292 8.6543H233.027C233.027 8.38997 233.096 8.12793 233.232 7.86816C233.369 7.6084 233.565 7.3737 233.82 7.16406C234.08 6.94987 234.39 6.78125 234.75 6.6582C235.115 6.5306 235.52 6.4668 235.967 6.4668C236.505 6.4668 236.979 6.55794 237.389 6.74023C237.803 6.92253 238.127 7.19824 238.359 7.56738C238.596 7.93197 238.715 8.38997 238.715 8.94141V12.3867C238.715 12.6328 238.735 12.8949 238.776 13.1729C238.822 13.4508 238.888 13.6901 238.975 13.8906V14H237.655C237.591 13.8542 237.541 13.6605 237.505 13.4189C237.468 13.1729 237.45 12.945 237.45 12.7354ZM237.669 9.51562L237.683 10.4043H236.404C236.044 10.4043 235.723 10.4339 235.44 10.4932C235.158 10.5479 234.921 10.6322 234.729 10.7461C234.538 10.86 234.392 11.0036 234.292 11.1768C234.192 11.3454 234.142 11.5436 234.142 11.7715C234.142 12.0039 234.194 12.2158 234.299 12.4072C234.404 12.5986 234.561 12.7513 234.771 12.8652C234.985 12.9746 235.247 13.0293 235.557 13.0293C235.944 13.0293 236.286 12.9473 236.582 12.7832C236.878 12.6191 237.113 12.4186 237.286 12.1816C237.464 11.9447 237.56 11.7145 237.573 11.4912L238.113 12.0996C238.081 12.291 237.995 12.5029 237.854 12.7354C237.712 12.9678 237.523 13.1911 237.286 13.4053C237.054 13.6149 236.776 13.7904 236.452 13.9316C236.133 14.0684 235.773 14.1367 235.372 14.1367C234.871 14.1367 234.431 14.0387 234.053 13.8428C233.679 13.6468 233.387 13.3848 233.178 13.0566C232.973 12.724 232.87 12.3525 232.87 11.9424C232.87 11.5459 232.948 11.1973 233.103 10.8965C233.257 10.5911 233.481 10.3382 233.772 10.1377C234.064 9.93262 234.415 9.77767 234.825 9.67285C235.235 9.56803 235.693 9.51562 236.199 9.51562H237.669ZM245.551 6.60352V14H244.279V6.60352H245.551ZM244.184 4.6416C244.184 4.43652 244.245 4.26335 244.368 4.12207C244.496 3.98079 244.683 3.91016 244.929 3.91016C245.17 3.91016 245.355 3.98079 245.482 4.12207C245.615 4.26335 245.681 4.43652 245.681 4.6416C245.681 4.83757 245.615 5.00618 245.482 5.14746C245.355 5.28418 245.17 5.35254 244.929 5.35254C244.683 5.35254 244.496 5.28418 244.368 5.14746C244.245 5.00618 244.184 4.83757 244.184 4.6416ZM248.846 8.18262V14H247.581V6.60352H248.777L248.846 8.18262ZM248.545 10.0215L248.019 10.001C248.023 9.49512 248.098 9.02799 248.244 8.59961C248.39 8.16667 248.595 7.79069 248.859 7.47168C249.124 7.15267 249.438 6.90658 249.803 6.7334C250.172 6.55566 250.58 6.4668 251.026 6.4668C251.391 6.4668 251.719 6.51693 252.011 6.61719C252.302 6.71289 252.551 6.86784 252.756 7.08203C252.965 7.29622 253.125 7.57422 253.234 7.91602C253.344 8.25326 253.398 8.66569 253.398 9.15332V14H252.127V9.13965C252.127 8.75228 252.07 8.44238 251.956 8.20996C251.842 7.97298 251.676 7.80208 251.457 7.69727C251.238 7.58789 250.969 7.5332 250.65 7.5332C250.336 7.5332 250.049 7.59928 249.789 7.73145C249.534 7.86361 249.313 8.0459 249.126 8.27832C248.944 8.51074 248.8 8.77734 248.695 9.07812C248.595 9.37435 248.545 9.6888 248.545 10.0215ZM259.626 12.0381C259.626 11.8558 259.585 11.6872 259.503 11.5322C259.425 11.3727 259.264 11.2292 259.018 11.1016C258.776 10.9694 258.411 10.8555 257.924 10.7598C257.514 10.6732 257.142 10.5706 256.81 10.4521C256.481 10.3337 256.201 10.1901 255.969 10.0215C255.741 9.85286 255.565 9.65462 255.442 9.42676C255.319 9.19889 255.258 8.93229 255.258 8.62695C255.258 8.33529 255.322 8.05957 255.449 7.7998C255.581 7.54004 255.766 7.3099 256.003 7.10938C256.244 6.90885 256.534 6.75163 256.871 6.6377C257.208 6.52376 257.584 6.4668 257.999 6.4668C258.591 6.4668 259.097 6.57161 259.517 6.78125C259.936 6.99089 260.257 7.27116 260.48 7.62207C260.704 7.96842 260.815 8.35352 260.815 8.77734H259.551C259.551 8.57227 259.489 8.37402 259.366 8.18262C259.248 7.98665 259.072 7.82487 258.84 7.69727C258.612 7.56966 258.332 7.50586 257.999 7.50586C257.648 7.50586 257.363 7.56055 257.145 7.66992C256.93 7.77474 256.773 7.90918 256.673 8.07324C256.577 8.2373 256.529 8.41048 256.529 8.59277C256.529 8.72949 256.552 8.85254 256.598 8.96191C256.648 9.06673 256.734 9.16471 256.857 9.25586C256.98 9.34245 257.154 9.42448 257.377 9.50195C257.6 9.57943 257.885 9.6569 258.231 9.73438C258.838 9.87109 259.337 10.0352 259.729 10.2266C260.12 10.418 260.412 10.6527 260.604 10.9307C260.795 11.2087 260.891 11.5459 260.891 11.9424C260.891 12.266 260.822 12.5622 260.686 12.8311C260.553 13.0999 260.36 13.3324 260.104 13.5283C259.854 13.7197 259.553 13.8701 259.202 13.9795C258.856 14.0843 258.466 14.1367 258.033 14.1367C257.382 14.1367 256.83 14.0205 256.379 13.7881C255.928 13.5557 255.586 13.2549 255.354 12.8857C255.121 12.5166 255.005 12.127 255.005 11.7168H256.276C256.295 12.0632 256.395 12.3389 256.577 12.5439C256.759 12.7445 256.983 12.888 257.247 12.9746C257.511 13.0566 257.773 13.0977 258.033 13.0977C258.38 13.0977 258.669 13.0521 258.901 12.9609C259.138 12.8698 259.318 12.7445 259.441 12.585C259.564 12.4255 259.626 12.2432 259.626 12.0381ZM263.816 8.02539V16.8438H262.545V6.60352H263.707L263.816 8.02539ZM268.8 10.2402V10.3838C268.8 10.9215 268.736 11.4206 268.608 11.8809C268.481 12.3366 268.294 12.7331 268.048 13.0703C267.806 13.4076 267.508 13.6696 267.152 13.8564C266.797 14.0433 266.389 14.1367 265.929 14.1367C265.459 14.1367 265.045 14.0592 264.685 13.9043C264.325 13.7493 264.019 13.5238 263.769 13.2275C263.518 12.9313 263.317 12.5758 263.167 12.1611C263.021 11.7464 262.921 11.2793 262.866 10.7598V9.99414C262.921 9.44727 263.023 8.95736 263.174 8.52441C263.324 8.09147 263.522 7.72233 263.769 7.41699C264.019 7.1071 264.322 6.8724 264.678 6.71289C265.033 6.54883 265.443 6.4668 265.908 6.4668C266.373 6.4668 266.785 6.55794 267.146 6.74023C267.506 6.91797 267.809 7.17318 268.055 7.50586C268.301 7.83854 268.485 8.2373 268.608 8.70215C268.736 9.16243 268.8 9.67513 268.8 10.2402ZM267.528 10.3838V10.2402C267.528 9.87109 267.49 9.52474 267.412 9.20117C267.335 8.87305 267.214 8.58594 267.05 8.33984C266.89 8.08919 266.685 7.89323 266.435 7.75195C266.184 7.60612 265.885 7.5332 265.539 7.5332C265.22 7.5332 264.942 7.58789 264.705 7.69727C264.473 7.80664 264.274 7.95475 264.11 8.1416C263.946 8.32389 263.812 8.53353 263.707 8.77051C263.607 9.00293 263.532 9.24447 263.481 9.49512V11.2656C263.573 11.5846 263.7 11.8854 263.864 12.168C264.028 12.446 264.247 12.6715 264.521 12.8447C264.794 13.0133 265.138 13.0977 265.553 13.0977C265.895 13.0977 266.188 13.027 266.435 12.8857C266.685 12.7399 266.89 12.5417 267.05 12.291C267.214 12.0404 267.335 11.7533 267.412 11.4297C267.49 11.1016 267.528 10.7529 267.528 10.3838ZM271.787 6.60352V14H270.516V6.60352H271.787ZM270.42 4.6416C270.42 4.43652 270.481 4.26335 270.604 4.12207C270.732 3.98079 270.919 3.91016 271.165 3.91016C271.407 3.91016 271.591 3.98079 271.719 4.12207C271.851 4.26335 271.917 4.43652 271.917 4.6416C271.917 4.83757 271.851 5.00618 271.719 5.14746C271.591 5.28418 271.407 5.35254 271.165 5.35254C270.919 5.35254 270.732 5.28418 270.604 5.14746C270.481 5.00618 270.42 4.83757 270.42 4.6416ZM275.082 7.76562V14H273.817V6.60352H275.048L275.082 7.76562ZM277.393 6.5625L277.386 7.73828C277.281 7.71549 277.181 7.70182 277.085 7.69727C276.994 7.68815 276.889 7.68359 276.771 7.68359C276.479 7.68359 276.221 7.72917 275.998 7.82031C275.775 7.91146 275.586 8.03906 275.431 8.20312C275.276 8.36719 275.153 8.56315 275.062 8.79102C274.975 9.01432 274.918 9.26042 274.891 9.5293L274.535 9.73438C274.535 9.28776 274.578 8.86849 274.665 8.47656C274.756 8.08464 274.895 7.73828 275.082 7.4375C275.269 7.13216 275.506 6.89518 275.793 6.72656C276.085 6.55339 276.431 6.4668 276.832 6.4668C276.923 6.4668 277.028 6.47819 277.146 6.50098C277.265 6.51921 277.347 6.53971 277.393 6.5625ZM282.649 12.7354V8.92773C282.649 8.63607 282.59 8.38314 282.472 8.16895C282.358 7.9502 282.185 7.78158 281.952 7.66309C281.72 7.5446 281.433 7.48535 281.091 7.48535C280.772 7.48535 280.492 7.54004 280.25 7.64941C280.013 7.75879 279.826 7.90234 279.689 8.08008C279.557 8.25781 279.491 8.44922 279.491 8.6543H278.227C278.227 8.38997 278.295 8.12793 278.432 7.86816C278.568 7.6084 278.764 7.3737 279.02 7.16406C279.279 6.94987 279.589 6.78125 279.949 6.6582C280.314 6.5306 280.719 6.4668 281.166 6.4668C281.704 6.4668 282.178 6.55794 282.588 6.74023C283.003 6.92253 283.326 7.19824 283.559 7.56738C283.796 7.93197 283.914 8.38997 283.914 8.94141V12.3867C283.914 12.6328 283.935 12.8949 283.976 13.1729C284.021 13.4508 284.087 13.6901 284.174 13.8906V14H282.854C282.791 13.8542 282.741 13.6605 282.704 13.4189C282.668 13.1729 282.649 12.945 282.649 12.7354ZM282.868 9.51562L282.882 10.4043H281.604C281.243 10.4043 280.922 10.4339 280.64 10.4932C280.357 10.5479 280.12 10.6322 279.929 10.7461C279.737 10.86 279.591 11.0036 279.491 11.1768C279.391 11.3454 279.341 11.5436 279.341 11.7715C279.341 12.0039 279.393 12.2158 279.498 12.4072C279.603 12.5986 279.76 12.7513 279.97 12.8652C280.184 12.9746 280.446 13.0293 280.756 13.0293C281.143 13.0293 281.485 12.9473 281.781 12.7832C282.077 12.6191 282.312 12.4186 282.485 12.1816C282.663 11.9447 282.759 11.7145 282.772 11.4912L283.312 12.0996C283.281 12.291 283.194 12.5029 283.053 12.7354C282.911 12.9678 282.722 13.1911 282.485 13.4053C282.253 13.6149 281.975 13.7904 281.651 13.9316C281.332 14.0684 280.972 14.1367 280.571 14.1367C280.07 14.1367 279.63 14.0387 279.252 13.8428C278.878 13.6468 278.587 13.3848 278.377 13.0566C278.172 12.724 278.069 12.3525 278.069 11.9424C278.069 11.5459 278.147 11.1973 278.302 10.8965C278.457 10.5911 278.68 10.3382 278.972 10.1377C279.263 9.93262 279.614 9.77767 280.024 9.67285C280.435 9.56803 280.893 9.51562 281.398 9.51562H282.868ZM288.863 13.0977C289.164 13.0977 289.442 13.0361 289.697 12.9131C289.952 12.79 290.162 12.6214 290.326 12.4072C290.49 12.1885 290.584 11.9401 290.606 11.6621H291.81C291.787 12.0996 291.639 12.5075 291.365 12.8857C291.096 13.2594 290.743 13.5625 290.306 13.7949C289.868 14.0228 289.387 14.1367 288.863 14.1367C288.307 14.1367 287.822 14.0387 287.407 13.8428C286.997 13.6468 286.655 13.3779 286.382 13.0361C286.113 12.6943 285.91 12.3024 285.773 11.8604C285.641 11.4137 285.575 10.9421 285.575 10.4453V10.1582C285.575 9.66146 285.641 9.19206 285.773 8.75C285.91 8.30339 286.113 7.90918 286.382 7.56738C286.655 7.22559 286.997 6.95671 287.407 6.76074C287.822 6.56478 288.307 6.4668 288.863 6.4668C289.442 6.4668 289.948 6.58529 290.381 6.82227C290.814 7.05469 291.153 7.3737 291.399 7.7793C291.65 8.18034 291.787 8.63607 291.81 9.14648H290.606C290.584 8.84115 290.497 8.56543 290.347 8.31934C290.201 8.07324 290 7.87728 289.745 7.73145C289.494 7.58105 289.201 7.50586 288.863 7.50586C288.476 7.50586 288.15 7.58333 287.886 7.73828C287.626 7.88867 287.419 8.09375 287.264 8.35352C287.113 8.60872 287.004 8.89355 286.936 9.20801C286.872 9.5179 286.84 9.83464 286.84 10.1582V10.4453C286.84 10.7689 286.872 11.0879 286.936 11.4023C286.999 11.7168 287.106 12.0016 287.257 12.2568C287.412 12.512 287.619 12.7171 287.879 12.8721C288.143 13.0225 288.471 13.0977 288.863 13.0977ZM288.166 14.0684H289.075L288.993 14.4307C289.257 14.4762 289.497 14.5856 289.711 14.7588C289.93 14.932 290.039 15.2168 290.039 15.6133C290.039 15.8275 289.993 16.0212 289.902 16.1943C289.816 16.3721 289.686 16.5225 289.513 16.6455C289.34 16.7731 289.123 16.8711 288.863 16.9395C288.608 17.0078 288.31 17.042 287.968 17.042L287.92 16.3105C288.13 16.3105 288.319 16.2878 288.487 16.2422C288.66 16.1966 288.797 16.1237 288.897 16.0234C289.002 15.9232 289.055 15.7933 289.055 15.6338C289.055 15.4834 289.016 15.3649 288.938 15.2783C288.861 15.1917 288.74 15.1257 288.576 15.0801C288.417 15.0391 288.209 15.0094 287.954 14.9912L288.166 14.0684ZM297.593 12.7354V8.92773C297.593 8.63607 297.534 8.38314 297.415 8.16895C297.301 7.9502 297.128 7.78158 296.896 7.66309C296.663 7.5446 296.376 7.48535 296.034 7.48535C295.715 7.48535 295.435 7.54004 295.193 7.64941C294.956 7.75879 294.77 7.90234 294.633 8.08008C294.501 8.25781 294.435 8.44922 294.435 8.6543H293.17C293.17 8.38997 293.238 8.12793 293.375 7.86816C293.512 7.6084 293.708 7.3737 293.963 7.16406C294.223 6.94987 294.533 6.78125 294.893 6.6582C295.257 6.5306 295.663 6.4668 296.109 6.4668C296.647 6.4668 297.121 6.55794 297.531 6.74023C297.946 6.92253 298.27 7.19824 298.502 7.56738C298.739 7.93197 298.857 8.38997 298.857 8.94141V12.3867C298.857 12.6328 298.878 12.8949 298.919 13.1729C298.965 13.4508 299.031 13.6901 299.117 13.8906V14H297.798C297.734 13.8542 297.684 13.6605 297.647 13.4189C297.611 13.1729 297.593 12.945 297.593 12.7354ZM297.812 9.51562L297.825 10.4043H296.547C296.187 10.4043 295.866 10.4339 295.583 10.4932C295.3 10.5479 295.063 10.6322 294.872 10.7461C294.681 10.86 294.535 11.0036 294.435 11.1768C294.334 11.3454 294.284 11.5436 294.284 11.7715C294.284 12.0039 294.337 12.2158 294.441 12.4072C294.546 12.5986 294.703 12.7513 294.913 12.8652C295.127 12.9746 295.389 13.0293 295.699 13.0293C296.087 13.0293 296.428 12.9473 296.725 12.7832C297.021 12.6191 297.256 12.4186 297.429 12.1816C297.606 11.9447 297.702 11.7145 297.716 11.4912L298.256 12.0996C298.224 12.291 298.137 12.5029 297.996 12.7354C297.855 12.9678 297.666 13.1911 297.429 13.4053C297.196 13.6149 296.918 13.7904 296.595 13.9316C296.276 14.0684 295.916 14.1367 295.515 14.1367C295.013 14.1367 294.574 14.0387 294.195 13.8428C293.822 13.6468 293.53 13.3848 293.32 13.0566C293.115 12.724 293.013 12.3525 293.013 11.9424C293.013 11.5459 293.09 11.1973 293.245 10.8965C293.4 10.5911 293.623 10.3382 293.915 10.1377C294.207 9.93262 294.558 9.77767 294.968 9.67285C295.378 9.56803 295.836 9.51562 296.342 9.51562H297.812ZM297.818 3.63672L298.673 3.71191C298.673 4.0446 298.607 4.33626 298.475 4.58691C298.342 4.83757 298.165 5.03125 297.941 5.16797C297.723 5.30469 297.474 5.37305 297.196 5.37305C296.964 5.37305 296.772 5.34115 296.622 5.27734C296.472 5.20898 296.337 5.13379 296.219 5.05176C296.1 4.96517 295.975 4.88997 295.843 4.82617C295.715 4.75781 295.556 4.72363 295.364 4.72363C295.173 4.72363 295.011 4.79655 294.879 4.94238C294.751 5.08822 294.688 5.26823 294.688 5.48242L293.833 5.44141C293.833 5.10872 293.897 4.81706 294.024 4.56641C294.157 4.3112 294.334 4.11296 294.558 3.97168C294.781 3.82585 295.029 3.75293 295.303 3.75293C295.499 3.75293 295.67 3.78711 295.815 3.85547C295.966 3.91927 296.107 3.99447 296.239 4.08105C296.371 4.16309 296.508 4.23828 296.649 4.30664C296.791 4.37044 296.952 4.40234 297.135 4.40234C297.326 4.40234 297.488 4.32943 297.62 4.18359C297.752 4.0332 297.818 3.85091 297.818 3.63672ZM300.512 10.3838V10.2266C300.512 9.69336 300.589 9.19889 300.744 8.74316C300.899 8.28288 301.122 7.88411 301.414 7.54688C301.706 7.20508 302.059 6.94076 302.474 6.75391C302.888 6.5625 303.353 6.4668 303.868 6.4668C304.388 6.4668 304.855 6.5625 305.27 6.75391C305.689 6.94076 306.044 7.20508 306.336 7.54688C306.632 7.88411 306.858 8.28288 307.013 8.74316C307.168 9.19889 307.245 9.69336 307.245 10.2266V10.3838C307.245 10.917 307.168 11.4115 307.013 11.8672C306.858 12.3229 306.632 12.7217 306.336 13.0635C306.044 13.4007 305.691 13.665 305.276 13.8564C304.866 14.0433 304.401 14.1367 303.882 14.1367C303.362 14.1367 302.895 14.0433 302.48 13.8564C302.066 13.665 301.71 13.4007 301.414 13.0635C301.122 12.7217 300.899 12.3229 300.744 11.8672C300.589 11.4115 300.512 10.917 300.512 10.3838ZM301.776 10.2266V10.3838C301.776 10.7529 301.82 11.1016 301.906 11.4297C301.993 11.7533 302.123 12.0404 302.296 12.291C302.474 12.5417 302.695 12.7399 302.959 12.8857C303.223 13.027 303.531 13.0977 303.882 13.0977C304.228 13.0977 304.531 13.027 304.791 12.8857C305.055 12.7399 305.274 12.5417 305.447 12.291C305.62 12.0404 305.75 11.7533 305.837 11.4297C305.928 11.1016 305.974 10.7529 305.974 10.3838V10.2266C305.974 9.86198 305.928 9.5179 305.837 9.19434C305.75 8.86621 305.618 8.57682 305.44 8.32617C305.267 8.07096 305.049 7.87044 304.784 7.72461C304.524 7.57878 304.219 7.50586 303.868 7.50586C303.522 7.50586 303.216 7.57878 302.952 7.72461C302.692 7.87044 302.474 8.07096 302.296 8.32617C302.123 8.57682 301.993 8.86621 301.906 9.19434C301.82 9.5179 301.776 9.86198 301.776 10.2266ZM316.61 12.0381C316.61 11.8558 316.569 11.6872 316.487 11.5322C316.41 11.3727 316.248 11.2292 316.002 11.1016C315.76 10.9694 315.396 10.8555 314.908 10.7598C314.498 10.6732 314.127 10.5706 313.794 10.4521C313.466 10.3337 313.186 10.1901 312.953 10.0215C312.725 9.85286 312.55 9.65462 312.427 9.42676C312.304 9.19889 312.242 8.93229 312.242 8.62695C312.242 8.33529 312.306 8.05957 312.434 7.7998C312.566 7.54004 312.75 7.3099 312.987 7.10938C313.229 6.90885 313.518 6.75163 313.855 6.6377C314.193 6.52376 314.569 6.4668 314.983 6.4668C315.576 6.4668 316.082 6.57161 316.501 6.78125C316.92 6.99089 317.242 7.27116 317.465 7.62207C317.688 7.96842 317.8 8.35352 317.8 8.77734H316.535C316.535 8.57227 316.474 8.37402 316.351 8.18262C316.232 7.98665 316.057 7.82487 315.824 7.69727C315.596 7.56966 315.316 7.50586 314.983 7.50586C314.632 7.50586 314.348 7.56055 314.129 7.66992C313.915 7.77474 313.757 7.90918 313.657 8.07324C313.562 8.2373 313.514 8.41048 313.514 8.59277C313.514 8.72949 313.536 8.85254 313.582 8.96191C313.632 9.06673 313.719 9.16471 313.842 9.25586C313.965 9.34245 314.138 9.42448 314.361 9.50195C314.585 9.57943 314.869 9.6569 315.216 9.73438C315.822 9.87109 316.321 10.0352 316.713 10.2266C317.105 10.418 317.396 10.6527 317.588 10.9307C317.779 11.2087 317.875 11.5459 317.875 11.9424C317.875 12.266 317.807 12.5622 317.67 12.8311C317.538 13.0999 317.344 13.3324 317.089 13.5283C316.838 13.7197 316.537 13.8701 316.187 13.9795C315.84 14.0843 315.451 14.1367 315.018 14.1367C314.366 14.1367 313.814 14.0205 313.363 13.7881C312.912 13.5557 312.57 13.2549 312.338 12.8857C312.105 12.5166 311.989 12.127 311.989 11.7168H313.261C313.279 12.0632 313.379 12.3389 313.562 12.5439C313.744 12.7445 313.967 12.888 314.231 12.9746C314.496 13.0566 314.758 13.0977 315.018 13.0977C315.364 13.0977 315.653 13.0521 315.886 12.9609C316.123 12.8698 316.303 12.7445 316.426 12.585C316.549 12.4255 316.61 12.2432 316.61 12.0381ZM322.605 14.1367C322.09 14.1367 321.623 14.0501 321.204 13.877C320.789 13.6992 320.432 13.4508 320.131 13.1318C319.835 12.8128 319.607 12.4346 319.447 11.9971C319.288 11.5596 319.208 11.0811 319.208 10.5615V10.2744C319.208 9.67285 319.297 9.13737 319.475 8.66797C319.652 8.19401 319.894 7.79297 320.199 7.46484C320.505 7.13672 320.851 6.88835 321.238 6.71973C321.626 6.55111 322.027 6.4668 322.441 6.4668C322.97 6.4668 323.426 6.55794 323.809 6.74023C324.196 6.92253 324.513 7.17773 324.759 7.50586C325.005 7.82943 325.187 8.21224 325.306 8.6543C325.424 9.0918 325.483 9.57031 325.483 10.0898V10.6572H319.96V9.625H324.219V9.5293C324.201 9.20117 324.132 8.88216 324.014 8.57227C323.9 8.26237 323.717 8.00716 323.467 7.80664C323.216 7.60612 322.874 7.50586 322.441 7.50586C322.154 7.50586 321.89 7.56738 321.648 7.69043C321.407 7.80892 321.2 7.98665 321.026 8.22363C320.853 8.46061 320.719 8.75 320.623 9.0918C320.527 9.43359 320.479 9.8278 320.479 10.2744V10.5615C320.479 10.9124 320.527 11.2428 320.623 11.5527C320.723 11.8581 320.867 12.127 321.054 12.3594C321.245 12.5918 321.475 12.7741 321.744 12.9062C322.018 13.0384 322.327 13.1045 322.674 13.1045C323.12 13.1045 323.499 13.0133 323.809 12.8311C324.118 12.6488 324.39 12.4049 324.622 12.0996L325.388 12.708C325.228 12.9495 325.025 13.1797 324.779 13.3984C324.533 13.6172 324.23 13.7949 323.87 13.9316C323.515 14.0684 323.093 14.1367 322.605 14.1367ZM328.218 8.07324V14H326.946V6.60352H328.149L328.218 8.07324ZM327.958 10.0215L327.37 10.001C327.375 9.49512 327.441 9.02799 327.568 8.59961C327.696 8.16667 327.885 7.79069 328.136 7.47168C328.386 7.15267 328.699 6.90658 329.072 6.7334C329.446 6.55566 329.879 6.4668 330.371 6.4668C330.717 6.4668 331.036 6.51693 331.328 6.61719C331.62 6.71289 331.873 6.86556 332.087 7.0752C332.301 7.28483 332.467 7.55371 332.586 7.88184C332.704 8.20996 332.764 8.60645 332.764 9.07129V14H331.499V9.13281C331.499 8.74544 331.433 8.43555 331.301 8.20312C331.173 7.9707 330.991 7.80208 330.754 7.69727C330.517 7.58789 330.239 7.5332 329.92 7.5332C329.546 7.5332 329.234 7.59928 328.983 7.73145C328.733 7.86361 328.532 8.0459 328.382 8.27832C328.231 8.51074 328.122 8.77734 328.054 9.07812C327.99 9.37435 327.958 9.6888 327.958 10.0215ZM332.75 9.32422L331.902 9.58398C331.907 9.17839 331.973 8.78874 332.101 8.41504C332.233 8.04134 332.422 7.70866 332.668 7.41699C332.919 7.12533 333.226 6.89518 333.591 6.72656C333.955 6.55339 334.372 6.4668 334.842 6.4668C335.238 6.4668 335.589 6.51921 335.895 6.62402C336.204 6.72884 336.464 6.89062 336.674 7.10938C336.888 7.32357 337.05 7.59928 337.159 7.93652C337.269 8.27376 337.323 8.6748 337.323 9.13965V14H336.052V9.12598C336.052 8.71126 335.986 8.38997 335.854 8.16211C335.726 7.92969 335.544 7.7679 335.307 7.67676C335.074 7.58105 334.796 7.5332 334.473 7.5332C334.195 7.5332 333.949 7.58105 333.734 7.67676C333.52 7.77246 333.34 7.90462 333.194 8.07324C333.049 8.2373 332.937 8.42643 332.859 8.64062C332.786 8.85482 332.75 9.08268 332.75 9.32422ZM340.502 8.02539V16.8438H339.23V6.60352H340.393L340.502 8.02539ZM345.485 10.2402V10.3838C345.485 10.9215 345.422 11.4206 345.294 11.8809C345.166 12.3366 344.979 12.7331 344.733 13.0703C344.492 13.4076 344.193 13.6696 343.838 13.8564C343.482 14.0433 343.075 14.1367 342.614 14.1367C342.145 14.1367 341.73 14.0592 341.37 13.9043C341.01 13.7493 340.705 13.5238 340.454 13.2275C340.203 12.9313 340.003 12.5758 339.853 12.1611C339.707 11.7464 339.606 11.2793 339.552 10.7598V9.99414C339.606 9.44727 339.709 8.95736 339.859 8.52441C340.01 8.09147 340.208 7.72233 340.454 7.41699C340.705 7.1071 341.008 6.8724 341.363 6.71289C341.719 6.54883 342.129 6.4668 342.594 6.4668C343.059 6.4668 343.471 6.55794 343.831 6.74023C344.191 6.91797 344.494 7.17318 344.74 7.50586C344.986 7.83854 345.171 8.2373 345.294 8.70215C345.422 9.16243 345.485 9.67513 345.485 10.2402ZM344.214 10.3838V10.2402C344.214 9.87109 344.175 9.52474 344.098 9.20117C344.02 8.87305 343.899 8.58594 343.735 8.33984C343.576 8.08919 343.371 7.89323 343.12 7.75195C342.869 7.60612 342.571 7.5332 342.225 7.5332C341.906 7.5332 341.628 7.58789 341.391 7.69727C341.158 7.80664 340.96 7.95475 340.796 8.1416C340.632 8.32389 340.497 8.53353 340.393 8.77051C340.292 9.00293 340.217 9.24447 340.167 9.49512V11.2656C340.258 11.5846 340.386 11.8854 340.55 12.168C340.714 12.446 340.933 12.6715 341.206 12.8447C341.479 13.0133 341.824 13.0977 342.238 13.0977C342.58 13.0977 342.874 13.027 343.12 12.8857C343.371 12.7399 343.576 12.5417 343.735 12.291C343.899 12.0404 344.02 11.7533 344.098 11.4297C344.175 11.1016 344.214 10.7529 344.214 10.3838ZM348.363 7.76562V14H347.099V6.60352H348.329L348.363 7.76562ZM350.674 6.5625L350.667 7.73828C350.562 7.71549 350.462 7.70182 350.366 7.69727C350.275 7.68815 350.17 7.68359 350.052 7.68359C349.76 7.68359 349.503 7.72917 349.279 7.82031C349.056 7.91146 348.867 8.03906 348.712 8.20312C348.557 8.36719 348.434 8.56315 348.343 8.79102C348.256 9.01432 348.199 9.26042 348.172 9.5293L347.816 9.73438C347.816 9.28776 347.86 8.86849 347.946 8.47656C348.037 8.08464 348.176 7.73828 348.363 7.4375C348.55 7.13216 348.787 6.89518 349.074 6.72656C349.366 6.55339 349.712 6.4668 350.113 6.4668C350.204 6.4668 350.309 6.47819 350.428 6.50098C350.546 6.51921 350.628 6.53971 350.674 6.5625ZM354.775 14.1367C354.26 14.1367 353.793 14.0501 353.374 13.877C352.959 13.6992 352.602 13.4508 352.301 13.1318C352.005 12.8128 351.777 12.4346 351.617 11.9971C351.458 11.5596 351.378 11.0811 351.378 10.5615V10.2744C351.378 9.67285 351.467 9.13737 351.645 8.66797C351.822 8.19401 352.064 7.79297 352.369 7.46484C352.674 7.13672 353.021 6.88835 353.408 6.71973C353.796 6.55111 354.197 6.4668 354.611 6.4668C355.14 6.4668 355.596 6.55794 355.979 6.74023C356.366 6.92253 356.683 7.17773 356.929 7.50586C357.175 7.82943 357.357 8.21224 357.476 8.6543C357.594 9.0918 357.653 9.57031 357.653 10.0898V10.6572H352.13V9.625H356.389V9.5293C356.37 9.20117 356.302 8.88216 356.184 8.57227C356.07 8.26237 355.887 8.00716 355.637 7.80664C355.386 7.60612 355.044 7.50586 354.611 7.50586C354.324 7.50586 354.06 7.56738 353.818 7.69043C353.577 7.80892 353.369 7.98665 353.196 8.22363C353.023 8.46061 352.889 8.75 352.793 9.0918C352.697 9.43359 352.649 9.8278 352.649 10.2744V10.5615C352.649 10.9124 352.697 11.2428 352.793 11.5527C352.893 11.8581 353.037 12.127 353.224 12.3594C353.415 12.5918 353.645 12.7741 353.914 12.9062C354.188 13.0384 354.497 13.1045 354.844 13.1045C355.29 13.1045 355.669 13.0133 355.979 12.8311C356.288 12.6488 356.56 12.4049 356.792 12.0996L357.558 12.708C357.398 12.9495 357.195 13.1797 356.949 13.3984C356.703 13.6172 356.4 13.7949 356.04 13.9316C355.685 14.0684 355.263 14.1367 354.775 14.1367ZM361.639 14.98H375.639V0.98H361.639V14.98ZM375.639 14.98H389.639V0.98H375.639V14.98Z" fill="#262626"/>
<path d="M4.05615 56.5972L6.7793 48.7578H8.10596L4.68457 58H3.73877L4.05615 56.5972ZM1.51074 48.7578L4.2085 56.5972L4.54492 58H3.59912L0.184082 48.7578H1.51074ZM10.4482 51.1318V58H9.26758V51.1318H10.4482ZM9.17871 49.3101C9.17871 49.1196 9.23584 48.9588 9.3501 48.8276C9.46859 48.6965 9.64209 48.6309 9.87061 48.6309C10.0949 48.6309 10.2663 48.6965 10.3848 48.8276C10.5075 48.9588 10.5688 49.1196 10.5688 49.3101C10.5688 49.492 10.5075 49.6486 10.3848 49.7798C10.2663 49.9067 10.0949 49.9702 9.87061 49.9702C9.64209 49.9702 9.46859 49.9067 9.3501 49.7798C9.23584 49.6486 9.17871 49.492 9.17871 49.3101ZM15.1836 58.127C14.7054 58.127 14.2716 58.0465 13.8823 57.8857C13.4972 57.7207 13.165 57.4901 12.8857 57.1938C12.6107 56.8976 12.3991 56.5464 12.251 56.1401C12.1029 55.7339 12.0288 55.2896 12.0288 54.8071V54.5405C12.0288 53.9819 12.1113 53.4847 12.2764 53.0488C12.4414 52.6087 12.6657 52.2363 12.9492 51.9316C13.2327 51.627 13.5544 51.3963 13.9141 51.2397C14.2738 51.0832 14.6462 51.0049 15.0312 51.0049C15.5221 51.0049 15.9453 51.0895 16.3008 51.2588C16.6605 51.4281 16.9546 51.665 17.1831 51.9697C17.4116 52.2702 17.5809 52.6257 17.6909 53.0361C17.8009 53.4424 17.856 53.8867 17.856 54.3691V54.896H12.7271V53.9375H16.6816V53.8486C16.6647 53.5439 16.6012 53.2477 16.4912 52.96C16.3854 52.6722 16.2161 52.4352 15.9834 52.249C15.7507 52.0628 15.4333 51.9697 15.0312 51.9697C14.7646 51.9697 14.5192 52.0269 14.2949 52.1411C14.0706 52.2511 13.8781 52.4162 13.7173 52.6362C13.5565 52.8563 13.4316 53.125 13.3428 53.4424C13.2539 53.7598 13.2095 54.1258 13.2095 54.5405V54.8071C13.2095 55.133 13.2539 55.4398 13.3428 55.7275C13.4359 56.0111 13.5692 56.2607 13.7427 56.4766C13.9204 56.6924 14.1341 56.8617 14.3838 56.9844C14.6377 57.1071 14.9255 57.1685 15.2471 57.1685C15.6618 57.1685 16.013 57.0838 16.3008 56.9146C16.5885 56.7453 16.8403 56.5189 17.0562 56.2354L17.7671 56.8003C17.619 57.0246 17.4307 57.2383 17.2021 57.4414C16.9736 57.6445 16.6922 57.8096 16.3579 57.9365C16.0278 58.0635 15.6364 58.127 15.1836 58.127ZM20.9663 56.7812L22.731 51.1318H23.5054L23.353 52.2554L21.5566 58H20.8013L20.9663 56.7812ZM19.7793 51.1318L21.2837 56.8447L21.3916 58H20.5981L18.605 51.1318H19.7793ZM25.1938 56.8003L26.6284 51.1318H27.7964L25.8032 58H25.0161L25.1938 56.8003ZM23.6768 51.1318L25.4033 56.686L25.6001 58H24.8511L23.0039 52.2427L22.8516 51.1318H23.6768ZM36.2769 56.8257V53.29C36.2769 53.0192 36.2218 52.7843 36.1118 52.5854C36.006 52.3823 35.8452 52.2257 35.6294 52.1157C35.4136 52.0057 35.147 51.9507 34.8296 51.9507C34.5334 51.9507 34.2731 52.0015 34.0488 52.103C33.8288 52.2046 33.6553 52.3379 33.5283 52.5029C33.4056 52.668 33.3442 52.8457 33.3442 53.0361H32.1699C32.1699 52.7907 32.2334 52.5474 32.3604 52.3062C32.4873 52.0649 32.6693 51.847 32.9062 51.6523C33.1475 51.4535 33.4352 51.2969 33.7695 51.1826C34.1081 51.0641 34.4847 51.0049 34.8994 51.0049C35.3988 51.0049 35.8389 51.0895 36.2197 51.2588C36.6048 51.4281 36.9053 51.6841 37.1211 52.0269C37.3411 52.3654 37.4512 52.7907 37.4512 53.3027V56.502C37.4512 56.7305 37.4702 56.9738 37.5083 57.2319C37.5506 57.4901 37.612 57.7122 37.6924 57.8984V58H36.4673C36.408 57.8646 36.3615 57.6847 36.3276 57.4604C36.2938 57.2319 36.2769 57.0203 36.2769 56.8257ZM36.48 53.8359L36.4927 54.6611H35.3057C34.9714 54.6611 34.673 54.6886 34.4106 54.7437C34.1483 54.7944 33.9282 54.8727 33.7505 54.9785C33.5728 55.0843 33.4373 55.2176 33.3442 55.3784C33.2511 55.535 33.2046 55.7191 33.2046 55.9307C33.2046 56.1465 33.2533 56.3433 33.3506 56.521C33.4479 56.6987 33.5939 56.8405 33.7886 56.9463C33.9875 57.0479 34.2308 57.0986 34.5186 57.0986C34.8783 57.0986 35.1956 57.0225 35.4707 56.8701C35.7458 56.7178 35.9637 56.5316 36.1245 56.3115C36.2896 56.0915 36.3784 55.8778 36.3911 55.6704L36.8926 56.2354C36.863 56.4131 36.7826 56.6099 36.6514 56.8257C36.5202 57.0415 36.3446 57.2489 36.1245 57.4478C35.9087 57.6424 35.6506 57.8053 35.3501 57.9365C35.0539 58.0635 34.7196 58.127 34.3472 58.127C33.8817 58.127 33.4733 58.036 33.1221 57.854C32.7751 57.672 32.5042 57.4287 32.3096 57.124C32.1191 56.8151 32.0239 56.4702 32.0239 56.0894C32.0239 55.7212 32.0959 55.3975 32.2397 55.1182C32.3836 54.8346 32.591 54.5998 32.8618 54.4136C33.1326 54.2231 33.4585 54.0793 33.8394 53.9819C34.2202 53.8846 34.6455 53.8359 35.1152 53.8359H36.48ZM40.5742 48.25V58H39.3936V48.25H40.5742ZM43.7354 48.25V58H42.5547V48.25H43.7354ZM52.5776 48.707V58H51.4033V50.1733L49.0356 51.0366V49.9766L52.3936 48.707H52.5776ZM57.7446 52.8013H58.5825C58.993 52.8013 59.3315 52.7336 59.5981 52.5981C59.869 52.4585 60.07 52.2702 60.2012 52.0332C60.3366 51.792 60.4043 51.5212 60.4043 51.2207C60.4043 50.8652 60.3451 50.5669 60.2266 50.3257C60.1081 50.0845 59.9303 49.9025 59.6934 49.7798C59.4564 49.6571 59.1559 49.5957 58.792 49.5957C58.4619 49.5957 58.1699 49.6613 57.916 49.7925C57.6663 49.9194 57.4696 50.1014 57.3257 50.3384C57.186 50.5754 57.1162 50.8547 57.1162 51.1763H55.9419C55.9419 50.7065 56.0604 50.2791 56.2974 49.894C56.5343 49.509 56.8665 49.2021 57.2939 48.9736C57.7256 48.7451 58.2249 48.6309 58.792 48.6309C59.3506 48.6309 59.8394 48.7303 60.2583 48.9292C60.6772 49.1239 61.0031 49.4159 61.2358 49.8052C61.4686 50.1903 61.585 50.6706 61.585 51.2461C61.585 51.4788 61.5299 51.7285 61.4199 51.9951C61.3141 52.2575 61.147 52.5029 60.9185 52.7314C60.6942 52.96 60.4022 53.1483 60.0425 53.2964C59.6828 53.4403 59.2511 53.5122 58.7476 53.5122H57.7446V52.8013ZM57.7446 53.7661V53.0615H58.7476C59.3358 53.0615 59.8224 53.1313 60.2075 53.271C60.5926 53.4106 60.8952 53.5968 61.1152 53.8296C61.3395 54.0623 61.4961 54.3184 61.585 54.5977C61.6781 54.8727 61.7246 55.1478 61.7246 55.4229C61.7246 55.8545 61.6506 56.2375 61.5024 56.5718C61.3586 56.9061 61.1533 57.1896 60.8867 57.4224C60.6243 57.6551 60.3154 57.8307 59.96 57.9492C59.6045 58.0677 59.2173 58.127 58.7983 58.127C58.3963 58.127 58.0176 58.0698 57.6621 57.9556C57.3109 57.8413 56.9998 57.6763 56.729 57.4604C56.4582 57.2404 56.2466 56.9717 56.0942 56.6543C55.9419 56.3327 55.8657 55.9666 55.8657 55.5562H57.04C57.04 55.8778 57.1099 56.1592 57.2495 56.4004C57.3934 56.6416 57.5965 56.8299 57.8589 56.9653C58.1255 57.0965 58.4386 57.1621 58.7983 57.1621C59.158 57.1621 59.467 57.1007 59.7251 56.978C59.9875 56.8511 60.1885 56.6606 60.3281 56.4067C60.472 56.1528 60.5439 55.8333 60.5439 55.4482C60.5439 55.0632 60.4635 54.7479 60.3027 54.5024C60.1419 54.2528 59.9134 54.0687 59.6172 53.9502C59.3252 53.8275 58.9803 53.7661 58.5825 53.7661H57.7446ZM64.5366 56.6035V57.5493C64.5366 57.9344 64.4393 58.3407 64.2446 58.7681C64.05 59.1997 63.777 59.5594 63.4258 59.8472L62.7593 59.3838C62.8947 59.1976 63.009 59.0072 63.1021 58.8125C63.1951 58.6221 63.265 58.4232 63.3115 58.2158C63.3623 58.0127 63.3877 57.7969 63.3877 57.5684V56.6035H64.5366ZM67.6216 52.8013H68.4595C68.87 52.8013 69.2085 52.7336 69.4751 52.5981C69.7459 52.4585 69.9469 52.2702 70.0781 52.0332C70.2135 51.792 70.2812 51.5212 70.2812 51.2207C70.2812 50.8652 70.222 50.5669 70.1035 50.3257C69.985 50.0845 69.8073 49.9025 69.5703 49.7798C69.3333 49.6571 69.0329 49.5957 68.6689 49.5957C68.3389 49.5957 68.0469 49.6613 67.793 49.7925C67.5433 49.9194 67.3465 50.1014 67.2026 50.3384C67.063 50.5754 66.9932 50.8547 66.9932 51.1763H65.8188C65.8188 50.7065 65.9373 50.2791 66.1743 49.894C66.4113 49.509 66.7435 49.2021 67.1709 48.9736C67.6025 48.7451 68.1019 48.6309 68.6689 48.6309C69.2275 48.6309 69.7163 48.7303 70.1353 48.9292C70.5542 49.1239 70.88 49.4159 71.1128 49.8052C71.3455 50.1903 71.4619 50.6706 71.4619 51.2461C71.4619 51.4788 71.4069 51.7285 71.2969 51.9951C71.1911 52.2575 71.0239 52.5029 70.7954 52.7314C70.5711 52.96 70.2791 53.1483 69.9194 53.2964C69.5597 53.4403 69.1281 53.5122 68.6245 53.5122H67.6216V52.8013ZM67.6216 53.7661V53.0615H68.6245C69.2127 53.0615 69.6994 53.1313 70.0845 53.271C70.4696 53.4106 70.7721 53.5968 70.9922 53.8296C71.2165 54.0623 71.373 54.3184 71.4619 54.5977C71.555 54.8727 71.6016 55.1478 71.6016 55.4229C71.6016 55.8545 71.5275 56.2375 71.3794 56.5718C71.2355 56.9061 71.0303 57.1896 70.7637 57.4224C70.5013 57.6551 70.1924 57.8307 69.8369 57.9492C69.4814 58.0677 69.0942 58.127 68.6753 58.127C68.2733 58.127 67.8945 58.0698 67.5391 57.9556C67.1878 57.8413 66.8768 57.6763 66.606 57.4604C66.3351 57.2404 66.1235 56.9717 65.9712 56.6543C65.8188 56.3327 65.7427 55.9666 65.7427 55.5562H66.917C66.917 55.8778 66.9868 56.1592 67.1265 56.4004C67.2703 56.6416 67.4735 56.8299 67.7358 56.9653C68.0024 57.0965 68.3156 57.1621 68.6753 57.1621C69.035 57.1621 69.3439 57.1007 69.6021 56.978C69.8644 56.8511 70.0654 56.6606 70.2051 56.4067C70.349 56.1528 70.4209 55.8333 70.4209 55.4482C70.4209 55.0632 70.3405 54.7479 70.1797 54.5024C70.0189 54.2528 69.7904 54.0687 69.4941 53.9502C69.2021 53.8275 68.8573 53.7661 68.4595 53.7661H67.6216ZM79.0474 55.499C79.0474 56.0618 78.9162 56.54 78.6538 56.9336C78.3957 57.3229 78.0444 57.6191 77.6001 57.8223C77.16 58.0254 76.6628 58.127 76.1084 58.127C75.554 58.127 75.0547 58.0254 74.6104 57.8223C74.166 57.6191 73.8148 57.3229 73.5566 56.9336C73.2985 56.54 73.1694 56.0618 73.1694 55.499C73.1694 55.1309 73.2393 54.7944 73.3789 54.4897C73.5228 54.1808 73.7238 53.9121 73.9819 53.6836C74.2443 53.4551 74.5532 53.2795 74.9087 53.1567C75.2684 53.0298 75.6641 52.9663 76.0957 52.9663C76.6628 52.9663 77.1685 53.0763 77.6128 53.2964C78.0571 53.5122 78.4062 53.8105 78.6602 54.1914C78.9183 54.5723 79.0474 55.0081 79.0474 55.499ZM77.8667 55.4736C77.8667 55.1309 77.7926 54.8283 77.6445 54.5659C77.4964 54.2993 77.2891 54.092 77.0225 53.9438C76.7559 53.7957 76.4469 53.7217 76.0957 53.7217C75.736 53.7217 75.425 53.7957 75.1626 53.9438C74.9045 54.092 74.7035 54.2993 74.5596 54.5659C74.4157 54.8283 74.3438 55.1309 74.3438 55.4736C74.3438 55.8291 74.4136 56.1338 74.5532 56.3877C74.6971 56.6374 74.9002 56.8299 75.1626 56.9653C75.4292 57.0965 75.7445 57.1621 76.1084 57.1621C76.4723 57.1621 76.7855 57.0965 77.0479 56.9653C77.3102 56.8299 77.5112 56.6374 77.6509 56.3877C77.7948 56.1338 77.8667 55.8291 77.8667 55.4736ZM78.8315 51.1636C78.8315 51.6121 78.7131 52.0163 78.4761 52.376C78.2391 52.7357 77.9154 53.0192 77.5049 53.2266C77.0944 53.4339 76.6289 53.5376 76.1084 53.5376C75.5794 53.5376 75.1076 53.4339 74.6929 53.2266C74.2824 53.0192 73.9608 52.7357 73.728 52.376C73.4953 52.0163 73.3789 51.6121 73.3789 51.1636C73.3789 50.6261 73.4953 50.1691 73.728 49.7925C73.965 49.4159 74.2887 49.1281 74.6992 48.9292C75.1097 48.7303 75.5773 48.6309 76.1021 48.6309C76.631 48.6309 77.1007 48.7303 77.5112 48.9292C77.9217 49.1281 78.2433 49.4159 78.4761 49.7925C78.7131 50.1691 78.8315 50.6261 78.8315 51.1636ZM77.6572 51.1826C77.6572 50.8737 77.5916 50.6007 77.4604 50.3638C77.3293 50.1268 77.1473 49.9406 76.9146 49.8052C76.6818 49.6655 76.411 49.5957 76.1021 49.5957C75.7931 49.5957 75.5223 49.6613 75.2896 49.7925C75.061 49.9194 74.8812 50.1014 74.75 50.3384C74.623 50.5754 74.5596 50.8568 74.5596 51.1826C74.5596 51.5 74.623 51.7772 74.75 52.0142C74.8812 52.2511 75.0632 52.4352 75.2959 52.5664C75.5286 52.6976 75.7995 52.7632 76.1084 52.7632C76.4173 52.7632 76.686 52.6976 76.9146 52.5664C77.1473 52.4352 77.3293 52.2511 77.4604 52.0142C77.5916 51.7772 77.6572 51.5 77.6572 51.1826ZM86.7788 54.8896V55.8545H80.1011V55.1626L84.2397 48.7578H85.1982L84.1699 50.6113L81.4341 54.8896H86.7788ZM85.4902 48.7578V58H84.3159V48.7578H85.4902ZM93.9453 57.1621C94.2246 57.1621 94.4827 57.105 94.7197 56.9907C94.9567 56.8765 95.1514 56.7199 95.3037 56.521C95.4561 56.3179 95.5428 56.0872 95.564 55.8291H96.6812C96.66 56.2354 96.5225 56.6141 96.2686 56.9653C96.0189 57.3123 95.6909 57.5938 95.2847 57.8096C94.8784 58.0212 94.432 58.127 93.9453 58.127C93.429 58.127 92.9784 58.036 92.5933 57.854C92.2124 57.672 91.895 57.4224 91.6411 57.105C91.3914 56.7876 91.2031 56.4237 91.0762 56.0132C90.9535 55.5985 90.8921 55.1605 90.8921 54.6992V54.4326C90.8921 53.9714 90.9535 53.5355 91.0762 53.125C91.2031 52.7103 91.3914 52.3442 91.6411 52.0269C91.895 51.7095 92.2124 51.4598 92.5933 51.2778C92.9784 51.0959 93.429 51.0049 93.9453 51.0049C94.4827 51.0049 94.9525 51.1149 95.3545 51.335C95.7565 51.5508 96.0718 51.847 96.3003 52.2236C96.533 52.596 96.66 53.0192 96.6812 53.4932H95.564C95.5428 53.2096 95.4624 52.9536 95.3228 52.7251C95.1873 52.4966 95.0011 52.3146 94.7642 52.1792C94.5314 52.0396 94.2585 51.9697 93.9453 51.9697C93.5856 51.9697 93.283 52.0417 93.0376 52.1855C92.7964 52.3252 92.6038 52.5156 92.46 52.7568C92.3203 52.9938 92.2188 53.2583 92.1553 53.5503C92.096 53.8381 92.0664 54.1322 92.0664 54.4326V54.6992C92.0664 54.9997 92.096 55.2959 92.1553 55.5879C92.2145 55.8799 92.314 56.1444 92.4536 56.3813C92.5975 56.6183 92.79 56.8088 93.0312 56.9526C93.2767 57.0923 93.5814 57.1621 93.9453 57.1621ZM97.6904 54.6421V54.4961C97.6904 54.001 97.7624 53.5418 97.9062 53.1187C98.0501 52.6912 98.2575 52.321 98.5283 52.0078C98.7992 51.6904 99.1271 51.445 99.5122 51.2715C99.8973 51.0938 100.329 51.0049 100.807 51.0049C101.29 51.0049 101.723 51.0938 102.108 51.2715C102.498 51.445 102.828 51.6904 103.099 52.0078C103.374 52.321 103.583 52.6912 103.727 53.1187C103.871 53.5418 103.943 54.001 103.943 54.4961V54.6421C103.943 55.1372 103.871 55.5964 103.727 56.0195C103.583 56.4427 103.374 56.813 103.099 57.1304C102.828 57.4435 102.5 57.689 102.115 57.8667C101.734 58.0402 101.302 58.127 100.82 58.127C100.337 58.127 99.9036 58.0402 99.5186 57.8667C99.1335 57.689 98.8034 57.4435 98.5283 57.1304C98.2575 56.813 98.0501 56.4427 97.9062 56.0195C97.7624 55.5964 97.6904 55.1372 97.6904 54.6421ZM98.8647 54.4961V54.6421C98.8647 54.9849 98.9049 55.3086 98.9854 55.6133C99.0658 55.9137 99.1864 56.1803 99.3472 56.4131C99.5122 56.6458 99.7174 56.8299 99.9629 56.9653C100.208 57.0965 100.494 57.1621 100.82 57.1621C101.141 57.1621 101.423 57.0965 101.664 56.9653C101.91 56.8299 102.113 56.6458 102.273 56.4131C102.434 56.1803 102.555 55.9137 102.635 55.6133C102.72 55.3086 102.762 54.9849 102.762 54.6421V54.4961C102.762 54.1576 102.72 53.8381 102.635 53.5376C102.555 53.2329 102.432 52.9642 102.267 52.7314C102.106 52.4945 101.903 52.3083 101.658 52.1729C101.417 52.0374 101.133 51.9697 100.807 51.9697C100.486 51.9697 100.202 52.0374 99.9565 52.1729C99.7153 52.3083 99.5122 52.4945 99.3472 52.7314C99.1864 52.9642 99.0658 53.2329 98.9854 53.5376C98.9049 53.8381 98.8647 54.1576 98.8647 54.4961ZM106.583 52.4966V58H105.403V51.1318H106.52L106.583 52.4966ZM106.342 54.3057L105.796 54.2866C105.801 53.8169 105.862 53.3831 105.98 52.9854C106.099 52.5833 106.275 52.2342 106.507 51.938C106.74 51.6418 107.03 51.4132 107.377 51.2524C107.724 51.0874 108.126 51.0049 108.583 51.0049C108.905 51.0049 109.201 51.0514 109.472 51.1445C109.743 51.2334 109.977 51.3752 110.176 51.5698C110.375 51.7645 110.53 52.0142 110.64 52.3188C110.75 52.6235 110.805 52.9917 110.805 53.4233V58H109.63V53.4805C109.63 53.1208 109.569 52.833 109.446 52.6172C109.328 52.4014 109.159 52.2448 108.938 52.1475C108.718 52.0459 108.46 51.9951 108.164 51.9951C107.817 51.9951 107.527 52.0565 107.294 52.1792C107.062 52.3019 106.875 52.4712 106.736 52.687C106.596 52.9028 106.495 53.1504 106.431 53.4297C106.372 53.7048 106.342 53.9967 106.342 54.3057ZM110.792 53.6582L110.005 53.8994C110.009 53.5228 110.07 53.161 110.189 52.814C110.312 52.467 110.487 52.158 110.716 51.8872C110.949 51.6164 111.234 51.4027 111.573 51.2461C111.911 51.0853 112.299 51.0049 112.734 51.0049C113.103 51.0049 113.428 51.0535 113.712 51.1509C114 51.2482 114.241 51.3984 114.436 51.6016C114.634 51.8005 114.785 52.0565 114.886 52.3696C114.988 52.6828 115.039 53.0552 115.039 53.4868V58H113.858V53.4741C113.858 53.089 113.797 52.7907 113.674 52.5791C113.555 52.3633 113.386 52.2131 113.166 52.1284C112.95 52.0396 112.692 51.9951 112.392 51.9951C112.133 51.9951 111.905 52.0396 111.706 52.1284C111.507 52.2173 111.34 52.34 111.205 52.4966C111.069 52.6489 110.965 52.8245 110.894 53.0234C110.826 53.2223 110.792 53.4339 110.792 53.6582ZM117.984 52.4966V58H116.803V51.1318H117.92L117.984 52.4966ZM117.743 54.3057L117.197 54.2866C117.201 53.8169 117.262 53.3831 117.381 52.9854C117.499 52.5833 117.675 52.2342 117.908 51.938C118.14 51.6418 118.43 51.4132 118.777 51.2524C119.124 51.0874 119.526 51.0049 119.983 51.0049C120.305 51.0049 120.601 51.0514 120.872 51.1445C121.143 51.2334 121.378 51.3752 121.577 51.5698C121.776 51.7645 121.93 52.0142 122.04 52.3188C122.15 52.6235 122.205 52.9917 122.205 53.4233V58H121.031V53.4805C121.031 53.1208 120.969 52.833 120.847 52.6172C120.728 52.4014 120.559 52.2448 120.339 52.1475C120.119 52.0459 119.861 51.9951 119.564 51.9951C119.217 51.9951 118.928 52.0565 118.695 52.1792C118.462 52.3019 118.276 52.4712 118.136 52.687C117.997 52.9028 117.895 53.1504 117.832 53.4297C117.772 53.7048 117.743 53.9967 117.743 54.3057ZM122.192 53.6582L121.405 53.8994C121.41 53.5228 121.471 53.161 121.589 52.814C121.712 52.467 121.888 52.158 122.116 51.8872C122.349 51.6164 122.635 51.4027 122.973 51.2461C123.312 51.0853 123.699 51.0049 124.135 51.0049C124.503 51.0049 124.829 51.0535 125.112 51.1509C125.4 51.2482 125.641 51.3984 125.836 51.6016C126.035 51.8005 126.185 52.0565 126.287 52.3696C126.388 52.6828 126.439 53.0552 126.439 53.4868V58H125.258V53.4741C125.258 53.089 125.197 52.7907 125.074 52.5791C124.956 52.3633 124.786 52.2131 124.566 52.1284C124.351 52.0396 124.092 51.9951 123.792 51.9951C123.534 51.9951 123.305 52.0396 123.106 52.1284C122.908 52.2173 122.74 52.34 122.605 52.4966C122.47 52.6489 122.366 52.8245 122.294 53.0234C122.226 53.2223 122.192 53.4339 122.192 53.6582ZM131.066 58.127C130.588 58.127 130.154 58.0465 129.765 57.8857C129.38 57.7207 129.048 57.4901 128.769 57.1938C128.493 56.8976 128.282 56.5464 128.134 56.1401C127.986 55.7339 127.912 55.2896 127.912 54.8071V54.5405C127.912 53.9819 127.994 53.4847 128.159 53.0488C128.324 52.6087 128.549 52.2363 128.832 51.9316C129.116 51.627 129.437 51.3963 129.797 51.2397C130.157 51.0832 130.529 51.0049 130.914 51.0049C131.405 51.0049 131.828 51.0895 132.184 51.2588C132.543 51.4281 132.837 51.665 133.066 51.9697C133.294 52.2702 133.464 52.6257 133.574 53.0361C133.684 53.4424 133.739 53.8867 133.739 54.3691V54.896H128.61V53.9375H132.564V53.8486C132.548 53.5439 132.484 53.2477 132.374 52.96C132.268 52.6722 132.099 52.4352 131.866 52.249C131.633 52.0628 131.316 51.9697 130.914 51.9697C130.647 51.9697 130.402 52.0269 130.178 52.1411C129.953 52.2511 129.761 52.4162 129.6 52.6362C129.439 52.8563 129.314 53.125 129.226 53.4424C129.137 53.7598 129.092 54.1258 129.092 54.5405V54.8071C129.092 55.133 129.137 55.4398 129.226 55.7275C129.319 56.0111 129.452 56.2607 129.625 56.4766C129.803 56.6924 130.017 56.8617 130.267 56.9844C130.521 57.1071 130.808 57.1685 131.13 57.1685C131.545 57.1685 131.896 57.0838 132.184 56.9146C132.471 56.7453 132.723 56.5189 132.939 56.2354L133.65 56.8003C133.502 57.0246 133.313 57.2383 133.085 57.4414C132.856 57.6445 132.575 57.8096 132.241 57.9365C131.911 58.0635 131.519 58.127 131.066 58.127ZM136.284 52.5981V58H135.11V51.1318H136.221L136.284 52.5981ZM136.005 54.3057L135.516 54.2866C135.52 53.8169 135.59 53.3831 135.726 52.9854C135.861 52.5833 136.051 52.2342 136.297 51.938C136.542 51.6418 136.834 51.4132 137.173 51.2524C137.516 51.0874 137.894 51.0049 138.309 51.0049C138.648 51.0049 138.952 51.0514 139.223 51.1445C139.494 51.2334 139.725 51.3773 139.915 51.5762C140.11 51.7751 140.258 52.0332 140.359 52.3506C140.461 52.6637 140.512 53.0467 140.512 53.4995V58H139.331V53.4868C139.331 53.1271 139.278 52.8394 139.172 52.6235C139.067 52.4035 138.912 52.2448 138.709 52.1475C138.506 52.0459 138.256 51.9951 137.96 51.9951C137.668 51.9951 137.401 52.0565 137.16 52.1792C136.923 52.3019 136.718 52.4712 136.544 52.687C136.375 52.9028 136.242 53.1504 136.145 53.4297C136.051 53.7048 136.005 53.9967 136.005 54.3057ZM145.171 51.1318V52.0332H141.458V51.1318H145.171ZM142.714 49.4624H143.889V56.2988C143.889 56.5316 143.925 56.7072 143.997 56.8257C144.069 56.9442 144.162 57.0225 144.276 57.0605C144.39 57.0986 144.513 57.1177 144.644 57.1177C144.741 57.1177 144.843 57.1092 144.949 57.0923C145.059 57.0711 145.141 57.0542 145.196 57.0415L145.203 58C145.11 58.0296 144.987 58.0571 144.834 58.0825C144.686 58.1121 144.507 58.127 144.295 58.127C144.007 58.127 143.743 58.0698 143.501 57.9556C143.26 57.8413 143.068 57.6509 142.924 57.3843C142.784 57.1134 142.714 56.7495 142.714 56.2925V49.4624ZM150.547 56.1782C150.547 56.009 150.509 55.8524 150.433 55.7085C150.361 55.5604 150.211 55.4271 149.982 55.3086C149.758 55.1859 149.42 55.0801 148.967 54.9912C148.586 54.9108 148.241 54.8156 147.932 54.7056C147.627 54.5955 147.367 54.4622 147.151 54.3057C146.94 54.1491 146.777 53.965 146.663 53.7534C146.548 53.5418 146.491 53.2943 146.491 53.0107C146.491 52.7399 146.55 52.4839 146.669 52.2427C146.792 52.0015 146.963 51.7878 147.183 51.6016C147.407 51.4154 147.676 51.2694 147.989 51.1636C148.302 51.0578 148.652 51.0049 149.037 51.0049C149.587 51.0049 150.056 51.1022 150.446 51.2969C150.835 51.4915 151.133 51.7518 151.341 52.0776C151.548 52.3993 151.652 52.7568 151.652 53.1504H150.478C150.478 52.96 150.42 52.7759 150.306 52.5981C150.196 52.4162 150.033 52.266 149.817 52.1475C149.606 52.029 149.346 51.9697 149.037 51.9697C148.711 51.9697 148.446 52.0205 148.243 52.1221C148.044 52.2194 147.898 52.3442 147.805 52.4966C147.716 52.6489 147.672 52.8097 147.672 52.979C147.672 53.106 147.693 53.2202 147.735 53.3218C147.782 53.4191 147.862 53.5101 147.977 53.5947C148.091 53.6751 148.252 53.7513 148.459 53.8232C148.666 53.8952 148.931 53.9671 149.252 54.0391C149.815 54.166 150.279 54.3184 150.643 54.4961C151.007 54.6738 151.277 54.8918 151.455 55.1499C151.633 55.408 151.722 55.7212 151.722 56.0894C151.722 56.3898 151.658 56.6649 151.531 56.9146C151.409 57.1642 151.229 57.38 150.992 57.562C150.759 57.7397 150.48 57.8794 150.154 57.981C149.832 58.0783 149.47 58.127 149.068 58.127C148.463 58.127 147.951 58.019 147.532 57.8032C147.113 57.5874 146.796 57.3081 146.58 56.9653C146.364 56.6226 146.256 56.2607 146.256 55.8799H147.437C147.454 56.2015 147.547 56.4575 147.716 56.6479C147.886 56.8341 148.093 56.9674 148.338 57.0479C148.584 57.124 148.827 57.1621 149.068 57.1621C149.39 57.1621 149.659 57.1198 149.875 57.0352C150.095 56.9505 150.262 56.8341 150.376 56.686C150.49 56.5379 150.547 56.3687 150.547 56.1782Z" fill="#8E8E8E"/>
</svg>
