<svg width="470" height="38" viewBox="0 0 470 38" fill="none" xmlns="http://www.w3.org/2000/svg">
<path d="M2.61816 4.91504V15.4219H0.813477V4.91504H2.61816ZM7.25293 8.02539L4.0332 11.6416L2.29004 13.4121L1.71582 12.0107L3.0625 10.3154L5.07227 8.02539H7.25293ZM5.40723 15.4219L3.11719 11.9766L4.32031 10.8076L7.49902 15.4219H5.40723ZM12.6123 13.665V8.02539H14.4307V15.4219H12.7217L12.6123 13.665ZM12.8447 12.1338L13.4053 12.1201C13.4053 12.6169 13.3506 13.0749 13.2412 13.4941C13.1318 13.9134 12.9609 14.278 12.7285 14.5879C12.5007 14.8932 12.2113 15.1325 11.8604 15.3057C11.5094 15.4743 11.0947 15.5586 10.6162 15.5586C10.2516 15.5586 9.91895 15.5085 9.61816 15.4082C9.31738 15.3034 9.05762 15.1416 8.83887 14.9229C8.62467 14.6995 8.45833 14.4147 8.33984 14.0684C8.22135 13.7174 8.16211 13.2959 8.16211 12.8037V8.02539H9.9668V12.8174C9.9668 13.0635 9.99414 13.2686 10.0488 13.4326C10.1081 13.5967 10.1878 13.7311 10.2881 13.8359C10.3929 13.9362 10.5137 14.0091 10.6504 14.0547C10.7917 14.0957 10.9421 14.1162 11.1016 14.1162C11.5391 14.1162 11.8831 14.0296 12.1338 13.8564C12.389 13.6787 12.5713 13.4417 12.6807 13.1455C12.79 12.8447 12.8447 12.5075 12.8447 12.1338ZM17.835 9.53613V15.4219H16.0303V8.02539H17.7393L17.835 9.53613ZM20.084 7.97754L20.0566 9.65918C19.9564 9.64095 19.8424 9.62728 19.7148 9.61816C19.5918 9.60905 19.4756 9.60449 19.3662 9.60449C19.0882 9.60449 18.8444 9.64323 18.6348 9.7207C18.4251 9.79362 18.2497 9.90072 18.1084 10.042C17.9717 10.1833 17.8669 10.3564 17.7939 10.5615C17.721 10.762 17.68 10.9899 17.6709 11.2451L17.2812 11.1973C17.2812 10.7279 17.3291 10.2926 17.4248 9.8916C17.5205 9.49056 17.6595 9.13965 17.8418 8.83887C18.0241 8.53809 18.252 8.30566 18.5254 8.1416C18.8034 7.97298 19.1224 7.88867 19.4824 7.88867C19.5827 7.88867 19.6898 7.89779 19.8037 7.91602C19.9222 7.92969 20.0156 7.9502 20.084 7.97754ZM26.8721 14V15.4219H21.3076V14H26.8721ZM26.7422 9.10547L21.9844 15.4219H20.7949V14.3076L25.5254 8.02539H26.7422V9.10547ZM26.0791 8.02539V9.4541H20.8906V8.02539H26.0791ZM32.751 8.02539H34.3916V15.1963C34.3916 15.8662 34.2458 16.4336 33.9541 16.8984C33.667 17.3678 33.2637 17.7233 32.7441 17.9648C32.2246 18.2109 31.6208 18.334 30.9326 18.334C30.6364 18.334 30.3151 18.293 29.9688 18.2109C29.627 18.1289 29.2965 17.999 28.9775 17.8213C28.6631 17.6481 28.401 17.4225 28.1914 17.1445L29.0049 16.0781C29.251 16.3652 29.529 16.5817 29.8389 16.7275C30.1488 16.8779 30.4837 16.9531 30.8438 16.9531C31.2083 16.9531 31.5182 16.8848 31.7734 16.748C32.0332 16.6159 32.2314 16.4199 32.3682 16.1602C32.5094 15.9049 32.5801 15.5905 32.5801 15.2168V9.71387L32.751 8.02539ZM27.7539 11.8125V11.6689C27.7539 11.1038 27.8223 10.5911 27.959 10.1309C28.0957 9.66602 28.2917 9.26725 28.5469 8.93457C28.8066 8.60189 29.1188 8.3444 29.4834 8.16211C29.8525 7.97982 30.2673 7.88867 30.7275 7.88867C31.2152 7.88867 31.6253 7.97754 31.958 8.15527C32.2952 8.33301 32.5732 8.58594 32.792 8.91406C33.0153 9.24219 33.1885 9.63184 33.3115 10.083C33.4391 10.5296 33.5371 11.0218 33.6055 11.5596V11.9492C33.5417 12.4733 33.4391 12.9541 33.2979 13.3916C33.1611 13.8291 32.9788 14.2119 32.751 14.54C32.5231 14.8636 32.2406 15.1143 31.9033 15.292C31.5661 15.4697 31.1696 15.5586 30.7139 15.5586C30.2581 15.5586 29.848 15.4652 29.4834 15.2783C29.1188 15.0915 28.8066 14.8294 28.5469 14.4922C28.2917 14.1549 28.0957 13.7585 27.959 13.3027C27.8223 12.847 27.7539 12.3503 27.7539 11.8125ZM29.5586 11.6689V11.8125C29.5586 12.1315 29.5905 12.43 29.6543 12.708C29.7181 12.986 29.8161 13.2321 29.9482 13.4463C30.0804 13.6559 30.2467 13.82 30.4473 13.9385C30.6478 14.057 30.887 14.1162 31.165 14.1162C31.5387 14.1162 31.8441 14.0387 32.0811 13.8838C32.3226 13.7243 32.5049 13.5078 32.6279 13.2344C32.7555 12.9564 32.8376 12.6442 32.874 12.2979V11.2246C32.8512 10.9512 32.8011 10.6982 32.7236 10.4658C32.6507 10.2334 32.5482 10.0329 32.416 9.86426C32.2839 9.69564 32.1152 9.56348 31.9102 9.46777C31.7051 9.37207 31.4613 9.32422 31.1787 9.32422C30.9053 9.32422 30.666 9.38574 30.4609 9.50879C30.2559 9.62728 30.0872 9.79362 29.9551 10.0078C29.8229 10.222 29.7227 10.4704 29.6543 10.7529C29.5905 11.0355 29.5586 11.3408 29.5586 11.6689ZM39.3408 15.5586C38.7803 15.5586 38.2767 15.4674 37.8301 15.2852C37.3835 15.1029 37.0029 14.8499 36.6885 14.5264C36.3786 14.1982 36.1393 13.8177 35.9707 13.3848C35.8066 12.9473 35.7246 12.4779 35.7246 11.9766V11.7031C35.7246 11.1335 35.8066 10.6162 35.9707 10.1514C36.1348 9.68197 36.3672 9.27865 36.668 8.94141C36.9688 8.60417 37.3288 8.3444 37.748 8.16211C38.1673 7.97982 38.6299 7.88867 39.1357 7.88867C39.6598 7.88867 40.1224 7.97754 40.5234 8.15527C40.9245 8.32845 41.2594 8.57454 41.5283 8.89355C41.7972 9.21257 42 9.59538 42.1367 10.042C42.2734 10.484 42.3418 10.974 42.3418 11.5117V12.2705H36.5449V11.0264H40.5645V10.8896C40.5553 10.6025 40.5007 10.3405 40.4004 10.1035C40.3001 9.86198 40.1452 9.67057 39.9355 9.5293C39.7259 9.38346 39.4548 9.31055 39.1221 9.31055C38.8532 9.31055 38.6185 9.36979 38.418 9.48828C38.222 9.60221 38.0579 9.76628 37.9258 9.98047C37.7982 10.1901 37.7025 10.4408 37.6387 10.7324C37.5749 11.0241 37.543 11.3477 37.543 11.7031V11.9766C37.543 12.2865 37.584 12.5736 37.666 12.8379C37.7526 13.1022 37.8779 13.3324 38.042 13.5283C38.2106 13.7197 38.4111 13.8701 38.6436 13.9795C38.8805 14.0843 39.1494 14.1367 39.4502 14.1367C39.8285 14.1367 40.1702 14.0638 40.4756 13.918C40.7855 13.7676 41.0544 13.5465 41.2822 13.2549L42.1914 14.1982C42.0365 14.4261 41.8268 14.6449 41.5625 14.8545C41.3027 15.0641 40.9883 15.235 40.6191 15.3672C40.25 15.4948 39.8239 15.5586 39.3408 15.5586ZM47.6191 13.3984C47.6191 13.2435 47.5781 13.1045 47.4961 12.9814C47.4141 12.8584 47.2591 12.7467 47.0312 12.6465C46.8079 12.5417 46.4798 12.4437 46.0469 12.3525C45.6641 12.2705 45.3109 12.168 44.9873 12.0449C44.6637 11.9219 44.3857 11.7738 44.1533 11.6006C43.9209 11.4229 43.7386 11.2155 43.6064 10.9785C43.4788 10.737 43.415 10.459 43.415 10.1445C43.415 9.83919 43.4811 9.55208 43.6133 9.2832C43.7454 9.00977 43.9368 8.77051 44.1875 8.56543C44.4382 8.35579 44.7435 8.19173 45.1035 8.07324C45.4635 7.9502 45.8691 7.88867 46.3203 7.88867C46.9492 7.88867 47.4893 7.99121 47.9404 8.19629C48.3962 8.40137 48.7448 8.68392 48.9863 9.04395C49.2279 9.39941 49.3486 9.80046 49.3486 10.2471H47.5439C47.5439 10.0511 47.4984 9.87337 47.4072 9.71387C47.3206 9.55436 47.1862 9.42676 47.0039 9.33105C46.8216 9.23079 46.5915 9.18066 46.3135 9.18066C46.0628 9.18066 45.8509 9.22168 45.6777 9.30371C45.5091 9.38574 45.3815 9.49284 45.2949 9.625C45.2083 9.75716 45.165 9.90299 45.165 10.0625C45.165 10.181 45.1878 10.2881 45.2334 10.3838C45.2835 10.4749 45.3633 10.5592 45.4727 10.6367C45.582 10.7142 45.7301 10.7848 45.917 10.8486C46.1084 10.9124 46.3431 10.974 46.6211 11.0332C47.1725 11.1426 47.6533 11.2884 48.0635 11.4707C48.4782 11.6484 48.8018 11.8854 49.0342 12.1816C49.2666 12.4779 49.3828 12.8561 49.3828 13.3164C49.3828 13.6445 49.3122 13.9453 49.1709 14.2188C49.0296 14.4876 48.8245 14.7223 48.5557 14.9229C48.2868 15.1234 47.9655 15.2806 47.5918 15.3945C47.2181 15.5039 46.7965 15.5586 46.3271 15.5586C45.6481 15.5586 45.0739 15.4378 44.6045 15.1963C44.1351 14.9502 43.7796 14.6403 43.5381 14.2666C43.2965 13.8883 43.1758 13.4964 43.1758 13.0908H44.9053C44.9189 13.3779 44.9964 13.6081 45.1377 13.7812C45.279 13.9544 45.4567 14.0798 45.6709 14.1572C45.8896 14.2301 46.1198 14.2666 46.3613 14.2666C46.6348 14.2666 46.8649 14.2301 47.0518 14.1572C47.2386 14.0798 47.3799 13.9772 47.4756 13.8496C47.5713 13.7174 47.6191 13.5671 47.6191 13.3984ZM54.8311 13.8496V10.4385C54.8311 10.1878 54.7878 9.97135 54.7012 9.78906C54.6146 9.60677 54.4824 9.46549 54.3047 9.36523C54.127 9.26497 53.9014 9.21484 53.6279 9.21484C53.3864 9.21484 53.1745 9.25586 52.9922 9.33789C52.8145 9.41992 52.6777 9.53613 52.582 9.68652C52.4863 9.83236 52.4385 10.001 52.4385 10.1924H50.627C50.627 9.88704 50.6999 9.59766 50.8457 9.32422C50.9915 9.04622 51.1989 8.80013 51.4678 8.58594C51.7412 8.36719 52.0671 8.19629 52.4453 8.07324C52.8281 7.9502 53.2565 7.88867 53.7305 7.88867C54.291 7.88867 54.79 7.98438 55.2275 8.17578C55.6696 8.36263 56.016 8.64518 56.2666 9.02344C56.5218 9.40169 56.6494 9.87793 56.6494 10.4521V13.6787C56.6494 14.0479 56.6722 14.3646 56.7178 14.6289C56.7679 14.8887 56.8408 15.1143 56.9365 15.3057V15.4219H55.0977C55.0111 15.235 54.945 14.998 54.8994 14.7109C54.8538 14.4193 54.8311 14.1322 54.8311 13.8496ZM55.084 10.917L55.0977 11.9902H53.9561C53.6735 11.9902 53.4251 12.0199 53.2109 12.0791C52.9967 12.1338 52.8213 12.2158 52.6846 12.3252C52.5479 12.43 52.4453 12.5576 52.377 12.708C52.3086 12.8538 52.2744 13.0202 52.2744 13.207C52.2744 13.3893 52.3154 13.5534 52.3975 13.6992C52.484 13.8451 52.6071 13.9613 52.7666 14.0479C52.9307 14.1299 53.1221 14.1709 53.3408 14.1709C53.6598 14.1709 53.9378 14.1071 54.1748 13.9795C54.4118 13.8473 54.5964 13.6878 54.7285 13.501C54.8607 13.3141 54.9313 13.1364 54.9404 12.9678L55.46 13.7471C55.3962 13.9339 55.3005 14.1322 55.1729 14.3418C55.0452 14.5514 54.8812 14.7474 54.6807 14.9297C54.4801 15.112 54.2386 15.2624 53.9561 15.3809C53.6735 15.4993 53.3454 15.5586 52.9717 15.5586C52.4932 15.5586 52.0648 15.4629 51.6865 15.2715C51.3083 15.0801 51.0098 14.818 50.791 14.4854C50.5723 14.1527 50.4629 13.7744 50.4629 13.3506C50.4629 12.9587 50.5358 12.6123 50.6816 12.3115C50.8275 12.0107 51.0439 11.7578 51.3311 11.5527C51.6182 11.3431 51.9736 11.1859 52.3975 11.0811C52.8258 10.9717 53.3158 10.917 53.8672 10.917H55.084ZM62.9795 8.02539H64.6201V15.1963C64.6201 15.8662 64.4743 16.4336 64.1826 16.8984C63.8955 17.3678 63.4922 17.7233 62.9727 17.9648C62.4531 18.2109 61.8493 18.334 61.1611 18.334C60.8649 18.334 60.5436 18.293 60.1973 18.2109C59.8555 18.1289 59.5251 17.999 59.2061 17.8213C58.8916 17.6481 58.6296 17.4225 58.4199 17.1445L59.2334 16.0781C59.4795 16.3652 59.7575 16.5817 60.0674 16.7275C60.3773 16.8779 60.7122 16.9531 61.0723 16.9531C61.4368 16.9531 61.7467 16.8848 62.002 16.748C62.2617 16.6159 62.46 16.4199 62.5967 16.1602C62.738 15.9049 62.8086 15.5905 62.8086 15.2168V9.71387L62.9795 8.02539ZM57.9824 11.8125V11.6689C57.9824 11.1038 58.0508 10.5911 58.1875 10.1309C58.3242 9.66602 58.5202 9.26725 58.7754 8.93457C59.0352 8.60189 59.3473 8.3444 59.7119 8.16211C60.0811 7.97982 60.4958 7.88867 60.9561 7.88867C61.4437 7.88867 61.8538 7.97754 62.1865 8.15527C62.5238 8.33301 62.8018 8.58594 63.0205 8.91406C63.2438 9.24219 63.417 9.63184 63.54 10.083C63.6676 10.5296 63.7656 11.0218 63.834 11.5596V11.9492C63.7702 12.4733 63.6676 12.9541 63.5264 13.3916C63.3896 13.8291 63.2074 14.2119 62.9795 14.54C62.7516 14.8636 62.4691 15.1143 62.1318 15.292C61.7946 15.4697 61.3981 15.5586 60.9424 15.5586C60.4867 15.5586 60.0765 15.4652 59.7119 15.2783C59.3473 15.0915 59.0352 14.8294 58.7754 14.4922C58.5202 14.1549 58.3242 13.7585 58.1875 13.3027C58.0508 12.847 57.9824 12.3503 57.9824 11.8125ZM59.7871 11.6689V11.8125C59.7871 12.1315 59.819 12.43 59.8828 12.708C59.9466 12.986 60.0446 13.2321 60.1768 13.4463C60.3089 13.6559 60.4753 13.82 60.6758 13.9385C60.8763 14.057 61.1156 14.1162 61.3936 14.1162C61.7673 14.1162 62.0726 14.0387 62.3096 13.8838C62.5511 13.7243 62.7334 13.5078 62.8564 13.2344C62.984 12.9564 63.0661 12.6442 63.1025 12.2979V11.2246C63.0798 10.9512 63.0296 10.6982 62.9521 10.4658C62.8792 10.2334 62.7767 10.0329 62.6445 9.86426C62.5124 9.69564 62.3438 9.56348 62.1387 9.46777C61.9336 9.37207 61.6898 9.32422 61.4072 9.32422C61.1338 9.32422 60.8945 9.38574 60.6895 9.50879C60.4844 9.62728 60.3158 9.79362 60.1836 10.0078C60.0514 10.222 59.9512 10.4704 59.8828 10.7529C59.819 11.0355 59.7871 11.3408 59.7871 11.6689ZM69.7471 8.02539V9.32422H65.5088V8.02539H69.7471ZM66.6436 6.20703H68.4551V13.2891C68.4551 13.5078 68.4847 13.6764 68.5439 13.7949C68.6032 13.9134 68.6921 13.9932 68.8105 14.0342C68.929 14.0752 69.0703 14.0957 69.2344 14.0957C69.3529 14.0957 69.4622 14.0889 69.5625 14.0752C69.6628 14.0615 69.7471 14.0479 69.8154 14.0342L69.8223 15.3877C69.6719 15.4378 69.501 15.4788 69.3096 15.5107C69.1227 15.5426 68.9108 15.5586 68.6738 15.5586C68.2682 15.5586 67.9128 15.4902 67.6074 15.3535C67.3021 15.2122 67.0651 14.9867 66.8965 14.6768C66.7279 14.3623 66.6436 13.9476 66.6436 13.4326V6.20703Z" fill="#262626"/>
<path d="M76.5059 5.46875V15.4219H75.1865V5.46875H76.5059ZM80.6758 9.94629V11.0264H76.2188V9.94629H80.6758ZM81.3525 5.46875V6.54883H76.2188V5.46875H81.3525ZM82.248 11.8057V11.6484C82.248 11.1152 82.3255 10.6208 82.4805 10.165C82.6354 9.70475 82.8587 9.30599 83.1504 8.96875C83.4421 8.62695 83.7952 8.36263 84.21 8.17578C84.6247 7.98438 85.0895 7.88867 85.6045 7.88867C86.124 7.88867 86.5911 7.98438 87.0059 8.17578C87.4251 8.36263 87.7806 8.62695 88.0723 8.96875C88.3685 9.30599 88.5941 9.70475 88.749 10.165C88.904 10.6208 88.9814 11.1152 88.9814 11.6484V11.8057C88.9814 12.3389 88.904 12.8333 88.749 13.2891C88.5941 13.7448 88.3685 14.1436 88.0723 14.4854C87.7806 14.8226 87.4274 15.0869 87.0127 15.2783C86.6025 15.4652 86.1377 15.5586 85.6182 15.5586C85.0986 15.5586 84.6315 15.4652 84.2168 15.2783C83.8021 15.0869 83.4466 14.8226 83.1504 14.4854C82.8587 14.1436 82.6354 13.7448 82.4805 13.2891C82.3255 12.8333 82.248 12.3389 82.248 11.8057ZM83.5127 11.6484V11.8057C83.5127 12.1748 83.556 12.5234 83.6426 12.8516C83.7292 13.1751 83.859 13.4622 84.0322 13.7129C84.21 13.9635 84.431 14.1618 84.6953 14.3076C84.9596 14.4489 85.2673 14.5195 85.6182 14.5195C85.9645 14.5195 86.2676 14.4489 86.5273 14.3076C86.7917 14.1618 87.0104 13.9635 87.1836 13.7129C87.3568 13.4622 87.4867 13.1751 87.5732 12.8516C87.6644 12.5234 87.71 12.1748 87.71 11.8057V11.6484C87.71 11.2839 87.6644 10.9398 87.5732 10.6162C87.4867 10.2881 87.3545 9.9987 87.1768 9.74805C87.0036 9.49284 86.7848 9.29232 86.5205 9.14648C86.2607 9.00065 85.9554 8.92773 85.6045 8.92773C85.2581 8.92773 84.9528 9.00065 84.6885 9.14648C84.4287 9.29232 84.21 9.49284 84.0322 9.74805C83.859 9.9987 83.7292 10.2881 83.6426 10.6162C83.556 10.9398 83.5127 11.2839 83.5127 11.6484ZM91.832 9.1875V15.4219H90.5674V8.02539H91.7979L91.832 9.1875ZM94.1426 7.98438L94.1357 9.16016C94.0309 9.13737 93.9307 9.1237 93.835 9.11914C93.7438 9.11003 93.639 9.10547 93.5205 9.10547C93.2288 9.10547 92.9714 9.15104 92.748 9.24219C92.5247 9.33333 92.3356 9.46094 92.1807 9.625C92.0257 9.78906 91.9027 9.98503 91.8115 10.2129C91.7249 10.4362 91.668 10.6823 91.6406 10.9512L91.2852 11.1562C91.2852 10.7096 91.3285 10.2904 91.415 9.89844C91.5062 9.50651 91.6452 9.16016 91.832 8.85938C92.0189 8.55404 92.2559 8.31706 92.543 8.14844C92.8346 7.97526 93.181 7.88867 93.582 7.88867C93.6732 7.88867 93.778 7.90007 93.8965 7.92285C94.015 7.94108 94.097 7.96159 94.1426 7.98438ZM101.854 15.5586C101.339 15.5586 100.871 15.472 100.452 15.2988C100.037 15.1211 99.6797 14.8727 99.3789 14.5537C99.0827 14.2347 98.8548 13.8564 98.6953 13.4189C98.5358 12.9814 98.4561 12.5029 98.4561 11.9834V11.6963C98.4561 11.0947 98.5449 10.5592 98.7227 10.0898C98.9004 9.61589 99.1419 9.21484 99.4473 8.88672C99.7526 8.55859 100.099 8.31022 100.486 8.1416C100.874 7.97298 101.275 7.88867 101.689 7.88867C102.218 7.88867 102.674 7.97982 103.057 8.16211C103.444 8.3444 103.761 8.59961 104.007 8.92773C104.253 9.2513 104.435 9.63411 104.554 10.0762C104.672 10.5137 104.731 10.9922 104.731 11.5117V12.0791H99.208V11.0469H103.467V10.9512C103.449 10.623 103.38 10.304 103.262 9.99414C103.148 9.68424 102.965 9.42904 102.715 9.22852C102.464 9.02799 102.122 8.92773 101.689 8.92773C101.402 8.92773 101.138 8.98926 100.896 9.1123C100.655 9.23079 100.448 9.40853 100.274 9.64551C100.101 9.88249 99.9668 10.1719 99.8711 10.5137C99.7754 10.8555 99.7275 11.2497 99.7275 11.6963V11.9834C99.7275 12.3343 99.7754 12.6647 99.8711 12.9746C99.9714 13.2799 100.115 13.5488 100.302 13.7812C100.493 14.0137 100.723 14.196 100.992 14.3281C101.266 14.4603 101.576 14.5264 101.922 14.5264C102.368 14.5264 102.747 14.4352 103.057 14.2529C103.367 14.0706 103.638 13.8268 103.87 13.5215L104.636 14.1299C104.476 14.3714 104.273 14.6016 104.027 14.8203C103.781 15.0391 103.478 15.2168 103.118 15.3535C102.763 15.4902 102.341 15.5586 101.854 15.5586ZM108.361 14.2803L110.385 8.02539H111.677L109.018 15.4219H108.17L108.361 14.2803ZM106.673 8.02539L108.758 14.3145L108.901 15.4219H108.054L105.374 8.02539H106.673ZM115.867 15.5586C115.352 15.5586 114.885 15.472 114.466 15.2988C114.051 15.1211 113.693 14.8727 113.393 14.5537C113.096 14.2347 112.868 13.8564 112.709 13.4189C112.549 12.9814 112.47 12.5029 112.47 11.9834V11.6963C112.47 11.0947 112.559 10.5592 112.736 10.0898C112.914 9.61589 113.156 9.21484 113.461 8.88672C113.766 8.55859 114.113 8.31022 114.5 8.1416C114.887 7.97298 115.288 7.88867 115.703 7.88867C116.232 7.88867 116.688 7.97982 117.07 8.16211C117.458 8.3444 117.774 8.59961 118.021 8.92773C118.267 9.2513 118.449 9.63411 118.567 10.0762C118.686 10.5137 118.745 10.9922 118.745 11.5117V12.0791H113.222V11.0469H117.48V10.9512C117.462 10.623 117.394 10.304 117.275 9.99414C117.161 9.68424 116.979 9.42904 116.729 9.22852C116.478 9.02799 116.136 8.92773 115.703 8.92773C115.416 8.92773 115.152 8.98926 114.91 9.1123C114.669 9.23079 114.461 9.40853 114.288 9.64551C114.115 9.88249 113.98 10.1719 113.885 10.5137C113.789 10.8555 113.741 11.2497 113.741 11.6963V11.9834C113.741 12.3343 113.789 12.6647 113.885 12.9746C113.985 13.2799 114.129 13.5488 114.315 13.7812C114.507 14.0137 114.737 14.196 115.006 14.3281C115.279 14.4603 115.589 14.5264 115.936 14.5264C116.382 14.5264 116.76 14.4352 117.07 14.2529C117.38 14.0706 117.651 13.8268 117.884 13.5215L118.649 14.1299C118.49 14.3714 118.287 14.6016 118.041 14.8203C117.795 15.0391 117.492 15.2168 117.132 15.3535C116.776 15.4902 116.355 15.5586 115.867 15.5586ZM121.486 9.1875V15.4219H120.222V8.02539H121.452L121.486 9.1875ZM123.797 7.98438L123.79 9.16016C123.685 9.13737 123.585 9.1237 123.489 9.11914C123.398 9.11003 123.293 9.10547 123.175 9.10547C122.883 9.10547 122.626 9.15104 122.402 9.24219C122.179 9.33333 121.99 9.46094 121.835 9.625C121.68 9.78906 121.557 9.98503 121.466 10.2129C121.379 10.4362 121.322 10.6823 121.295 10.9512L120.939 11.1562C120.939 10.7096 120.983 10.2904 121.069 9.89844C121.16 9.50651 121.299 9.16016 121.486 8.85938C121.673 8.55404 121.91 8.31706 122.197 8.14844C122.489 7.97526 122.835 7.88867 123.236 7.88867C123.327 7.88867 123.432 7.90007 123.551 7.92285C123.669 7.94108 123.751 7.96159 123.797 7.98438ZM127.167 14.6562L129.225 8.02539H130.578L127.611 16.5635C127.543 16.7458 127.452 16.9417 127.338 17.1514C127.229 17.3656 127.087 17.5684 126.914 17.7598C126.741 17.9512 126.531 18.1061 126.285 18.2246C126.044 18.3477 125.754 18.4092 125.417 18.4092C125.317 18.4092 125.189 18.3955 125.034 18.3682C124.879 18.3408 124.77 18.318 124.706 18.2998L124.699 17.2744C124.736 17.279 124.793 17.2835 124.87 17.2881C124.952 17.2972 125.009 17.3018 125.041 17.3018C125.328 17.3018 125.572 17.263 125.772 17.1855C125.973 17.1126 126.142 16.9873 126.278 16.8096C126.42 16.6364 126.54 16.3971 126.641 16.0918L127.167 14.6562ZM125.656 8.02539L127.577 13.7676L127.905 15.1006L126.996 15.5654L124.275 8.02539H125.656ZM137.441 14.2803L139.465 8.02539H140.757L138.098 15.4219H137.25L137.441 14.2803ZM135.753 8.02539L137.838 14.3145L137.981 15.4219H137.134L134.454 8.02539H135.753ZM143.348 8.02539V15.4219H142.076V8.02539H143.348ZM141.98 6.06348C141.98 5.8584 142.042 5.68522 142.165 5.54395C142.293 5.40267 142.479 5.33203 142.726 5.33203C142.967 5.33203 143.152 5.40267 143.279 5.54395C143.411 5.68522 143.478 5.8584 143.478 6.06348C143.478 6.25944 143.411 6.42806 143.279 6.56934C143.152 6.70605 142.967 6.77441 142.726 6.77441C142.479 6.77441 142.293 6.70605 142.165 6.56934C142.042 6.42806 141.98 6.25944 141.98 6.06348ZM150.04 13.9863V4.92188H151.312V15.4219H150.149L150.04 13.9863ZM145.063 11.8057V11.6621C145.063 11.097 145.132 10.5843 145.269 10.124C145.41 9.65918 145.608 9.26042 145.863 8.92773C146.123 8.59505 146.431 8.33984 146.786 8.16211C147.146 7.97982 147.547 7.88867 147.989 7.88867C148.454 7.88867 148.86 7.9707 149.206 8.13477C149.557 8.29427 149.853 8.52897 150.095 8.83887C150.341 9.14421 150.535 9.51335 150.676 9.94629C150.817 10.3792 150.915 10.8691 150.97 11.416V12.0449C150.92 12.5872 150.822 13.0749 150.676 13.5078C150.535 13.9408 150.341 14.3099 150.095 14.6152C149.853 14.9206 149.557 15.1553 149.206 15.3193C148.855 15.4788 148.445 15.5586 147.976 15.5586C147.543 15.5586 147.146 15.4652 146.786 15.2783C146.431 15.0915 146.123 14.8294 145.863 14.4922C145.608 14.1549 145.41 13.7585 145.269 13.3027C145.132 12.8424 145.063 12.3434 145.063 11.8057ZM146.335 11.6621V11.8057C146.335 12.1748 146.371 12.5212 146.444 12.8447C146.522 13.1683 146.64 13.4531 146.8 13.6992C146.959 13.9453 147.162 14.139 147.408 14.2803C147.654 14.417 147.948 14.4854 148.29 14.4854C148.709 14.4854 149.053 14.3965 149.322 14.2188C149.596 14.041 149.814 13.8063 149.979 13.5146C150.143 13.223 150.27 12.9062 150.361 12.5645V10.917C150.307 10.6663 150.227 10.4248 150.122 10.1924C150.022 9.9554 149.89 9.74577 149.726 9.56348C149.566 9.37663 149.368 9.22852 149.131 9.11914C148.898 9.00977 148.623 8.95508 148.304 8.95508C147.957 8.95508 147.659 9.02799 147.408 9.17383C147.162 9.3151 146.959 9.51107 146.8 9.76172C146.64 10.0078 146.522 10.2949 146.444 10.623C146.371 10.9466 146.335 11.293 146.335 11.6621ZM156.35 15.5586C155.835 15.5586 155.368 15.472 154.948 15.2988C154.534 15.1211 154.176 14.8727 153.875 14.5537C153.579 14.2347 153.351 13.8564 153.191 13.4189C153.032 12.9814 152.952 12.5029 152.952 11.9834V11.6963C152.952 11.0947 153.041 10.5592 153.219 10.0898C153.396 9.61589 153.638 9.21484 153.943 8.88672C154.249 8.55859 154.595 8.31022 154.982 8.1416C155.37 7.97298 155.771 7.88867 156.186 7.88867C156.714 7.88867 157.17 7.97982 157.553 8.16211C157.94 8.3444 158.257 8.59961 158.503 8.92773C158.749 9.2513 158.931 9.63411 159.05 10.0762C159.168 10.5137 159.228 10.9922 159.228 11.5117V12.0791H153.704V11.0469H157.963V10.9512C157.945 10.623 157.876 10.304 157.758 9.99414C157.644 9.68424 157.462 9.42904 157.211 9.22852C156.96 9.02799 156.618 8.92773 156.186 8.92773C155.898 8.92773 155.634 8.98926 155.393 9.1123C155.151 9.23079 154.944 9.40853 154.771 9.64551C154.597 9.88249 154.463 10.1719 154.367 10.5137C154.271 10.8555 154.224 11.2497 154.224 11.6963V11.9834C154.224 12.3343 154.271 12.6647 154.367 12.9746C154.467 13.2799 154.611 13.5488 154.798 13.7812C154.989 14.0137 155.219 14.196 155.488 14.3281C155.762 14.4603 156.072 14.5264 156.418 14.5264C156.865 14.5264 157.243 14.4352 157.553 14.2529C157.863 14.0706 158.134 13.8268 158.366 13.5215L159.132 14.1299C158.972 14.3714 158.77 14.6016 158.523 14.8203C158.277 15.0391 157.974 15.2168 157.614 15.3535C157.259 15.4902 156.837 15.5586 156.35 15.5586ZM160.369 11.8057V11.6484C160.369 11.1152 160.447 10.6208 160.602 10.165C160.757 9.70475 160.98 9.30599 161.271 8.96875C161.563 8.62695 161.916 8.36263 162.331 8.17578C162.746 7.98438 163.211 7.88867 163.726 7.88867C164.245 7.88867 164.712 7.98438 165.127 8.17578C165.546 8.36263 165.902 8.62695 166.193 8.96875C166.49 9.30599 166.715 9.70475 166.87 10.165C167.025 10.6208 167.103 11.1152 167.103 11.6484V11.8057C167.103 12.3389 167.025 12.8333 166.87 13.2891C166.715 13.7448 166.49 14.1436 166.193 14.4854C165.902 14.8226 165.549 15.0869 165.134 15.2783C164.724 15.4652 164.259 15.5586 163.739 15.5586C163.22 15.5586 162.753 15.4652 162.338 15.2783C161.923 15.0869 161.568 14.8226 161.271 14.4854C160.98 14.1436 160.757 13.7448 160.602 13.2891C160.447 12.8333 160.369 12.3389 160.369 11.8057ZM161.634 11.6484V11.8057C161.634 12.1748 161.677 12.5234 161.764 12.8516C161.85 13.1751 161.98 13.4622 162.153 13.7129C162.331 13.9635 162.552 14.1618 162.816 14.3076C163.081 14.4489 163.388 14.5195 163.739 14.5195C164.086 14.5195 164.389 14.4489 164.648 14.3076C164.913 14.1618 165.132 13.9635 165.305 13.7129C165.478 13.4622 165.608 13.1751 165.694 12.8516C165.785 12.5234 165.831 12.1748 165.831 11.8057V11.6484C165.831 11.2839 165.785 10.9398 165.694 10.6162C165.608 10.2881 165.476 9.9987 165.298 9.74805C165.125 9.49284 164.906 9.29232 164.642 9.14648C164.382 9.00065 164.076 8.92773 163.726 8.92773C163.379 8.92773 163.074 9.00065 162.81 9.14648C162.55 9.29232 162.331 9.49284 162.153 9.74805C161.98 9.9987 161.85 10.2881 161.764 10.6162C161.677 10.9398 161.634 11.2839 161.634 11.6484ZM174.034 14.1094L175.935 8.02539H176.769L176.604 9.23535L174.67 15.4219H173.856L174.034 14.1094ZM172.756 8.02539L174.376 14.1777L174.492 15.4219H173.638L171.491 8.02539H172.756ZM178.587 14.1299L180.132 8.02539H181.39L179.243 15.4219H178.396L178.587 14.1299ZM176.953 8.02539L178.812 14.0068L179.024 15.4219H178.218L176.229 9.22168L176.064 8.02539H176.953ZM185.758 15.5586C185.243 15.5586 184.776 15.472 184.356 15.2988C183.942 15.1211 183.584 14.8727 183.283 14.5537C182.987 14.2347 182.759 13.8564 182.6 13.4189C182.44 12.9814 182.36 12.5029 182.36 11.9834V11.6963C182.36 11.0947 182.449 10.5592 182.627 10.0898C182.805 9.61589 183.046 9.21484 183.352 8.88672C183.657 8.55859 184.003 8.31022 184.391 8.1416C184.778 7.97298 185.179 7.88867 185.594 7.88867C186.122 7.88867 186.578 7.97982 186.961 8.16211C187.348 8.3444 187.665 8.59961 187.911 8.92773C188.157 9.2513 188.34 9.63411 188.458 10.0762C188.576 10.5137 188.636 10.9922 188.636 11.5117V12.0791H183.112V11.0469H187.371V10.9512C187.353 10.623 187.285 10.304 187.166 9.99414C187.052 9.68424 186.87 9.42904 186.619 9.22852C186.368 9.02799 186.027 8.92773 185.594 8.92773C185.307 8.92773 185.042 8.98926 184.801 9.1123C184.559 9.23079 184.352 9.40853 184.179 9.64551C184.006 9.88249 183.871 10.1719 183.775 10.5137C183.68 10.8555 183.632 11.2497 183.632 11.6963V11.9834C183.632 12.3343 183.68 12.6647 183.775 12.9746C183.876 13.2799 184.019 13.5488 184.206 13.7812C184.397 14.0137 184.628 14.196 184.896 14.3281C185.17 14.4603 185.48 14.5264 185.826 14.5264C186.273 14.5264 186.651 14.4352 186.961 14.2529C187.271 14.0706 187.542 13.8268 187.774 13.5215L188.54 14.1299C188.381 14.3714 188.178 14.6016 187.932 14.8203C187.686 15.0391 187.382 15.2168 187.022 15.3535C186.667 15.4902 186.245 15.5586 185.758 15.5586ZM198.11 13.7129V8.02539H199.382V15.4219H198.172L198.11 13.7129ZM198.35 12.1543L198.876 12.1406C198.876 12.6328 198.824 13.0885 198.719 13.5078C198.618 13.9225 198.454 14.2826 198.227 14.5879C197.999 14.8932 197.7 15.1325 197.331 15.3057C196.962 15.4743 196.513 15.5586 195.984 15.5586C195.624 15.5586 195.294 15.5062 194.993 15.4014C194.697 15.2965 194.442 15.1348 194.228 14.916C194.013 14.6973 193.847 14.4124 193.729 14.0615C193.615 13.7106 193.558 13.2891 193.558 12.7969V8.02539H194.822V12.8105C194.822 13.1432 194.859 13.4189 194.932 13.6377C195.009 13.8519 195.112 14.0228 195.239 14.1504C195.371 14.2734 195.517 14.36 195.677 14.4102C195.841 14.4603 196.009 14.4854 196.183 14.4854C196.72 14.4854 197.146 14.3828 197.461 14.1777C197.775 13.9681 198.001 13.6878 198.138 13.3369C198.279 12.9814 198.35 12.5872 198.35 12.1543ZM202.574 9.44727V18.2656H201.303V8.02539H202.465L202.574 9.44727ZM207.558 11.6621V11.8057C207.558 12.3434 207.494 12.8424 207.366 13.3027C207.239 13.7585 207.052 14.1549 206.806 14.4922C206.564 14.8294 206.266 15.0915 205.91 15.2783C205.555 15.4652 205.147 15.5586 204.687 15.5586C204.217 15.5586 203.802 15.4811 203.442 15.3262C203.082 15.1712 202.777 14.9456 202.526 14.6494C202.276 14.3532 202.075 13.9977 201.925 13.583C201.779 13.1683 201.679 12.7012 201.624 12.1816V11.416C201.679 10.8691 201.781 10.3792 201.932 9.94629C202.082 9.51335 202.28 9.14421 202.526 8.83887C202.777 8.52897 203.08 8.29427 203.436 8.13477C203.791 7.9707 204.201 7.88867 204.666 7.88867C205.131 7.88867 205.543 7.97982 205.903 8.16211C206.263 8.33984 206.566 8.59505 206.812 8.92773C207.059 9.26042 207.243 9.65918 207.366 10.124C207.494 10.5843 207.558 11.097 207.558 11.6621ZM206.286 11.8057V11.6621C206.286 11.293 206.247 10.9466 206.17 10.623C206.092 10.2949 205.972 10.0078 205.808 9.76172C205.648 9.51107 205.443 9.3151 205.192 9.17383C204.942 9.02799 204.643 8.95508 204.297 8.95508C203.978 8.95508 203.7 9.00977 203.463 9.11914C203.23 9.22852 203.032 9.37663 202.868 9.56348C202.704 9.74577 202.57 9.9554 202.465 10.1924C202.365 10.4248 202.289 10.6663 202.239 10.917V12.6875C202.33 13.0065 202.458 13.3073 202.622 13.5898C202.786 13.8678 203.005 14.0934 203.278 14.2666C203.552 14.4352 203.896 14.5195 204.311 14.5195C204.652 14.5195 204.946 14.4489 205.192 14.3076C205.443 14.1618 205.648 13.9635 205.808 13.7129C205.972 13.4622 206.092 13.1751 206.17 12.8516C206.247 12.5234 206.286 12.1748 206.286 11.8057ZM210.545 4.92188V15.4219H209.273V4.92188H210.545ZM212.24 11.8057V11.6484C212.24 11.1152 212.318 10.6208 212.473 10.165C212.628 9.70475 212.851 9.30599 213.143 8.96875C213.434 8.62695 213.787 8.36263 214.202 8.17578C214.617 7.98438 215.082 7.88867 215.597 7.88867C216.116 7.88867 216.583 7.98438 216.998 8.17578C217.417 8.36263 217.773 8.62695 218.064 8.96875C218.361 9.30599 218.586 9.70475 218.741 10.165C218.896 10.6208 218.974 11.1152 218.974 11.6484V11.8057C218.974 12.3389 218.896 12.8333 218.741 13.2891C218.586 13.7448 218.361 14.1436 218.064 14.4854C217.773 14.8226 217.42 15.0869 217.005 15.2783C216.595 15.4652 216.13 15.5586 215.61 15.5586C215.091 15.5586 214.624 15.4652 214.209 15.2783C213.794 15.0869 213.439 14.8226 213.143 14.4854C212.851 14.1436 212.628 13.7448 212.473 13.2891C212.318 12.8333 212.24 12.3389 212.24 11.8057ZM213.505 11.6484V11.8057C213.505 12.1748 213.548 12.5234 213.635 12.8516C213.721 13.1751 213.851 13.4622 214.024 13.7129C214.202 13.9635 214.423 14.1618 214.688 14.3076C214.952 14.4489 215.259 14.5195 215.61 14.5195C215.957 14.5195 216.26 14.4489 216.52 14.3076C216.784 14.1618 217.003 13.9635 217.176 13.7129C217.349 13.4622 217.479 13.1751 217.565 12.8516C217.657 12.5234 217.702 12.1748 217.702 11.8057V11.6484C217.702 11.2839 217.657 10.9398 217.565 10.6162C217.479 10.2881 217.347 9.9987 217.169 9.74805C216.996 9.49284 216.777 9.29232 216.513 9.14648C216.253 9.00065 215.948 8.92773 215.597 8.92773C215.25 8.92773 214.945 9.00065 214.681 9.14648C214.421 9.29232 214.202 9.49284 214.024 9.74805C213.851 9.9987 213.721 10.2881 213.635 10.6162C213.548 10.9398 213.505 11.2839 213.505 11.6484ZM224.921 14.1572V10.3496C224.921 10.0579 224.862 9.80501 224.743 9.59082C224.629 9.37207 224.456 9.20345 224.224 9.08496C223.991 8.96647 223.704 8.90723 223.362 8.90723C223.043 8.90723 222.763 8.96191 222.521 9.07129C222.285 9.18066 222.098 9.32422 221.961 9.50195C221.829 9.67969 221.763 9.87109 221.763 10.0762H220.498C220.498 9.81185 220.566 9.5498 220.703 9.29004C220.84 9.03027 221.036 8.79557 221.291 8.58594C221.551 8.37174 221.861 8.20312 222.221 8.08008C222.585 7.95247 222.991 7.88867 223.438 7.88867C223.975 7.88867 224.449 7.97982 224.859 8.16211C225.274 8.3444 225.598 8.62012 225.83 8.98926C226.067 9.35384 226.186 9.81185 226.186 10.3633V13.8086C226.186 14.0547 226.206 14.3167 226.247 14.5947C226.293 14.8727 226.359 15.112 226.445 15.3125V15.4219H225.126C225.062 15.276 225.012 15.0824 224.976 14.8408C224.939 14.5947 224.921 14.3669 224.921 14.1572ZM225.14 10.9375L225.153 11.8262H223.875C223.515 11.8262 223.194 11.8558 222.911 11.915C222.629 11.9697 222.392 12.054 222.2 12.168C222.009 12.2819 221.863 12.4255 221.763 12.5986C221.662 12.7673 221.612 12.9655 221.612 13.1934C221.612 13.4258 221.665 13.6377 221.77 13.8291C221.874 14.0205 222.032 14.1732 222.241 14.2871C222.455 14.3965 222.717 14.4512 223.027 14.4512C223.415 14.4512 223.757 14.3691 224.053 14.2051C224.349 14.041 224.584 13.8405 224.757 13.6035C224.935 13.3665 225.03 13.1364 225.044 12.9131L225.584 13.5215C225.552 13.7129 225.465 13.9248 225.324 14.1572C225.183 14.3896 224.994 14.613 224.757 14.8271C224.524 15.0368 224.246 15.2122 223.923 15.3535C223.604 15.4902 223.244 15.5586 222.843 15.5586C222.341 15.5586 221.902 15.4606 221.523 15.2646C221.15 15.0687 220.858 14.8066 220.648 14.4785C220.443 14.1458 220.341 13.7744 220.341 13.3643C220.341 12.9678 220.418 12.6191 220.573 12.3184C220.728 12.013 220.951 11.7601 221.243 11.5596C221.535 11.3545 221.886 11.1995 222.296 11.0947C222.706 10.9899 223.164 10.9375 223.67 10.9375H225.14ZM232.837 13.9863V4.92188H234.108V15.4219H232.946L232.837 13.9863ZM227.86 11.8057V11.6621C227.86 11.097 227.929 10.5843 228.065 10.124C228.207 9.65918 228.405 9.26042 228.66 8.92773C228.92 8.59505 229.228 8.33984 229.583 8.16211C229.943 7.97982 230.344 7.88867 230.786 7.88867C231.251 7.88867 231.657 7.9707 232.003 8.13477C232.354 8.29427 232.65 8.52897 232.892 8.83887C233.138 9.14421 233.331 9.51335 233.473 9.94629C233.614 10.3792 233.712 10.8691 233.767 11.416V12.0449C233.716 12.5872 233.618 13.0749 233.473 13.5078C233.331 13.9408 233.138 14.3099 232.892 14.6152C232.65 14.9206 232.354 15.1553 232.003 15.3193C231.652 15.4788 231.242 15.5586 230.772 15.5586C230.34 15.5586 229.943 15.4652 229.583 15.2783C229.228 15.0915 228.92 14.8294 228.66 14.4922C228.405 14.1549 228.207 13.7585 228.065 13.3027C227.929 12.8424 227.86 12.3434 227.86 11.8057ZM229.132 11.6621V11.8057C229.132 12.1748 229.168 12.5212 229.241 12.8447C229.319 13.1683 229.437 13.4531 229.597 13.6992C229.756 13.9453 229.959 14.139 230.205 14.2803C230.451 14.417 230.745 14.4854 231.087 14.4854C231.506 14.4854 231.85 14.3965 232.119 14.2188C232.393 14.041 232.611 13.8063 232.775 13.5146C232.939 13.223 233.067 12.9062 233.158 12.5645V10.917C233.104 10.6663 233.024 10.4248 232.919 10.1924C232.819 9.9554 232.687 9.74577 232.522 9.56348C232.363 9.37663 232.165 9.22852 231.928 9.11914C231.695 9.00977 231.42 8.95508 231.101 8.95508C230.754 8.95508 230.456 9.02799 230.205 9.17383C229.959 9.3151 229.756 9.51107 229.597 9.76172C229.437 10.0078 229.319 10.2949 229.241 10.623C229.168 10.9466 229.132 11.293 229.132 11.6621ZM242.646 8.02539V8.99609H238.647V8.02539H242.646ZM240.001 6.22754H241.266V13.5898C241.266 13.8405 241.304 14.0296 241.382 14.1572C241.459 14.2848 241.56 14.3691 241.683 14.4102C241.806 14.4512 241.938 14.4717 242.079 14.4717C242.184 14.4717 242.293 14.4626 242.407 14.4443C242.526 14.4215 242.615 14.4033 242.674 14.3896L242.681 15.4219C242.58 15.4538 242.448 15.4834 242.284 15.5107C242.125 15.5426 241.931 15.5586 241.703 15.5586C241.393 15.5586 241.108 15.4971 240.849 15.374C240.589 15.251 240.382 15.0459 240.227 14.7588C240.076 14.4671 240.001 14.0752 240.001 13.583V6.22754ZM243.658 11.8057V11.6484C243.658 11.1152 243.736 10.6208 243.891 10.165C244.046 9.70475 244.269 9.30599 244.561 8.96875C244.852 8.62695 245.205 8.36263 245.62 8.17578C246.035 7.98438 246.5 7.88867 247.015 7.88867C247.534 7.88867 248.001 7.98438 248.416 8.17578C248.835 8.36263 249.191 8.62695 249.482 8.96875C249.779 9.30599 250.004 9.70475 250.159 10.165C250.314 10.6208 250.392 11.1152 250.392 11.6484V11.8057C250.392 12.3389 250.314 12.8333 250.159 13.2891C250.004 13.7448 249.779 14.1436 249.482 14.4854C249.191 14.8226 248.838 15.0869 248.423 15.2783C248.013 15.4652 247.548 15.5586 247.028 15.5586C246.509 15.5586 246.042 15.4652 245.627 15.2783C245.212 15.0869 244.857 14.8226 244.561 14.4854C244.269 14.1436 244.046 13.7448 243.891 13.2891C243.736 12.8333 243.658 12.3389 243.658 11.8057ZM244.923 11.6484V11.8057C244.923 12.1748 244.966 12.5234 245.053 12.8516C245.139 13.1751 245.269 13.4622 245.442 13.7129C245.62 13.9635 245.841 14.1618 246.105 14.3076C246.37 14.4489 246.677 14.5195 247.028 14.5195C247.375 14.5195 247.678 14.4489 247.938 14.3076C248.202 14.1618 248.421 13.9635 248.594 13.7129C248.767 13.4622 248.897 13.1751 248.983 12.8516C249.075 12.5234 249.12 12.1748 249.12 11.8057V11.6484C249.12 11.2839 249.075 10.9398 248.983 10.6162C248.897 10.2881 248.765 9.9987 248.587 9.74805C248.414 9.49284 248.195 9.29232 247.931 9.14648C247.671 9.00065 247.366 8.92773 247.015 8.92773C246.668 8.92773 246.363 9.00065 246.099 9.14648C245.839 9.29232 245.62 9.49284 245.442 9.74805C245.269 9.9987 245.139 10.2881 245.053 10.6162C244.966 10.9398 244.923 11.2839 244.923 11.6484ZM256.1 5.46875L258.684 10.4658L261.274 5.46875H262.771L259.34 11.7031V15.4219H258.021V11.7031L254.589 5.46875H256.1ZM263.072 11.8057V11.6484C263.072 11.1152 263.15 10.6208 263.305 10.165C263.46 9.70475 263.683 9.30599 263.975 8.96875C264.266 8.62695 264.619 8.36263 265.034 8.17578C265.449 7.98438 265.914 7.88867 266.429 7.88867C266.948 7.88867 267.415 7.98438 267.83 8.17578C268.249 8.36263 268.605 8.62695 268.896 8.96875C269.193 9.30599 269.418 9.70475 269.573 10.165C269.728 10.6208 269.806 11.1152 269.806 11.6484V11.8057C269.806 12.3389 269.728 12.8333 269.573 13.2891C269.418 13.7448 269.193 14.1436 268.896 14.4854C268.605 14.8226 268.252 15.0869 267.837 15.2783C267.427 15.4652 266.962 15.5586 266.442 15.5586C265.923 15.5586 265.456 15.4652 265.041 15.2783C264.626 15.0869 264.271 14.8226 263.975 14.4854C263.683 14.1436 263.46 13.7448 263.305 13.2891C263.15 12.8333 263.072 12.3389 263.072 11.8057ZM264.337 11.6484V11.8057C264.337 12.1748 264.38 12.5234 264.467 12.8516C264.553 13.1751 264.683 13.4622 264.856 13.7129C265.034 13.9635 265.255 14.1618 265.52 14.3076C265.784 14.4489 266.091 14.5195 266.442 14.5195C266.789 14.5195 267.092 14.4489 267.352 14.3076C267.616 14.1618 267.835 13.9635 268.008 13.7129C268.181 13.4622 268.311 13.1751 268.397 12.8516C268.489 12.5234 268.534 12.1748 268.534 11.8057V11.6484C268.534 11.2839 268.489 10.9398 268.397 10.6162C268.311 10.2881 268.179 9.9987 268.001 9.74805C267.828 9.49284 267.609 9.29232 267.345 9.14648C267.085 9.00065 266.78 8.92773 266.429 8.92773C266.082 8.92773 265.777 9.00065 265.513 9.14648C265.253 9.29232 265.034 9.49284 264.856 9.74805C264.683 9.9987 264.553 10.2881 264.467 10.6162C264.38 10.9398 264.337 11.2839 264.337 11.6484ZM275.917 13.7129V8.02539H277.188V15.4219H275.979L275.917 13.7129ZM276.156 12.1543L276.683 12.1406C276.683 12.6328 276.63 13.0885 276.525 13.5078C276.425 13.9225 276.261 14.2826 276.033 14.5879C275.805 14.8932 275.507 15.1325 275.138 15.3057C274.769 15.4743 274.32 15.5586 273.791 15.5586C273.431 15.5586 273.101 15.5062 272.8 15.4014C272.504 15.2965 272.248 15.1348 272.034 14.916C271.82 14.6973 271.654 14.4124 271.535 14.0615C271.421 13.7106 271.364 13.2891 271.364 12.7969V8.02539H272.629V12.8105C272.629 13.1432 272.665 13.4189 272.738 13.6377C272.816 13.8519 272.918 14.0228 273.046 14.1504C273.178 14.2734 273.324 14.36 273.483 14.4102C273.647 14.4603 273.816 14.4854 273.989 14.4854C274.527 14.4854 274.953 14.3828 275.268 14.1777C275.582 13.9681 275.808 13.6878 275.944 13.3369C276.086 12.9814 276.156 12.5872 276.156 12.1543ZM282.985 5.46875V15.4219H281.687V5.46875H282.985ZM286.185 5.46875V6.54883H278.494V5.46875H286.185ZM291.339 13.7129V8.02539H292.61V15.4219H291.4L291.339 13.7129ZM291.578 12.1543L292.104 12.1406C292.104 12.6328 292.052 13.0885 291.947 13.5078C291.847 13.9225 291.683 14.2826 291.455 14.5879C291.227 14.8932 290.929 15.1325 290.56 15.3057C290.19 15.4743 289.742 15.5586 289.213 15.5586C288.853 15.5586 288.522 15.5062 288.222 15.4014C287.925 15.2965 287.67 15.1348 287.456 14.916C287.242 14.6973 287.076 14.4124 286.957 14.0615C286.843 13.7106 286.786 13.2891 286.786 12.7969V8.02539H288.051V12.8105C288.051 13.1432 288.087 13.4189 288.16 13.6377C288.238 13.8519 288.34 14.0228 288.468 14.1504C288.6 14.2734 288.746 14.36 288.905 14.4102C289.069 14.4603 289.238 14.4854 289.411 14.4854C289.949 14.4854 290.375 14.3828 290.689 14.1777C291.004 13.9681 291.229 13.6878 291.366 13.3369C291.507 12.9814 291.578 12.5872 291.578 12.1543ZM294.531 4.92188H295.803V13.9863L295.693 15.4219H294.531V4.92188ZM300.8 11.6621V11.8057C300.8 12.3434 300.736 12.8424 300.608 13.3027C300.481 13.7585 300.294 14.1549 300.048 14.4922C299.802 14.8294 299.501 15.0915 299.146 15.2783C298.79 15.4652 298.382 15.5586 297.922 15.5586C297.452 15.5586 297.04 15.4788 296.685 15.3193C296.334 15.1553 296.037 14.9206 295.796 14.6152C295.554 14.3099 295.361 13.9408 295.215 13.5078C295.074 13.0749 294.976 12.5872 294.921 12.0449V11.416C294.976 10.8691 295.074 10.3792 295.215 9.94629C295.361 9.51335 295.554 9.14421 295.796 8.83887C296.037 8.52897 296.334 8.29427 296.685 8.13477C297.035 7.9707 297.443 7.88867 297.908 7.88867C298.373 7.88867 298.785 7.97982 299.146 8.16211C299.506 8.33984 299.806 8.59505 300.048 8.92773C300.294 9.26042 300.481 9.65918 300.608 10.124C300.736 10.5843 300.8 11.097 300.8 11.6621ZM299.528 11.8057V11.6621C299.528 11.293 299.494 10.9466 299.426 10.623C299.357 10.2949 299.248 10.0078 299.098 9.76172C298.947 9.51107 298.749 9.3151 298.503 9.17383C298.257 9.02799 297.954 8.95508 297.594 8.95508C297.275 8.95508 296.997 9.00977 296.76 9.11914C296.527 9.22852 296.329 9.37663 296.165 9.56348C296.001 9.74577 295.867 9.9554 295.762 10.1924C295.661 10.4248 295.586 10.6663 295.536 10.917V12.5645C295.609 12.8835 295.728 13.1911 295.892 13.4873C296.06 13.779 296.284 14.0182 296.562 14.2051C296.844 14.3919 297.193 14.4854 297.607 14.4854C297.949 14.4854 298.241 14.417 298.482 14.2803C298.729 14.139 298.927 13.9453 299.077 13.6992C299.232 13.4531 299.346 13.1683 299.419 12.8447C299.492 12.5212 299.528 12.1748 299.528 11.8057ZM305.469 15.5586C304.954 15.5586 304.487 15.472 304.067 15.2988C303.653 15.1211 303.295 14.8727 302.994 14.5537C302.698 14.2347 302.47 13.8564 302.311 13.4189C302.151 12.9814 302.071 12.5029 302.071 11.9834V11.6963C302.071 11.0947 302.16 10.5592 302.338 10.0898C302.516 9.61589 302.757 9.21484 303.062 8.88672C303.368 8.55859 303.714 8.31022 304.102 8.1416C304.489 7.97298 304.89 7.88867 305.305 7.88867C305.833 7.88867 306.289 7.97982 306.672 8.16211C307.059 8.3444 307.376 8.59961 307.622 8.92773C307.868 9.2513 308.05 9.63411 308.169 10.0762C308.287 10.5137 308.347 10.9922 308.347 11.5117V12.0791H302.823V11.0469H307.082V10.9512C307.064 10.623 306.995 10.304 306.877 9.99414C306.763 9.68424 306.581 9.42904 306.33 9.22852C306.079 9.02799 305.738 8.92773 305.305 8.92773C305.018 8.92773 304.753 8.98926 304.512 9.1123C304.27 9.23079 304.063 9.40853 303.89 9.64551C303.716 9.88249 303.582 10.1719 303.486 10.5137C303.391 10.8555 303.343 11.2497 303.343 11.6963V11.9834C303.343 12.3343 303.391 12.6647 303.486 12.9746C303.587 13.2799 303.73 13.5488 303.917 13.7812C304.108 14.0137 304.339 14.196 304.607 14.3281C304.881 14.4603 305.191 14.5264 305.537 14.5264C305.984 14.5264 306.362 14.4352 306.672 14.2529C306.982 14.0706 307.253 13.8268 307.485 13.5215L308.251 14.1299C308.091 14.3714 307.889 14.6016 307.643 14.8203C307.396 15.0391 307.093 15.2168 306.733 15.3535C306.378 15.4902 305.956 15.5586 305.469 15.5586ZM315.169 14.1094L317.069 8.02539H317.903L317.739 9.23535L315.805 15.4219H314.991L315.169 14.1094ZM313.891 8.02539L315.511 14.1777L315.627 15.4219H314.772L312.626 8.02539H313.891ZM319.722 14.1299L321.267 8.02539H322.524L320.378 15.4219H319.53L319.722 14.1299ZM318.088 8.02539L319.947 14.0068L320.159 15.4219H319.353L317.363 9.22168L317.199 8.02539H318.088ZM326.893 15.5586C326.378 15.5586 325.91 15.472 325.491 15.2988C325.076 15.1211 324.719 14.8727 324.418 14.5537C324.122 14.2347 323.894 13.8564 323.734 13.4189C323.575 12.9814 323.495 12.5029 323.495 11.9834V11.6963C323.495 11.0947 323.584 10.5592 323.762 10.0898C323.939 9.61589 324.181 9.21484 324.486 8.88672C324.792 8.55859 325.138 8.31022 325.525 8.1416C325.913 7.97298 326.314 7.88867 326.729 7.88867C327.257 7.88867 327.713 7.97982 328.096 8.16211C328.483 8.3444 328.8 8.59961 329.046 8.92773C329.292 9.2513 329.474 9.63411 329.593 10.0762C329.711 10.5137 329.771 10.9922 329.771 11.5117V12.0791H324.247V11.0469H328.506V10.9512C328.488 10.623 328.419 10.304 328.301 9.99414C328.187 9.68424 328.005 9.42904 327.754 9.22852C327.503 9.02799 327.161 8.92773 326.729 8.92773C326.441 8.92773 326.177 8.98926 325.936 9.1123C325.694 9.23079 325.487 9.40853 325.313 9.64551C325.14 9.88249 325.006 10.1719 324.91 10.5137C324.814 10.8555 324.767 11.2497 324.767 11.6963V11.9834C324.767 12.3343 324.814 12.6647 324.91 12.9746C325.01 13.2799 325.154 13.5488 325.341 13.7812C325.532 14.0137 325.762 14.196 326.031 14.3281C326.305 14.4603 326.615 14.5264 326.961 14.5264C327.408 14.5264 327.786 14.4352 328.096 14.2529C328.406 14.0706 328.677 13.8268 328.909 13.5215L329.675 14.1299C329.515 14.3714 329.312 14.6016 329.066 14.8203C328.82 15.0391 328.517 15.2168 328.157 15.3535C327.802 15.4902 327.38 15.5586 326.893 15.5586ZM337.68 14.5195C337.98 14.5195 338.258 14.458 338.514 14.335C338.769 14.2119 338.979 14.0433 339.143 13.8291C339.307 13.6104 339.4 13.362 339.423 13.084H340.626C340.603 13.5215 340.455 13.9294 340.182 14.3076C339.913 14.6813 339.56 14.9844 339.122 15.2168C338.685 15.4447 338.204 15.5586 337.68 15.5586C337.124 15.5586 336.638 15.4606 336.224 15.2646C335.813 15.0687 335.472 14.7998 335.198 14.458C334.929 14.1162 334.727 13.7243 334.59 13.2822C334.458 12.8356 334.392 12.3639 334.392 11.8672V11.5801C334.392 11.0833 334.458 10.6139 334.59 10.1719C334.727 9.72526 334.929 9.33105 335.198 8.98926C335.472 8.64746 335.813 8.37858 336.224 8.18262C336.638 7.98665 337.124 7.88867 337.68 7.88867C338.258 7.88867 338.764 8.00716 339.197 8.24414C339.63 8.47656 339.97 8.79557 340.216 9.20117C340.466 9.60221 340.603 10.0579 340.626 10.5684H339.423C339.4 10.263 339.313 9.9873 339.163 9.74121C339.017 9.49512 338.817 9.29915 338.562 9.15332C338.311 9.00293 338.017 8.92773 337.68 8.92773C337.292 8.92773 336.966 9.00521 336.702 9.16016C336.442 9.31055 336.235 9.51562 336.08 9.77539C335.93 10.0306 335.82 10.3154 335.752 10.6299C335.688 10.9398 335.656 11.2565 335.656 11.5801V11.8672C335.656 12.1908 335.688 12.5098 335.752 12.8242C335.816 13.1387 335.923 13.4235 336.073 13.6787C336.228 13.9339 336.436 14.139 336.695 14.2939C336.96 14.4443 337.288 14.5195 337.68 14.5195ZM343.312 9.1875V15.4219H342.048V8.02539H343.278L343.312 9.1875ZM345.623 7.98438L345.616 9.16016C345.511 9.13737 345.411 9.1237 345.315 9.11914C345.224 9.11003 345.119 9.10547 345.001 9.10547C344.709 9.10547 344.452 9.15104 344.229 9.24219C344.005 9.33333 343.816 9.46094 343.661 9.625C343.506 9.78906 343.383 9.98503 343.292 10.2129C343.205 10.4362 343.148 10.6823 343.121 10.9512L342.766 11.1562C342.766 10.7096 342.809 10.2904 342.896 9.89844C342.987 9.50651 343.126 9.16016 343.312 8.85938C343.499 8.55404 343.736 8.31706 344.023 8.14844C344.315 7.97526 344.661 7.88867 345.062 7.88867C345.154 7.88867 345.258 7.90007 345.377 7.92285C345.495 7.94108 345.577 7.96159 345.623 7.98438ZM349.725 15.5586C349.21 15.5586 348.743 15.472 348.323 15.2988C347.909 15.1211 347.551 14.8727 347.25 14.5537C346.954 14.2347 346.726 13.8564 346.566 13.4189C346.407 12.9814 346.327 12.5029 346.327 11.9834V11.6963C346.327 11.0947 346.416 10.5592 346.594 10.0898C346.771 9.61589 347.013 9.21484 347.318 8.88672C347.624 8.55859 347.97 8.31022 348.357 8.1416C348.745 7.97298 349.146 7.88867 349.561 7.88867C350.089 7.88867 350.545 7.97982 350.928 8.16211C351.315 8.3444 351.632 8.59961 351.878 8.92773C352.124 9.2513 352.306 9.63411 352.425 10.0762C352.543 10.5137 352.603 10.9922 352.603 11.5117V12.0791H347.079V11.0469H351.338V10.9512C351.32 10.623 351.251 10.304 351.133 9.99414C351.019 9.68424 350.837 9.42904 350.586 9.22852C350.335 9.02799 349.993 8.92773 349.561 8.92773C349.273 8.92773 349.009 8.98926 348.768 9.1123C348.526 9.23079 348.319 9.40853 348.146 9.64551C347.972 9.88249 347.838 10.1719 347.742 10.5137C347.646 10.8555 347.599 11.2497 347.599 11.6963V11.9834C347.599 12.3343 347.646 12.6647 347.742 12.9746C347.842 13.2799 347.986 13.5488 348.173 13.7812C348.364 14.0137 348.594 14.196 348.863 14.3281C349.137 14.4603 349.447 14.5264 349.793 14.5264C350.24 14.5264 350.618 14.4352 350.928 14.2529C351.238 14.0706 351.509 13.8268 351.741 13.5215L352.507 14.1299C352.347 14.3714 352.145 14.6016 351.898 14.8203C351.652 15.0391 351.349 15.2168 350.989 15.3535C350.634 15.4902 350.212 15.5586 349.725 15.5586ZM358.44 14.1572V10.3496C358.44 10.0579 358.381 9.80501 358.263 9.59082C358.149 9.37207 357.976 9.20345 357.743 9.08496C357.511 8.96647 357.224 8.90723 356.882 8.90723C356.563 8.90723 356.283 8.96191 356.041 9.07129C355.804 9.18066 355.617 9.32422 355.48 9.50195C355.348 9.67969 355.282 9.87109 355.282 10.0762H354.018C354.018 9.81185 354.086 9.5498 354.223 9.29004C354.359 9.03027 354.555 8.79557 354.811 8.58594C355.07 8.37174 355.38 8.20312 355.74 8.08008C356.105 7.95247 356.51 7.88867 356.957 7.88867C357.495 7.88867 357.969 7.97982 358.379 8.16211C358.794 8.3444 359.117 8.62012 359.35 8.98926C359.587 9.35384 359.705 9.81185 359.705 10.3633V13.8086C359.705 14.0547 359.726 14.3167 359.767 14.5947C359.812 14.8727 359.878 15.112 359.965 15.3125V15.4219H358.646C358.582 15.276 358.532 15.0824 358.495 14.8408C358.459 14.5947 358.44 14.3669 358.44 14.1572ZM358.659 10.9375L358.673 11.8262H357.395C357.035 11.8262 356.713 11.8558 356.431 11.915C356.148 11.9697 355.911 12.054 355.72 12.168C355.528 12.2819 355.382 12.4255 355.282 12.5986C355.182 12.7673 355.132 12.9655 355.132 13.1934C355.132 13.4258 355.184 13.6377 355.289 13.8291C355.394 14.0205 355.551 14.1732 355.761 14.2871C355.975 14.3965 356.237 14.4512 356.547 14.4512C356.934 14.4512 357.276 14.3691 357.572 14.2051C357.868 14.041 358.103 13.8405 358.276 13.6035C358.454 13.3665 358.55 13.1364 358.563 12.9131L359.104 13.5215C359.072 13.7129 358.985 13.9248 358.844 14.1572C358.702 14.3896 358.513 14.613 358.276 14.8271C358.044 15.0368 357.766 15.2122 357.442 15.3535C357.123 15.4902 356.763 15.5586 356.362 15.5586C355.861 15.5586 355.421 15.4606 355.043 15.2646C354.669 15.0687 354.378 14.8066 354.168 14.4785C353.963 14.1458 353.86 13.7744 353.86 13.3643C353.86 12.9678 353.938 12.6191 354.093 12.3184C354.248 12.013 354.471 11.7601 354.763 11.5596C355.054 11.3545 355.405 11.1995 355.815 11.0947C356.226 10.9899 356.684 10.9375 357.189 10.9375H358.659ZM364.791 8.02539V8.99609H360.792V8.02539H364.791ZM362.146 6.22754H363.41V13.5898C363.41 13.8405 363.449 14.0296 363.526 14.1572C363.604 14.2848 363.704 14.3691 363.827 14.4102C363.95 14.4512 364.082 14.4717 364.224 14.4717C364.328 14.4717 364.438 14.4626 364.552 14.4443C364.67 14.4215 364.759 14.4033 364.818 14.3896L364.825 15.4219C364.725 15.4538 364.593 15.4834 364.429 15.5107C364.269 15.5426 364.076 15.5586 363.848 15.5586C363.538 15.5586 363.253 15.4971 362.993 15.374C362.733 15.251 362.526 15.0459 362.371 14.7588C362.221 14.4671 362.146 14.0752 362.146 13.583V6.22754ZM369.344 15.5586C368.829 15.5586 368.362 15.472 367.942 15.2988C367.528 15.1211 367.17 14.8727 366.869 14.5537C366.573 14.2347 366.345 13.8564 366.186 13.4189C366.026 12.9814 365.946 12.5029 365.946 11.9834V11.6963C365.946 11.0947 366.035 10.5592 366.213 10.0898C366.391 9.61589 366.632 9.21484 366.938 8.88672C367.243 8.55859 367.589 8.31022 367.977 8.1416C368.364 7.97298 368.765 7.88867 369.18 7.88867C369.708 7.88867 370.164 7.97982 370.547 8.16211C370.934 8.3444 371.251 8.59961 371.497 8.92773C371.743 9.2513 371.925 9.63411 372.044 10.0762C372.162 10.5137 372.222 10.9922 372.222 11.5117V12.0791H366.698V11.0469H370.957V10.9512C370.939 10.623 370.87 10.304 370.752 9.99414C370.638 9.68424 370.456 9.42904 370.205 9.22852C369.954 9.02799 369.613 8.92773 369.18 8.92773C368.893 8.92773 368.628 8.98926 368.387 9.1123C368.145 9.23079 367.938 9.40853 367.765 9.64551C367.591 9.88249 367.457 10.1719 367.361 10.5137C367.266 10.8555 367.218 11.2497 367.218 11.6963V11.9834C367.218 12.3343 367.266 12.6647 367.361 12.9746C367.462 13.2799 367.605 13.5488 367.792 13.7812C367.983 14.0137 368.214 14.196 368.482 14.3281C368.756 14.4603 369.066 14.5264 369.412 14.5264C369.859 14.5264 370.237 14.4352 370.547 14.2529C370.857 14.0706 371.128 13.8268 371.36 13.5215L372.126 14.1299C371.966 14.3714 371.764 14.6016 371.518 14.8203C371.271 15.0391 370.968 15.2168 370.608 15.3535C370.253 15.4902 369.831 15.5586 369.344 15.5586ZM381.833 13.9863V4.92188H383.104V15.4219H381.942L381.833 13.9863ZM376.856 11.8057V11.6621C376.856 11.097 376.925 10.5843 377.062 10.124C377.203 9.65918 377.401 9.26042 377.656 8.92773C377.916 8.59505 378.224 8.33984 378.579 8.16211C378.939 7.97982 379.34 7.88867 379.782 7.88867C380.247 7.88867 380.653 7.9707 380.999 8.13477C381.35 8.29427 381.646 8.52897 381.888 8.83887C382.134 9.14421 382.327 9.51335 382.469 9.94629C382.61 10.3792 382.708 10.8691 382.763 11.416V12.0449C382.713 12.5872 382.615 13.0749 382.469 13.5078C382.327 13.9408 382.134 14.3099 381.888 14.6152C381.646 14.9206 381.35 15.1553 380.999 15.3193C380.648 15.4788 380.238 15.5586 379.769 15.5586C379.336 15.5586 378.939 15.4652 378.579 15.2783C378.224 15.0915 377.916 14.8294 377.656 14.4922C377.401 14.1549 377.203 13.7585 377.062 13.3027C376.925 12.8424 376.856 12.3434 376.856 11.8057ZM378.128 11.6621V11.8057C378.128 12.1748 378.164 12.5212 378.237 12.8447C378.315 13.1683 378.433 13.4531 378.593 13.6992C378.752 13.9453 378.955 14.139 379.201 14.2803C379.447 14.417 379.741 14.4854 380.083 14.4854C380.502 14.4854 380.846 14.3965 381.115 14.2188C381.389 14.041 381.607 13.8063 381.771 13.5146C381.936 13.223 382.063 12.9062 382.154 12.5645V10.917C382.1 10.6663 382.02 10.4248 381.915 10.1924C381.815 9.9554 381.683 9.74577 381.519 9.56348C381.359 9.37663 381.161 9.22852 380.924 9.11914C380.691 9.00977 380.416 8.95508 380.097 8.95508C379.75 8.95508 379.452 9.02799 379.201 9.17383C378.955 9.3151 378.752 9.51107 378.593 9.76172C378.433 10.0078 378.315 10.2949 378.237 10.623C378.164 10.9466 378.128 11.293 378.128 11.6621ZM386.447 8.02539V15.4219H385.176V8.02539H386.447ZM385.08 6.06348C385.08 5.8584 385.142 5.68522 385.265 5.54395C385.392 5.40267 385.579 5.33203 385.825 5.33203C386.067 5.33203 386.251 5.40267 386.379 5.54395C386.511 5.68522 386.577 5.8584 386.577 6.06348C386.577 6.25944 386.511 6.42806 386.379 6.56934C386.251 6.70605 386.067 6.77441 385.825 6.77441C385.579 6.77441 385.392 6.70605 385.265 6.56934C385.142 6.42806 385.08 6.25944 385.08 6.06348ZM390.364 15.4219H389.1V7.24609C389.1 6.71289 389.195 6.264 389.387 5.89941C389.583 5.53027 389.863 5.25228 390.228 5.06543C390.592 4.87402 391.025 4.77832 391.526 4.77832C391.672 4.77832 391.818 4.78743 391.964 4.80566C392.114 4.82389 392.26 4.85124 392.401 4.8877L392.333 5.91992C392.237 5.89714 392.128 5.88118 392.005 5.87207C391.886 5.86296 391.768 5.8584 391.649 5.8584C391.381 5.8584 391.148 5.91309 390.952 6.02246C390.761 6.12728 390.615 6.28223 390.515 6.4873C390.414 6.69238 390.364 6.94531 390.364 7.24609V15.4219ZM391.937 8.02539V8.99609H387.931V8.02539H391.937ZM395.231 15.4219H393.967V7.24609C393.967 6.71289 394.062 6.264 394.254 5.89941C394.45 5.53027 394.73 5.25228 395.095 5.06543C395.459 4.87402 395.892 4.77832 396.394 4.77832C396.539 4.77832 396.685 4.78743 396.831 4.80566C396.981 4.82389 397.127 4.85124 397.269 4.8877L397.2 5.91992C397.104 5.89714 396.995 5.88118 396.872 5.87207C396.754 5.86296 396.635 5.8584 396.517 5.8584C396.248 5.8584 396.015 5.91309 395.819 6.02246C395.628 6.12728 395.482 6.28223 395.382 6.4873C395.282 6.69238 395.231 6.94531 395.231 7.24609V15.4219ZM396.804 8.02539V8.99609H392.798V8.02539H396.804ZM401.117 15.5586C400.602 15.5586 400.135 15.472 399.716 15.2988C399.301 15.1211 398.943 14.8727 398.643 14.5537C398.346 14.2347 398.118 13.8564 397.959 13.4189C397.799 12.9814 397.72 12.5029 397.72 11.9834V11.6963C397.72 11.0947 397.809 10.5592 397.986 10.0898C398.164 9.61589 398.406 9.21484 398.711 8.88672C399.016 8.55859 399.363 8.31022 399.75 8.1416C400.137 7.97298 400.538 7.88867 400.953 7.88867C401.482 7.88867 401.938 7.97982 402.32 8.16211C402.708 8.3444 403.024 8.59961 403.271 8.92773C403.517 9.2513 403.699 9.63411 403.817 10.0762C403.936 10.5137 403.995 10.9922 403.995 11.5117V12.0791H398.472V11.0469H402.73V10.9512C402.712 10.623 402.644 10.304 402.525 9.99414C402.411 9.68424 402.229 9.42904 401.979 9.22852C401.728 9.02799 401.386 8.92773 400.953 8.92773C400.666 8.92773 400.402 8.98926 400.16 9.1123C399.919 9.23079 399.711 9.40853 399.538 9.64551C399.365 9.88249 399.23 10.1719 399.135 10.5137C399.039 10.8555 398.991 11.2497 398.991 11.6963V11.9834C398.991 12.3343 399.039 12.6647 399.135 12.9746C399.235 13.2799 399.379 13.5488 399.565 13.7812C399.757 14.0137 399.987 14.196 400.256 14.3281C400.529 14.4603 400.839 14.5264 401.186 14.5264C401.632 14.5264 402.01 14.4352 402.32 14.2529C402.63 14.0706 402.901 13.8268 403.134 13.5215L403.899 14.1299C403.74 14.3714 403.537 14.6016 403.291 14.8203C403.045 15.0391 402.742 15.2168 402.382 15.3535C402.026 15.4902 401.605 15.5586 401.117 15.5586ZM406.736 9.1875V15.4219H405.472V8.02539H406.702L406.736 9.1875ZM409.047 7.98438L409.04 9.16016C408.935 9.13737 408.835 9.1237 408.739 9.11914C408.648 9.11003 408.543 9.10547 408.425 9.10547C408.133 9.10547 407.876 9.15104 407.652 9.24219C407.429 9.33333 407.24 9.46094 407.085 9.625C406.93 9.78906 406.807 9.98503 406.716 10.2129C406.629 10.4362 406.572 10.6823 406.545 10.9512L406.189 11.1562C406.189 10.7096 406.233 10.2904 406.319 9.89844C406.41 9.50651 406.549 9.16016 406.736 8.85938C406.923 8.55404 407.16 8.31706 407.447 8.14844C407.739 7.97526 408.085 7.88867 408.486 7.88867C408.577 7.88867 408.682 7.90007 408.801 7.92285C408.919 7.94108 409.001 7.96159 409.047 7.98438ZM413.148 15.5586C412.633 15.5586 412.166 15.472 411.747 15.2988C411.332 15.1211 410.975 14.8727 410.674 14.5537C410.378 14.2347 410.15 13.8564 409.99 13.4189C409.831 12.9814 409.751 12.5029 409.751 11.9834V11.6963C409.751 11.0947 409.84 10.5592 410.018 10.0898C410.195 9.61589 410.437 9.21484 410.742 8.88672C411.048 8.55859 411.394 8.31022 411.781 8.1416C412.169 7.97298 412.57 7.88867 412.984 7.88867C413.513 7.88867 413.969 7.97982 414.352 8.16211C414.739 8.3444 415.056 8.59961 415.302 8.92773C415.548 9.2513 415.73 9.63411 415.849 10.0762C415.967 10.5137 416.026 10.9922 416.026 11.5117V12.0791H410.503V11.0469H414.762V10.9512C414.743 10.623 414.675 10.304 414.557 9.99414C414.443 9.68424 414.26 9.42904 414.01 9.22852C413.759 9.02799 413.417 8.92773 412.984 8.92773C412.697 8.92773 412.433 8.98926 412.191 9.1123C411.95 9.23079 411.743 9.40853 411.569 9.64551C411.396 9.88249 411.262 10.1719 411.166 10.5137C411.07 10.8555 411.022 11.2497 411.022 11.6963V11.9834C411.022 12.3343 411.07 12.6647 411.166 12.9746C411.266 13.2799 411.41 13.5488 411.597 13.7812C411.788 14.0137 412.018 14.196 412.287 14.3281C412.561 14.4603 412.87 14.5264 413.217 14.5264C413.663 14.5264 414.042 14.4352 414.352 14.2529C414.661 14.0706 414.933 13.8268 415.165 13.5215L415.931 14.1299C415.771 14.3714 415.568 14.6016 415.322 14.8203C415.076 15.0391 414.773 15.2168 414.413 15.3535C414.058 15.4902 413.636 15.5586 413.148 15.5586ZM418.768 9.60449V15.4219H417.503V8.02539H418.699L418.768 9.60449ZM418.467 11.4434L417.94 11.4229C417.945 10.917 418.02 10.4499 418.166 10.0215C418.312 9.58854 418.517 9.21257 418.781 8.89355C419.046 8.57454 419.36 8.32845 419.725 8.15527C420.094 7.97754 420.502 7.88867 420.948 7.88867C421.313 7.88867 421.641 7.9388 421.933 8.03906C422.224 8.13477 422.473 8.28971 422.678 8.50391C422.887 8.7181 423.047 8.99609 423.156 9.33789C423.266 9.67513 423.32 10.0876 423.32 10.5752V15.4219H422.049V10.5615C422.049 10.1742 421.992 9.86426 421.878 9.63184C421.764 9.39486 421.598 9.22396 421.379 9.11914C421.16 9.00977 420.891 8.95508 420.572 8.95508C420.258 8.95508 419.971 9.02116 419.711 9.15332C419.456 9.28548 419.235 9.46777 419.048 9.7002C418.866 9.93262 418.722 10.1992 418.617 10.5C418.517 10.7962 418.467 11.1107 418.467 11.4434ZM428.338 8.02539V8.99609H424.339V8.02539H428.338ZM425.692 6.22754H426.957V13.5898C426.957 13.8405 426.996 14.0296 427.073 14.1572C427.151 14.2848 427.251 14.3691 427.374 14.4102C427.497 14.4512 427.629 14.4717 427.771 14.4717C427.875 14.4717 427.985 14.4626 428.099 14.4443C428.217 14.4215 428.306 14.4033 428.365 14.3896L428.372 15.4219C428.272 15.4538 428.14 15.4834 427.976 15.5107C427.816 15.5426 427.622 15.5586 427.395 15.5586C427.085 15.5586 426.8 15.4971 426.54 15.374C426.28 15.251 426.073 15.0459 425.918 14.7588C425.768 14.4671 425.692 14.0752 425.692 13.583V6.22754ZM3.21289 32.2803L5.23633 26.0254H6.52832L3.86914 33.4219H3.02148L3.21289 32.2803ZM1.52441 26.0254L3.60938 32.3145L3.75293 33.4219H2.90527L0.225586 26.0254H1.52441ZM10.7188 33.5586C10.2038 33.5586 9.73665 33.472 9.31738 33.2988C8.90267 33.1211 8.54492 32.8727 8.24414 32.5537C7.94792 32.2347 7.72005 31.8564 7.56055 31.4189C7.40104 30.9814 7.32129 30.5029 7.32129 29.9834V29.6963C7.32129 29.0947 7.41016 28.5592 7.58789 28.0898C7.76562 27.6159 8.00716 27.2148 8.3125 26.8867C8.61784 26.5586 8.96419 26.3102 9.35156 26.1416C9.73893 25.973 10.14 25.8887 10.5547 25.8887C11.0833 25.8887 11.5391 25.9798 11.9219 26.1621C12.3092 26.3444 12.626 26.5996 12.8721 26.9277C13.1182 27.2513 13.3005 27.6341 13.4189 28.0762C13.5374 28.5137 13.5967 28.9922 13.5967 29.5117V30.0791H8.07324V29.0469H12.332V28.9512C12.3138 28.623 12.2454 28.304 12.127 27.9941C12.013 27.6842 11.8307 27.429 11.5801 27.2285C11.3294 27.028 10.9876 26.9277 10.5547 26.9277C10.2676 26.9277 10.0033 26.9893 9.76172 27.1123C9.52018 27.2308 9.31283 27.4085 9.13965 27.6455C8.96647 27.8825 8.83203 28.1719 8.73633 28.5137C8.64062 28.8555 8.59277 29.2497 8.59277 29.6963V29.9834C8.59277 30.3343 8.64062 30.6647 8.73633 30.9746C8.83659 31.2799 8.98014 31.5488 9.16699 31.7812C9.3584 32.0137 9.58854 32.196 9.85742 32.3281C10.1309 32.4603 10.4408 32.5264 10.7871 32.5264C11.2337 32.5264 11.612 32.4352 11.9219 32.2529C12.2318 32.0706 12.5029 31.8268 12.7354 31.5215L13.501 32.1299C13.3415 32.3714 13.1387 32.6016 12.8926 32.8203C12.6465 33.0391 12.3434 33.2168 11.9834 33.3535C11.6279 33.4902 11.2064 33.5586 10.7188 33.5586ZM16.3379 27.1875V33.4219H15.0732V26.0254H16.3037L16.3379 27.1875ZM18.6484 25.9844L18.6416 27.1602C18.5368 27.1374 18.4365 27.1237 18.3408 27.1191C18.2497 27.11 18.1449 27.1055 18.0264 27.1055C17.7347 27.1055 17.4772 27.151 17.2539 27.2422C17.0306 27.3333 16.8415 27.4609 16.6865 27.625C16.5316 27.7891 16.4085 27.985 16.3174 28.2129C16.2308 28.4362 16.1738 28.6823 16.1465 28.9512L15.791 29.1562C15.791 28.7096 15.8343 28.2904 15.9209 27.8984C16.012 27.5065 16.151 27.1602 16.3379 26.8594C16.5247 26.554 16.7617 26.3171 17.0488 26.1484C17.3405 25.9753 17.6868 25.8887 18.0879 25.8887C18.179 25.8887 18.2839 25.9001 18.4023 25.9229C18.5208 25.9411 18.6029 25.9616 18.6484 25.9844ZM24.124 31.46C24.124 31.2777 24.083 31.109 24.001 30.9541C23.9235 30.7946 23.7617 30.651 23.5156 30.5234C23.2741 30.3913 22.9095 30.2773 22.4219 30.1816C22.0117 30.0951 21.6403 29.9925 21.3076 29.874C20.9795 29.7555 20.6992 29.612 20.4668 29.4434C20.2389 29.2747 20.0635 29.0765 19.9404 28.8486C19.8174 28.6208 19.7559 28.3542 19.7559 28.0488C19.7559 27.7572 19.8197 27.4814 19.9473 27.2217C20.0794 26.9619 20.264 26.7318 20.501 26.5312C20.7425 26.3307 21.0319 26.1735 21.3691 26.0596C21.7064 25.9456 22.0824 25.8887 22.4971 25.8887C23.0895 25.8887 23.5954 25.9935 24.0146 26.2031C24.4339 26.4128 24.7552 26.693 24.9785 27.0439C25.2018 27.3903 25.3135 27.7754 25.3135 28.1992H24.0488C24.0488 27.9941 23.9873 27.7959 23.8643 27.6045C23.7458 27.4085 23.5703 27.2467 23.3379 27.1191C23.11 26.9915 22.8298 26.9277 22.4971 26.9277C22.1462 26.9277 21.8613 26.9824 21.6426 27.0918C21.4284 27.1966 21.2712 27.3311 21.1709 27.4951C21.0752 27.6592 21.0273 27.8324 21.0273 28.0146C21.0273 28.1514 21.0501 28.2744 21.0957 28.3838C21.1458 28.4886 21.2324 28.5866 21.3555 28.6777C21.4785 28.7643 21.6517 28.8464 21.875 28.9238C22.0983 29.0013 22.3831 29.0788 22.7295 29.1562C23.3356 29.293 23.8346 29.457 24.2266 29.6484C24.6185 29.8398 24.9102 30.0745 25.1016 30.3525C25.293 30.6305 25.3887 30.9678 25.3887 31.3643C25.3887 31.6878 25.3203 31.984 25.1836 32.2529C25.0514 32.5218 24.8577 32.7542 24.6025 32.9502C24.3519 33.1416 24.0511 33.292 23.7002 33.4014C23.3538 33.5062 22.9642 33.5586 22.5312 33.5586C21.8796 33.5586 21.3281 33.4424 20.877 33.21C20.4258 32.9775 20.084 32.6768 19.8516 32.3076C19.6191 31.9385 19.5029 31.5488 19.5029 31.1387H20.7744C20.7926 31.485 20.8929 31.7607 21.0752 31.9658C21.2575 32.1663 21.4808 32.3099 21.7451 32.3965C22.0094 32.4785 22.2715 32.5195 22.5312 32.5195C22.8776 32.5195 23.167 32.474 23.3994 32.3828C23.6364 32.2917 23.8164 32.1663 23.9395 32.0068C24.0625 31.8473 24.124 31.665 24.124 31.46ZM28.4238 26.0254V33.4219H27.1523V26.0254H28.4238ZM27.0566 24.0635C27.0566 23.8584 27.1182 23.6852 27.2412 23.5439C27.3688 23.4027 27.5557 23.332 27.8018 23.332C28.0433 23.332 28.2279 23.4027 28.3555 23.5439C28.4876 23.6852 28.5537 23.8584 28.5537 24.0635C28.5537 24.2594 28.4876 24.4281 28.3555 24.5693C28.2279 24.7061 28.0433 24.7744 27.8018 24.7744C27.5557 24.7744 27.3688 24.7061 27.2412 24.5693C27.1182 24.4281 27.0566 24.2594 27.0566 24.0635ZM30.1191 29.8057V29.6484C30.1191 29.1152 30.1966 28.6208 30.3516 28.165C30.5065 27.7048 30.7298 27.306 31.0215 26.9688C31.3132 26.627 31.6663 26.3626 32.0811 26.1758C32.4958 25.9844 32.9606 25.8887 33.4756 25.8887C33.9951 25.8887 34.4622 25.9844 34.877 26.1758C35.2962 26.3626 35.6517 26.627 35.9434 26.9688C36.2396 27.306 36.4652 27.7048 36.6201 28.165C36.7751 28.6208 36.8525 29.1152 36.8525 29.6484V29.8057C36.8525 30.3389 36.7751 30.8333 36.6201 31.2891C36.4652 31.7448 36.2396 32.1436 35.9434 32.4854C35.6517 32.8226 35.2985 33.0869 34.8838 33.2783C34.4736 33.4652 34.0088 33.5586 33.4893 33.5586C32.9697 33.5586 32.5026 33.4652 32.0879 33.2783C31.6732 33.0869 31.3177 32.8226 31.0215 32.4854C30.7298 32.1436 30.5065 31.7448 30.3516 31.2891C30.1966 30.8333 30.1191 30.3389 30.1191 29.8057ZM31.3838 29.6484V29.8057C31.3838 30.1748 31.4271 30.5234 31.5137 30.8516C31.6003 31.1751 31.7301 31.4622 31.9033 31.7129C32.0811 31.9635 32.3021 32.1618 32.5664 32.3076C32.8307 32.4489 33.1383 32.5195 33.4893 32.5195C33.8356 32.5195 34.1387 32.4489 34.3984 32.3076C34.6628 32.1618 34.8815 31.9635 35.0547 31.7129C35.2279 31.4622 35.3577 31.1751 35.4443 30.8516C35.5355 30.5234 35.5811 30.1748 35.5811 29.8057V29.6484C35.5811 29.2839 35.5355 28.9398 35.4443 28.6162C35.3577 28.2881 35.2256 27.9987 35.0479 27.748C34.8747 27.4928 34.6559 27.2923 34.3916 27.1465C34.1318 27.0007 33.8265 26.9277 33.4756 26.9277C33.1292 26.9277 32.8239 27.0007 32.5596 27.1465C32.2998 27.2923 32.0811 27.4928 31.9033 27.748C31.7301 27.9987 31.6003 28.2881 31.5137 28.6162C31.4271 28.9398 31.3838 29.2839 31.3838 29.6484ZM39.7031 27.6045V33.4219H38.4385V26.0254H39.6348L39.7031 27.6045ZM39.4023 29.4434L38.876 29.4229C38.8805 28.917 38.9557 28.4499 39.1016 28.0215C39.2474 27.5885 39.4525 27.2126 39.7168 26.8936C39.9811 26.5745 40.2956 26.3285 40.6602 26.1553C41.0293 25.9775 41.4372 25.8887 41.8838 25.8887C42.2484 25.8887 42.5765 25.9388 42.8682 26.0391C43.1598 26.1348 43.4082 26.2897 43.6133 26.5039C43.8229 26.7181 43.9824 26.9961 44.0918 27.3379C44.2012 27.6751 44.2559 28.0876 44.2559 28.5752V33.4219H42.9844V28.5615C42.9844 28.1742 42.9274 27.8643 42.8135 27.6318C42.6995 27.3949 42.5332 27.224 42.3145 27.1191C42.0957 27.0098 41.8268 26.9551 41.5078 26.9551C41.1934 26.9551 40.9062 27.0212 40.6465 27.1533C40.3913 27.2855 40.1702 27.4678 39.9834 27.7002C39.8011 27.9326 39.6576 28.1992 39.5527 28.5C39.4525 28.7962 39.4023 29.1107 39.4023 29.4434ZM50.4834 31.46C50.4834 31.2777 50.4424 31.109 50.3604 30.9541C50.2829 30.7946 50.1211 30.651 49.875 30.5234C49.6335 30.3913 49.2689 30.2773 48.7812 30.1816C48.3711 30.0951 47.9997 29.9925 47.667 29.874C47.3389 29.7555 47.0586 29.612 46.8262 29.4434C46.5983 29.2747 46.4229 29.0765 46.2998 28.8486C46.1768 28.6208 46.1152 28.3542 46.1152 28.0488C46.1152 27.7572 46.179 27.4814 46.3066 27.2217C46.4388 26.9619 46.6234 26.7318 46.8604 26.5312C47.1019 26.3307 47.3913 26.1735 47.7285 26.0596C48.0658 25.9456 48.4417 25.8887 48.8564 25.8887C49.4489 25.8887 49.9548 25.9935 50.374 26.2031C50.7933 26.4128 51.1146 26.693 51.3379 27.0439C51.5612 27.3903 51.6729 27.7754 51.6729 28.1992H50.4082C50.4082 27.9941 50.3467 27.7959 50.2236 27.6045C50.1051 27.4085 49.9297 27.2467 49.6973 27.1191C49.4694 26.9915 49.1891 26.9277 48.8564 26.9277C48.5055 26.9277 48.2207 26.9824 48.002 27.0918C47.7878 27.1966 47.6305 27.3311 47.5303 27.4951C47.4346 27.6592 47.3867 27.8324 47.3867 28.0146C47.3867 28.1514 47.4095 28.2744 47.4551 28.3838C47.5052 28.4886 47.5918 28.5866 47.7148 28.6777C47.8379 28.7643 48.0111 28.8464 48.2344 28.9238C48.4577 29.0013 48.7425 29.0788 49.0889 29.1562C49.695 29.293 50.194 29.457 50.5859 29.6484C50.9779 29.8398 51.2695 30.0745 51.4609 30.3525C51.6523 30.6305 51.748 30.9678 51.748 31.3643C51.748 31.6878 51.6797 31.984 51.543 32.2529C51.4108 32.5218 51.2171 32.7542 50.9619 32.9502C50.7113 33.1416 50.4105 33.292 50.0596 33.4014C49.7132 33.5062 49.3236 33.5586 48.8906 33.5586C48.2389 33.5586 47.6875 33.4424 47.2363 33.21C46.7852 32.9775 46.4434 32.6768 46.2109 32.3076C45.9785 31.9385 45.8623 31.5488 45.8623 31.1387H47.1338C47.152 31.485 47.2523 31.7607 47.4346 31.9658C47.6169 32.1663 47.8402 32.3099 48.1045 32.3965C48.3688 32.4785 48.6309 32.5195 48.8906 32.5195C49.237 32.5195 49.5264 32.474 49.7588 32.3828C49.9958 32.2917 50.1758 32.1663 50.2988 32.0068C50.4219 31.8473 50.4834 31.665 50.4834 31.46ZM56.5469 29.8057V29.6484C56.5469 29.1152 56.6243 28.6208 56.7793 28.165C56.9342 27.7048 57.1576 27.306 57.4492 26.9688C57.7409 26.627 58.0941 26.3626 58.5088 26.1758C58.9235 25.9844 59.3883 25.8887 59.9033 25.8887C60.4229 25.8887 60.89 25.9844 61.3047 26.1758C61.724 26.3626 62.0794 26.627 62.3711 26.9688C62.6673 27.306 62.8929 27.7048 63.0479 28.165C63.2028 28.6208 63.2803 29.1152 63.2803 29.6484V29.8057C63.2803 30.3389 63.2028 30.8333 63.0479 31.2891C62.8929 31.7448 62.6673 32.1436 62.3711 32.4854C62.0794 32.8226 61.7262 33.0869 61.3115 33.2783C60.9014 33.4652 60.4365 33.5586 59.917 33.5586C59.3975 33.5586 58.9303 33.4652 58.5156 33.2783C58.1009 33.0869 57.7454 32.8226 57.4492 32.4854C57.1576 32.1436 56.9342 31.7448 56.7793 31.2891C56.6243 30.8333 56.5469 30.3389 56.5469 29.8057ZM57.8115 29.6484V29.8057C57.8115 30.1748 57.8548 30.5234 57.9414 30.8516C58.028 31.1751 58.1579 31.4622 58.3311 31.7129C58.5088 31.9635 58.7298 32.1618 58.9941 32.3076C59.2585 32.4489 59.5661 32.5195 59.917 32.5195C60.2633 32.5195 60.5664 32.4489 60.8262 32.3076C61.0905 32.1618 61.3092 31.9635 61.4824 31.7129C61.6556 31.4622 61.7855 31.1751 61.8721 30.8516C61.9632 30.5234 62.0088 30.1748 62.0088 29.8057V29.6484C62.0088 29.2839 61.9632 28.9398 61.8721 28.6162C61.7855 28.2881 61.6533 27.9987 61.4756 27.748C61.3024 27.4928 61.0837 27.2923 60.8193 27.1465C60.5596 27.0007 60.2542 26.9277 59.9033 26.9277C59.557 26.9277 59.2516 27.0007 58.9873 27.1465C58.7275 27.2923 58.5088 27.4928 58.3311 27.748C58.1579 27.9987 58.028 28.2881 57.9414 28.6162C57.8548 28.9398 57.8115 29.2839 57.8115 29.6484ZM66.7529 33.4219H65.4883V25.2461C65.4883 24.7129 65.584 24.264 65.7754 23.8994C65.9714 23.5303 66.2516 23.2523 66.6162 23.0654C66.9808 22.874 67.4137 22.7783 67.915 22.7783C68.0609 22.7783 68.2067 22.7874 68.3525 22.8057C68.5029 22.8239 68.6488 22.8512 68.79 22.8877L68.7217 23.9199C68.626 23.8971 68.5166 23.8812 68.3936 23.8721C68.2751 23.863 68.1566 23.8584 68.0381 23.8584C67.7692 23.8584 67.5368 23.9131 67.3408 24.0225C67.1494 24.1273 67.0036 24.2822 66.9033 24.4873C66.8031 24.6924 66.7529 24.9453 66.7529 25.2461V33.4219ZM68.3252 26.0254V26.9961H64.3193V26.0254H68.3252ZM76.3027 26.0254V26.9961H72.3037V26.0254H76.3027ZM73.6572 24.2275H74.9219V31.5898C74.9219 31.8405 74.9606 32.0296 75.0381 32.1572C75.1156 32.2848 75.2158 32.3691 75.3389 32.4102C75.4619 32.4512 75.5941 32.4717 75.7354 32.4717C75.8402 32.4717 75.9495 32.4626 76.0635 32.4443C76.182 32.4215 76.2708 32.4033 76.3301 32.3896L76.3369 33.4219C76.2367 33.4538 76.1045 33.4834 75.9404 33.5107C75.7809 33.5426 75.5872 33.5586 75.3594 33.5586C75.0495 33.5586 74.7646 33.4971 74.5049 33.374C74.2451 33.251 74.0378 33.0459 73.8828 32.7588C73.7324 32.4671 73.6572 32.0752 73.6572 31.583V24.2275ZM79.0508 22.9219V33.4219H77.7861V22.9219H79.0508ZM78.75 29.4434L78.2236 29.4229C78.2282 28.917 78.3034 28.4499 78.4492 28.0215C78.5951 27.5885 78.8001 27.2126 79.0645 26.8936C79.3288 26.5745 79.6432 26.3285 80.0078 26.1553C80.377 25.9775 80.7848 25.8887 81.2314 25.8887C81.596 25.8887 81.9242 25.9388 82.2158 26.0391C82.5075 26.1348 82.7559 26.2897 82.9609 26.5039C83.1706 26.7181 83.3301 26.9961 83.4395 27.3379C83.5488 27.6751 83.6035 28.0876 83.6035 28.5752V33.4219H82.332V28.5615C82.332 28.1742 82.2751 27.8643 82.1611 27.6318C82.0472 27.3949 81.8809 27.224 81.6621 27.1191C81.4434 27.0098 81.1745 26.9551 80.8555 26.9551C80.541 26.9551 80.2539 27.0212 79.9941 27.1533C79.7389 27.2855 79.5179 27.4678 79.3311 27.7002C79.1488 27.9326 79.0052 28.1992 78.9004 28.5C78.8001 28.7962 78.75 29.1107 78.75 29.4434ZM88.5664 33.5586C88.0514 33.5586 87.5843 33.472 87.165 33.2988C86.7503 33.1211 86.3926 32.8727 86.0918 32.5537C85.7956 32.2347 85.5677 31.8564 85.4082 31.4189C85.2487 30.9814 85.1689 30.5029 85.1689 29.9834V29.6963C85.1689 29.0947 85.2578 28.5592 85.4355 28.0898C85.6133 27.6159 85.8548 27.2148 86.1602 26.8867C86.4655 26.5586 86.8118 26.3102 87.1992 26.1416C87.5866 25.973 87.9876 25.8887 88.4023 25.8887C88.931 25.8887 89.3867 25.9798 89.7695 26.1621C90.1569 26.3444 90.4736 26.5996 90.7197 26.9277C90.9658 27.2513 91.1481 27.6341 91.2666 28.0762C91.3851 28.5137 91.4443 28.9922 91.4443 29.5117V30.0791H85.9209V29.0469H90.1797V28.9512C90.1615 28.623 90.0931 28.304 89.9746 27.9941C89.8607 27.6842 89.6784 27.429 89.4277 27.2285C89.1771 27.028 88.8353 26.9277 88.4023 26.9277C88.1152 26.9277 87.8509 26.9893 87.6094 27.1123C87.3678 27.2308 87.1605 27.4085 86.9873 27.6455C86.8141 27.8825 86.6797 28.1719 86.584 28.5137C86.4883 28.8555 86.4404 29.2497 86.4404 29.6963V29.9834C86.4404 30.3343 86.4883 30.6647 86.584 30.9746C86.6842 31.2799 86.8278 31.5488 87.0146 31.7812C87.2061 32.0137 87.4362 32.196 87.7051 32.3281C87.9785 32.4603 88.2884 32.5264 88.6348 32.5264C89.0814 32.5264 89.4596 32.4352 89.7695 32.2529C90.0794 32.0706 90.3506 31.8268 90.583 31.5215L91.3486 32.1299C91.1891 32.3714 90.9863 32.6016 90.7402 32.8203C90.4941 33.0391 90.1911 33.2168 89.8311 33.3535C89.4756 33.4902 89.054 33.5586 88.5664 33.5586ZM98.082 33.4219H96.8174V25.3828C96.8174 24.8223 96.9268 24.3483 97.1455 23.9609C97.3643 23.5736 97.6764 23.2796 98.082 23.0791C98.4876 22.8786 98.9684 22.7783 99.5244 22.7783C99.8525 22.7783 100.174 22.8193 100.488 22.9014C100.803 22.9788 101.126 23.0768 101.459 23.1953L101.247 24.2617C101.037 24.1797 100.794 24.1022 100.516 24.0293C100.242 23.9518 99.9414 23.9131 99.6133 23.9131C99.071 23.9131 98.679 24.0361 98.4375 24.2822C98.2005 24.5238 98.082 24.8906 98.082 25.3828V33.4219ZM99.5928 26.0254V26.9961H95.6484V26.0254H99.5928ZM102.081 26.0254V33.4219H100.816V26.0254H102.081ZM105.424 27.6045V33.4219H104.159V26.0254H105.355L105.424 27.6045ZM105.123 29.4434L104.597 29.4229C104.601 28.917 104.676 28.4499 104.822 28.0215C104.968 27.5885 105.173 27.2126 105.438 26.8936C105.702 26.5745 106.016 26.3285 106.381 26.1553C106.75 25.9775 107.158 25.8887 107.604 25.8887C107.969 25.8887 108.297 25.9388 108.589 26.0391C108.881 26.1348 109.129 26.2897 109.334 26.5039C109.544 26.7181 109.703 26.9961 109.812 27.3379C109.922 27.6751 109.977 28.0876 109.977 28.5752V33.4219H108.705V28.5615C108.705 28.1742 108.648 27.8643 108.534 27.6318C108.42 27.3949 108.254 27.224 108.035 27.1191C107.816 27.0098 107.548 26.9551 107.229 26.9551C106.914 26.9551 106.627 27.0212 106.367 27.1533C106.112 27.2855 105.891 27.4678 105.704 27.7002C105.522 27.9326 105.378 28.1992 105.273 28.5C105.173 28.7962 105.123 29.1107 105.123 29.4434ZM116.259 32.1572V28.3496C116.259 28.0579 116.2 27.805 116.081 27.5908C115.967 27.3721 115.794 27.2035 115.562 27.085C115.329 26.9665 115.042 26.9072 114.7 26.9072C114.381 26.9072 114.101 26.9619 113.859 27.0713C113.622 27.1807 113.436 27.3242 113.299 27.502C113.167 27.6797 113.101 27.8711 113.101 28.0762H111.836C111.836 27.8118 111.904 27.5498 112.041 27.29C112.178 27.0303 112.374 26.7956 112.629 26.5859C112.889 26.3717 113.199 26.2031 113.559 26.0801C113.923 25.9525 114.329 25.8887 114.775 25.8887C115.313 25.8887 115.787 25.9798 116.197 26.1621C116.612 26.3444 116.936 26.6201 117.168 26.9893C117.405 27.3538 117.523 27.8118 117.523 28.3633V31.8086C117.523 32.0547 117.544 32.3167 117.585 32.5947C117.631 32.8727 117.697 33.112 117.783 33.3125V33.4219H116.464C116.4 33.276 116.35 33.0824 116.313 32.8408C116.277 32.5947 116.259 32.3669 116.259 32.1572ZM116.478 28.9375L116.491 29.8262H115.213C114.853 29.8262 114.532 29.8558 114.249 29.915C113.966 29.9697 113.729 30.054 113.538 30.168C113.347 30.2819 113.201 30.4255 113.101 30.5986C113 30.7673 112.95 30.9655 112.95 31.1934C112.95 31.4258 113.003 31.6377 113.107 31.8291C113.212 32.0205 113.369 32.1732 113.579 32.2871C113.793 32.3965 114.055 32.4512 114.365 32.4512C114.753 32.4512 115.094 32.3691 115.391 32.2051C115.687 32.041 115.922 31.8405 116.095 31.6035C116.272 31.3665 116.368 31.1364 116.382 30.9131L116.922 31.5215C116.89 31.7129 116.803 31.9248 116.662 32.1572C116.521 32.3896 116.332 32.613 116.095 32.8271C115.862 33.0368 115.584 33.2122 115.261 33.3535C114.942 33.4902 114.582 33.5586 114.181 33.5586C113.679 33.5586 113.24 33.4606 112.861 33.2646C112.488 33.0687 112.196 32.8066 111.986 32.4785C111.781 32.1458 111.679 31.7744 111.679 31.3643C111.679 30.9678 111.756 30.6191 111.911 30.3184C112.066 30.013 112.289 29.7601 112.581 29.5596C112.873 29.3545 113.224 29.1995 113.634 29.0947C114.044 28.9899 114.502 28.9375 115.008 28.9375H116.478ZM120.887 22.9219V33.4219H119.615V22.9219H120.887ZM129.486 26.0254V26.9961H125.487V26.0254H129.486ZM126.841 24.2275H128.105V31.5898C128.105 31.8405 128.144 32.0296 128.222 32.1572C128.299 32.2848 128.399 32.3691 128.522 32.4102C128.646 32.4512 128.778 32.4717 128.919 32.4717C129.024 32.4717 129.133 32.4626 129.247 32.4443C129.366 32.4215 129.454 32.4033 129.514 32.3896L129.521 33.4219C129.42 33.4538 129.288 33.4834 129.124 33.5107C128.965 33.5426 128.771 33.5586 128.543 33.5586C128.233 33.5586 127.948 33.4971 127.688 33.374C127.429 33.251 127.221 33.0459 127.066 32.7588C126.916 32.4671 126.841 32.0752 126.841 31.583V24.2275ZM132.234 22.9219V33.4219H130.97V22.9219H132.234ZM131.934 29.4434L131.407 29.4229C131.412 28.917 131.487 28.4499 131.633 28.0215C131.779 27.5885 131.984 27.2126 132.248 26.8936C132.512 26.5745 132.827 26.3285 133.191 26.1553C133.561 25.9775 133.968 25.8887 134.415 25.8887C134.78 25.8887 135.108 25.9388 135.399 26.0391C135.691 26.1348 135.939 26.2897 136.145 26.5039C136.354 26.7181 136.514 26.9961 136.623 27.3379C136.732 27.6751 136.787 28.0876 136.787 28.5752V33.4219H135.516V28.5615C135.516 28.1742 135.459 27.8643 135.345 27.6318C135.231 27.3949 135.064 27.224 134.846 27.1191C134.627 27.0098 134.358 26.9551 134.039 26.9551C133.725 26.9551 133.438 27.0212 133.178 27.1533C132.923 27.2855 132.701 27.4678 132.515 27.7002C132.332 27.9326 132.189 28.1992 132.084 28.5C131.984 28.7962 131.934 29.1107 131.934 29.4434ZM143.206 31.7129V26.0254H144.478V33.4219H143.268L143.206 31.7129ZM143.445 30.1543L143.972 30.1406C143.972 30.6328 143.919 31.0885 143.814 31.5078C143.714 31.9225 143.55 32.2826 143.322 32.5879C143.094 32.8932 142.796 33.1325 142.427 33.3057C142.058 33.4743 141.609 33.5586 141.08 33.5586C140.72 33.5586 140.39 33.5062 140.089 33.4014C139.793 33.2965 139.537 33.1348 139.323 32.916C139.109 32.6973 138.943 32.4124 138.824 32.0615C138.71 31.7106 138.653 31.2891 138.653 30.7969V26.0254H139.918V30.8105C139.918 31.1432 139.954 31.4189 140.027 31.6377C140.105 31.8519 140.207 32.0228 140.335 32.1504C140.467 32.2734 140.613 32.36 140.772 32.4102C140.937 32.4603 141.105 32.4854 141.278 32.4854C141.816 32.4854 142.242 32.3828 142.557 32.1777C142.871 31.9681 143.097 31.6878 143.233 31.3369C143.375 30.9814 143.445 30.5872 143.445 30.1543ZM147.663 27.4951V33.4219H146.392V26.0254H147.595L147.663 27.4951ZM147.403 29.4434L146.815 29.4229C146.82 28.917 146.886 28.4499 147.014 28.0215C147.141 27.5885 147.33 27.2126 147.581 26.8936C147.832 26.5745 148.144 26.3285 148.518 26.1553C148.891 25.9775 149.324 25.8887 149.816 25.8887C150.163 25.8887 150.482 25.9388 150.773 26.0391C151.065 26.1348 151.318 26.2874 151.532 26.4971C151.746 26.7067 151.913 26.9756 152.031 27.3037C152.15 27.6318 152.209 28.0283 152.209 28.4932V33.4219H150.944V28.5547C150.944 28.1673 150.878 27.8574 150.746 27.625C150.618 27.3926 150.436 27.224 150.199 27.1191C149.962 27.0098 149.684 26.9551 149.365 26.9551C148.992 26.9551 148.679 27.0212 148.429 27.1533C148.178 27.2855 147.978 27.4678 147.827 27.7002C147.677 27.9326 147.567 28.1992 147.499 28.5C147.435 28.7962 147.403 29.1107 147.403 29.4434ZM152.195 28.7461L151.348 29.0059C151.352 28.6003 151.418 28.2106 151.546 27.8369C151.678 27.4632 151.867 27.1305 152.113 26.8389C152.364 26.5472 152.672 26.3171 153.036 26.1484C153.401 25.9753 153.818 25.8887 154.287 25.8887C154.684 25.8887 155.035 25.9411 155.34 26.0459C155.65 26.1507 155.91 26.3125 156.119 26.5312C156.333 26.7454 156.495 27.0212 156.604 27.3584C156.714 27.6956 156.769 28.0967 156.769 28.5615V33.4219H155.497V28.5479C155.497 28.1331 155.431 27.8118 155.299 27.584C155.171 27.3516 154.989 27.1898 154.752 27.0986C154.52 27.0029 154.242 26.9551 153.918 26.9551C153.64 26.9551 153.394 27.0029 153.18 27.0986C152.965 27.1943 152.785 27.3265 152.64 27.4951C152.494 27.6592 152.382 27.8483 152.305 28.0625C152.232 28.2767 152.195 28.5046 152.195 28.7461ZM158.676 22.9219H159.947V31.9863L159.838 33.4219H158.676V22.9219ZM164.944 29.6621V29.8057C164.944 30.3434 164.881 30.8424 164.753 31.3027C164.625 31.7585 164.438 32.1549 164.192 32.4922C163.946 32.8294 163.646 33.0915 163.29 33.2783C162.935 33.4652 162.527 33.5586 162.066 33.5586C161.597 33.5586 161.185 33.4788 160.829 33.3193C160.478 33.1553 160.182 32.9206 159.94 32.6152C159.699 32.3099 159.505 31.9408 159.359 31.5078C159.218 31.0749 159.12 30.5872 159.065 30.0449V29.416C159.12 28.8691 159.218 28.3792 159.359 27.9463C159.505 27.5133 159.699 27.1442 159.94 26.8389C160.182 26.529 160.478 26.2943 160.829 26.1348C161.18 25.9707 161.588 25.8887 162.053 25.8887C162.518 25.8887 162.93 25.9798 163.29 26.1621C163.65 26.3398 163.951 26.5951 164.192 26.9277C164.438 27.2604 164.625 27.6592 164.753 28.124C164.881 28.5843 164.944 29.097 164.944 29.6621ZM163.673 29.8057V29.6621C163.673 29.293 163.639 28.9466 163.57 28.623C163.502 28.2949 163.393 28.0078 163.242 27.7617C163.092 27.5111 162.894 27.3151 162.647 27.1738C162.401 27.028 162.098 26.9551 161.738 26.9551C161.419 26.9551 161.141 27.0098 160.904 27.1191C160.672 27.2285 160.474 27.3766 160.31 27.5635C160.146 27.7458 160.011 27.9554 159.906 28.1924C159.806 28.4248 159.731 28.6663 159.681 28.917V30.5645C159.754 30.8835 159.872 31.1911 160.036 31.4873C160.205 31.779 160.428 32.0182 160.706 32.2051C160.989 32.3919 161.337 32.4854 161.752 32.4854C162.094 32.4854 162.385 32.417 162.627 32.2803C162.873 32.139 163.071 31.9453 163.222 31.6992C163.377 31.4531 163.491 31.1683 163.563 30.8447C163.636 30.5212 163.673 30.1748 163.673 29.8057ZM167.809 27.6045V33.4219H166.544V26.0254H167.74L167.809 27.6045ZM167.508 29.4434L166.981 29.4229C166.986 28.917 167.061 28.4499 167.207 28.0215C167.353 27.5885 167.558 27.2126 167.822 26.8936C168.087 26.5745 168.401 26.3285 168.766 26.1553C169.135 25.9775 169.543 25.8887 169.989 25.8887C170.354 25.8887 170.682 25.9388 170.974 26.0391C171.265 26.1348 171.514 26.2897 171.719 26.5039C171.928 26.7181 172.088 26.9961 172.197 27.3379C172.307 27.6751 172.361 28.0876 172.361 28.5752V33.4219H171.09V28.5615C171.09 28.1742 171.033 27.8643 170.919 27.6318C170.805 27.3949 170.639 27.224 170.42 27.1191C170.201 27.0098 169.932 26.9551 169.613 26.9551C169.299 26.9551 169.012 27.0212 168.752 27.1533C168.497 27.2855 168.276 27.4678 168.089 27.7002C167.907 27.9326 167.763 28.1992 167.658 28.5C167.558 28.7962 167.508 29.1107 167.508 29.4434ZM178.644 32.1572V28.3496C178.644 28.0579 178.584 27.805 178.466 27.5908C178.352 27.3721 178.179 27.2035 177.946 27.085C177.714 26.9665 177.427 26.9072 177.085 26.9072C176.766 26.9072 176.486 26.9619 176.244 27.0713C176.007 27.1807 175.82 27.3242 175.684 27.502C175.551 27.6797 175.485 27.8711 175.485 28.0762H174.221C174.221 27.8118 174.289 27.5498 174.426 27.29C174.562 27.0303 174.758 26.7956 175.014 26.5859C175.273 26.3717 175.583 26.2031 175.943 26.0801C176.308 25.9525 176.714 25.8887 177.16 25.8887C177.698 25.8887 178.172 25.9798 178.582 26.1621C178.997 26.3444 179.32 26.6201 179.553 26.9893C179.79 27.3538 179.908 27.8118 179.908 28.3633V31.8086C179.908 32.0547 179.929 32.3167 179.97 32.5947C180.015 32.8727 180.081 33.112 180.168 33.3125V33.4219H178.849C178.785 33.276 178.735 33.0824 178.698 32.8408C178.662 32.5947 178.644 32.3669 178.644 32.1572ZM178.862 28.9375L178.876 29.8262H177.598C177.238 29.8262 176.916 29.8558 176.634 29.915C176.351 29.9697 176.114 30.054 175.923 30.168C175.731 30.2819 175.586 30.4255 175.485 30.5986C175.385 30.7673 175.335 30.9655 175.335 31.1934C175.335 31.4258 175.387 31.6377 175.492 31.8291C175.597 32.0205 175.754 32.1732 175.964 32.2871C176.178 32.3965 176.44 32.4512 176.75 32.4512C177.137 32.4512 177.479 32.3691 177.775 32.2051C178.072 32.041 178.306 31.8405 178.479 31.6035C178.657 31.3665 178.753 31.1364 178.767 30.9131L179.307 31.5215C179.275 31.7129 179.188 31.9248 179.047 32.1572C178.906 32.3896 178.716 32.613 178.479 32.8271C178.247 33.0368 177.969 33.2122 177.646 33.3535C177.326 33.4902 176.966 33.5586 176.565 33.5586C176.064 33.5586 175.624 33.4606 175.246 33.2646C174.872 33.0687 174.581 32.8066 174.371 32.4785C174.166 32.1458 174.063 31.7744 174.063 31.3643C174.063 30.9678 174.141 30.6191 174.296 30.3184C174.451 30.013 174.674 29.7601 174.966 29.5596C175.257 29.3545 175.608 29.1995 176.019 29.0947C176.429 28.9899 176.887 28.9375 177.393 28.9375H178.862ZM183.271 26.0254V33.4219H182V26.0254H183.271ZM181.904 24.0635C181.904 23.8584 181.966 23.6852 182.089 23.5439C182.216 23.4027 182.403 23.332 182.649 23.332C182.891 23.332 183.076 23.4027 183.203 23.5439C183.335 23.6852 183.401 23.8584 183.401 24.0635C183.401 24.2594 183.335 24.4281 183.203 24.5693C183.076 24.7061 182.891 24.7744 182.649 24.7744C182.403 24.7744 182.216 24.7061 182.089 24.5693C181.966 24.4281 181.904 24.2594 181.904 24.0635ZM186.676 22.9219V33.4219H185.404V22.9219H186.676ZM188.727 32.752C188.727 32.5378 188.793 32.3577 188.925 32.2119C189.062 32.0615 189.257 31.9863 189.513 31.9863C189.768 31.9863 189.962 32.0615 190.094 32.2119C190.23 32.3577 190.299 32.5378 190.299 32.752C190.299 32.9616 190.23 33.1393 190.094 33.2852C189.962 33.431 189.768 33.5039 189.513 33.5039C189.257 33.5039 189.062 33.431 188.925 33.2852C188.793 33.1393 188.727 32.9616 188.727 32.752Z" fill="#262626"/>
<path d="M194.914 31.7998C194.914 31.6009 194.975 31.4338 195.098 31.2983C195.225 31.1587 195.407 31.0889 195.644 31.0889C195.881 31.0889 196.061 31.1587 196.184 31.2983C196.311 31.4338 196.374 31.6009 196.374 31.7998C196.374 31.9945 196.311 32.1595 196.184 32.2949C196.061 32.4303 195.881 32.498 195.644 32.498C195.407 32.498 195.225 32.4303 195.098 32.2949C194.975 32.1595 194.914 31.9945 194.914 31.7998ZM198.342 31.7998C198.342 31.6009 198.403 31.4338 198.526 31.2983C198.653 31.1587 198.835 31.0889 199.072 31.0889C199.309 31.0889 199.489 31.1587 199.611 31.2983C199.738 31.4338 199.802 31.6009 199.802 31.7998C199.802 31.9945 199.738 32.1595 199.611 32.2949C199.489 32.4303 199.309 32.498 199.072 32.498C198.835 32.498 198.653 32.4303 198.526 32.2949C198.403 32.1595 198.342 31.9945 198.342 31.7998ZM201.77 31.7998C201.77 31.6009 201.831 31.4338 201.954 31.2983C202.081 31.1587 202.263 31.0889 202.5 31.0889C202.736 31.0889 202.916 31.1587 203.039 31.2983C203.166 31.4338 203.229 31.6009 203.229 31.7998C203.229 31.9945 203.166 32.1595 203.039 32.2949C202.916 32.4303 202.736 32.498 202.5 32.498C202.263 32.498 202.081 32.4303 201.954 32.2949C201.831 32.1595 201.77 31.9945 201.77 31.7998Z" fill="#262626"/>
<path d="M209.571 26.9185V32.4219H208.39V25.5537H209.507L209.571 26.9185ZM209.33 28.7275L208.784 28.7085C208.788 28.2388 208.849 27.805 208.968 27.4072C209.086 27.0052 209.262 26.6561 209.495 26.3599C209.727 26.0636 210.017 25.8351 210.364 25.6743C210.711 25.5093 211.113 25.4268 211.57 25.4268C211.892 25.4268 212.188 25.4733 212.459 25.5664C212.73 25.6553 212.965 25.797 213.164 25.9917C213.362 26.1864 213.517 26.436 213.627 26.7407C213.737 27.0454 213.792 27.4136 213.792 27.8452V32.4219H212.618V27.9023C212.618 27.5426 212.556 27.2549 212.434 27.0391C212.315 26.8232 212.146 26.6667 211.926 26.5693C211.706 26.4678 211.448 26.417 211.151 26.417C210.804 26.417 210.514 26.4784 210.282 26.6011C210.049 26.7238 209.863 26.8931 209.723 27.1089C209.583 27.3247 209.482 27.5723 209.418 27.8516C209.359 28.1266 209.33 28.4186 209.33 28.7275ZM213.779 28.0801L212.992 28.3213C212.996 27.9447 213.058 27.5828 213.176 27.2358C213.299 26.8888 213.475 26.5799 213.703 26.3091C213.936 26.0382 214.222 25.8245 214.56 25.668C214.899 25.5072 215.286 25.4268 215.722 25.4268C216.09 25.4268 216.416 25.4754 216.699 25.5728C216.987 25.6701 217.228 25.8203 217.423 26.0234C217.622 26.2223 217.772 26.4784 217.874 26.7915C217.975 27.1047 218.026 27.4771 218.026 27.9087V32.4219H216.845V27.896C216.845 27.5109 216.784 27.2126 216.661 27.001C216.543 26.7852 216.373 26.6349 216.153 26.5503C215.938 26.4614 215.679 26.417 215.379 26.417C215.121 26.417 214.892 26.4614 214.693 26.5503C214.494 26.6392 214.327 26.7619 214.192 26.9185C214.056 27.0708 213.953 27.2464 213.881 27.4453C213.813 27.6442 213.779 27.8558 213.779 28.0801ZM219.492 29.064V28.918C219.492 28.4229 219.564 27.9637 219.708 27.5405C219.852 27.1131 220.059 26.7428 220.33 26.4297C220.601 26.1123 220.929 25.8669 221.314 25.6934C221.699 25.5156 222.131 25.4268 222.609 25.4268C223.091 25.4268 223.525 25.5156 223.91 25.6934C224.299 25.8669 224.63 26.1123 224.9 26.4297C225.175 26.7428 225.385 27.1131 225.529 27.5405C225.673 27.9637 225.745 28.4229 225.745 28.918V29.064C225.745 29.5591 225.673 30.0182 225.529 30.4414C225.385 30.8646 225.175 31.2349 224.9 31.5522C224.63 31.8654 224.302 32.1108 223.917 32.2886C223.536 32.4621 223.104 32.5488 222.622 32.5488C222.139 32.5488 221.705 32.4621 221.32 32.2886C220.935 32.1108 220.605 31.8654 220.33 31.5522C220.059 31.2349 219.852 30.8646 219.708 30.4414C219.564 30.0182 219.492 29.5591 219.492 29.064ZM220.667 28.918V29.064C220.667 29.4067 220.707 29.7305 220.787 30.0352C220.868 30.3356 220.988 30.6022 221.149 30.835C221.314 31.0677 221.519 31.2518 221.765 31.3872C222.01 31.5184 222.296 31.584 222.622 31.584C222.943 31.584 223.225 31.5184 223.466 31.3872C223.711 31.2518 223.914 31.0677 224.075 30.835C224.236 30.6022 224.357 30.3356 224.437 30.0352C224.522 29.7305 224.564 29.4067 224.564 29.064V28.918C224.564 28.5794 224.522 28.2599 224.437 27.9595C224.357 27.6548 224.234 27.3861 224.069 27.1533C223.908 26.9163 223.705 26.7301 223.459 26.5947C223.218 26.4593 222.935 26.3916 222.609 26.3916C222.287 26.3916 222.004 26.4593 221.758 26.5947C221.517 26.7301 221.314 26.9163 221.149 27.1533C220.988 27.3861 220.868 27.6548 220.787 27.9595C220.707 28.2599 220.667 28.5794 220.667 28.918ZM228.392 26.6328V32.4219H227.217V25.5537H228.36L228.392 26.6328ZM230.537 25.5156L230.531 26.6074C230.433 26.5863 230.34 26.5736 230.251 26.5693C230.167 26.5609 230.069 26.5566 229.959 26.5566C229.689 26.5566 229.45 26.599 229.242 26.6836C229.035 26.7682 228.859 26.8867 228.715 27.0391C228.571 27.1914 228.457 27.3734 228.373 27.585C228.292 27.7923 228.239 28.0208 228.214 28.2705L227.884 28.4609C227.884 28.0462 227.924 27.6569 228.004 27.293C228.089 26.929 228.218 26.6074 228.392 26.3281C228.565 26.0446 228.785 25.8245 229.052 25.668C229.323 25.5072 229.644 25.4268 230.017 25.4268C230.101 25.4268 230.199 25.4373 230.309 25.4585C230.419 25.4754 230.495 25.4945 230.537 25.5156ZM234.346 32.5488C233.868 32.5488 233.434 32.4684 233.044 32.3076C232.659 32.1426 232.327 31.9119 232.048 31.6157C231.773 31.3195 231.561 30.9683 231.413 30.562C231.265 30.1558 231.191 29.7114 231.191 29.229V28.9624C231.191 28.4038 231.273 27.9066 231.438 27.4707C231.604 27.0306 231.828 26.6582 232.111 26.3535C232.395 26.0488 232.716 25.8182 233.076 25.6616C233.436 25.505 233.808 25.4268 234.193 25.4268C234.684 25.4268 235.107 25.5114 235.463 25.6807C235.823 25.8499 236.117 26.0869 236.345 26.3916C236.574 26.6921 236.743 27.0475 236.853 27.458C236.963 27.8643 237.018 28.3086 237.018 28.791V29.3179H231.889V28.3594H235.844V28.2705C235.827 27.9658 235.763 27.6696 235.653 27.3818C235.548 27.0941 235.378 26.8571 235.146 26.6709C234.913 26.4847 234.595 26.3916 234.193 26.3916C233.927 26.3916 233.681 26.4487 233.457 26.563C233.233 26.673 233.04 26.8381 232.879 27.0581C232.719 27.2782 232.594 27.5469 232.505 27.8643C232.416 28.1816 232.372 28.5477 232.372 28.9624V29.229C232.372 29.5549 232.416 29.8617 232.505 30.1494C232.598 30.4329 232.731 30.6826 232.905 30.8984C233.083 31.1143 233.296 31.2835 233.546 31.4062C233.8 31.529 234.088 31.5903 234.409 31.5903C234.824 31.5903 235.175 31.5057 235.463 31.3364C235.751 31.1672 236.002 30.9408 236.218 30.6572L236.929 31.2222C236.781 31.4465 236.593 31.6602 236.364 31.8633C236.136 32.0664 235.854 32.2314 235.52 32.3584C235.19 32.4854 234.799 32.5488 234.346 32.5488Z" fill="#8E8E8E"/>
</svg>
