<svg width="467" height="38" viewBox="0 0 467 38" fill="none" xmlns="http://www.w3.org/2000/svg">
<path d="M66.7891 5.46875V15.4219H65.4697V5.46875H66.7891ZM70.8838 15.4219H69.6191V7.24609C69.6191 6.71289 69.7148 6.264 69.9062 5.89941C70.1022 5.53027 70.3825 5.25228 70.7471 5.06543C71.1117 4.87402 71.5446 4.77832 72.0459 4.77832C72.1917 4.77832 72.3376 4.78743 72.4834 4.80566C72.6338 4.82389 72.7796 4.85124 72.9209 4.8877L72.8525 5.91992C72.7568 5.89714 72.6475 5.88118 72.5244 5.87207C72.4059 5.86296 72.2874 5.8584 72.1689 5.8584C71.9001 5.8584 71.6676 5.91309 71.4717 6.02246C71.2803 6.12728 71.1344 6.28223 71.0342 6.4873C70.9339 6.69238 70.8838 6.94531 70.8838 7.24609V15.4219ZM72.4561 8.02539V8.99609H68.4502V8.02539H72.4561ZM79.415 14.6562L81.4727 8.02539H82.8262L79.8594 16.5635C79.791 16.7458 79.6999 16.9417 79.5859 17.1514C79.4766 17.3656 79.3353 17.5684 79.1621 17.7598C78.9889 17.9512 78.7793 18.1061 78.5332 18.2246C78.2917 18.3477 78.0023 18.4092 77.665 18.4092C77.5648 18.4092 77.4372 18.3955 77.2822 18.3682C77.1273 18.3408 77.0179 18.318 76.9541 18.2998L76.9473 17.2744C76.9837 17.279 77.0407 17.2835 77.1182 17.2881C77.2002 17.2972 77.2572 17.3018 77.2891 17.3018C77.5762 17.3018 77.82 17.263 78.0205 17.1855C78.221 17.1126 78.3896 16.9873 78.5264 16.8096C78.6676 16.6364 78.7884 16.3971 78.8887 16.0918L79.415 14.6562ZM77.9043 8.02539L79.8252 13.7676L80.1533 15.1006L79.2441 15.5654L76.5234 8.02539H77.9043ZM83.5234 11.8057V11.6484C83.5234 11.1152 83.6009 10.6208 83.7559 10.165C83.9108 9.70475 84.1341 9.30599 84.4258 8.96875C84.7174 8.62695 85.0706 8.36263 85.4854 8.17578C85.9001 7.98438 86.3649 7.88867 86.8799 7.88867C87.3994 7.88867 87.8665 7.98438 88.2812 8.17578C88.7005 8.36263 89.056 8.62695 89.3477 8.96875C89.6439 9.30599 89.8695 9.70475 90.0244 10.165C90.1794 10.6208 90.2568 11.1152 90.2568 11.6484V11.8057C90.2568 12.3389 90.1794 12.8333 90.0244 13.2891C89.8695 13.7448 89.6439 14.1436 89.3477 14.4854C89.056 14.8226 88.7028 15.0869 88.2881 15.2783C87.8779 15.4652 87.4131 15.5586 86.8936 15.5586C86.374 15.5586 85.9069 15.4652 85.4922 15.2783C85.0775 15.0869 84.722 14.8226 84.4258 14.4854C84.1341 14.1436 83.9108 13.7448 83.7559 13.2891C83.6009 12.8333 83.5234 12.3389 83.5234 11.8057ZM84.7881 11.6484V11.8057C84.7881 12.1748 84.8314 12.5234 84.918 12.8516C85.0046 13.1751 85.1344 13.4622 85.3076 13.7129C85.4854 13.9635 85.7064 14.1618 85.9707 14.3076C86.235 14.4489 86.5426 14.5195 86.8936 14.5195C87.2399 14.5195 87.543 14.4489 87.8027 14.3076C88.0671 14.1618 88.2858 13.9635 88.459 13.7129C88.6322 13.4622 88.762 13.1751 88.8486 12.8516C88.9398 12.5234 88.9854 12.1748 88.9854 11.8057V11.6484C88.9854 11.2839 88.9398 10.9398 88.8486 10.6162C88.762 10.2881 88.6299 9.9987 88.4521 9.74805C88.279 9.49284 88.0602 9.29232 87.7959 9.14648C87.5361 9.00065 87.2308 8.92773 86.8799 8.92773C86.5335 8.92773 86.2282 9.00065 85.9639 9.14648C85.7041 9.29232 85.4854 9.49284 85.3076 9.74805C85.1344 9.9987 85.0046 10.2881 84.918 10.6162C84.8314 10.9398 84.7881 11.2839 84.7881 11.6484ZM96.3682 13.7129V8.02539H97.6396V15.4219H96.4297L96.3682 13.7129ZM96.6074 12.1543L97.1338 12.1406C97.1338 12.6328 97.0814 13.0885 96.9766 13.5078C96.8763 13.9225 96.7122 14.2826 96.4844 14.5879C96.2565 14.8932 95.958 15.1325 95.5889 15.3057C95.2197 15.4743 94.7708 15.5586 94.2422 15.5586C93.8822 15.5586 93.5518 15.5062 93.251 15.4014C92.9548 15.2965 92.6995 15.1348 92.4854 14.916C92.2712 14.6973 92.1048 14.4124 91.9863 14.0615C91.8724 13.7106 91.8154 13.2891 91.8154 12.7969V8.02539H93.0801V12.8105C93.0801 13.1432 93.1165 13.4189 93.1895 13.6377C93.2669 13.8519 93.3695 14.0228 93.4971 14.1504C93.6292 14.2734 93.7751 14.36 93.9346 14.4102C94.0986 14.4603 94.2673 14.4854 94.4404 14.4854C94.9782 14.4854 95.4043 14.3828 95.7188 14.1777C96.0332 13.9681 96.2588 13.6878 96.3955 13.3369C96.5368 12.9814 96.6074 12.5872 96.6074 12.1543ZM104.305 4.92188V15.4219H103.04V4.92188H104.305ZM104.004 11.4434L103.478 11.4229C103.482 10.917 103.557 10.4499 103.703 10.0215C103.849 9.58854 104.054 9.21257 104.318 8.89355C104.583 8.57454 104.897 8.32845 105.262 8.15527C105.631 7.97754 106.039 7.88867 106.485 7.88867C106.85 7.88867 107.178 7.9388 107.47 8.03906C107.761 8.13477 108.01 8.28971 108.215 8.50391C108.424 8.7181 108.584 8.99609 108.693 9.33789C108.803 9.67513 108.857 10.0876 108.857 10.5752V15.4219H107.586V10.5615C107.586 10.1742 107.529 9.86426 107.415 9.63184C107.301 9.39486 107.135 9.22396 106.916 9.11914C106.697 9.00977 106.428 8.95508 106.109 8.95508C105.795 8.95508 105.508 9.02116 105.248 9.15332C104.993 9.28548 104.772 9.46777 104.585 9.7002C104.403 9.93262 104.259 10.1992 104.154 10.5C104.054 10.7962 104.004 11.1107 104.004 11.4434ZM115.112 14.1572V10.3496C115.112 10.0579 115.053 9.80501 114.935 9.59082C114.821 9.37207 114.647 9.20345 114.415 9.08496C114.183 8.96647 113.896 8.90723 113.554 8.90723C113.235 8.90723 112.954 8.96191 112.713 9.07129C112.476 9.18066 112.289 9.32422 112.152 9.50195C112.02 9.67969 111.954 9.87109 111.954 10.0762H110.689C110.689 9.81185 110.758 9.5498 110.895 9.29004C111.031 9.03027 111.227 8.79557 111.482 8.58594C111.742 8.37174 112.052 8.20312 112.412 8.08008C112.777 7.95247 113.182 7.88867 113.629 7.88867C114.167 7.88867 114.641 7.97982 115.051 8.16211C115.465 8.3444 115.789 8.62012 116.021 8.98926C116.258 9.35384 116.377 9.81185 116.377 10.3633V13.8086C116.377 14.0547 116.397 14.3167 116.438 14.5947C116.484 14.8727 116.55 15.112 116.637 15.3125V15.4219H115.317C115.254 15.276 115.203 15.0824 115.167 14.8408C115.131 14.5947 115.112 14.3669 115.112 14.1572ZM115.331 10.9375L115.345 11.8262H114.066C113.706 11.8262 113.385 11.8558 113.103 11.915C112.82 11.9697 112.583 12.054 112.392 12.168C112.2 12.2819 112.054 12.4255 111.954 12.5986C111.854 12.7673 111.804 12.9655 111.804 13.1934C111.804 13.4258 111.856 13.6377 111.961 13.8291C112.066 14.0205 112.223 14.1732 112.433 14.2871C112.647 14.3965 112.909 14.4512 113.219 14.4512C113.606 14.4512 113.948 14.3691 114.244 14.2051C114.54 14.041 114.775 13.8405 114.948 13.6035C115.126 13.3665 115.222 13.1364 115.235 12.9131L115.775 13.5215C115.743 13.7129 115.657 13.9248 115.516 14.1572C115.374 14.3896 115.185 14.613 114.948 14.8271C114.716 15.0368 114.438 15.2122 114.114 15.3535C113.795 15.4902 113.435 15.5586 113.034 15.5586C112.533 15.5586 112.093 15.4606 111.715 15.2646C111.341 15.0687 111.049 14.8066 110.84 14.4785C110.635 14.1458 110.532 13.7744 110.532 13.3643C110.532 12.9678 110.61 12.6191 110.765 12.3184C110.92 12.013 111.143 11.7601 111.435 11.5596C111.726 11.3545 112.077 11.1995 112.487 11.0947C112.897 10.9899 113.355 10.9375 113.861 10.9375H115.331ZM123.028 13.9863V4.92188H124.3V15.4219H123.138L123.028 13.9863ZM118.052 11.8057V11.6621C118.052 11.097 118.12 10.5843 118.257 10.124C118.398 9.65918 118.596 9.26042 118.852 8.92773C119.111 8.59505 119.419 8.33984 119.774 8.16211C120.134 7.97982 120.535 7.88867 120.978 7.88867C121.442 7.88867 121.848 7.9707 122.194 8.13477C122.545 8.29427 122.841 8.52897 123.083 8.83887C123.329 9.14421 123.523 9.51335 123.664 9.94629C123.805 10.3792 123.903 10.8691 123.958 11.416V12.0449C123.908 12.5872 123.81 13.0749 123.664 13.5078C123.523 13.9408 123.329 14.3099 123.083 14.6152C122.841 14.9206 122.545 15.1553 122.194 15.3193C121.843 15.4788 121.433 15.5586 120.964 15.5586C120.531 15.5586 120.134 15.4652 119.774 15.2783C119.419 15.0915 119.111 14.8294 118.852 14.4922C118.596 14.1549 118.398 13.7585 118.257 13.3027C118.12 12.8424 118.052 12.3434 118.052 11.8057ZM119.323 11.6621V11.8057C119.323 12.1748 119.36 12.5212 119.433 12.8447C119.51 13.1683 119.629 13.4531 119.788 13.6992C119.948 13.9453 120.15 14.139 120.396 14.2803C120.643 14.417 120.937 14.4854 121.278 14.4854C121.698 14.4854 122.042 14.3965 122.311 14.2188C122.584 14.041 122.803 13.8063 122.967 13.5146C123.131 13.223 123.258 12.9062 123.35 12.5645V10.917C123.295 10.6663 123.215 10.4248 123.11 10.1924C123.01 9.9554 122.878 9.74577 122.714 9.56348C122.554 9.37663 122.356 9.22852 122.119 9.11914C121.887 9.00977 121.611 8.95508 121.292 8.95508C120.946 8.95508 120.647 9.02799 120.396 9.17383C120.15 9.3151 119.948 9.51107 119.788 9.76172C119.629 10.0078 119.51 10.2949 119.433 10.623C119.36 10.9466 119.323 11.293 119.323 11.6621ZM132.838 8.02539V8.99609H128.839V8.02539H132.838ZM130.192 6.22754H131.457V13.5898C131.457 13.8405 131.496 14.0296 131.573 14.1572C131.651 14.2848 131.751 14.3691 131.874 14.4102C131.997 14.4512 132.129 14.4717 132.271 14.4717C132.375 14.4717 132.485 14.4626 132.599 14.4443C132.717 14.4215 132.806 14.4033 132.865 14.3896L132.872 15.4219C132.772 15.4538 132.64 15.4834 132.476 15.5107C132.316 15.5426 132.122 15.5586 131.895 15.5586C131.585 15.5586 131.3 15.4971 131.04 15.374C130.78 15.251 130.573 15.0459 130.418 14.7588C130.268 14.4671 130.192 14.0752 130.192 13.583V6.22754ZM133.85 11.8057V11.6484C133.85 11.1152 133.927 10.6208 134.082 10.165C134.237 9.70475 134.46 9.30599 134.752 8.96875C135.044 8.62695 135.397 8.36263 135.812 8.17578C136.226 7.98438 136.691 7.88867 137.206 7.88867C137.726 7.88867 138.193 7.98438 138.607 8.17578C139.027 8.36263 139.382 8.62695 139.674 8.96875C139.97 9.30599 140.196 9.70475 140.351 10.165C140.506 10.6208 140.583 11.1152 140.583 11.6484V11.8057C140.583 12.3389 140.506 12.8333 140.351 13.2891C140.196 13.7448 139.97 14.1436 139.674 14.4854C139.382 14.8226 139.029 15.0869 138.614 15.2783C138.204 15.4652 137.739 15.5586 137.22 15.5586C136.7 15.5586 136.233 15.4652 135.818 15.2783C135.404 15.0869 135.048 14.8226 134.752 14.4854C134.46 14.1436 134.237 13.7448 134.082 13.2891C133.927 12.8333 133.85 12.3389 133.85 11.8057ZM135.114 11.6484V11.8057C135.114 12.1748 135.158 12.5234 135.244 12.8516C135.331 13.1751 135.461 13.4622 135.634 13.7129C135.812 13.9635 136.033 14.1618 136.297 14.3076C136.561 14.4489 136.869 14.5195 137.22 14.5195C137.566 14.5195 137.869 14.4489 138.129 14.3076C138.393 14.1618 138.612 13.9635 138.785 13.7129C138.958 13.4622 139.088 13.1751 139.175 12.8516C139.266 12.5234 139.312 12.1748 139.312 11.8057V11.6484C139.312 11.2839 139.266 10.9398 139.175 10.6162C139.088 10.2881 138.956 9.9987 138.778 9.74805C138.605 9.49284 138.386 9.29232 138.122 9.14648C137.862 9.00065 137.557 8.92773 137.206 8.92773C136.86 8.92773 136.554 9.00065 136.29 9.14648C136.03 9.29232 135.812 9.49284 135.634 9.74805C135.461 9.9987 135.331 10.2881 135.244 10.6162C135.158 10.9398 135.114 11.2839 135.114 11.6484ZM148.602 14.5195C148.902 14.5195 149.18 14.458 149.436 14.335C149.691 14.2119 149.9 14.0433 150.064 13.8291C150.229 13.6104 150.322 13.362 150.345 13.084H151.548C151.525 13.5215 151.377 13.9294 151.104 14.3076C150.835 14.6813 150.481 14.9844 150.044 15.2168C149.606 15.4447 149.126 15.5586 148.602 15.5586C148.046 15.5586 147.56 15.4606 147.146 15.2646C146.735 15.0687 146.394 14.7998 146.12 14.458C145.851 14.1162 145.648 13.7243 145.512 13.2822C145.38 12.8356 145.313 12.3639 145.313 11.8672V11.5801C145.313 11.0833 145.38 10.6139 145.512 10.1719C145.648 9.72526 145.851 9.33105 146.12 8.98926C146.394 8.64746 146.735 8.37858 147.146 8.18262C147.56 7.98665 148.046 7.88867 148.602 7.88867C149.18 7.88867 149.686 8.00716 150.119 8.24414C150.552 8.47656 150.892 8.79557 151.138 9.20117C151.388 9.60221 151.525 10.0579 151.548 10.5684H150.345C150.322 10.263 150.235 9.9873 150.085 9.74121C149.939 9.49512 149.739 9.29915 149.483 9.15332C149.233 9.00293 148.939 8.92773 148.602 8.92773C148.214 8.92773 147.888 9.00521 147.624 9.16016C147.364 9.31055 147.157 9.51562 147.002 9.77539C146.852 10.0306 146.742 10.3154 146.674 10.6299C146.61 10.9398 146.578 11.2565 146.578 11.5801V11.8672C146.578 12.1908 146.61 12.5098 146.674 12.8242C146.738 13.1387 146.845 13.4235 146.995 13.6787C147.15 13.9339 147.357 14.139 147.617 14.2939C147.882 14.4443 148.21 14.5195 148.602 14.5195ZM154.234 4.92188V15.4219H152.97V4.92188H154.234ZM153.934 11.4434L153.407 11.4229C153.412 10.917 153.487 10.4499 153.633 10.0215C153.779 9.58854 153.984 9.21257 154.248 8.89355C154.512 8.57454 154.827 8.32845 155.191 8.15527C155.561 7.97754 155.968 7.88867 156.415 7.88867C156.78 7.88867 157.108 7.9388 157.399 8.03906C157.691 8.13477 157.939 8.28971 158.145 8.50391C158.354 8.7181 158.514 8.99609 158.623 9.33789C158.732 9.67513 158.787 10.0876 158.787 10.5752V15.4219H157.516V10.5615C157.516 10.1742 157.459 9.86426 157.345 9.63184C157.231 9.39486 157.064 9.22396 156.846 9.11914C156.627 9.00977 156.358 8.95508 156.039 8.95508C155.725 8.95508 155.438 9.02116 155.178 9.15332C154.923 9.28548 154.701 9.46777 154.515 9.7002C154.332 9.93262 154.189 10.1992 154.084 10.5C153.984 10.7962 153.934 11.1107 153.934 11.4434ZM160.346 11.8057V11.6484C160.346 11.1152 160.423 10.6208 160.578 10.165C160.733 9.70475 160.956 9.30599 161.248 8.96875C161.54 8.62695 161.893 8.36263 162.308 8.17578C162.722 7.98438 163.187 7.88867 163.702 7.88867C164.222 7.88867 164.689 7.98438 165.104 8.17578C165.523 8.36263 165.878 8.62695 166.17 8.96875C166.466 9.30599 166.692 9.70475 166.847 10.165C167.002 10.6208 167.079 11.1152 167.079 11.6484V11.8057C167.079 12.3389 167.002 12.8333 166.847 13.2891C166.692 13.7448 166.466 14.1436 166.17 14.4854C165.878 14.8226 165.525 15.0869 165.11 15.2783C164.7 15.4652 164.235 15.5586 163.716 15.5586C163.196 15.5586 162.729 15.4652 162.314 15.2783C161.9 15.0869 161.544 14.8226 161.248 14.4854C160.956 14.1436 160.733 13.7448 160.578 13.2891C160.423 12.8333 160.346 12.3389 160.346 11.8057ZM161.61 11.6484V11.8057C161.61 12.1748 161.654 12.5234 161.74 12.8516C161.827 13.1751 161.957 13.4622 162.13 13.7129C162.308 13.9635 162.529 14.1618 162.793 14.3076C163.057 14.4489 163.365 14.5195 163.716 14.5195C164.062 14.5195 164.365 14.4489 164.625 14.3076C164.889 14.1618 165.108 13.9635 165.281 13.7129C165.454 13.4622 165.584 13.1751 165.671 12.8516C165.762 12.5234 165.808 12.1748 165.808 11.8057V11.6484C165.808 11.2839 165.762 10.9398 165.671 10.6162C165.584 10.2881 165.452 9.9987 165.274 9.74805C165.101 9.49284 164.882 9.29232 164.618 9.14648C164.358 9.00065 164.053 8.92773 163.702 8.92773C163.356 8.92773 163.05 9.00065 162.786 9.14648C162.526 9.29232 162.308 9.49284 162.13 9.74805C161.957 9.9987 161.827 10.2881 161.74 10.6162C161.654 10.9398 161.61 11.2839 161.61 11.6484ZM168.33 11.8057V11.6484C168.33 11.1152 168.408 10.6208 168.562 10.165C168.717 9.70475 168.941 9.30599 169.232 8.96875C169.524 8.62695 169.877 8.36263 170.292 8.17578C170.707 7.98438 171.172 7.88867 171.687 7.88867C172.206 7.88867 172.673 7.98438 173.088 8.17578C173.507 8.36263 173.863 8.62695 174.154 8.96875C174.451 9.30599 174.676 9.70475 174.831 10.165C174.986 10.6208 175.063 11.1152 175.063 11.6484V11.8057C175.063 12.3389 174.986 12.8333 174.831 13.2891C174.676 13.7448 174.451 14.1436 174.154 14.4854C173.863 14.8226 173.509 15.0869 173.095 15.2783C172.685 15.4652 172.22 15.5586 171.7 15.5586C171.181 15.5586 170.714 15.4652 170.299 15.2783C169.884 15.0869 169.529 14.8226 169.232 14.4854C168.941 14.1436 168.717 13.7448 168.562 13.2891C168.408 12.8333 168.33 12.3389 168.33 11.8057ZM169.595 11.6484V11.8057C169.595 12.1748 169.638 12.5234 169.725 12.8516C169.811 13.1751 169.941 13.4622 170.114 13.7129C170.292 13.9635 170.513 14.1618 170.777 14.3076C171.042 14.4489 171.349 14.5195 171.7 14.5195C172.047 14.5195 172.35 14.4489 172.609 14.3076C172.874 14.1618 173.092 13.9635 173.266 13.7129C173.439 13.4622 173.569 13.1751 173.655 12.8516C173.746 12.5234 173.792 12.1748 173.792 11.8057V11.6484C173.792 11.2839 173.746 10.9398 173.655 10.6162C173.569 10.2881 173.437 9.9987 173.259 9.74805C173.086 9.49284 172.867 9.29232 172.603 9.14648C172.343 9.00065 172.037 8.92773 171.687 8.92773C171.34 8.92773 171.035 9.00065 170.771 9.14648C170.511 9.29232 170.292 9.49284 170.114 9.74805C169.941 9.9987 169.811 10.2881 169.725 10.6162C169.638 10.9398 169.595 11.2839 169.595 11.6484ZM180.956 13.46C180.956 13.2777 180.915 13.109 180.833 12.9541C180.756 12.7946 180.594 12.651 180.348 12.5234C180.106 12.3913 179.742 12.2773 179.254 12.1816C178.844 12.0951 178.472 11.9925 178.14 11.874C177.812 11.7555 177.531 11.612 177.299 11.4434C177.071 11.2747 176.896 11.0765 176.772 10.8486C176.649 10.6208 176.588 10.3542 176.588 10.0488C176.588 9.75716 176.652 9.48145 176.779 9.22168C176.911 8.96191 177.096 8.73177 177.333 8.53125C177.575 8.33073 177.864 8.1735 178.201 8.05957C178.538 7.94564 178.914 7.88867 179.329 7.88867C179.922 7.88867 180.427 7.99349 180.847 8.20312C181.266 8.41276 181.587 8.69303 181.811 9.04395C182.034 9.3903 182.146 9.77539 182.146 10.1992H180.881C180.881 9.99414 180.819 9.7959 180.696 9.60449C180.578 9.40853 180.402 9.24674 180.17 9.11914C179.942 8.99154 179.662 8.92773 179.329 8.92773C178.978 8.92773 178.693 8.98242 178.475 9.0918C178.26 9.19661 178.103 9.33105 178.003 9.49512C177.907 9.65918 177.859 9.83236 177.859 10.0146C177.859 10.1514 177.882 10.2744 177.928 10.3838C177.978 10.4886 178.064 10.5866 178.188 10.6777C178.311 10.7643 178.484 10.8464 178.707 10.9238C178.93 11.0013 179.215 11.0788 179.562 11.1562C180.168 11.293 180.667 11.457 181.059 11.6484C181.451 11.8398 181.742 12.0745 181.934 12.3525C182.125 12.6305 182.221 12.9678 182.221 13.3643C182.221 13.6878 182.152 13.984 182.016 14.2529C181.883 14.5218 181.69 14.7542 181.435 14.9502C181.184 15.1416 180.883 15.292 180.532 15.4014C180.186 15.5062 179.796 15.5586 179.363 15.5586C178.712 15.5586 178.16 15.4424 177.709 15.21C177.258 14.9775 176.916 14.6768 176.684 14.3076C176.451 13.9385 176.335 13.5488 176.335 13.1387H177.606C177.625 13.485 177.725 13.7607 177.907 13.9658C178.09 14.1663 178.313 14.3099 178.577 14.3965C178.841 14.4785 179.104 14.5195 179.363 14.5195C179.71 14.5195 179.999 14.474 180.231 14.3828C180.468 14.2917 180.648 14.1663 180.771 14.0068C180.895 13.8473 180.956 13.665 180.956 13.46ZM186.951 15.5586C186.436 15.5586 185.969 15.472 185.55 15.2988C185.135 15.1211 184.777 14.8727 184.477 14.5537C184.18 14.2347 183.952 13.8564 183.793 13.4189C183.633 12.9814 183.554 12.5029 183.554 11.9834V11.6963C183.554 11.0947 183.643 10.5592 183.82 10.0898C183.998 9.61589 184.24 9.21484 184.545 8.88672C184.85 8.55859 185.197 8.31022 185.584 8.1416C185.971 7.97298 186.372 7.88867 186.787 7.88867C187.316 7.88867 187.771 7.97982 188.154 8.16211C188.542 8.3444 188.858 8.59961 189.104 8.92773C189.351 9.2513 189.533 9.63411 189.651 10.0762C189.77 10.5137 189.829 10.9922 189.829 11.5117V12.0791H184.306V11.0469H188.564V10.9512C188.546 10.623 188.478 10.304 188.359 9.99414C188.245 9.68424 188.063 9.42904 187.812 9.22852C187.562 9.02799 187.22 8.92773 186.787 8.92773C186.5 8.92773 186.236 8.98926 185.994 9.1123C185.753 9.23079 185.545 9.40853 185.372 9.64551C185.199 9.88249 185.064 10.1719 184.969 10.5137C184.873 10.8555 184.825 11.2497 184.825 11.6963V11.9834C184.825 12.3343 184.873 12.6647 184.969 12.9746C185.069 13.2799 185.213 13.5488 185.399 13.7812C185.591 14.0137 185.821 14.196 186.09 14.3281C186.363 14.4603 186.673 14.5264 187.02 14.5264C187.466 14.5264 187.844 14.4352 188.154 14.2529C188.464 14.0706 188.735 13.8268 188.968 13.5215L189.733 14.1299C189.574 14.3714 189.371 14.6016 189.125 14.8203C188.879 15.0391 188.576 15.2168 188.216 15.3535C187.86 15.4902 187.439 15.5586 186.951 15.5586ZM192.454 13.918V14.9365C192.454 15.3512 192.349 15.7887 192.14 16.249C191.93 16.7139 191.636 17.1012 191.258 17.4111L190.54 16.9121C190.686 16.7116 190.809 16.5065 190.909 16.2969C191.009 16.0918 191.085 15.8776 191.135 15.6543C191.189 15.4355 191.217 15.2031 191.217 14.957V13.918H192.454ZM199.413 14.1094L201.313 8.02539H202.147L201.983 9.23535L200.049 15.4219H199.235L199.413 14.1094ZM198.135 8.02539L199.755 14.1777L199.871 15.4219H199.017L196.87 8.02539H198.135ZM203.966 14.1299L205.511 8.02539H206.769L204.622 15.4219H203.774L203.966 14.1299ZM202.332 8.02539L204.191 14.0068L204.403 15.4219H203.597L201.607 9.22168L201.443 8.02539H202.332ZM209.332 4.92188V15.4219H208.067V4.92188H209.332ZM209.031 11.4434L208.505 11.4229C208.509 10.917 208.585 10.4499 208.73 10.0215C208.876 9.58854 209.081 9.21257 209.346 8.89355C209.61 8.57454 209.924 8.32845 210.289 8.15527C210.658 7.97754 211.066 7.88867 211.513 7.88867C211.877 7.88867 212.205 7.9388 212.497 8.03906C212.789 8.13477 213.037 8.28971 213.242 8.50391C213.452 8.7181 213.611 8.99609 213.721 9.33789C213.83 9.67513 213.885 10.0876 213.885 10.5752V15.4219H212.613V10.5615C212.613 10.1742 212.556 9.86426 212.442 9.63184C212.328 9.39486 212.162 9.22396 211.943 9.11914C211.725 9.00977 211.456 8.95508 211.137 8.95508C210.822 8.95508 210.535 9.02116 210.275 9.15332C210.02 9.28548 209.799 9.46777 209.612 9.7002C209.43 9.93262 209.286 10.1992 209.182 10.5C209.081 10.7962 209.031 11.1107 209.031 11.4434ZM218.848 15.5586C218.333 15.5586 217.866 15.472 217.446 15.2988C217.032 15.1211 216.674 14.8727 216.373 14.5537C216.077 14.2347 215.849 13.8564 215.689 13.4189C215.53 12.9814 215.45 12.5029 215.45 11.9834V11.6963C215.45 11.0947 215.539 10.5592 215.717 10.0898C215.895 9.61589 216.136 9.21484 216.441 8.88672C216.747 8.55859 217.093 8.31022 217.48 8.1416C217.868 7.97298 218.269 7.88867 218.684 7.88867C219.212 7.88867 219.668 7.97982 220.051 8.16211C220.438 8.3444 220.755 8.59961 221.001 8.92773C221.247 9.2513 221.429 9.63411 221.548 10.0762C221.666 10.5137 221.726 10.9922 221.726 11.5117V12.0791H216.202V11.0469H220.461V10.9512C220.443 10.623 220.374 10.304 220.256 9.99414C220.142 9.68424 219.96 9.42904 219.709 9.22852C219.458 9.02799 219.117 8.92773 218.684 8.92773C218.396 8.92773 218.132 8.98926 217.891 9.1123C217.649 9.23079 217.442 9.40853 217.269 9.64551C217.095 9.88249 216.961 10.1719 216.865 10.5137C216.77 10.8555 216.722 11.2497 216.722 11.6963V11.9834C216.722 12.3343 216.77 12.6647 216.865 12.9746C216.965 13.2799 217.109 13.5488 217.296 13.7812C217.487 14.0137 217.717 14.196 217.986 14.3281C218.26 14.4603 218.57 14.5264 218.916 14.5264C219.363 14.5264 219.741 14.4352 220.051 14.2529C220.361 14.0706 220.632 13.8268 220.864 13.5215L221.63 14.1299C221.47 14.3714 221.268 14.6016 221.021 14.8203C220.775 15.0391 220.472 15.2168 220.112 15.3535C219.757 15.4902 219.335 15.5586 218.848 15.5586ZM224.467 9.1875V15.4219H223.202V8.02539H224.433L224.467 9.1875ZM226.777 7.98438L226.771 9.16016C226.666 9.13737 226.565 9.1237 226.47 9.11914C226.379 9.11003 226.274 9.10547 226.155 9.10547C225.864 9.10547 225.606 9.15104 225.383 9.24219C225.16 9.33333 224.97 9.46094 224.815 9.625C224.66 9.78906 224.537 9.98503 224.446 10.2129C224.36 10.4362 224.303 10.6823 224.275 10.9512L223.92 11.1562C223.92 10.7096 223.963 10.2904 224.05 9.89844C224.141 9.50651 224.28 9.16016 224.467 8.85938C224.654 8.55404 224.891 8.31706 225.178 8.14844C225.469 7.97526 225.816 7.88867 226.217 7.88867C226.308 7.88867 226.413 7.90007 226.531 7.92285C226.65 7.94108 226.732 7.96159 226.777 7.98438ZM230.879 15.5586C230.364 15.5586 229.897 15.472 229.478 15.2988C229.063 15.1211 228.705 14.8727 228.404 14.5537C228.108 14.2347 227.88 13.8564 227.721 13.4189C227.561 12.9814 227.481 12.5029 227.481 11.9834V11.6963C227.481 11.0947 227.57 10.5592 227.748 10.0898C227.926 9.61589 228.167 9.21484 228.473 8.88672C228.778 8.55859 229.124 8.31022 229.512 8.1416C229.899 7.97298 230.3 7.88867 230.715 7.88867C231.243 7.88867 231.699 7.97982 232.082 8.16211C232.469 8.3444 232.786 8.59961 233.032 8.92773C233.278 9.2513 233.461 9.63411 233.579 10.0762C233.698 10.5137 233.757 10.9922 233.757 11.5117V12.0791H228.233V11.0469H232.492V10.9512C232.474 10.623 232.406 10.304 232.287 9.99414C232.173 9.68424 231.991 9.42904 231.74 9.22852C231.49 9.02799 231.148 8.92773 230.715 8.92773C230.428 8.92773 230.163 8.98926 229.922 9.1123C229.68 9.23079 229.473 9.40853 229.3 9.64551C229.127 9.88249 228.992 10.1719 228.896 10.5137C228.801 10.8555 228.753 11.2497 228.753 11.6963V11.9834C228.753 12.3343 228.801 12.6647 228.896 12.9746C228.997 13.2799 229.14 13.5488 229.327 13.7812C229.519 14.0137 229.749 14.196 230.018 14.3281C230.291 14.4603 230.601 14.5264 230.947 14.5264C231.394 14.5264 231.772 14.4352 232.082 14.2529C232.392 14.0706 232.663 13.8268 232.896 13.5215L233.661 14.1299C233.502 14.3714 233.299 14.6016 233.053 14.8203C232.807 15.0391 232.504 15.2168 232.144 15.3535C231.788 15.4902 231.367 15.5586 230.879 15.5586ZM240.579 14.1094L242.479 8.02539H243.313L243.149 9.23535L241.215 15.4219H240.401L240.579 14.1094ZM239.301 8.02539L240.921 14.1777L241.037 15.4219H240.183L238.036 8.02539H239.301ZM245.132 14.1299L246.677 8.02539H247.935L245.788 15.4219H244.94L245.132 14.1299ZM243.498 8.02539L245.357 14.0068L245.569 15.4219H244.763L242.773 9.22168L242.609 8.02539H243.498ZM248.898 11.8057V11.6484C248.898 11.1152 248.976 10.6208 249.131 10.165C249.286 9.70475 249.509 9.30599 249.801 8.96875C250.092 8.62695 250.446 8.36263 250.86 8.17578C251.275 7.98438 251.74 7.88867 252.255 7.88867C252.774 7.88867 253.242 7.98438 253.656 8.17578C254.076 8.36263 254.431 8.62695 254.723 8.96875C255.019 9.30599 255.244 9.70475 255.399 10.165C255.554 10.6208 255.632 11.1152 255.632 11.6484V11.8057C255.632 12.3389 255.554 12.8333 255.399 13.2891C255.244 13.7448 255.019 14.1436 254.723 14.4854C254.431 14.8226 254.078 15.0869 253.663 15.2783C253.253 15.4652 252.788 15.5586 252.269 15.5586C251.749 15.5586 251.282 15.4652 250.867 15.2783C250.452 15.0869 250.097 14.8226 249.801 14.4854C249.509 14.1436 249.286 13.7448 249.131 13.2891C248.976 12.8333 248.898 12.3389 248.898 11.8057ZM250.163 11.6484V11.8057C250.163 12.1748 250.206 12.5234 250.293 12.8516C250.38 13.1751 250.509 13.4622 250.683 13.7129C250.86 13.9635 251.081 14.1618 251.346 14.3076C251.61 14.4489 251.918 14.5195 252.269 14.5195C252.615 14.5195 252.918 14.4489 253.178 14.3076C253.442 14.1618 253.661 13.9635 253.834 13.7129C254.007 13.4622 254.137 13.1751 254.224 12.8516C254.315 12.5234 254.36 12.1748 254.36 11.8057V11.6484C254.36 11.2839 254.315 10.9398 254.224 10.6162C254.137 10.2881 254.005 9.9987 253.827 9.74805C253.654 9.49284 253.435 9.29232 253.171 9.14648C252.911 9.00065 252.606 8.92773 252.255 8.92773C251.909 8.92773 251.603 9.00065 251.339 9.14648C251.079 9.29232 250.86 9.49284 250.683 9.74805C250.509 9.9987 250.38 10.2881 250.293 10.6162C250.206 10.9398 250.163 11.2839 250.163 11.6484ZM261.743 13.7129V8.02539H263.015V15.4219H261.805L261.743 13.7129ZM261.982 12.1543L262.509 12.1406C262.509 12.6328 262.456 13.0885 262.352 13.5078C262.251 13.9225 262.087 14.2826 261.859 14.5879C261.632 14.8932 261.333 15.1325 260.964 15.3057C260.595 15.4743 260.146 15.5586 259.617 15.5586C259.257 15.5586 258.927 15.5062 258.626 15.4014C258.33 15.2965 258.075 15.1348 257.86 14.916C257.646 14.6973 257.48 14.4124 257.361 14.0615C257.247 13.7106 257.19 13.2891 257.19 12.7969V8.02539H258.455V12.8105C258.455 13.1432 258.492 13.4189 258.564 13.6377C258.642 13.8519 258.744 14.0228 258.872 14.1504C259.004 14.2734 259.15 14.36 259.31 14.4102C259.474 14.4603 259.642 14.4854 259.815 14.4854C260.353 14.4854 260.779 14.3828 261.094 14.1777C261.408 13.9681 261.634 13.6878 261.771 13.3369C261.912 12.9814 261.982 12.5872 261.982 12.1543ZM266.316 4.92188V15.4219H265.045V4.92188H266.316ZM273.009 13.9863V4.92188H274.28V15.4219H273.118L273.009 13.9863ZM268.032 11.8057V11.6621C268.032 11.097 268.101 10.5843 268.237 10.124C268.379 9.65918 268.577 9.26042 268.832 8.92773C269.092 8.59505 269.399 8.33984 269.755 8.16211C270.115 7.97982 270.516 7.88867 270.958 7.88867C271.423 7.88867 271.828 7.9707 272.175 8.13477C272.526 8.29427 272.822 8.52897 273.063 8.83887C273.31 9.14421 273.503 9.51335 273.645 9.94629C273.786 10.3792 273.884 10.8691 273.938 11.416V12.0449C273.888 12.5872 273.79 13.0749 273.645 13.5078C273.503 13.9408 273.31 14.3099 273.063 14.6152C272.822 14.9206 272.526 15.1553 272.175 15.3193C271.824 15.4788 271.414 15.5586 270.944 15.5586C270.511 15.5586 270.115 15.4652 269.755 15.2783C269.399 15.0915 269.092 14.8294 268.832 14.4922C268.577 14.1549 268.379 13.7585 268.237 13.3027C268.101 12.8424 268.032 12.3434 268.032 11.8057ZM269.304 11.6621V11.8057C269.304 12.1748 269.34 12.5212 269.413 12.8447C269.491 13.1683 269.609 13.4531 269.769 13.6992C269.928 13.9453 270.131 14.139 270.377 14.2803C270.623 14.417 270.917 14.4854 271.259 14.4854C271.678 14.4854 272.022 14.3965 272.291 14.2188C272.564 14.041 272.783 13.8063 272.947 13.5146C273.111 13.223 273.239 12.9062 273.33 12.5645V10.917C273.275 10.6663 273.196 10.4248 273.091 10.1924C272.991 9.9554 272.858 9.74577 272.694 9.56348C272.535 9.37663 272.337 9.22852 272.1 9.11914C271.867 9.00977 271.591 8.95508 271.272 8.95508C270.926 8.95508 270.628 9.02799 270.377 9.17383C270.131 9.3151 269.928 9.51107 269.769 9.76172C269.609 10.0078 269.491 10.2949 269.413 10.623C269.34 10.9466 269.304 11.293 269.304 11.6621ZM281.8 14.6562L283.857 8.02539H285.211L282.244 16.5635C282.176 16.7458 282.085 16.9417 281.971 17.1514C281.861 17.3656 281.72 17.5684 281.547 17.7598C281.374 17.9512 281.164 18.1061 280.918 18.2246C280.676 18.3477 280.387 18.4092 280.05 18.4092C279.95 18.4092 279.822 18.3955 279.667 18.3682C279.512 18.3408 279.403 18.318 279.339 18.2998L279.332 17.2744C279.368 17.279 279.425 17.2835 279.503 17.2881C279.585 17.2972 279.642 17.3018 279.674 17.3018C279.961 17.3018 280.205 17.263 280.405 17.1855C280.606 17.1126 280.774 16.9873 280.911 16.8096C281.052 16.6364 281.173 16.3971 281.273 16.0918L281.8 14.6562ZM280.289 8.02539L282.21 13.7676L282.538 15.1006L281.629 15.5654L278.908 8.02539H280.289ZM285.908 11.8057V11.6484C285.908 11.1152 285.986 10.6208 286.141 10.165C286.296 9.70475 286.519 9.30599 286.811 8.96875C287.102 8.62695 287.455 8.36263 287.87 8.17578C288.285 7.98438 288.75 7.88867 289.265 7.88867C289.784 7.88867 290.251 7.98438 290.666 8.17578C291.085 8.36263 291.441 8.62695 291.732 8.96875C292.029 9.30599 292.254 9.70475 292.409 10.165C292.564 10.6208 292.642 11.1152 292.642 11.6484V11.8057C292.642 12.3389 292.564 12.8333 292.409 13.2891C292.254 13.7448 292.029 14.1436 291.732 14.4854C291.441 14.8226 291.088 15.0869 290.673 15.2783C290.263 15.4652 289.798 15.5586 289.278 15.5586C288.759 15.5586 288.292 15.4652 287.877 15.2783C287.462 15.0869 287.107 14.8226 286.811 14.4854C286.519 14.1436 286.296 13.7448 286.141 13.2891C285.986 12.8333 285.908 12.3389 285.908 11.8057ZM287.173 11.6484V11.8057C287.173 12.1748 287.216 12.5234 287.303 12.8516C287.389 13.1751 287.519 13.4622 287.692 13.7129C287.87 13.9635 288.091 14.1618 288.355 14.3076C288.62 14.4489 288.927 14.5195 289.278 14.5195C289.625 14.5195 289.928 14.4489 290.188 14.3076C290.452 14.1618 290.671 13.9635 290.844 13.7129C291.017 13.4622 291.147 13.1751 291.233 12.8516C291.325 12.5234 291.37 12.1748 291.37 11.8057V11.6484C291.37 11.2839 291.325 10.9398 291.233 10.6162C291.147 10.2881 291.015 9.9987 290.837 9.74805C290.664 9.49284 290.445 9.29232 290.181 9.14648C289.921 9.00065 289.616 8.92773 289.265 8.92773C288.918 8.92773 288.613 9.00065 288.349 9.14648C288.089 9.29232 287.87 9.49284 287.692 9.74805C287.519 9.9987 287.389 10.2881 287.303 10.6162C287.216 10.9398 287.173 11.2839 287.173 11.6484ZM298.753 13.7129V8.02539H300.024V15.4219H298.814L298.753 13.7129ZM298.992 12.1543L299.519 12.1406C299.519 12.6328 299.466 13.0885 299.361 13.5078C299.261 13.9225 299.097 14.2826 298.869 14.5879C298.641 14.8932 298.343 15.1325 297.974 15.3057C297.604 15.4743 297.156 15.5586 296.627 15.5586C296.267 15.5586 295.937 15.5062 295.636 15.4014C295.34 15.2965 295.084 15.1348 294.87 14.916C294.656 14.6973 294.49 14.4124 294.371 14.0615C294.257 13.7106 294.2 13.2891 294.2 12.7969V8.02539H295.465V12.8105C295.465 13.1432 295.501 13.4189 295.574 13.6377C295.652 13.8519 295.754 14.0228 295.882 14.1504C296.014 14.2734 296.16 14.36 296.319 14.4102C296.483 14.4603 296.652 14.4854 296.825 14.4854C297.363 14.4854 297.789 14.3828 298.104 14.1777C298.418 13.9681 298.644 13.6878 298.78 13.3369C298.922 12.9814 298.992 12.5872 298.992 12.1543ZM305.418 4.92188H306.689V13.9863L306.58 15.4219H305.418V4.92188ZM311.687 11.6621V11.8057C311.687 12.3434 311.623 12.8424 311.495 13.3027C311.368 13.7585 311.181 14.1549 310.935 14.4922C310.688 14.8294 310.388 15.0915 310.032 15.2783C309.677 15.4652 309.269 15.5586 308.809 15.5586C308.339 15.5586 307.927 15.4788 307.571 15.3193C307.22 15.1553 306.924 14.9206 306.683 14.6152C306.441 14.3099 306.247 13.9408 306.102 13.5078C305.96 13.0749 305.862 12.5872 305.808 12.0449V11.416C305.862 10.8691 305.96 10.3792 306.102 9.94629C306.247 9.51335 306.441 9.14421 306.683 8.83887C306.924 8.52897 307.22 8.29427 307.571 8.13477C307.922 7.9707 308.33 7.88867 308.795 7.88867C309.26 7.88867 309.672 7.97982 310.032 8.16211C310.392 8.33984 310.693 8.59505 310.935 8.92773C311.181 9.26042 311.368 9.65918 311.495 10.124C311.623 10.5843 311.687 11.097 311.687 11.6621ZM310.415 11.8057V11.6621C310.415 11.293 310.381 10.9466 310.312 10.623C310.244 10.2949 310.135 10.0078 309.984 9.76172C309.834 9.51107 309.636 9.3151 309.39 9.17383C309.144 9.02799 308.84 8.95508 308.48 8.95508C308.161 8.95508 307.883 9.00977 307.646 9.11914C307.414 9.22852 307.216 9.37663 307.052 9.56348C306.888 9.74577 306.753 9.9554 306.648 10.1924C306.548 10.4248 306.473 10.6663 306.423 10.917V12.5645C306.496 12.8835 306.614 13.1911 306.778 13.4873C306.947 13.779 307.17 14.0182 307.448 14.2051C307.731 14.3919 308.079 14.4854 308.494 14.4854C308.836 14.4854 309.128 14.417 309.369 14.2803C309.615 14.139 309.813 13.9453 309.964 13.6992C310.119 13.4531 310.233 13.1683 310.306 12.8447C310.379 12.5212 310.415 12.1748 310.415 11.8057ZM316.355 15.5586C315.84 15.5586 315.373 15.472 314.954 15.2988C314.539 15.1211 314.182 14.8727 313.881 14.5537C313.585 14.2347 313.357 13.8564 313.197 13.4189C313.038 12.9814 312.958 12.5029 312.958 11.9834V11.6963C312.958 11.0947 313.047 10.5592 313.225 10.0898C313.402 9.61589 313.644 9.21484 313.949 8.88672C314.255 8.55859 314.601 8.31022 314.988 8.1416C315.376 7.97298 315.777 7.88867 316.191 7.88867C316.72 7.88867 317.176 7.97982 317.559 8.16211C317.946 8.3444 318.263 8.59961 318.509 8.92773C318.755 9.2513 318.937 9.63411 319.056 10.0762C319.174 10.5137 319.233 10.9922 319.233 11.5117V12.0791H313.71V11.0469H317.969V10.9512C317.951 10.623 317.882 10.304 317.764 9.99414C317.65 9.68424 317.467 9.42904 317.217 9.22852C316.966 9.02799 316.624 8.92773 316.191 8.92773C315.904 8.92773 315.64 8.98926 315.398 9.1123C315.157 9.23079 314.95 9.40853 314.776 9.64551C314.603 9.88249 314.469 10.1719 314.373 10.5137C314.277 10.8555 314.229 11.2497 314.229 11.6963V11.9834C314.229 12.3343 314.277 12.6647 314.373 12.9746C314.473 13.2799 314.617 13.5488 314.804 13.7812C314.995 14.0137 315.225 14.196 315.494 14.3281C315.768 14.4603 316.077 14.5264 316.424 14.5264C316.87 14.5264 317.249 14.4352 317.559 14.2529C317.868 14.0706 318.14 13.8268 318.372 13.5215L319.138 14.1299C318.978 14.3714 318.775 14.6016 318.529 14.8203C318.283 15.0391 317.98 15.2168 317.62 15.3535C317.265 15.4902 316.843 15.5586 316.355 15.5586ZM327.279 8.02539V8.99609H323.28V8.02539H327.279ZM324.634 6.22754H325.898V13.5898C325.898 13.8405 325.937 14.0296 326.015 14.1572C326.092 14.2848 326.192 14.3691 326.315 14.4102C326.438 14.4512 326.571 14.4717 326.712 14.4717C326.817 14.4717 326.926 14.4626 327.04 14.4443C327.159 14.4215 327.247 14.4033 327.307 14.3896L327.313 15.4219C327.213 15.4538 327.081 15.4834 326.917 15.5107C326.757 15.5426 326.564 15.5586 326.336 15.5586C326.026 15.5586 325.741 15.4971 325.481 15.374C325.222 15.251 325.014 15.0459 324.859 14.7588C324.709 14.4671 324.634 14.0752 324.634 13.583V6.22754ZM330.027 4.92188V15.4219H328.763V4.92188H330.027ZM329.727 11.4434L329.2 11.4229C329.205 10.917 329.28 10.4499 329.426 10.0215C329.572 9.58854 329.777 9.21257 330.041 8.89355C330.305 8.57454 330.62 8.32845 330.984 8.15527C331.354 7.97754 331.761 7.88867 332.208 7.88867C332.573 7.88867 332.901 7.9388 333.192 8.03906C333.484 8.13477 333.732 8.28971 333.938 8.50391C334.147 8.7181 334.307 8.99609 334.416 9.33789C334.525 9.67513 334.58 10.0876 334.58 10.5752V15.4219H333.309V10.5615C333.309 10.1742 333.252 9.86426 333.138 9.63184C333.024 9.39486 332.857 9.22396 332.639 9.11914C332.42 9.00977 332.151 8.95508 331.832 8.95508C331.518 8.95508 331.23 9.02116 330.971 9.15332C330.715 9.28548 330.494 9.46777 330.308 9.7002C330.125 9.93262 329.982 10.1992 329.877 10.5C329.777 10.7962 329.727 11.1107 329.727 11.4434ZM339.543 15.5586C339.028 15.5586 338.561 15.472 338.142 15.2988C337.727 15.1211 337.369 14.8727 337.068 14.5537C336.772 14.2347 336.544 13.8564 336.385 13.4189C336.225 12.9814 336.146 12.5029 336.146 11.9834V11.6963C336.146 11.0947 336.234 10.5592 336.412 10.0898C336.59 9.61589 336.831 9.21484 337.137 8.88672C337.442 8.55859 337.788 8.31022 338.176 8.1416C338.563 7.97298 338.964 7.88867 339.379 7.88867C339.908 7.88867 340.363 7.97982 340.746 8.16211C341.133 8.3444 341.45 8.59961 341.696 8.92773C341.942 9.2513 342.125 9.63411 342.243 10.0762C342.362 10.5137 342.421 10.9922 342.421 11.5117V12.0791H336.897V11.0469H341.156V10.9512C341.138 10.623 341.07 10.304 340.951 9.99414C340.837 9.68424 340.655 9.42904 340.404 9.22852C340.154 9.02799 339.812 8.92773 339.379 8.92773C339.092 8.92773 338.827 8.98926 338.586 9.1123C338.344 9.23079 338.137 9.40853 337.964 9.64551C337.791 9.88249 337.656 10.1719 337.561 10.5137C337.465 10.8555 337.417 11.2497 337.417 11.6963V11.9834C337.417 12.3343 337.465 12.6647 337.561 12.9746C337.661 13.2799 337.804 13.5488 337.991 13.7812C338.183 14.0137 338.413 14.196 338.682 14.3281C338.955 14.4603 339.265 14.5264 339.611 14.5264C340.058 14.5264 340.436 14.4352 340.746 14.2529C341.056 14.0706 341.327 13.8268 341.56 13.5215L342.325 14.1299C342.166 14.3714 341.963 14.6016 341.717 14.8203C341.471 15.0391 341.168 15.2168 340.808 15.3535C340.452 15.4902 340.031 15.5586 339.543 15.5586ZM349.257 15.4219H347.992V7.24609C347.992 6.71289 348.088 6.264 348.279 5.89941C348.475 5.53027 348.756 5.25228 349.12 5.06543C349.485 4.87402 349.918 4.77832 350.419 4.77832C350.565 4.77832 350.711 4.78743 350.856 4.80566C351.007 4.82389 351.153 4.85124 351.294 4.8877L351.226 5.91992C351.13 5.89714 351.021 5.88118 350.897 5.87207C350.779 5.86296 350.66 5.8584 350.542 5.8584C350.273 5.8584 350.041 5.91309 349.845 6.02246C349.653 6.12728 349.507 6.28223 349.407 6.4873C349.307 6.69238 349.257 6.94531 349.257 7.24609V15.4219ZM350.829 8.02539V8.99609H346.823V8.02539H350.829ZM356.599 14.1572V10.3496C356.599 10.0579 356.539 9.80501 356.421 9.59082C356.307 9.37207 356.134 9.20345 355.901 9.08496C355.669 8.96647 355.382 8.90723 355.04 8.90723C354.721 8.90723 354.441 8.96191 354.199 9.07129C353.962 9.18066 353.775 9.32422 353.639 9.50195C353.507 9.67969 353.44 9.87109 353.44 10.0762H352.176C352.176 9.81185 352.244 9.5498 352.381 9.29004C352.518 9.03027 352.714 8.79557 352.969 8.58594C353.229 8.37174 353.538 8.20312 353.898 8.08008C354.263 7.95247 354.669 7.88867 355.115 7.88867C355.653 7.88867 356.127 7.97982 356.537 8.16211C356.952 8.3444 357.275 8.62012 357.508 8.98926C357.745 9.35384 357.863 9.81185 357.863 10.3633V13.8086C357.863 14.0547 357.884 14.3167 357.925 14.5947C357.97 14.8727 358.036 15.112 358.123 15.3125V15.4219H356.804C356.74 15.276 356.69 15.0824 356.653 14.8408C356.617 14.5947 356.599 14.3669 356.599 14.1572ZM356.817 10.9375L356.831 11.8262H355.553C355.193 11.8262 354.871 11.8558 354.589 11.915C354.306 11.9697 354.069 12.054 353.878 12.168C353.687 12.2819 353.541 12.4255 353.44 12.5986C353.34 12.7673 353.29 12.9655 353.29 13.1934C353.29 13.4258 353.342 13.6377 353.447 13.8291C353.552 14.0205 353.709 14.1732 353.919 14.2871C354.133 14.3965 354.395 14.4512 354.705 14.4512C355.092 14.4512 355.434 14.3691 355.73 14.2051C356.027 14.041 356.261 13.8405 356.435 13.6035C356.612 13.3665 356.708 13.1364 356.722 12.9131L357.262 13.5215C357.23 13.7129 357.143 13.9248 357.002 14.1572C356.861 14.3896 356.672 14.613 356.435 14.8271C356.202 15.0368 355.924 15.2122 355.601 15.3535C355.282 15.4902 354.922 15.5586 354.521 15.5586C354.019 15.5586 353.579 15.4606 353.201 15.2646C352.827 15.0687 352.536 14.8066 352.326 14.4785C352.121 14.1458 352.019 13.7744 352.019 13.3643C352.019 12.9678 352.096 12.6191 352.251 12.3184C352.406 12.013 352.629 11.7601 352.921 11.5596C353.213 11.3545 353.563 11.1995 353.974 11.0947C354.384 10.9899 354.842 10.9375 355.348 10.9375H356.817ZM364.159 13.46C364.159 13.2777 364.118 13.109 364.036 12.9541C363.959 12.7946 363.797 12.651 363.551 12.5234C363.309 12.3913 362.945 12.2773 362.457 12.1816C362.047 12.0951 361.675 11.9925 361.343 11.874C361.015 11.7555 360.734 11.612 360.502 11.4434C360.274 11.2747 360.099 11.0765 359.976 10.8486C359.853 10.6208 359.791 10.3542 359.791 10.0488C359.791 9.75716 359.855 9.48145 359.982 9.22168C360.115 8.96191 360.299 8.73177 360.536 8.53125C360.778 8.33073 361.067 8.1735 361.404 8.05957C361.742 7.94564 362.118 7.88867 362.532 7.88867C363.125 7.88867 363.631 7.99349 364.05 8.20312C364.469 8.41276 364.79 8.69303 365.014 9.04395C365.237 9.3903 365.349 9.77539 365.349 10.1992H364.084C364.084 9.99414 364.022 9.7959 363.899 9.60449C363.781 9.40853 363.605 9.24674 363.373 9.11914C363.145 8.99154 362.865 8.92773 362.532 8.92773C362.181 8.92773 361.896 8.98242 361.678 9.0918C361.464 9.19661 361.306 9.33105 361.206 9.49512C361.11 9.65918 361.062 9.83236 361.062 10.0146C361.062 10.1514 361.085 10.2744 361.131 10.3838C361.181 10.4886 361.268 10.5866 361.391 10.6777C361.514 10.7643 361.687 10.8464 361.91 10.9238C362.133 11.0013 362.418 11.0788 362.765 11.1562C363.371 11.293 363.87 11.457 364.262 11.6484C364.654 11.8398 364.945 12.0745 365.137 12.3525C365.328 12.6305 365.424 12.9678 365.424 13.3643C365.424 13.6878 365.355 13.984 365.219 14.2529C365.087 14.5218 364.893 14.7542 364.638 14.9502C364.387 15.1416 364.086 15.292 363.735 15.4014C363.389 15.5062 362.999 15.5586 362.566 15.5586C361.915 15.5586 361.363 15.4424 360.912 15.21C360.461 14.9775 360.119 14.6768 359.887 14.3076C359.654 13.9385 359.538 13.5488 359.538 13.1387H360.81C360.828 13.485 360.928 13.7607 361.11 13.9658C361.293 14.1663 361.516 14.3099 361.78 14.3965C362.045 14.4785 362.307 14.5195 362.566 14.5195C362.913 14.5195 363.202 14.474 363.435 14.3828C363.672 14.2917 363.852 14.1663 363.975 14.0068C364.098 13.8473 364.159 13.665 364.159 13.46ZM370.182 8.02539V8.99609H366.183V8.02539H370.182ZM367.536 6.22754H368.801V13.5898C368.801 13.8405 368.84 14.0296 368.917 14.1572C368.994 14.2848 369.095 14.3691 369.218 14.4102C369.341 14.4512 369.473 14.4717 369.614 14.4717C369.719 14.4717 369.828 14.4626 369.942 14.4443C370.061 14.4215 370.15 14.4033 370.209 14.3896L370.216 15.4219C370.116 15.4538 369.983 15.4834 369.819 15.5107C369.66 15.5426 369.466 15.5586 369.238 15.5586C368.928 15.5586 368.644 15.4971 368.384 15.374C368.124 15.251 367.917 15.0459 367.762 14.7588C367.611 14.4671 367.536 14.0752 367.536 13.583V6.22754ZM374.734 15.5586C374.219 15.5586 373.752 15.472 373.333 15.2988C372.918 15.1211 372.561 14.8727 372.26 14.5537C371.964 14.2347 371.736 13.8564 371.576 13.4189C371.417 12.9814 371.337 12.5029 371.337 11.9834V11.6963C371.337 11.0947 371.426 10.5592 371.604 10.0898C371.781 9.61589 372.023 9.21484 372.328 8.88672C372.633 8.55859 372.98 8.31022 373.367 8.1416C373.755 7.97298 374.156 7.88867 374.57 7.88867C375.099 7.88867 375.555 7.97982 375.938 8.16211C376.325 8.3444 376.642 8.59961 376.888 8.92773C377.134 9.2513 377.316 9.63411 377.435 10.0762C377.553 10.5137 377.612 10.9922 377.612 11.5117V12.0791H372.089V11.0469H376.348V10.9512C376.329 10.623 376.261 10.304 376.143 9.99414C376.029 9.68424 375.846 9.42904 375.596 9.22852C375.345 9.02799 375.003 8.92773 374.57 8.92773C374.283 8.92773 374.019 8.98926 373.777 9.1123C373.536 9.23079 373.328 9.40853 373.155 9.64551C372.982 9.88249 372.848 10.1719 372.752 10.5137C372.656 10.8555 372.608 11.2497 372.608 11.6963V11.9834C372.608 12.3343 372.656 12.6647 372.752 12.9746C372.852 13.2799 372.996 13.5488 373.183 13.7812C373.374 14.0137 373.604 14.196 373.873 14.3281C374.146 14.4603 374.456 14.5264 374.803 14.5264C375.249 14.5264 375.628 14.4352 375.938 14.2529C376.247 14.0706 376.519 13.8268 376.751 13.5215L377.517 14.1299C377.357 14.3714 377.154 14.6016 376.908 14.8203C376.662 15.0391 376.359 15.2168 375.999 15.3535C375.644 15.4902 375.222 15.5586 374.734 15.5586ZM383.396 13.46C383.396 13.2777 383.354 13.109 383.272 12.9541C383.195 12.7946 383.033 12.651 382.787 12.5234C382.546 12.3913 382.181 12.2773 381.693 12.1816C381.283 12.0951 380.912 11.9925 380.579 11.874C380.251 11.7555 379.971 11.612 379.738 11.4434C379.51 11.2747 379.335 11.0765 379.212 10.8486C379.089 10.6208 379.027 10.3542 379.027 10.0488C379.027 9.75716 379.091 9.48145 379.219 9.22168C379.351 8.96191 379.535 8.73177 379.772 8.53125C380.014 8.33073 380.303 8.1735 380.641 8.05957C380.978 7.94564 381.354 7.88867 381.769 7.88867C382.361 7.88867 382.867 7.99349 383.286 8.20312C383.705 8.41276 384.027 8.69303 384.25 9.04395C384.473 9.3903 384.585 9.77539 384.585 10.1992H383.32C383.32 9.99414 383.259 9.7959 383.136 9.60449C383.017 9.40853 382.842 9.24674 382.609 9.11914C382.382 8.99154 382.101 8.92773 381.769 8.92773C381.418 8.92773 381.133 8.98242 380.914 9.0918C380.7 9.19661 380.543 9.33105 380.442 9.49512C380.347 9.65918 380.299 9.83236 380.299 10.0146C380.299 10.1514 380.322 10.2744 380.367 10.3838C380.417 10.4886 380.504 10.5866 380.627 10.6777C380.75 10.7643 380.923 10.8464 381.146 10.9238C381.37 11.0013 381.655 11.0788 382.001 11.1562C382.607 11.293 383.106 11.457 383.498 11.6484C383.89 11.8398 384.182 12.0745 384.373 12.3525C384.564 12.6305 384.66 12.9678 384.66 13.3643C384.66 13.6878 384.592 13.984 384.455 14.2529C384.323 14.5218 384.129 14.7542 383.874 14.9502C383.623 15.1416 383.323 15.292 382.972 15.4014C382.625 15.5062 382.236 15.5586 381.803 15.5586C381.151 15.5586 380.6 15.4424 380.148 15.21C379.697 14.9775 379.355 14.6768 379.123 14.3076C378.891 13.9385 378.774 13.5488 378.774 13.1387H380.046C380.064 13.485 380.164 13.7607 380.347 13.9658C380.529 14.1663 380.752 14.3099 381.017 14.3965C381.281 14.4785 381.543 14.5195 381.803 14.5195C382.149 14.5195 382.438 14.474 382.671 14.3828C382.908 14.2917 383.088 14.1663 383.211 14.0068C383.334 13.8473 383.396 13.665 383.396 13.46ZM389.418 8.02539V8.99609H385.419V8.02539H389.418ZM386.772 6.22754H388.037V13.5898C388.037 13.8405 388.076 14.0296 388.153 14.1572C388.231 14.2848 388.331 14.3691 388.454 14.4102C388.577 14.4512 388.709 14.4717 388.851 14.4717C388.955 14.4717 389.065 14.4626 389.179 14.4443C389.297 14.4215 389.386 14.4033 389.445 14.3896L389.452 15.4219C389.352 15.4538 389.22 15.4834 389.056 15.5107C388.896 15.5426 388.702 15.5586 388.475 15.5586C388.165 15.5586 387.88 15.4971 387.62 15.374C387.36 15.251 387.153 15.0459 386.998 14.7588C386.848 14.4671 386.772 14.0752 386.772 13.583V6.22754ZM390.847 14.752C390.847 14.5378 390.913 14.3577 391.045 14.2119C391.182 14.0615 391.378 13.9863 391.633 13.9863C391.888 13.9863 392.082 14.0615 392.214 14.2119C392.351 14.3577 392.419 14.5378 392.419 14.752C392.419 14.9616 392.351 15.1393 392.214 15.2852C392.082 15.431 391.888 15.5039 391.633 15.5039C391.378 15.5039 391.182 15.431 391.045 15.2852C390.913 15.1393 390.847 14.9616 390.847 14.752ZM390.854 8.71582C390.854 8.50163 390.92 8.32161 391.052 8.17578C391.188 8.02539 391.384 7.9502 391.64 7.9502C391.895 7.9502 392.089 8.02539 392.221 8.17578C392.357 8.32161 392.426 8.50163 392.426 8.71582C392.426 8.92546 392.357 9.10319 392.221 9.24902C392.089 9.39486 391.895 9.46777 391.64 9.46777C391.384 9.46777 391.188 9.39486 391.052 9.24902C390.92 9.10319 390.854 8.92546 390.854 8.71582ZM402.126 14.1572V10.3496C402.126 10.0579 402.067 9.80501 401.948 9.59082C401.834 9.37207 401.661 9.20345 401.429 9.08496C401.196 8.96647 400.909 8.90723 400.567 8.90723C400.248 8.90723 399.968 8.96191 399.727 9.07129C399.49 9.18066 399.303 9.32422 399.166 9.50195C399.034 9.67969 398.968 9.87109 398.968 10.0762H397.703C397.703 9.81185 397.771 9.5498 397.908 9.29004C398.045 9.03027 398.241 8.79557 398.496 8.58594C398.756 8.37174 399.066 8.20312 399.426 8.08008C399.79 7.95247 400.196 7.88867 400.643 7.88867C401.18 7.88867 401.654 7.97982 402.064 8.16211C402.479 8.3444 402.803 8.62012 403.035 8.98926C403.272 9.35384 403.391 9.81185 403.391 10.3633V13.8086C403.391 14.0547 403.411 14.3167 403.452 14.5947C403.498 14.8727 403.564 15.112 403.65 15.3125V15.4219H402.331C402.267 15.276 402.217 15.0824 402.181 14.8408C402.144 14.5947 402.126 14.3669 402.126 14.1572ZM402.345 10.9375L402.358 11.8262H401.08C400.72 11.8262 400.399 11.8558 400.116 11.915C399.834 11.9697 399.597 12.054 399.405 12.168C399.214 12.2819 399.068 12.4255 398.968 12.5986C398.868 12.7673 398.817 12.9655 398.817 13.1934C398.817 13.4258 398.87 13.6377 398.975 13.8291C399.079 14.0205 399.237 14.1732 399.446 14.2871C399.66 14.3965 399.923 14.4512 400.232 14.4512C400.62 14.4512 400.962 14.3691 401.258 14.2051C401.554 14.041 401.789 13.8405 401.962 13.6035C402.14 13.3665 402.235 13.1364 402.249 12.9131L402.789 13.5215C402.757 13.7129 402.671 13.9248 402.529 14.1572C402.388 14.3896 402.199 14.613 401.962 14.8271C401.729 15.0368 401.451 15.2122 401.128 15.3535C400.809 15.4902 400.449 15.5586 400.048 15.5586C399.547 15.5586 399.107 15.4606 398.729 15.2646C398.355 15.0687 398.063 14.8066 397.854 14.4785C397.648 14.1458 397.546 13.7744 397.546 13.3643C397.546 12.9678 397.623 12.6191 397.778 12.3184C397.933 12.013 398.157 11.7601 398.448 11.5596C398.74 11.3545 399.091 11.1995 399.501 11.0947C399.911 10.9899 400.369 10.9375 400.875 10.9375H402.345ZM406.754 8.02539V15.4219H405.482V8.02539H406.754ZM405.387 6.06348C405.387 5.8584 405.448 5.68522 405.571 5.54395C405.699 5.40267 405.886 5.33203 406.132 5.33203C406.373 5.33203 406.558 5.40267 406.686 5.54395C406.818 5.68522 406.884 5.8584 406.884 6.06348C406.884 6.25944 406.818 6.42806 406.686 6.56934C406.558 6.70605 406.373 6.77441 406.132 6.77441C405.886 6.77441 405.699 6.70605 405.571 6.56934C405.448 6.42806 405.387 6.25944 405.387 6.06348ZM410.049 9.1875V15.4219H408.784V8.02539H410.015L410.049 9.1875ZM412.359 7.98438L412.353 9.16016C412.248 9.13737 412.147 9.1237 412.052 9.11914C411.961 9.11003 411.856 9.10547 411.737 9.10547C411.446 9.10547 411.188 9.15104 410.965 9.24219C410.742 9.33333 410.552 9.46094 410.397 9.625C410.243 9.78906 410.119 9.98503 410.028 10.2129C409.942 10.4362 409.885 10.6823 409.857 10.9512L409.502 11.1562C409.502 10.7096 409.545 10.2904 409.632 9.89844C409.723 9.50651 409.862 9.16016 410.049 8.85938C410.236 8.55404 410.473 8.31706 410.76 8.14844C411.051 7.97526 411.398 7.88867 411.799 7.88867C411.89 7.88867 411.995 7.90007 412.113 7.92285C412.232 7.94108 412.314 7.96159 412.359 7.98438ZM413.829 13.918V14.9365C413.829 15.3512 413.724 15.7887 413.515 16.249C413.305 16.7139 413.011 17.1012 412.633 17.4111L411.915 16.9121C412.061 16.7116 412.184 16.5065 412.284 16.2969C412.384 16.0918 412.46 15.8776 412.51 15.6543C412.564 15.4355 412.592 15.2031 412.592 14.957V13.918H413.829ZM420.289 4.92188V15.4219H419.018V4.92188H420.289ZM426.681 14.1572V10.3496C426.681 10.0579 426.621 9.80501 426.503 9.59082C426.389 9.37207 426.216 9.20345 425.983 9.08496C425.751 8.96647 425.464 8.90723 425.122 8.90723C424.803 8.90723 424.523 8.96191 424.281 9.07129C424.044 9.18066 423.857 9.32422 423.721 9.50195C423.589 9.67969 423.522 9.87109 423.522 10.0762H422.258C422.258 9.81185 422.326 9.5498 422.463 9.29004C422.6 9.03027 422.796 8.79557 423.051 8.58594C423.311 8.37174 423.62 8.20312 423.98 8.08008C424.345 7.95247 424.751 7.88867 425.197 7.88867C425.735 7.88867 426.209 7.97982 426.619 8.16211C427.034 8.3444 427.357 8.62012 427.59 8.98926C427.827 9.35384 427.945 9.81185 427.945 10.3633V13.8086C427.945 14.0547 427.966 14.3167 428.007 14.5947C428.052 14.8727 428.118 15.112 428.205 15.3125V15.4219H426.886C426.822 15.276 426.772 15.0824 426.735 14.8408C426.699 14.5947 426.681 14.3669 426.681 14.1572ZM426.899 10.9375L426.913 11.8262H425.635C425.275 11.8262 424.953 11.8558 424.671 11.915C424.388 11.9697 424.151 12.054 423.96 12.168C423.769 12.2819 423.623 12.4255 423.522 12.5986C423.422 12.7673 423.372 12.9655 423.372 13.1934C423.372 13.4258 423.424 13.6377 423.529 13.8291C423.634 14.0205 423.791 14.1732 424.001 14.2871C424.215 14.3965 424.477 14.4512 424.787 14.4512C425.174 14.4512 425.516 14.3691 425.812 14.2051C426.109 14.041 426.343 13.8405 426.517 13.6035C426.694 13.3665 426.79 13.1364 426.804 12.9131L427.344 13.5215C427.312 13.7129 427.225 13.9248 427.084 14.1572C426.943 14.3896 426.754 14.613 426.517 14.8271C426.284 15.0368 426.006 15.2122 425.683 15.3535C425.364 15.4902 425.004 15.5586 424.603 15.5586C424.101 15.5586 423.661 15.4606 423.283 15.2646C422.91 15.0687 422.618 14.8066 422.408 14.4785C422.203 14.1458 422.101 13.7744 422.101 13.3643C422.101 12.9678 422.178 12.6191 422.333 12.3184C422.488 12.013 422.711 11.7601 423.003 11.5596C423.295 11.3545 423.646 11.1995 424.056 11.0947C424.466 10.9899 424.924 10.9375 425.43 10.9375H426.899ZM431.199 9.60449V15.4219H429.935V8.02539H431.131L431.199 9.60449ZM430.898 11.4434L430.372 11.4229C430.377 10.917 430.452 10.4499 430.598 10.0215C430.743 9.58854 430.949 9.21257 431.213 8.89355C431.477 8.57454 431.792 8.32845 432.156 8.15527C432.525 7.97754 432.933 7.88867 433.38 7.88867C433.744 7.88867 434.073 7.9388 434.364 8.03906C434.656 8.13477 434.904 8.28971 435.109 8.50391C435.319 8.7181 435.479 8.99609 435.588 9.33789C435.697 9.67513 435.752 10.0876 435.752 10.5752V15.4219H434.48V10.5615C434.48 10.1742 434.424 9.86426 434.31 9.63184C434.196 9.39486 434.029 9.22396 433.811 9.11914C433.592 9.00977 433.323 8.95508 433.004 8.95508C432.689 8.95508 432.402 9.02116 432.143 9.15332C431.887 9.28548 431.666 9.46777 431.479 9.7002C431.297 9.93262 431.154 10.1992 431.049 10.5C430.949 10.7962 430.898 11.1107 430.898 11.4434ZM442.335 13.9863V4.92188H443.606V15.4219H442.444L442.335 13.9863ZM437.358 11.8057V11.6621C437.358 11.097 437.427 10.5843 437.563 10.124C437.705 9.65918 437.903 9.26042 438.158 8.92773C438.418 8.59505 438.726 8.33984 439.081 8.16211C439.441 7.97982 439.842 7.88867 440.284 7.88867C440.749 7.88867 441.155 7.9707 441.501 8.13477C441.852 8.29427 442.148 8.52897 442.39 8.83887C442.636 9.14421 442.829 9.51335 442.971 9.94629C443.112 10.3792 443.21 10.8691 443.265 11.416V12.0449C443.215 12.5872 443.117 13.0749 442.971 13.5078C442.829 13.9408 442.636 14.3099 442.39 14.6152C442.148 14.9206 441.852 15.1553 441.501 15.3193C441.15 15.4788 440.74 15.5586 440.271 15.5586C439.838 15.5586 439.441 15.4652 439.081 15.2783C438.726 15.0915 438.418 14.8294 438.158 14.4922C437.903 14.1549 437.705 13.7585 437.563 13.3027C437.427 12.8424 437.358 12.3434 437.358 11.8057ZM438.63 11.6621V11.8057C438.63 12.1748 438.666 12.5212 438.739 12.8447C438.817 13.1683 438.935 13.4531 439.095 13.6992C439.254 13.9453 439.457 14.139 439.703 14.2803C439.949 14.417 440.243 14.4854 440.585 14.4854C441.004 14.4854 441.348 14.3965 441.617 14.2188C441.891 14.041 442.109 13.8063 442.273 13.5146C442.438 13.223 442.565 12.9062 442.656 12.5645V10.917C442.602 10.6663 442.522 10.4248 442.417 10.1924C442.317 9.9554 442.185 9.74577 442.021 9.56348C441.861 9.37663 441.663 9.22852 441.426 9.11914C441.193 9.00977 440.918 8.95508 440.599 8.95508C440.252 8.95508 439.954 9.02799 439.703 9.17383C439.457 9.3151 439.254 9.51107 439.095 9.76172C438.935 10.0078 438.817 10.2949 438.739 10.623C438.666 10.9466 438.63 11.293 438.63 11.6621ZM446.724 13.918V14.9365C446.724 15.3512 446.619 15.7887 446.409 16.249C446.2 16.7139 445.906 17.1012 445.527 17.4111L444.81 16.9121C444.955 16.7116 445.078 16.5065 445.179 16.2969C445.279 16.0918 445.354 15.8776 445.404 15.6543C445.459 15.4355 445.486 15.2031 445.486 14.957V13.918H446.724ZM451.475 11.8057V11.6484C451.475 11.1152 451.552 10.6208 451.707 10.165C451.862 9.70475 452.085 9.30599 452.377 8.96875C452.669 8.62695 453.022 8.36263 453.437 8.17578C453.851 7.98438 454.316 7.88867 454.831 7.88867C455.351 7.88867 455.818 7.98438 456.232 8.17578C456.652 8.36263 457.007 8.62695 457.299 8.96875C457.595 9.30599 457.821 9.70475 457.976 10.165C458.131 10.6208 458.208 11.1152 458.208 11.6484V11.8057C458.208 12.3389 458.131 12.8333 457.976 13.2891C457.821 13.7448 457.595 14.1436 457.299 14.4854C457.007 14.8226 456.654 15.0869 456.239 15.2783C455.829 15.4652 455.364 15.5586 454.845 15.5586C454.325 15.5586 453.858 15.4652 453.443 15.2783C453.029 15.0869 452.673 14.8226 452.377 14.4854C452.085 14.1436 451.862 13.7448 451.707 13.2891C451.552 12.8333 451.475 12.3389 451.475 11.8057ZM452.739 11.6484V11.8057C452.739 12.1748 452.783 12.5234 452.869 12.8516C452.956 13.1751 453.086 13.4622 453.259 13.7129C453.437 13.9635 453.658 14.1618 453.922 14.3076C454.186 14.4489 454.494 14.5195 454.845 14.5195C455.191 14.5195 455.494 14.4489 455.754 14.3076C456.018 14.1618 456.237 13.9635 456.41 13.7129C456.583 13.4622 456.713 13.1751 456.8 12.8516C456.891 12.5234 456.937 12.1748 456.937 11.8057V11.6484C456.937 11.2839 456.891 10.9398 456.8 10.6162C456.713 10.2881 456.581 9.9987 456.403 9.74805C456.23 9.49284 456.011 9.29232 455.747 9.14648C455.487 9.00065 455.182 8.92773 454.831 8.92773C454.485 8.92773 454.179 9.00065 453.915 9.14648C453.655 9.29232 453.437 9.49284 453.259 9.74805C453.086 9.9987 452.956 10.2881 452.869 10.6162C452.783 10.9398 452.739 11.2839 452.739 11.6484ZM461.059 9.1875V15.4219H459.794V8.02539H461.024L461.059 9.1875ZM463.369 7.98438L463.362 9.16016C463.257 9.13737 463.157 9.1237 463.062 9.11914C462.97 9.11003 462.866 9.10547 462.747 9.10547C462.455 9.10547 462.198 9.15104 461.975 9.24219C461.751 9.33333 461.562 9.46094 461.407 9.625C461.252 9.78906 461.129 9.98503 461.038 10.2129C460.951 10.4362 460.895 10.6823 460.867 10.9512L460.512 11.1562C460.512 10.7096 460.555 10.2904 460.642 9.89844C460.733 9.50651 460.872 9.16016 461.059 8.85938C461.245 8.55404 461.482 8.31706 461.77 8.14844C462.061 7.97526 462.408 7.88867 462.809 7.88867C462.9 7.88867 463.005 7.90007 463.123 7.92285C463.242 7.94108 463.324 7.96159 463.369 7.98438ZM5.27051 31.46C5.27051 31.2777 5.22949 31.109 5.14746 30.9541C5.06999 30.7946 4.9082 30.651 4.66211 30.5234C4.42057 30.3913 4.05599 30.2773 3.56836 30.1816C3.1582 30.0951 2.78678 29.9925 2.4541 29.874C2.12598 29.7555 1.8457 29.612 1.61328 29.4434C1.38542 29.2747 1.20996 29.0765 1.08691 28.8486C0.963867 28.6208 0.902344 28.3542 0.902344 28.0488C0.902344 27.7572 0.966146 27.4814 1.09375 27.2217C1.22591 26.9619 1.41048 26.7318 1.64746 26.5312C1.889 26.3307 2.17839 26.1735 2.51562 26.0596C2.85286 25.9456 3.22884 25.8887 3.64355 25.8887C4.236 25.8887 4.74186 25.9935 5.16113 26.2031C5.5804 26.4128 5.90169 26.693 6.125 27.0439C6.34831 27.3903 6.45996 27.7754 6.45996 28.1992H5.19531C5.19531 27.9941 5.13379 27.7959 5.01074 27.6045C4.89225 27.4085 4.7168 27.2467 4.48438 27.1191C4.25651 26.9915 3.97624 26.9277 3.64355 26.9277C3.29264 26.9277 3.00781 26.9824 2.78906 27.0918C2.57487 27.1966 2.41764 27.3311 2.31738 27.4951C2.22168 27.6592 2.17383 27.8324 2.17383 28.0146C2.17383 28.1514 2.19661 28.2744 2.24219 28.3838C2.29232 28.4886 2.37891 28.5866 2.50195 28.6777C2.625 28.7643 2.79818 28.8464 3.02148 28.9238C3.24479 29.0013 3.52962 29.0788 3.87598 29.1562C4.4821 29.293 4.98112 29.457 5.37305 29.6484C5.76497 29.8398 6.05664 30.0745 6.24805 30.3525C6.43945 30.6305 6.53516 30.9678 6.53516 31.3643C6.53516 31.6878 6.4668 31.984 6.33008 32.2529C6.19792 32.5218 6.00423 32.7542 5.74902 32.9502C5.49837 33.1416 5.19759 33.292 4.84668 33.4014C4.50033 33.5062 4.11068 33.5586 3.67773 33.5586C3.02604 33.5586 2.47461 33.4424 2.02344 33.21C1.57227 32.9775 1.23047 32.6768 0.998047 32.3076C0.765625 31.9385 0.649414 31.5488 0.649414 31.1387H1.9209C1.93913 31.485 2.03939 31.7607 2.22168 31.9658C2.40397 32.1663 2.62728 32.3099 2.8916 32.3965C3.15592 32.4785 3.41797 32.5195 3.67773 32.5195C4.02409 32.5195 4.31348 32.474 4.5459 32.3828C4.78288 32.2917 4.96289 32.1663 5.08594 32.0068C5.20898 31.8473 5.27051 31.665 5.27051 31.46ZM11.2656 33.5586C10.7507 33.5586 10.2835 33.472 9.86426 33.2988C9.44954 33.1211 9.0918 32.8727 8.79102 32.5537C8.49479 32.2347 8.26693 31.8564 8.10742 31.4189C7.94792 30.9814 7.86816 30.5029 7.86816 29.9834V29.6963C7.86816 29.0947 7.95703 28.5592 8.13477 28.0898C8.3125 27.6159 8.55404 27.2148 8.85938 26.8867C9.16471 26.5586 9.51107 26.3102 9.89844 26.1416C10.2858 25.973 10.6868 25.8887 11.1016 25.8887C11.6302 25.8887 12.0859 25.9798 12.4688 26.1621C12.8561 26.3444 13.1729 26.5996 13.4189 26.9277C13.665 27.2513 13.8473 27.6341 13.9658 28.0762C14.0843 28.5137 14.1436 28.9922 14.1436 29.5117V30.0791H8.62012V29.0469H12.8789V28.9512C12.8607 28.623 12.7923 28.304 12.6738 27.9941C12.5599 27.6842 12.3776 27.429 12.127 27.2285C11.8763 27.028 11.5345 26.9277 11.1016 26.9277C10.8145 26.9277 10.5501 26.9893 10.3086 27.1123C10.0671 27.2308 9.8597 27.4085 9.68652 27.6455C9.51335 27.8825 9.37891 28.1719 9.2832 28.5137C9.1875 28.8555 9.13965 29.2497 9.13965 29.6963V29.9834C9.13965 30.3343 9.1875 30.6647 9.2832 30.9746C9.38346 31.2799 9.52702 31.5488 9.71387 31.7812C9.90527 32.0137 10.1354 32.196 10.4043 32.3281C10.6777 32.4603 10.9876 32.5264 11.334 32.5264C11.7806 32.5264 12.1589 32.4352 12.4688 32.2529C12.7786 32.0706 13.0498 31.8268 13.2822 31.5215L14.0479 32.1299C13.8883 32.3714 13.6855 32.6016 13.4395 32.8203C13.1934 33.0391 12.8903 33.2168 12.5303 33.3535C12.1748 33.4902 11.7533 33.5586 11.2656 33.5586ZM19.9814 32.1572V28.3496C19.9814 28.0579 19.9222 27.805 19.8037 27.5908C19.6898 27.3721 19.5166 27.2035 19.2842 27.085C19.0518 26.9665 18.7646 26.9072 18.4229 26.9072C18.1038 26.9072 17.8236 26.9619 17.582 27.0713C17.3451 27.1807 17.1582 27.3242 17.0215 27.502C16.8893 27.6797 16.8232 27.8711 16.8232 28.0762H15.5586C15.5586 27.8118 15.627 27.5498 15.7637 27.29C15.9004 27.0303 16.0964 26.7956 16.3516 26.5859C16.6113 26.3717 16.9212 26.2031 17.2812 26.0801C17.6458 25.9525 18.0514 25.8887 18.498 25.8887C19.0358 25.8887 19.5098 25.9798 19.9199 26.1621C20.3346 26.3444 20.6582 26.6201 20.8906 26.9893C21.1276 27.3538 21.2461 27.8118 21.2461 28.3633V31.8086C21.2461 32.0547 21.2666 32.3167 21.3076 32.5947C21.3532 32.8727 21.4193 33.112 21.5059 33.3125V33.4219H20.1865C20.1227 33.276 20.0726 33.0824 20.0361 32.8408C19.9997 32.5947 19.9814 32.3669 19.9814 32.1572ZM20.2002 28.9375L20.2139 29.8262H18.9355C18.5755 29.8262 18.2542 29.8558 17.9717 29.915C17.6891 29.9697 17.4521 30.054 17.2607 30.168C17.0693 30.2819 16.9235 30.4255 16.8232 30.5986C16.723 30.7673 16.6729 30.9655 16.6729 31.1934C16.6729 31.4258 16.7253 31.6377 16.8301 31.8291C16.9349 32.0205 17.0921 32.1732 17.3018 32.2871C17.516 32.3965 17.778 32.4512 18.0879 32.4512C18.4753 32.4512 18.8171 32.3691 19.1133 32.2051C19.4095 32.041 19.6442 31.8405 19.8174 31.6035C19.9951 31.3665 20.0908 31.1364 20.1045 30.9131L20.6445 31.5215C20.6126 31.7129 20.526 31.9248 20.3848 32.1572C20.2435 32.3896 20.0544 32.613 19.8174 32.8271C19.585 33.0368 19.307 33.2122 18.9834 33.3535C18.6644 33.4902 18.3044 33.5586 17.9033 33.5586C17.402 33.5586 16.9622 33.4606 16.584 33.2646C16.2103 33.0687 15.9186 32.8066 15.709 32.4785C15.5039 32.1458 15.4014 31.7744 15.4014 31.3643C15.4014 30.9678 15.4788 30.6191 15.6338 30.3184C15.7887 30.013 16.012 29.7601 16.3037 29.5596C16.5954 29.3545 16.9463 29.1995 17.3564 29.0947C17.7666 28.9899 18.2246 28.9375 18.7305 28.9375H20.2002ZM25.9834 30.6191H24.7119C24.7165 30.1816 24.7552 29.8239 24.8281 29.5459C24.9056 29.2633 25.0309 29.0059 25.2041 28.7734C25.3773 28.541 25.6074 28.2767 25.8945 27.9805C26.1042 27.7663 26.2956 27.5658 26.4688 27.3789C26.6465 27.1875 26.79 26.9824 26.8994 26.7637C27.0088 26.5404 27.0635 26.2738 27.0635 25.9639C27.0635 25.6494 27.0065 25.3783 26.8926 25.1504C26.7832 24.9225 26.6191 24.7471 26.4004 24.624C26.1862 24.501 25.9196 24.4395 25.6006 24.4395C25.3363 24.4395 25.0856 24.4873 24.8486 24.583C24.6117 24.6787 24.4202 24.8268 24.2744 25.0273C24.1286 25.2233 24.0534 25.4808 24.0488 25.7998H22.7842C22.7933 25.2848 22.9209 24.8428 23.167 24.4736C23.4176 24.1045 23.7549 23.8219 24.1787 23.626C24.6025 23.43 25.0765 23.332 25.6006 23.332C26.1794 23.332 26.6715 23.4368 27.0771 23.6465C27.4873 23.8561 27.7995 24.1569 28.0137 24.5488C28.2279 24.9362 28.335 25.3965 28.335 25.9297C28.335 26.3398 28.2507 26.7181 28.082 27.0645C27.918 27.4062 27.7061 27.7275 27.4463 28.0283C27.1865 28.3291 26.9108 28.6162 26.6191 28.8896C26.3685 29.1221 26.1999 29.3841 26.1133 29.6758C26.0267 29.9674 25.9834 30.2819 25.9834 30.6191ZM24.6572 32.7861C24.6572 32.5811 24.721 32.4079 24.8486 32.2666C24.9762 32.1253 25.1608 32.0547 25.4023 32.0547C25.6484 32.0547 25.8353 32.1253 25.9629 32.2666C26.0905 32.4079 26.1543 32.5811 26.1543 32.7861C26.1543 32.9821 26.0905 33.1507 25.9629 33.292C25.8353 33.4333 25.6484 33.5039 25.4023 33.5039C25.1608 33.5039 24.9762 33.4333 24.8486 33.292C24.721 33.1507 24.6572 32.9821 24.6572 32.7861Z" fill="#262626"/>
<path d="M27.5859 31.7998C27.5859 31.6009 27.6473 31.4338 27.77 31.2983C27.897 31.1587 28.0789 31.0889 28.3159 31.0889C28.5529 31.0889 28.7327 31.1587 28.8555 31.2983C28.9824 31.4338 29.0459 31.6009 29.0459 31.7998C29.0459 31.9945 28.9824 32.1595 28.8555 32.2949C28.7327 32.4303 28.5529 32.498 28.3159 32.498C28.0789 32.498 27.897 32.4303 27.77 32.2949C27.6473 32.1595 27.5859 31.9945 27.5859 31.7998ZM31.0137 31.7998C31.0137 31.6009 31.075 31.4338 31.1978 31.2983C31.3247 31.1587 31.5067 31.0889 31.7437 31.0889C31.9806 31.0889 32.1605 31.1587 32.2832 31.2983C32.4102 31.4338 32.4736 31.6009 32.4736 31.7998C32.4736 31.9945 32.4102 32.1595 32.2832 32.2949C32.1605 32.4303 31.9806 32.498 31.7437 32.498C31.5067 32.498 31.3247 32.4303 31.1978 32.2949C31.075 32.1595 31.0137 31.9945 31.0137 31.7998ZM34.4414 31.7998C34.4414 31.6009 34.5028 31.4338 34.6255 31.2983C34.7524 31.1587 34.9344 31.0889 35.1714 31.0889C35.4084 31.0889 35.5882 31.1587 35.7109 31.2983C35.8379 31.4338 35.9014 31.6009 35.9014 31.7998C35.9014 31.9945 35.8379 32.1595 35.7109 32.2949C35.5882 32.4303 35.4084 32.498 35.1714 32.498C34.9344 32.498 34.7524 32.4303 34.6255 32.2949C34.5028 32.1595 34.4414 31.9945 34.4414 31.7998Z" fill="#262626"/>
<path d="M42.2427 26.9185V32.4219H41.062V25.5537H42.1792L42.2427 26.9185ZM42.0015 28.7275L41.4556 28.7085C41.4598 28.2388 41.5212 27.805 41.6396 27.4072C41.7581 27.0052 41.9338 26.6561 42.1665 26.3599C42.3993 26.0636 42.6891 25.8351 43.0361 25.6743C43.3831 25.5093 43.7852 25.4268 44.2422 25.4268C44.5638 25.4268 44.86 25.4733 45.1309 25.5664C45.4017 25.6553 45.6366 25.797 45.8354 25.9917C46.0343 26.1864 46.1888 26.436 46.2988 26.7407C46.4089 27.0454 46.4639 27.4136 46.4639 27.8452V32.4219H45.2896V27.9023C45.2896 27.5426 45.2282 27.2549 45.1055 27.0391C44.987 26.8232 44.8177 26.6667 44.5977 26.5693C44.3776 26.4678 44.1195 26.417 43.8232 26.417C43.4762 26.417 43.1864 26.4784 42.9536 26.6011C42.7209 26.7238 42.5347 26.8931 42.395 27.1089C42.2554 27.3247 42.1538 27.5723 42.0903 27.8516C42.0311 28.1266 42.0015 28.4186 42.0015 28.7275ZM46.4512 28.0801L45.6641 28.3213C45.6683 27.9447 45.7297 27.5828 45.8481 27.2358C45.9709 26.8888 46.1465 26.5799 46.375 26.3091C46.6077 26.0382 46.8934 25.8245 47.2319 25.668C47.5705 25.5072 47.9577 25.4268 48.3936 25.4268C48.7617 25.4268 49.0876 25.4754 49.3711 25.5728C49.6589 25.6701 49.9001 25.8203 50.0947 26.0234C50.2936 26.2223 50.4438 26.4784 50.5454 26.7915C50.647 27.1047 50.6978 27.4771 50.6978 27.9087V32.4219H49.5171V27.896C49.5171 27.5109 49.4557 27.2126 49.333 27.001C49.2145 26.7852 49.0452 26.6349 48.8252 26.5503C48.6094 26.4614 48.3512 26.417 48.0508 26.417C47.7926 26.417 47.5641 26.4614 47.3652 26.5503C47.1663 26.6392 46.9992 26.7619 46.8638 26.9185C46.7284 27.0708 46.6247 27.2464 46.5527 27.4453C46.485 27.6442 46.4512 27.8558 46.4512 28.0801ZM52.1641 29.064V28.918C52.1641 28.4229 52.236 27.9637 52.3799 27.5405C52.5238 27.1131 52.7311 26.7428 53.002 26.4297C53.2728 26.1123 53.6007 25.8669 53.9858 25.6934C54.3709 25.5156 54.8026 25.4268 55.2808 25.4268C55.7632 25.4268 56.1969 25.5156 56.582 25.6934C56.9714 25.8669 57.3014 26.1123 57.5723 26.4297C57.8473 26.7428 58.0568 27.1131 58.2007 27.5405C58.3446 27.9637 58.4165 28.4229 58.4165 28.918V29.064C58.4165 29.5591 58.3446 30.0182 58.2007 30.4414C58.0568 30.8646 57.8473 31.2349 57.5723 31.5522C57.3014 31.8654 56.9735 32.1108 56.5884 32.2886C56.2075 32.4621 55.7759 32.5488 55.2935 32.5488C54.811 32.5488 54.3773 32.4621 53.9922 32.2886C53.6071 32.1108 53.277 31.8654 53.002 31.5522C52.7311 31.2349 52.5238 30.8646 52.3799 30.4414C52.236 30.0182 52.1641 29.5591 52.1641 29.064ZM53.3384 28.918V29.064C53.3384 29.4067 53.3786 29.7305 53.459 30.0352C53.5394 30.3356 53.66 30.6022 53.8208 30.835C53.9858 31.0677 54.1911 31.2518 54.4365 31.3872C54.682 31.5184 54.9676 31.584 55.2935 31.584C55.6151 31.584 55.8965 31.5184 56.1377 31.3872C56.3831 31.2518 56.5863 31.0677 56.7471 30.835C56.9079 30.6022 57.0285 30.3356 57.1089 30.0352C57.1935 29.7305 57.2358 29.4067 57.2358 29.064V28.918C57.2358 28.5794 57.1935 28.2599 57.1089 27.9595C57.0285 27.6548 56.9058 27.3861 56.7407 27.1533C56.5799 26.9163 56.3768 26.7301 56.1313 26.5947C55.8901 26.4593 55.6066 26.3916 55.2808 26.3916C54.9591 26.3916 54.6756 26.4593 54.4302 26.5947C54.189 26.7301 53.9858 26.9163 53.8208 27.1533C53.66 27.3861 53.5394 27.6548 53.459 27.9595C53.3786 28.2599 53.3384 28.5794 53.3384 28.918ZM61.0635 26.6328V32.4219H59.8892V25.5537H61.0317L61.0635 26.6328ZM63.209 25.5156L63.2026 26.6074C63.1053 26.5863 63.0122 26.5736 62.9233 26.5693C62.8387 26.5609 62.7414 26.5566 62.6313 26.5566C62.3605 26.5566 62.1214 26.599 61.9141 26.6836C61.7067 26.7682 61.5311 26.8867 61.3872 27.0391C61.2433 27.1914 61.1291 27.3734 61.0444 27.585C60.964 27.7923 60.9111 28.0208 60.8857 28.2705L60.5557 28.4609C60.5557 28.0462 60.5959 27.6569 60.6763 27.293C60.7609 26.929 60.89 26.6074 61.0635 26.3281C61.237 26.0446 61.457 25.8245 61.7236 25.668C61.9945 25.5072 62.3161 25.4268 62.6885 25.4268C62.7731 25.4268 62.8704 25.4373 62.9805 25.4585C63.0905 25.4754 63.1667 25.4945 63.209 25.5156ZM67.0176 32.5488C66.5394 32.5488 66.1056 32.4684 65.7163 32.3076C65.3312 32.1426 64.999 31.9119 64.7197 31.6157C64.4447 31.3195 64.2331 30.9683 64.085 30.562C63.9368 30.1558 63.8628 29.7114 63.8628 29.229V28.9624C63.8628 28.4038 63.9453 27.9066 64.1104 27.4707C64.2754 27.0306 64.4997 26.6582 64.7832 26.3535C65.0667 26.0488 65.3883 25.8182 65.748 25.6616C66.1077 25.505 66.4801 25.4268 66.8652 25.4268C67.3561 25.4268 67.7793 25.5114 68.1348 25.6807C68.4945 25.8499 68.7886 26.0869 69.0171 26.3916C69.2456 26.6921 69.4149 27.0475 69.5249 27.458C69.6349 27.8643 69.6899 28.3086 69.6899 28.791V29.3179H64.561V28.3594H68.5156V28.2705C68.4987 27.9658 68.4352 27.6696 68.3252 27.3818C68.2194 27.0941 68.0501 26.8571 67.8174 26.6709C67.5846 26.4847 67.2673 26.3916 66.8652 26.3916C66.5986 26.3916 66.3532 26.4487 66.1289 26.563C65.9046 26.673 65.7121 26.8381 65.5513 27.0581C65.3905 27.2782 65.2656 27.5469 65.1768 27.8643C65.0879 28.1816 65.0435 28.5477 65.0435 28.9624V29.229C65.0435 29.5549 65.0879 29.8617 65.1768 30.1494C65.2699 30.4329 65.4032 30.6826 65.5767 30.8984C65.7544 31.1143 65.9681 31.2835 66.2178 31.4062C66.4717 31.529 66.7594 31.5903 67.0811 31.5903C67.4958 31.5903 67.847 31.5057 68.1348 31.3364C68.4225 31.1672 68.6743 30.9408 68.8901 30.6572L69.6011 31.2222C69.453 31.4465 69.2646 31.6602 69.0361 31.8633C68.8076 32.0664 68.5262 32.2314 68.1919 32.3584C67.8618 32.4854 67.4704 32.5488 67.0176 32.5488Z" fill="#8E8E8E"/>
</svg>
