<svg width="76" height="19" viewBox="0 0 76 19" fill="none" xmlns="http://www.w3.org/2000/svg">
<g clip-path="url(#clip0_1_236)">
<path d="M6.11269 4.17969V13.4219H4.8876V4.17969H6.11269ZM9.98476 8.3374V9.34033H5.84609V8.3374H9.98476ZM10.6132 4.17969V5.18262H5.84609V4.17969H10.6132ZM11.4447 10.064V9.91797C11.4447 9.42285 11.5167 8.9637 11.6605 8.54053C11.8044 8.11312 12.0118 7.74284 12.2826 7.42969C12.5534 7.1123 12.8814 6.86686 13.2665 6.69336C13.6516 6.51562 14.0832 6.42676 14.5614 6.42676C15.0438 6.42676 15.4776 6.51562 15.8627 6.69336C16.252 6.86686 16.5821 7.1123 16.8529 7.42969C17.128 7.74284 17.3375 8.11312 17.4813 8.54053C17.6252 8.9637 17.6972 9.42285 17.6972 9.91797V10.064C17.6972 10.5591 17.6252 11.0182 17.4813 11.4414C17.3375 11.8646 17.128 12.2349 16.8529 12.5522C16.5821 12.8654 16.2541 13.1108 15.869 13.2886C15.4882 13.4621 15.0565 13.5488 14.5741 13.5488C14.0917 13.5488 13.6579 13.4621 13.2729 13.2886C12.8878 13.1108 12.5577 12.8654 12.2826 12.5522C12.0118 12.2349 11.8044 11.8646 11.6605 11.4414C11.5167 11.0182 11.4447 10.5591 11.4447 10.064ZM12.619 9.91797V10.064C12.619 10.4067 12.6592 10.7305 12.7396 11.0352C12.8201 11.3356 12.9407 11.6022 13.1015 11.835C13.2665 12.0677 13.4717 12.2518 13.7172 12.3872C13.9626 12.5184 14.2483 12.584 14.5741 12.584C14.8957 12.584 15.1771 12.5184 15.4184 12.3872C15.6638 12.2518 15.8669 12.0677 16.0277 11.835C16.1885 11.6022 16.3091 11.3356 16.3895 11.0352C16.4742 10.7305 16.5165 10.4067 16.5165 10.064V9.91797C16.5165 9.57943 16.4742 9.25993 16.3895 8.95947C16.3091 8.65479 16.1864 8.38607 16.0214 8.15332C15.8606 7.91634 15.6575 7.73014 15.412 7.59473C15.1708 7.45931 14.8873 7.3916 14.5614 7.3916C14.2398 7.3916 13.9563 7.45931 13.7108 7.59473C13.4696 7.73014 13.2665 7.91634 13.1015 8.15332C12.9407 8.38607 12.8201 8.65479 12.7396 8.95947C12.6592 9.25993 12.619 9.57943 12.619 9.91797ZM20.4457 3.67188V13.4219H19.265V3.67188H20.4457ZM23.6068 3.67188V13.4219H22.4262V3.67188H23.6068ZM25.1811 10.064V9.91797C25.1811 9.42285 25.253 8.9637 25.3969 8.54053C25.5408 8.11312 25.7481 7.74284 26.0189 7.42969C26.2898 7.1123 26.6177 6.86686 27.0028 6.69336C27.3879 6.51562 27.8196 6.42676 28.2978 6.42676C28.7802 6.42676 29.2139 6.51562 29.599 6.69336C29.9883 6.86686 30.3184 7.1123 30.5893 7.42969C30.8643 7.74284 31.0738 8.11312 31.2177 8.54053C31.3616 8.9637 31.4335 9.42285 31.4335 9.91797V10.064C31.4335 10.5591 31.3616 11.0182 31.2177 11.4414C31.0738 11.8646 30.8643 12.2349 30.5893 12.5522C30.3184 12.8654 29.9905 13.1108 29.6054 13.2886C29.2245 13.4621 28.7929 13.5488 28.3104 13.5488C27.828 13.5488 27.3943 13.4621 27.0092 13.2886C26.6241 13.1108 26.294 12.8654 26.0189 12.5522C25.7481 12.2349 25.5408 11.8646 25.3969 11.4414C25.253 11.0182 25.1811 10.5591 25.1811 10.064ZM26.3554 9.91797V10.064C26.3554 10.4067 26.3956 10.7305 26.476 11.0352C26.5564 11.3356 26.677 11.6022 26.8378 11.835C27.0028 12.0677 27.2081 12.2518 27.4535 12.3872C27.699 12.5184 27.9846 12.584 28.3104 12.584C28.6321 12.584 28.9135 12.5184 29.1547 12.3872C29.4001 12.2518 29.6033 12.0677 29.7641 11.835C29.9249 11.6022 30.0455 11.3356 30.1259 11.0352C30.2105 10.7305 30.2528 10.4067 30.2528 10.064V9.91797C30.2528 9.57943 30.2105 9.25993 30.1259 8.95947C30.0455 8.65479 29.9228 8.38607 29.7577 8.15332C29.5969 7.91634 29.3938 7.73014 29.1483 7.59473C28.9071 7.45931 28.6236 7.3916 28.2978 7.3916C27.9761 7.3916 27.6926 7.45931 27.4472 7.59473C27.206 7.73014 27.0028 7.91634 26.8378 8.15332C26.677 8.38607 26.5564 8.65479 26.476 8.95947C26.3956 9.25993 26.3554 9.57943 26.3554 9.91797ZM34.6454 12.2031L36.4101 6.55371H37.1845L37.0321 7.67725L35.2357 13.4219H34.4804L34.6454 12.2031ZM33.4584 6.55371L34.9628 12.2666L35.0707 13.4219H34.2772L32.2841 6.55371H33.4584ZM38.8729 12.2222L40.3075 6.55371H41.4755L39.4823 13.4219H38.6952L38.8729 12.2222ZM37.3559 6.55371L39.0824 12.1079L39.2792 13.4219H38.5302L36.683 7.66455L36.5307 6.55371H37.3559ZM46.6806 11.6001C46.6806 11.4308 46.6425 11.2743 46.5663 11.1304C46.4944 10.9823 46.3441 10.849 46.1156 10.7305C45.8913 10.6077 45.5528 10.502 45.1 10.4131C44.7191 10.3327 44.3742 10.2375 44.0653 10.1274C43.7606 10.0174 43.5004 9.88411 43.2846 9.72754C43.073 9.57096 42.9101 9.38688 42.7958 9.17529C42.6815 8.9637 42.6244 8.71615 42.6244 8.43262C42.6244 8.16178 42.6837 7.90576 42.8021 7.66455C42.9249 7.42334 43.0963 7.20964 43.3163 7.02344C43.5406 6.83724 43.8093 6.69124 44.1225 6.58545C44.4356 6.47965 44.7847 6.42676 45.1698 6.42676C45.72 6.42676 46.1897 6.52409 46.579 6.71875C46.9683 6.91341 47.2667 7.17367 47.474 7.49951C47.6814 7.82113 47.7851 8.17871 47.7851 8.57227H46.6107C46.6107 8.38184 46.5536 8.19775 46.4394 8.02002C46.3293 7.83805 46.1664 7.68783 45.9506 7.56934C45.739 7.45085 45.4787 7.3916 45.1698 7.3916C44.844 7.3916 44.5795 7.44238 44.3764 7.54395C44.1775 7.64128 44.0315 7.76611 43.9384 7.91846C43.8495 8.0708 43.8051 8.23161 43.8051 8.40088C43.8051 8.52783 43.8262 8.64209 43.8686 8.74365C43.9151 8.84098 43.9955 8.93197 44.1098 9.0166C44.224 9.09701 44.3848 9.17318 44.5922 9.24512C44.7995 9.31706 45.064 9.389 45.3856 9.46094C45.9485 9.58789 46.4118 9.74023 46.7758 9.91797C47.1397 10.0957 47.4105 10.3136 47.5883 10.5718C47.766 10.8299 47.8549 11.1431 47.8549 11.5112C47.8549 11.8117 47.7914 12.0868 47.6645 12.3364C47.5417 12.5861 47.3619 12.8019 47.1249 12.9839C46.8922 13.1616 46.6129 13.3013 46.287 13.4028C45.9654 13.5002 45.6036 13.5488 45.2016 13.5488C44.5964 13.5488 44.0844 13.4409 43.6654 13.2251C43.2465 13.0093 42.9291 12.73 42.7133 12.3872C42.4975 12.0444 42.3895 11.6826 42.3895 11.3018H43.5702C43.5871 11.6234 43.6802 11.8794 43.8495 12.0698C44.0188 12.256 44.2261 12.3893 44.4716 12.4697C44.717 12.5459 44.9604 12.584 45.2016 12.584C45.5232 12.584 45.7919 12.5417 46.0077 12.457C46.2278 12.3724 46.3949 12.256 46.5092 12.1079C46.6234 11.9598 46.6806 11.7905 46.6806 11.6001ZM54.5517 12.7109L56.4623 6.55371H57.7191L54.9643 14.4819C54.9008 14.6512 54.8161 14.8332 54.7104 15.0278C54.6088 15.2267 54.4776 15.415 54.3168 15.5928C54.156 15.7705 53.9613 15.9144 53.7328 16.0244C53.5085 16.1387 53.2398 16.1958 52.9267 16.1958C52.8336 16.1958 52.7151 16.1831 52.5712 16.1577C52.4273 16.1323 52.3257 16.1112 52.2665 16.0942L52.2602 15.1421C52.294 15.1463 52.3469 15.1506 52.4188 15.1548C52.495 15.1632 52.5479 15.1675 52.5775 15.1675C52.8441 15.1675 53.0705 15.1315 53.2567 15.0596C53.4429 14.9919 53.5995 14.8755 53.7265 14.7104C53.8576 14.5496 53.9698 14.3275 54.0629 14.0439L54.5517 12.7109ZM53.1488 6.55371L54.9325 11.8857L55.2372 13.1235L54.393 13.5552L51.8666 6.55371H53.1488ZM58.3666 10.064V9.91797C58.3666 9.42285 58.4385 8.9637 58.5824 8.54053C58.7263 8.11312 58.9337 7.74284 59.2045 7.42969C59.4753 7.1123 59.8033 6.86686 60.1884 6.69336C60.5735 6.51562 61.0051 6.42676 61.4833 6.42676C61.9657 6.42676 62.3995 6.51562 62.7846 6.69336C63.1739 6.86686 63.504 7.1123 63.7748 7.42969C64.0499 7.74284 64.2593 8.11312 64.4032 8.54053C64.5471 8.9637 64.619 9.42285 64.619 9.91797V10.064C64.619 10.5591 64.5471 11.0182 64.4032 11.4414C64.2593 11.8646 64.0499 12.2349 63.7748 12.5522C63.504 12.8654 63.176 13.1108 62.7909 13.2886C62.4101 13.4621 61.9784 13.5488 61.496 13.5488C61.0136 13.5488 60.5798 13.4621 60.1947 13.2886C59.8096 13.1108 59.4796 12.8654 59.2045 12.5522C58.9337 12.2349 58.7263 11.8646 58.5824 11.4414C58.4385 11.0182 58.3666 10.5591 58.3666 10.064ZM59.5409 9.91797V10.064C59.5409 10.4067 59.5811 10.7305 59.6615 11.0352C59.7419 11.3356 59.8625 11.6022 60.0233 11.835C60.1884 12.0677 60.3936 12.2518 60.6391 12.3872C60.8845 12.5184 61.1701 12.584 61.496 12.584C61.8176 12.584 62.099 12.5184 62.3402 12.3872C62.5857 12.2518 62.7888 12.0677 62.9496 11.835C63.1104 11.6022 63.231 11.3356 63.3114 11.0352C63.3961 10.7305 63.4384 10.4067 63.4384 10.064V9.91797C63.4384 9.57943 63.3961 9.25993 63.3114 8.95947C63.231 8.65479 63.1083 8.38607 62.9433 8.15332C62.7825 7.91634 62.5793 7.73014 62.3339 7.59473C62.0927 7.45931 61.8091 7.3916 61.4833 7.3916C61.1617 7.3916 60.8782 7.45931 60.6327 7.59473C60.3915 7.73014 60.1884 7.91634 60.0233 8.15332C59.8625 8.38607 59.7419 8.65479 59.6615 8.95947C59.5811 9.25993 59.5409 9.57943 59.5409 9.91797ZM70.2938 11.835V6.55371H71.4745V13.4219H70.351L70.2938 11.835ZM70.516 10.3877L71.0048 10.375C71.0048 10.832 70.9561 11.2552 70.8588 11.6445C70.7657 12.0296 70.6133 12.3639 70.4018 12.6475C70.1902 12.931 69.913 13.1532 69.5702 13.314C69.2274 13.4705 68.8106 13.5488 68.3197 13.5488C67.9854 13.5488 67.6786 13.5002 67.3993 13.4028C67.1242 13.3055 66.8873 13.1553 66.6884 12.9521C66.4895 12.749 66.335 12.4845 66.225 12.1587C66.1192 11.8328 66.0663 11.4414 66.0663 10.9844V6.55371H67.2406V10.9971C67.2406 11.306 67.2745 11.562 67.3422 11.7651C67.4141 11.964 67.5093 12.1227 67.6278 12.2412C67.7506 12.3555 67.886 12.4359 68.0341 12.4824C68.1864 12.529 68.343 12.5522 68.5038 12.5522C69.0032 12.5522 69.3988 12.457 69.6908 12.2666C69.9828 12.0719 70.1923 11.8117 70.3192 11.4858C70.4504 11.1558 70.516 10.7897 70.516 10.3877Z" fill="#8E8E8E"/>
</g>
<defs>
<clipPath id="clip0_1_236">
<rect width="75.3594" height="18" fill="white" transform="translate(0.3125 0.421875)"/>
</clipPath>
</defs>
</svg>
