<svg width="82" height="33" viewBox="0 0 82 33" fill="none" xmlns="http://www.w3.org/2000/svg">
<rect x="0.15625" y="0.421875" width="81.6719" height="32" rx="8" fill="#0095F6"/>
<path d="M22.4785 11.4688V21.4219H20.5986V11.4688H22.4785ZM26.4912 15.7686V17.252H21.9863V15.7686H26.4912ZM27.0176 11.4688V12.9521H21.9863V11.4688H27.0176ZM27.6875 17.7988V17.6553C27.6875 17.113 27.765 16.6139 27.9199 16.1582C28.0749 15.6979 28.3005 15.2992 28.5967 14.9619C28.8929 14.6247 29.2552 14.3626 29.6836 14.1758C30.112 13.9844 30.5996 13.8887 31.1465 13.8887C31.7025 13.8887 32.1947 13.9844 32.623 14.1758C33.056 14.3626 33.4206 14.6247 33.7168 14.9619C34.013 15.2992 34.2386 15.6979 34.3936 16.1582C34.5485 16.6139 34.626 17.113 34.626 17.6553V17.7988C34.626 18.3366 34.5485 18.8356 34.3936 19.2959C34.2386 19.7516 34.013 20.1504 33.7168 20.4922C33.4206 20.8294 33.0583 21.0915 32.6299 21.2783C32.2015 21.4652 31.7116 21.5586 31.1602 21.5586C30.6133 21.5586 30.1234 21.4652 29.6904 21.2783C29.2575 21.0915 28.8929 20.8294 28.5967 20.4922C28.3005 20.1504 28.0749 19.7516 27.9199 19.2959C27.765 18.8356 27.6875 18.3366 27.6875 17.7988ZM29.4922 17.6553V17.7988C29.4922 18.1224 29.5241 18.4255 29.5879 18.708C29.6517 18.9906 29.7497 19.2389 29.8818 19.4531C30.014 19.6673 30.1849 19.8359 30.3945 19.959C30.6087 20.0775 30.8639 20.1367 31.1602 20.1367C31.4518 20.1367 31.7025 20.0775 31.9121 19.959C32.1217 19.8359 32.2926 19.6673 32.4248 19.4531C32.5615 19.2389 32.6618 18.9906 32.7256 18.708C32.7894 18.4255 32.8213 18.1224 32.8213 17.7988V17.6553C32.8213 17.3363 32.7894 17.0378 32.7256 16.7598C32.6618 16.4772 32.5615 16.2288 32.4248 16.0146C32.2926 15.7959 32.1195 15.625 31.9053 15.502C31.6956 15.3743 31.4427 15.3105 31.1465 15.3105C30.8548 15.3105 30.6042 15.3743 30.3945 15.502C30.1849 15.625 30.014 15.7959 29.8818 16.0146C29.7497 16.2288 29.6517 16.4772 29.5879 16.7598C29.5241 17.0378 29.4922 17.3363 29.4922 17.6553ZM37.8525 10.9219V21.4219H36.041V10.9219H37.8525ZM41.4893 10.9219V21.4219H39.6777V10.9219H41.4893ZM42.8906 17.7988V17.6553C42.8906 17.113 42.9681 16.6139 43.123 16.1582C43.278 15.6979 43.5036 15.2992 43.7998 14.9619C44.096 14.6247 44.4583 14.3626 44.8867 14.1758C45.3151 13.9844 45.8027 13.8887 46.3496 13.8887C46.9056 13.8887 47.3978 13.9844 47.8262 14.1758C48.2591 14.3626 48.6237 14.6247 48.9199 14.9619C49.2161 15.2992 49.4417 15.6979 49.5967 16.1582C49.7516 16.6139 49.8291 17.113 49.8291 17.6553V17.7988C49.8291 18.3366 49.7516 18.8356 49.5967 19.2959C49.4417 19.7516 49.2161 20.1504 48.9199 20.4922C48.6237 20.8294 48.2614 21.0915 47.833 21.2783C47.4046 21.4652 46.9147 21.5586 46.3633 21.5586C45.8164 21.5586 45.3265 21.4652 44.8936 21.2783C44.4606 21.0915 44.096 20.8294 43.7998 20.4922C43.5036 20.1504 43.278 19.7516 43.123 19.2959C42.9681 18.8356 42.8906 18.3366 42.8906 17.7988ZM44.6953 17.6553V17.7988C44.6953 18.1224 44.7272 18.4255 44.791 18.708C44.8548 18.9906 44.9528 19.2389 45.085 19.4531C45.2171 19.6673 45.388 19.8359 45.5977 19.959C45.8118 20.0775 46.0671 20.1367 46.3633 20.1367C46.6549 20.1367 46.9056 20.0775 47.1152 19.959C47.3249 19.8359 47.4958 19.6673 47.6279 19.4531C47.7646 19.2389 47.8649 18.9906 47.9287 18.708C47.9925 18.4255 48.0244 18.1224 48.0244 17.7988V17.6553C48.0244 17.3363 47.9925 17.0378 47.9287 16.7598C47.8649 16.4772 47.7646 16.2288 47.6279 16.0146C47.4958 15.7959 47.3226 15.625 47.1084 15.502C46.8988 15.3743 46.6458 15.3105 46.3496 15.3105C46.0579 15.3105 45.8073 15.3743 45.5977 15.502C45.388 15.625 45.2171 15.7959 45.085 16.0146C44.9528 16.2288 44.8548 16.4772 44.791 16.7598C44.7272 17.0378 44.6953 17.3363 44.6953 17.6553ZM53.1992 19.6445L54.8193 14.0254H55.9678L55.626 15.9668L53.9922 21.4219H53.001L53.1992 19.6445ZM52.3037 14.0254L53.5205 19.6582L53.6299 21.4219H52.4883L50.5469 14.0254H52.3037ZM57.4717 19.5762L58.6611 14.0254H60.4111L58.4834 21.4219H57.3418L57.4717 19.5762ZM56.1455 14.0254L57.752 19.5898L57.9639 21.4219H56.9727L55.3252 15.9668L54.9902 14.0254H56.1455Z" fill="white"/>
</svg>
