<svg width="76" height="19" viewBox="0 0 76 19" fill="none" xmlns="http://www.w3.org/2000/svg">
<g clip-path="url(#clip0_1_233)">
<path d="M2.61035 4.17969V13.4219H1.38525V4.17969H2.61035ZM8.18994 4.17969L4.34961 8.48975L2.19141 10.7305L1.98828 9.42285L3.61328 7.63281L6.71729 4.17969H8.18994ZM7.00928 13.4219L3.58789 8.91504L4.31787 7.94385L8.46924 13.4219H7.00928ZM10.6465 6.55371V13.4219H9.46582V6.55371H10.6465ZM9.37695 4.73193C9.37695 4.5415 9.43408 4.3807 9.54834 4.24951C9.66683 4.11833 9.84033 4.05273 10.0688 4.05273C10.2931 4.05273 10.4645 4.11833 10.583 4.24951C10.7057 4.3807 10.7671 4.5415 10.7671 4.73193C10.7671 4.9139 10.7057 5.07048 10.583 5.20166C10.4645 5.32861 10.2931 5.39209 10.0688 5.39209C9.84033 5.39209 9.66683 5.32861 9.54834 5.20166C9.43408 5.07048 9.37695 4.9139 9.37695 4.73193ZM13.7061 7.63281V13.4219H12.5317V6.55371H13.6743L13.7061 7.63281ZM15.8516 6.51562L15.8452 7.60742C15.7479 7.58626 15.6548 7.57357 15.5659 7.56934C15.4813 7.56087 15.384 7.55664 15.2739 7.55664C15.0031 7.55664 14.764 7.59896 14.5566 7.68359C14.3493 7.76823 14.1737 7.88672 14.0298 8.03906C13.8859 8.19141 13.7716 8.37337 13.687 8.58496C13.6066 8.79232 13.5537 9.02083 13.5283 9.27051L13.1982 9.46094C13.1982 9.04622 13.2384 8.6569 13.3188 8.29297C13.4035 7.92904 13.5326 7.60742 13.7061 7.32812C13.8796 7.0446 14.0996 6.82454 14.3662 6.66797C14.637 6.50716 14.9587 6.42676 15.3311 6.42676C15.4157 6.42676 15.513 6.43734 15.623 6.4585C15.7331 6.47542 15.8092 6.49447 15.8516 6.51562ZM20.1299 6.55371V7.45508H16.4165V6.55371H20.1299ZM17.6733 4.88428H18.8477V11.7207C18.8477 11.9535 18.8836 12.1291 18.9556 12.2476C19.0275 12.366 19.1206 12.4443 19.2349 12.4824C19.3491 12.5205 19.4718 12.5396 19.603 12.5396C19.7004 12.5396 19.8019 12.5311 19.9077 12.5142C20.0177 12.493 20.1003 12.4761 20.1553 12.4634L20.1616 13.4219C20.0685 13.4515 19.9458 13.479 19.7935 13.5044C19.6453 13.534 19.4655 13.5488 19.2539 13.5488C18.9661 13.5488 18.7017 13.4917 18.4604 13.3774C18.2192 13.2632 18.0267 13.0728 17.8828 12.8062C17.7432 12.5353 17.6733 12.1714 17.6733 11.7144V4.88428ZM22.7832 6.55371V13.4219H21.6025V6.55371H22.7832ZM21.5137 4.73193C21.5137 4.5415 21.5708 4.3807 21.6851 4.24951C21.8035 4.11833 21.9771 4.05273 22.2056 4.05273C22.4299 4.05273 22.6012 4.11833 22.7197 4.24951C22.8424 4.3807 22.9038 4.5415 22.9038 4.73193C22.9038 4.9139 22.8424 5.07048 22.7197 5.20166C22.6012 5.32861 22.4299 5.39209 22.2056 5.39209C21.9771 5.39209 21.8035 5.32861 21.6851 5.20166C21.5708 5.07048 21.5137 4.9139 21.5137 4.73193ZM33.6504 10.4829H34.8691C34.8057 11.0669 34.6385 11.5895 34.3677 12.0508C34.0968 12.512 33.7139 12.8781 33.2188 13.1489C32.7236 13.4155 32.1058 13.5488 31.3652 13.5488C30.8236 13.5488 30.3306 13.4473 29.8862 13.2441C29.4461 13.041 29.0674 12.7533 28.75 12.3809C28.4326 12.0042 28.1872 11.5535 28.0137 11.0288C27.8444 10.4998 27.7598 9.91162 27.7598 9.26416V8.34375C27.7598 7.69629 27.8444 7.11019 28.0137 6.58545C28.1872 6.05648 28.4347 5.60368 28.7563 5.22705C29.0822 4.85042 29.4736 4.56055 29.9307 4.35742C30.3877 4.1543 30.9019 4.05273 31.4731 4.05273C32.1714 4.05273 32.7617 4.18392 33.2441 4.44629C33.7266 4.70866 34.1011 5.07259 34.3677 5.53809C34.6385 5.99935 34.8057 6.53467 34.8691 7.14404H33.6504C33.5911 6.7124 33.4811 6.34212 33.3203 6.0332C33.1595 5.72005 32.931 5.47884 32.6348 5.30957C32.3385 5.1403 31.9513 5.05566 31.4731 5.05566C31.0627 5.05566 30.7008 5.13395 30.3877 5.29053C30.0788 5.4471 29.8185 5.66927 29.6069 5.95703C29.3996 6.24479 29.243 6.58968 29.1372 6.9917C29.0314 7.39372 28.9785 7.84017 28.9785 8.33105V9.26416C28.9785 9.71696 29.0251 10.1423 29.1182 10.54C29.2155 10.9378 29.3615 11.2869 29.5562 11.5874C29.7508 11.8879 29.9984 12.1248 30.2988 12.2983C30.5993 12.4676 30.9548 12.5522 31.3652 12.5522C31.8857 12.5522 32.3005 12.4697 32.6094 12.3047C32.9183 12.1396 33.151 11.9027 33.3076 11.5938C33.4684 11.2848 33.5827 10.9146 33.6504 10.4829ZM37.5352 3.67188V13.4219H36.3608V3.67188H37.5352ZM37.2559 9.72754L36.7671 9.7085C36.7713 9.23877 36.8411 8.80501 36.9766 8.40723C37.112 8.00521 37.3024 7.65609 37.5479 7.35986C37.7933 7.06364 38.0853 6.83512 38.4238 6.67432C38.7666 6.50928 39.1453 6.42676 39.5601 6.42676C39.8986 6.42676 40.2033 6.47331 40.4741 6.56641C40.745 6.65527 40.9756 6.79915 41.166 6.99805C41.3607 7.19694 41.5088 7.45508 41.6104 7.77246C41.7119 8.08561 41.7627 8.46859 41.7627 8.92139V13.4219H40.582V8.90869C40.582 8.54899 40.5291 8.26123 40.4233 8.04541C40.3175 7.82536 40.1631 7.66667 39.96 7.56934C39.7568 7.46777 39.5072 7.41699 39.2109 7.41699C38.9189 7.41699 38.6523 7.47835 38.4111 7.60107C38.1742 7.7238 37.9689 7.89307 37.7954 8.10889C37.6261 8.32471 37.4928 8.57227 37.3955 8.85156C37.3024 9.12663 37.2559 9.41862 37.2559 9.72754ZM47.5708 12.2476V8.71191C47.5708 8.44108 47.5158 8.20622 47.4058 8.00732C47.3 7.8042 47.1392 7.64762 46.9233 7.5376C46.7075 7.42757 46.4409 7.37256 46.1235 7.37256C45.8273 7.37256 45.5671 7.42334 45.3428 7.5249C45.1227 7.62646 44.9492 7.75977 44.8223 7.9248C44.6995 8.08984 44.6382 8.26758 44.6382 8.45801H43.4639C43.4639 8.21257 43.5273 7.96924 43.6543 7.72803C43.7812 7.48682 43.9632 7.26888 44.2002 7.07422C44.4414 6.87533 44.7292 6.71875 45.0635 6.60449C45.402 6.486 45.7786 6.42676 46.1934 6.42676C46.6927 6.42676 47.1328 6.51139 47.5137 6.68066C47.8988 6.84993 48.1992 7.10596 48.415 7.44873C48.6351 7.78727 48.7451 8.21257 48.7451 8.72461V11.9238C48.7451 12.1523 48.7642 12.3957 48.8022 12.6538C48.8446 12.9119 48.9059 13.1341 48.9863 13.3203V13.4219H47.7612C47.702 13.2865 47.6554 13.1066 47.6216 12.8823C47.5877 12.6538 47.5708 12.4422 47.5708 12.2476ZM47.7739 9.25781L47.7866 10.083H46.5996C46.2653 10.083 45.967 10.1105 45.7046 10.1655C45.4422 10.2163 45.2222 10.2946 45.0444 10.4004C44.8667 10.5062 44.7313 10.6395 44.6382 10.8003C44.5451 10.9569 44.4985 11.141 44.4985 11.3525C44.4985 11.5684 44.5472 11.7651 44.6445 11.9429C44.7419 12.1206 44.8879 12.2624 45.0825 12.3682C45.2814 12.4697 45.5247 12.5205 45.8125 12.5205C46.1722 12.5205 46.4896 12.4443 46.7646 12.292C47.0397 12.1396 47.2576 11.9535 47.4185 11.7334C47.5835 11.5133 47.6724 11.2996 47.6851 11.0923L48.1865 11.6572C48.1569 11.835 48.0765 12.0317 47.9453 12.2476C47.8141 12.4634 47.6385 12.6707 47.4185 12.8696C47.2026 13.0643 46.9445 13.2272 46.644 13.3584C46.3478 13.4854 46.0135 13.5488 45.6411 13.5488C45.1756 13.5488 44.7673 13.4578 44.416 13.2759C44.069 13.0939 43.7982 12.8506 43.6035 12.5459C43.4131 12.237 43.3179 11.8921 43.3179 11.5112C43.3179 11.1431 43.3898 10.8193 43.5337 10.54C43.6776 10.2565 43.8849 10.0216 44.1558 9.83545C44.4266 9.64502 44.7524 9.50114 45.1333 9.40381C45.5142 9.30648 45.9395 9.25781 46.4092 9.25781H47.7739ZM54.9214 12.0889V3.67188H56.1021V13.4219H55.0229L54.9214 12.0889ZM50.3003 10.064V9.93066C50.3003 9.40592 50.3638 8.92985 50.4907 8.50244C50.6219 8.0708 50.806 7.70052 51.043 7.3916C51.2842 7.08268 51.5698 6.8457 51.8999 6.68066C52.2342 6.51139 52.6066 6.42676 53.0171 6.42676C53.4487 6.42676 53.8254 6.50293 54.147 6.65527C54.4728 6.80339 54.7479 7.02132 54.9722 7.30908C55.2007 7.59261 55.3805 7.93538 55.5117 8.3374C55.6429 8.73942 55.7339 9.19434 55.7847 9.70215V10.2861C55.7381 10.7897 55.6471 11.2425 55.5117 11.6445C55.3805 12.0465 55.2007 12.3893 54.9722 12.6729C54.7479 12.9564 54.4728 13.1743 54.147 13.3267C53.8211 13.4748 53.4403 13.5488 53.0044 13.5488C52.6024 13.5488 52.2342 13.4621 51.8999 13.2886C51.5698 13.1151 51.2842 12.8717 51.043 12.5586C50.806 12.2454 50.6219 11.8773 50.4907 11.4541C50.3638 11.0267 50.3003 10.5633 50.3003 10.064ZM51.481 9.93066V10.064C51.481 10.4067 51.5148 10.7284 51.5825 11.0288C51.6545 11.3293 51.7645 11.5938 51.9126 11.8223C52.0607 12.0508 52.249 12.2306 52.4775 12.3618C52.7061 12.4888 52.979 12.5522 53.2964 12.5522C53.6857 12.5522 54.0052 12.4697 54.2549 12.3047C54.5088 12.1396 54.7119 11.9217 54.8643 11.6509C55.0166 11.38 55.1351 11.0859 55.2197 10.7686V9.23877C55.1689 9.00602 55.0949 8.78174 54.9976 8.56592C54.9045 8.34587 54.7817 8.1512 54.6294 7.98193C54.4813 7.80843 54.2972 7.6709 54.0771 7.56934C53.8613 7.46777 53.6053 7.41699 53.3091 7.41699C52.9875 7.41699 52.7103 7.4847 52.4775 7.62012C52.249 7.7513 52.0607 7.93327 51.9126 8.16602C51.7645 8.39453 51.6545 8.66113 51.5825 8.96582C51.5148 9.26628 51.481 9.58789 51.481 9.93066ZM59.1045 3.67188V13.4219H57.9302V3.67188H59.1045ZM58.8252 9.72754L58.3364 9.7085C58.3407 9.23877 58.4105 8.80501 58.5459 8.40723C58.6813 8.00521 58.8717 7.65609 59.1172 7.35986C59.3626 7.06364 59.6546 6.83512 59.9932 6.67432C60.3359 6.50928 60.7147 6.42676 61.1294 6.42676C61.4679 6.42676 61.7726 6.47331 62.0435 6.56641C62.3143 6.65527 62.5449 6.79915 62.7354 6.99805C62.93 7.19694 63.0781 7.45508 63.1797 7.77246C63.2812 8.08561 63.332 8.46859 63.332 8.92139V13.4219H62.1514V8.90869C62.1514 8.54899 62.0985 8.26123 61.9927 8.04541C61.8869 7.82536 61.7324 7.66667 61.5293 7.56934C61.3262 7.46777 61.0765 7.41699 60.7803 7.41699C60.4883 7.41699 60.2217 7.47835 59.9805 7.60107C59.7435 7.7238 59.5382 7.89307 59.3647 8.10889C59.1955 8.32471 59.0622 8.57227 58.9648 8.85156C58.8717 9.12663 58.8252 9.41862 58.8252 9.72754ZM69.1401 12.2476V8.71191C69.1401 8.44108 69.0851 8.20622 68.9751 8.00732C68.8693 7.8042 68.7085 7.64762 68.4927 7.5376C68.2769 7.42757 68.0103 7.37256 67.6929 7.37256C67.3966 7.37256 67.1364 7.42334 66.9121 7.5249C66.6921 7.62646 66.5186 7.75977 66.3916 7.9248C66.2689 8.08984 66.2075 8.26758 66.2075 8.45801H65.0332C65.0332 8.21257 65.0967 7.96924 65.2236 7.72803C65.3506 7.48682 65.5326 7.26888 65.7695 7.07422C66.0107 6.87533 66.2985 6.71875 66.6328 6.60449C66.9714 6.486 67.348 6.42676 67.7627 6.42676C68.262 6.42676 68.7021 6.51139 69.083 6.68066C69.4681 6.84993 69.7686 7.10596 69.9844 7.44873C70.2044 7.78727 70.3145 8.21257 70.3145 8.72461V11.9238C70.3145 12.1523 70.3335 12.3957 70.3716 12.6538C70.4139 12.9119 70.4753 13.1341 70.5557 13.3203V13.4219H69.3306C69.2713 13.2865 69.2248 13.1066 69.1909 12.8823C69.1571 12.6538 69.1401 12.4422 69.1401 12.2476ZM69.3433 9.25781L69.356 10.083H68.1689C67.8346 10.083 67.5363 10.1105 67.2739 10.1655C67.0116 10.2163 66.7915 10.2946 66.6138 10.4004C66.436 10.5062 66.3006 10.6395 66.2075 10.8003C66.1144 10.9569 66.0679 11.141 66.0679 11.3525C66.0679 11.5684 66.1165 11.7651 66.2139 11.9429C66.3112 12.1206 66.4572 12.2624 66.6519 12.3682C66.8507 12.4697 67.0941 12.5205 67.3818 12.5205C67.7415 12.5205 68.0589 12.4443 68.334 12.292C68.609 12.1396 68.827 11.9535 68.9878 11.7334C69.1528 11.5133 69.2417 11.2996 69.2544 11.0923L69.7559 11.6572C69.7262 11.835 69.6458 12.0317 69.5146 12.2476C69.3835 12.4634 69.2078 12.6707 68.9878 12.8696C68.772 13.0643 68.5138 13.2272 68.2134 13.3584C67.9172 13.4854 67.5828 13.5488 67.2104 13.5488C66.745 13.5488 66.3366 13.4578 65.9854 13.2759C65.6383 13.0939 65.3675 12.8506 65.1729 12.5459C64.9824 12.237 64.8872 11.8921 64.8872 11.5112C64.8872 11.1431 64.9591 10.8193 65.103 10.54C65.2469 10.2565 65.4543 10.0216 65.7251 9.83545C65.9959 9.64502 66.3218 9.50114 66.7026 9.40381C67.0835 9.30648 67.5088 9.25781 67.9785 9.25781H69.3433Z" fill="#262626"/>
</g>
<defs>
<clipPath id="clip0_1_233">
<rect width="75.3594" height="18" fill="white" transform="translate(0.3125 0.421875)"/>
</clipPath>
</defs>
</svg>
