<svg width="67" height="20" viewBox="0 0 67 20" fill="none" xmlns="http://www.w3.org/2000/svg">
<path d="M5.33203 5.10352H5.56055V6.45557H5.45264C4.94059 6.45557 4.48991 6.53385 4.10059 6.69043C3.71549 6.84701 3.39388 7.06706 3.13574 7.35059C2.88184 7.62988 2.68929 7.96208 2.55811 8.34717C2.42692 8.72803 2.36133 9.14486 2.36133 9.59766V11.0957C2.36133 11.4469 2.3973 11.7559 2.46924 12.0225C2.54541 12.2848 2.64909 12.507 2.78027 12.689C2.91569 12.8667 3.07227 13 3.25 13.0889C3.43197 13.1777 3.63086 13.2222 3.84668 13.2222C4.0625 13.2222 4.25716 13.1777 4.43066 13.0889C4.60417 13 4.75228 12.8752 4.875 12.7144C5.00195 12.5493 5.09717 12.3568 5.16064 12.1367C5.22835 11.9167 5.26221 11.6755 5.26221 11.4131C5.26221 11.1549 5.23047 10.9159 5.16699 10.6958C5.10352 10.4757 5.01042 10.2832 4.8877 10.1182C4.76497 9.94889 4.61263 9.81982 4.43066 9.73096C4.25293 9.63786 4.0498 9.59131 3.82129 9.59131C3.52507 9.59131 3.26058 9.66113 3.02783 9.80078C2.79508 9.9362 2.611 10.1139 2.47559 10.334C2.34017 10.554 2.26611 10.7868 2.25342 11.0322L1.68848 10.7529C1.70964 10.3932 1.78581 10.0632 1.91699 9.7627C2.05241 9.46224 2.23226 9.19987 2.45654 8.97559C2.68506 8.7513 2.95378 8.5778 3.2627 8.45508C3.57585 8.33236 3.92285 8.271 4.30371 8.271C4.74382 8.271 5.12891 8.35563 5.45898 8.5249C5.78906 8.68994 6.06201 8.91634 6.27783 9.2041C6.49788 9.49186 6.66292 9.82406 6.77295 10.2007C6.88298 10.5731 6.93799 10.9666 6.93799 11.3813C6.93799 11.8257 6.86605 12.2404 6.72217 12.6255C6.58252 13.0106 6.37939 13.347 6.11279 13.6348C5.84619 13.9225 5.52458 14.1468 5.14795 14.3076C4.77132 14.4684 4.34814 14.5488 3.87842 14.5488C3.3833 14.5488 2.93896 14.4557 2.54541 14.2695C2.15609 14.0833 1.82178 13.8252 1.54248 13.4951C1.26318 13.165 1.04948 12.7799 0.901367 12.3398C0.753255 11.8997 0.679199 11.4237 0.679199 10.9116V10.2388C0.679199 9.51514 0.778646 8.84229 0.977539 8.22021C1.17643 7.59814 1.47054 7.05436 1.85986 6.58887C2.25342 6.11914 2.74007 5.75521 3.31982 5.49707C3.89958 5.2347 4.57031 5.10352 5.33203 5.10352ZM9.7627 12.9111L9.75 14.0728C9.75 14.5256 9.63786 14.9847 9.41357 15.4502C9.18929 15.9157 8.89941 16.3008 8.54395 16.6055L7.65527 16.1167C7.76953 15.9263 7.87533 15.7337 7.97266 15.5391C8.07422 15.3444 8.15462 15.1328 8.21387 14.9043C8.27734 14.68 8.30908 14.4282 8.30908 14.1489V12.9111H9.7627ZM17.3608 5.17969V6.09375L13.73 14.4219H11.959L15.5898 6.5H10.8926V5.17969H17.3608ZM24.8384 13.1016V14.4219H18.5796V13.292L21.582 10.0483C21.8952 9.69287 22.1427 9.38395 22.3247 9.12158C22.5067 8.85921 22.6357 8.62223 22.7119 8.41064C22.7923 8.19482 22.8325 7.98958 22.8325 7.79492C22.8325 7.51139 22.7817 7.26383 22.6802 7.05225C22.5786 6.83643 22.4305 6.66927 22.2358 6.55078C22.0454 6.43229 21.8105 6.37305 21.5312 6.37305C21.2223 6.37305 20.9578 6.44499 20.7378 6.58887C20.522 6.72852 20.3569 6.92318 20.2427 7.17285C20.1326 7.42253 20.0776 7.70817 20.0776 8.02979H18.3955C18.3955 7.48389 18.5225 6.98665 18.7764 6.53809C19.0303 6.08529 19.3942 5.72347 19.8682 5.45264C20.3421 5.1818 20.9049 5.04639 21.5566 5.04639C22.1914 5.04639 22.7288 5.15218 23.1689 5.36377C23.609 5.57113 23.9434 5.86735 24.1719 6.25244C24.4004 6.63753 24.5146 7.09668 24.5146 7.62988C24.5146 7.92611 24.466 8.2181 24.3687 8.50586C24.2713 8.79362 24.1338 9.07926 23.9561 9.36279C23.7826 9.64209 23.5752 9.92562 23.334 10.2134C23.0928 10.5011 22.8241 10.7952 22.5278 11.0957L20.7251 13.1016H24.8384ZM32.4238 11.0513V12.3716H25.7651L25.6953 11.356L29.6118 5.17969H30.9512L29.5039 7.63623L27.4028 11.0513H32.4238ZM31.3257 5.17969V14.4219H29.6436V5.17969H31.3257ZM38.5366 4.67188V14.4219H36.8545V4.67188H38.5366ZM41.9136 7.55371V14.4219H40.2314V7.55371H41.9136ZM40.1172 5.75732C40.1172 5.50765 40.2018 5.30029 40.3711 5.13525C40.5446 4.97021 40.7773 4.8877 41.0693 4.8877C41.3613 4.8877 41.592 4.97021 41.7612 5.13525C41.9347 5.30029 42.0215 5.50765 42.0215 5.75732C42.0215 6.00277 41.9347 6.20801 41.7612 6.37305C41.592 6.53809 41.3613 6.62061 41.0693 6.62061C40.7773 6.62061 40.5446 6.53809 40.3711 6.37305C40.2018 6.20801 40.1172 6.00277 40.1172 5.75732ZM45.189 4.66553V14.4219H43.5132V4.66553H45.189ZM49.4927 7.55371L46.5029 10.9116L44.8843 12.5557L44.3511 11.2544L45.6016 9.68018L47.4678 7.55371H49.4927ZM47.7788 14.4219L45.6523 11.2227L46.7695 10.1372L49.7212 14.4219H47.7788ZM53.3394 14.5488C52.8188 14.5488 52.3512 14.4642 51.9365 14.2949C51.5218 14.1257 51.1685 13.8908 50.8765 13.5903C50.5887 13.2856 50.3665 12.9323 50.21 12.5303C50.0576 12.124 49.9814 11.6882 49.9814 11.2227V10.9688C49.9814 10.4398 50.0576 9.95947 50.21 9.52783C50.3623 9.09196 50.5781 8.71745 50.8574 8.4043C51.1367 8.09115 51.471 7.84993 51.8604 7.68066C52.2497 7.51139 52.6792 7.42676 53.1489 7.42676C53.6356 7.42676 54.0651 7.50928 54.4375 7.67432C54.8099 7.83512 55.1209 8.06364 55.3706 8.35986C55.6203 8.65609 55.8086 9.01156 55.9355 9.42627C56.0625 9.83675 56.126 10.2917 56.126 10.791V11.4956H50.7432V10.3403H54.4756V10.2134C54.4671 9.94678 54.4163 9.70345 54.3232 9.4834C54.2301 9.25911 54.0863 9.08138 53.8916 8.9502C53.6969 8.81478 53.4451 8.74707 53.1362 8.74707C52.8866 8.74707 52.6686 8.80208 52.4824 8.91211C52.3005 9.0179 52.1481 9.17025 52.0254 9.36914C51.9069 9.5638 51.818 9.79655 51.7588 10.0674C51.6995 10.3382 51.6699 10.6387 51.6699 10.9688V11.2227C51.6699 11.5104 51.708 11.777 51.7842 12.0225C51.8646 12.2679 51.981 12.4816 52.1333 12.6636C52.2899 12.8413 52.4761 12.981 52.6919 13.0825C52.9119 13.1799 53.1616 13.2285 53.4409 13.2285C53.7922 13.2285 54.1095 13.1608 54.3931 13.0254C54.6808 12.8857 54.9305 12.6805 55.1421 12.4097L55.9863 13.2856C55.8424 13.4972 55.6478 13.7004 55.4023 13.895C55.1611 14.0897 54.8691 14.2484 54.5264 14.3711C54.1836 14.4896 53.7879 14.5488 53.3394 14.5488ZM61.0264 12.543C61.0264 12.3991 60.9883 12.27 60.9121 12.1558C60.8359 12.0415 60.6921 11.9378 60.4805 11.8447C60.2731 11.7474 59.9684 11.6564 59.5664 11.5718C59.2109 11.4956 58.883 11.4004 58.5825 11.2861C58.2821 11.1719 58.0239 11.0343 57.8081 10.8735C57.5923 10.7085 57.423 10.516 57.3003 10.2959C57.1818 10.0716 57.1226 9.81348 57.1226 9.52148C57.1226 9.23796 57.1839 8.97135 57.3066 8.72168C57.4294 8.46777 57.6071 8.24561 57.8398 8.05518C58.0726 7.86051 58.3561 7.70817 58.6904 7.59814C59.0247 7.48389 59.4014 7.42676 59.8203 7.42676C60.4043 7.42676 60.9058 7.52197 61.3247 7.7124C61.7479 7.90283 62.0716 8.1652 62.2959 8.49951C62.5202 8.82959 62.6323 9.20199 62.6323 9.6167H60.9565C60.9565 9.43473 60.9142 9.26969 60.8296 9.12158C60.7492 8.97347 60.6243 8.85498 60.4551 8.76611C60.2858 8.67301 60.0721 8.62646 59.814 8.62646C59.5812 8.62646 59.3844 8.66455 59.2236 8.74072C59.0671 8.81689 58.9486 8.91634 58.8682 9.03906C58.7878 9.16178 58.7476 9.2972 58.7476 9.44531C58.7476 9.55534 58.7687 9.65479 58.811 9.74365C58.8576 9.82829 58.9316 9.90658 59.0332 9.97852C59.1348 10.0505 59.2723 10.116 59.4458 10.1753C59.6235 10.2345 59.8415 10.2917 60.0996 10.3467C60.6117 10.4482 61.0581 10.5837 61.439 10.7529C61.8241 10.918 62.1245 11.138 62.3403 11.4131C62.5562 11.6882 62.6641 12.0394 62.6641 12.4668C62.6641 12.7715 62.5985 13.0508 62.4673 13.3047C62.3361 13.5544 62.1457 13.7723 61.896 13.9585C61.6463 14.1447 61.348 14.2907 61.001 14.3965C60.654 14.498 60.2625 14.5488 59.8267 14.5488C59.1961 14.5488 58.6629 14.4367 58.2271 14.2124C57.7912 13.9839 57.4611 13.6961 57.2368 13.3491C57.0125 12.9979 56.9004 12.634 56.9004 12.2573H58.5063C58.519 12.5239 58.591 12.7376 58.7222 12.8984C58.8534 13.0592 59.0184 13.1756 59.2173 13.2476C59.4204 13.3153 59.6341 13.3491 59.8584 13.3491C60.1123 13.3491 60.326 13.3153 60.4995 13.2476C60.673 13.1756 60.8042 13.0804 60.8931 12.9619C60.9819 12.8392 61.0264 12.6995 61.0264 12.543Z" fill="#262626"/>
</svg>
