<svg width="74" height="20" viewBox="0 0 74 20" fill="none" xmlns="http://www.w3.org/2000/svg">
<path d="M6.87451 5.17969V6.09375L3.24365 14.4219H1.47266L5.10352 6.5H0.40625V5.17969H6.87451ZM14.2251 11.8955C14.2251 12.471 14.0897 12.9577 13.8188 13.3555C13.5522 13.749 13.1862 14.0474 12.7207 14.2505C12.2594 14.4494 11.7347 14.5488 11.1465 14.5488C10.5625 14.5488 10.0356 14.4494 9.56592 14.2505C9.10042 14.0474 8.73014 13.749 8.45508 13.3555C8.18424 12.9577 8.04883 12.471 8.04883 11.8955C8.04883 11.5104 8.125 11.1613 8.27734 10.8481C8.43392 10.535 8.64974 10.2663 8.9248 10.042C9.19987 9.81348 9.52572 9.63997 9.90234 9.52148C10.279 9.39876 10.6895 9.3374 11.1338 9.3374C11.7262 9.3374 12.2552 9.44531 12.7207 9.66113C13.1904 9.87272 13.5586 10.1711 13.8252 10.5562C14.0918 10.937 14.2251 11.3835 14.2251 11.8955ZM12.5366 11.7939C12.5366 11.4977 12.4774 11.2417 12.3589 11.0259C12.2446 10.8058 12.0817 10.6366 11.8701 10.5181C11.6585 10.3996 11.4131 10.3403 11.1338 10.3403C10.8503 10.3403 10.6027 10.3996 10.3911 10.5181C10.1838 10.6366 10.0208 10.8058 9.90234 11.0259C9.78809 11.2417 9.73096 11.4977 9.73096 11.7939C9.73096 12.0944 9.78809 12.3525 9.90234 12.5684C10.0208 12.7799 10.1859 12.9429 10.3975 13.0571C10.609 13.1714 10.8587 13.2285 11.1465 13.2285C11.4342 13.2285 11.6818 13.1714 11.8892 13.0571C12.0965 12.9429 12.2552 12.7799 12.3652 12.5684C12.4795 12.3525 12.5366 12.0944 12.5366 11.7939ZM14.022 7.61719C14.022 8.08268 13.8993 8.4974 13.6538 8.86133C13.4084 9.22103 13.0677 9.50244 12.6318 9.70557C12.2002 9.90869 11.7051 10.0103 11.1465 10.0103C10.5879 10.0103 10.0885 9.90869 9.64844 9.70557C9.21257 9.50244 8.86979 9.22103 8.62012 8.86133C8.37467 8.4974 8.25195 8.08268 8.25195 7.61719C8.25195 7.06706 8.37679 6.60156 8.62646 6.2207C8.87614 5.83561 9.2168 5.54362 9.64844 5.34473C10.0843 5.14583 10.5794 5.04639 11.1338 5.04639C11.6966 5.04639 12.196 5.14583 12.6318 5.34473C13.0677 5.54362 13.4084 5.83561 13.6538 6.2207C13.8993 6.60156 14.022 7.06706 14.022 7.61719ZM12.3462 7.68701C12.3462 7.42464 12.2975 7.19613 12.2002 7.00146C12.1029 6.80257 11.9632 6.64811 11.7812 6.53809C11.6035 6.42806 11.3877 6.37305 11.1338 6.37305C10.8883 6.37305 10.6768 6.42594 10.499 6.53174C10.3213 6.63753 10.1838 6.78988 10.0864 6.98877C9.9891 7.18343 9.94043 7.41618 9.94043 7.68701C9.94043 7.95361 9.9891 8.18636 10.0864 8.38525C10.1838 8.58415 10.3213 8.74072 10.499 8.85498C10.681 8.96501 10.8968 9.02002 11.1465 9.02002C11.3962 9.02002 11.6099 8.96501 11.7876 8.85498C11.9653 8.74072 12.1029 8.58415 12.2002 8.38525C12.2975 8.18636 12.3462 7.95361 12.3462 7.68701ZM17.1895 12.9111L17.1768 14.0728C17.1768 14.5256 17.0646 14.9847 16.8403 15.4502C16.616 15.9157 16.3262 16.3008 15.9707 16.6055L15.082 16.1167C15.1963 15.9263 15.3021 15.7337 15.3994 15.5391C15.501 15.3444 15.5814 15.1328 15.6406 14.9043C15.7041 14.68 15.7358 14.4282 15.7358 14.1489V12.9111H17.1895ZM24.7876 5.17969V6.09375L21.1567 14.4219H19.3857L23.0166 6.5H18.3193V5.17969H24.7876ZM32.1382 11.8955C32.1382 12.471 32.0028 12.9577 31.7319 13.3555C31.4653 13.749 31.0993 14.0474 30.6338 14.2505C30.1725 14.4494 29.6478 14.5488 29.0596 14.5488C28.4756 14.5488 27.9487 14.4494 27.479 14.2505C27.0135 14.0474 26.6432 13.749 26.3682 13.3555C26.0973 12.9577 25.9619 12.471 25.9619 11.8955C25.9619 11.5104 26.0381 11.1613 26.1904 10.8481C26.347 10.535 26.5628 10.2663 26.8379 10.042C27.113 9.81348 27.4388 9.63997 27.8154 9.52148C28.1921 9.39876 28.6025 9.3374 29.0469 9.3374C29.6393 9.3374 30.1683 9.44531 30.6338 9.66113C31.1035 9.87272 31.4717 10.1711 31.7383 10.5562C32.0049 10.937 32.1382 11.3835 32.1382 11.8955ZM30.4497 11.7939C30.4497 11.4977 30.3905 11.2417 30.272 11.0259C30.1577 10.8058 29.9948 10.6366 29.7832 10.5181C29.5716 10.3996 29.3262 10.3403 29.0469 10.3403C28.7633 10.3403 28.5158 10.3996 28.3042 10.5181C28.0968 10.6366 27.9339 10.8058 27.8154 11.0259C27.7012 11.2417 27.644 11.4977 27.644 11.7939C27.644 12.0944 27.7012 12.3525 27.8154 12.5684C27.9339 12.7799 28.099 12.9429 28.3105 13.0571C28.5221 13.1714 28.7718 13.2285 29.0596 13.2285C29.3473 13.2285 29.5949 13.1714 29.8022 13.0571C30.0096 12.9429 30.1683 12.7799 30.2783 12.5684C30.3926 12.3525 30.4497 12.0944 30.4497 11.7939ZM31.9351 7.61719C31.9351 8.08268 31.8123 8.4974 31.5669 8.86133C31.3215 9.22103 30.9808 9.50244 30.5449 9.70557C30.1133 9.90869 29.6182 10.0103 29.0596 10.0103C28.501 10.0103 28.0016 9.90869 27.5615 9.70557C27.1257 9.50244 26.7829 9.22103 26.5332 8.86133C26.2878 8.4974 26.165 8.08268 26.165 7.61719C26.165 7.06706 26.2899 6.60156 26.5396 6.2207C26.7892 5.83561 27.1299 5.54362 27.5615 5.34473C27.9974 5.14583 28.4925 5.04639 29.0469 5.04639C29.6097 5.04639 30.109 5.14583 30.5449 5.34473C30.9808 5.54362 31.3215 5.83561 31.5669 6.2207C31.8123 6.60156 31.9351 7.06706 31.9351 7.61719ZM30.2593 7.68701C30.2593 7.42464 30.2106 7.19613 30.1133 7.00146C30.016 6.80257 29.8763 6.64811 29.6943 6.53809C29.5166 6.42806 29.3008 6.37305 29.0469 6.37305C28.8014 6.37305 28.5898 6.42594 28.4121 6.53174C28.2344 6.63753 28.0968 6.78988 27.9995 6.98877C27.9022 7.18343 27.8535 7.41618 27.8535 7.68701C27.8535 7.95361 27.9022 8.18636 27.9995 8.38525C28.0968 8.58415 28.2344 8.74072 28.4121 8.85498C28.5941 8.96501 28.8099 9.02002 29.0596 9.02002C29.3092 9.02002 29.5229 8.96501 29.7007 8.85498C29.8784 8.74072 30.016 8.58415 30.1133 8.38525C30.2106 8.18636 30.2593 7.95361 30.2593 7.68701ZM39.5522 9.00732V10.5625C39.5522 11.2734 39.4803 11.8807 39.3364 12.3843C39.1925 12.8879 38.9852 13.3005 38.7144 13.6221C38.4435 13.9395 38.1198 14.1743 37.7432 14.3267C37.3665 14.4748 36.9476 14.5488 36.4863 14.5488C36.1182 14.5488 35.7754 14.5023 35.458 14.4092C35.1406 14.3118 34.855 14.1637 34.6011 13.9648C34.3514 13.7617 34.1356 13.5036 33.9536 13.1904C33.7759 12.8773 33.6383 12.5028 33.541 12.0669C33.4479 11.631 33.4014 11.1296 33.4014 10.5625V9.00732C33.4014 8.29639 33.4733 7.69124 33.6172 7.19189C33.7653 6.69255 33.9748 6.28418 34.2456 5.9668C34.5164 5.64941 34.8402 5.41878 35.2168 5.2749C35.5934 5.12679 36.0124 5.05273 36.4736 5.05273C36.846 5.05273 37.1888 5.09928 37.502 5.19238C37.8193 5.28548 38.1029 5.43148 38.3525 5.63037C38.6064 5.82503 38.8223 6.07894 39 6.39209C39.1777 6.70101 39.3132 7.0734 39.4062 7.50928C39.5036 7.94092 39.5522 8.44027 39.5522 9.00732ZM37.8765 10.791V8.77246C37.8765 8.41699 37.8553 8.10807 37.813 7.8457C37.7749 7.5791 37.7178 7.3527 37.6416 7.1665C37.5654 6.98031 37.4702 6.83008 37.356 6.71582C37.2417 6.59733 37.1105 6.51058 36.9624 6.45557C36.8143 6.40055 36.6514 6.37305 36.4736 6.37305C36.2536 6.37305 36.0568 6.41748 35.8833 6.50635C35.7098 6.59098 35.5638 6.7264 35.4453 6.9126C35.3268 7.0988 35.2358 7.34635 35.1724 7.65527C35.1131 7.95996 35.0835 8.33236 35.0835 8.77246V10.791C35.0835 11.1465 35.1025 11.4575 35.1406 11.7241C35.1829 11.9907 35.2422 12.2192 35.3184 12.4097C35.3988 12.6001 35.494 12.7567 35.604 12.8794C35.7183 12.9979 35.8494 13.0868 35.9976 13.146C36.1457 13.201 36.3086 13.2285 36.4863 13.2285C36.7106 13.2285 36.9074 13.1841 37.0767 13.0952C37.2502 13.0063 37.3962 12.8667 37.5146 12.6763C37.6331 12.4816 37.722 12.2298 37.7812 11.9209C37.8447 11.6077 37.8765 11.2311 37.8765 10.791ZM45.9634 4.67188V14.4219H44.2812V4.67188H45.9634ZM49.3403 7.55371V14.4219H47.6582V7.55371H49.3403ZM47.5439 5.75732C47.5439 5.50765 47.6286 5.30029 47.7979 5.13525C47.9714 4.97021 48.2041 4.8877 48.4961 4.8877C48.7881 4.8877 49.0187 4.97021 49.188 5.13525C49.3615 5.30029 49.4482 5.50765 49.4482 5.75732C49.4482 6.00277 49.3615 6.20801 49.188 6.37305C49.0187 6.53809 48.7881 6.62061 48.4961 6.62061C48.2041 6.62061 47.9714 6.53809 47.7979 6.37305C47.6286 6.20801 47.5439 6.00277 47.5439 5.75732ZM52.6157 4.66553V14.4219H50.9399V4.66553H52.6157ZM56.9194 7.55371L53.9297 10.9116L52.311 12.5557L51.7778 11.2544L53.0283 9.68018L54.8945 7.55371H56.9194ZM55.2056 14.4219L53.0791 11.2227L54.1963 10.1372L57.1479 14.4219H55.2056ZM60.7661 14.5488C60.2456 14.5488 59.778 14.4642 59.3633 14.2949C58.9486 14.1257 58.5952 13.8908 58.3032 13.5903C58.0155 13.2856 57.7933 12.9323 57.6367 12.5303C57.4844 12.124 57.4082 11.6882 57.4082 11.2227V10.9688C57.4082 10.4398 57.4844 9.95947 57.6367 9.52783C57.7891 9.09196 58.0049 8.71745 58.2842 8.4043C58.5635 8.09115 58.8978 7.84993 59.2871 7.68066C59.6764 7.51139 60.106 7.42676 60.5757 7.42676C61.0623 7.42676 61.4919 7.50928 61.8643 7.67432C62.2367 7.83512 62.5477 8.06364 62.7974 8.35986C63.047 8.65609 63.2354 9.01156 63.3623 9.42627C63.4893 9.83675 63.5527 10.2917 63.5527 10.791V11.4956H58.1699V10.3403H61.9023V10.2134C61.8939 9.94678 61.8431 9.70345 61.75 9.4834C61.6569 9.25911 61.513 9.08138 61.3184 8.9502C61.1237 8.81478 60.8719 8.74707 60.563 8.74707C60.3133 8.74707 60.0954 8.80208 59.9092 8.91211C59.7272 9.0179 59.5749 9.17025 59.4521 9.36914C59.3337 9.5638 59.2448 9.79655 59.1855 10.0674C59.1263 10.3382 59.0967 10.6387 59.0967 10.9688V11.2227C59.0967 11.5104 59.1348 11.777 59.2109 12.0225C59.2913 12.2679 59.4077 12.4816 59.5601 12.6636C59.7166 12.8413 59.9028 12.981 60.1187 13.0825C60.3387 13.1799 60.5884 13.2285 60.8677 13.2285C61.2189 13.2285 61.5363 13.1608 61.8198 13.0254C62.1076 12.8857 62.3573 12.6805 62.5688 12.4097L63.4131 13.2856C63.2692 13.4972 63.0745 13.7004 62.8291 13.895C62.5879 14.0897 62.2959 14.2484 61.9531 14.3711C61.6104 14.4896 61.2147 14.5488 60.7661 14.5488ZM68.4531 12.543C68.4531 12.3991 68.415 12.27 68.3389 12.1558C68.2627 12.0415 68.1188 11.9378 67.9072 11.8447C67.6999 11.7474 67.3952 11.6564 66.9932 11.5718C66.6377 11.4956 66.3097 11.4004 66.0093 11.2861C65.7088 11.1719 65.4507 11.0343 65.2349 10.8735C65.019 10.7085 64.8498 10.516 64.7271 10.2959C64.6086 10.0716 64.5493 9.81348 64.5493 9.52148C64.5493 9.23796 64.6107 8.97135 64.7334 8.72168C64.8561 8.46777 65.0339 8.24561 65.2666 8.05518C65.4993 7.86051 65.7829 7.70817 66.1172 7.59814C66.4515 7.48389 66.8281 7.42676 67.2471 7.42676C67.8311 7.42676 68.3325 7.52197 68.7515 7.7124C69.1746 7.90283 69.4984 8.1652 69.7227 8.49951C69.9469 8.82959 70.0591 9.20199 70.0591 9.6167H68.3833C68.3833 9.43473 68.341 9.26969 68.2563 9.12158C68.1759 8.97347 68.0511 8.85498 67.8818 8.76611C67.7126 8.67301 67.4989 8.62646 67.2407 8.62646C67.008 8.62646 66.8112 8.66455 66.6504 8.74072C66.4938 8.81689 66.3753 8.91634 66.2949 9.03906C66.2145 9.16178 66.1743 9.2972 66.1743 9.44531C66.1743 9.55534 66.1955 9.65479 66.2378 9.74365C66.2843 9.82829 66.3584 9.90658 66.46 9.97852C66.5615 10.0505 66.6991 10.116 66.8726 10.1753C67.0503 10.2345 67.2682 10.2917 67.5264 10.3467C68.0384 10.4482 68.4849 10.5837 68.8657 10.7529C69.2508 10.918 69.5513 11.138 69.7671 11.4131C69.9829 11.6882 70.0908 12.0394 70.0908 12.4668C70.0908 12.7715 70.0252 13.0508 69.894 13.3047C69.7629 13.5544 69.5724 13.7723 69.3228 13.9585C69.0731 14.1447 68.7747 14.2907 68.4277 14.3965C68.0807 14.498 67.6893 14.5488 67.2534 14.5488C66.6229 14.5488 66.0897 14.4367 65.6538 14.2124C65.2179 13.9839 64.8879 13.6961 64.6636 13.3491C64.4393 12.9979 64.3271 12.634 64.3271 12.2573H65.9331C65.9458 12.5239 66.0177 12.7376 66.1489 12.8984C66.2801 13.0592 66.4451 13.1756 66.644 13.2476C66.8472 13.3153 67.0609 13.3491 67.2852 13.3491C67.5391 13.3491 67.7528 13.3153 67.9263 13.2476C68.0998 13.1756 68.231 13.0804 68.3198 12.9619C68.4087 12.8392 68.4531 12.6995 68.4531 12.543Z" fill="#262626"/>
</svg>
