<svg width="80" height="19" viewBox="0 0 80 19" fill="none" xmlns="http://www.w3.org/2000/svg">
<path d="M6.87451 4.75781V5.67188L3.24365 14H1.47266L5.10352 6.07812H0.40625V4.75781H6.87451ZM14.5107 10.6294V11.9497H7.85205L7.78223 10.9341L11.6987 4.75781H13.0381L11.5908 7.21436L9.48975 10.6294H14.5107ZM13.4126 4.75781V14H11.7305V4.75781H13.4126ZM19.8364 4.73242V14H18.1543V6.69385L15.9263 7.43018V6.07178L19.646 4.73242H19.8364ZM24.6162 12.4893L24.6035 13.6509C24.6035 14.1037 24.4914 14.5628 24.2671 15.0283C24.0428 15.4938 23.7529 15.8789 23.3975 16.1836L22.5088 15.6948C22.623 15.5044 22.7288 15.3118 22.8262 15.1172C22.9277 14.9225 23.0081 14.7109 23.0674 14.4824C23.1309 14.2581 23.1626 14.0063 23.1626 13.7271V12.4893H24.6162ZM27.8408 8.63623H28.7866C29.1209 8.63623 29.396 8.5791 29.6118 8.46484C29.8319 8.34635 29.9948 8.18555 30.1006 7.98242C30.2106 7.77507 30.2656 7.53597 30.2656 7.26514C30.2656 6.99854 30.217 6.7679 30.1196 6.57324C30.0223 6.37435 29.8742 6.22201 29.6753 6.11621C29.4806 6.00618 29.231 5.95117 28.9263 5.95117C28.6808 5.95117 28.4544 5.99984 28.2471 6.09717C28.0439 6.1945 27.881 6.33415 27.7583 6.51611C27.6398 6.69385 27.5806 6.90755 27.5806 7.15723H25.8984C25.8984 6.65788 26.0296 6.21989 26.292 5.84326C26.5586 5.4624 26.9183 5.16406 27.3711 4.94824C27.8239 4.73242 28.3296 4.62451 28.8882 4.62451C29.4976 4.62451 30.0308 4.72607 30.4878 4.9292C30.9491 5.12809 31.3066 5.4222 31.5605 5.81152C31.8187 6.20085 31.9478 6.68327 31.9478 7.25879C31.9478 7.53385 31.8822 7.80892 31.751 8.08398C31.624 8.35482 31.4357 8.60026 31.186 8.82031C30.9406 9.03613 30.638 9.21175 30.2783 9.34717C29.9229 9.47835 29.5145 9.54395 29.0532 9.54395H27.8408V8.63623ZM27.8408 9.93115V9.03613H29.0532C29.5737 9.03613 30.0244 9.09749 30.4053 9.22021C30.7904 9.3387 31.1077 9.50798 31.3574 9.72803C31.6071 9.94385 31.7912 10.1956 31.9097 10.4834C32.0324 10.7712 32.0938 11.0801 32.0938 11.4102C32.0938 11.8418 32.0133 12.2269 31.8525 12.5654C31.6917 12.8997 31.4653 13.1833 31.1733 13.416C30.8856 13.6488 30.547 13.8265 30.1577 13.9492C29.7684 14.0677 29.3473 14.127 28.8945 14.127C28.501 14.127 28.118 14.0741 27.7456 13.9683C27.3774 13.8582 27.0452 13.6953 26.749 13.4795C26.4528 13.2594 26.2179 12.9844 26.0444 12.6543C25.8709 12.32 25.7842 11.9328 25.7842 11.4927H27.4663C27.4663 11.7466 27.5277 11.973 27.6504 12.1719C27.7773 12.3708 27.9508 12.5273 28.1709 12.6416C28.3952 12.7516 28.647 12.8066 28.9263 12.8066C29.2352 12.8066 29.4997 12.7516 29.7197 12.6416C29.944 12.5273 30.1154 12.3665 30.2339 12.1592C30.3524 11.9476 30.4116 11.6958 30.4116 11.4038C30.4116 11.0568 30.346 10.7754 30.2148 10.5596C30.0837 10.3438 29.8953 10.1851 29.6499 10.0835C29.4087 9.98193 29.1209 9.93115 28.7866 9.93115H27.8408ZM38.0986 4.68164H38.3271V6.03369H38.2192C37.7072 6.03369 37.2565 6.11198 36.8672 6.26855C36.4821 6.42513 36.1605 6.64518 35.9023 6.92871C35.6484 7.20801 35.4559 7.5402 35.3247 7.92529C35.1935 8.30615 35.1279 8.72298 35.1279 9.17578V10.6738C35.1279 11.0251 35.1639 11.334 35.2358 11.6006C35.312 11.863 35.4157 12.0851 35.5469 12.2671C35.6823 12.4448 35.8389 12.5781 36.0166 12.667C36.1986 12.7559 36.3975 12.8003 36.6133 12.8003C36.8291 12.8003 37.0238 12.7559 37.1973 12.667C37.3708 12.5781 37.5189 12.4533 37.6416 12.2925C37.7686 12.1274 37.8638 11.9349 37.9272 11.7148C37.995 11.4948 38.0288 11.2536 38.0288 10.9912C38.0288 10.7331 37.9971 10.494 37.9336 10.2739C37.8701 10.0539 37.777 9.86133 37.6543 9.69629C37.5316 9.52702 37.3792 9.39795 37.1973 9.30908C37.0195 9.21598 36.8164 9.16943 36.5879 9.16943C36.2917 9.16943 36.0272 9.23926 35.7944 9.37891C35.5617 9.51432 35.3776 9.69206 35.2422 9.91211C35.1068 10.1322 35.0327 10.3649 35.02 10.6104L34.4551 10.3311C34.4762 9.97135 34.5524 9.64128 34.6836 9.34082C34.819 9.04036 34.9989 8.77799 35.2231 8.55371C35.4517 8.32943 35.7204 8.15592 36.0293 8.0332C36.3424 7.91048 36.6895 7.84912 37.0703 7.84912C37.5104 7.84912 37.8955 7.93376 38.2256 8.10303C38.5557 8.26807 38.8286 8.49447 39.0444 8.78223C39.2645 9.06999 39.4295 9.40218 39.5396 9.77881C39.6496 10.1512 39.7046 10.5448 39.7046 10.9595C39.7046 11.4038 39.6326 11.8185 39.4888 12.2036C39.3491 12.5887 39.146 12.9251 38.8794 13.2129C38.6128 13.5007 38.2912 13.7249 37.9146 13.8857C37.5379 14.0465 37.1147 14.127 36.645 14.127C36.1499 14.127 35.7056 14.0339 35.312 13.8477C34.9227 13.6615 34.5884 13.4033 34.3091 13.0732C34.0298 12.7432 33.8161 12.3581 33.668 11.918C33.5199 11.4779 33.4458 11.0018 33.4458 10.4897V9.81689C33.4458 9.09326 33.5452 8.42041 33.7441 7.79834C33.943 7.17627 34.2371 6.63249 34.6265 6.16699C35.02 5.69727 35.5067 5.33333 36.0864 5.0752C36.6662 4.81283 37.3369 4.68164 38.0986 4.68164ZM46.9917 11.4736C46.9917 12.0492 46.8563 12.5358 46.5854 12.9336C46.3188 13.3271 45.9528 13.6255 45.4873 13.8286C45.026 14.0275 44.5013 14.127 43.9131 14.127C43.3291 14.127 42.8022 14.0275 42.3325 13.8286C41.867 13.6255 41.4967 13.3271 41.2217 12.9336C40.9508 12.5358 40.8154 12.0492 40.8154 11.4736C40.8154 11.0885 40.8916 10.7394 41.0439 10.4263C41.2005 10.1131 41.4163 9.8444 41.6914 9.62012C41.9665 9.3916 42.2923 9.2181 42.6689 9.09961C43.0456 8.97689 43.4561 8.91553 43.9004 8.91553C44.4928 8.91553 45.0218 9.02344 45.4873 9.23926C45.957 9.45085 46.3252 9.74919 46.5918 10.1343C46.8584 10.5151 46.9917 10.9616 46.9917 11.4736ZM45.3032 11.3721C45.3032 11.0758 45.244 10.8198 45.1255 10.604C45.0112 10.384 44.8483 10.2147 44.6367 10.0962C44.4251 9.9777 44.1797 9.91846 43.9004 9.91846C43.6169 9.91846 43.3693 9.9777 43.1577 10.0962C42.9504 10.2147 42.7874 10.384 42.6689 10.604C42.5547 10.8198 42.4976 11.0758 42.4976 11.3721C42.4976 11.6725 42.5547 11.9307 42.6689 12.1465C42.7874 12.3581 42.9525 12.521 43.1641 12.6353C43.3757 12.7495 43.6253 12.8066 43.9131 12.8066C44.2008 12.8066 44.4484 12.7495 44.6558 12.6353C44.8631 12.521 45.0218 12.3581 45.1318 12.1465C45.2461 11.9307 45.3032 11.6725 45.3032 11.3721ZM46.7886 7.19531C46.7886 7.66081 46.6659 8.07552 46.4204 8.43945C46.175 8.79915 45.8343 9.08057 45.3984 9.28369C44.9668 9.48682 44.4717 9.58838 43.9131 9.58838C43.3545 9.58838 42.8551 9.48682 42.415 9.28369C41.9792 9.08057 41.6364 8.79915 41.3867 8.43945C41.1413 8.07552 41.0186 7.66081 41.0186 7.19531C41.0186 6.64518 41.1434 6.17969 41.3931 5.79883C41.6427 5.41374 41.9834 5.12174 42.415 4.92285C42.8509 4.72396 43.346 4.62451 43.9004 4.62451C44.4632 4.62451 44.9626 4.72396 45.3984 4.92285C45.8343 5.12174 46.175 5.41374 46.4204 5.79883C46.6659 6.17969 46.7886 6.64518 46.7886 7.19531ZM45.1128 7.26514C45.1128 7.00277 45.0641 6.77425 44.9668 6.57959C44.8695 6.3807 44.7298 6.22624 44.5479 6.11621C44.3701 6.00618 44.1543 5.95117 43.9004 5.95117C43.6549 5.95117 43.4434 6.00407 43.2656 6.10986C43.0879 6.21566 42.9504 6.368 42.853 6.56689C42.7557 6.76156 42.707 6.9943 42.707 7.26514C42.707 7.53174 42.7557 7.76449 42.853 7.96338C42.9504 8.16227 43.0879 8.31885 43.2656 8.43311C43.4476 8.54313 43.6634 8.59814 43.9131 8.59814C44.1628 8.59814 44.3765 8.54313 44.5542 8.43311C44.7319 8.31885 44.8695 8.16227 44.9668 7.96338C45.0641 7.76449 45.1128 7.53174 45.1128 7.26514ZM53.3901 4.25V14H51.708V4.25H53.3901ZM56.7671 7.13184V14H55.085V7.13184H56.7671ZM54.9707 5.33545C54.9707 5.08577 55.0553 4.87842 55.2246 4.71338C55.3981 4.54834 55.6309 4.46582 55.9229 4.46582C56.2148 4.46582 56.4455 4.54834 56.6147 4.71338C56.7882 4.87842 56.875 5.08577 56.875 5.33545C56.875 5.58089 56.7882 5.78613 56.6147 5.95117C56.4455 6.11621 56.2148 6.19873 55.9229 6.19873C55.6309 6.19873 55.3981 6.11621 55.2246 5.95117C55.0553 5.78613 54.9707 5.58089 54.9707 5.33545ZM60.0425 4.24365V14H58.3667V4.24365H60.0425ZM64.3462 7.13184L61.3564 10.4897L59.7378 12.1338L59.2046 10.8325L60.4551 9.2583L62.3213 7.13184H64.3462ZM62.6323 14L60.5059 10.8008L61.623 9.71533L64.5747 14H62.6323ZM68.1929 14.127C67.6724 14.127 67.2048 14.0423 66.79 13.873C66.3753 13.7038 66.022 13.4689 65.73 13.1685C65.4422 12.8638 65.2201 12.5104 65.0635 12.1084C64.9111 11.7021 64.835 11.2663 64.835 10.8008V10.5469C64.835 10.0179 64.9111 9.5376 65.0635 9.10596C65.2158 8.67008 65.4316 8.29557 65.7109 7.98242C65.9902 7.66927 66.3245 7.42806 66.7139 7.25879C67.1032 7.08952 67.5327 7.00488 68.0024 7.00488C68.4891 7.00488 68.9186 7.0874 69.291 7.25244C69.6634 7.41325 69.9744 7.64176 70.2241 7.93799C70.4738 8.23421 70.6621 8.58968 70.7891 9.00439C70.916 9.41488 70.9795 9.86979 70.9795 10.3691V11.0737H65.5967V9.91846H69.3291V9.7915C69.3206 9.5249 69.2699 9.28158 69.1768 9.06152C69.0837 8.83724 68.9398 8.65951 68.7451 8.52832C68.5505 8.3929 68.2987 8.3252 67.9897 8.3252C67.7401 8.3252 67.5221 8.38021 67.3359 8.49023C67.154 8.59603 67.0016 8.74837 66.8789 8.94727C66.7604 9.14193 66.6715 9.37467 66.6123 9.64551C66.5531 9.91634 66.5234 10.2168 66.5234 10.5469V10.8008C66.5234 11.0885 66.5615 11.3551 66.6377 11.6006C66.7181 11.846 66.8345 12.0597 66.9868 12.2417C67.1434 12.4194 67.3296 12.5591 67.5454 12.6606C67.7655 12.758 68.0151 12.8066 68.2944 12.8066C68.6457 12.8066 68.9631 12.7389 69.2466 12.6035C69.5343 12.4639 69.784 12.2586 69.9956 11.9878L70.8398 12.8638C70.696 13.0754 70.5013 13.2785 70.2559 13.4731C70.0146 13.6678 69.7227 13.8265 69.3799 13.9492C69.0371 14.0677 68.6414 14.127 68.1929 14.127ZM75.8799 12.1211C75.8799 11.9772 75.8418 11.8481 75.7656 11.7339C75.6895 11.6196 75.5456 11.516 75.334 11.4229C75.1266 11.3255 74.8219 11.2345 74.4199 11.1499C74.0645 11.0737 73.7365 10.9785 73.436 10.8643C73.1356 10.75 72.8774 10.6125 72.6616 10.4517C72.4458 10.2866 72.2765 10.0941 72.1538 9.87402C72.0353 9.64974 71.9761 9.3916 71.9761 9.09961C71.9761 8.81608 72.0374 8.54948 72.1602 8.2998C72.2829 8.0459 72.4606 7.82373 72.6934 7.6333C72.9261 7.43864 73.2096 7.2863 73.5439 7.17627C73.8783 7.06201 74.2549 7.00488 74.6738 7.00488C75.2578 7.00488 75.7593 7.1001 76.1782 7.29053C76.6014 7.48096 76.9251 7.74333 77.1494 8.07764C77.3737 8.40771 77.4858 8.78011 77.4858 9.19482H75.8101C75.8101 9.01286 75.7677 8.84782 75.6831 8.69971C75.6027 8.5516 75.4779 8.43311 75.3086 8.34424C75.1393 8.25114 74.9256 8.20459 74.6675 8.20459C74.4347 8.20459 74.238 8.24268 74.0771 8.31885C73.9206 8.39502 73.8021 8.49447 73.7217 8.61719C73.6413 8.73991 73.6011 8.87533 73.6011 9.02344C73.6011 9.13346 73.6222 9.23291 73.6646 9.32178C73.7111 9.40641 73.7852 9.4847 73.8867 9.55664C73.9883 9.62858 74.1258 9.69417 74.2993 9.75342C74.4771 9.81266 74.695 9.86979 74.9531 9.9248C75.4652 10.0264 75.9116 10.1618 76.2925 10.3311C76.6776 10.4961 76.978 10.7161 77.1938 10.9912C77.4097 11.2663 77.5176 11.6175 77.5176 12.0449C77.5176 12.3496 77.452 12.6289 77.3208 12.8828C77.1896 13.1325 76.9992 13.3504 76.7495 13.5366C76.4998 13.7228 76.2015 13.8688 75.8545 13.9746C75.5075 14.0762 75.116 14.127 74.6802 14.127C74.0496 14.127 73.5164 14.0148 73.0806 13.7905C72.6447 13.562 72.3146 13.2743 72.0903 12.9272C71.866 12.576 71.7539 12.2121 71.7539 11.8354H73.3599C73.3726 12.1021 73.4445 12.3158 73.5757 12.4766C73.7069 12.6374 73.8719 12.7537 74.0708 12.8257C74.2739 12.8934 74.4876 12.9272 74.7119 12.9272C74.9658 12.9272 75.1795 12.8934 75.353 12.8257C75.5265 12.7537 75.6577 12.6585 75.7466 12.54C75.8354 12.4173 75.8799 12.2777 75.8799 12.1211Z" fill="#262626"/>
</svg>
