<svg width="39" height="11" viewBox="0 0 39 11" fill="none" xmlns="http://www.w3.org/2000/svg">
<path d="M5.75049 8.02246C5.75049 7.84473 5.72298 7.68604 5.66797 7.54639C5.61719 7.40251 5.52197 7.27344 5.38232 7.15918C5.24691 7.04069 5.05436 6.92643 4.80469 6.81641C4.55924 6.70215 4.24186 6.58366 3.85254 6.46094C3.4209 6.32552 3.01888 6.17318 2.64648 6.00391C2.27409 5.83464 1.94613 5.63786 1.6626 5.41357C1.3833 5.18929 1.16536 4.93115 1.00879 4.63916C0.852214 4.34294 0.773926 4.00016 0.773926 3.61084C0.773926 3.22998 0.854329 2.88298 1.01514 2.56982C1.18018 2.25667 1.41292 1.98796 1.71338 1.76367C2.01383 1.53516 2.36719 1.35954 2.77344 1.23682C3.18392 1.1141 3.63672 1.05273 4.13184 1.05273C4.81738 1.05273 5.40983 1.17757 5.90918 1.42725C6.41276 1.67692 6.80208 2.01546 7.07715 2.44287C7.35221 2.87028 7.48975 3.35059 7.48975 3.88379H5.75049C5.75049 3.59603 5.68913 3.34212 5.56641 3.12207C5.44792 2.90202 5.26595 2.72852 5.02051 2.60156C4.7793 2.47461 4.47461 2.41113 4.10645 2.41113C3.75098 2.41113 3.45475 2.46403 3.21777 2.56982C2.98503 2.67562 2.80941 2.8195 2.69092 3.00146C2.57666 3.18343 2.51953 3.38656 2.51953 3.61084C2.51953 3.78011 2.55973 3.93245 2.64014 4.06787C2.72054 4.19906 2.84115 4.32389 3.00195 4.44238C3.16276 4.55664 3.36165 4.66455 3.59863 4.76611C3.83984 4.86344 4.11914 4.96077 4.43652 5.05811C4.94434 5.21045 5.38867 5.37972 5.76953 5.56592C6.15462 5.75212 6.47412 5.9637 6.72803 6.20068C6.98617 6.43766 7.17871 6.70426 7.30566 7.00049C7.43685 7.29671 7.50244 7.63314 7.50244 8.00977C7.50244 8.40755 7.42415 8.76302 7.26758 9.07617C7.111 9.38932 6.88672 9.65592 6.59473 9.87598C6.30273 10.096 5.9515 10.2632 5.54102 10.3774C5.13477 10.4917 4.67985 10.5488 4.17627 10.5488C3.7277 10.5488 3.28337 10.4896 2.84326 10.3711C2.40739 10.2484 2.01172 10.0664 1.65625 9.8252C1.30078 9.57975 1.01725 9.27083 0.805664 8.89844C0.594076 8.52181 0.488281 8.08171 0.488281 7.57812H2.24023C2.24023 7.87012 2.28678 8.11979 2.37988 8.32715C2.47721 8.53027 2.61263 8.69743 2.78613 8.82861C2.96387 8.95557 3.17122 9.04867 3.4082 9.10791C3.64518 9.16715 3.9012 9.19678 4.17627 9.19678C4.53174 9.19678 4.82373 9.14811 5.05225 9.05078C5.28499 8.94922 5.4585 8.80957 5.57275 8.63184C5.69124 8.4541 5.75049 8.25098 5.75049 8.02246ZM11.8062 10.5488C11.2856 10.5488 10.818 10.4642 10.4033 10.2949C9.98861 10.1257 9.63525 9.89079 9.34326 9.59033C9.0555 9.28564 8.83333 8.93229 8.67676 8.53027C8.52441 8.12402 8.44824 7.68815 8.44824 7.22266V6.96875C8.44824 6.43978 8.52441 5.95947 8.67676 5.52783C8.8291 5.09196 9.04492 4.71745 9.32422 4.4043C9.60352 4.09115 9.93783 3.84993 10.3271 3.68066C10.7165 3.51139 11.146 3.42676 11.6157 3.42676C12.1024 3.42676 12.5319 3.50928 12.9043 3.67432C13.2767 3.83512 13.5877 4.06364 13.8374 4.35986C14.0871 4.65609 14.2754 5.01156 14.4023 5.42627C14.5293 5.83675 14.5928 6.29167 14.5928 6.79102V7.49561H9.20996V6.34033H12.9424V6.21338C12.9339 5.94678 12.8831 5.70345 12.79 5.4834C12.6969 5.25911 12.5531 5.08138 12.3584 4.9502C12.1637 4.81478 11.9119 4.74707 11.603 4.74707C11.3534 4.74707 11.1354 4.80208 10.9492 4.91211C10.7673 5.0179 10.6149 5.17025 10.4922 5.36914C10.3737 5.5638 10.2848 5.79655 10.2256 6.06738C10.1663 6.33822 10.1367 6.63867 10.1367 6.96875V7.22266C10.1367 7.51042 10.1748 7.77702 10.251 8.02246C10.3314 8.2679 10.4478 8.48161 10.6001 8.66357C10.7567 8.84131 10.9429 8.98096 11.1587 9.08252C11.3787 9.17985 11.6284 9.22852 11.9077 9.22852C12.259 9.22852 12.5763 9.16081 12.8599 9.02539C13.1476 8.88574 13.3973 8.6805 13.6089 8.40967L14.4531 9.28564C14.3092 9.49723 14.1146 9.70036 13.8691 9.89502C13.6279 10.0897 13.3359 10.2484 12.9932 10.3711C12.6504 10.4896 12.2547 10.5488 11.8062 10.5488ZM18.8013 10.5488C18.2808 10.5488 17.8132 10.4642 17.3984 10.2949C16.9837 10.1257 16.6304 9.89079 16.3384 9.59033C16.0506 9.28564 15.8285 8.93229 15.6719 8.53027C15.5195 8.12402 15.4434 7.68815 15.4434 7.22266V6.96875C15.4434 6.43978 15.5195 5.95947 15.6719 5.52783C15.8242 5.09196 16.04 4.71745 16.3193 4.4043C16.5986 4.09115 16.9329 3.84993 17.3223 3.68066C17.7116 3.51139 18.1411 3.42676 18.6108 3.42676C19.0975 3.42676 19.527 3.50928 19.8994 3.67432C20.2718 3.83512 20.5828 4.06364 20.8325 4.35986C21.0822 4.65609 21.2705 5.01156 21.3975 5.42627C21.5244 5.83675 21.5879 6.29167 21.5879 6.79102V7.49561H16.2051V6.34033H19.9375V6.21338C19.929 5.94678 19.8783 5.70345 19.7852 5.4834C19.6921 5.25911 19.5482 5.08138 19.3535 4.9502C19.1589 4.81478 18.9071 4.74707 18.5981 4.74707C18.3485 4.74707 18.1305 4.80208 17.9443 4.91211C17.7624 5.0179 17.61 5.17025 17.4873 5.36914C17.3688 5.5638 17.2799 5.79655 17.2207 6.06738C17.1615 6.33822 17.1318 6.63867 17.1318 6.96875V7.22266C17.1318 7.51042 17.1699 7.77702 17.2461 8.02246C17.3265 8.2679 17.4429 8.48161 17.5952 8.66357C17.7518 8.84131 17.938 8.98096 18.1538 9.08252C18.3739 9.17985 18.6235 9.22852 18.9028 9.22852C19.2541 9.22852 19.5715 9.16081 19.855 9.02539C20.1427 8.88574 20.3924 8.6805 20.604 8.40967L21.4482 9.28564C21.3044 9.49723 21.1097 9.70036 20.8643 9.89502C20.623 10.0897 20.3311 10.2484 19.9883 10.3711C19.6455 10.4896 19.2498 10.5488 18.8013 10.5488ZM29.7319 8.96191V5.79443C29.7319 5.56169 29.6917 5.36068 29.6113 5.19141C29.5309 5.02214 29.4082 4.89095 29.2432 4.79785C29.0781 4.70475 28.8687 4.6582 28.6147 4.6582C28.3905 4.6582 28.1937 4.69629 28.0244 4.77246C27.8594 4.84863 27.7324 4.95654 27.6436 5.09619C27.5547 5.23161 27.5103 5.38818 27.5103 5.56592H25.8281C25.8281 5.28239 25.8958 5.01367 26.0312 4.75977C26.1667 4.50163 26.3592 4.27311 26.6089 4.07422C26.8628 3.87109 27.1654 3.7124 27.5166 3.59814C27.8721 3.48389 28.2699 3.42676 28.71 3.42676C29.2305 3.42676 29.6938 3.51562 30.1001 3.69336C30.5106 3.86686 30.8322 4.12923 31.0649 4.48047C31.3019 4.83171 31.4204 5.27393 31.4204 5.80713V8.80322C31.4204 9.146 31.4416 9.4401 31.4839 9.68555C31.5304 9.92676 31.5981 10.1362 31.687 10.314V10.4219H29.9795C29.8991 10.2484 29.8377 10.0283 29.7954 9.76172C29.7531 9.49089 29.7319 9.22428 29.7319 8.96191ZM29.9668 6.23877L29.9795 7.23535H28.9194C28.6571 7.23535 28.4264 7.26286 28.2275 7.31787C28.0286 7.36865 27.8657 7.44482 27.7388 7.54639C27.6118 7.64372 27.5166 7.76221 27.4531 7.90186C27.3896 8.03727 27.3579 8.19173 27.3579 8.36523C27.3579 8.53451 27.396 8.68685 27.4722 8.82227C27.5526 8.95768 27.6668 9.06559 27.8149 9.146C27.9673 9.22217 28.145 9.26025 28.3481 9.26025C28.6444 9.26025 28.9025 9.20101 29.1226 9.08252C29.3426 8.9598 29.514 8.81169 29.6367 8.63818C29.7594 8.46468 29.825 8.29964 29.8335 8.14307L30.3159 8.8667C30.2567 9.0402 30.1678 9.22428 30.0493 9.41895C29.9308 9.61361 29.7785 9.79557 29.5923 9.96484C29.4061 10.1341 29.1818 10.2738 28.9194 10.3838C28.6571 10.4938 28.3524 10.5488 28.0054 10.5488C27.561 10.5488 27.1632 10.46 26.812 10.2822C26.4608 10.1045 26.1836 9.86117 25.9805 9.55225C25.7773 9.24333 25.6758 8.89209 25.6758 8.49854C25.6758 8.1346 25.7435 7.81299 25.8789 7.53369C26.0143 7.25439 26.2153 7.01953 26.4819 6.8291C26.7485 6.63444 27.0786 6.48844 27.4722 6.39111C27.87 6.28955 28.3249 6.23877 28.8369 6.23877H29.9668ZM34.7085 0.671875V10.4219H33.0264V0.671875H34.7085ZM38.0854 0.671875V10.4219H36.4033V0.671875H38.0854Z" fill="#0095F6"/>
</svg>
