<svg width="126" height="15" viewBox="0 0 126 15" fill="none" xmlns="http://www.w3.org/2000/svg">
<path d="M6.15918 8.83789C6.15918 8.64648 6.12956 8.47559 6.07031 8.3252C6.01562 8.17025 5.91309 8.03125 5.7627 7.9082C5.61686 7.7806 5.40951 7.65755 5.14062 7.53906C4.8763 7.41602 4.53451 7.28841 4.11523 7.15625C3.65039 7.01042 3.21745 6.84635 2.81641 6.66406C2.41536 6.48177 2.06217 6.26986 1.75684 6.02832C1.45605 5.78678 1.22135 5.50879 1.05273 5.19434C0.884115 4.87533 0.799805 4.50618 0.799805 4.08691C0.799805 3.67676 0.886393 3.30306 1.05957 2.96582C1.2373 2.62858 1.48796 2.33919 1.81152 2.09766C2.13509 1.85156 2.51562 1.66243 2.95312 1.53027C3.39518 1.39811 3.88281 1.33203 4.41602 1.33203C5.1543 1.33203 5.79232 1.46647 6.33008 1.73535C6.8724 2.00423 7.29167 2.36882 7.58789 2.8291C7.88411 3.28939 8.03223 3.80664 8.03223 4.38086H6.15918C6.15918 4.07096 6.0931 3.79753 5.96094 3.56055C5.83333 3.32357 5.63737 3.13672 5.37305 3C5.11328 2.86328 4.78516 2.79492 4.38867 2.79492C4.00586 2.79492 3.68685 2.85189 3.43164 2.96582C3.18099 3.07975 2.99186 3.2347 2.86426 3.43066C2.74121 3.62663 2.67969 3.84538 2.67969 4.08691C2.67969 4.26921 2.72298 4.43327 2.80957 4.5791C2.89616 4.72038 3.02604 4.85482 3.19922 4.98242C3.3724 5.10547 3.58659 5.22168 3.8418 5.33105C4.10156 5.43587 4.40234 5.54069 4.74414 5.64551C5.29102 5.80957 5.76953 5.99186 6.17969 6.19238C6.5944 6.3929 6.93848 6.62077 7.21191 6.87598C7.48991 7.13118 7.69727 7.41829 7.83398 7.7373C7.97526 8.05632 8.0459 8.41862 8.0459 8.82422C8.0459 9.2526 7.96159 9.63542 7.79297 9.97266C7.62435 10.3099 7.38281 10.597 7.06836 10.834C6.75391 11.071 6.37565 11.251 5.93359 11.374C5.49609 11.4971 5.00618 11.5586 4.46387 11.5586C3.98079 11.5586 3.50228 11.4948 3.02832 11.3672C2.55892 11.235 2.13281 11.0391 1.75 10.7793C1.36719 10.515 1.06185 10.1823 0.833984 9.78125C0.60612 9.37565 0.492188 8.90169 0.492188 8.35938H2.37891C2.37891 8.67383 2.42904 8.94271 2.5293 9.16602C2.63411 9.38477 2.77995 9.56478 2.9668 9.70605C3.1582 9.84277 3.38151 9.94303 3.63672 10.0068C3.89193 10.0706 4.16764 10.1025 4.46387 10.1025C4.84668 10.1025 5.16113 10.0501 5.40723 9.94531C5.65788 9.83594 5.84473 9.68555 5.96777 9.49414C6.09538 9.30273 6.15918 9.08398 6.15918 8.83789ZM13.7607 9.66504V4.02539H15.5791V11.4219H13.8701L13.7607 9.66504ZM13.9932 8.13379L14.5537 8.12012C14.5537 8.61686 14.499 9.07487 14.3896 9.49414C14.2803 9.91341 14.1094 10.278 13.877 10.5879C13.6491 10.8932 13.3597 11.1325 13.0088 11.3057C12.6579 11.4743 12.2432 11.5586 11.7646 11.5586C11.4001 11.5586 11.0674 11.5085 10.7666 11.4082C10.4658 11.3034 10.2061 11.1416 9.9873 10.9229C9.77311 10.6995 9.60677 10.4147 9.48828 10.0684C9.36979 9.71745 9.31055 9.2959 9.31055 8.80371V4.02539H11.1152V8.81738C11.1152 9.06348 11.1426 9.26855 11.1973 9.43262C11.2565 9.59668 11.3363 9.73112 11.4365 9.83594C11.5413 9.9362 11.6621 10.0091 11.7988 10.0547C11.9401 10.0957 12.0905 10.1162 12.25 10.1162C12.6875 10.1162 13.0316 10.0296 13.2822 9.85645C13.5374 9.67871 13.7197 9.44173 13.8291 9.14551C13.9385 8.84473 13.9932 8.50749 13.9932 8.13379ZM21.8818 4.02539H23.5225V11.1963C23.5225 11.8662 23.3766 12.4336 23.085 12.8984C22.7979 13.3678 22.3945 13.7233 21.875 13.9648C21.3555 14.2109 20.7516 14.334 20.0635 14.334C19.7673 14.334 19.446 14.293 19.0996 14.2109C18.7578 14.1289 18.4274 13.999 18.1084 13.8213C17.7939 13.6481 17.5319 13.4225 17.3223 13.1445L18.1357 12.0781C18.3818 12.3652 18.6598 12.5817 18.9697 12.7275C19.2796 12.8779 19.6146 12.9531 19.9746 12.9531C20.3392 12.9531 20.6491 12.8848 20.9043 12.748C21.1641 12.6159 21.3623 12.4199 21.499 12.1602C21.6403 11.9049 21.7109 11.5905 21.7109 11.2168V5.71387L21.8818 4.02539ZM16.8848 7.8125V7.66895C16.8848 7.10384 16.9531 6.59115 17.0898 6.13086C17.2266 5.66602 17.4225 5.26725 17.6777 4.93457C17.9375 4.60189 18.2497 4.3444 18.6143 4.16211C18.9834 3.97982 19.3981 3.88867 19.8584 3.88867C20.346 3.88867 20.7562 3.97754 21.0889 4.15527C21.4261 4.33301 21.7041 4.58594 21.9229 4.91406C22.1462 5.24219 22.3193 5.63184 22.4424 6.08301C22.57 6.52962 22.668 7.02181 22.7363 7.55957V7.94922C22.6725 8.47331 22.57 8.9541 22.4287 9.3916C22.292 9.8291 22.1097 10.2119 21.8818 10.54C21.654 10.8636 21.3714 11.1143 21.0342 11.292C20.6969 11.4697 20.3005 11.5586 19.8447 11.5586C19.389 11.5586 18.9788 11.4652 18.6143 11.2783C18.2497 11.0915 17.9375 10.8294 17.6777 10.4922C17.4225 10.1549 17.2266 9.75846 17.0898 9.30273C16.9531 8.84701 16.8848 8.35026 16.8848 7.8125ZM18.6895 7.66895V7.8125C18.6895 8.13151 18.7214 8.43001 18.7852 8.70801C18.849 8.986 18.9469 9.2321 19.0791 9.44629C19.2113 9.65592 19.3776 9.81999 19.5781 9.93848C19.7786 10.057 20.0179 10.1162 20.2959 10.1162C20.6696 10.1162 20.9749 10.0387 21.2119 9.88379C21.4535 9.72428 21.6357 9.50781 21.7588 9.23438C21.8864 8.95638 21.9684 8.64421 22.0049 8.29785V7.22461C21.9821 6.95117 21.932 6.69824 21.8545 6.46582C21.7816 6.2334 21.679 6.03288 21.5469 5.86426C21.4147 5.69564 21.2461 5.56348 21.041 5.46777C20.8359 5.37207 20.5921 5.32422 20.3096 5.32422C20.0361 5.32422 19.7969 5.38574 19.5918 5.50879C19.3867 5.62728 19.2181 5.79362 19.0859 6.00781C18.9538 6.22201 18.8535 6.47038 18.7852 6.75293C18.7214 7.03548 18.6895 7.34082 18.6895 7.66895ZM29.8525 4.02539H31.4932V11.1963C31.4932 11.8662 31.3473 12.4336 31.0557 12.8984C30.7686 13.3678 30.3652 13.7233 29.8457 13.9648C29.3262 14.2109 28.7223 14.334 28.0342 14.334C27.738 14.334 27.4167 14.293 27.0703 14.2109C26.7285 14.1289 26.3981 13.999 26.0791 13.8213C25.7646 13.6481 25.5026 13.4225 25.293 13.1445L26.1064 12.0781C26.3525 12.3652 26.6305 12.5817 26.9404 12.7275C27.2503 12.8779 27.5853 12.9531 27.9453 12.9531C28.3099 12.9531 28.6198 12.8848 28.875 12.748C29.1348 12.6159 29.333 12.4199 29.4697 12.1602C29.611 11.9049 29.6816 11.5905 29.6816 11.2168V5.71387L29.8525 4.02539ZM24.8555 7.8125V7.66895C24.8555 7.10384 24.9238 6.59115 25.0605 6.13086C25.1973 5.66602 25.3932 5.26725 25.6484 4.93457C25.9082 4.60189 26.2204 4.3444 26.585 4.16211C26.9541 3.97982 27.3688 3.88867 27.8291 3.88867C28.3167 3.88867 28.7269 3.97754 29.0596 4.15527C29.3968 4.33301 29.6748 4.58594 29.8936 4.91406C30.1169 5.24219 30.29 5.63184 30.4131 6.08301C30.5407 6.52962 30.6387 7.02181 30.707 7.55957V7.94922C30.6432 8.47331 30.5407 8.9541 30.3994 9.3916C30.2627 9.8291 30.0804 10.2119 29.8525 10.54C29.6247 10.8636 29.3421 11.1143 29.0049 11.292C28.6676 11.4697 28.2712 11.5586 27.8154 11.5586C27.3597 11.5586 26.9495 11.4652 26.585 11.2783C26.2204 11.0915 25.9082 10.8294 25.6484 10.4922C25.3932 10.1549 25.1973 9.75846 25.0605 9.30273C24.9238 8.84701 24.8555 8.35026 24.8555 7.8125ZM26.6602 7.66895V7.8125C26.6602 8.13151 26.6921 8.43001 26.7559 8.70801C26.8197 8.986 26.9176 9.2321 27.0498 9.44629C27.182 9.65592 27.3483 9.81999 27.5488 9.93848C27.7493 10.057 27.9886 10.1162 28.2666 10.1162C28.6403 10.1162 28.9456 10.0387 29.1826 9.88379C29.4242 9.72428 29.6064 9.50781 29.7295 9.23438C29.8571 8.95638 29.9391 8.64421 29.9756 8.29785V7.22461C29.9528 6.95117 29.9027 6.69824 29.8252 6.46582C29.7523 6.2334 29.6497 6.03288 29.5176 5.86426C29.3854 5.69564 29.2168 5.56348 29.0117 5.46777C28.8066 5.37207 28.5628 5.32422 28.2803 5.32422C28.0068 5.32422 27.7676 5.38574 27.5625 5.50879C27.3574 5.62728 27.1888 5.79362 27.0566 6.00781C26.9245 6.22201 26.8242 6.47038 26.7559 6.75293C26.6921 7.03548 26.6602 7.34082 26.6602 7.66895ZM36.4424 11.5586C35.8818 11.5586 35.3783 11.4674 34.9316 11.2852C34.485 11.1029 34.1045 10.8499 33.79 10.5264C33.4801 10.1982 33.2409 9.81771 33.0723 9.38477C32.9082 8.94727 32.8262 8.47786 32.8262 7.97656V7.70312C32.8262 7.13346 32.9082 6.61621 33.0723 6.15137C33.2363 5.68197 33.4688 5.27865 33.7695 4.94141C34.0703 4.60417 34.4303 4.3444 34.8496 4.16211C35.2689 3.97982 35.7314 3.88867 36.2373 3.88867C36.7614 3.88867 37.224 3.97754 37.625 4.15527C38.026 4.32845 38.361 4.57454 38.6299 4.89355C38.8988 5.21257 39.1016 5.59538 39.2383 6.04199C39.375 6.48405 39.4434 6.97396 39.4434 7.51172V8.27051H33.6465V7.02637H37.666V6.88965C37.6569 6.60254 37.6022 6.34049 37.502 6.10352C37.4017 5.86198 37.2467 5.67057 37.0371 5.5293C36.8275 5.38346 36.5563 5.31055 36.2236 5.31055C35.9548 5.31055 35.7201 5.36979 35.5195 5.48828C35.3236 5.60221 35.1595 5.76628 35.0273 5.98047C34.8997 6.1901 34.804 6.44076 34.7402 6.73242C34.6764 7.02409 34.6445 7.34766 34.6445 7.70312V7.97656C34.6445 8.28646 34.6855 8.57357 34.7676 8.83789C34.8542 9.10221 34.9795 9.33236 35.1436 9.52832C35.3122 9.71973 35.5127 9.87012 35.7451 9.97949C35.9821 10.0843 36.251 10.1367 36.5518 10.1367C36.93 10.1367 37.2718 10.0638 37.5771 9.91797C37.887 9.76758 38.1559 9.54655 38.3838 9.25488L39.293 10.1982C39.138 10.4261 38.9284 10.6449 38.6641 10.8545C38.4043 11.0641 38.0898 11.235 37.7207 11.3672C37.3516 11.4948 36.9255 11.5586 36.4424 11.5586ZM44.7207 9.39844C44.7207 9.24349 44.6797 9.10449 44.5977 8.98145C44.5156 8.8584 44.3607 8.74674 44.1328 8.64648C43.9095 8.54167 43.5814 8.44368 43.1484 8.35254C42.7656 8.27051 42.4124 8.16797 42.0889 8.04492C41.7653 7.92188 41.4873 7.77376 41.2549 7.60059C41.0225 7.42285 40.8402 7.21549 40.708 6.97852C40.5804 6.73698 40.5166 6.45898 40.5166 6.14453C40.5166 5.83919 40.5827 5.55208 40.7148 5.2832C40.847 5.00977 41.0384 4.77051 41.2891 4.56543C41.5397 4.35579 41.8451 4.19173 42.2051 4.07324C42.5651 3.9502 42.9707 3.88867 43.4219 3.88867C44.0508 3.88867 44.5908 3.99121 45.042 4.19629C45.4977 4.40137 45.8464 4.68392 46.0879 5.04395C46.3294 5.39941 46.4502 5.80046 46.4502 6.24707H44.6455C44.6455 6.05111 44.5999 5.87337 44.5088 5.71387C44.4222 5.55436 44.2878 5.42676 44.1055 5.33105C43.9232 5.23079 43.693 5.18066 43.415 5.18066C43.1644 5.18066 42.9525 5.22168 42.7793 5.30371C42.6107 5.38574 42.4831 5.49284 42.3965 5.625C42.3099 5.75716 42.2666 5.90299 42.2666 6.0625C42.2666 6.18099 42.2894 6.28809 42.335 6.38379C42.3851 6.47493 42.4648 6.55924 42.5742 6.63672C42.6836 6.71419 42.8317 6.78483 43.0186 6.84863C43.21 6.91243 43.4447 6.97396 43.7227 7.0332C44.2741 7.14258 44.7549 7.28841 45.165 7.4707C45.5798 7.64844 45.9033 7.88542 46.1357 8.18164C46.3682 8.47786 46.4844 8.85612 46.4844 9.31641C46.4844 9.64453 46.4137 9.94531 46.2725 10.2188C46.1312 10.4876 45.9261 10.7223 45.6572 10.9229C45.3883 11.1234 45.0671 11.2806 44.6934 11.3945C44.3197 11.5039 43.8981 11.5586 43.4287 11.5586C42.7497 11.5586 42.1755 11.4378 41.7061 11.1963C41.2367 10.9502 40.8812 10.6403 40.6396 10.2666C40.3981 9.88835 40.2773 9.49642 40.2773 9.09082H42.0068C42.0205 9.37793 42.098 9.60807 42.2393 9.78125C42.3805 9.95443 42.5583 10.0798 42.7725 10.1572C42.9912 10.2301 43.2214 10.2666 43.4629 10.2666C43.7363 10.2666 43.9665 10.2301 44.1533 10.1572C44.3402 10.0798 44.4814 9.97721 44.5771 9.84961C44.6729 9.71745 44.7207 9.56706 44.7207 9.39844ZM51.3584 4.02539V5.32422H47.1201V4.02539H51.3584ZM48.2549 2.20703H50.0664V9.28906C50.0664 9.50781 50.096 9.67643 50.1553 9.79492C50.2145 9.91341 50.3034 9.99316 50.4219 10.0342C50.5404 10.0752 50.6816 10.0957 50.8457 10.0957C50.9642 10.0957 51.0736 10.0889 51.1738 10.0752C51.2741 10.0615 51.3584 10.0479 51.4268 10.0342L51.4336 11.3877C51.2832 11.4378 51.1123 11.4788 50.9209 11.5107C50.734 11.5426 50.5221 11.5586 50.2852 11.5586C49.8796 11.5586 49.5241 11.4902 49.2188 11.3535C48.9134 11.2122 48.6764 10.9867 48.5078 10.6768C48.3392 10.3623 48.2549 9.94759 48.2549 9.43262V2.20703ZM54.4756 4.02539V11.4219H52.6641V4.02539H54.4756ZM52.541 2.09082C52.541 1.82194 52.6322 1.59863 52.8145 1.4209C53.0013 1.24316 53.252 1.1543 53.5664 1.1543C53.8809 1.1543 54.1292 1.24316 54.3115 1.4209C54.4984 1.59863 54.5918 1.82194 54.5918 2.09082C54.5918 2.35514 54.4984 2.57617 54.3115 2.75391C54.1292 2.93164 53.8809 3.02051 53.5664 3.02051C53.252 3.02051 53.0013 2.93164 52.8145 2.75391C52.6322 2.57617 52.541 2.35514 52.541 2.09082ZM55.877 7.79883V7.65527C55.877 7.11296 55.9544 6.61393 56.1094 6.1582C56.2643 5.69792 56.4899 5.29915 56.7861 4.96191C57.0824 4.62467 57.4447 4.36263 57.873 4.17578C58.3014 3.98438 58.7891 3.88867 59.3359 3.88867C59.8919 3.88867 60.3841 3.98438 60.8125 4.17578C61.2454 4.36263 61.61 4.62467 61.9062 4.96191C62.2025 5.29915 62.4281 5.69792 62.583 6.1582C62.738 6.61393 62.8154 7.11296 62.8154 7.65527V7.79883C62.8154 8.33659 62.738 8.83561 62.583 9.2959C62.4281 9.75163 62.2025 10.1504 61.9062 10.4922C61.61 10.8294 61.2477 11.0915 60.8193 11.2783C60.391 11.4652 59.901 11.5586 59.3496 11.5586C58.8027 11.5586 58.3128 11.4652 57.8799 11.2783C57.4469 11.0915 57.0824 10.8294 56.7861 10.4922C56.4899 10.1504 56.2643 9.75163 56.1094 9.2959C55.9544 8.83561 55.877 8.33659 55.877 7.79883ZM57.6816 7.65527V7.79883C57.6816 8.1224 57.7135 8.42546 57.7773 8.70801C57.8411 8.99056 57.9391 9.23893 58.0713 9.45312C58.2035 9.66732 58.3743 9.83594 58.584 9.95898C58.7982 10.0775 59.0534 10.1367 59.3496 10.1367C59.6413 10.1367 59.8919 10.0775 60.1016 9.95898C60.3112 9.83594 60.4821 9.66732 60.6143 9.45312C60.751 9.23893 60.8512 8.99056 60.915 8.70801C60.9788 8.42546 61.0107 8.1224 61.0107 7.79883V7.65527C61.0107 7.33626 60.9788 7.03776 60.915 6.75977C60.8512 6.47721 60.751 6.22884 60.6143 6.01465C60.4821 5.7959 60.3089 5.625 60.0947 5.50195C59.8851 5.37435 59.6322 5.31055 59.3359 5.31055C59.0443 5.31055 58.7936 5.37435 58.584 5.50195C58.3743 5.625 58.2035 5.7959 58.0713 6.01465C57.9391 6.22884 57.8411 6.47721 57.7773 6.75977C57.7135 7.03776 57.6816 7.33626 57.6816 7.65527ZM65.8984 5.60449V11.4219H64.0938V4.02539H65.7891L65.8984 5.60449ZM65.6113 7.45703H65.0781C65.0827 6.91927 65.1556 6.43164 65.2969 5.99414C65.4382 5.55664 65.6364 5.18066 65.8916 4.86621C66.1514 4.55176 66.459 4.31022 66.8145 4.1416C67.1699 3.97298 67.5664 3.88867 68.0039 3.88867C68.3594 3.88867 68.6807 3.9388 68.9678 4.03906C69.2549 4.13932 69.501 4.29883 69.7061 4.51758C69.9157 4.73633 70.0752 5.02344 70.1846 5.37891C70.2985 5.72982 70.3555 6.16276 70.3555 6.67773V11.4219H68.5371V6.66406C68.5371 6.32682 68.487 6.06022 68.3867 5.86426C68.291 5.66829 68.1497 5.5293 67.9629 5.44727C67.7806 5.36523 67.555 5.32422 67.2861 5.32422C67.0081 5.32422 66.7643 5.38118 66.5547 5.49512C66.3496 5.60449 66.1764 5.75716 66.0352 5.95312C65.8984 6.14909 65.7936 6.37467 65.7207 6.62988C65.6478 6.88509 65.6113 7.16081 65.6113 7.45703ZM76.0156 9.39844C76.0156 9.24349 75.9746 9.10449 75.8926 8.98145C75.8105 8.8584 75.6556 8.74674 75.4277 8.64648C75.2044 8.54167 74.8763 8.44368 74.4434 8.35254C74.0605 8.27051 73.7074 8.16797 73.3838 8.04492C73.0602 7.92188 72.7822 7.77376 72.5498 7.60059C72.3174 7.42285 72.1351 7.21549 72.0029 6.97852C71.8753 6.73698 71.8115 6.45898 71.8115 6.14453C71.8115 5.83919 71.8776 5.55208 72.0098 5.2832C72.1419 5.00977 72.3333 4.77051 72.584 4.56543C72.8346 4.35579 73.14 4.19173 73.5 4.07324C73.86 3.9502 74.2656 3.88867 74.7168 3.88867C75.3457 3.88867 75.8857 3.99121 76.3369 4.19629C76.7926 4.40137 77.1413 4.68392 77.3828 5.04395C77.6243 5.39941 77.7451 5.80046 77.7451 6.24707H75.9404C75.9404 6.05111 75.8949 5.87337 75.8037 5.71387C75.7171 5.55436 75.5827 5.42676 75.4004 5.33105C75.2181 5.23079 74.988 5.18066 74.71 5.18066C74.4593 5.18066 74.2474 5.22168 74.0742 5.30371C73.9056 5.38574 73.778 5.49284 73.6914 5.625C73.6048 5.75716 73.5615 5.90299 73.5615 6.0625C73.5615 6.18099 73.5843 6.28809 73.6299 6.38379C73.68 6.47493 73.7598 6.55924 73.8691 6.63672C73.9785 6.71419 74.1266 6.78483 74.3135 6.84863C74.5049 6.91243 74.7396 6.97396 75.0176 7.0332C75.569 7.14258 76.0498 7.28841 76.46 7.4707C76.8747 7.64844 77.1982 7.88542 77.4307 8.18164C77.6631 8.47786 77.7793 8.85612 77.7793 9.31641C77.7793 9.64453 77.7087 9.94531 77.5674 10.2188C77.4261 10.4876 77.221 10.7223 76.9521 10.9229C76.6833 11.1234 76.362 11.2806 75.9883 11.3945C75.6146 11.5039 75.193 11.5586 74.7236 11.5586C74.0446 11.5586 73.4704 11.4378 73.001 11.1963C72.5316 10.9502 72.1761 10.6403 71.9346 10.2666C71.693 9.88835 71.5723 9.49642 71.5723 9.09082H73.3018C73.3154 9.37793 73.3929 9.60807 73.5342 9.78125C73.6755 9.95443 73.8532 10.0798 74.0674 10.1572C74.2861 10.2301 74.5163 10.2666 74.7578 10.2666C75.0312 10.2666 75.2614 10.2301 75.4482 10.1572C75.6351 10.0798 75.7764 9.97721 75.8721 9.84961C75.9678 9.71745 76.0156 9.56706 76.0156 9.39844ZM85.0049 11.4219H83.1865V3.3418C83.1865 2.78581 83.2936 2.31868 83.5078 1.94043C83.722 1.55762 84.0273 1.26823 84.4238 1.07227C84.8203 0.876302 85.2874 0.77832 85.8252 0.77832C86.0029 0.77832 86.1715 0.789714 86.3311 0.8125C86.4951 0.835286 86.6569 0.867188 86.8164 0.908203L86.7822 2.28223C86.6956 2.25944 86.5999 2.24349 86.4951 2.23438C86.3949 2.22526 86.2832 2.2207 86.1602 2.2207C85.9141 2.2207 85.7044 2.264 85.5312 2.35059C85.3581 2.43717 85.2259 2.56478 85.1348 2.7334C85.0482 2.89746 85.0049 3.10026 85.0049 3.3418V11.4219ZM86.502 4.02539V5.32422H82.0723V4.02539H86.502ZM87.2949 7.79883V7.65527C87.2949 7.11296 87.3724 6.61393 87.5273 6.1582C87.6823 5.69792 87.9079 5.29915 88.2041 4.96191C88.5003 4.62467 88.8626 4.36263 89.291 4.17578C89.7194 3.98438 90.207 3.88867 90.7539 3.88867C91.3099 3.88867 91.8021 3.98438 92.2305 4.17578C92.6634 4.36263 93.028 4.62467 93.3242 4.96191C93.6204 5.29915 93.846 5.69792 94.001 6.1582C94.1559 6.61393 94.2334 7.11296 94.2334 7.65527V7.79883C94.2334 8.33659 94.1559 8.83561 94.001 9.2959C93.846 9.75163 93.6204 10.1504 93.3242 10.4922C93.028 10.8294 92.6657 11.0915 92.2373 11.2783C91.8089 11.4652 91.319 11.5586 90.7676 11.5586C90.2207 11.5586 89.7308 11.4652 89.2979 11.2783C88.8649 11.0915 88.5003 10.8294 88.2041 10.4922C87.9079 10.1504 87.6823 9.75163 87.5273 9.2959C87.3724 8.83561 87.2949 8.33659 87.2949 7.79883ZM89.0996 7.65527V7.79883C89.0996 8.1224 89.1315 8.42546 89.1953 8.70801C89.2591 8.99056 89.3571 9.23893 89.4893 9.45312C89.6214 9.66732 89.7923 9.83594 90.002 9.95898C90.2161 10.0775 90.4714 10.1367 90.7676 10.1367C91.0592 10.1367 91.3099 10.0775 91.5195 9.95898C91.7292 9.83594 91.9001 9.66732 92.0322 9.45312C92.1689 9.23893 92.2692 8.99056 92.333 8.70801C92.3968 8.42546 92.4287 8.1224 92.4287 7.79883V7.65527C92.4287 7.33626 92.3968 7.03776 92.333 6.75977C92.2692 6.47721 92.1689 6.22884 92.0322 6.01465C91.9001 5.7959 91.7269 5.625 91.5127 5.50195C91.3031 5.37435 91.0501 5.31055 90.7539 5.31055C90.4622 5.31055 90.2116 5.37435 90.002 5.50195C89.7923 5.625 89.6214 5.7959 89.4893 6.01465C89.3571 6.22884 89.2591 6.47721 89.1953 6.75977C89.1315 7.03776 89.0996 7.33626 89.0996 7.65527ZM97.3506 5.53613V11.4219H95.5459V4.02539H97.2549L97.3506 5.53613ZM99.5996 3.97754L99.5723 5.65918C99.472 5.64095 99.3581 5.62728 99.2305 5.61816C99.1074 5.60905 98.9912 5.60449 98.8818 5.60449C98.6038 5.60449 98.36 5.64323 98.1504 5.7207C97.9408 5.79362 97.7653 5.90072 97.624 6.04199C97.4873 6.18327 97.3825 6.35645 97.3096 6.56152C97.2367 6.76204 97.1956 6.98991 97.1865 7.24512L96.7969 7.19727C96.7969 6.72786 96.8447 6.29264 96.9404 5.8916C97.0361 5.49056 97.1751 5.13965 97.3574 4.83887C97.5397 4.53809 97.7676 4.30566 98.041 4.1416C98.319 3.97298 98.638 3.88867 98.998 3.88867C99.0983 3.88867 99.2054 3.89779 99.3193 3.91602C99.4378 3.92969 99.5312 3.9502 99.5996 3.97754ZM106.244 10.6016L108.227 4.02539H110.161L107.194 12.543C107.126 12.7253 107.037 12.9235 106.928 13.1377C106.823 13.3519 106.682 13.5547 106.504 13.7461C106.326 13.9421 106.103 14.1016 105.834 14.2246C105.57 14.3477 105.248 14.4092 104.87 14.4092C104.706 14.4092 104.56 14.3978 104.433 14.375C104.305 14.3522 104.171 14.3226 104.029 14.2861V12.9326C104.075 12.9372 104.127 12.9395 104.187 12.9395C104.25 12.944 104.305 12.9463 104.351 12.9463C104.615 12.9463 104.834 12.9144 105.007 12.8506C105.18 12.7913 105.319 12.6934 105.424 12.5566C105.533 12.4245 105.624 12.2513 105.697 12.0371L106.244 10.6016ZM105.267 4.02539L106.941 9.47363L107.235 11.3809L105.991 11.6064L103.318 4.02539H105.267ZM110.605 7.79883V7.65527C110.605 7.11296 110.683 6.61393 110.838 6.1582C110.993 5.69792 111.218 5.29915 111.515 4.96191C111.811 4.62467 112.173 4.36263 112.602 4.17578C113.03 3.98438 113.518 3.88867 114.064 3.88867C114.62 3.88867 115.113 3.98438 115.541 4.17578C115.974 4.36263 116.339 4.62467 116.635 4.96191C116.931 5.29915 117.157 5.69792 117.312 6.1582C117.466 6.61393 117.544 7.11296 117.544 7.65527V7.79883C117.544 8.33659 117.466 8.83561 117.312 9.2959C117.157 9.75163 116.931 10.1504 116.635 10.4922C116.339 10.8294 115.976 11.0915 115.548 11.2783C115.119 11.4652 114.63 11.5586 114.078 11.5586C113.531 11.5586 113.041 11.4652 112.608 11.2783C112.175 11.0915 111.811 10.8294 111.515 10.4922C111.218 10.1504 110.993 9.75163 110.838 9.2959C110.683 8.83561 110.605 8.33659 110.605 7.79883ZM112.41 7.65527V7.79883C112.41 8.1224 112.442 8.42546 112.506 8.70801C112.57 8.99056 112.668 9.23893 112.8 9.45312C112.932 9.66732 113.103 9.83594 113.312 9.95898C113.527 10.0775 113.782 10.1367 114.078 10.1367C114.37 10.1367 114.62 10.0775 114.83 9.95898C115.04 9.83594 115.211 9.66732 115.343 9.45312C115.479 9.23893 115.58 8.99056 115.644 8.70801C115.707 8.42546 115.739 8.1224 115.739 7.79883V7.65527C115.739 7.33626 115.707 7.03776 115.644 6.75977C115.58 6.47721 115.479 6.22884 115.343 6.01465C115.211 5.7959 115.037 5.625 114.823 5.50195C114.614 5.37435 114.361 5.31055 114.064 5.31055C113.773 5.31055 113.522 5.37435 113.312 5.50195C113.103 5.625 112.932 5.7959 112.8 6.01465C112.668 6.22884 112.57 6.47721 112.506 6.75977C112.442 7.03776 112.41 7.33626 112.41 7.65527ZM123.259 9.66504V4.02539H125.077V11.4219H123.368L123.259 9.66504ZM123.491 8.13379L124.052 8.12012C124.052 8.61686 123.997 9.07487 123.888 9.49414C123.778 9.91341 123.607 10.278 123.375 10.5879C123.147 10.8932 122.858 11.1325 122.507 11.3057C122.156 11.4743 121.741 11.5586 121.263 11.5586C120.898 11.5586 120.565 11.5085 120.265 11.4082C119.964 11.3034 119.704 11.1416 119.485 10.9229C119.271 10.6995 119.105 10.4147 118.986 10.0684C118.868 9.71745 118.809 9.2959 118.809 8.80371V4.02539H120.613V8.81738C120.613 9.06348 120.641 9.26855 120.695 9.43262C120.755 9.59668 120.834 9.73112 120.935 9.83594C121.039 9.9362 121.16 10.0091 121.297 10.0547C121.438 10.0957 121.589 10.1162 121.748 10.1162C122.186 10.1162 122.53 10.0296 122.78 9.85645C123.035 9.67871 123.218 9.44173 123.327 9.14551C123.437 8.84473 123.491 8.50749 123.491 8.13379Z" fill="#8E8E8E"/>
</svg>
