<svg width="134" height="51" viewBox="0 0 134 51" fill="none" xmlns="http://www.w3.org/2000/svg">
<g clip-path="url(#clip0_1_246)">
<path d="M18.6768 13.4219H16.5986L16.6123 12.3486H18.6768C19.3877 12.3486 19.9801 12.2005 20.4541 11.9043C20.9281 11.6035 21.2835 11.1842 21.5205 10.6465C21.762 10.1042 21.8828 9.4707 21.8828 8.74609V8.1377C21.8828 7.56803 21.8145 7.06217 21.6777 6.62012C21.541 6.1735 21.3405 5.79753 21.0762 5.49219C20.8118 5.18229 20.4883 4.94759 20.1055 4.78809C19.7272 4.62858 19.292 4.54883 18.7998 4.54883H16.5576V3.46875H18.7998C19.4515 3.46875 20.0462 3.57812 20.584 3.79688C21.1217 4.01107 21.5843 4.32324 21.9717 4.7334C22.3636 5.139 22.6644 5.63118 22.874 6.20996C23.0837 6.78418 23.1885 7.43132 23.1885 8.15137V8.74609C23.1885 9.46615 23.0837 10.1156 22.874 10.6943C22.6644 11.2686 22.3613 11.7585 21.9648 12.1641C21.5729 12.5697 21.099 12.8818 20.543 13.1006C19.9915 13.3148 19.3695 13.4219 18.6768 13.4219ZM17.3027 3.46875V13.4219H15.9834V3.46875H17.3027ZM29.5049 11.7129V6.02539H30.7764V13.4219H29.5664L29.5049 11.7129ZM29.7441 10.1543L30.2705 10.1406C30.2705 10.6328 30.2181 11.0885 30.1133 11.5078C30.013 11.9225 29.849 12.2826 29.6211 12.5879C29.3932 12.8932 29.0947 13.1325 28.7256 13.3057C28.3564 13.4743 27.9076 13.5586 27.3789 13.5586C27.0189 13.5586 26.6885 13.5062 26.3877 13.4014C26.0915 13.2965 25.8363 13.1348 25.6221 12.916C25.4079 12.6973 25.2415 12.4124 25.123 12.0615C25.0091 11.7106 24.9521 11.2891 24.9521 10.7969V6.02539H26.2168V10.8105C26.2168 11.1432 26.2533 11.4189 26.3262 11.6377C26.4036 11.8519 26.5062 12.0228 26.6338 12.1504C26.766 12.2734 26.9118 12.36 27.0713 12.4102C27.2354 12.4603 27.404 12.4854 27.5771 12.4854C28.1149 12.4854 28.541 12.3828 28.8555 12.1777C29.1699 11.9681 29.3955 11.6878 29.5322 11.3369C29.6735 10.9814 29.7441 10.5872 29.7441 10.1543ZM33.9688 7.1875V13.4219H32.7041V6.02539H33.9346L33.9688 7.1875ZM36.2793 5.98438L36.2725 7.16016C36.1676 7.13737 36.0674 7.1237 35.9717 7.11914C35.8805 7.11003 35.7757 7.10547 35.6572 7.10547C35.3656 7.10547 35.1081 7.15104 34.8848 7.24219C34.6615 7.33333 34.4723 7.46094 34.3174 7.625C34.1624 7.78906 34.0394 7.98503 33.9482 8.21289C33.8617 8.4362 33.8047 8.68229 33.7773 8.95117L33.4219 9.15625C33.4219 8.70964 33.4652 8.29036 33.5518 7.89844C33.6429 7.50651 33.7819 7.16016 33.9688 6.85938C34.1556 6.55404 34.3926 6.31706 34.6797 6.14844C34.9714 5.97526 35.3177 5.88867 35.7188 5.88867C35.8099 5.88867 35.9147 5.90007 36.0332 5.92285C36.1517 5.94108 36.2337 5.96159 36.2793 5.98438ZM42.1035 6.02539H43.252V13.2646C43.252 13.9163 43.1198 14.4723 42.8555 14.9326C42.5911 15.3929 42.222 15.7415 41.748 15.9785C41.2786 16.2201 40.7363 16.3408 40.1211 16.3408C39.8659 16.3408 39.5651 16.2998 39.2188 16.2178C38.877 16.1403 38.5397 16.0059 38.207 15.8145C37.8789 15.6276 37.6032 15.3747 37.3799 15.0557L38.043 14.3037C38.3529 14.6774 38.6764 14.9372 39.0137 15.083C39.3555 15.2288 39.6927 15.3018 40.0254 15.3018C40.4264 15.3018 40.7728 15.2266 41.0645 15.0762C41.3561 14.9258 41.5817 14.7025 41.7412 14.4062C41.9053 14.1146 41.9873 13.7546 41.9873 13.3262V7.65234L42.1035 6.02539ZM37.0107 9.80566V9.66211C37.0107 9.09701 37.0768 8.58431 37.209 8.12402C37.3457 7.65918 37.5394 7.26042 37.79 6.92773C38.0452 6.59505 38.3529 6.33984 38.7129 6.16211C39.0729 5.97982 39.4785 5.88867 39.9297 5.88867C40.3945 5.88867 40.8001 5.9707 41.1465 6.13477C41.4974 6.29427 41.7936 6.52897 42.0352 6.83887C42.2812 7.14421 42.4749 7.51335 42.6162 7.94629C42.7575 8.37923 42.8555 8.86914 42.9102 9.41602V10.0449C42.86 10.5872 42.762 11.0749 42.6162 11.5078C42.4749 11.9408 42.2812 12.3099 42.0352 12.6152C41.7936 12.9206 41.4974 13.1553 41.1465 13.3193C40.7956 13.4788 40.3854 13.5586 39.916 13.5586C39.474 13.5586 39.0729 13.4652 38.7129 13.2783C38.3574 13.0915 38.0521 12.8294 37.7969 12.4922C37.5417 12.1549 37.3457 11.7585 37.209 11.3027C37.0768 10.8424 37.0107 10.3434 37.0107 9.80566ZM38.2754 9.66211V9.80566C38.2754 10.1748 38.3118 10.5212 38.3848 10.8447C38.4622 11.1683 38.5785 11.4531 38.7334 11.6992C38.8929 11.9453 39.0957 12.139 39.3418 12.2803C39.5879 12.417 39.8818 12.4854 40.2236 12.4854C40.6429 12.4854 40.9893 12.3965 41.2627 12.2188C41.5361 12.041 41.7526 11.8063 41.9121 11.5146C42.0762 11.223 42.2038 10.9062 42.2949 10.5645V8.91699C42.2448 8.66634 42.1673 8.4248 42.0625 8.19238C41.9622 7.9554 41.8301 7.74577 41.666 7.56348C41.5065 7.37663 41.3083 7.22852 41.0713 7.11914C40.8343 7.00977 40.5563 6.95508 40.2373 6.95508C39.891 6.95508 39.5924 7.02799 39.3418 7.17383C39.0957 7.3151 38.8929 7.51107 38.7334 7.76172C38.5785 8.00781 38.4622 8.29492 38.3848 8.62305C38.3118 8.94661 38.2754 9.29297 38.2754 9.66211ZM48.2422 13.5586C47.7272 13.5586 47.2601 13.472 46.8408 13.2988C46.4261 13.1211 46.0684 12.8727 45.7676 12.5537C45.4714 12.2347 45.2435 11.8564 45.084 11.4189C44.9245 10.9814 44.8447 10.5029 44.8447 9.9834V9.69629C44.8447 9.09473 44.9336 8.55924 45.1113 8.08984C45.2891 7.61589 45.5306 7.21484 45.8359 6.88672C46.1413 6.55859 46.4876 6.31022 46.875 6.1416C47.2624 5.97298 47.6634 5.88867 48.0781 5.88867C48.6068 5.88867 49.0625 5.97982 49.4453 6.16211C49.8327 6.3444 50.1494 6.59961 50.3955 6.92773C50.6416 7.2513 50.8239 7.63411 50.9424 8.07617C51.0609 8.51367 51.1201 8.99219 51.1201 9.51172V10.0791H45.5967V9.04688H49.8555V8.95117C49.8372 8.62305 49.7689 8.30404 49.6504 7.99414C49.5365 7.68424 49.3542 7.42904 49.1035 7.22852C48.8529 7.02799 48.5111 6.92773 48.0781 6.92773C47.791 6.92773 47.5267 6.98926 47.2852 7.1123C47.0436 7.23079 46.8363 7.40853 46.6631 7.64551C46.4899 7.88249 46.3555 8.17188 46.2598 8.51367C46.1641 8.85547 46.1162 9.24967 46.1162 9.69629V9.9834C46.1162 10.3343 46.1641 10.6647 46.2598 10.9746C46.36 11.2799 46.5036 11.5488 46.6904 11.7812C46.8818 12.0137 47.112 12.196 47.3809 12.3281C47.6543 12.4603 47.9642 12.5264 48.3105 12.5264C48.7572 12.5264 49.1354 12.4352 49.4453 12.2529C49.7552 12.0706 50.0264 11.8268 50.2588 11.5215L51.0244 12.1299C50.8649 12.3714 50.6621 12.6016 50.416 12.8203C50.1699 13.0391 49.8669 13.2168 49.5068 13.3535C49.1514 13.4902 48.7298 13.5586 48.2422 13.5586ZM56.9033 11.46C56.9033 11.2777 56.8623 11.109 56.7803 10.9541C56.7028 10.7946 56.541 10.651 56.2949 10.5234C56.0534 10.3913 55.6888 10.2773 55.2012 10.1816C54.791 10.0951 54.4196 9.99251 54.0869 9.87402C53.7588 9.75553 53.4785 9.61198 53.2461 9.44336C53.0182 9.27474 52.8428 9.0765 52.7197 8.84863C52.5967 8.62077 52.5352 8.35417 52.5352 8.04883C52.5352 7.75716 52.599 7.48145 52.7266 7.22168C52.8587 6.96191 53.0433 6.73177 53.2803 6.53125C53.5218 6.33073 53.8112 6.1735 54.1484 6.05957C54.4857 5.94564 54.8617 5.88867 55.2764 5.88867C55.8688 5.88867 56.3747 5.99349 56.7939 6.20312C57.2132 6.41276 57.5345 6.69303 57.7578 7.04395C57.9811 7.3903 58.0928 7.77539 58.0928 8.19922H56.8281C56.8281 7.99414 56.7666 7.7959 56.6436 7.60449C56.5251 7.40853 56.3496 7.24674 56.1172 7.11914C55.8893 6.99154 55.609 6.92773 55.2764 6.92773C54.9255 6.92773 54.6406 6.98242 54.4219 7.0918C54.2077 7.19661 54.0505 7.33105 53.9502 7.49512C53.8545 7.65918 53.8066 7.83236 53.8066 8.01465C53.8066 8.15137 53.8294 8.27441 53.875 8.38379C53.9251 8.48861 54.0117 8.58659 54.1348 8.67773C54.2578 8.76432 54.431 8.84635 54.6543 8.92383C54.8776 9.0013 55.1624 9.07878 55.5088 9.15625C56.1149 9.29297 56.6139 9.45703 57.0059 9.64844C57.3978 9.83984 57.6895 10.0745 57.8809 10.3525C58.0723 10.6305 58.168 10.9678 58.168 11.3643C58.168 11.6878 58.0996 11.984 57.9629 12.2529C57.8307 12.5218 57.637 12.7542 57.3818 12.9502C57.1312 13.1416 56.8304 13.292 56.4795 13.4014C56.1331 13.5062 55.7435 13.5586 55.3105 13.5586C54.6589 13.5586 54.1074 13.4424 53.6562 13.21C53.2051 12.9775 52.8633 12.6768 52.6309 12.3076C52.3984 11.9385 52.2822 11.5488 52.2822 11.1387H53.5537C53.5719 11.485 53.6722 11.7607 53.8545 11.9658C54.0368 12.1663 54.2601 12.3099 54.5244 12.3965C54.7887 12.4785 55.0508 12.5195 55.3105 12.5195C55.6569 12.5195 55.9463 12.474 56.1787 12.3828C56.4157 12.2917 56.5957 12.1663 56.7188 12.0068C56.8418 11.8473 56.9033 11.665 56.9033 11.46ZM61.0938 2.92188V13.4219H59.8291V2.92188H61.0938ZM60.793 9.44336L60.2666 9.42285C60.2712 8.91699 60.3464 8.44987 60.4922 8.02148C60.638 7.58854 60.8431 7.21257 61.1074 6.89355C61.3717 6.57454 61.6862 6.32845 62.0508 6.15527C62.4199 5.97754 62.8278 5.88867 63.2744 5.88867C63.639 5.88867 63.9671 5.9388 64.2588 6.03906C64.5505 6.13477 64.7988 6.28971 65.0039 6.50391C65.2135 6.7181 65.373 6.99609 65.4824 7.33789C65.5918 7.67513 65.6465 8.08757 65.6465 8.5752V13.4219H64.375V8.56152C64.375 8.17415 64.318 7.86426 64.2041 7.63184C64.0902 7.39486 63.9238 7.22396 63.7051 7.11914C63.4863 7.00977 63.2174 6.95508 62.8984 6.95508C62.584 6.95508 62.2969 7.02116 62.0371 7.15332C61.7819 7.28548 61.5609 7.46777 61.374 7.7002C61.1917 7.93262 61.0482 8.19922 60.9434 8.5C60.8431 8.79622 60.793 9.11068 60.793 9.44336ZM78.8604 3.46875V13.4219H77.5342L72.5234 5.74512V13.4219H71.2041V3.46875H72.5234L77.5547 11.166V3.46875H78.8604ZM85.3682 12.1572V8.34961C85.3682 8.05794 85.3089 7.80501 85.1904 7.59082C85.0765 7.37207 84.9033 7.20345 84.6709 7.08496C84.4385 6.96647 84.1514 6.90723 83.8096 6.90723C83.4906 6.90723 83.2103 6.96191 82.9688 7.07129C82.7318 7.18066 82.5449 7.32422 82.4082 7.50195C82.276 7.67969 82.21 7.87109 82.21 8.07617H80.9453C80.9453 7.81185 81.0137 7.5498 81.1504 7.29004C81.2871 7.03027 81.4831 6.79557 81.7383 6.58594C81.998 6.37174 82.3079 6.20312 82.668 6.08008C83.0326 5.95247 83.4382 5.88867 83.8848 5.88867C84.4225 5.88867 84.8965 5.97982 85.3066 6.16211C85.7214 6.3444 86.0449 6.62012 86.2773 6.98926C86.5143 7.35384 86.6328 7.81185 86.6328 8.36328V11.8086C86.6328 12.0547 86.6533 12.3167 86.6943 12.5947C86.7399 12.8727 86.806 13.112 86.8926 13.3125V13.4219H85.5732C85.5094 13.276 85.4593 13.0824 85.4229 12.8408C85.3864 12.5947 85.3682 12.3669 85.3682 12.1572ZM85.5869 8.9375L85.6006 9.82617H84.3223C83.9622 9.82617 83.641 9.85579 83.3584 9.91504C83.0758 9.96973 82.8389 10.054 82.6475 10.168C82.4561 10.2819 82.3102 10.4255 82.21 10.5986C82.1097 10.7673 82.0596 10.9655 82.0596 11.1934C82.0596 11.4258 82.112 11.6377 82.2168 11.8291C82.3216 12.0205 82.4788 12.1732 82.6885 12.2871C82.9027 12.3965 83.1647 12.4512 83.4746 12.4512C83.862 12.4512 84.2038 12.3691 84.5 12.2051C84.7962 12.041 85.0309 11.8405 85.2041 11.6035C85.3818 11.3665 85.4775 11.1364 85.4912 10.9131L86.0312 11.5215C85.9993 11.7129 85.9128 11.9248 85.7715 12.1572C85.6302 12.3896 85.4411 12.613 85.2041 12.8271C84.9717 13.0368 84.6937 13.2122 84.3701 13.3535C84.0511 13.4902 83.6911 13.5586 83.29 13.5586C82.7887 13.5586 82.349 13.4606 81.9707 13.2646C81.597 13.0687 81.3053 12.8066 81.0957 12.4785C80.8906 12.1458 80.7881 11.7744 80.7881 11.3643C80.7881 10.9678 80.8656 10.6191 81.0205 10.3184C81.1755 10.013 81.3988 9.76009 81.6904 9.55957C81.9821 9.35449 82.333 9.19954 82.7432 9.09473C83.1533 8.98991 83.6113 8.9375 84.1172 8.9375H85.5869ZM89.8867 7.60449V13.4219H88.6221V6.02539H89.8184L89.8867 7.60449ZM89.5859 9.44336L89.0596 9.42285C89.0641 8.91699 89.1393 8.44987 89.2852 8.02148C89.431 7.58854 89.6361 7.21257 89.9004 6.89355C90.1647 6.57454 90.4792 6.32845 90.8438 6.15527C91.2129 5.97754 91.6208 5.88867 92.0674 5.88867C92.432 5.88867 92.7601 5.9388 93.0518 6.03906C93.3434 6.13477 93.5918 6.28971 93.7969 6.50391C94.0065 6.7181 94.166 6.99609 94.2754 7.33789C94.3848 7.67513 94.4395 8.08757 94.4395 8.5752V13.4219H93.168V8.56152C93.168 8.17415 93.111 7.86426 92.9971 7.63184C92.8831 7.39486 92.7168 7.22396 92.498 7.11914C92.2793 7.00977 92.0104 6.95508 91.6914 6.95508C91.377 6.95508 91.0898 7.02116 90.8301 7.15332C90.5749 7.28548 90.3538 7.46777 90.167 7.7002C89.9847 7.93262 89.8411 8.19922 89.7363 8.5C89.6361 8.79622 89.5859 9.11068 89.5859 9.44336ZM101.022 11.9863V2.92188H102.294V13.4219H101.132L101.022 11.9863ZM96.0459 9.80566V9.66211C96.0459 9.09701 96.1143 8.58431 96.251 8.12402C96.3923 7.65918 96.5905 7.26042 96.8457 6.92773C97.1055 6.59505 97.4131 6.33984 97.7686 6.16211C98.1286 5.97982 98.5296 5.88867 98.9717 5.88867C99.4365 5.88867 99.8421 5.9707 100.188 6.13477C100.539 6.29427 100.836 6.52897 101.077 6.83887C101.323 7.14421 101.517 7.51335 101.658 7.94629C101.799 8.37923 101.897 8.86914 101.952 9.41602V10.0449C101.902 10.5872 101.804 11.0749 101.658 11.5078C101.517 11.9408 101.323 12.3099 101.077 12.6152C100.836 12.9206 100.539 13.1553 100.188 13.3193C99.8376 13.4788 99.4274 13.5586 98.958 13.5586C98.5251 13.5586 98.1286 13.4652 97.7686 13.2783C97.4131 13.0915 97.1055 12.8294 96.8457 12.4922C96.5905 12.1549 96.3923 11.7585 96.251 11.3027C96.1143 10.8424 96.0459 10.3434 96.0459 9.80566ZM97.3174 9.66211V9.80566C97.3174 10.1748 97.3538 10.5212 97.4268 10.8447C97.5042 11.1683 97.6227 11.4531 97.7822 11.6992C97.9417 11.9453 98.1445 12.139 98.3906 12.2803C98.6367 12.417 98.9307 12.4854 99.2725 12.4854C99.6917 12.4854 100.036 12.3965 100.305 12.2188C100.578 12.041 100.797 11.8063 100.961 11.5146C101.125 11.223 101.253 10.9062 101.344 10.5645V8.91699C101.289 8.66634 101.209 8.4248 101.104 8.19238C101.004 7.9554 100.872 7.74577 100.708 7.56348C100.549 7.37663 100.35 7.22852 100.113 7.11914C99.8809 7.00977 99.6051 6.95508 99.2861 6.95508C98.9398 6.95508 98.6413 7.02799 98.3906 7.17383C98.1445 7.3151 97.9417 7.51107 97.7822 7.76172C97.6227 8.00781 97.5042 8.29492 97.4268 8.62305C97.3538 8.94661 97.3174 9.29297 97.3174 9.66211ZM105.637 6.02539V13.4219H104.365V6.02539H105.637ZM104.27 4.06348C104.27 3.8584 104.331 3.68522 104.454 3.54395C104.582 3.40267 104.769 3.33203 105.015 3.33203C105.256 3.33203 105.441 3.40267 105.568 3.54395C105.701 3.68522 105.767 3.8584 105.767 4.06348C105.767 4.25944 105.701 4.42806 105.568 4.56934C105.441 4.70605 105.256 4.77441 105.015 4.77441C104.769 4.77441 104.582 4.70605 104.454 4.56934C104.331 4.42806 104.27 4.25944 104.27 4.06348ZM108.932 7.60449V13.4219H107.667V6.02539H108.863L108.932 7.60449ZM108.631 9.44336L108.104 9.42285C108.109 8.91699 108.184 8.44987 108.33 8.02148C108.476 7.58854 108.681 7.21257 108.945 6.89355C109.21 6.57454 109.524 6.32845 109.889 6.15527C110.258 5.97754 110.666 5.88867 111.112 5.88867C111.477 5.88867 111.805 5.9388 112.097 6.03906C112.388 6.13477 112.637 6.28971 112.842 6.50391C113.051 6.7181 113.211 6.99609 113.32 7.33789C113.43 7.67513 113.484 8.08757 113.484 8.5752V13.4219H112.213V8.56152C112.213 8.17415 112.156 7.86426 112.042 7.63184C111.928 7.39486 111.762 7.22396 111.543 7.11914C111.324 7.00977 111.055 6.95508 110.736 6.95508C110.422 6.95508 110.135 7.02116 109.875 7.15332C109.62 7.28548 109.399 7.46777 109.212 7.7002C109.03 7.93262 108.886 8.19922 108.781 8.5C108.681 8.79622 108.631 9.11068 108.631 9.44336ZM116.779 6.02539V13.4219H115.508V6.02539H116.779ZM115.412 4.06348C115.412 3.8584 115.474 3.68522 115.597 3.54395C115.724 3.40267 115.911 3.33203 116.157 3.33203C116.399 3.33203 116.583 3.40267 116.711 3.54395C116.843 3.68522 116.909 3.8584 116.909 4.06348C116.909 4.25944 116.843 4.42806 116.711 4.56934C116.583 4.70605 116.399 4.77441 116.157 4.77441C115.911 4.77441 115.724 4.70605 115.597 4.56934C115.474 4.42806 115.412 4.25944 115.412 4.06348Z" fill="#262626"/>
</g>
<g clip-path="url(#clip1_1_246)">
<path d="M7.6708 22.1797V31.4219H6.4457V22.1797H7.6708ZM11.5429 26.3374V27.3403H7.4042V26.3374H11.5429ZM12.1713 22.1797V23.1826H7.4042V22.1797H12.1713ZM13.0028 28.064V27.918C13.0028 27.4229 13.0748 26.9637 13.2187 26.5405C13.3625 26.1131 13.5699 25.7428 13.8407 25.4297C14.1116 25.1123 14.4395 24.8669 14.8246 24.6934C15.2097 24.5156 15.6413 24.4268 16.1195 24.4268C16.602 24.4268 17.0357 24.5156 17.4208 24.6934C17.8101 24.8669 18.1402 25.1123 18.411 25.4297C18.6861 25.7428 18.8956 26.1131 19.0395 26.5405C19.1833 26.9637 19.2553 27.4229 19.2553 27.918V28.064C19.2553 28.5591 19.1833 29.0182 19.0395 29.4414C18.8956 29.8646 18.6861 30.2349 18.411 30.5522C18.1402 30.8654 17.8122 31.1108 17.4271 31.2886C17.0463 31.4621 16.6146 31.5488 16.1322 31.5488C15.6498 31.5488 15.216 31.4621 14.831 31.2886C14.4459 31.1108 14.1158 30.8654 13.8407 30.5522C13.5699 30.2349 13.3625 29.8646 13.2187 29.4414C13.0748 29.0182 13.0028 28.5591 13.0028 28.064ZM14.1771 27.918V28.064C14.1771 28.4067 14.2173 28.7305 14.2978 29.0352C14.3782 29.3356 14.4988 29.6022 14.6596 29.835C14.8246 30.0677 15.0298 30.2518 15.2753 30.3872C15.5207 30.5184 15.8064 30.584 16.1322 30.584C16.4538 30.584 16.7353 30.5184 16.9765 30.3872C17.2219 30.2518 17.425 30.0677 17.5858 29.835C17.7466 29.6022 17.8673 29.3356 17.9477 29.0352C18.0323 28.7305 18.0746 28.4067 18.0746 28.064V27.918C18.0746 27.5794 18.0323 27.2599 17.9477 26.9595C17.8673 26.6548 17.7445 26.3861 17.5795 26.1533C17.4187 25.9163 17.2156 25.7301 16.9701 25.5947C16.7289 25.4593 16.4454 25.3916 16.1195 25.3916C15.7979 25.3916 15.5144 25.4593 15.2689 25.5947C15.0277 25.7301 14.8246 25.9163 14.6596 26.1533C14.4988 26.3861 14.3782 26.6548 14.2978 26.9595C14.2173 27.2599 14.1771 27.5794 14.1771 27.918ZM22.0038 21.6719V31.4219H20.8231V21.6719H22.0038ZM25.1649 21.6719V31.4219H23.9843V21.6719H25.1649ZM26.7392 28.064V27.918C26.7392 27.4229 26.8111 26.9637 26.955 26.5405C27.0989 26.1131 27.3062 25.7428 27.577 25.4297C27.8479 25.1123 28.1758 24.8669 28.5609 24.6934C28.946 24.5156 29.3777 24.4268 29.8559 24.4268C30.3383 24.4268 30.772 24.5156 31.1571 24.6934C31.5465 24.8669 31.8765 25.1123 32.1474 25.4297C32.4224 25.7428 32.6319 26.1131 32.7758 26.5405C32.9197 26.9637 32.9916 27.4229 32.9916 27.918V28.064C32.9916 28.5591 32.9197 29.0182 32.7758 29.4414C32.6319 29.8646 32.4224 30.2349 32.1474 30.5522C31.8765 30.8654 31.5486 31.1108 31.1635 31.2886C30.7826 31.4621 30.351 31.5488 29.8686 31.5488C29.3861 31.5488 28.9524 31.4621 28.5673 31.2886C28.1822 31.1108 27.8521 30.8654 27.577 30.5522C27.3062 30.2349 27.0989 29.8646 26.955 29.4414C26.8111 29.0182 26.7392 28.5591 26.7392 28.064ZM27.9135 27.918V28.064C27.9135 28.4067 27.9537 28.7305 28.0341 29.0352C28.1145 29.3356 28.2351 29.6022 28.3959 29.835C28.5609 30.0677 28.7662 30.2518 29.0116 30.3872C29.2571 30.5184 29.5427 30.584 29.8686 30.584C30.1902 30.584 30.4716 30.5184 30.7128 30.3872C30.9582 30.2518 31.1614 30.0677 31.3222 29.835C31.483 29.6022 31.6036 29.3356 31.684 29.0352C31.7686 28.7305 31.8109 28.4067 31.8109 28.064V27.918C31.8109 27.5794 31.7686 27.2599 31.684 26.9595C31.6036 26.6548 31.4809 26.3861 31.3158 26.1533C31.155 25.9163 30.9519 25.7301 30.7064 25.5947C30.4652 25.4593 30.1817 25.3916 29.8559 25.3916C29.5342 25.3916 29.2507 25.4593 29.0053 25.5947C28.7641 25.7301 28.5609 25.9163 28.3959 26.1533C28.2351 26.3861 28.1145 26.6548 28.0341 26.9595C27.9537 27.2599 27.9135 27.5794 27.9135 27.918ZM36.2035 30.2031L37.9682 24.5537H38.7426L38.5902 25.6772L36.7938 31.4219H36.0385L36.2035 30.2031ZM35.0165 24.5537L36.5209 30.2666L36.6288 31.4219H35.8354L33.8422 24.5537H35.0165ZM40.4311 30.2222L41.8656 24.5537H43.0336L41.0404 31.4219H40.2533L40.4311 30.2222ZM38.914 24.5537L40.6405 30.1079L40.8373 31.4219H40.0883L38.2411 25.6646L38.0888 24.5537H38.914ZM47.0897 31.5488C46.6116 31.5488 46.1778 31.4684 45.7885 31.3076C45.4034 31.1426 45.0712 30.9119 44.7919 30.6157C44.5168 30.3195 44.3052 29.9683 44.1571 29.562C44.009 29.1558 43.935 28.7114 43.935 28.229V27.9624C43.935 27.4038 44.0175 26.9066 44.1825 26.4707C44.3476 26.0306 44.5718 25.6582 44.8554 25.3535C45.1389 25.0488 45.4605 24.8182 45.8202 24.6616C46.1799 24.505 46.5523 24.4268 46.9374 24.4268C47.4283 24.4268 47.8515 24.5114 48.2069 24.6807C48.5666 24.8499 48.8607 25.0869 49.0893 25.3916C49.3178 25.6921 49.487 26.0475 49.5971 26.458C49.7071 26.8643 49.7621 27.3086 49.7621 27.791V28.3179H44.6332V27.3594H48.5878V27.2705C48.5709 26.9658 48.5074 26.6696 48.3974 26.3818C48.2916 26.0941 48.1223 25.8571 47.8895 25.6709C47.6568 25.4847 47.3394 25.3916 46.9374 25.3916C46.6708 25.3916 46.4254 25.4487 46.2011 25.563C45.9768 25.673 45.7842 25.8381 45.6234 26.0581C45.4626 26.2782 45.3378 26.5469 45.2489 26.8643C45.1601 27.1816 45.1156 27.5477 45.1156 27.9624V28.229C45.1156 28.5549 45.1601 28.8617 45.2489 29.1494C45.342 29.4329 45.4753 29.6826 45.6488 29.8984C45.8266 30.1143 46.0403 30.2835 46.2899 30.4062C46.5438 30.529 46.8316 30.5903 47.1532 30.5903C47.5679 30.5903 47.9192 30.5057 48.2069 30.3364C48.4947 30.1672 48.7465 29.9408 48.9623 29.6572L49.6732 30.2222C49.5251 30.4465 49.3368 30.6602 49.1083 30.8633C48.8798 31.0664 48.5984 31.2314 48.2641 31.3584C47.934 31.4854 47.5425 31.5488 47.0897 31.5488ZM55.4623 30.0889V21.6719H56.643V31.4219H55.5639L55.4623 30.0889ZM50.8412 28.064V27.9307C50.8412 27.4059 50.9047 26.9299 51.0316 26.5024C51.1628 26.0708 51.3469 25.7005 51.5839 25.3916C51.8251 25.0827 52.1107 24.8457 52.4408 24.6807C52.7751 24.5114 53.1475 24.4268 53.558 24.4268C53.9896 24.4268 54.3663 24.5029 54.6879 24.6553C55.0137 24.8034 55.2888 25.0213 55.5131 25.3091C55.7416 25.5926 55.9215 25.9354 56.0526 26.3374C56.1838 26.7394 56.2748 27.1943 56.3256 27.7021V28.2861C56.279 28.7897 56.1881 29.2425 56.0526 29.6445C55.9215 30.0465 55.7416 30.3893 55.5131 30.6729C55.2888 30.9564 55.0137 31.1743 54.6879 31.3267C54.362 31.4748 53.9812 31.5488 53.5453 31.5488C53.1433 31.5488 52.7751 31.4621 52.4408 31.2886C52.1107 31.1151 51.8251 30.8717 51.5839 30.5586C51.3469 30.2454 51.1628 29.8773 51.0316 29.4541C50.9047 29.0267 50.8412 28.5633 50.8412 28.064ZM52.0219 27.9307V28.064C52.0219 28.4067 52.0557 28.7284 52.1234 29.0288C52.1954 29.3293 52.3054 29.5938 52.4535 29.8223C52.6016 30.0508 52.7899 30.2306 53.0185 30.3618C53.247 30.4888 53.5199 30.5522 53.8373 30.5522C54.2266 30.5522 54.5461 30.4697 54.7958 30.3047C55.0497 30.1396 55.2528 29.9217 55.4052 29.6509C55.5575 29.38 55.676 29.0859 55.7606 28.7686V27.2388C55.7099 27.006 55.6358 26.7817 55.5385 26.5659C55.4454 26.3459 55.3227 26.1512 55.1703 25.9819C55.0222 25.8084 54.8381 25.6709 54.6181 25.5693C54.4022 25.4678 54.1462 25.417 53.85 25.417C53.5284 25.417 53.2512 25.4847 53.0185 25.6201C52.7899 25.7513 52.6016 25.9333 52.4535 26.166C52.3054 26.3945 52.1954 26.6611 52.1234 26.9658C52.0557 27.2663 52.0219 27.5879 52.0219 27.9307ZM61.6894 21.6719H62.87V30.0889L62.7685 31.4219H61.6894V21.6719ZM67.5102 27.9307V28.064C67.5102 28.5633 67.4509 29.0267 67.3324 29.4541C67.2139 29.8773 67.0404 30.2454 66.8119 30.5586C66.5834 30.8717 66.3041 31.1151 65.974 31.2886C65.6439 31.4621 65.2652 31.5488 64.8378 31.5488C64.4019 31.5488 64.0189 31.4748 63.6889 31.3267C63.363 31.1743 63.088 30.9564 62.8637 30.6729C62.6394 30.3893 62.4595 30.0465 62.3241 29.6445C62.1929 29.2425 62.102 28.7897 62.0512 28.2861V27.7021C62.102 27.1943 62.1929 26.7394 62.3241 26.3374C62.4595 25.9354 62.6394 25.5926 62.8637 25.3091C63.088 25.0213 63.363 24.8034 63.6889 24.6553C64.0147 24.5029 64.3935 24.4268 64.8251 24.4268C65.2567 24.4268 65.6397 24.5114 65.974 24.6807C66.3083 24.8457 66.5876 25.0827 66.8119 25.3916C67.0404 25.7005 67.2139 26.0708 67.3324 26.5024C67.4509 26.9299 67.5102 27.4059 67.5102 27.9307ZM66.3295 28.064V27.9307C66.3295 27.5879 66.2978 27.2663 66.2343 26.9658C66.1708 26.6611 66.0692 26.3945 65.9296 26.166C65.7899 25.9333 65.6059 25.7513 65.3773 25.6201C65.1488 25.4847 64.8674 25.417 64.5331 25.417C64.2369 25.417 63.9787 25.4678 63.7587 25.5693C63.5429 25.6709 63.3588 25.8084 63.2064 25.9819C63.0541 26.1512 62.9293 26.3459 62.8319 26.5659C62.7388 26.7817 62.669 27.006 62.6225 27.2388V28.7686C62.6902 29.0648 62.8002 29.3504 62.9525 29.6255C63.1091 29.8963 63.3165 30.1185 63.5746 30.292C63.837 30.4655 64.1607 30.5522 64.5458 30.5522C64.8632 30.5522 65.134 30.4888 65.3583 30.3618C65.5868 30.2306 65.7709 30.0508 65.9105 29.8223C66.0544 29.5938 66.1602 29.3293 66.2279 29.0288C66.2956 28.7284 66.3295 28.4067 66.3295 28.064ZM70.849 30.7109L72.7597 24.5537H74.0165L71.2616 32.4819C71.1981 32.6512 71.1135 32.8332 71.0077 33.0278C70.9062 33.2267 70.775 33.415 70.6142 33.5928C70.4534 33.7705 70.2587 33.9144 70.0302 34.0244C69.8059 34.1387 69.5372 34.1958 69.224 34.1958C69.1309 34.1958 69.0124 34.1831 68.8686 34.1577C68.7247 34.1323 68.6231 34.1112 68.5639 34.0942L68.5575 33.1421C68.5914 33.1463 68.6443 33.1506 68.7162 33.1548C68.7924 33.1632 68.8453 33.1675 68.8749 33.1675C69.1415 33.1675 69.3679 33.1315 69.5541 33.0596C69.7403 32.9919 69.8969 32.8755 70.0238 32.7104C70.155 32.5496 70.2672 32.3275 70.3603 32.0439L70.849 30.7109ZM69.4462 24.5537L71.2299 29.8857L71.5346 31.1235L70.6903 31.5552L68.164 24.5537H69.4462ZM81.0497 30.584C81.329 30.584 81.5871 30.5269 81.8241 30.4126C82.0611 30.2983 82.2558 30.1418 82.4081 29.9429C82.5604 29.7397 82.6472 29.5091 82.6684 29.251H83.7855C83.7644 29.6572 83.6269 30.036 83.3729 30.3872C83.1233 30.7342 82.7953 31.0156 82.3891 31.2314C81.9828 31.443 81.5364 31.5488 81.0497 31.5488C80.5334 31.5488 80.0827 31.4578 79.6977 31.2759C79.3168 31.0939 78.9994 30.8442 78.7455 30.5269C78.4958 30.2095 78.3075 29.8455 78.1806 29.4351C78.0578 29.0203 77.9965 28.5824 77.9965 28.1211V27.8545C77.9965 27.3932 78.0578 26.9574 78.1806 26.5469C78.3075 26.1322 78.4958 25.7661 78.7455 25.4487C78.9994 25.1313 79.3168 24.8817 79.6977 24.6997C80.0827 24.5177 80.5334 24.4268 81.0497 24.4268C81.5871 24.4268 82.0569 24.5368 82.4589 24.7568C82.8609 24.9727 83.1762 25.2689 83.4047 25.6455C83.6374 26.0179 83.7644 26.4411 83.7855 26.915H82.6684C82.6472 26.6315 82.5668 26.3755 82.4271 26.147C82.2917 25.9185 82.1055 25.7365 81.8686 25.6011C81.6358 25.4614 81.3629 25.3916 81.0497 25.3916C80.69 25.3916 80.3874 25.4635 80.142 25.6074C79.9008 25.7471 79.7082 25.9375 79.5644 26.1787C79.4247 26.4157 79.3231 26.6802 79.2597 26.9722C79.2004 27.2599 79.1708 27.554 79.1708 27.8545V28.1211C79.1708 28.4215 79.2004 28.7178 79.2597 29.0098C79.3189 29.3018 79.4184 29.5662 79.558 29.8032C79.7019 30.0402 79.8944 30.2306 80.1356 30.3745C80.3811 30.5142 80.6858 30.584 81.0497 30.584ZM86.2802 21.6719V31.4219H85.1059V21.6719H86.2802ZM86.0009 27.7275L85.5121 27.7085C85.5163 27.2388 85.5862 26.805 85.7216 26.4072C85.857 26.0052 86.0474 25.6561 86.2929 25.3599C86.5383 25.0636 86.8303 24.8351 87.1688 24.6743C87.5116 24.5093 87.8904 24.4268 88.3051 24.4268C88.6436 24.4268 88.9483 24.4733 89.2191 24.5664C89.49 24.6553 89.7206 24.7992 89.911 24.998C90.1057 25.1969 90.2538 25.4551 90.3554 25.7725C90.4569 26.0856 90.5077 26.4686 90.5077 26.9214V31.4219H89.327V26.9087C89.327 26.549 89.2742 26.2612 89.1684 26.0454C89.0626 25.8254 88.9081 25.6667 88.705 25.5693C88.5019 25.4678 88.2522 25.417 87.956 25.417C87.664 25.417 87.3974 25.4784 87.1562 25.6011C86.9192 25.7238 86.7139 25.8931 86.5404 26.1089C86.3712 26.3247 86.2379 26.5723 86.1405 26.8516C86.0474 27.1266 86.0009 27.4186 86.0009 27.7275ZM93.5419 24.5537V31.4219H92.3612V24.5537H93.5419ZM92.2724 22.7319C92.2724 22.5415 92.3295 22.3807 92.4437 22.2495C92.5622 22.1183 92.7357 22.0527 92.9643 22.0527C93.1885 22.0527 93.3599 22.1183 93.4784 22.2495C93.6011 22.3807 93.6625 22.5415 93.6625 22.7319C93.6625 22.9139 93.6011 23.0705 93.4784 23.2017C93.3599 23.3286 93.1885 23.3921 92.9643 23.3921C92.7357 23.3921 92.5622 23.3286 92.4437 23.2017C92.3295 23.0705 92.2724 22.9139 92.2724 22.7319ZM96.6015 25.6328V31.4219H95.4271V24.5537H96.5697L96.6015 25.6328ZM98.747 24.5156L98.7406 25.6074C98.6433 25.5863 98.5502 25.5736 98.4613 25.5693C98.3767 25.5609 98.2794 25.5566 98.1693 25.5566C97.8985 25.5566 97.6594 25.599 97.452 25.6836C97.2447 25.7682 97.0691 25.8867 96.9252 26.0391C96.7813 26.1914 96.6671 26.3734 96.5824 26.585C96.502 26.7923 96.4491 27.0208 96.4237 27.2705L96.0937 27.4609C96.0937 27.0462 96.1339 26.6569 96.2143 26.293C96.2989 25.929 96.428 25.6074 96.6015 25.3281C96.775 25.0446 96.995 24.8245 97.2616 24.668C97.5325 24.5072 97.8541 24.4268 98.2265 24.4268C98.3111 24.4268 98.4084 24.4373 98.5185 24.4585C98.6285 24.4754 98.7047 24.4945 98.747 24.5156ZM103.628 30.2476V26.7119C103.628 26.4411 103.573 26.2062 103.463 26.0073C103.357 25.8042 103.197 25.6476 102.981 25.5376C102.765 25.4276 102.498 25.3726 102.181 25.3726C101.885 25.3726 101.625 25.4233 101.4 25.5249C101.18 25.6265 101.007 25.7598 100.88 25.9248C100.757 26.0898 100.696 26.2676 100.696 26.458H99.5214C99.5214 26.2126 99.5849 25.9692 99.7118 25.728C99.8388 25.4868 100.021 25.2689 100.258 25.0742C100.499 24.8753 100.787 24.7188 101.121 24.6045C101.46 24.486 101.836 24.4268 102.251 24.4268C102.75 24.4268 103.19 24.5114 103.571 24.6807C103.956 24.8499 104.257 25.106 104.473 25.4487C104.693 25.7873 104.803 26.2126 104.803 26.7246V29.9238C104.803 30.1523 104.822 30.3957 104.86 30.6538C104.902 30.9119 104.963 31.1341 105.044 31.3203V31.4219H103.819C103.76 31.2865 103.713 31.1066 103.679 30.8823C103.645 30.6538 103.628 30.4422 103.628 30.2476ZM103.831 27.2578L103.844 28.083H102.657C102.323 28.083 102.024 28.1105 101.762 28.1655C101.5 28.2163 101.28 28.2946 101.102 28.4004C100.924 28.5062 100.789 28.6395 100.696 28.8003C100.603 28.9569 100.556 29.141 100.556 29.3525C100.556 29.5684 100.605 29.7651 100.702 29.9429C100.799 30.1206 100.945 30.2624 101.14 30.3682C101.339 30.4697 101.582 30.5205 101.87 30.5205C102.23 30.5205 102.547 30.4443 102.822 30.292C103.097 30.1396 103.315 29.9535 103.476 29.7334C103.641 29.5133 103.73 29.2996 103.743 29.0923L104.244 29.6572C104.214 29.835 104.134 30.0317 104.003 30.2476C103.872 30.4634 103.696 30.6707 103.476 30.8696C103.26 31.0643 103.002 31.2272 102.702 31.3584C102.405 31.4854 102.071 31.5488 101.699 31.5488C101.233 31.5488 100.825 31.4578 100.474 31.2759C100.127 31.0939 99.8557 30.8506 99.661 30.5459C99.4706 30.237 99.3754 29.8921 99.3754 29.5112C99.3754 29.1431 99.4473 28.8193 99.5912 28.54C99.7351 28.2565 99.9424 28.0216 100.213 27.8354C100.484 27.645 100.81 27.5011 101.191 27.4038C101.572 27.3065 101.997 27.2578 102.467 27.2578H103.831ZM111.1 24.5537H112.166V31.2759C112.166 31.881 112.043 32.3973 111.798 32.8247C111.552 33.2521 111.21 33.5758 110.769 33.7959C110.334 34.0202 109.83 34.1323 109.259 34.1323C109.022 34.1323 108.742 34.0942 108.421 34.0181C108.103 33.9461 107.79 33.8213 107.481 33.6436C107.177 33.4701 106.921 33.2352 106.713 32.939L107.329 32.2407C107.617 32.5877 107.917 32.8289 108.23 32.9644C108.548 33.0998 108.861 33.1675 109.17 33.1675C109.542 33.1675 109.864 33.0977 110.135 32.958C110.405 32.8184 110.615 32.611 110.763 32.3359C110.915 32.0651 110.992 31.7308 110.992 31.333V26.0645L111.1 24.5537ZM106.371 28.064V27.9307C106.371 27.4059 106.432 26.9299 106.555 26.5024C106.682 26.0708 106.861 25.7005 107.094 25.3916C107.331 25.0827 107.617 24.8457 107.951 24.6807C108.285 24.5114 108.662 24.4268 109.081 24.4268C109.513 24.4268 109.889 24.5029 110.211 24.6553C110.537 24.8034 110.812 25.0213 111.036 25.3091C111.265 25.5926 111.444 25.9354 111.576 26.3374C111.707 26.7394 111.798 27.1943 111.849 27.7021V28.2861C111.802 28.7897 111.711 29.2425 111.576 29.6445C111.444 30.0465 111.265 30.3893 111.036 30.6729C110.812 30.9564 110.537 31.1743 110.211 31.3267C109.885 31.4748 109.504 31.5488 109.068 31.5488C108.658 31.5488 108.285 31.4621 107.951 31.2886C107.621 31.1151 107.337 30.8717 107.1 30.5586C106.864 30.2454 106.682 29.8773 106.555 29.4541C106.432 29.0267 106.371 28.5633 106.371 28.064ZM107.545 27.9307V28.064C107.545 28.4067 107.579 28.7284 107.646 29.0288C107.718 29.3293 107.826 29.5938 107.97 29.8223C108.118 30.0508 108.307 30.2306 108.535 30.3618C108.764 30.4888 109.037 30.5522 109.354 30.5522C109.743 30.5522 110.065 30.4697 110.319 30.3047C110.573 30.1396 110.774 29.9217 110.922 29.6509C111.074 29.38 111.193 29.0859 111.277 28.7686V27.2388C111.231 27.006 111.159 26.7817 111.061 26.5659C110.968 26.3459 110.846 26.1512 110.693 25.9819C110.545 25.8084 110.361 25.6709 110.141 25.5693C109.921 25.4678 109.663 25.417 109.367 25.417C109.045 25.417 108.768 25.4847 108.535 25.6201C108.307 25.7513 108.118 25.9333 107.97 26.166C107.826 26.3945 107.718 26.6611 107.646 26.9658C107.579 27.2663 107.545 27.5879 107.545 27.9307ZM118.901 31.4219V32.3867H113.08V31.4219H118.901ZM123.814 29.6001C123.814 29.4308 123.776 29.2743 123.7 29.1304C123.628 28.9823 123.477 28.849 123.249 28.7305C123.025 28.6077 122.686 28.502 122.233 28.4131C121.852 28.3327 121.508 28.2375 121.199 28.1274C120.894 28.0174 120.634 27.8841 120.418 27.7275C120.206 27.571 120.043 27.3869 119.929 27.1753C119.815 26.9637 119.758 26.7161 119.758 26.4326C119.758 26.1618 119.817 25.9058 119.935 25.6646C120.058 25.4233 120.23 25.2096 120.45 25.0234C120.674 24.8372 120.943 24.6912 121.256 24.5854C121.569 24.4797 121.918 24.4268 122.303 24.4268C122.853 24.4268 123.323 24.5241 123.712 24.7188C124.102 24.9134 124.4 25.1737 124.607 25.4995C124.815 25.8211 124.918 26.1787 124.918 26.5723H123.744C123.744 26.3818 123.687 26.1978 123.573 26.02C123.463 25.8381 123.3 25.6878 123.084 25.5693C122.872 25.4508 122.612 25.3916 122.303 25.3916C121.977 25.3916 121.713 25.4424 121.51 25.5439C121.311 25.6413 121.165 25.7661 121.072 25.9185C120.983 26.0708 120.938 26.2316 120.938 26.4009C120.938 26.5278 120.96 26.6421 121.002 26.7437C121.048 26.841 121.129 26.932 121.243 27.0166C121.357 27.097 121.518 27.1732 121.725 27.2451C121.933 27.3171 122.197 27.389 122.519 27.4609C123.082 27.5879 123.545 27.7402 123.909 27.918C124.273 28.0957 124.544 28.3136 124.722 28.5718C124.899 28.8299 124.988 29.1431 124.988 29.5112C124.988 29.8117 124.925 30.0868 124.798 30.3364C124.675 30.5861 124.495 30.8019 124.258 30.9839C124.025 31.1616 123.746 31.3013 123.42 31.4028C123.099 31.5002 122.737 31.5488 122.335 31.5488C121.73 31.5488 121.218 31.4409 120.799 31.2251C120.38 31.0093 120.062 30.73 119.847 30.3872C119.631 30.0444 119.523 29.6826 119.523 29.3018H120.704C120.72 29.6234 120.814 29.8794 120.983 30.0698C121.152 30.256 121.359 30.3893 121.605 30.4697C121.85 30.5459 122.094 30.584 122.335 30.584C122.656 30.584 122.925 30.5417 123.141 30.457C123.361 30.3724 123.528 30.256 123.642 30.1079C123.757 29.9598 123.814 29.7905 123.814 29.6001ZM127.807 24.5537V31.4219H126.626V24.5537H127.807ZM126.537 22.7319C126.537 22.5415 126.594 22.3807 126.708 22.2495C126.827 22.1183 127 22.0527 127.229 22.0527C127.453 22.0527 127.625 22.1183 127.743 22.2495C127.866 22.3807 127.927 22.5415 127.927 22.7319C127.927 22.9139 127.866 23.0705 127.743 23.2017C127.625 23.3286 127.453 23.3921 127.229 23.3921C127 23.3921 126.827 23.3286 126.708 23.2017C126.594 23.0705 126.537 22.9139 126.537 22.7319ZM130.866 26.02V31.4219H129.692V24.5537H130.803L130.866 26.02ZM130.587 27.7275L130.098 27.7085C130.102 27.2388 130.172 26.805 130.308 26.4072C130.443 26.0052 130.633 25.6561 130.879 25.3599C131.124 25.0636 131.416 24.8351 131.755 24.6743C132.098 24.5093 132.476 24.4268 132.891 24.4268C133.23 24.4268 133.534 24.4733 133.805 24.5664C134.076 24.6553 134.307 24.7992 134.497 24.998C134.692 25.1969 134.84 25.4551 134.941 25.7725C135.043 26.0856 135.094 26.4686 135.094 26.9214V31.4219H133.913V26.9087C133.913 26.549 133.86 26.2612 133.754 26.0454C133.649 25.8254 133.494 25.6667 133.291 25.5693C133.088 25.4678 132.838 25.417 132.542 25.417C132.25 25.417 131.983 25.4784 131.742 25.6011C131.505 25.7238 131.3 25.8931 131.126 26.1089C130.957 26.3247 130.824 26.5723 130.726 26.8516C130.633 27.1266 130.587 27.4186 130.587 27.7275ZM141.327 24.5537H142.393V31.2759C142.393 31.881 142.271 32.3973 142.025 32.8247C141.78 33.2521 141.437 33.5758 140.997 33.7959C140.561 34.0202 140.058 34.1323 139.486 34.1323C139.249 34.1323 138.97 34.0942 138.648 34.0181C138.331 33.9461 138.018 33.8213 137.709 33.6436C137.404 33.4701 137.148 33.2352 136.941 32.939L137.557 32.2407C137.844 32.5877 138.145 32.8289 138.458 32.9644C138.775 33.0998 139.088 33.1675 139.397 33.1675C139.77 33.1675 140.091 33.0977 140.362 32.958C140.633 32.8184 140.843 32.611 140.991 32.3359C141.143 32.0651 141.219 31.7308 141.219 31.333V26.0645L141.327 24.5537ZM136.598 28.064V27.9307C136.598 27.4059 136.659 26.9299 136.782 26.5024C136.909 26.0708 137.089 25.7005 137.322 25.3916C137.559 25.0827 137.844 24.8457 138.179 24.6807C138.513 24.5114 138.89 24.4268 139.309 24.4268C139.74 24.4268 140.117 24.5029 140.438 24.6553C140.764 24.8034 141.039 25.0213 141.264 25.3091C141.492 25.5926 141.672 25.9354 141.803 26.3374C141.934 26.7394 142.025 27.1943 142.076 27.7021V28.2861C142.03 28.7897 141.939 29.2425 141.803 29.6445C141.672 30.0465 141.492 30.3893 141.264 30.6729C141.039 30.9564 140.764 31.1743 140.438 31.3267C140.113 31.4748 139.732 31.5488 139.296 31.5488C138.885 31.5488 138.513 31.4621 138.179 31.2886C137.849 31.1151 137.565 30.8717 137.328 30.5586C137.091 30.2454 136.909 29.8773 136.782 29.4541C136.659 29.0267 136.598 28.5633 136.598 28.064ZM137.772 27.9307V28.064C137.772 28.4067 137.806 28.7284 137.874 29.0288C137.946 29.3293 138.054 29.5938 138.198 29.8223C138.346 30.0508 138.534 30.2306 138.763 30.3618C138.991 30.4888 139.264 30.5522 139.581 30.5522C139.971 30.5522 140.292 30.4697 140.546 30.3047C140.8 30.1396 141.001 29.9217 141.149 29.6509C141.302 29.38 141.42 29.0859 141.505 28.7686V27.2388C141.458 27.006 141.386 26.7817 141.289 26.5659C141.196 26.3459 141.073 26.1512 140.921 25.9819C140.773 25.8084 140.589 25.6709 140.369 25.5693C140.149 25.4678 139.89 25.417 139.594 25.417C139.273 25.417 138.995 25.4847 138.763 25.6201C138.534 25.7513 138.346 25.9333 138.198 26.166C138.054 26.3945 137.946 26.6611 137.874 26.9658C137.806 27.2663 137.772 27.5879 137.772 27.9307ZM145.453 21.6719V31.4219H144.272V21.6719H145.453ZM151.388 30.2476V26.7119C151.388 26.4411 151.333 26.2062 151.223 26.0073C151.117 25.8042 150.956 25.6476 150.741 25.5376C150.525 25.4276 150.258 25.3726 149.941 25.3726C149.645 25.3726 149.384 25.4233 149.16 25.5249C148.94 25.6265 148.767 25.7598 148.64 25.9248C148.517 26.0898 148.455 26.2676 148.455 26.458H147.281C147.281 26.2126 147.345 25.9692 147.472 25.728C147.599 25.4868 147.781 25.2689 148.017 25.0742C148.259 24.8753 148.546 24.7188 148.881 24.6045C149.219 24.486 149.596 24.4268 150.011 24.4268C150.51 24.4268 150.95 24.5114 151.331 24.6807C151.716 24.8499 152.017 25.106 152.232 25.4487C152.452 25.7873 152.562 26.2126 152.562 26.7246V29.9238C152.562 30.1523 152.581 30.3957 152.62 30.6538C152.662 30.9119 152.723 31.1341 152.804 31.3203V31.4219H151.579C151.519 31.2865 151.473 31.1066 151.439 30.8823C151.405 30.6538 151.388 30.4422 151.388 30.2476ZM151.591 27.2578L151.604 28.083H150.417C150.083 28.083 149.784 28.1105 149.522 28.1655C149.26 28.2163 149.039 28.2946 148.862 28.4004C148.684 28.5062 148.549 28.6395 148.455 28.8003C148.362 28.9569 148.316 29.141 148.316 29.3525C148.316 29.5684 148.364 29.7651 148.462 29.9429C148.559 30.1206 148.705 30.2624 148.9 30.3682C149.099 30.4697 149.342 30.5205 149.63 30.5205C149.989 30.5205 150.307 30.4443 150.582 30.292C150.857 30.1396 151.075 29.9535 151.236 29.7334C151.401 29.5133 151.49 29.2996 151.502 29.0923L152.004 29.6572C151.974 29.835 151.894 30.0317 151.763 30.2476C151.631 30.4634 151.456 30.6707 151.236 30.8696C151.02 31.0643 150.762 31.2272 150.461 31.3584C150.165 31.4854 149.831 31.5488 149.458 31.5488C148.993 31.5488 148.585 31.4578 148.233 31.2759C147.886 31.0939 147.615 30.8506 147.421 30.5459C147.23 30.237 147.135 29.8921 147.135 29.5112C147.135 29.1431 147.207 28.8193 147.351 28.54C147.495 28.2565 147.702 28.0216 147.973 27.8354C148.244 27.645 148.57 27.5011 148.951 27.4038C149.331 27.3065 149.757 27.2578 150.226 27.2578H151.591ZM158.142 22.1289V31.4219H156.968V23.5952L154.6 24.4585V23.3984L157.958 22.1289H158.142ZM167.568 22.1797V22.8398L163.741 31.4219H162.503L166.324 23.1445H161.322V22.1797H167.568Z" fill="#8E8E8E"/>
</g>
<defs>
<clipPath id="clip0_1_246">
<rect width="104.344" height="18" fill="white" transform="translate(14.8281 0.421875)"/>
</clipPath>
<clipPath id="clip1_1_246">
<rect width="134" height="18" fill="white" transform="translate(0 18.4219)"/>
</clipPath>
</defs>
</svg>
