<svg width="76" height="51" viewBox="0 0 76 51" fill="none" xmlns="http://www.w3.org/2000/svg">
<g clip-path="url(#clip0_1_232)">
<path d="M2.61035 4.17969V13.4219H1.38525V4.17969H2.61035ZM8.18994 4.17969L4.34961 8.48975L2.19141 10.7305L1.98828 9.42285L3.61328 7.63281L6.71729 4.17969H8.18994ZM7.00928 13.4219L3.58789 8.91504L4.31787 7.94385L8.46924 13.4219H7.00928ZM10.6465 6.55371V13.4219H9.46582V6.55371H10.6465ZM9.37695 4.73193C9.37695 4.5415 9.43408 4.3807 9.54834 4.24951C9.66683 4.11833 9.84033 4.05273 10.0688 4.05273C10.2931 4.05273 10.4645 4.11833 10.583 4.24951C10.7057 4.3807 10.7671 4.5415 10.7671 4.73193C10.7671 4.9139 10.7057 5.07048 10.583 5.20166C10.4645 5.32861 10.2931 5.39209 10.0688 5.39209C9.84033 5.39209 9.66683 5.32861 9.54834 5.20166C9.43408 5.07048 9.37695 4.9139 9.37695 4.73193ZM13.7061 7.63281V13.4219H12.5317V6.55371H13.6743L13.7061 7.63281ZM15.8516 6.51562L15.8452 7.60742C15.7479 7.58626 15.6548 7.57357 15.5659 7.56934C15.4813 7.56087 15.384 7.55664 15.2739 7.55664C15.0031 7.55664 14.764 7.59896 14.5566 7.68359C14.3493 7.76823 14.1737 7.88672 14.0298 8.03906C13.8859 8.19141 13.7716 8.37337 13.687 8.58496C13.6066 8.79232 13.5537 9.02083 13.5283 9.27051L13.1982 9.46094C13.1982 9.04622 13.2384 8.6569 13.3188 8.29297C13.4035 7.92904 13.5326 7.60742 13.7061 7.32812C13.8796 7.0446 14.0996 6.82454 14.3662 6.66797C14.637 6.50716 14.9587 6.42676 15.3311 6.42676C15.4157 6.42676 15.513 6.43734 15.623 6.4585C15.7331 6.47542 15.8092 6.49447 15.8516 6.51562ZM20.1299 6.55371V7.45508H16.4165V6.55371H20.1299ZM17.6733 4.88428H18.8477V11.7207C18.8477 11.9535 18.8836 12.1291 18.9556 12.2476C19.0275 12.366 19.1206 12.4443 19.2349 12.4824C19.3491 12.5205 19.4718 12.5396 19.603 12.5396C19.7004 12.5396 19.8019 12.5311 19.9077 12.5142C20.0177 12.493 20.1003 12.4761 20.1553 12.4634L20.1616 13.4219C20.0685 13.4515 19.9458 13.479 19.7935 13.5044C19.6453 13.534 19.4655 13.5488 19.2539 13.5488C18.9661 13.5488 18.7017 13.4917 18.4604 13.3774C18.2192 13.2632 18.0267 13.0728 17.8828 12.8062C17.7432 12.5353 17.6733 12.1714 17.6733 11.7144V4.88428ZM22.7832 6.55371V13.4219H21.6025V6.55371H22.7832ZM21.5137 4.73193C21.5137 4.5415 21.5708 4.3807 21.6851 4.24951C21.8035 4.11833 21.9771 4.05273 22.2056 4.05273C22.4299 4.05273 22.6012 4.11833 22.7197 4.24951C22.8424 4.3807 22.9038 4.5415 22.9038 4.73193C22.9038 4.9139 22.8424 5.07048 22.7197 5.20166C22.6012 5.32861 22.4299 5.39209 22.2056 5.39209C21.9771 5.39209 21.8035 5.32861 21.6851 5.20166C21.5708 5.07048 21.5137 4.9139 21.5137 4.73193ZM33.6504 10.4829H34.8691C34.8057 11.0669 34.6385 11.5895 34.3677 12.0508C34.0968 12.512 33.7139 12.8781 33.2188 13.1489C32.7236 13.4155 32.1058 13.5488 31.3652 13.5488C30.8236 13.5488 30.3306 13.4473 29.8862 13.2441C29.4461 13.041 29.0674 12.7533 28.75 12.3809C28.4326 12.0042 28.1872 11.5535 28.0137 11.0288C27.8444 10.4998 27.7598 9.91162 27.7598 9.26416V8.34375C27.7598 7.69629 27.8444 7.11019 28.0137 6.58545C28.1872 6.05648 28.4347 5.60368 28.7563 5.22705C29.0822 4.85042 29.4736 4.56055 29.9307 4.35742C30.3877 4.1543 30.9019 4.05273 31.4731 4.05273C32.1714 4.05273 32.7617 4.18392 33.2441 4.44629C33.7266 4.70866 34.1011 5.07259 34.3677 5.53809C34.6385 5.99935 34.8057 6.53467 34.8691 7.14404H33.6504C33.5911 6.7124 33.4811 6.34212 33.3203 6.0332C33.1595 5.72005 32.931 5.47884 32.6348 5.30957C32.3385 5.1403 31.9513 5.05566 31.4731 5.05566C31.0627 5.05566 30.7008 5.13395 30.3877 5.29053C30.0788 5.4471 29.8185 5.66927 29.6069 5.95703C29.3996 6.24479 29.243 6.58968 29.1372 6.9917C29.0314 7.39372 28.9785 7.84017 28.9785 8.33105V9.26416C28.9785 9.71696 29.0251 10.1423 29.1182 10.54C29.2155 10.9378 29.3615 11.2869 29.5562 11.5874C29.7508 11.8879 29.9984 12.1248 30.2988 12.2983C30.5993 12.4676 30.9548 12.5522 31.3652 12.5522C31.8857 12.5522 32.3005 12.4697 32.6094 12.3047C32.9183 12.1396 33.151 11.9027 33.3076 11.5938C33.4684 11.2848 33.5827 10.9146 33.6504 10.4829ZM37.5352 3.67188V13.4219H36.3608V3.67188H37.5352ZM37.2559 9.72754L36.7671 9.7085C36.7713 9.23877 36.8411 8.80501 36.9766 8.40723C37.112 8.00521 37.3024 7.65609 37.5479 7.35986C37.7933 7.06364 38.0853 6.83512 38.4238 6.67432C38.7666 6.50928 39.1453 6.42676 39.5601 6.42676C39.8986 6.42676 40.2033 6.47331 40.4741 6.56641C40.745 6.65527 40.9756 6.79915 41.166 6.99805C41.3607 7.19694 41.5088 7.45508 41.6104 7.77246C41.7119 8.08561 41.7627 8.46859 41.7627 8.92139V13.4219H40.582V8.90869C40.582 8.54899 40.5291 8.26123 40.4233 8.04541C40.3175 7.82536 40.1631 7.66667 39.96 7.56934C39.7568 7.46777 39.5072 7.41699 39.2109 7.41699C38.9189 7.41699 38.6523 7.47835 38.4111 7.60107C38.1742 7.7238 37.9689 7.89307 37.7954 8.10889C37.6261 8.32471 37.4928 8.57227 37.3955 8.85156C37.3024 9.12663 37.2559 9.41862 37.2559 9.72754ZM47.5708 12.2476V8.71191C47.5708 8.44108 47.5158 8.20622 47.4058 8.00732C47.3 7.8042 47.1392 7.64762 46.9233 7.5376C46.7075 7.42757 46.4409 7.37256 46.1235 7.37256C45.8273 7.37256 45.5671 7.42334 45.3428 7.5249C45.1227 7.62646 44.9492 7.75977 44.8223 7.9248C44.6995 8.08984 44.6382 8.26758 44.6382 8.45801H43.4639C43.4639 8.21257 43.5273 7.96924 43.6543 7.72803C43.7812 7.48682 43.9632 7.26888 44.2002 7.07422C44.4414 6.87533 44.7292 6.71875 45.0635 6.60449C45.402 6.486 45.7786 6.42676 46.1934 6.42676C46.6927 6.42676 47.1328 6.51139 47.5137 6.68066C47.8988 6.84993 48.1992 7.10596 48.415 7.44873C48.6351 7.78727 48.7451 8.21257 48.7451 8.72461V11.9238C48.7451 12.1523 48.7642 12.3957 48.8022 12.6538C48.8446 12.9119 48.9059 13.1341 48.9863 13.3203V13.4219H47.7612C47.702 13.2865 47.6554 13.1066 47.6216 12.8823C47.5877 12.6538 47.5708 12.4422 47.5708 12.2476ZM47.7739 9.25781L47.7866 10.083H46.5996C46.2653 10.083 45.967 10.1105 45.7046 10.1655C45.4422 10.2163 45.2222 10.2946 45.0444 10.4004C44.8667 10.5062 44.7313 10.6395 44.6382 10.8003C44.5451 10.9569 44.4985 11.141 44.4985 11.3525C44.4985 11.5684 44.5472 11.7651 44.6445 11.9429C44.7419 12.1206 44.8879 12.2624 45.0825 12.3682C45.2814 12.4697 45.5247 12.5205 45.8125 12.5205C46.1722 12.5205 46.4896 12.4443 46.7646 12.292C47.0397 12.1396 47.2576 11.9535 47.4185 11.7334C47.5835 11.5133 47.6724 11.2996 47.6851 11.0923L48.1865 11.6572C48.1569 11.835 48.0765 12.0317 47.9453 12.2476C47.8141 12.4634 47.6385 12.6707 47.4185 12.8696C47.2026 13.0643 46.9445 13.2272 46.644 13.3584C46.3478 13.4854 46.0135 13.5488 45.6411 13.5488C45.1756 13.5488 44.7673 13.4578 44.416 13.2759C44.069 13.0939 43.7982 12.8506 43.6035 12.5459C43.4131 12.237 43.3179 11.8921 43.3179 11.5112C43.3179 11.1431 43.3898 10.8193 43.5337 10.54C43.6776 10.2565 43.8849 10.0216 44.1558 9.83545C44.4266 9.64502 44.7524 9.50114 45.1333 9.40381C45.5142 9.30648 45.9395 9.25781 46.4092 9.25781H47.7739ZM54.9214 12.0889V3.67188H56.1021V13.4219H55.0229L54.9214 12.0889ZM50.3003 10.064V9.93066C50.3003 9.40592 50.3638 8.92985 50.4907 8.50244C50.6219 8.0708 50.806 7.70052 51.043 7.3916C51.2842 7.08268 51.5698 6.8457 51.8999 6.68066C52.2342 6.51139 52.6066 6.42676 53.0171 6.42676C53.4487 6.42676 53.8254 6.50293 54.147 6.65527C54.4728 6.80339 54.7479 7.02132 54.9722 7.30908C55.2007 7.59261 55.3805 7.93538 55.5117 8.3374C55.6429 8.73942 55.7339 9.19434 55.7847 9.70215V10.2861C55.7381 10.7897 55.6471 11.2425 55.5117 11.6445C55.3805 12.0465 55.2007 12.3893 54.9722 12.6729C54.7479 12.9564 54.4728 13.1743 54.147 13.3267C53.8211 13.4748 53.4403 13.5488 53.0044 13.5488C52.6024 13.5488 52.2342 13.4621 51.8999 13.2886C51.5698 13.1151 51.2842 12.8717 51.043 12.5586C50.806 12.2454 50.6219 11.8773 50.4907 11.4541C50.3638 11.0267 50.3003 10.5633 50.3003 10.064ZM51.481 9.93066V10.064C51.481 10.4067 51.5148 10.7284 51.5825 11.0288C51.6545 11.3293 51.7645 11.5938 51.9126 11.8223C52.0607 12.0508 52.249 12.2306 52.4775 12.3618C52.7061 12.4888 52.979 12.5522 53.2964 12.5522C53.6857 12.5522 54.0052 12.4697 54.2549 12.3047C54.5088 12.1396 54.7119 11.9217 54.8643 11.6509C55.0166 11.38 55.1351 11.0859 55.2197 10.7686V9.23877C55.1689 9.00602 55.0949 8.78174 54.9976 8.56592C54.9045 8.34587 54.7817 8.1512 54.6294 7.98193C54.4813 7.80843 54.2972 7.6709 54.0771 7.56934C53.8613 7.46777 53.6053 7.41699 53.3091 7.41699C52.9875 7.41699 52.7103 7.4847 52.4775 7.62012C52.249 7.7513 52.0607 7.93327 51.9126 8.16602C51.7645 8.39453 51.6545 8.66113 51.5825 8.96582C51.5148 9.26628 51.481 9.58789 51.481 9.93066ZM59.1045 3.67188V13.4219H57.9302V3.67188H59.1045ZM58.8252 9.72754L58.3364 9.7085C58.3407 9.23877 58.4105 8.80501 58.5459 8.40723C58.6813 8.00521 58.8717 7.65609 59.1172 7.35986C59.3626 7.06364 59.6546 6.83512 59.9932 6.67432C60.3359 6.50928 60.7147 6.42676 61.1294 6.42676C61.4679 6.42676 61.7726 6.47331 62.0435 6.56641C62.3143 6.65527 62.5449 6.79915 62.7354 6.99805C62.93 7.19694 63.0781 7.45508 63.1797 7.77246C63.2812 8.08561 63.332 8.46859 63.332 8.92139V13.4219H62.1514V8.90869C62.1514 8.54899 62.0985 8.26123 61.9927 8.04541C61.8869 7.82536 61.7324 7.66667 61.5293 7.56934C61.3262 7.46777 61.0765 7.41699 60.7803 7.41699C60.4883 7.41699 60.2217 7.47835 59.9805 7.60107C59.7435 7.7238 59.5382 7.89307 59.3647 8.10889C59.1955 8.32471 59.0622 8.57227 58.9648 8.85156C58.8717 9.12663 58.8252 9.41862 58.8252 9.72754ZM69.1401 12.2476V8.71191C69.1401 8.44108 69.0851 8.20622 68.9751 8.00732C68.8693 7.8042 68.7085 7.64762 68.4927 7.5376C68.2769 7.42757 68.0103 7.37256 67.6929 7.37256C67.3966 7.37256 67.1364 7.42334 66.9121 7.5249C66.6921 7.62646 66.5186 7.75977 66.3916 7.9248C66.2689 8.08984 66.2075 8.26758 66.2075 8.45801H65.0332C65.0332 8.21257 65.0967 7.96924 65.2236 7.72803C65.3506 7.48682 65.5326 7.26888 65.7695 7.07422C66.0107 6.87533 66.2985 6.71875 66.6328 6.60449C66.9714 6.486 67.348 6.42676 67.7627 6.42676C68.262 6.42676 68.7021 6.51139 69.083 6.68066C69.4681 6.84993 69.7686 7.10596 69.9844 7.44873C70.2044 7.78727 70.3145 8.21257 70.3145 8.72461V11.9238C70.3145 12.1523 70.3335 12.3957 70.3716 12.6538C70.4139 12.9119 70.4753 13.1341 70.5557 13.3203V13.4219H69.3306C69.2713 13.2865 69.2248 13.1066 69.1909 12.8823C69.1571 12.6538 69.1401 12.4422 69.1401 12.2476ZM69.3433 9.25781L69.356 10.083H68.1689C67.8346 10.083 67.5363 10.1105 67.2739 10.1655C67.0116 10.2163 66.7915 10.2946 66.6138 10.4004C66.436 10.5062 66.3006 10.6395 66.2075 10.8003C66.1144 10.9569 66.0679 11.141 66.0679 11.3525C66.0679 11.5684 66.1165 11.7651 66.2139 11.9429C66.3112 12.1206 66.4572 12.2624 66.6519 12.3682C66.8507 12.4697 67.0941 12.5205 67.3818 12.5205C67.7415 12.5205 68.0589 12.4443 68.334 12.292C68.609 12.1396 68.827 11.9535 68.9878 11.7334C69.1528 11.5133 69.2417 11.2996 69.2544 11.0923L69.7559 11.6572C69.7262 11.835 69.6458 12.0317 69.5146 12.2476C69.3835 12.4634 69.2078 12.6707 68.9878 12.8696C68.772 13.0643 68.5138 13.2272 68.2134 13.3584C67.9172 13.4854 67.5828 13.5488 67.2104 13.5488C66.745 13.5488 66.3366 13.4578 65.9854 13.2759C65.6383 13.0939 65.3675 12.8506 65.1729 12.5459C64.9824 12.237 64.8872 11.8921 64.8872 11.5112C64.8872 11.1431 64.9591 10.8193 65.103 10.54C65.2469 10.2565 65.4543 10.0216 65.7251 9.83545C65.9959 9.64502 66.3218 9.50114 66.7026 9.40381C67.0835 9.30648 67.5088 9.25781 67.9785 9.25781H69.3433Z" fill="#262626"/>
</g>
<g clip-path="url(#clip1_1_232)">
<g clip-path="url(#clip2_1_232)">
<path d="M6.11269 22.1797V31.4219H4.8876V22.1797H6.11269ZM9.98476 26.3374V27.3403H5.84609V26.3374H9.98476ZM10.6132 22.1797V23.1826H5.84609V22.1797H10.6132ZM11.4447 28.064V27.918C11.4447 27.4229 11.5167 26.9637 11.6605 26.5405C11.8044 26.1131 12.0118 25.7428 12.2826 25.4297C12.5534 25.1123 12.8814 24.8669 13.2665 24.6934C13.6516 24.5156 14.0832 24.4268 14.5614 24.4268C15.0438 24.4268 15.4776 24.5156 15.8627 24.6934C16.252 24.8669 16.5821 25.1123 16.8529 25.4297C17.128 25.7428 17.3375 26.1131 17.4813 26.5405C17.6252 26.9637 17.6972 27.4229 17.6972 27.918V28.064C17.6972 28.5591 17.6252 29.0182 17.4813 29.4414C17.3375 29.8646 17.128 30.2349 16.8529 30.5522C16.5821 30.8654 16.2541 31.1108 15.869 31.2886C15.4882 31.4621 15.0565 31.5488 14.5741 31.5488C14.0917 31.5488 13.6579 31.4621 13.2729 31.2886C12.8878 31.1108 12.5577 30.8654 12.2826 30.5522C12.0118 30.2349 11.8044 29.8646 11.6605 29.4414C11.5167 29.0182 11.4447 28.5591 11.4447 28.064ZM12.619 27.918V28.064C12.619 28.4067 12.6592 28.7305 12.7396 29.0352C12.8201 29.3356 12.9407 29.6022 13.1015 29.835C13.2665 30.0677 13.4717 30.2518 13.7172 30.3872C13.9626 30.5184 14.2483 30.584 14.5741 30.584C14.8957 30.584 15.1771 30.5184 15.4184 30.3872C15.6638 30.2518 15.8669 30.0677 16.0277 29.835C16.1885 29.6022 16.3091 29.3356 16.3895 29.0352C16.4742 28.7305 16.5165 28.4067 16.5165 28.064V27.918C16.5165 27.5794 16.4742 27.2599 16.3895 26.9595C16.3091 26.6548 16.1864 26.3861 16.0214 26.1533C15.8606 25.9163 15.6575 25.7301 15.412 25.5947C15.1708 25.4593 14.8873 25.3916 14.5614 25.3916C14.2398 25.3916 13.9563 25.4593 13.7108 25.5947C13.4696 25.7301 13.2665 25.9163 13.1015 26.1533C12.9407 26.3861 12.8201 26.6548 12.7396 26.9595C12.6592 27.2599 12.619 27.5794 12.619 27.918ZM20.4457 21.6719V31.4219H19.265V21.6719H20.4457ZM23.6068 21.6719V31.4219H22.4262V21.6719H23.6068ZM25.1811 28.064V27.918C25.1811 27.4229 25.253 26.9637 25.3969 26.5405C25.5408 26.1131 25.7481 25.7428 26.0189 25.4297C26.2898 25.1123 26.6177 24.8669 27.0028 24.6934C27.3879 24.5156 27.8196 24.4268 28.2978 24.4268C28.7802 24.4268 29.2139 24.5156 29.599 24.6934C29.9883 24.8669 30.3184 25.1123 30.5893 25.4297C30.8643 25.7428 31.0738 26.1131 31.2177 26.5405C31.3616 26.9637 31.4335 27.4229 31.4335 27.918V28.064C31.4335 28.5591 31.3616 29.0182 31.2177 29.4414C31.0738 29.8646 30.8643 30.2349 30.5893 30.5522C30.3184 30.8654 29.9905 31.1108 29.6054 31.2886C29.2245 31.4621 28.7929 31.5488 28.3104 31.5488C27.828 31.5488 27.3943 31.4621 27.0092 31.2886C26.6241 31.1108 26.294 30.8654 26.0189 30.5522C25.7481 30.2349 25.5408 29.8646 25.3969 29.4414C25.253 29.0182 25.1811 28.5591 25.1811 28.064ZM26.3554 27.918V28.064C26.3554 28.4067 26.3956 28.7305 26.476 29.0352C26.5564 29.3356 26.677 29.6022 26.8378 29.835C27.0028 30.0677 27.2081 30.2518 27.4535 30.3872C27.699 30.5184 27.9846 30.584 28.3104 30.584C28.6321 30.584 28.9135 30.5184 29.1547 30.3872C29.4001 30.2518 29.6033 30.0677 29.7641 29.835C29.9249 29.6022 30.0455 29.3356 30.1259 29.0352C30.2105 28.7305 30.2528 28.4067 30.2528 28.064V27.918C30.2528 27.5794 30.2105 27.2599 30.1259 26.9595C30.0455 26.6548 29.9228 26.3861 29.7577 26.1533C29.5969 25.9163 29.3938 25.7301 29.1483 25.5947C28.9071 25.4593 28.6236 25.3916 28.2978 25.3916C27.9761 25.3916 27.6926 25.4593 27.4472 25.5947C27.206 25.7301 27.0028 25.9163 26.8378 26.1533C26.677 26.3861 26.5564 26.6548 26.476 26.9595C26.3956 27.2599 26.3554 27.5794 26.3554 27.918ZM34.6454 30.2031L36.4101 24.5537H37.1845L37.0321 25.6772L35.2357 31.4219H34.4804L34.6454 30.2031ZM33.4584 24.5537L34.9628 30.2666L35.0707 31.4219H34.2772L32.2841 24.5537H33.4584ZM38.8729 30.2222L40.3075 24.5537H41.4755L39.4823 31.4219H38.6952L38.8729 30.2222ZM37.3559 24.5537L39.0824 30.1079L39.2792 31.4219H38.5302L36.683 25.6646L36.5307 24.5537H37.3559ZM46.6806 29.6001C46.6806 29.4308 46.6425 29.2743 46.5663 29.1304C46.4944 28.9823 46.3441 28.849 46.1156 28.7305C45.8913 28.6077 45.5528 28.502 45.1 28.4131C44.7191 28.3327 44.3742 28.2375 44.0653 28.1274C43.7606 28.0174 43.5004 27.8841 43.2846 27.7275C43.073 27.571 42.9101 27.3869 42.7958 27.1753C42.6815 26.9637 42.6244 26.7161 42.6244 26.4326C42.6244 26.1618 42.6837 25.9058 42.8021 25.6646C42.9249 25.4233 43.0963 25.2096 43.3163 25.0234C43.5406 24.8372 43.8093 24.6912 44.1225 24.5854C44.4356 24.4797 44.7847 24.4268 45.1698 24.4268C45.72 24.4268 46.1897 24.5241 46.579 24.7188C46.9683 24.9134 47.2667 25.1737 47.474 25.4995C47.6814 25.8211 47.7851 26.1787 47.7851 26.5723H46.6107C46.6107 26.3818 46.5536 26.1978 46.4394 26.02C46.3293 25.8381 46.1664 25.6878 45.9506 25.5693C45.739 25.4508 45.4787 25.3916 45.1698 25.3916C44.844 25.3916 44.5795 25.4424 44.3764 25.5439C44.1775 25.6413 44.0315 25.7661 43.9384 25.9185C43.8495 26.0708 43.8051 26.2316 43.8051 26.4009C43.8051 26.5278 43.8262 26.6421 43.8686 26.7437C43.9151 26.841 43.9955 26.932 44.1098 27.0166C44.224 27.097 44.3848 27.1732 44.5922 27.2451C44.7995 27.3171 45.064 27.389 45.3856 27.4609C45.9485 27.5879 46.4118 27.7402 46.7758 27.918C47.1397 28.0957 47.4105 28.3136 47.5883 28.5718C47.766 28.8299 47.8549 29.1431 47.8549 29.5112C47.8549 29.8117 47.7914 30.0868 47.6645 30.3364C47.5417 30.5861 47.3619 30.8019 47.1249 30.9839C46.8922 31.1616 46.6129 31.3013 46.287 31.4028C45.9654 31.5002 45.6036 31.5488 45.2016 31.5488C44.5964 31.5488 44.0844 31.4409 43.6654 31.2251C43.2465 31.0093 42.9291 30.73 42.7133 30.3872C42.4975 30.0444 42.3895 29.6826 42.3895 29.3018H43.5702C43.5871 29.6234 43.6802 29.8794 43.8495 30.0698C44.0188 30.256 44.2261 30.3893 44.4716 30.4697C44.717 30.5459 44.9604 30.584 45.2016 30.584C45.5232 30.584 45.7919 30.5417 46.0077 30.457C46.2278 30.3724 46.3949 30.256 46.5092 30.1079C46.6234 29.9598 46.6806 29.7905 46.6806 29.6001ZM54.5517 30.7109L56.4623 24.5537H57.7191L54.9643 32.4819C54.9008 32.6512 54.8161 32.8332 54.7104 33.0278C54.6088 33.2267 54.4776 33.415 54.3168 33.5928C54.156 33.7705 53.9613 33.9144 53.7328 34.0244C53.5085 34.1387 53.2398 34.1958 52.9267 34.1958C52.8336 34.1958 52.7151 34.1831 52.5712 34.1577C52.4273 34.1323 52.3257 34.1112 52.2665 34.0942L52.2602 33.1421C52.294 33.1463 52.3469 33.1506 52.4188 33.1548C52.495 33.1632 52.5479 33.1675 52.5775 33.1675C52.8441 33.1675 53.0705 33.1315 53.2567 33.0596C53.4429 32.9919 53.5995 32.8755 53.7265 32.7104C53.8576 32.5496 53.9698 32.3275 54.0629 32.0439L54.5517 30.7109ZM53.1488 24.5537L54.9325 29.8857L55.2372 31.1235L54.393 31.5552L51.8666 24.5537H53.1488ZM58.3666 28.064V27.918C58.3666 27.4229 58.4385 26.9637 58.5824 26.5405C58.7263 26.1131 58.9337 25.7428 59.2045 25.4297C59.4753 25.1123 59.8033 24.8669 60.1884 24.6934C60.5735 24.5156 61.0051 24.4268 61.4833 24.4268C61.9657 24.4268 62.3995 24.5156 62.7846 24.6934C63.1739 24.8669 63.504 25.1123 63.7748 25.4297C64.0499 25.7428 64.2593 26.1131 64.4032 26.5405C64.5471 26.9637 64.619 27.4229 64.619 27.918V28.064C64.619 28.5591 64.5471 29.0182 64.4032 29.4414C64.2593 29.8646 64.0499 30.2349 63.7748 30.5522C63.504 30.8654 63.176 31.1108 62.7909 31.2886C62.4101 31.4621 61.9784 31.5488 61.496 31.5488C61.0136 31.5488 60.5798 31.4621 60.1947 31.2886C59.8096 31.1108 59.4796 30.8654 59.2045 30.5522C58.9337 30.2349 58.7263 29.8646 58.5824 29.4414C58.4385 29.0182 58.3666 28.5591 58.3666 28.064ZM59.5409 27.918V28.064C59.5409 28.4067 59.5811 28.7305 59.6615 29.0352C59.7419 29.3356 59.8625 29.6022 60.0233 29.835C60.1884 30.0677 60.3936 30.2518 60.6391 30.3872C60.8845 30.5184 61.1701 30.584 61.496 30.584C61.8176 30.584 62.099 30.5184 62.3402 30.3872C62.5857 30.2518 62.7888 30.0677 62.9496 29.835C63.1104 29.6022 63.231 29.3356 63.3114 29.0352C63.3961 28.7305 63.4384 28.4067 63.4384 28.064V27.918C63.4384 27.5794 63.3961 27.2599 63.3114 26.9595C63.231 26.6548 63.1083 26.3861 62.9433 26.1533C62.7825 25.9163 62.5793 25.7301 62.3339 25.5947C62.0927 25.4593 61.8091 25.3916 61.4833 25.3916C61.1617 25.3916 60.8782 25.4593 60.6327 25.5947C60.3915 25.7301 60.1884 25.9163 60.0233 26.1533C59.8625 26.3861 59.7419 26.6548 59.6615 26.9595C59.5811 27.2599 59.5409 27.5794 59.5409 27.918ZM70.2938 29.835V24.5537H71.4745V31.4219H70.351L70.2938 29.835ZM70.516 28.3877L71.0048 28.375C71.0048 28.832 70.9561 29.2552 70.8588 29.6445C70.7657 30.0296 70.6133 30.3639 70.4018 30.6475C70.1902 30.931 69.913 31.1532 69.5702 31.314C69.2274 31.4705 68.8106 31.5488 68.3197 31.5488C67.9854 31.5488 67.6786 31.5002 67.3993 31.4028C67.1242 31.3055 66.8873 31.1553 66.6884 30.9521C66.4895 30.749 66.335 30.4845 66.225 30.1587C66.1192 29.8328 66.0663 29.4414 66.0663 28.9844V24.5537H67.2406V28.9971C67.2406 29.306 67.2745 29.562 67.3422 29.7651C67.4141 29.964 67.5093 30.1227 67.6278 30.2412C67.7506 30.3555 67.886 30.4359 68.0341 30.4824C68.1864 30.529 68.343 30.5522 68.5038 30.5522C69.0032 30.5522 69.3988 30.457 69.6908 30.2666C69.9828 30.0719 70.1923 29.8117 70.3192 29.4858C70.4504 29.1558 70.516 28.7897 70.516 28.3877Z" fill="#8E8E8E"/>
</g>
</g>
<defs>
<clipPath id="clip0_1_232">
<rect width="75.3594" height="18" fill="white" transform="translate(0.3125 0.421875)"/>
</clipPath>
<clipPath id="clip1_1_232">
<rect width="75.3594" height="39" fill="white" transform="translate(0.3125 11.4219)"/>
</clipPath>
<clipPath id="clip2_1_232">
<rect width="75.3594" height="18" fill="white" transform="translate(0.3125 18.4219)"/>
</clipPath>
</defs>
</svg>
