<svg width="470" height="19" viewBox="0 0 470 19" fill="none" xmlns="http://www.w3.org/2000/svg">
<path d="M4.05615 12.019L6.7793 4.17969H8.10596L4.68457 13.4219H3.73877L4.05615 12.019ZM1.51074 4.17969L4.2085 12.019L4.54492 13.4219H3.59912L0.184082 4.17969H1.51074ZM10.4482 6.55371V13.4219H9.26758V6.55371H10.4482ZM9.17871 4.73193C9.17871 4.5415 9.23584 4.3807 9.3501 4.24951C9.46859 4.11833 9.64209 4.05273 9.87061 4.05273C10.0949 4.05273 10.2663 4.11833 10.3848 4.24951C10.5075 4.3807 10.5688 4.5415 10.5688 4.73193C10.5688 4.9139 10.5075 5.07048 10.3848 5.20166C10.2663 5.32861 10.0949 5.39209 9.87061 5.39209C9.64209 5.39209 9.46859 5.32861 9.3501 5.20166C9.23584 5.07048 9.17871 4.9139 9.17871 4.73193ZM15.1836 13.5488C14.7054 13.5488 14.2716 13.4684 13.8823 13.3076C13.4972 13.1426 13.165 12.9119 12.8857 12.6157C12.6107 12.3195 12.3991 11.9683 12.251 11.562C12.1029 11.1558 12.0288 10.7114 12.0288 10.229V9.9624C12.0288 9.40381 12.1113 8.90658 12.2764 8.4707C12.4414 8.0306 12.6657 7.6582 12.9492 7.35352C13.2327 7.04883 13.5544 6.8182 13.9141 6.66162C14.2738 6.50505 14.6462 6.42676 15.0312 6.42676C15.5221 6.42676 15.9453 6.51139 16.3008 6.68066C16.6605 6.84993 16.9546 7.08691 17.1831 7.3916C17.4116 7.69206 17.5809 8.04753 17.6909 8.45801C17.8009 8.86426 17.856 9.30859 17.856 9.79102V10.3179H12.7271V9.35938H16.6816V9.27051C16.6647 8.96582 16.6012 8.6696 16.4912 8.38184C16.3854 8.09408 16.2161 7.8571 15.9834 7.6709C15.7507 7.4847 15.4333 7.3916 15.0312 7.3916C14.7646 7.3916 14.5192 7.44873 14.2949 7.56299C14.0706 7.67301 13.8781 7.83805 13.7173 8.05811C13.5565 8.27816 13.4316 8.54688 13.3428 8.86426C13.2539 9.18164 13.2095 9.54769 13.2095 9.9624V10.229C13.2095 10.5549 13.2539 10.8617 13.3428 11.1494C13.4359 11.4329 13.5692 11.6826 13.7427 11.8984C13.9204 12.1143 14.1341 12.2835 14.3838 12.4062C14.6377 12.529 14.9255 12.5903 15.2471 12.5903C15.6618 12.5903 16.013 12.5057 16.3008 12.3364C16.5885 12.1672 16.8403 11.9408 17.0562 11.6572L17.7671 12.2222C17.619 12.4465 17.4307 12.6602 17.2021 12.8633C16.9736 13.0664 16.6922 13.2314 16.3579 13.3584C16.0278 13.4854 15.6364 13.5488 15.1836 13.5488ZM20.9663 12.2031L22.731 6.55371H23.5054L23.353 7.67725L21.5566 13.4219H20.8013L20.9663 12.2031ZM19.7793 6.55371L21.2837 12.2666L21.3916 13.4219H20.5981L18.605 6.55371H19.7793ZM25.1938 12.2222L26.6284 6.55371H27.7964L25.8032 13.4219H25.0161L25.1938 12.2222ZM23.6768 6.55371L25.4033 12.1079L25.6001 13.4219H24.8511L23.0039 7.66455L22.8516 6.55371H23.6768ZM36.2769 12.2476V8.71191C36.2769 8.44108 36.2218 8.20622 36.1118 8.00732C36.006 7.8042 35.8452 7.64762 35.6294 7.5376C35.4136 7.42757 35.147 7.37256 34.8296 7.37256C34.5334 7.37256 34.2731 7.42334 34.0488 7.5249C33.8288 7.62646 33.6553 7.75977 33.5283 7.9248C33.4056 8.08984 33.3442 8.26758 33.3442 8.45801H32.1699C32.1699 8.21257 32.2334 7.96924 32.3604 7.72803C32.4873 7.48682 32.6693 7.26888 32.9062 7.07422C33.1475 6.87533 33.4352 6.71875 33.7695 6.60449C34.1081 6.486 34.4847 6.42676 34.8994 6.42676C35.3988 6.42676 35.8389 6.51139 36.2197 6.68066C36.6048 6.84993 36.9053 7.10596 37.1211 7.44873C37.3411 7.78727 37.4512 8.21257 37.4512 8.72461V11.9238C37.4512 12.1523 37.4702 12.3957 37.5083 12.6538C37.5506 12.9119 37.612 13.1341 37.6924 13.3203V13.4219H36.4673C36.408 13.2865 36.3615 13.1066 36.3276 12.8823C36.2938 12.6538 36.2769 12.4422 36.2769 12.2476ZM36.48 9.25781L36.4927 10.083H35.3057C34.9714 10.083 34.673 10.1105 34.4106 10.1655C34.1483 10.2163 33.9282 10.2946 33.7505 10.4004C33.5728 10.5062 33.4373 10.6395 33.3442 10.8003C33.2511 10.9569 33.2046 11.141 33.2046 11.3525C33.2046 11.5684 33.2533 11.7651 33.3506 11.9429C33.4479 12.1206 33.5939 12.2624 33.7886 12.3682C33.9875 12.4697 34.2308 12.5205 34.5186 12.5205C34.8783 12.5205 35.1956 12.4443 35.4707 12.292C35.7458 12.1396 35.9637 11.9535 36.1245 11.7334C36.2896 11.5133 36.3784 11.2996 36.3911 11.0923L36.8926 11.6572C36.863 11.835 36.7826 12.0317 36.6514 12.2476C36.5202 12.4634 36.3446 12.6707 36.1245 12.8696C35.9087 13.0643 35.6506 13.2272 35.3501 13.3584C35.0539 13.4854 34.7196 13.5488 34.3472 13.5488C33.8817 13.5488 33.4733 13.4578 33.1221 13.2759C32.7751 13.0939 32.5042 12.8506 32.3096 12.5459C32.1191 12.237 32.0239 11.8921 32.0239 11.5112C32.0239 11.1431 32.0959 10.8193 32.2397 10.54C32.3836 10.2565 32.591 10.0216 32.8618 9.83545C33.1326 9.64502 33.4585 9.50114 33.8394 9.40381C34.2202 9.30648 34.6455 9.25781 35.1152 9.25781H36.48ZM40.5742 3.67188V13.4219H39.3936V3.67188H40.5742ZM43.7354 3.67188V13.4219H42.5547V3.67188H43.7354ZM50.4321 8.22314H51.27C51.6805 8.22314 52.019 8.15544 52.2856 8.02002C52.5565 7.88037 52.7575 7.69206 52.8887 7.45508C53.0241 7.21387 53.0918 6.94303 53.0918 6.64258C53.0918 6.28711 53.0326 5.98877 52.9141 5.74756C52.7956 5.50635 52.6178 5.32438 52.3809 5.20166C52.1439 5.07894 51.8434 5.01758 51.4795 5.01758C51.1494 5.01758 50.8574 5.08317 50.6035 5.21436C50.3538 5.34131 50.1571 5.52327 50.0132 5.76025C49.8735 5.99723 49.8037 6.27653 49.8037 6.59814H48.6294C48.6294 6.12842 48.7479 5.70101 48.9849 5.31592C49.2218 4.93083 49.554 4.62402 49.9814 4.39551C50.4131 4.16699 50.9124 4.05273 51.4795 4.05273C52.0381 4.05273 52.5269 4.15218 52.9458 4.35107C53.3647 4.54574 53.6906 4.83773 53.9233 5.22705C54.1561 5.61214 54.2725 6.09245 54.2725 6.66797C54.2725 6.90072 54.2174 7.15039 54.1074 7.41699C54.0016 7.67936 53.8345 7.9248 53.606 8.15332C53.3817 8.38184 53.0897 8.57015 52.73 8.71826C52.3703 8.86214 51.9386 8.93408 51.4351 8.93408H50.4321V8.22314ZM50.4321 9.18799V8.4834H51.4351C52.0233 8.4834 52.5099 8.55322 52.895 8.69287C53.2801 8.83252 53.5827 9.01872 53.8027 9.25146C54.027 9.48421 54.1836 9.74023 54.2725 10.0195C54.3656 10.2946 54.4121 10.5697 54.4121 10.8447C54.4121 11.2764 54.3381 11.6593 54.1899 11.9937C54.0461 12.328 53.8408 12.6115 53.5742 12.8442C53.3118 13.077 53.0029 13.2526 52.6475 13.3711C52.292 13.4896 51.9048 13.5488 51.4858 13.5488C51.0838 13.5488 50.7051 13.4917 50.3496 13.3774C49.9984 13.2632 49.6873 13.0981 49.4165 12.8823C49.1457 12.6623 48.9341 12.3936 48.7817 12.0762C48.6294 11.7546 48.5532 11.3885 48.5532 10.978H49.7275C49.7275 11.2996 49.7974 11.5811 49.937 11.8223C50.0809 12.0635 50.284 12.2518 50.5464 12.3872C50.813 12.5184 51.1261 12.584 51.4858 12.584C51.8455 12.584 52.1545 12.5226 52.4126 12.3999C52.675 12.2729 52.876 12.0825 53.0156 11.8286C53.1595 11.5747 53.2314 11.2552 53.2314 10.8701C53.2314 10.485 53.151 10.1698 52.9902 9.92432C52.8294 9.67464 52.6009 9.49056 52.3047 9.37207C52.0127 9.24935 51.6678 9.18799 51.27 9.18799H50.4321ZM62.0039 4.17969V4.83984L58.1763 13.4219H56.9385L60.7598 5.14453H55.7578V4.17969H62.0039ZM69.4434 12.584C69.7227 12.584 69.9808 12.5269 70.2178 12.4126C70.4548 12.2983 70.6494 12.1418 70.8018 11.9429C70.9541 11.7397 71.0409 11.5091 71.062 11.251H72.1792C72.158 11.6572 72.0205 12.036 71.7666 12.3872C71.5169 12.7342 71.189 13.0156 70.7827 13.2314C70.3765 13.443 69.93 13.5488 69.4434 13.5488C68.9271 13.5488 68.4764 13.4578 68.0913 13.2759C67.7104 13.0939 67.3931 12.8442 67.1392 12.5269C66.8895 12.2095 66.7012 11.8455 66.5742 11.4351C66.4515 11.0203 66.3901 10.5824 66.3901 10.1211V9.85449C66.3901 9.39323 66.4515 8.95736 66.5742 8.54688C66.7012 8.13216 66.8895 7.76611 67.1392 7.44873C67.3931 7.13135 67.7104 6.88167 68.0913 6.69971C68.4764 6.51774 68.9271 6.42676 69.4434 6.42676C69.9808 6.42676 70.4505 6.53678 70.8525 6.75684C71.2546 6.97266 71.5698 7.26888 71.7983 7.64551C72.0311 8.0179 72.158 8.44108 72.1792 8.91504H71.062C71.0409 8.63151 70.9604 8.37549 70.8208 8.14697C70.6854 7.91846 70.4992 7.73649 70.2622 7.60107C70.0295 7.46143 69.7565 7.3916 69.4434 7.3916C69.0837 7.3916 68.7811 7.46354 68.5356 7.60742C68.2944 7.74707 68.1019 7.9375 67.958 8.17871C67.8184 8.41569 67.7168 8.68018 67.6533 8.97217C67.5941 9.25993 67.5645 9.55404 67.5645 9.85449V10.1211C67.5645 10.4215 67.5941 10.7178 67.6533 11.0098C67.7126 11.3018 67.812 11.5662 67.9517 11.8032C68.0955 12.0402 68.2881 12.2306 68.5293 12.3745C68.7747 12.5142 69.0794 12.584 69.4434 12.584ZM73.1885 10.064V9.91797C73.1885 9.42285 73.2604 8.9637 73.4043 8.54053C73.5482 8.11312 73.7555 7.74284 74.0264 7.42969C74.2972 7.1123 74.6252 6.86686 75.0103 6.69336C75.3953 6.51562 75.827 6.42676 76.3052 6.42676C76.7876 6.42676 77.2214 6.51562 77.6064 6.69336C77.9958 6.86686 78.3258 7.1123 78.5967 7.42969C78.8717 7.74284 79.0812 8.11312 79.2251 8.54053C79.369 8.9637 79.4409 9.42285 79.4409 9.91797V10.064C79.4409 10.5591 79.369 11.0182 79.2251 11.4414C79.0812 11.8646 78.8717 12.2349 78.5967 12.5522C78.3258 12.8654 77.9979 13.1108 77.6128 13.2886C77.2319 13.4621 76.8003 13.5488 76.3179 13.5488C75.8354 13.5488 75.4017 13.4621 75.0166 13.2886C74.6315 13.1108 74.3014 12.8654 74.0264 12.5522C73.7555 12.2349 73.5482 11.8646 73.4043 11.4414C73.2604 11.0182 73.1885 10.5591 73.1885 10.064ZM74.3628 9.91797V10.064C74.3628 10.4067 74.403 10.7305 74.4834 11.0352C74.5638 11.3356 74.6844 11.6022 74.8452 11.835C75.0103 12.0677 75.2155 12.2518 75.4609 12.3872C75.7064 12.5184 75.992 12.584 76.3179 12.584C76.6395 12.584 76.9209 12.5184 77.1621 12.3872C77.4076 12.2518 77.6107 12.0677 77.7715 11.835C77.9323 11.6022 78.0529 11.3356 78.1333 11.0352C78.2179 10.7305 78.2603 10.4067 78.2603 10.064V9.91797C78.2603 9.57943 78.2179 9.25993 78.1333 8.95947C78.0529 8.65479 77.9302 8.38607 77.7651 8.15332C77.6043 7.91634 77.4012 7.73014 77.1558 7.59473C76.9146 7.45931 76.631 7.3916 76.3052 7.3916C75.9836 7.3916 75.7 7.45931 75.4546 7.59473C75.2134 7.73014 75.0103 7.91634 74.8452 8.15332C74.6844 8.38607 74.5638 8.65479 74.4834 8.95947C74.403 9.25993 74.3628 9.57943 74.3628 9.91797ZM82.0815 7.91846V13.4219H80.9009V6.55371H82.0181L82.0815 7.91846ZM81.8403 9.72754L81.2944 9.7085C81.2987 9.23877 81.36 8.80501 81.4785 8.40723C81.597 8.00521 81.7726 7.65609 82.0054 7.35986C82.2381 7.06364 82.528 6.83512 82.875 6.67432C83.222 6.50928 83.624 6.42676 84.0811 6.42676C84.4027 6.42676 84.6989 6.47331 84.9697 6.56641C85.2406 6.65527 85.4754 6.79704 85.6743 6.9917C85.8732 7.18636 86.0277 7.43604 86.1377 7.74072C86.2477 8.04541 86.3027 8.41357 86.3027 8.84521V13.4219H85.1284V8.90234C85.1284 8.54264 85.0671 8.25488 84.9443 8.03906C84.8258 7.82324 84.6566 7.66667 84.4365 7.56934C84.2165 7.46777 83.9583 7.41699 83.6621 7.41699C83.3151 7.41699 83.0252 7.47835 82.7925 7.60107C82.5597 7.7238 82.3735 7.89307 82.2339 8.10889C82.0942 8.32471 81.9927 8.57227 81.9292 8.85156C81.87 9.12663 81.8403 9.41862 81.8403 9.72754ZM86.29 9.08008L85.5029 9.32129C85.5072 8.94466 85.5685 8.58285 85.687 8.23584C85.8097 7.88883 85.9854 7.57992 86.2139 7.30908C86.4466 7.03825 86.7323 6.82454 87.0708 6.66797C87.4093 6.50716 87.7965 6.42676 88.2324 6.42676C88.6006 6.42676 88.9264 6.47542 89.21 6.57275C89.4977 6.67008 89.7389 6.82031 89.9336 7.02344C90.1325 7.22233 90.2827 7.47835 90.3843 7.7915C90.4858 8.10465 90.5366 8.47705 90.5366 8.90869V13.4219H89.356V8.896C89.356 8.5109 89.2946 8.21257 89.1719 8.00098C89.0534 7.78516 88.8841 7.63493 88.6641 7.55029C88.4482 7.46143 88.1901 7.41699 87.8896 7.41699C87.6315 7.41699 87.403 7.46143 87.2041 7.55029C87.0052 7.63916 86.8381 7.76188 86.7026 7.91846C86.5672 8.0708 86.4635 8.24642 86.3916 8.44531C86.3239 8.64421 86.29 8.85579 86.29 9.08008ZM93.4819 7.91846V13.4219H92.3013V6.55371H93.4185L93.4819 7.91846ZM93.2407 9.72754L92.6948 9.7085C92.6991 9.23877 92.7604 8.80501 92.8789 8.40723C92.9974 8.00521 93.173 7.65609 93.4058 7.35986C93.6385 7.06364 93.9284 6.83512 94.2754 6.67432C94.6224 6.50928 95.0244 6.42676 95.4814 6.42676C95.8031 6.42676 96.0993 6.47331 96.3701 6.56641C96.641 6.65527 96.8758 6.79704 97.0747 6.9917C97.2736 7.18636 97.4281 7.43604 97.5381 7.74072C97.6481 8.04541 97.7031 8.41357 97.7031 8.84521V13.4219H96.5288V8.90234C96.5288 8.54264 96.4674 8.25488 96.3447 8.03906C96.2262 7.82324 96.057 7.66667 95.8369 7.56934C95.6169 7.46777 95.3587 7.41699 95.0625 7.41699C94.7155 7.41699 94.4256 7.47835 94.1929 7.60107C93.9601 7.7238 93.7739 7.89307 93.6343 8.10889C93.4946 8.32471 93.3931 8.57227 93.3296 8.85156C93.2703 9.12663 93.2407 9.41862 93.2407 9.72754ZM97.6904 9.08008L96.9033 9.32129C96.9076 8.94466 96.9689 8.58285 97.0874 8.23584C97.2101 7.88883 97.3857 7.57992 97.6143 7.30908C97.847 7.03825 98.1326 6.82454 98.4712 6.66797C98.8097 6.50716 99.1969 6.42676 99.6328 6.42676C100.001 6.42676 100.327 6.47542 100.61 6.57275C100.898 6.67008 101.139 6.82031 101.334 7.02344C101.533 7.22233 101.683 7.47835 101.785 7.7915C101.886 8.10465 101.937 8.47705 101.937 8.90869V13.4219H100.756V8.896C100.756 8.5109 100.695 8.21257 100.572 8.00098C100.454 7.78516 100.285 7.63493 100.064 7.55029C99.8486 7.46143 99.5905 7.41699 99.29 7.41699C99.0319 7.41699 98.8034 7.46143 98.6045 7.55029C98.4056 7.63916 98.2384 7.76188 98.103 7.91846C97.9676 8.0708 97.8639 8.24642 97.792 8.44531C97.7243 8.64421 97.6904 8.85579 97.6904 9.08008ZM106.564 13.5488C106.086 13.5488 105.653 13.4684 105.263 13.3076C104.878 13.1426 104.546 12.9119 104.267 12.6157C103.992 12.3195 103.78 11.9683 103.632 11.562C103.484 11.1558 103.41 10.7114 103.41 10.229V9.9624C103.41 9.40381 103.492 8.90658 103.657 8.4707C103.822 8.0306 104.047 7.6582 104.33 7.35352C104.614 7.04883 104.935 6.8182 105.295 6.66162C105.655 6.50505 106.027 6.42676 106.412 6.42676C106.903 6.42676 107.326 6.51139 107.682 6.68066C108.041 6.84993 108.335 7.08691 108.564 7.3916C108.792 7.69206 108.962 8.04753 109.072 8.45801C109.182 8.86426 109.237 9.30859 109.237 9.79102V10.3179H104.108V9.35938H108.062V9.27051C108.046 8.96582 107.982 8.6696 107.872 8.38184C107.766 8.09408 107.597 7.8571 107.364 7.6709C107.132 7.4847 106.814 7.3916 106.412 7.3916C106.146 7.3916 105.9 7.44873 105.676 7.56299C105.451 7.67301 105.259 7.83805 105.098 8.05811C104.937 8.27816 104.812 8.54688 104.724 8.86426C104.635 9.18164 104.59 9.54769 104.59 9.9624V10.229C104.59 10.5549 104.635 10.8617 104.724 11.1494C104.817 11.4329 104.95 11.6826 105.124 11.8984C105.301 12.1143 105.515 12.2835 105.765 12.4062C106.019 12.529 106.306 12.5903 106.628 12.5903C107.043 12.5903 107.394 12.5057 107.682 12.3364C107.969 12.1672 108.221 11.9408 108.437 11.6572L109.148 12.2222C109 12.4465 108.812 12.6602 108.583 12.8633C108.354 13.0664 108.073 13.2314 107.739 13.3584C107.409 13.4854 107.017 13.5488 106.564 13.5488ZM111.782 8.02002V13.4219H110.608V6.55371H111.719L111.782 8.02002ZM111.503 9.72754L111.014 9.7085C111.018 9.23877 111.088 8.80501 111.224 8.40723C111.359 8.00521 111.549 7.65609 111.795 7.35986C112.04 7.06364 112.332 6.83512 112.671 6.67432C113.014 6.50928 113.392 6.42676 113.807 6.42676C114.146 6.42676 114.45 6.47331 114.721 6.56641C114.992 6.65527 115.223 6.79915 115.413 6.99805C115.608 7.19694 115.756 7.45508 115.857 7.77246C115.959 8.08561 116.01 8.46859 116.01 8.92139V13.4219H114.829V8.90869C114.829 8.54899 114.776 8.26123 114.67 8.04541C114.565 7.82536 114.41 7.66667 114.207 7.56934C114.004 7.46777 113.754 7.41699 113.458 7.41699C113.166 7.41699 112.899 7.47835 112.658 7.60107C112.421 7.7238 112.216 7.89307 112.042 8.10889C111.873 8.32471 111.74 8.57227 111.643 8.85156C111.549 9.12663 111.503 9.41862 111.503 9.72754ZM120.669 6.55371V7.45508H116.956V6.55371H120.669ZM118.212 4.88428H119.387V11.7207C119.387 11.9535 119.423 12.1291 119.495 12.2476C119.567 12.366 119.66 12.4443 119.774 12.4824C119.888 12.5205 120.011 12.5396 120.142 12.5396C120.239 12.5396 120.341 12.5311 120.447 12.5142C120.557 12.493 120.639 12.4761 120.694 12.4634L120.701 13.4219C120.608 13.4515 120.485 13.479 120.333 13.5044C120.184 13.534 120.005 13.5488 119.793 13.5488C119.505 13.5488 119.241 13.4917 119 13.3774C118.758 13.2632 118.566 13.0728 118.422 12.8062C118.282 12.5353 118.212 12.1714 118.212 11.7144V4.88428ZM126.045 11.6001C126.045 11.4308 126.007 11.2743 125.931 11.1304C125.859 10.9823 125.709 10.849 125.48 10.7305C125.256 10.6077 124.918 10.502 124.465 10.4131C124.084 10.3327 123.739 10.2375 123.43 10.1274C123.125 10.0174 122.865 9.88411 122.649 9.72754C122.438 9.57096 122.275 9.38688 122.161 9.17529C122.046 8.9637 121.989 8.71615 121.989 8.43262C121.989 8.16178 122.049 7.90576 122.167 7.66455C122.29 7.42334 122.461 7.20964 122.681 7.02344C122.905 6.83724 123.174 6.69124 123.487 6.58545C123.8 6.47965 124.15 6.42676 124.535 6.42676C125.085 6.42676 125.555 6.52409 125.944 6.71875C126.333 6.91341 126.632 7.17367 126.839 7.49951C127.046 7.82113 127.15 8.17871 127.15 8.57227H125.976C125.976 8.38184 125.918 8.19775 125.804 8.02002C125.694 7.83805 125.531 7.68783 125.315 7.56934C125.104 7.45085 124.844 7.3916 124.535 7.3916C124.209 7.3916 123.944 7.44238 123.741 7.54395C123.542 7.64128 123.396 7.76611 123.303 7.91846C123.214 8.0708 123.17 8.23161 123.17 8.40088C123.17 8.52783 123.191 8.64209 123.233 8.74365C123.28 8.84098 123.36 8.93197 123.475 9.0166C123.589 9.09701 123.75 9.17318 123.957 9.24512C124.164 9.31706 124.429 9.389 124.75 9.46094C125.313 9.58789 125.777 9.74023 126.141 9.91797C126.505 10.0957 126.775 10.3136 126.953 10.5718C127.131 10.8299 127.22 11.1431 127.22 11.5112C127.22 11.8117 127.156 12.0868 127.029 12.3364C126.907 12.5861 126.727 12.8019 126.49 12.9839C126.257 13.1616 125.978 13.3013 125.652 13.4028C125.33 13.5002 124.968 13.5488 124.566 13.5488C123.961 13.5488 123.449 13.4409 123.03 13.2251C122.611 13.0093 122.294 12.73 122.078 12.3872C121.862 12.0444 121.754 11.6826 121.754 11.3018H122.935C122.952 11.6234 123.045 11.8794 123.214 12.0698C123.384 12.256 123.591 12.3893 123.836 12.4697C124.082 12.5459 124.325 12.584 124.566 12.584C124.888 12.584 125.157 12.5417 125.373 12.457C125.593 12.3724 125.76 12.256 125.874 12.1079C125.988 11.9598 126.045 11.7905 126.045 11.6001Z" fill="#8E8E8E"/>
</svg>
